<svg xmlns="http://www.w3.org/2000/svg" xmlns:xlink="http://www.w3.org/1999/xlink" viewBox="0 0 300 300" xmlns:v="https://vecta.io/nano"><style><![CDATA[.T{clip-path:url(#H)}.U{fill:#4b2508}.V{fill:#dbc190}.W{fill:#d90037}.X{fill:#f9eb2e}.Y{fill:#3227fc}.Z{clip-path:url(#F)}.a{fill:#272425}]]></style><defs><path id="A" d="M0-.6h300v300H0z"/><path id="B" d="M172.7 157.7c-.1-.1-.1-.2 0-.2.8-.2 1.5-.5 2.1-.8.5-.2.9-.4 1.3-.5-.3.2-.7.4-1.2.6-.6.4-1.3.7-2.2.9h0 0z"/><path id="C" d="M172 140.9h-5.2v-35.8h5.2v35.8h0zm-.1-35.7h-5.1l.1 35.7h5.1v-35.7h-.1z"/></defs><clipPath id="D"><use xlink:href="#A"/></clipPath><g clip-path="url(#D)"><defs><path id="E" d="M-67.1-.6H366V300H-67.1z"/></defs><clipPath id="F"><use xlink:href="#E"/></clipPath><path d="M230.6-.6H366V300H230.6z" class="W Z"/><path d="M68.4-.6h162.2V300H68.4z" fill="#eee528" class="Z"/><path d="M-67.1-.6H68.3V300H-67.1z" fill="#221e88" class="Z"/><g class="Z"><defs><path id="G" d="M-67.1 23.4H366V276H-67.1z"/></defs><clipPath id="H"><use xlink:href="#G"/></clipPath><g class="T a"><path d="M154.8 98c-.7-.4-.6-1.4-.1-1.9.4-.5 1.3-.6 2-.2l.8.4c.1 0 .1.1.1.2 0 0 0 .1-.1.1l-.9-.5c-.7-.4-1.4-.3-1.8.1-.4.5-.6 1.3 0 1.8h0z"/></g><g class="T V"><path d="M102.8 166.7l.6-1.2.5-.8.6-1.2c.1-.2.2-.3.3-.6l.1-.1c.1 0 .1.1.1.1-.1.3-.2.4-.3.6l-.4.5h.1l-.4.7-.5.8-.7 1.2h0z"/></g><path d="M136 78.2c5.3 0 7.5 4.6 12.8 4.6 3.3 0 5.2-1.1 8.1-2.7 2-1.1 3.3-1.7 5.6-1.7 2.4 0 3.8.7 5 2.7.7 1.1 1.2 3.4.9 4.7-.6 2.4-.9 3.5-1.9 5.7-.4 1.1-.9 1.7-.9 2.9 0 2.8 3.9 3.8 6.5 3.8.6 0 5.4.1 8.3-2.9-1.6-.1-3.4-1.3-3.4-2.9 0-1.8 1.3-3.1 3-3.6.3-.1.9.2 1.2 0 .4-.2.2-.7.6-1 .9-.7 1.4-1.1 2.5-1.1.7 0 1.2.1 1.7.5.3.2.4.5.8.5.8 0 1.2-.5 2-.5.6 0 1 .1 1.6.4.5.2.5 1 1 1 .3 0 1.7-.6 2.4-.6 1.5 0 2.3.6 3.3 1.7.3.3.4 1 .7 1 .5 0 1.8.3 2.6 1.1.3.3.5.5.7.9.2.3.4 1 .8 1.1s.7.1 1.2.4c1.1.7 2 2.1 2 3.4 0 .4-.2 1-.3 1.5-1.3 4.6-4.4 6-7.5 9.9-1.3 1.7-2.4 3-2.4 5.1 0 .5.6 1.5.9 1.9-.2-1 .3-2.2 1.3-2.3 1.5-.1 2.6 1 2.8 2.5 0 .3-.1.9-.2 1.3.8-.5 1.8-.9 2.7-1 .5-.1.8-.1 1.3-.1 2.3.1 4.9 1.4 6.4 2.7 4.8 4 5.3 9.9 5.1 11.6-.6 3.6-.2 10.2-9.5 12.9 1.7.7 2.9 2 2.9 3.6 0 1.7-1.3 3.2-3.1 3.2-1 0-1.7-.3-2.4-.9-1.9 1.9-2.3 3.9-2.3 6.7 0 1.7.3 2.6 1 4.1.7 1.6 1.3 2.5 2.6 3.6.7-1 1.4-1.8 2.7-1.8 1.2 0 2.3.4 2.7 1.5.2.3 0 .6.2.9.2.4.6.5.8.9.3.6 0 1.2.3 1.9.2.4.6.5.8.9.3.7.4 1.1.4 1.9 0 2.1-1.9 3.6-4 3.6-.6 0-1-.2-1.6-.2 1.2 1.2 2.1 1.7 3 3.1 1.3 2.1 1.6 3.5 1.9 5.9.1.5.1.7.1 1.2 0 3.1-.5 5-1.9 7.8-1.3 2.7-2.5 4.1-4.9 5.9-3.8 2.7-6.5 3.5-11.1 4.4-2.9.6-4.6.8-7.6 1-3.8.2-6 .2-9.7.5-5 .3-8.4 1-11.9 4.6 1.7 1.2 2.8 2.4 2.8 4.5s-1.3 3.6-3.3 4.3c-.5.2-.8 0-1.3.2-.5.3-.5.9-1 1.2-.9.5-1.6.7-2.6.7-1.9 0-3.1-.4-4.4-1.8-1.5 1.3-2 2.4-3.7 3.4-.6.3-.9.7-1.5.7-1 0-1.5-.7-2.3-1.2-1.3-1-2-1.6-3.1-2.8-1.6.9-2.5 1.7-4.3 1.7a4.95 4.95 0 0 1-2.7-.7c-.5-.3-.6-.8-1.1-1.1s-.9-.2-1.5-.4c-2.1-.9-3.4-2.4-3.4-4.7 0-2 1.2-3.3 3.1-4.1-3.5-3.5-6.9-4.1-11.8-4.4l-9.7-.5c-3-.2-4.7-.5-7.6-1-2.2-.4-3.6-.5-5.6-1.4-7.1-3.3-11.6-7.8-12.5-15.6-.1-.7-.1-1-.1-1.7 0-4 1.6-6.5 4.4-9.3-.7-.2-1.2.1-1.9-.2-1.8-.6-3.1-1.9-3.1-3.8 0-.7 0-1.2.4-1.8.2-.4.7-.5.8-1 .1-.6 0-1.1.3-1.7.2-.4.6-.5.8-.9.6-1.3 1.4-2.3 2.8-2.3 1.2 0 2 .7 2.6 1.7 1.2-.6 1.5-1.4 2.2-2.6 1.1-1.9 1.6-3.2 1.6-5.3 0-1.5-.1-2.4-.6-3.8-.3-1-.5-1.7-1.2-2.5-.7.7-1.4.9-2.4.9-2 0-3.5-1.7-3.5-3.7 0-1.5.7-2.6 2.1-3.2-1.1-.9-2-1-3.2-1.7-1.8-1.1-2.4-2.3-3.6-4.1-.8-1.2-1-2-1.4-3.3-.5-1.6-.7-2.6-.7-4.3 0-.4 0-.7.1-1.1.4-3.4 1-5.5 3.2-8.2 1.2-1.6 2.1-2.6 4-3.4 1.6-.7 2.5-1.2 4.3-1.2.5 0 .8 0 1.3.1.8.1 1.3.2 2 .6.3.1.7.6.7.3 0-.4-.2-.5-.2-.9 0-1.4 1-2.8 2.5-2.8 1 0 1.5.9 2 1.8.3-.5.5-.9.5-1.6 0-2.4-1.3-3.6-2.8-5.4-3.2-4-7.3-5.9-7.3-11.1 0-1.5.7-2.6 2.1-3.4.4-.2.9 0 1.3-.2.3-.2.3-.6.5-.9.3-.5.6-.7 1-1.1.7-.6 1.4-.4 2.2-1 .4-.3.5-.6.8-1 .9-1.1 1.7-1.6 3.1-1.6.7 0 1.1 0 1.8.3.2.1.7.4.7.4.1-.2.5-.6 1-.8.6-.3.8-.4 1.5-.4.8 0 1.3.4 2 .4.3 0 .3-.3.6-.4.7-.4 1.1-.7 1.9-.7s1.2.3 1.9.7c.6.4.7.9 1.4 1.3.4.2.7.1 1.1.3 1.8.6 3.1 1.8 3.1 3.6 0 1-.2 1.8-1 2.4-.6.5-1.2.4-1.9.7 2.5 2 4.6 2.5 7.8 2.5 2.9 0 6.5-1.2 6.5-4.1 0-1.4-.7-2.1-1.3-3.3-1-2.2-1.5-3.5-1.5-5.9 0-1.9.2-3.1 1.3-4.6 1.1-2 2.5-2.4 4.4-2.4h0z" class="T V"/><g class="T a"><path d="M97.6 123.9c-.2 0-.5-.1-.7-.2-.1 0-.1-.1 0-.1 0 0 .1-.1.1 0 .4.2.9.2 1.3-.1s.6-.9.5-1.5-.8-1.4-1.6-1.4c1-.1 1.7.7 1.8 1.4s-.1 1.3-.6 1.7c-.2.2-.5.2-.8.2h0z"/></g><g class="T V"><path d="M153 213.7c-2.7-.3-3.8-2-3.8-3.4 0-.4 0-.8.1-1.1.3-1.9 1.6-3.3 3-4.7l.6-.5c.8-.7 1.3-1 1.7-1.3 2-1.3 4.2-2.2 7.1-3.1l1.7-.5 3.1-.6 1.1-.2c1.3-.2 2.5-.3 3.9-.4l1.4-.1 5-.1h2.8 3.8.6l3.9-.2c3.9-.4 7-.9 9.9-2.8 3.5-2.2 6.1-7.4 4.5-12.1a6.76 6.76 0 0 0-.7-1.7c-.2-.3-.5-.8-.7-1.1-.6-.7-1.2-1.1-1.7-1.4-1.5-.9-3.4-.3-4.1.5-.6.7-.9 1.5-.6 2.2.1.4.3.7.4.8v.1h-.1c-.2-.2-.4-.4-.5-.9-.2-.8 0-1.7.7-2.4.7-.8 2.7-1.5 4.3-.6.6.3 1.3.7 1.9 1.5.2.3.5.8.7 1.1.4.7.6 1.4.7 1.7 1.7 4.8-1 10.1-4.5 12.4-3 1.9-6 2.5-10 2.8-1.6.1-2.5.2-3.9.2h-.6c-1.3.1-2.4 0-3.5 0h-3.1c-1.5 0-3.1-.1-5 .1l-1.4.1c-1.4.1-2.5.2-3.8.4l-1.1.2c-.8.1-1.8.3-2.7.5l-2.1.5c-3 .9-5.1 1.8-6.7 2.9-.8.5-1.3.8-1.7 1.2l-.9.8c-1.4 1.4-2.6 2.7-3 4.6-.1.3-.1.7-.1 1.1-.2 1.4.9 3 3.4 3.5h0z"/></g><g class="T U"><path d="M162.7 213.7c-1.2 0-2-.8-2.3-1.5.7.5 1.5 1.2 2.6 1.1.4-.1.8-.2 1-.5s.3-.6.2-1v-.6l-.2.1c0-.1-.2-.4-.4-.6l.2-.3c.4.2.6.7.6.8l.3.6c.1.5 0 1-.3 1.4s-.7.6-1.3.7c-.2-.2-.3-.2-.4-.2h0z"/></g><g class="T U"><path d="M98.6 193.7c-2.6-2-4.8-6.3-3.2-10.8.1-.4.3-1 .8-1.8.2-.3.5-.7.7-1 .7-.9 1.4-1.3 1.9-1.6 1.6-.9 3.6-.2 4.3.7.7.8 1 2.1.3 3-.5.7-.9.6-1.3.5s-.6-.3-.7-.4l.1-.5.2.3c.8.3 1 .4 1.3-.1.5-.7.2-1.8-.3-2.4-.6-.8-2.4-1.4-3.8-.6-.5.3-1.1.6-1.7 1.4l-.8 1.1c-.4.7-.6 1.3-.7 1.6-1.5 4.3.6 8.4 2.9 10.6h0z"/></g><g class="T U"><path d="M162.5 213.5c-1 0-1.8-.6-2.2-1.5.6.3 1.2 1.3 2.5 1.1.4 0 .8-.2 1-.5s.3-.6.2-1c0-.2-.1-.3-.2-.5h0s-.2-.2-.4-.5c-.1-.1-.1-.2 0-.3s.2-.1.3 0c.3.3.5.6.5.6.1.3.2.5.2.7.1.5 0 1-.3 1.3-.3.4-.7.6-1.3.7-.1-.1-.2-.1-.3-.1h0z"/></g><g class="T U"><path d="M144 98.3c.2-.8.2-1.5-.2-2-.3-.4-1-.5-1.7-.1l-1.6.9c-.1.1-.2 0-.3-.1s0-.2.1-.3l1.6-.9c.8-.4 1.8-.4 2.3.2.4.6.5 1.6-.2 2.3h0z"/></g><path d="M116.7 93.7c.2.7.8 1.4 1.7 1.7.6.2 1.8.1 2.7-1 .7-.9.6-1.9.4-2.8-.2-.5-.6-1.1-1.2-1.5l-3.6 3.6h0z" class="T a"/><g class="T U"><path d="M118.9 95.7c-.2 0-.4 0-.6-.1-.9-.3-1.6-1-1.8-1.8L120 90c.9.5 1.4 1.1 1.5 1.6.2.7.4 1.9-.4 3-.7 1-1.8 1.1-2.2 1.1h0zm1.2-5.4l-3.2 3.5c.2.5.8 1.1 1.6 1.4l.5.1c.4 0 1.3-.1 1.9-1 .7-.9.5-2 .3-2.6-.2-.5-.6-1-1.1-1.4h0z"/></g><path d="M119.7 89.7l.5.4.5.5.3.7.2.6v.8.5l-.2.6-.3.4-.4.4-.6.3-.8.2-.6.1-.7-.3-.6-.4-.4-.6-.3-.7v-.3z" class="T V"/><g class="T U"><path d="M132.2 101l-.1-.4c3.8-.8 6.9-2.5 9.2-3.8-2.1 1.7-5.3 3.4-9.1 4.2h0z"/></g><g class="T U"><path d="M132 100.8l-.1-.4c3.8-.8 6.9-2.5 9.2-3.8-2.1 1.7-5.2 3.4-9.1 4.2h0z"/></g><g class="T U"><path d="M149.3 220.8c-2.3-.8-4.5-2.8-5.5-4.3 1.3 1.2 3.4 3.2 5.5 4 2-.8 4.1-2.7 5-4.2l.4.2c-1 1.4-3.2 3.5-5.4 4.3h0z"/></g><g class="T U"><path d="M190.1 97.8c1.1-1.6 1.7-2.4 2-4.2.3-1.3.1-3.3-1-4.8-1-1.4-2.3-1.6-4.1-.6-.1.1-.2 0-.3-.1s0-.2.1-.3c2-1.1 3.5-.8 4.6.7 1.1 1.6 1.4 3.8 1.1 5.2-.3 2-.9 2.8-2.4 4.1h0z"/></g><g class="T U"><path d="M194.4 100.7c1.6-1.4 3.5-3.5 3.6-6.6.1-1.7-.2-2.8-1.1-4.1-1.3-1.9-3.5-2.3-5.4-1-.1.1-.2 0-.3-.1s0-.2.1-.3c2.1-1.4 4.6-1 6 1.1.9 1.3 1.2 2.5 1.1 4.3-.1 3.4-2.2 5.7-4 6.7h0z"/></g><g class="T U"><path d="M196 119.8a3.08 3.08 0 0 1-1.3-.3c-2.1-1-3.1-2.8-3.1-6 0-3.8 3.2-7.1 5.6-9.6.8-.8 1.4-1.5 1.8-2.1l.4-.5c1.4-1.9 2.2-3 2.2-5.8 0-2.2-1.9-4.4-4.2-4.6l.1-.4c2.5.3 4.5 2.6 4.5 5.1 0 2.9-.9 4.1-2.3 6l-.4.5c-.4.6-1.1 1.3-1.9 2.1-2.3 2.4-5.4 5.7-5.4 9.3 0 3 .9 4.7 2.8 5.6 1.3.6 2.8 0 3.5-.7 1-.9 1.1-2.1.9-2.9s-.8-1.4-1.6-1.5-1.2.3-1.4.5c-.3.5-.4 1.1-.1 1.5.2.3.5.5 1.1.4-.6.5-1.1.3-1.4-.2-.3-.6-.3-1.4.1-2s1.1-.9 1.8-.7c.9.2 1.6.9 1.9 1.9.3 1.2 0 2.5-1 3.3-.4.6-1.5 1.1-2.6 1.1h0z"/></g><g class="T U"><path d="M196.6 116.6c-1.1 0-2.1-1.4-2.2-2.7-.1-2.9 2.8-5.8 5.2-8.1l2-2.1c2.1-2.6 2.8-3.7 2.8-6.3 0-1.7-1.3-3.2-3-3.4v-.4c1.9.1 3.3 1.8 3.3 3.8 0 2.7-.7 3.9-2.9 6.6-.5.6-1.2 1.3-2 2.1-2.3 2.3-5.2 5.1-5.1 7.8.1 1.4 1.2 2.6 2.1 2.7 0 0-.1 0-.2 0h0z"/></g><g class="T U"><path d="M203.7 143.8h-.6c-1.6-.1-3.1-.7-3.9-1.8-.8-1-1.2-2.2-1-3.6.2-1.3.9-2.3 1.9-2.9a3.39 3.39 0 0 1 3.1 0c1.2.6 1.5 1.8 1.3 2.7s-.9 1.6-1.9 1.7c-.7.1-1.5-.3-1.8-.9-.2-.5-.1-1 .2-1.4-.1.7 0 1 .1 1.2.2.4.7.8 1.4.7.8-.1 1.4-.6 1.5-1.4.1-.7-.1-1.7-1.1-2.2-.8-.5-1.8-.5-2.7 0s-1.6 1.4-1.7 2.6a3.96 3.96 0 0 0 .9 3.2c.8 1 2.1 1.5 3.6 1.6 2.6.1 5.3-.6 7.2-2 3.9-2.9 5.3-7.6 4.3-14.4-.6-3.8-3.2-6.9-4.7-8.1-3.1-2.5-8.3-3.3-11.1-.1-1.7 1.9-1.7 4.1-1 5.4.6 1.4 1.8 2.2 3.2 2.2 1.5 0 2.6-.8 3-2.1.3-1.1 0-2.4-.9-3-.6-.4-1.2-.6-1.7-.4-.7.2-1.1.9-1.2 1.1-.3.6-.1 1.1.3 1.4.3.2.7.3 1.1 0 .1-.1.2 0 .3 0 .1.1 0 .2 0 .3-.5.4-1.1.3-1.6 0a1.77 1.77 0 0 1-.4-1.9c.1-.2.5-1.1 1.4-1.3.7-.2 1.4 0 2.1.5 1 .7 1.4 2.1 1 3.4-.4 1.5-1.7 2.4-3.4 2.4-1.6.1-2.9-.9-3.6-2.5-.7-1.5-.7-3.8 1.1-5.9 3-3.3 8.4-2.5 11.7.1 1.5 1.2 4.3 4.4 4.9 8.3 1.1 6.9-.4 11.8-4.5 14.8-1.8 1.5-4.3 2.3-6.8 2.3h0z"/></g><g class="T U"><path d="M204.2 141c-.9 0-2.2-.3-2.9-1-.4-.4-.6-.8-.6-1.3.4.4.6.7.9 1 .6.6 1.9.9 2.8.9 4.8-.2 7.5-4 7.4-10.5-.1-5-3.1-10.4-7.6-10.5-1.8 0-3.6.3-4.1 2.5l-.4-.1c.6-2.5 2.8-2.8 4.5-2.8 4.8.1 7.9 5.7 8 10.9.1 6.6-2.9 10.7-7.8 10.9h-.2 0z"/></g><g class="T U"><path d="M202.4 140.2c6.1-1.9 6.6-6.1 6.6-9.8 0-2.4-.6-8-6.3-9.3h-.2l.1-.4h.2c4.2.9 6.6 4.6 6.6 9.7 0 2.8 0 8.1-7 9.8h0z"/></g><g class="T U"><path d="M208 173.4c-.5 0-1-.1-1.5-.2-1-.3-2.4-.9-2.9-1.2-1.9-1.1-3.1-1.9-4-2.9-2.1-2.1-3.4-4.7-4.1-7.9-.8-3.8 0-7.7.2-8.4 1.1-4.6 4.5-9.4 8.6-9.4 1 0 1.7 0 2.4.5.3.2.6.5.9.9s.5.8.6 1.2c.3.9.2 2-.3 2.7-.4.7-1.1 1.2-1.8 1.4a3.28 3.28 0 0 1-2.9-.6c-.5-.4-1-1.2-.8-2.5.1-.7.8-1.3 1.5-1.4.9-.1 1.6.4 2 1.3 0 .1 0 .2-.1.3-.1 0-.2 0-.3-.1-.3-.7-.9-1.1-1.5-1s-1.1.5-1.2 1c-.1.9.1 1.7.7 2.2s1.6.7 2.5.5c.7-.2 1.2-.6 1.6-1.2.4-.7.5-1.6.3-2.4-.1-.4-.3-.7-.6-1.1l-.8-.8c-.6-.3-1.1-.4-2.2-.4-3.9 0-7.1 4.7-8.1 9.1-.2.7-1 4.5-.2 8.2.7 3.1 2 5.6 4 7.7.9.9 2.1 1.8 3.9 2.8.5.3 1.9.9 2.8 1.2.8.2 1.7.3 2.6.1 1.1-.2 1.9-.8 2.2-1.7.4-.8.3-1.8-.2-2.8s-1.6-1.7-2.6-1.7c-.6-.1-1.4.2-2 1.2 0 0-.3.5-.3 1 0 .6.3 1.2.6 1.4.5.3 1.2.4 1.6.1.4-.2.6-.7.6-1.3.4.7.2 1.3-.3 1.6-.6.3-1.4.3-2.1-.2-.5-.3-.8-1.2-.8-1.8s.3-1.1.3-1.2c.5-.9 1.4-1.4 2.4-1.4 1.2 0 2.4.8 3 1.9s.7 2.2.2 3.2c-.4 1-1.4 1.6-2.5 1.9-.5.1-.9.2-1.4.2h0z"/></g><g class="T U"><path d="M207.8 171.1c-.4 0-.8-.1-1.3-.4-.3-.1-.7-.3-1.1-.6-1.9-1.1-4.1-2.7-6.1-6.5-.5-1-.9-2-1.2-3.1-.2-.8-.3-1.5-.3-2.3 0-1.3.1-2.8.4-4.4.5-2.6 1.2-4 2.9-6.3.8-1.2 1.6-1.8 3.1-1.9-1.4.5-2 1-2.8 2.1-1.6 2.2-2.3 3.6-2.8 6.2-.3 1.6-.5 3-.4 4.3 0 .8.2 1.5.3 2.3.3 1.1.6 2.1 1.2 3 2 3.7 4.1 5.3 5.7 6.2.6.4 1 .6 1.3.7.8.4 1.2.4 1.8.2l.2.4c-.4 0-.7.1-.9.1h0z"/></g><g class="T U"><path d="M206.5 168.6c-1-.2-1.4-1.1-1.4-1.9 0-1.6 1.3-2.9 2.9-2.9s2.9 1.3 2.9 2.9l-.3.3-.1-.3c0-1.4-1.1-2.5-2.5-2.5s-2.5 1.1-2.5 2.5a2.42 2.42 0 0 0 1 1.9h0z"/></g><g class="T U"><path d="M205.4 166.6c-.8-.3-1.1-.9-1.1-1.7 0-1.5 1.2-2.8 2.8-2.8 1.4 0 2.5 1 2.7 2.3l-.4.1c-.2-1.2-1.1-2-2.3-2-1.3 0-2.3 1.1-2.3 2.4 0 .6.2 1.2.6 1.7h0z"/></g><g class="T U"><path d="M204.5 164.5c-2.1-1.5-4.3-4.6-4.4-8.7 0-2.8 1.1-5.8 2.6-7.1-1.1 1.5-2.1 4.4-2.1 7.1 0 3.9 2.2 6.9 4.2 8.3l-.3.4h0z"/></g><g class="T U"><path d="M205.4 167c-2.5-.9-3.7-2.4-4.6-3.8-.1-.1 0-.2.1-.3s.2 0 .3.1c.9 1.3 2 2.8 4.2 4h0z"/></g><g class="T U"><path d="M164.2 208c3.6-5.1 10.3-5.4 17.5-5.6 5.7-.2 12.9-.7 17.7-2.7 7.6-3.1 9.5-7.5 10.3-9.1.9-1.8 1.5-4.5 1.6-6.8 0-1.4-.2-2.8-.6-3.9-1.2-3.6-3.1-5.7-6.8-7.7-2.1-1.1-3.8-1.5-5.6-1.3-2.1.3-3.8 1.7-4.4 2.4l-.3-.3c.9-1.1 2.8-2.4 4.7-2.6s3.7.2 5.8 1.4c3.8 2 5.7 4.2 7 7.9.4 1.1.6 2.6.6 4.1-.1 2.4-.7 5.2-1.4 6.6-.9 2.1-2.9 6.6-10.7 9.8-4.8 2-12.1 2.5-17.8 2.7-7.2.2-13.8.5-17.6 5.1h0z"/></g><g class="T U"><path d="M195.8 184.6c-1.3 0-2.5-.7-3.7-1.9-1.1-1.2-2.3-4.2-1.3-6.8.5-1.4 1.5-2.4 3.1-3.1 4.3-2.1 8.9.4 10.6 1.5.1.1.1.2.1.3-.1.1-.2.1-.3.1-1.7-1.1-6.1-3.5-10.2-1.5-1.5.7-2.3 1.6-2.8 2.9-1 2.5.1 5.3 1.2 6.4s2.2 1.7 3.3 1.8h.1c2.7 0 3-2 3-2 .3-1.9-.9-2.5-1.2-2.6-.2-.1-.9-.1-1.4.2-.3.1-.5.4-.6.6a1.71 1.71 0 0 0 .1 1.2c-.7-.3-.7-.9-.5-1.3.1-.4.4-.7.8-.9.6-.3 1.4-.3 1.7-.2s1.9.8 1.5 3.1c-.1.5-.9 2.2-3.5 2.2h0z"/></g><g class="T U"><path d="M153 213.5c-2.8-.1-4-1.8-4-3.3 0-.4 0-.8.1-1.1.3-1.9 1.6-3.3 3.1-4.7l.6-.5c.8-.7 1.3-1 1.8-1.3 2-1.3 4.2-2.2 7.1-3.1l1.7-.5 3.1-.6 1-.2c1.3-.2 2.5-.3 3.9-.4l1.4-.1 5-.1h2.8 3.8l1.3-.1c1.1 0 2-.1 3.2-.2 4.5-.5 7.4-1.4 9.9-2.8 3.4-2.1 6.1-7.2 4.4-11.9a6.76 6.76 0 0 0-.7-1.7c-.2-.3-.6-.8-.8-1.1-.5-.7-1.2-1.1-1.7-1.4-1.4-.8-3-.5-3.8.6-.6.8-.7 1.4-.6 2.1l-.4.1c-.2-.8 0-1.6.6-2.5.9-1.2 2.8-1.5 4.3-.7.5.3 1.2.7 1.8 1.5.2.3.6.8.8 1.1.4.8.6 1.4.7 1.7 1.8 5-1 10.3-4.6 12.5-2.5 1.5-5.5 2.3-10 2.8-1.3.1-2.2.2-3.3.2l-1.3.1c-1.3.1-2.4 0-3.5 0h-3.1c-1.5 0-3.1-.1-4.9.1l-1.4.1c-1.4.1-2.5.2-3.8.4l-1.1.2c-.8.1-1.8.3-2.7.5l-2.1.5c-2.9.9-5.1 1.8-6.7 2.9-.8.5-1.3.8-1.7 1.2l-.9.8c-1.4 1.3-2.6 2.7-2.9 4.5-.1.3-.1.7-.1 1.1.2 1.3 1.3 2.8 3.7 3.3h0z"/></g><g class="T U"><path d="M162.2 216.6a4.94 4.94 0 0 1-3.4-1.4c-1.1-1.1-1.8-2.7-1.8-4.2 0-6.4 10.8-9.1 11.2-9.2 3.8-.9 6.1-1.3 12.4-1.6.9-.1 1.8-.1 2.6-.1 1.4 0 2.7-.1 4.4-.3 2.5-.3 3.8-.4 6.2-.9 3.4-.8 6.2-2.2 8.6-4.3 2-1.8 3.1-3.1 4-5.6.8-2.1 1.2-6.3-.8-9.4-1.7-2.6-4-4.1-7-4.6-2.6-.4-4.7.8-6 3.2-.6 1.1-.5 3.1.1 4.1.4.7 1.6 1.9 3.1 2h.1c2.7 0 3-2 3-2 .3-1.9-.9-2.5-1.2-2.6-.2-.1-.9-.1-1.4.2-.3.1-.5.4-.6.6a1.71 1.71 0 0 0 .1 1.2c-.7-.3-.7-.9-.5-1.3.1-.4.4-.7.8-.9.6-.3 1.4-.3 1.7-.2s1.9.8 1.5 3.1c-.1.7-.9 2.4-3.4 2.4h-.1c-1.7 0-3-1.3-3.5-2.2-.6-1.1-.7-3.2-.1-4.5 1.4-2.6 3.7-3.8 6.4-3.4 3.1.5 5.6 2.1 7.3 4.8 2.1 3.3 1.7 7.7.9 9.8-.9 2.5-2.1 3.8-4.1 5.7-2.4 2.2-5.3 3.6-8.8 4.4-2.4.6-3.7.7-6 .9-1.9.2-3.3.2-4.7.3-.8 0-1.6 0-2.6.1-6.3.4-8.6.7-12.3 1.6-3.8.9-10.9 3.9-10.9 8.8 0 1.4.6 2.9 1.7 3.9.9.9 2 1.3 3.3 1.3 1.4-.1 2.7-.7 3.6-1.6.6-.8 1-1.7.9-2.7 0-.6-.1-1.1-.3-1.6-.6-1.4-1.9-2.3-3.3-2.3-.9 0-1.5.3-2.1.9-.5.6-.8 1.4-.7 2.1.1.6.3 1.2.8 1.5.4.3.8.4 1.4.4.5-.1.9-.3 1.1-.6.2-.4.2-.9-.1-1.4-.1-.1 0-.2.1-.3s.2 0 .3.1c.4.9.3 1.5.1 1.8-.3.5-.8.8-1.4.8-.6.1-1.2-.1-1.7-.4-.5-.4-.8-1.1-.9-1.8-.1-.9.2-1.8.8-2.4.6-.7 1.6-1.1 2.4-1.1 1.6 0 3 1 3.6 2.5.2.5.3 1.1.4 1.7.1 1.1-.3 2.2-1.1 3-.9 1.1-2.3 1.7-3.9 1.8-.1-.1-.2-.1-.2-.1h0z"/></g><g class="T U"><path d="M158.9 218.5c-1.5 0-2.8-.5-4-1.5-1.5-1.2-2.4-3.3-2.4-5.4 0-1 .2-2.5.9-3.5 2.1-3.4 4.7-4.5 8-6 .1-.1.2 0 .3.1 0 .1 0 .2-.1.3-3.3 1.5-5.7 2.6-7.8 5.8-.6.9-.8 2.3-.8 3.3 0 2 .9 3.9 2.2 5.1 1.3 1.1 2.7 1.5 4.5 1.4 1.3-.1 2.4-1.1 2.6-1.6.2.9-1.2 1.9-2.6 2.1-.3-.1-.5-.1-.8-.1h0z"/></g><g class="T U"><path d="M200 130a7.47 7.47 0 0 1-2-.3c-4.6-1.3-6.3-5-6.3-7.1 0-1.7.6-3 1.9-4.1l.3.3c-1.2 1-1.7 2.2-1.7 3.8 0 1.9 1.6 5.4 6 6.7 1.6.5 3.2.4 4.1-.2-.5.6-1.3.9-2.3.9h0z"/></g><g class="T U"><path d="M194.8 148.9c-1.5-.4-3.1-2-3.1-5 0-2.5 1.2-4.9 2.8-5.4l.1.4c-1.4.5-2.5 2.7-2.5 5 0 2.8 1.5 4.2 2.7 5h0z"/></g><g class="T U"><path d="M195.6 166.2c-2.9-2.9-4-5.7-3.9-9.3.1-4.3 1.7-6.4 4.4-9.9.1-.1.2-.1.3 0s.1.2 0 .3c-2.7 3.4-4.3 5.5-4.3 9.6-.1 3.6.9 6.3 3.5 9.3h0z"/></g><g class="T U"><path d="M185.4 97.6c1.2-1.3 2.2-2.6 2.5-4 .5-2.6-.1-4.7-1.7-6a2.47 2.47 0 0 0-2.2-.5c-.9.1-1.7.7-2.2 1.5l-.6.1.2-.2c.7-1.1 1.6-1.7 2.6-1.8.9-.1 1.8.1 2.5.6 1.7 1.3 2.4 3.7 1.9 6.4-.5 1.5-1.5 2.9-3 3.9h0z"/></g><g class="T U"><path d="M127.5 101.1c-3.8 0-7.1-.9-9.6-2.6-2.8-1.9-5.5-4.3-4.2-7.4.4-1.1 1.3-1.8 2.4-2.1 1.3-.3 2.7-.1 3.8.7.7.5 1.1 1.1 1.3 1.6.3 1.1.2 2.2-.4 3-.9 1.1-2.2 1.2-2.9 1-.9-.3-1.6-.9-1.8-1.7-.2-.7-.1-1.4.3-1.9.3-.4.8-.5 1.3-.4.6.1 1 .6 1.1 1.2 0 .1-.1.2-.2.3-.1 0-.2-.1-.3-.2-.1-.5-.4-.8-.8-.9s-.7 0-.9.3c-.3.4-.4.9-.2 1.5.2.7.8 1.2 1.5 1.5.5.1 1.6.1 2.4-.9.6-.8.5-1.9.3-2.6-.1-.5-.5-.9-1.1-1.4-1-.7-2.3-1-3.4-.7-1 .3-1.8.9-2.2 1.9-1.2 2.9 1.4 5.1 4 6.9 2.5 1.7 5.8 2.5 9.6 2.6 5.7-.1 10.3-2.6 13.3-4.3l.9-.5c.8-.4 1.7-.4 2.1.2.5.7.4 1.6-.2 2.2.2-.8.2-1.5-.1-1.9s-1-.4-1.6-.1l-.9.5c-3.1 1.7-7.7 4.3-13.5 4.4.1-.2.1-.2 0-.2h0z"/></g><g class="T U"><path d="M108.8 97.5c-1.8-1-2.4-1.8-2.8-3.8-.3-1.4-.2-3.7 1.1-5.2 1.1-1.4 2.7-1.6 4.6-.7.1 0 .2.2.1.3s-.2.2-.3.1c-1.8-.8-3.1-.6-4.1.6-1.2 1.4-1.3 3.5-1 4.8.4 1.9.9 2.6 2.4 3.9h0z"/></g><g class="T U"><path d="M104.4 100.4c-2.1-.7-4.2-3-4.3-6.2-.1-1.9.2-3 1.1-4.3 1.4-2.1 3.9-2.5 6-1.1l-.2.4c-2-1.3-4.1-.9-5.4 1-.9 1.3-1.1 2.3-1.1 4.1.2 2.9 2.1 5.1 3.9 6.1h0z"/></g><g class="T U"><path d="M102.5 119.8c-1.1 0-2.1-.5-2.7-1-.9-.9-1.3-2.1-1-3.3.3-1 1-1.7 1.9-1.8.8-.1 1.4.1 1.8.7s.5 1.4.1 2c-.3.5-.8.7-1.5.6.5-.4.9-.5 1.1-.9.3-.4.2-1.1-.1-1.5-.2-.3-.6-.7-1.4-.5-.7.1-1.3.7-1.5 1.5s-.1 2 .9 2.9c.6.6 2.1 1.3 3.5.7 2-.9 2.8-2.6 2.8-5.6 0-3.6-3.1-6.9-5.4-9.3-.8-.8-1.5-1.5-1.9-2.1-1.7-2.3-2.5-3.6-2.5-6.8 0-2.5 1.9-4.5 4.4-4.8v.4c-2.3.3-4 2.2-4 4.4 0 3 .8 4.3 2.4 6.5.4.6 1.1 1.3 1.8 2.1 2.3 2.5 5.6 5.8 5.6 9.6 0 3.2-.9 5-3.1 6a3.73 3.73 0 0 1-1.2.2h0z"/></g><g class="T U"><path d="M101.8 117h-.2c.3-.4.5-.4.7-.6.6-.5 1.1-1.6 1.1-2.6.1-2.8-2.8-5.7-5-7.9-.7-.7-1.4-1.4-1.8-2-2.2-2.8-3.2-4-3.2-6.6 0-2.1 1.9-3.6 3.7-3.7v.4c-1.6.1-3.3 1.5-3.3 3.3 0 2.5 1 3.7 2.9 6.1l2 2.2c2.2 2.2 5.2 5.2 5.1 8.2 0 1.1-.6 2.4-1.3 2.9-.2.2-.4.3-.7.3h0z"/></g><g class="T U"><path d="M95 143.8c-2.4 0-4.8-.9-6.9-2.7l-.8-.8-.6-.6c-.3-.3-.6-.7-.9-1.2-1-1.4-1.7-3.2-2.2-5.3-.3-1.2-.3-2.2-.3-2.9 0-1.2.1-2.2.4-3.6 1-4.9 4.6-7.8 5-8.2 3.4-2.7 8.6-3.5 11.4-.2 1.5 1.7 1.9 4.1 1 6-.7 1.5-2 2.5-3.5 2.4-1.7 0-3-.9-3.4-2.4-.4-1.3 0-2.7 1-3.4s1.8-.6 2.3-.5c.7.2 1.1.8 1.3 1.2.3.9 0 1.6-.5 2s-1.1.4-1.6 0c-.1-.1-.1-.2-.1-.3.1-.1.2-.1.3 0 .3.2.7.2 1.1 0 .4-.3.6-.9.4-1.5-.1-.4-.5-.8-1-1-.6-.2-1.2 0-1.9.4-.8.6-1.2 1.8-.9 2.9.4 1.3 1.5 2.1 3 2.1 1.2 0 2.4-.8 3.1-2.1.8-1.8.5-3.9-.9-5.5-2.7-3.1-7.6-2.3-10.9.2-1.4 1.1-4 4-4.8 7.9a14.47 14.47 0 0 0-.4 3.5c0 .7.1 1.6.3 2.8.4 2 1.1 3.8 2.1 5.1.3.4.6.8.9 1.1l.6.6c.2.2.4.5.7.7 2.2 1.8 4.6 2.7 7.1 2.6 1.5-.1 2.8-.6 3.6-1.6.7-.9 1.1-2 .9-3.2s-.9-2.3-1.9-2.7c-.8-.4-1.7-.3-2.4.2-.6.4-1 1.4-.9 2.2.1.5.4 1.1 1.3 1.4.5.1 1-.2 1.2-.5s.3-.8-.1-1.1c.7.1.8.8.4 1.3-.3.5-1 .9-1.7.7-.9-.3-1.4-.9-1.6-1.7a2.73 2.73 0 0 1 1-2.6c.8-.6 1.9-.7 2.8-.2 1.2.5 2 1.7 2.2 3.1.2 1.3-.2 2.6-1 3.6-.9 1.1-2.3 1.7-4 1.7.1.1 0 .1-.2.1h0z"/></g><g class="T U"><path d="M90.4 173.4c-.4 0-.8-.1-1.2-.2-1.1-.3-2-1-2.4-2-.4-.9-.4-2 .1-3.1s1.6-1.9 2.9-2c1-.1 2 .4 2.6 1.4.1.3.3.7.3 1.2 0 .7-.3 1.5-.8 1.8-.7.4-1.5.5-2.1.2-.5-.3-.8-.9-.8-1.6.4.6.6 1.1 1 1.3.4.3 1.1.2 1.6-.1.4-.2.6-.9.6-1.4 0-.4-.2-.8-.3-1-.5-.8-1.2-1.3-2.2-1.2s-2.1.8-2.5 1.7c-.4 1-.5 2-.1 2.8s1.1 1.4 2.1 1.7a4.64 4.64 0 0 0 2.6-.1c.9-.3 2.3-.9 2.8-1.2 1.9-1.1 3.1-1.9 3.9-2.8 2-2.1 3.3-4.6 4-7.7.8-3.7 0-7.5-.2-8.2-1.1-4.4-4.3-9.1-8.1-9.1-1.1 0-1.7.1-2.2.4-.2.1-.5.4-.8.8s-.4.7-.5 1.1a2.87 2.87 0 0 0 .2 2.4c.4.6.9 1.1 1.6 1.2.9.2 1.9 0 2.6-.5.6-.5.8-1.2.7-2.2 0-.5-.6-.9-1.1-1-.6-.1-1.2.3-1.5 1-.1.1-.2.2-.3.1-.1 0-.2-.2-.1-.3.4-.9 1.1-1.4 2-1.3.8.1 1.4.7 1.5 1.4.2 1.3-.4 2.1-.8 2.5a3.28 3.28 0 0 1-2.9.6c-.8-.2-1.4-.7-1.9-1.4-.5-.8-.6-1.8-.3-2.7.1-.4.3-.8.6-1.2s.6-.7.9-.9c.7-.4 1.4-.5 2.4-.5 4.1 0 7.5 4.9 8.6 9.4.2.7 1 4.6.2 8.4-.7 3.2-2 5.7-4.1 7.9-.9.9-2.1 1.8-4 2.9a28.52 28.52 0 0 1-2.9 1.2c-.6.2-1.2.3-1.7.3h0z"/></g><g class="T U"><path d="M90.8 171.1c-.3 0-.6-.1-.9-.2l.1-.4c.7.2 1 .2 1.9-.2.3-.1.5-.3.8-.4l.5-.2c1.6-.9 3.7-2.5 5.7-6.2.5-1 .9-1.9 1.1-3 .2-.9.3-1.6.3-2.3.1-1.3-.1-2.6-.4-4.3-.6-2.5-1.2-3.9-2.8-6.2-.8-1.1-1.5-1.7-2.8-1.7 1.7-.4 2.4.4 3.1 1.4 1.7 2.3 2.3 3.7 2.9 6.3.3 1.6.5 3 .4 4.4 0 .7-.1 1.4-.4 2.4-.3 1.1-.7 2.1-1.2 3.1-2 3.8-4.2 5.4-5.9 6.3l-1.3.7c-.4.3-.7.5-1.1.5h0z"/></g><g class="T U"><path d="M92.4 168.9c.3-.8.7-1.5.7-2.3 0-1.4-1.1-2.5-2.5-2.5s-2.5 1.1-2.5 2.5l-.4.5-.1-.5c0-1.6 1.3-2.9 2.9-2.9s2.9 1.3 2.9 2.9c.1 1-.3 1.8-1 2.3h0z"/></g><g class="T U"><path d="M93.4 166.9c.1-.7.3-1.3.3-2 0-1.3-1-2.4-2.3-2.4-1.1 0-2.1.8-2.3 2l-.4-.1c.2-1.4 1.4-2.3 2.7-2.3 1.5 0 2.7 1.3 2.7 2.8.1.8-.2 1.5-.7 2h0z"/></g><g class="T U"><path d="M94 164.5l-.2-.3c2-1.4 4.2-4.4 4.2-8.3 0-2.9-1.2-5.7-2.4-6.8 1.7.9 2.8 4 2.8 6.8 0 4-2.3 7.1-4.4 8.6h0z"/></g><g class="T U"><path d="M93.3 167.4c2-1.6 3.1-3 4-4.4.1-.1.2-.1.3-.1.1.1.1.2.1.3-.9 1.4-2.1 2.9-4.4 4.2h0z"/></g><g class="T U"><path d="M134.8 207.7c-4.1-4.4-10.8-4.7-17.9-4.9-6.2-.3-13.1-.8-17.8-2.7-7.7-3.2-9.7-7.7-10.5-9.3-.9-1.8-1.5-4.7-1.6-7 0-1.4.2-2.9.6-4.1 1.3-3.7 3.2-5.9 7-7.9 2.1-1.1 3.9-1.6 5.8-1.4 2.2.2 3.5 1 4.2 2.5l-.4.2c-.6-1.4-1.7-2.1-3.8-2.3-1.8-.2-3.5.2-5.5 1.3-3.7 2-5.5 4.1-6.8 7.7-.4 1.1-.6 2.6-.6 3.9.1 2.6.7 5.2 1.3 6.4.9 2.1 2.9 6.5 10.5 9.6 4.7 1.9 11.6 2.4 17.7 2.7 7.1.2 13.9.4 17.8 5.3h0z"/></g><g class="T U"><path d="M102.8 184.6c-2.5 0-3.3-1.7-3.4-2.4-.4-2.3 1.2-3 1.5-3.1s1.1-.1 1.8.2c.4.2.6.5.8.9.1.4.1 1.1-.2 1.6-.2-.6-.2-1.1-.2-1.4a.9.9 0 0 0-.6-.6c-.5-.3-1.2-.2-1.4-.2-.4.1-1.5.7-1.2 2.6 0 0 .3 1.9 3.1 2 1.5 0 2.7-1.1 3.3-1.8 1.1-1.1 2.1-3.9 1.2-6.4-.5-1.3-1.3-2.2-2.8-2.9-4.1-2-8.5.4-10.3 1.5-.1.1-.2 0-.3-.1s0-.2.1-.3c1.8-1.2 6.4-3.6 10.7-1.5 1.6.8 2.5 1.7 3 3.1 1 2.7-.1 5.6-1.3 6.8-1 1-2.2 2-3.8 2h0z"/></g><g class="T U"><path d="M145.6 214c2.4-.9 3.5-2.4 3.5-3.7 0-.4 0-.7-.1-1.1-.3-1.8-1.6-3.2-2.9-4.5-.2-.2-.3-.3-.5-.4l-.4-.4c-.3-.3-.8-.6-1.2-.9l-.5-.3c-1.6-1-3.7-2-6.7-2.9l-.8-.5-.1.2c-.3-.1-.6-.2-1-.2l-3-.6-1-.2-3.8-.4-1.4-.1-5-.1h-2.8-3.8-.7l-3.9-.2c-4-.4-7-1-10-2.8-3.6-2.3-6.3-7.6-4.6-12.4.1-.3.3-1 .8-1.8.2-.3.6-.8.8-1.1.6-.8 1.2-1.2 1.8-1.5 1.6-.9 3.6-.2 4.3.7a2.35 2.35 0 0 1 .6 2.5l-.4-.1c.2-.8 0-1.5-.6-2.1-.6-.7-2.4-1.4-3.8-.6-.4.2-1.1.6-1.7 1.4-.2.3-.6.8-.8 1.1-.4.7-.6 1.4-.7 1.6-1.7 4.7 1 9.7 4.4 12 2.9 1.8 5.9 2.4 9.8 2.8 1.5.1 2.5.2 3.9.2h.7 3.4 3.1c1.5 0 3.1-.1 5 .1l1.4.1c1.4.1 2.6.2 3.8.4l1 .2c.9.1 1.8.3 2.8.5.6.1.9.2 1.3.3l.8.2c3 .9 5.2 1.8 6.8 2.9l.5.3c.5.3.9.6 1.3.9l.4.4.5.5c1.4 1.4 2.7 2.8 3.1 4.7.1.4.1.8.1 1.1.2 1.5-1 3.2-3.7 3.8h0z"/></g><g class="T U"><path d="M136.4 216.6h-.2c-1.5-.1-3-.7-3.9-1.8-.7-.8-1.1-1.9-1-3 .1-.7.2-1.2.4-1.7.7-1.5 2.1-2.5 3.6-2.5a3.04 3.04 0 0 1 2.4 1.1c.6.7.9 1.6.8 2.4-.1.7-.4 1.4-.9 1.8s-1.1.5-1.7.4-1.1-.4-1.4-.8c-.2-.3-.3-.9.1-1.8l.4.2c-.3.6-.3 1.1-.1 1.4s.6.5 1.1.6 1-.1 1.4-.4.7-.9.8-1.5c.1-.8-.2-1.5-.7-2.1s-1.3-.8-2.1-.9c-1.4 0-2.6.9-3.2 2.3-.2.4-.3.9-.3 1.6-.1 1 .3 2 .9 2.7.8 1 2.1 1.6 3.6 1.6 1.3.1 2.4-.4 3.3-1.3 1.1-1 1.7-2.5 1.7-3.9 0-4.9-7.1-7.9-10.9-8.8-3.7-.9-6.1-1.2-12.3-1.6-.9-.1-1.7-.1-2.6-.1-1.4 0-2.8-.1-4.5-.3-2.5-.3-3.8-.4-6.3-1-3.5-.8-6.3-2.3-8.7-4.4-2.1-1.9-3.2-3.2-4.1-5.7-.8-2.1-1.2-6.5.9-9.8 1.7-2.7 4.2-4.3 7.3-4.8 2.7-.4 5.1.8 6.4 3.4.7 1.3.4 3.5-.1 4.5-.5.9-1.8 2.2-3.5 2.2-2.6.2-3.4-1.7-3.5-2.4-.4-2.3 1.2-3 1.5-3.1s1.1-.1 1.8.2c.4.2.6.5.8.9.1.4.1 1.1-.2 1.6-.2-.6-.2-1.1-.2-1.4a.9.9 0 0 0-.6-.6c-.5-.3-1.2-.2-1.4-.2-.4.1-1.5.7-1.2 2.6 0 0 .3 1.9 3.1 2 1.5 0 2.7-1.2 3.1-2s.7-2.9.1-4.1c-1.3-2.4-3.4-3.6-6-3.2-3 .4-5.3 2-7 4.6-2 3.2-1.6 7.4-.8 9.4.9 2.4 2 3.7 4 5.6 2.4 2.1 5.2 3.6 8.6 4.3 2.4.6 3.7.7 6 .9 1.9.2 3.3.2 4.7.3.8 0 1.6 0 2.6.1 6.3.4 8.6.7 12.4 1.6.5.1 11.2 2.8 11.2 9.2 0 1.5-.7 3.1-1.8 4.2-1.4 1-2.6 1.5-3.8 1.5h0z"/></g><g class="T U"><path d="M139.6 218.5h-.8c-1.4-.1-2.8-1.2-3-1.9.6.5 1.7 1.4 3 1.5 1.8.2 3.1-.2 4.4-1.4 1.4-1.2 2.2-3.1 2.2-5.1 0-1-.2-2.3-.8-3.3-2.1-3.2-4.5-4.3-7.8-5.8l.2-.4c3.4 1.5 5.9 2.6 8 6 .6 1 .9 2.5.9 3.5 0 2.1-.9 4.2-2.4 5.4-1.1 1-2.3 1.5-3.9 1.5h0z"/></g><g class="T U"><path d="M98.9 129.9c-1.2 0-2.2-.3-2.9-.8 1.1.2 2.7.6 4.4.1 4.4-1.2 6-4.8 6-6.7 0-1.6-.6-2.8-1.7-3.8l.3-.3c1.3 1.1 1.9 2.4 1.9 4.1 0 2-1.7 5.8-6.3 7.1-.6.3-1.2.3-1.7.3h0z"/></g><g class="T U"><path d="M99.2 133.7c-1.6 0-2.9-.4-4.2-1.2-1.7-1.2-2.5-2.7-2.7-3.8.7.9 1.3 2.4 3 3.5 1.2.8 2.7 1.1 4.1 1.2 2.6 0 4.8-1.4 5.9-2.7.8-.9 1.2-1.8 1.2-2.5 0-1-.3-1.5-1-2.1l.2-.3c.8.6 1.2 1.3 1.2 2.4 0 .8-.5 1.8-1.3 2.7-1.3 1.3-3.5 2.8-6.4 2.8h0 0z"/></g><g class="T U"><path d="M102.9 139.7c.3-.7.7-1 1.1-1.3 1.7-1.5 2.5-2.9 2.5-4.7 0-1.4-.3-2.3-1.1-3l.3-.3c.9.8 1.2 1.8 1.2 3.3 0 2-.8 3.5-2.6 5.1l-1.4.9h0z"/></g><g class="T U"><path d="M104 149.2c1-1.1 2.4-2.6 2.4-5.3 0-2.2-.7-3.6-2.6-5l.3-.3c2 1.6 2.8 3.1 2.8 5.4 0 2.8-1.6 4.4-2.9 5.2h0z"/></g><g class="T U"><path d="M103.3 166.5c2.2-3.3 3.2-6 3.1-9.6-.1-4.1-1.6-6.2-4.4-9.6-.1-.1-.1-.2 0-.3s.2-.1.3 0c2.8 3.5 4.4 5.6 4.5 9.9.2 3.7-.9 6.5-3.5 9.6h0z"/></g><g class="T U"><path d="M113.4 97.3c-1.8-.6-2.8-2-3.1-3.5-.6-2.8.1-5.1 1.9-6.4.7-.6 1.6-.8 2.5-.6a3.94 3.94 0 0 1 2.5 1.7l.1.5-.2.1V89c-.8-1.1-1.6-1.7-2.4-1.8s-1.5.1-2.2.5c-1.6 1.2-2.2 3.3-1.7 6 .2 1.4 1.1 2.6 2.6 3.6h0z"/></g><g class="T U"><path d="M126.6 98.4h-.2c-4.5-.1-7.2-1.3-9.9-4.2 2.9 2.5 5.5 3.6 9.9 3.8 1.1 0 3.6-.4 5.1-1.4 1.3-.9 1.7-2.1 1.2-3.5-.1-.4-.4-.9-.7-1.6-.8-1.7-1.9-4.1-2-6-.2-4.6 2-6.4 3.8-7 3.2-1.1 6.4.8 9.1 2.3 1.1.6 2 1.1 2.8 1.4 1.4.5 2.2.5 3.5.5s2-.1 3.5-.5c.8-.3 1.8-.8 2.8-1.4 2.6-1.5 5.9-3.4 9.1-2.3 1.9.6 4 2.4 3.8 7-.1 1.9-1.2 4.2-2 6-.3.7-.6 1.2-.7 1.6-.5 1.4-.1 2.6 1.2 3.5 1.4 1 3.9 1.3 5.1 1.4 4.4-.1 7-1.2 9.6-4l.3.3c-2.7 2.9-5.4 4-9.9 4.2-1.2.1-3.8-.4-5.4-1.5-1.5-1-1.9-2.4-1.4-4 .1-.4.4-1 .7-1.6.8-1.7 1.8-4.1 1.9-5.8.1-3.5-1.1-5.8-3.6-6.6-3-1.1-6.2.8-8.7 2.2-1.1.6-2.1 1.2-2.9 1.4-1.5.5-2.3.6-3.6.6-1.4 0-2.2-.1-3.6-.6-.8-.3-1.8-.8-2.9-1.4-2.6-1.5-5.8-3.3-8.7-2.2-2.4.9-3.7 3.2-3.5 6.6.1 1.8 1.1 4.1 1.9 5.8.3.7.6 1.3.7 1.6.5 1.6.1 3-1.4 4-1.2 1-3.6 1.4-4.9 1.4h0z"/></g><g class="T U"><path d="M154.9 101.1c-1.3 0-2.5-.7-3.2-2-.7-1.2-.7-2.6-.1-3.7 2.2-3.7 6.5-1.8 10.3 0-.1-.1-.1-.2-.2-.4-.1-.4-.3-.9-.3-1.7.1-1.8.8-2.9 1.6-4.2a10.62 10.62 0 0 0 1.5-2.8c.5-1.7.7-2.9-.4-3.9-.9-.8-1.9-1-3.3-.4-.7.3-1.5.7-2.4 1.2-2.3 1.3-5.1 2.9-9.2 2.9-4.1-.1-7-1.7-9.2-2.9-.9-.5-1.6-.9-2.4-1.2-1.4-.6-2.4-.4-3.3.4-1 1-.9 2.2-.4 3.9.3 1.1.9 1.9 1.5 2.8.8 1.2 1.6 2.4 1.6 4.2 0 .8-.1 1.2-.3 1.7-.1.2-.1.5-.2.8 4-2.2 8.3-4.2 10.3-.3.6 1.2.5 2.6-.2 3.8-1.4 2.3-4.9 2.4-5.8-.3-.3-1-.1-1.9.6-2.9-.3 1.1-.4 1.9-.2 2.8.8 2.4 3.8 2.2 5 .2.7-1.1.7-2.4.2-3.4-1.9-3.5-5.8-1.7-9.6.1l-.4.2-.4-.2c.1-.3.2-.6.2-.8.1-.4.3-.8.2-1.5-.1-1.7-.8-2.8-1.6-4-.6-.9-1.1-1.7-1.5-2.9-.5-1.5-.8-3.1.5-4.3 1-1 2.2-1.1 3.8-.5.7.3 1.5.7 2.4 1.2 2.2 1.3 5 2.8 9 2.9 4-.1 6.8-1.6 9-2.9.9-.5 1.7-.9 2.4-1.2 1.6-.6 2.8-.4 3.7.5 1.2 1.2 1.1 2.6.5 4.3-.4 1.1-.9 2-1.5 2.9-.8 1.2-1.5 2.3-1.6 4 0 .7.1 1.1.2 1.5.1.2.2.5.2.8l.1.4-.6-.3c-3.8-1.8-7.8-3.6-9.8-.2-.6.9-.5 2.2.1 3.3 1.2 2.1 4.3 2.4 5.1-.1.3-1 0-1.5-.5-2.5l.4-.2c.6 1 .9 1.7.6 2.9-.1 1.2-1.1 2-2.4 2h0z"/></g><g class="T V"><path d="M149.3 90.8c-2.1 0-3.2-.3-5.5-1.6l-1.6-1c-.7-.5-1.2-.9-2.1-.9-.2 0-.6.1-.9.4-.2.2-.5.7-.5 1.4-.2-.7.1-1.2.4-1.5s.7-.5 1-.5c1 0 1.5.4 2.2.9.4.3.9.7 1.6 1 2.3 1.2 3.3 1.5 5.4 1.5s3.1-.3 5.4-1.5c.7-.4 1.1-.7 1.5-1 .7-.5 1.3-.9 2.2-.9.3 0 .7.1 1.1.5.2.3.5.7.5 1.4h-.2c0-.7-.2-1.1-.5-1.3-.3-.3-.7-.4-.9-.4-.9 0-1.4.4-2.1.9-.4.3-.9.7-1.6 1-2.3 1.3-3.3 1.6-5.4 1.6h0z"/></g><g class="T U"><path d="M136.8 95.4h0-.2c.3-.7.4-1 .4-1.7-.1-1.7-.8-2.8-1.5-4-.5-.9-1.1-1.7-1.5-2.9-.5-1.5-.9-3.2.4-4.5 1.2-1.2 2.8-.8 3.9-.4.7.3 1.5.7 2.4 1.2 2.2 1.3 5 2.8 9 2.9-4.1.3-6.9-1.2-9.2-2.5l-2.4-1.2c-1.4-.6-2.4-.4-3.3.4-1.1 1-.9 2.3-.4 3.9.3 1.1.9 2 1.5 2.8.8 1.2 1.6 2.4 1.6 4.2 0 .8-.1 1.2-.3 1.6l-.4.2h0z"/></g><g class="T U"><path d="M149.7 86.6c1.9-.2 3.6-.7 5.1-1.3-1.5.6-3.3 1-5.1 1.1V86c3.8-.2 7.2-2 9.5-3.2 1-.6 1.8-1 2.3-1.1 1.5-.3 2.3-.1 3.3.8-1.1-.5-2.1-.6-3.5 0-.7.3-1.5.7-2.4 1.2-2.3 1.2-5.1 2.8-9.2 2.9h0z"/></g><g class="T U"><path d="M156.4 101l-.2-.4c.5-.3.8-.8 1-1.4.3-1.1.3-1.8-.2-2.5 1.1.7 1.1 1.5.9 2.6-.1.7-.6 1.1-1.1 1.6.1-.2.1-.4.2-.5a.9.9 0 0 1-.6.6h0z"/></g><path d="M141.6 97.4c0-.7.6-1.3 1.3-1.3s1.3.6 1.3 1.3-.6 1.3-1.3 1.3c-.7.1-1.3-.5-1.3-1.3h0z" class="T V"/><g class="T U"><path d="M192.2 174.5c-.3-.4-.3-.8-.2-1.3.1-.7.1-1.7.1-1.7v-11.2h.4v11.2s0 1.1-.1 1.8c-.1.4-.2.8-.2 1.2h0z"/></g><g class="T U"><path d="M191.8 175c-.3-.6-.2-1.2-.1-1.9s.1-1.7.1-1.7v-12h.4v12.1s0 1.1-.1 1.7c0 .6-.1 1.2-.3 1.8h0z"/></g><g class="T U"><path d="M192.2 155.3l-.4-10.1h.4v10.1z"/></g><g class="T U"><path d="M192.4 154.2l-.4-8.2h.4v8.2z"/></g><g class="T U"><path d="M192.4 141.7l-.4-6.1h.4v6.1z"/></g><g class="T U"><path d="M192.2 142.5l-.4-7.6h.4v7.6z"/></g><g class="T U"><path d="M192.2 121.4l-.4-6.1h.4v6.1z"/></g><g class="T U"><path d="M149.8 190c-.7-.5-2.8-1.8-4.6-2.6-1.4-.6-2.2-.7-3.5-1-1.6-.3-2.5-.3-4.1-.3-1 0-1.8.1-2.7.2l-1 .1-2.2.3-2.5.3-4.4.1c-1.9-.1-2.9-.2-4.8-.6-1.8-.4-2.9-.7-4.6-1.5-1.6-.8-2.6-1.5-4.1-2.9l-.4-.4.7.1c1.4 1.4 2.4 2 4 2.8 1.7.8 2.7 1.1 4.5 1.5s2.9.5 4.7.6c1.5.1 2.5 0 3.9-.1l2.9-.3 2.2-.3 1-.1 2.9-.2c1.6 0 2.5 0 4 .3 1.4.2 2.2.4 3.6 1 1.8.7 4 2 4.5 2.7.2-.7 2.4-2 4.2-2.7 1.4-.6 2.2-.8 3.6-1 1.6-.3 2.7-.3 4.2-.3 1 0 1.8.1 2.7.2l1 .1 2.2.3 2.4.3 4.3.1c1.8-.1 2.9-.2 4.7-.6s2.8-.7 4.5-1.5c1.6-.8 2.6-1.4 4-2.8s2-2.2 2.8-3.9l.4.2c-.8 1.7-1.5 2.6-2.9 4s-2.4 2-4.1 2.9c-1.7.8-2.7 1.1-4.6 1.5s-2.9.5-4.8.6c-1.5.1-2.5 0-3.9-.1l-3-.3-2.2-.3-1-.1-2.8-.2c-1.6 0-2.4 0-3.9.3-1.4.2-2.2.4-3.5 1-1.8.8-3.9 2.1-4.3 2.6h0z"/></g><g class="T U"><path d="M149.6 189.8c-.8-.5-2.8-1.8-4.6-2.6-1.4-.6-2.1-.7-3.5-1-1.5-.3-2.4-.3-3.9-.3-1.2 0-2 .1-3 .2l-.8.1-2.1.3-2.6.3c-1.7.1-2.7.2-4.4.1-1.9-.1-2.9-.2-4.8-.6s-2.9-.7-4.6-1.5-2.7-1.4-4.1-2.9c-.7-.7-1.3-1.3-1.7-2 .8.4 1.3 1 2 1.6 1.4 1.4 2.3 2 4 2.8 1.6.8 2.6 1.1 4.5 1.5 1.8.4 2.9.5 4.7.6 1.7.1 2.6 0 4.3-.1l2.6-.3 2.1-.3.8-.1 3.1-.2c1.6 0 2.4 0 4 .3 1.4.3 2.2.4 3.6 1 1.8.7 4 2 4.5 2.7.1-.6 2.2-1.9 4.2-2.7 1.4-.6 2.2-.8 3.6-1 1.5-.3 2.4-.3 4-.3 1.2 0 2 .1 3 .2l.9.1 2.1.3 2.5.3c1.7.1 2.7.2 4.4.1 1.8-.1 2.9-.2 4.7-.6 1.9-.4 2.9-.7 4.5-1.5 1.8-.9 2.7-1.5 4-2.8 1.4-1.4 2-2.3 2.8-3.9l.6-.3-.2.3c-.9 1.8-1.6 2.7-3 4.1-1.3 1.3-2.2 1.9-4.1 2.9-1.6.8-2.7 1.1-4.6 1.5-1.8.4-2.9.5-4.8.6-1.7.1-2.7 0-4.3-.1l-2.6-.3-2.1-.3-.9-.1-3-.2c-1.6 0-2.4 0-4 .3-1.4.3-2.2.4-3.5 1-1.8 1-3.9 2.3-4.3 2.8h0z"/></g><path d="M99.8 181.2c0-1 .8-1.7 1.7-1.7s1.7.8 1.7 1.7-.8 1.7-1.7 1.7-1.7-.7-1.7-1.7h0z" class="T V"/><g class="T V"><path d="M101.5 183a1.79 1.79 0 1 1 0-3.6 1.79 1.79 0 1 1 0 3.6h0zm0-3.5c-.9 0-1.7.8-1.7 1.7s.8 1.7 1.7 1.7 1.7-.8 1.7-1.7-.7-1.7-1.7-1.7h0z"/></g><g class="T U"><path d="M95.1 185.3l-.3-1.1.6-2.3 1.5-2.3 1.4-1.1 1.5-.6.2.4-1.5.5-1.4 1.1-1.3 2.2-.7 3.2z"/></g><g class="T U"><path d="M103.1 185c-2.6 0-3.5-1.8-3.7-2.4.6.3 1.3 1.9 3.7 1.9h.1c1.1 0 2.2-.6 3.3-1.8 1-1 1.8-3.1 1.5-5.1l.4-.1c.3 2.2-.6 4.4-1.6 5.5-1.1 1.3-2.4 2-3.7 2h0 0z"/></g><g class="T U"><path d="M103.3 184.8l2.7-1.9.9-1.2.8-2.3.1-1.2.4.1-.3 2.1-.6 1.5-1 1.3-1.9 1.3-1.1.3z"/></g><g class="T U"><path d="M106.1 182.9l-.2-.1c.7-1.3.9-3.2.3-4.4-.3-.7-.8-1.2-1.3-1.7l.3-.3c.5.5 1 1.1 1.3 1.8.7 1.3.5 3.4-.1 4.5l-.3.2h0z"/></g><g class="T U"><path d="M134.8 207.6c-4.2-4-10.6-4.2-17.4-4.5-5.8-.2-13-.8-17.8-2.7-3.2-1.3-5.7-3-7.6-4.9l.3-.3c1.8 1.9 4.4 3.6 7.4 4.8 4.7 1.9 11.9 2.5 17.7 2.7 6.9.3 13.4.5 17.4 4.9h0z"/></g><g class="T U"><path d="M149.6 208.8c-.9-1.3-2-2.5-3.2-3.7l.3-.3c1.3 1.2 2.4 2.4 2.9 4h0z"/></g><g class="T U"><path d="M145.8 214.4l-.5-.3c3.2-.7 3.8-2.4 3.9-2.9l.4.1c-.1.6-.8 2.5-3.8 3.1h0z"/></g><g class="T U"><path d="M144.4 216.7c.4-1 .9-2 1.2-3.1 0-.1.1-.2.3-.2.1 0 .2.1.2.3-.5 1.2-1 2.2-1.7 3h0z"/></g><g class="T U"><path d="M146.2 213.7c-.3-.7-.2-1.2-.2-1.8 0-1-.2-2.3-.8-3.3-2.1-3.3-4.5-4.6-7.7-6l-3.3-1.3c-.1 0-.3-.2-.3-.3s0-.2.1-.2l-.1.2.4-.1c.3.1.7.2 3.3 1.3 3.3 1.5 5.7 2.7 7.9 6.2.8 1.3.9 3 .9 3.5 0 .6-.1 1.2-.2 1.8h0z"/></g><g class="T U"><path d="M140.1 218.9h-.8c-1.4-.1-2.8-1.2-3.1-1.9.7.4 1.9 1.3 3.2 1.5 1.8.2 3.1-.2 4.4-1.4.2-.1.3-.3.5-.4l.3.3-.5.5c-1.3.9-2.5 1.4-4 1.4h0z"/></g><g class="T U"><path d="M140.9 218.6l3-2.1.3.3-.7.6-1.2.7-1.4.5z"/></g><g class="T U"><path d="M149.5 221c-2.3-.8-4.5-2.9-5.5-4.3 1.3 1.2 3.4 3.2 5.5 4 1.9-.8 4.1-2.7 5-4.2l.4.2c-1 1.5-3.2 3.5-5.4 4.3h0z"/></g><g class="T a"><path d="M149.7 221.1c-2.2-.8-4.4-2.8-5.4-4.3 1.1 1.4 3.3 3.3 5.4 4.1 2.3-.9 4.4-3 5.2-4.2l.2.1c-.9 1.2-3 3.4-5.4 4.3h0z"/></g><g class="T U"><path d="M135.6 216.6c-1.2 0-2.3-.6-3-1.4l.1-.4.2.1c.8.9 2 1.5 3.4 1.6-.2.1-.4.1-.7.1h0z"/></g><g class="T U"><path d="M136.6 216.8h-.2c-.8 0-1.6-.2-2.3-.6l.2-.4c.6.3 1.4.5 2.2.6 1.2 0 2.4-.4 3.3-1.3 1-1 1.7-2.5 1.7-3.9 0-1.7-.8-3.3-2.4-4.7 2 1.2 2.9 2.9 2.9 4.7 0 1.5-.7 3.1-1.8 4.2-1.2.9-2.4 1.4-3.6 1.4h0z"/></g><g class="T U"><path d="M136.4 213.5h-.3c-.7-.1-1.2-.4-1.5-.9-.2-.4-.4-1 .1-1.9 0-.1.2-.2.3-.1.1 0 .2.2.1.3-.3.6-.3 1.1-.1 1.5s.7.7 1.2.7c.5.1 1-.1 1.4-.4s.7-.9.8-1.5c.1-1-.4-2.1-1.4-2.7 1.3.3 1.9 1.5 1.8 2.7-.1.7-.4 1.4-.9 1.8s-1 .5-1.5.5h0z"/></g><path d="M134.6 211.4a1.58 1.58 0 1 1 3.2 0 1.58 1.58 0 1 1-3.2 0h0z" class="T V"/><g class="T U"><path d="M149.7 221.2c-2.6-.9-4.7-3.1-5.5-4.3v-.4l.2-.1c1.2 1.8 3.3 3.7 5.4 4.5 1.9-.8 4.1-2.7 5-4.2l.4.2c-.9 1.2-3 3.4-5.5 4.3h0z"/></g><g class="T V"><path d="M159 203.1l.8-.5 1.5-.6a11.31 11.31 0 0 1 1.5-.4l.9-.2s.1 0 .1.1 0 .1-.1.1l-.9.2a11.31 11.31 0 0 0-1.5.4c-.6.2-1 .4-1.5.6l-.8.3h0z"/></g><g class="T V"><path d="M155.9 206.5l.1-.3c.1-.2.3-.4.5-.6.4-.4.7-.6 1.2-1 .6-.4 1-.6 1.7-1 .5-.3.9-.4 1.4-.7l1.4-.6 1.2-.5-1.1.6c-.6.2-.9.3-1.4.6l-1.4.7-1.7 1c-.5.3-.8.5-1.2.9-.2.2-.3.4-.4.6l-.3.3h0z"/></g><g class="T V"><path d="M141.1 205.6l-.2-.3c-.1-.2-.2-.4-.4-.6-.3-.3-.5-.4-.8-.6-.8-.5-1.1-.6-1.5-.8l-.6-.3-1.4-.7-2.9-1.2 1.6.4c.6.2.9.4 1.4.6l1.4.7.6.3 1.1.6c.7.4 1 .6 1.3.9.2.2.3.4.4.6l.1.3c-.1 0-.1.1-.1.1h0z"/></g><g class="T U"><path d="M159.3 218.9c-1.5 0-2.7-.5-3.9-1.5-.2-.1-.3-.3-.5-.4l.2-.4.1.1.4.4c1.3 1.1 2.6 1.6 4.4 1.4 1.3-.1 2.3-1 2.7-1.7l.7-.4c-.1.3-.3.6-.4.6-.4.8-1.5 1.7-3 1.9h-.7 0z"/></g><g class="T U"><path d="M159.2 218.7l2.2-1 .7-.6.5-.8.3.2-.5.9-.8.7-1.2.5-1.2.1z"/></g><g class="T U"><path d="M162.8 217l-.3-.4c1.7-.1 3-.7 3.9-1.6.6-.8 1-1.7.9-2.7 0-.7-.1-1.1-.3-1.6-.3-.7-.9-1.4-1.5-1.9l.3-.3c.7.5 1.3 1.3 1.7 2.1.2.5.3 1 .4 1.7.1 1.1-.3 2.2-1 3-1.2 1-2.6 1.6-4.1 1.7h0z"/></g><g class="T U"><path d="M162.4 216.8c-1.3 0-2.6-.6-3.6-1.6 1.2.7 2.5 1.2 3.7 1.1v.4c0 .1 0 .1-.1.1h0z"/></g><g class="T U"><path d="M162.4 216.9l-.1-.5 1.3-.1 1.9-.9 1.3-1.8.2-1.6.4.6-.4 1.7-1.2 1.4-2.1 1-1.3.2z"/></g><path d="M160.8 211.5a1.58 1.58 0 1 1 3.2 0 1.58 1.58 0 1 1-3.2 0h0z" class="T V"/><g class="T U"><path d="M164.6 208.1c3.6-4.9 10.3-5.2 17.3-5.4 5.7-.2 12.9-.8 17.7-2.7 7.6-3.1 9.5-7.5 10.3-9.1s1.5-4.2 1.5-6.8c.1-1.3-.2-2.8-.6-3.9-.8-2.2-1.8-3.9-3.3-5.3l.3-.3c1.5 1.4 2.6 3.1 3.4 5.4.4 1.2.6 2.7.6 4.1-.1 2.4-.6 5.1-1.4 6.6-1 2.1-3 6.6-10.7 9.8-4.8 2-12 2.5-17.8 2.7-6.9.2-13.4.4-17.3 4.9h0z"/></g><g class="T U"><path d="M164.3 208l-.2-.4 2.1-1.8 3.2-1.7 5.7-1.2-7.1 2.3-2.4 1.6-1.3 1.2z"/></g><g class="T U"><path d="M202 179.8l-1.9-1.1c-1.5-.8-3.3.1-3.7.7l-.3-.2c.6-.8 2.6-1.7 4.3-.8.5.2 1.1.6 1.6 1.4h0z"/></g><g class="U"><path d="M111.2 187c.4-.4.6-.2.7-.4.1-.1-.1-.2-.2-.2-.2-.1-.4-.1-.6-.2l-.6-.3c-.1 0-.3-.1-.3 0-.1.3.7.2.4 1-.1.1-.2.4-.6.8l-1.8 2c0 .1-.1.2-.1.1-.1 0 0-.1-.1-.2v-2.8c0-.5.1-.9.1-1.2.1-.3.5-.1.6-.3 0-.1 0-.1-.2-.2-.1 0-.3-.1-.8-.3-.2-.1-.4-.2-.7-.3-.1 0-.3-.2-.4 0 0 .1.1.1.1.2.2.2.3.3.3.7l.1 5.1c0 .4.1.5.1.5.1 0 .1 0 .3-.2l3.7-3.8z" class="T"/><path d="M113.3 187.8c.2-.7.7-.3.8-.6 0-.1 0-.1-.2-.2-.4-.1-.7-.2-.9-.3l-.8-.3c-.1 0-.2-.1-.3 0-.1.3.8.3.6 1l-1.2 3.8c-.2.8-.7.4-.8.7 0 0 0 .1.1.1.2.1.5.1.8.2l1.1.4c.2.1.2 0 .3 0 .1-.3-.8-.1-.5-1.1l1-3.7zm2.6.7c.1-.5.4-.4.6-.3.7.2.9.9.7 1.7-.1.5-.3.9-1.4.6-.2-.1-.5-.1-.4-.3l.5-1.7zm-2 3.4c-.3 1-.8.6-.9.8 0 .2.1.2.2.2l1.1.3c.3.1.5.2.6.2h.3c.1-.3-.7-.2-.5-1l.4-1.4c.1-.3.1-.3.4-.2s.4.2.5.6l.2 1.4c.1.5.1 1.1.7 1.2.3.1.8.1.9-.2 0-.1 0-.1-.1-.1h-.2c-.1 0-.2-.1-.2-.2l-.5-2.5c0-.1.3-.1.5-.2.3-.1.5-.4.7-.9.1-.4.3-1.5-1.2-2-.5-.1-1-.2-1.5-.4-.4-.1-.5-.2-.8-.3-.1 0-.2 0-.2.1-.1.3.8.2.5 1.1l-.9 3.5zm5.8 1.8c-.2 1-1 .4-1 .7-.1.2.1.2.2.2.3.1.5.1 1 .2s.7.2 1 .3c.2 0 .3.1.4-.1s-.9-.2-.7-1.2l.9-3.6c.1-.4.2-.4.5-.3l.6.2c.9.2.4 1 .7 1.1.2 0 .2-.3.2-.4l.1-.8c0-.1.1-.2-.1-.2-.7-.2-1.1-.3-2.2-.5l-2.2-.6c-.1 0-.1.1-.2.2l-.4 1c0 .1-.1.3 0 .3.3.1.4-1 1.2-.8l.6.1c.3.1.3.1.3.5l-.9 3.7zm8.8-2.3c.3-.5.6-.4.6-.5s-.1-.1-.2-.2c-.2 0-.4 0-.6-.1-.2 0-.4-.1-.6-.2-.1 0-.3-.1-.3.1-.1.3.7.1.6.9 0 .1-.1.4-.4.9l-1.5 2.3-.1.2s-.1-.1-.1-.2l-.5-2.8c-.1-.5-.1-.9-.1-1.2.1-.3.5-.1.5-.4 0-.1 0-.1-.2-.2-.1 0-.3 0-.8-.1-.2 0-.5-.1-.7-.2-.1 0-.3-.1-.4.1 0 .1.1.1.1.1.3.1.4.3.4.6l.9 5.1c.1.4.1.5.2.5s.1 0 .3-.2l2.9-4.5zm.4 4.7c0 .2 0 .3.2.3.4.2.7.4 1.2.5 1 .2 1.8-.5 1.9-1.5.2-1-.2-1.5-1-2-.9-.6-1.3-.8-1.2-1.4.1-.5.5-.8 1-.7 1.3.2 1.1 1.7 1.3 1.8.2 0 .2-.1.2-.3l.1-1.1c0-.2.1-.3-.1-.3-.1 0-.3.1-.4.1-.2 0-.5-.4-1.1-.5-.8-.1-1.5.4-1.7 1.4-.1.9.2 1.2.8 1.7 1.1.8 1.5 1 1.4 1.7s-.6 1-1.2.9c-.8-.1-1.1-1-1.2-1.8 0-.1 0-.2-.1-.2-.2 0-.1.2-.1.3v1.1zm10.9-3.1c.2-.5.5-.4.6-.6 0-.1-.1-.1-.2-.1h-.6c-.2 0-.4-.1-.6-.1-.1 0-.3 0-.3.1 0 .3.8 0 .7.8 0 .1-.1.4-.3 1l-1.2 2.4c0 .1-.1.2-.1.2s-.1-.1-.1-.2l-.7-2.7c-.2-.5-.2-.9-.2-1.2s.4-.2.5-.4c0-.1 0-.1-.3-.2h-.8c-.3 0-.5-.1-.7-.1-.1 0-.3-.1-.3.1l.1.1c.3.1.4.2.5.5l1.5 4.9c.1.4.2.4.2.5.1 0 .1 0 .2-.3l2.1-4.7z" class="T"/><path d="M141 197c0 .8-.7.7-.7 1 0 .1.2.1.2.1h.6.9c.1 0 .3 0 .3-.1 0-.4-1 .2-.9-1.4v-2.8c0-.1 0-.1.1-.1 0 0 .1 0 .1.1l3.5 4.3c.1.1.1.1.2.1s.1-.1.1-.2l.1-4.6c0-.9.6-.7.6-.9 0 0 0-.1-.2-.1h-.8-.9c-.1 0-.1.1-.1.1 0 .3.9.1.9.9v2.7c0 .2 0 .3-.1.3s-.1-.1-.2-.2l-3-3.7c-.1-.2 0-.2-.3-.2h-.8-.4c-.1 0-.1.1-.1.1 0 .4.8-.1.8 1.5l.1 3.1zm7.2-3.7c0-.8.6-.5.6-.8 0-.1 0-.1-.3-.1h-1-.8c-.1 0-.3 0-.3.1 0 .3.8.1.8.8v4c0 .8-.5.6-.5.9 0 0 0 .1.1.1h.8 1.1c.2 0 .2 0 .2-.1 0-.3-.8.1-.8-.9l.1-4zm3.1 3.8c0 1-.8.6-.8.9 0 .2.1.2.3.2h1 1c.2 0 .4 0 .4-.2s-1 0-1-1v-3.7c0-.4.1-.4.4-.4h.7c.9 0 .6.9.9.9.2 0 .1-.3.1-.4l-.1-.8c0-.1 0-.2-.1-.2l-2.3.1h-2.3c-.1 0-.1.1-.1.2l-.1 1.1c0 .1-.1.3.1.3.3 0 .1-1.1.9-1.1h.6c.3 0 .4 0 .4.4v3.7zm4.3-1.6c-.1 0-.2 0-.2-.1s0-.2.1-.3l.4-1.5c0-.1.1-.1.1-.1l.1.1.7 1.4c0 .1.1.2.1.3s-.1.1-.2.1l-1.1.1zm1.3.4c.2 0 .2.1.5.7.1.2.2.4.2.6 0 .5-.5.4-.5.7 0 .1.1.1.2.1.2 0 .5-.1.8-.1h1c.2 0 .3 0 .2-.1 0-.3-.4.1-.7-.5l-2.4-4.9c-.1-.2-.1-.3-.2-.3s-.1.2-.2.3l-1.6 5.1c-.1.5-.5.5-.5.6s.1.1.2.1c.2 0 .4-.1.7-.1h.7c.2 0 .4 0 .4-.1 0-.2-.8 0-.9-.6 0-.2.1-.5.1-.7.1-.6.3-.6.4-.6l1.6-.2zm5.8-3.4c-.1-.6-.1-.6.8-.7 1.4-.2 1 .8 1.3.8.2 0 .1-.3.1-.4l-.1-.8c0-.1-.1-.1-.2-.1l-1.7.3c-1.1.2-1.7.2-2 .2-.1 0-.2.1-.1.2 0 .3.8 0 .9.7l.5 3.8c.1 1-.5.6-.4 1 0 0 .1.1.2.1.4-.1.7-.1.9-.2.3 0 .6 0 .9-.1.2 0 .3 0 .3-.2s-.8.1-1-.8l-.1-1.3c-.1-.5-.1-.6.2-.6l.6-.1c.8-.1.7.8.9.8s.1-.3.1-.4l-.2-1.4c0-.2-.1-.2-.2-.2-.2 0-.1.8-.7.9l-.4.1c-.3 0-.3 0-.4-.4l-.2-1.2zm2.7 1.8c.3 1.6 1.5 2.6 3 2.3 2.3-.4 2.4-2.5 2.2-3.6-.3-1.7-1.6-2.6-3-2.3-1.9.3-2.6 1.9-2.2 3.6h0zm.8-.6c-.2-1.2-.1-2.4 1.2-2.6.9-.2 2 .6 2.3 2.4.3 1.3.1 2.5-1.2 2.8-1.3.2-2.1-1.4-2.3-2.6h0zm5.7-2.9c-.1-.5.1-.5.4-.6.7-.2 1.3.3 1.5 1.1.1.5.2.9-.9 1.2-.2 0-.5.1-.5-.1l-.5-1.6zm0 4c.2 1-.4.9-.3 1.1 0 .2.2.1.3.1l1.1-.3c.3-.1.5-.1.6-.1.2 0 .2-.1.2-.2-.1-.3-.7.2-.9-.7l-.3-1.4c-.1-.3-.1-.3.3-.4.3-.1.5 0 .7.3l.9 1.1c.3.4.7.9 1.3.7.3-.1.7-.4.7-.6 0-.1-.1-.1-.1-.1-.1 0-.1.1-.2.1s-.2.1-.3-.1l-1.7-1.9c0-.1.2-.2.3-.4.2-.2.3-.6.2-1.1-.1-.4-.5-1.5-2.1-1.1-.5.1-1 .3-1.5.4l-.9.2c-.1 0-.1.1-.1.2.1.3.8-.2 1 .7l.8 3.5zm6-1.4c.2 1-.7.8-.6 1.1 0 .2.2.1.3.1.3-.1.5-.2 1-.3s.7-.1 1-.2c.2 0 .4-.1.3-.3s-.9.2-1.2-.7l-.9-3.6c-.1-.4 0-.4.3-.5l.6-.2c.8-.3.8.7 1.1.6.2 0 0-.3 0-.4l-.3-.7c0-.1-.1-.2-.2-.2l-2.2.6-2.2.5c-.1 0-.1.1-.1.2l.2 1.1c0 .1 0 .3.2.3.3-.1-.2-1.1.7-1.3l.6-.2c.3-.1.4-.1.5.3l.9 3.8zm3.8-5c-.2-.7.4-.6.3-.9 0-.1-.1-.1-.3 0-.4.1-.7.2-.9.3s-.5.1-.8.2c-.1 0-.2 0-.2.2.1.3.8-.2 1 .6l1.1 3.8c.2.7-.4.7-.3 1 0 0 0 .1.1.1.2 0 .5-.2.8-.3.6-.2.8-.2 1.1-.3.2 0 .2-.1.2-.2-.1-.3-.8.3-1-.6l-1.1-3.9zm1.6 1.8c.5 1.6 1.8 2.3 3.2 1.9 2.2-.8 2-2.8 1.7-3.9-.6-1.7-1.9-2.3-3.3-1.8-1.7.5-2.2 2.1-1.6 3.8h0zm.7-.7c-.4-1.1-.4-2.3.8-2.7.9-.3 2.1.3 2.6 2 .4 1.3.4 2.5-.8 2.9s-2.2-1.1-2.6-2.2h0zm5.3-3.8c-.2-.5 0-.6.3-.7.7-.3 1.3.1 1.6.9.2.5.3.9-.7 1.3-.2.1-.5.2-.5 0l-.7-1.5zm.5 3.9c.4 1-.3.9-.2 1.2.1.2.2.1.3 0 .3-.1.7-.3 1.1-.4.3-.1.5-.2.6-.2.2-.1.2-.1.2-.2-.1-.3-.7.3-1-.5l-.5-1.3c-.1-.3-.2-.3.2-.4.3-.1.5-.1.8.2l1.1 1c.4.4.8.8 1.3.5.3-.1.7-.5.6-.7 0-.1-.1-.1-.2-.1s-.1.1-.2.1-.2.1-.3 0l-1.9-1.7c0-.1.1-.2.3-.5.1-.3.2-.6 0-1.1-.1-.3-.7-1.4-2.2-.8l-1.4.6c-.4.2-.5.2-.8.3-.1 0-.1.1-.1.2.1.3.7-.3 1.1.6l1.2 3.2z" class="T"/><g class="T"><path d="M202.8 168.4c-1.3-1.2-2.4-2.6-3.4-4.5-.5-1-.9-2.1-1.2-3.2-.2-.7-.3-1.5-.3-2.3 0-1.3.1-2.7.4-4.4.5-2.5 1.5-4.6 2.9-6.3.5-.6 1-1.3 1.5-1.6-.2.6-.7 1.3-1.1 1.8-1.4 1.7-2.3 3.8-2.8 6.2-.3 1.6-.5 2.9-.4 4.3 0 .8.2 1.6.3 2.3.3 1.1.6 2.1 1.2 3.1 1 1.8 2.1 3.3 3.3 4.4l-.4.2h0z"/><path d="M204.7 164.3h-.4c-.2-.2-.4-.3-.6-.5-1.9-2-3-4.8-3-7.5 0-2.8 1.1-5.8 2.6-7.1-1.1 1.5-2.1 4.4-2.1 7.1s1.1 5.3 2.9 7.2c.2.2.4.3.6.5v.3h0z"/><path d="M200.8 155.5h-.4l.4-2.9 1.2-2.6.7-.9-1.8 5.3-.1 1.1z"/><path d="M208.5 173.8c-.5 0-1.1-.1-1.6-.2l-1-.3.1-.4 1 .3c1 .3 1.9.3 2.6.1 1-.3 1.8-.9 2.1-1.7.4-.8.4-1.8-.1-2.8-.2-.5-.6-1-1.1-1.4.8.1 1.3.7 1.5 1.2.5 1.1.5 2.2.1 3.1s-1.3 1.6-2.4 1.9a4.3 4.3 0 0 1-1.2.2h0z"/><path d="M211.3 167.6l-.4-.1h.2l-.2-.5c0-.7-.3-1.4-.8-1.9l-.4-.9c.2.1.3.3.5.4a3.01 3.01 0 0 1 1.1 2.4v.6h0z"/><path d="M209.7 164.8c0-1.1-.9-2-2.2-2.2 1.6-.2 2.6.9 2.6 2.2h-.4 0z"/><path d="M205.5 150.6c-.9 0-1.8-.3-2.4-1.1l.3-.3c.7.9 1.9 1 2.8.8.7-.2 1.2-.6 1.6-1.2a2.87 2.87 0 0 0 .2-2.4c-.1-.4-.3-.7-.5-1.1-.3-.4-.7-.8-.9-.9v-.5c.6.4 1 .9 1.2 1.2.3.4.5.8.6 1.2.3.9.2 1.9-.3 2.7-.4.7-1.1 1.2-1.9 1.4 0 .1-.4.2-.7.2h0z"/><path d="M205.3 150.4l-.6-.1 2.6-1.1.7-1.3.1-1h.4l-.4 1.9-1.1 1.2-1.7.4z"/><path d="M207.9 171.1a2.39 2.39 0 0 1-.9-.2c-.1-.1-.2-.2-.2-.3h0 0c.1-.1 0-.2.1-.1.8.4 1.6.3 2.1-.1.3-.2.5-.6.3-1.2.6.5.5 1.1 0 1.5-.5.2-1 .4-1.4.4h0z"/></g></g><g class="V"><path d="M206.6 169.3c0-.8.6-1.4 1.4-1.4s1.4.6 1.4 1.4c0 .7-.6 1.4-1.4 1.4-.8-.1-1.4-.7-1.4-1.4h0zm-5.5-30.8a1.11 1.11 0 0 1 1.1-1.1 1.11 1.11 0 0 1 1.1 1.1 1.11 1.11 0 0 1-1.1 1.1 1.11 1.11 0 0 1-1.1-1.1h0zm-.8-15.4c0-.3.3-.6.8-.6.4 0 .8.3.8.6s-.3.6-.8.6c-.4 0-.8-.3-.8-.6h0z" class="T"/></g><g class="T U"><path d="M196 116.1c-.7-.2-1.2-1-1.2-1.8-.1-2.9 2.9-5.8 5.2-8.2l2-2c2.1-2.7 3-3.7 3-6.3 0-1.7-1.5-3.5-3.2-3.7v-.4c1.8.2 3.6 2.1 3.5 4.1 0 2.7-1 3.9-3 6.5-.6.7-1.3 1.4-2.1 2.2-2.2 2.2-5.2 5.1-5.1 7.9.1.4.4 1 .9 1.7h0z"/></g><path d="M196.1 115.5c0-.7.5-1.3 1.1-1.3s1.1.6 1.1 1.3-.5 1.3-1.1 1.3-1.1-.6-1.1-1.3h0z" class="T V"/><g class="T V"><path d="M197.2 116.9c-.6 0-1.2-.6-1.2-1.3 0-1.5 2.3-1.5 2.3 0 .1.6-.5 1.3-1.1 1.3h0zm0-2.6c-.6 0-1.1.6-1.1 1.3 0 1.3 2.1 1.4 2.1 0 .1-.8-.4-1.3-1-1.3h0z"/></g><g class="T U"><path d="M195.1 113.6l-.5-.1.3-1.1 1.2-2.3 8.2-10 .3-1.5.1-1.8-.2-.5.6.4-.4 3.5-1.6 2.7-7.3 8.6-.5 1-.2 1.1z"/></g><g class="T U"><path d="M199.9 117.6l-.4-.1c.3-1.1.2-2.2-.3-2.8-.3-.4-.8-.6-1.4-.6.7-.5 1.3-.2 1.7.4.6.7.7 1.9.4 3.1h0z"/></g><g class="T U"><path d="M196.1 120c-.4 0-.8-.1-1.1-.2-.6-.3-1.1-.6-1.5-1l.3-.3c.4.4.8.7 1.4.9.8.4 1.8.3 2.8-.2-.6.5-1.3.8-1.9.8h0z"/></g><g class="T U"><path d="M196.5 105.3l.1-.7 2.7-2.8c1.2-1.4 2.6-3.1 2.6-5.9 0-2.5-1.9-4.8-3.9-4.8v-.4c2.3 0 4.4 2.5 4.4 5.2 0 2.9-1.5 4.8-2.7 6.1l-2.8 2.9-.4.4h0z"/></g><g class="T U"><path d="M194.4 100.7c1.5-1.5 3.7-3.5 3.8-6.4.1-1.8-.2-2.8-1.1-4.1-.5-.7-1.1-1.3-1.8-1.6-.1-.1-.1-.2-.1-.3.1-.1.2-.1.3-.1.8.4 1.5 1 2 1.8.9 1.4 1.2 2.5 1.1 4.4-.1 3-2.3 5.1-4.2 6.3h0z"/></g><g class="T V"><path d="M193.6 100.6h-.2l.3-.2c.2-.1.3-.2.6-.4l.8-.6-.1-.1c.3-.3.4-.5.7-.8.2-.2.3-.4.4-.6 0 .3-.1.5-.3.7-.2.3-.4.5-.7.8l-.4.4-.9.7c.1 0-.1.1-.2.1h0z"/></g><g class="T U"><path d="M190.1 97.8c1.3-1.5 1.8-2.2 2.3-4 .3-1.1.2-3.3-1-4.8-.1-.2-.3-.3-.4-.4s-.1-.2 0-.3.2-.1.3 0c.2.1.3.3.5.5 1.4 1.6 1.4 4 1.1 5.2-.6 1.8-1.2 2.7-2.8 3.8h0z"/></g><g class="T V"><path d="M189 97.9l.4-.4c.2-.2.4-.3.6-.6l.7-1c.1-.2.2-.4.3-.5.1.3 0 .4-.1.6-.2.4-.4.6-.7 1-.2.3-.4.4-.6.6l-.3.2c-.1 0-.3.1-.3.1h0z"/></g><g class="T U"><path d="M185.4 97.7c1.4-1.3 2.2-2.4 2.6-3.9.6-2.5 0-4.7-1.7-6-.1-.1-.1-.2 0-.3s.2-.1.3 0c1.8 1.4 2.5 3.8 1.8 6.4-.4 1.6-1.3 2.8-3 3.8h0z"/></g><g class="T V"><path d="M184.9 97.6c-.1 0-.1 0 0 0h-.1l.3-.2c.2-.1.4-.3.6-.4.2-.2.4-.3.6-.5s.3-.3.4-.5l.5-.6h-.1l.4-.7h-.1l.2-.4h0 0c.1 0 .2-.2.2-.2l-.2.7-.3.8-.4.6c-.2.3-.3.4-.5.6a3.17 3.17 0 0 1-.6.5c-.2.2-.4.3-.6.5-.1-.3-.3-.2-.3-.2h0z"/></g><g class="T U"><path d="M175.1 100.9c2.1-.8 4-1.6 5.6-2.7 2.8-1.9 5.2-4.1 4-6.9-.3-.7-.8-1.3-1.4-1.7l.2-.4c.7.5 1.3 1.2 1.6 1.9 1.3 3.2-1.4 5.5-4.2 7.4-1.7 1.3-3.6 2-5.8 2.4h0z"/></g><g class="T U"><path d="M180.4 95.7c-.9 0-1.6-.3-2.3-1.1-.3-.3-.5-.5-.5-.8.4 0 .5.2.8.5.8.9 1.5 1 2 1v.4h0z"/></g><g class="T U"><path d="M167.4 97.3c-.4-.2-.8-.4-1-.7-.8-.9-1-2-.6-3.2.1-.4.4-1 .7-1.7.8-1.7 1.8-4 1.9-5.8.1-3.5-1.1-5.9-3.5-6.9 2.8.6 4.1 3.2 4 6.9-.1 1.9-1.2 4.2-2 6-.3.7-.6 1.2-.7 1.6-.4 1.1-.2 2 .5 2.8.2.2.5.4.8.6l-.1.4h0z"/></g><g class="T U"><path d="M165.9 94.8l-.5-.6.4-1.7 2-4.7.5-2.9c0-.1.1-.2.2-.2s.2.1.2.2l-.1 1.5-1.8 4.9-1 2.9.1.6h0z"/></g><g class="T U"><path d="M199.7 130.1c-.5 0-1-.1-1.5-.2-1.8-.5-3.3-1.4-4.3-2.5-.6-.6-.9-.9-1.1-1.4 0-.1 0-.2.1-.3.1 0 .2 0 .3.1.1.4.4.7.7.9 1.3 1.4 2.8 2.2 4.5 2.7 1.5.4 3 .2 4.2-.6a3.89 3.89 0 0 1-2.9 1.3h0z"/></g><g class="T V"><path d="M200.2 128.2h-.7c-.4 0-.6-.1-.8-.1l-.6-.3-.2-.3.3.2c.2.1.3.2.5.3s.4.1.6.1c.4 0 .6.1.8.1h1c.2 0 .3-.1.5-.1.3-.1.5-.1.7-.2l.6-.2v-.1l.7-.3v.1l-1.3.7c-.2.1-.4.1-.6.2-.3.1-.4.1-.7.1-.3-.2-.4-.2-.8-.2h0z"/></g><g class="T V"><path d="M202.9 132.3h-.5l.4-.2c.1-.1.3-.2.5-.3.3-.2.5-.4.7-.6.3-.2.4-.4.6-.6s.3-.4.4-.6c.3-.5.4-.7.5-1s.2-.5.3-.7l.2-.5v.6c-.1.2-.2.4-.3.7-.2.3-.2.5-.4.8-.3.4-.4.6-.6.8a1.72 1.72 0 0 1-.6.6c-.3.3-.4.4-.8.7-.1.1-.2.2-.4.3h0z"/></g><g class="T V"><path d="M194.6 148.7s0-.1 0 0c-.1-.1-.1-.1-.1-.2l2-2-.3.5-1.6 1.7c.1-.1.1 0 0 0h0z"/></g><g class="T V"><path d="M195.1 149.6s-.1 0 0 0c-.1 0-.1-.1-.1-.1l2.3-3.1-2.2 3.2h0z"/></g><g class="T V"><path d="M196.2 167.1l-.6-.2c-.3-.2-.5-.4-.8-.6l-.7-.7c-.2-.3-.4-.5-.6-.8v-.1h.1c.2.3.3.5.6.8a1.72 1.72 0 0 0 .6.6c.3.3.6.5.8.7l.6.3h0z"/></g><path d="M195.4 182c-.2-.9.2-1.9 1-2.1s1.6.4 1.9 1.3c.2.9-.2 1.9-1 2.1s-1.7-.4-1.9-1.3h0z" class="T V"/><g class="T V"><path d="M196.9 183.4c-.7 0-1.4-.6-1.6-1.4-.2-1 .2-1.9 1.1-2.1 1 .1 1.7.5 1.9 1.4.2 1-.2 1.9-1.1 2.1h-.3 0zm-.2-3.5c-1 .2-1.5 1.1-1.3 2 .2.8.8 1.3 1.5 1.3v.1l.3-.1c.7-.2 1.2-1.1 1-2-.2-.7-.8-1.3-1.5-1.3h0z"/></g><g class="T V"><path d="M202.7 165.7c-.4-.1-.6-.3-.8-.6-.2-.2-.4-.4-.5-.6l-.3-.7h-.1l-.5-1s0-.1.1-.1h.1l.9 1.6c.1.2.2.3.4.5a3.98 3.98 0 0 0 .7.9h0z"/></g><g class="T V"><path d="M204.5 174.2c-.3 0-.4-.1-.7-.3l-.7-.5c-.3-.2-.5-.3-.7-.4-.3-.1-.4-.2-.7-.3s-.4-.2-.6-.2l-.3-.2h.4c.2.1.4.1.7.3.3.1.4.2.7.3.2.1.3.2.5.3l.9.6c.2.1.4.3.5.4h0z"/></g><g class="T U"><path d="M196.2 185s-.1 0 0 0c-1.7 0-3.5-1.3-4-2.2h0s-.3-.3-.4-.6c-.1-.1 0-.2.1-.3.1 0 .2 0 .3.1.1.2.4.5.4.5.4.7 2.1 2 3.6 2 2.8.2 3.1-2 3.1-2 .3-1.9-.3-2.3-1.3-2.9 0 0-.5-.3-1.2-.2.7-.6 1.4-.2 1.4-.2 1.1.6 1.8 1.2 1.5 3.3-.1.1-.5 2.5-3.5 2.5h0z"/></g><g class="T U"><path d="M196.3 185l-.1-.4 1.9-.7.7-.9.2-1.3.4.6-.6 1.5-.5.5-.9.5-1.1.2z"/></g><g class="T U"><path d="M90.8 173.8a4.3 4.3 0 0 1-1.2-.2c-1.2-.4-2.2-1.1-2.7-2.2-.4-.9-.5-1.9-.2-2.9.1 1 .1 1.9.5 2.7.5.9 1.4 1.6 2.5 1.9.7.2 1.5.2 2.4 0l.1.4c-.4.2-.9.3-1.4.3h0z"/></g><g class="T U"><path d="M90.7 173.6l-.9-.1.1-.4h.8l1-.1 1-.3-.9.8-1.1.1z"/></g><g class="T U"><path d="M90.8 171.1c-.3 0-.7-.1-1-.2-.6-.3-.9-.9-.8-1.7.4.6.6 1.1 1 1.3.5.3 1.2.2 1.7-.1.3-.2.6-.8.6-1.3s-.2-.9-.3-1c-.5-.9-1.2-1.4-2.1-1.4h0c-.1 0-.2-.1-.2-.2s.1-.2.2-.2c.9 0 1.9.6 2.4 1.6.2.3.3.7.3 1.2 0 .6-.3 1.4-.8 1.7-.2.1-.6.3-1 .3h0z"/></g><path d="M89.2 169c0-.9.5-1.5 1.2-1.5s1.2.7 1.2 1.5c0 .9-.5 1.5-1.2 1.5s-1.2-.6-1.2-1.5h0z" class="T V"/><g class="T V"><path d="M90.4 170.6c-.7 0-1.3-.7-1.3-1.6s.6-1.6 1.3-1.6 1.3.7 1.3 1.6-.6 1.6-1.3 1.6h0zm0-3.1c-.6 0-1.2.7-1.2 1.5s.5 1.5 1.2 1.5 1.2-.7 1.2-1.5-.5-1.5-1.2-1.5h0z"/></g><g class="T U"><path d="M97.1 170.9l.5-.8 1.4-1.2c2-2.1 3.3-4.6 4-7.7.6-3 .3-6.3-.2-8.2-1.1-4.6-4.4-8.5-7.6-9.1l.1-.4c3.4.6 6.8 4.7 7.9 9.4.5 2 .8 5.4.2 8.4-.7 3.1-2 5.7-4.1 7.9-.4.4-.9.9-1.5 1.3l-.7.4h0z"/></g><g class="T U"><path d="M93.8 150.6c-.3 0-.6 0-.9-.1-.8-.2-1.8-1-2.2-1.7-.3-.5-.4-1.1-.4-1.7.4.5.6 1 .8 1.5.3.6 1.2 1.3 1.9 1.5.9.2 1.9 0 2.6-.5.6-.5.8-1.2.7-2.1 0-.2-.1-.5-.2-.6l.3-.3c.2.3.3.6.4.9.1 1.3-.4 2.1-.8 2.5-.7.3-1.4.6-2.2.6h0z"/></g><g class="T U"><path d="M94 150.3l-.5-.4 2-.6.2-.4.4-1.3.4.1-.4 1.4-.8.8-1.3.4z"/></g><g class="T U"><path d="M93.6 167.1c.1-.7.3-1.3.3-2 0-1.3-1.1-2.6-2.4-2.6v-.4c1.5 0 2.8 1.4 2.8 3 .1.8-.2 1.4-.7 2h0z"/></g><g class="T U"><path d="M92.6 169.2c.3-.8.7-1.5.7-2.3 0-1.4-1.3-2.7-2.6-2.7v-.4c1.6 0 3.1 1.5 3.1 3.1a3.47 3.47 0 0 1-1.2 2.3h0z"/></g><g class="T V"><path d="M95.9 165.7l.2-.3.4-.5c.2-.3.3-.4.5-.6l.4-.6h-.1s.3-.5.4-.5h0 0c.1 0 .3-.3.3-.3l-.6.9h.1l-.4.6h.1c-.1.2-.2.4-.4.5l-.5.6s-.2.2-.2.1c-.1.1-.2.1-.2.1h0z"/></g><g class="T V"><path d="M93.9 174.5l.4-.6c.3-.2.5-.4.9-.6.3-.2.5-.3.7-.4l.6-.3s.3-.1.3 0h.2l-.4.2-.6.3c-.3.2-.5.3-.7.4l-.9.6-.5.4h0z"/></g><g class="T V"><path d="M103.8 148.5h0l-1.2-1.2s-.4-.3-.3-.4l-.2-.3h0l.7.5c.2.2.4.3.6.5l.6.6c-.1.2-.1.3-.2.3h0 0z"/></g><g class="T U"><path d="M106.8 154.6c-.8-2-1.8-3.5-3-5.2-.1-.1-.1-.2 0-.3s.2-.1.3 0c1.3 1.8 2.3 3.4 2.7 5.5h0z"/></g><g class="T U"><path d="M103.2 166.7l2.1-3.4a13.01 13.01 0 0 0 1-2.7c0-.1.1-.2.2-.2s.2.1.2.3c-.2.9-.5 1.8-1 2.8s-1.4 2.2-2.5 3.2h0z"/></g><g class="T U"><path d="M104.2 149.4c1-1.1 1.8-2.2 2.2-3.5l.4.1c-.4 1.5-1.3 2.6-2.6 3.4h0z"/></g><g class="T U"><path d="M106.8 142.1c-.8-1.1-1.5-2.1-2.8-3.1l.3-.3c1.4 1 2.1 2.1 2.5 3.4h0z"/></g><g class="T U"><path d="M104.5 138.8c.9-1.4 1.6-2.3 2-3.4 0-.1.2-.2.3-.1.1 0 .2.2.1.3-.4 1.2-1.2 2.1-2.4 3.2h0z"/></g><g class="T U"><path d="M99.4 133.9c-1.6 0-2.9-.4-4.2-1.2-1.5-1-2.6-2.5-2.9-4 .7 1.3 1.7 2.7 3.1 3.6 1.2.8 2.5 1.2 4.1 1.2 2.6 0 4.7-1.4 5.9-2.7.5-.5.8-1.1 1-1.6 0-.1.2-.2.3-.1.1 0 .2.2.1.3-.2.6-.6 1.2-1.1 1.7-1.2 1.3-3.5 2.8-6.3 2.8h0 0z"/></g><g class="T V"><path d="M95.8 132.2c-.2 0-.4-.1-.6-.2-.4-.3-.6-.4-1-.8s-.6-.7-.9-1.1-.5-.7-.7-1.2c-.1-.2-.1-.4-.2-.6v-.3l.1-.2.1.4c.1.2.1.4.2.6a6.72 6.72 0 0 0 .6 1.2c.3.4.5.7.9 1.1.3.3.6.5.9.8.2.2.4.3.6.4.1-.1.1-.1 0-.1h0z"/></g><g class="T U"><path d="M106.8 121.1c-.7-.7-1.2-1.5-1.9-2.1l.3-.3c.7.6 1.3 1.4 1.6 2.4h0z"/></g><g class="T U"><path d="M99.3 130.1c-1.4 0-2.8-.4-3.4-.9.9.2 3 .8 4.7.4 4.2-1.1 5.5-4.3 5.8-5.3 0-.1.2-.2.3-.1.1 0 .2.2.1.3-.3 1-1.7 4.4-6.1 5.6-.4-.1-.9 0-1.4 0h0z"/></g><g class="T V"><path d="M98.7 129.4h-.2c-.4 0-.7 0-1.2-.1-.3-.1-.5-.1-.8-.3l-.6-.3-.2-.2s-.1-.1 0-.1l.3.2c.2.1.3.2.6.3l.8.3c.5.1.7.1 1.2.1s.7 0 1.3-.1c-.6.1-.8.2-1.2.2h0z"/></g><g class="T U"><path d="M98.1 127.2c-2.3 0-3.8-1.3-4-3.4h.4c.2 1.9 1.5 3 3.5 3 1.5 0 2.4-.8 3.1-2.1.8-1.8.5-3.9-.9-5.5 1.8 1.4 2.2 3.8 1.3 5.7-.7 1.5-1.9 2.3-3.4 2.3h0z"/></g><g class="T U"><path d="M98 127c-.1 0-.2-.1-.2-.2s0-.2.2-.3l1.5-.4.8-.6.5-.8.6-2.2.2 1.1-1.1 2.1-.9.7-1.6.6h0z"/></g><path d="M96.1 122.2c.2-.6.9-1 1.5-.8s1 .9.8 1.5-.9 1-1.5.8-.9-.9-.8-1.5h0z" class="T V"/><g class="T V"><path d="M97.3 123.8H97c-.7-.2-1.1-.9-.9-1.6.2-.5.7-.9 1.2-.9.7.1.9.4 1.1.7s.2.6.1 1c-.2.4-.7.8-1.2.8h0zm.2-2.4c-.7 0-1.2.3-1.3.8-.2.6.2 1.3.8 1.4h.3c.5 0 1-.3 1.1-.8.1-.3.1-.6-.1-.9s-.4-.5-.7-.6c0 .1-.1.1-.1.1h0z"/></g><g class="T V"><path d="M89.4 129.9l-.1-.8 1-3.7 1.2-1.8 1.8-1.3 1.3-.4v.1l-1.2.5-1.7 1.2-1.2 1.7-1.1 4.5z"/></g><g class="T V"><path d="M90.3 138.7a4.17 4.17 0 0 1-1.3-1.5c-.7-1.1-1.2-2.6-1.5-4.3-.1-.4-.1-.9-.2-1.3-.1-1-.1-2.8.4-4.9.2-.7.3-1.2.7-1.9.2-.5.6-1.3 1-1.7.3-.5.7-.8 1-1.1.4-.3.7-.6 1.1-.8 2.6-1.6 4.8-1.5 6.1-.8l-.1.2c-1.2-.6-3.4-.8-5.9.8l-1.1.8-1 1.1c-.3.4-.7 1.2-.9 1.7-.3.7-.5 1.1-.7 1.8-.5 2-.5 3.8-.4 4.3.1 1 .2 1.4.3 1.8.3 1.7.8 3.1 1.5 4.3.1.4.5.9 1 1.5h0z"/></g><path d="M95.2 138.3c0-.7.5-1.3 1.2-1.3.6 0 1.2.6 1.2 1.3s-.5 1.3-1.2 1.3-1.2-.6-1.2-1.3h0z" class="T V"/><g class="T U"><path d="M92.8 143.4c-1.6 0-3-.8-4.3-1.9-.6-.5-1.2-1.1-1.6-1.6-.1-.1-.1-.2 0-.3s.2-.1.3 0c.4.6 1 1.1 1.6 1.6 1.2 1 2.6 1.7 4 2.2h0z"/></g><g class="T U"><path d="M96.4 144.1c-.1 0-.2-.1-.2-.2s.1-.2.2-.2c1.4-.2 2.5-.8 3.2-1.7.7-.8.9-2 .8-3.1-.2-1.9-2-3.2-3-3.3 1.4-.3 3.2 1.3 3.5 3.3.2 1.3-.2 2.5-.9 3.4-.9 1-2.1 1.6-3.6 1.8h0z"/></g><g class="T U"><path d="M96.1 144l3-1.9.8-1.3.3-1.5.4.1-.6 2.2-.6.8-1.7 1.1-1.6.5z"/></g><g class="T U"><path d="M102.9 120.2a4.22 4.22 0 0 1-2.5-.9c1.1.3 2.4.7 3.6.2 1.2-.6 2-1.4 2.4-2.6l.4.1c-.5 1.3-1.3 2.3-2.6 2.9-.4.2-.8.3-1.3.3h0z"/></g><g class="T U"><path d="M103.1 120h-.5l.5-.4 1.5-.6 1.5-1.9.3-.9.4.1-.7 1.6-1.3 1.5-1.7.6z"/></g><g class="T U"><path d="M103.3 115.9c-.4-.5-.6-1.1-1-1.4-.3-.3-.7-.5-1.2-.5v-.4c.5-.1 1.1.2 1.5.6s.7 1 .7 1.7h0z"/></g><g class="T U"><path d="M101.4 117.1h-.2c1-.3 1.6-.9 1.9-2.1 0-.1.2-.2.3-.2s.2.2.2.3c-.2.5-.6 2-2.2 2h0z"/></g><path d="M99.9 115.5c0-.8.6-1.4 1.3-1.4s1.3.6 1.3 1.4-.6 1.4-1.3 1.4-1.3-.6-1.3-1.4h0z" class="T V"/><g class="T V"><path d="M101.2 116.9c-.7 0-1.4-.7-1.4-1.5 0-1.6 2.7-1.6 2.7 0 .1.9-.5 1.5-1.3 1.5h0zm0-2.8c-.7 0-1.2.6-1.2 1.4 0 1.5 2.5 1.5 2.5 0 0-.8-.6-1.4-1.3-1.4h0z"/></g><g class="T U"><path d="M104.4 100.4c-1.8-.5-3.1-2-3.8-3.8 0-.1 0-.2.1-.3.1 0 .2 0 .3.1.6 1.7 1.9 3.1 3.4 4h0z"/></g><g class="T V"><path d="M104.8 101.2l-.5-.3c-.3-.2-.6-.3-.9-.6-.5-.4-.8-.6-1.3-1.1-.3-.3-.5-.5-.8-.9-.2-.2-.2-.4-.3-.6.3.1.3.2.5.4.3.4.5.6.8.9.5.5.7.7 1.3 1 .3.2.6.4.9.5l.5.3c-.1.2-.1.3-.2.4h0 0z"/></g><g class="T V"><path d="M109.3 98.2c-.4-.1-.6-.2-.8-.4-.4-.3-.8-.5-1.2-1s-.7-.8-1-1.4l-.3-.8s-.1-.3 0-.3 0-.2.1-.2l.2.5c.1.2.1.4.3.7.3.6.5.9 1 1.4.4.4.7.7 1.1.9.1.3.3.4.6.6h0z"/></g><g class="T V"><path d="M113 97.5c-.4 0-.6-.1-.9-.4-.4-.3-.6-.5-1-.9-.2-.3-.4-.5-.6-.9l-.3-.6s-.1-.3 0-.3 0-.2 0-.2l.2.4c.1.2.1.4.3.6.2.3.3.5.6.8.3.4.6.6.9.9s.6.4.8.6h0 0z"/></g><path d="M116.4 93c-.1-.7.3-1.3.9-1.4s1.1.5 1.2 1.2-.4 1.3-.9 1.4c-.6 0-1.1-.5-1.2-1.2h0z" class="T V"/><g class="T U"><path d="M201 127c-1.2 0-2.4-.7-3.2-1.8 1 .8 2.1 1.5 3.2 1.4 1.8 0 2.6-1 2.8-1.6.5-1 .4-2.1-.2-2.9-.1-.1-.1-.2 0-.3s.2-.1.3 0c.7.9.8 2.3.2 3.4-.4 1.1-1.5 1.8-3.1 1.8h0 0z"/></g><g class="T U"><path d="M94.6 141h-.4c-2.3-.2-4.1-1.5-5.5-3.8-.7-1.2-1.2-2.6-1.6-4.3-.1-.4-.1-.8-.2-1.3l-.1-.6c-.1-.5-.1-2.4.5-4.4.2-.7.3-1.2.7-1.9l1-1.7c.4-.5.7-.8 1-1.1.4-.3.7-.6 1.1-.8 2.9-1.8 5.9-1.5 7.3-.1l-.3.3c-1.3-1.2-4-1.6-6.7.2l-1.1.8-1 1.1c-.3.4-.7 1.2-1 1.6-.3.6-.5 1.1-.6 1.8-.5 2-.5 3.8-.4 4.3l.1.6c.1.4.1.8.2 1.2.3 1.7.8 3.1 1.5 4.2 1.3 2.2 3 3.4 5.2 3.6.8.1 2-.2 2.6-.7.4-.3.5-.7.6-1.1.4.6.2 1.1-.3 1.4-.7.4-1.8.7-2.6.7h0z"/></g><g class="T U"><path d="M171.1 101.1h-.2c-5.8-.1-10.4-2.6-13.5-4.3l-.9-.5c-.6-.3-1.3-.3-1.6.1-.4.5-.3 1.2.2 1.6-.9-.3-1-1.2-.5-1.9.4-.5 1.3-.6 2.1-.2l.9.5c3.2 1.8 7.6 4.2 13.3 4.3 3.9-.1 7-.8 9.6-2.6 2.7-1.8 5.2-4 4-6.9-.4-1-1.1-1.6-2.2-1.9s-2.5-.1-3.4.7c-.6.5-1 .9-1.1 1.4-.2.6-.4 1.7.3 2.6.8 1 2 1 2.4.9.7-.2 1.3-.7 1.5-1.4.2-.6.1-1.2-.2-1.6-.2-.2-.5-.4-.9-.3s-.7.4-.8.9c0 .1-.1.2-.3.2-.1 0-.2-.1-.2-.3.1-.6.6-1.1 1.1-1.2s1.1.1 1.3.4c.4.5.5 1.3.3 1.9-.3.8-.9 1.4-1.8 1.7-.6.2-2 .1-2.9-1-.8-1.1-.6-2.3-.4-3 .2-.6.6-1.1 1.3-1.6 1.1-.8 2.5-1.1 3.8-.7 1.1.3 2 1.1 2.4 2.1 1.3 3.2-1.4 5.5-4.2 7.4-2.4 1.8-5.5 2.7-9.4 2.7h0z"/></g><g class="T U"><path d="M180.8 95.4c.6-.6 1.2-1.2 1.4-1.9.2-.6.1-1.1-.2-1.5-.2-.3-.4-.4-.9-.5-.1 0-.2-.1-.2-.2s0-.2.2-.2c.7 0 1 .3 1.2.6.4.6.5 1.3.3 1.9a2.7 2.7 0 0 1-1.8 1.8h0z"/></g><g class="V"><path d="M154.5 97.3c0-.7.6-1.3 1.3-1.3s1.3.6 1.3 1.3-.6 1.3-1.3 1.3c-.8 0-1.3-.6-1.3-1.3h0zm25.3-4.7c.1-.7.7-1.1 1.2-1 .6.1.9.7.8 1.4s-.7 1.1-1.2 1-.9-.7-.8-1.4h0z" class="T"/></g><g class="T U"><path d="M145.7 101c1.1-1.3 1.5-1.6 1.6-3.3.1-1.3-.4-2.3-1.6-3.3-.1-.1-.1-.2-.1-.3.1-.1.2-.1.3 0 1.4 1 1.9 2.1 1.8 3.6-.1 1.9-.6 2.4-2 3.3h0z"/></g><g class="T U"><path d="M192.4 111.6l-.4-10.9h.4v10.9z"/></g><g class="T U"><path d="M145.8 100.6c.8-.8 1.2-1.4 1.3-2.4 0-.1.1-.3.2-.2.1 0 .2.1.2.2-.1 1.2-.6 2-1.7 2.4h0z"/></g><path d="M158.8 88.6c0-1.2-1.2-1.3-1.6-1.3-1.3 0-1.6.8-3.2 1.7-2 1.1-2.9 1.3-4.6 1.3-1.8 0-2.6-.3-4.6-1.3-1.6-.8-1.9-1.6-3.1-1.6-.7 0-1.6.6-1.5 1.7v.6c0 .1.1.1.2.1 0-.5.1-.8.3-1.2.3-.5.9-.6 1.1-.6 1.3 0 1.8.8 3.3 1.7 2 1.1 2.8 1.3 4.6 1.3s2.7-.2 4.6-1.3c1.6-.9 2.1-1.7 3.3-1.7.5 0 .8.3.9.7.1.3 0 .5 0 .6s.1.1.1.1c.1-.2.2-.3.2-.8h0z" class="T U"/><g class="T U"><path d="M149.6 91.2h0c-1.8 0-2.7-.3-4.7-1.3-.6-.3-1-.6-1.4-.9-.7-.5-1.1-.8-1.9-.8-.2 0-.7.1-.9.5a1.49 1.49 0 0 0-.3 1l-.6-.1c-.1-.2 0-.6 0-.6 0-.7.3-1.1.5-1.3.3-.3.8-.6 1.2-.6.9 0 1.3.3 1.9.8.3.3.7.6 1.3.9 1.9 1 2.8 1.3 4.6 1.3s2.6-.3 4.5-1.3c.6-.3 1-.6 1.3-.9.6-.5 1.1-.8 2-.8.4 0 1.8.1 1.8 1.5 0 .4 0 .5-.1.7h-.1l-.5.1-.1-.6c-.1-.2-.3-.6-.7-.6-.7 0-1.1.3-1.8.8-.4.3-.8.6-1.4.9-1.8 1.1-2.7 1.3-4.6 1.3h0zm-5.8-2.5c.4.3.8.5 1.3.8 2 1 2.8 1.3 4.5 1.3 1.8 0 2.6-.3 4.5-1.3.6-.3 1-.6 1.4-.9.7-.5 1.2-.9 2-.9.4 0 .7.2.9.4-.2-.6-.9-.7-1.3-.7-.7 0-1.1.3-1.7.7-.4.3-.8.6-1.4.9-2 1.1-2.9 1.3-4.7 1.4-1.8 0-2.7-.3-4.7-1.4-.3 0-.6-.2-.8-.3h0zm-2.3-1.2c-.3 0-.7.2-.9.4-.1.2-.3.4-.4.7 0-.1.1-.2.1-.2.4-.5 1-.7 1.3-.7.8 0 1.3.3 1.8.7-.1-.1-.2-.2-.3-.2-.5-.4-.9-.7-1.6-.7h0z"/></g><g class="T U"><path d="M119.2 95.4c1.1-.7 1.8-1.4 1.8-2.4 0-.2.4-.2.4 0 0 1.3-.8 2.2-2.2 2.4h0z"/></g><g class="T U"><path d="M92.4 138.5c-.2 0-.4-.1-.5-.2-.3-.3-.5-.5-.7-.9-.8-1.1-1.4-2.6-1.6-4a14.93 14.93 0 0 1-.1-4.7c.4-1.8.9-3.3 1.6-4.3.8-1.2 1.9-2 3.4-2.5l.1.4c-1.4.5-2.5 1.2-3.2 2.3-.7.9-1.2 2.3-1.6 4.1-.1.5-.3 2.4.1 4.5.3 1.3.8 2.7 1.6 3.8.2.3.5.6.7.8s.4.3.6.4c-.2.3-.3.3-.4.3h0z"/></g><g class="T U"><path d="M93.6 139c-.8 0-1.4-.5-2.1-1.1-.3-.3-.5-.6-.7-1-.8-1.1-1.4-2.6-1.6-4a14.93 14.93 0 0 1-.1-4.7c.4-1.9.9-3.3 1.6-4.3 1-1.4 2.4-2.2 4.2-2.7l.1.4c-1.8.4-3.1 1.2-4 2.5-.7.9-1.2 2.3-1.6 4.1a13.71 13.71 0 0 0 .1 4.5c.3 1.4.8 2.8 1.6 3.8.2.3.5.7.7.9.9.9 1.6 1.4 2.9 1.1-.4.5-.8.5-1.1.5h0z"/></g><g class="T U"><path d="M89.8 128.4c-.3-1.9 0-3.1 1.2-4.5.7-.8 1.4-1.2 2.2-1.6l1.1-.6c.1-.1.2 0 .3.1s0 .2-.1.3c-.4.3-.8.5-1.2.6-.8.4-1.4.7-2.1 1.5-1 1.3-1.2 2.4-1.4 4.2h0z"/></g><g class="T U"><path d="M195.5 139.5c-.3 0-.5-.1-.9-.4-1-.6-2.3-2.4-2.7-4.5-.2-1.1-.1-2.7 1.1-3.9.1-.1.2-.1.3 0s.1.2 0 .3c-1.1 1.2-1.1 2.6-.9 3.6.3 1.9 1.5 3.7 2.5 4.2.3.3.5.3.8.3.2 0 .4.1.6.2l-.8.2h0z"/></g><g class="T U"><path d="M199.5 133.6c-2.5 0-5.1-1.1-6.6-2.7-1-1-1.1-2.2-1-2.9 0-1.2.3-1.8 1.2-2.4l.2.3c-.7.5-1 1-1 2.1s.3 1.9.9 2.6c1.4 1.5 4 2.5 6.2 2.5 1.6-.1 2.8-.4 4-1.2 1.6-1.1 2.3-2.6 2.6-3.6.1 1.2-.6 2.8-2.3 3.9-1.2 1-2.6 1.4-4.2 1.4h0z"/></g><path d="M191.8 171.2s0 1.1-.1 1.7c-.3 1.9-.6 3-1.4 4.8-.9 1.7-1.5 2.6-2.9 3.9-1.4 1.4-2.3 2-4 2.8s-2.7 1.1-4.5 1.5-2.9.5-4.7.6c-1.7.1-2.7 0-4.4-.1l-4.7-.5-3.9-.3c-1.5 0-2.4 0-4 .3-1.4.2-2.2.5-3.6 1-1.9.7-4 2.1-4.4 2.6-.5-.6-2.5-1.9-4.4-2.6-1.3-.5-2.1-.7-3.6-1s-2.4-.3-4-.3c-1.5 0-2.4.1-3.9.3l-4.7.5c-1.7.1-2.7.2-4.4.1-1.9-.1-2.9-.2-4.7-.6s-2.9-.7-4.5-1.5c-1.7-.9-2.7-1.5-4-2.8-1.4-1.3-2-2.2-2.9-3.9s-1.2-2.9-1.4-4.8c-.1-.7-.1-1.7-.1-1.7h0v-70.3h85.1l.1 70.3h0z" class="T V"/><g class="T U"><path d="M149.3 189.9l-.2-.2c-.4-.5-2.5-1.8-4.3-2.6-1.4-.6-2.2-.7-3.5-1-1.5-.3-2.4-.3-3.9-.3-1.2 0-1.9.1-2.9.2l-.9.1-2.2.3-2.5.3c-1.8.1-2.7.2-4.4.1-1.9-.1-3-.2-4.8-.6-1.9-.4-2.9-.7-4.6-1.5s-2.7-1.5-4.1-2.9-2.1-2.3-2.9-4c-.9-1.7-1.2-2.8-1.5-4.8-.1-.7-.1-1.7-.1-1.7V101l85.3-.2.2 70.5s0 1.1-.1 1.7c-.3 2-.6 3.1-1.5 4.8-.8 1.7-1.5 2.6-2.9 4s-2.4 2-4.1 2.9c-1.7.8-2.7 1.1-4.6 1.5-1.8.4-2.9.5-4.8.6-1.7.1-2.7 0-4.3-.1l-2.5-.3-2.2-.3-.9-.1-2.9-.2c-1.5 0-2.4 0-3.9.3-1.4.2-2.2.4-3.5 1-1.8.7-3.9 2-4.3 2.6l-.2.2h0zm-12-4.5c1.6 0 2.5 0 4 .3 1.4.2 2.2.4 3.6 1 1.6.7 3.6 1.8 4.3 2.5.7-.7 2.5-1.8 4.3-2.5 1.4-.6 2.2-.8 3.6-1 1.5-.3 2.4-.3 4-.3 1.2 0 2 .1 3 .2l.9.1 2.2.3 2.4.3c1.7.1 2.7.2 4.4.1 1.9-.1 2.9-.2 4.7-.6 1.9-.4 2.9-.7 4.5-1.5s2.6-1.4 4-2.8 2-2.2 2.8-3.9 1.2-2.7 1.4-4.7c.1-.7.1-1.7.1-1.7v-70.3l-84.9.2.2 70.1s0 1 .1 1.7c.3 2 .6 3 1.4 4.7.8 1.6 1.5 2.5 2.8 3.8 1.4 1.4 2.3 2 4 2.8 1.6.8 2.6 1.1 4.5 1.5 1.8.4 2.8.5 4.7.6 1.7.1 2.6 0 4.3-.1l2.5-.3 2.2-.3.9-.1c1.1-.1 1.9-.1 3.1-.1h0z"/></g><path d="M111 105.1h36.3v36.3H111z" class="T W"/><g class="T U"><path d="M147.5 141.6H111l-.2-36.5 36.6-.2.1 36.7h0zm-.4-36.5l-36.1.2.2 36.1 35.9-.2v-36.1h0z"/></g><g fill="#fff"><path d="M133 133l-1.1-.3-1.5-.1-.1 1s0 1.3.4 2.3c.4 1.2.4 1.2.8 1.8.5.8 1.1 1.4 1.7 1.7.9.6 1.7.8 2.6.8 2.4-.2 3.6-2.8 4.1-5 .6-2.3 2.2-3.5 3.3-2.7.6.5.6 1.3.1 2.1-.6.8-1.8 1.2-1.8 1.2l1.3 1.7s2.8-.4 3.3-3.3c.2-1.1-.1-3.3-2.2-3.8-2.4-.5-3.7.9-4.4 2.3-1 1.9-1.6 5.5-4.4 5-1.5-.3-2.2-2.5-2.2-3.5l.1-1.2zm-5 .7s0 1.3-.4 2.3c-.4 1.2-.4 1.2-.8 1.8-.5.8-1.1 1.4-1.7 1.7a4.61 4.61 0 0 1-2.6.8c-2.4-.2-3.6-2.8-4.1-5-.6-2.3-2.2-3.5-3.3-2.7-.6.5-.6 1.3-.1 2.1.6.8 1.8 1.2 1.8 1.2l-1.3 1.7s-2.8-.4-3.3-3.3c-.2-1.1.3-3.1 2.2-3.8 2.3-.8 3.8.9 4.6 2.3 1 2 1.4 5.5 4.2 4.9 1.5-.3 2.2-2.5 2.2-3.5l1.1-1.2 1.5.7h0z" class="T"/></g><path d="M132.4 118.2l4.8-5.1s.7-.6.7-1.5l-1 .2-.2-.5-.1-.5 1.3-.3v-.6c0-.2.1-.3.1-.5l-1.4.1c.1-.3.1-.4.1-.6.1-.2.1-.3.2-.5.3 0 .5-.1.8-.1h.8c.8-1.5 4.1-2.8 6.4-.4 1.7 1.7 1.3 5-.9 5.8-1.2.5-2.2.2-3-.5l.9-1.7c1.2.7 2.2-.2 2.1-1.1-.1-1.2-.9-1.9-1.9-2s-1.7.5-2.2 1.4c-.3.5-.2.9-.2 1.5l-.2 1.7c-.1.5-.5 1.1-1.1 1.6l-4.9 5.3-19 20.5-1.4-1.3 19.3-20.9z" class="T X"/><path d="M118.4 120.1s1.2 5.9 5.2 14.8c2.1-.8 3.3-1.2 5.5-1.2s3.4.4 5.5 1.2c4.1-8.9 5.3-14.8 5.3-14.8l-10.7-13.8-10.8 13.8z" fill="#fff" class="T"/><g class="X"><path d="M130.2 110.9l7.4 9.6s-1 4.6-4 11.6a17.17 17.17 0 0 0-3.4-.6v-20.6zm-2.1 0l-7.4 9.6s1 4.6 4 11.6c1.2-.3 2.2-.5 3.4-.6v-20.6zm23.1-5.8h36.3v36.3h-36.3z" class="T"/></g><g class="T U"><path d="M187.7 141.6h-36.5l-.2-36.5 36.6-.2.1 36.7h0zm-.4-36.5l-36.1.2.2 36.1 35.9-.2v-36.1h0z"/></g><path d="M187.4 172.8c-.1.7-.3 1.8-1 2.9-.7 1-.4 1-1.9 2.7-.7.8-1.9 1.5-2.8 2s-1.5.7-3 1.1c-2.9.7-4.9.8-7.3.7a38.21 38.21 0 0 1-4.5-.5c-1.7-.2-3-.4-4.9-.4h-2.7c-1.1 0-2.1.2-3.2.4-2.4.5-4.9 1.4-4.9 1.4v-37.9h36.3v25.9l-.1 1.7h0z" class="T X"/><g class="T U"><path d="M150.9 183.5v-.3-37.9l36.6-.2.2 26.1-.1 1.7c-.1.7-.4 1.9-1 3l-.4.7c-.3.5-.4.8-1.5 2-.6.7-1.5 1.3-2.8 2-.9.5-1.5.7-3.1 1.1-2.5.7-4.7.8-7.4.7l-4.2-.4c-2-.3-3.3-.4-5.2-.5h-2.7c-1.1 0-2.1.2-3.2.4-2.4.5-4.8 1.4-4.9 1.4l-.3.2h0zm36.4-38.2l-36.1.2.2 37.4c.7-.3 2.7-.9 4.6-1.3 1.1-.2 2.2-.4 3.3-.4h2.7l5 .4 4.5.5c2.6.1 4.8 0 7.3-.7 1.5-.4 2.1-.6 3-1.1 1.3-.7 2.1-1.3 2.7-1.9 1.1-1.2 1.2-1.5 1.5-1.9l.4-.7c.6-1.1.8-2.1.9-2.8.1-.4.1-1.7.1-1.7v-26h-.1z"/></g><g class="Y"><path d="M160.7 155.9c-.4-.1-.9-.4-.9-.4.1-.1.3-.1.4-.3.2-.2.2-.3.3-.6.1-.2.1-.4.3-.6.1-.1.3-.1.5-.1s.4.2.4.3c.1.3-.1.4-.1.6s-.1.4-.1.7c0 .2.1.2.2.4-.1.2-.6.1-1 0h0zm-.4.5c0-.2.1-.3.3-.3s.3.1.3.3-.1.3-.3.3c-.2-.1-.3-.2-.3-.3h0zm-.8-7.3s-.1-.1 0 0c-.2-.2-.2-.3-.3-.5s-.1-.3-.1-.5v-.5-.4c0-.2 0-.3-.1-.4s-.2-.1-.1-.2h.2c.2 0 .3.1.4.2.2.1.2.3.3.5s.1.4.2.7c0 .1.1.2.1.3.1.1.1.2.2.3h0a.78.78 0 0 1-.4.4c-.2-.1-.3 0-.4.1h0z" class="T"/></g><path d="M179.7 153.8v1.3c0 .6-.1.9-.1 1.2s.1.4.3.7c.4.6.8.7.5 1.6l-.2.7c-.1.3-.1.4-.2.8s-.2 1.2-.3 2v.3c-.1.1-.2.1-.3.1-.2 0-.1.5-.2.7l-.2.2-.7-.2-.5-.2.1-.5c.1-.1.2-.1.3-.2.2-.2.4-.4.5-.7s.1-.5.2-.9.2-.6.1-1c0-.3-.2-.5-.2-.8-.1-.3.1-.5 0-.7-.1-.3.1-.3-.6-.6 0 0 0 .3.1.4 0 .1.1.2.1.3 0 .2-.1.3-.2.4-.2.3-.5.4-.7.6-.6.6-1 1-1.3 1.7-.1.2-.1.5-.3.6-.1.1-.3.1-.4.1-.2 0-.2.1-.4.2-.1.1-.1.2-.1.3l-.2.1-.6-.1-.7-.2.1-.5c.4-.3.6-.1.9-.4.2-.1.3-.3.4-.5.1-.1.1-.3.3-.4.1-.1.2-.2.2-.3.2-.2.3-.4.5-.7.1-.2.2-.3.3-.6.1-.2.1-.2.1-.4v-.4c-.1 0-.4.1-.4.2v.4c0 .1 0 .3-.1.4-.1 0-.1.1-.2 0-.1 0-.2-.1-.2-.2-.1-.1 0-.2 0-.3v-.2h-.4-.4v.3c0 .1 0 .2-.1.3s-.2.1-.3.1-.1-.1-.2-.1c-.1-.1 0-.2-.1-.3v-.4c-.4-.2-.8-.4-1.2-.7l-.3.1c-1.6.4-2.7.4-4.1.2 0 .4-.1.7-.2 1.1l-.3 1c-.1.3-.1.4-.1.7 0 .5 0 .7.1 1.2.1.3.1.5.1.7v.3c-.1.1-.2 0-.4 0-.1 0-.2.1-.2.2-.1.1-.1.2-.1.3l-.3.1-.6-.1-.5-.2.1-.4c.2-.1.3-.2.4-.3s.2-.3.2-.5c.1-.3.1-.5.1-.8v-.8c0-.1-.1-.2-.1-.3s-.1-.2-.1-.3c-.1-.2 0-1.1-.1-1.6 0-.1 0-.2-.1-.3h-.2c-.2 0-.3.1-.5 0-.4-.1-.5-.2-.6-.2-.2 0-.3 0-.4-.1-.4.4-.5.4-.9.8-.1.1-.2.2-.2.3.1.5.5.5.7.8.1.2.4.3.3.5-.1.1-.3.1-.3.3 0 .1 0 .2.1.3v.4l-.3.5-.3.3-.4-.2c0-.4-.1-.5-.1-.9-.1-.4-.2-.6-.3-.9-.3-.6-.4-.7-.7-1.1-.4-.7-.2-.7.1-1.2.3-.4.5-.6.9-1-.2-.3-.2-.5-.5-.7-.1-.1-.4-.6-.6-1.4v-.4s0-.1.1-.2l-.9-.4c.1-.1.2-.1.3-.2h-.3c-.1 0-.2 0-.3.1h-.4c-.2 0-.3-.1-.6-.2s-.4-.3-.7-.4-.5-.1-.9-.2h-.6c-.1 0-.2-.2-.2-.3-.1-.1-.3-.5-.4-.6s-.1-.2-.1-.3c.1-.1.2-.3.3-.3h.3c.1 0 .1 0 .2-.1.2-.1.3-.3.5-.4.2-.2.3-.3.5-.4.1-.2.2-.2.3-.4s0-.3.1-.5l.2-.2c.2-.2.4-.2.5-.4.2-.1.2-.2.4-.4.1-.1.3-.1.3-.1.6.1.8.2 1.3.4l1 .5c.1-.1.2-.2.4-.3s.3-.1.5-.2h.4a.76.76 0 0 1 .4.2c-.1.2-.2.3-.3.4-.2.2-.1.3-.2.5-.2.2-.3.3-.6.5l.9.3s.9 0 1.7-.1c1.6-.1 1.6-.4 2.7-.5.6 0 1.5.2 2.6.2.8 0 1.3-.1 2.2-.2s1.4-.3 2.2-.3h1.9c.7.1 1.2 0 1.8.3.4.1.9.2 1.2.6.1.1.2.2.2.4.1.1.1.2.1.4s.1.3.1.5 0 .4-.1.7c-.3.7-.5.8-1 1.1-.2.5-.3.5-.3.6h0z" class="T W"/><g class="T X"><path d="M173 154.8l.3-.5c-.3.2-1 .2-1.5.1l.3-.5c-.1 0-.3 0-.5-.1s-.3-.2-.5-.3l.8-.3c.3-.1.5-.2.7-.3.3-.1.6-.3 1-.3.5-.1 1.2 0 3.4.3 1.3.2 1.9.1 2.4-.1.3-.1.4-.3.4-.7 0-.3-.2-.6-.4-.7-.1 0-.3-.1-.3-.2s-.2-.2-.1-.2c0 0 .5.2.6.2.2.2.4.5.4.9s-.2.7-.5.9c-.5.2-1.1.4-2.5.1-2.2-.4-2.9-.4-3.3-.3-.5 0-.7.2-1 .3-.2.1-.4.2-.7.3l-.7.2c.7.2 1 .2 1 .2l-.4.6c.2-.1.4-.1.6-.1.3 0 .9-.1.9-.1h.2l-.3.6c.2-.2.4-.2.6-.3.3-.1.5-.2.7-.3.2-.2.5-.3.8-.4.6 0 1.1.1 1.6.2s1 .2 1.5.2.8-.1 1.1-.2h.3c0 .1.2 0 .1.1l-.3.1c-.3.2-.6.2-1 .2-.8.1-1.3-.1-1.7-.2-.5-.1-1-.3-1.5-.2-.3 0-.5.2-.8.3-.2.1-.4.3-.7.4s-.5.1-.8.1h-.2 0z"/></g><path d="M160.5 149.9c-.2 0-.4 0-.6.1s-.2.3-.4.5c.2 0 .3.2.5.1.1 0 .2-.1.3-.2.2-.1.3-.2.2-.5h0z" class="T X"/><g class="T X"><path d="M166 158.4l.1-.5-.1-.2c-.1-.5-.1-.7-.1-.9-.1-.3-.1-.4-.2-.6l-.1-.3c.1 0 0-.2 0-.1l.2.4c.1.2.2.4.2.7 0 .2.1.4.1.6l.1.6c0 .1-.1.3-.1.3h0 0c-.1-.2-.1 0-.1 0h0z"/></g><path d="M161.1 153.8l1 .5a3.66 3.66 0 0 0 1.5-1.7 5.19 5.19 0 0 0 .6-1.9l-.8-.3h-.2c-.2.8-.3 1.2-.7 1.9-.3.6-.8 1-1.2 1.3l-.2.2z" class="T Y"/><path d="M161.1 153.8v-.2h.2l.3.1z" class="T W"/><g class="Y"><path d="M163.3 161.8c.2-.2.2-.4.4-.6a3.17 3.17 0 0 1 .6-.5h.2c0 .2 0 .4-.1.7 0 .2-.1.3-.2.5s-.1.3-.2.4l-.2.2c-.2-.2-.5-.5-.5-.7h0zm14.6.8l.7.2c.3.1.4.3.6.4 0 .1.1.1 0 .2-.2.1-.4.1-.7.1h-.6-.5c-.1 0-.2-.1-.3-.1.4-.3.5-.7.8-.8h0zm-4.3-.9c.2.1.4.1.6.2.3.1.4.3.6.4 0 .1.1.1 0 .2-.2 0-.4.1-.7.1h-.6c-.2 0-.3 0-.5-.1-.1 0-.2-.1-.3-.1.4-.2.6-.6.9-.7h0zm-7.7.9c.2.1.4.1.6.2.3.1.4.3.6.4 0 .1.1.1 0 .2-.2.1-.4.1-.7.1h-.6-.5c-.1 0-.2-.1-.3-.1.5-.3.6-.7.9-.8h0zm-4-13.2c-.3-.1-.5-.5-.3-.7.1-.1.2-.1.3-.2s.1-.2.1-.4-.1-.3-.1-.4c0-.2-.1-.3-.1-.5 0-.3 0-.5.2-.7.1-.1.3-.3.4-.3.1.1 0 .2 0 .4s.1.3.1.5c.1.3.2.4.3.6s.2.4.2.6 0 .3-.1.5-.1.2-.3.4c-.1.1-.2.2-.3.2-.2.1-.3.1-.4 0h0z" class="T"/></g><g class="T W"><path d="M160.5 153.1h-.6-1-.3l.2-.1h.6.5c.7 0 .8 0 1-.2l.9-.7-.9.8h0c-.1.1-.2.1-.4.2h0z"/></g><g class="T X"><use xlink:href="#B"/></g><g class="T X"><path d="M178.3 158h0l-.4-.3v.1c-.6-.3-.9-.6-1.1-.8s-.5-.5-.8-.7c-.6-.5-.8-.6-1.1-.5l-.4-.2h.1c.8-.1 1 .1 1.2.3l1.2.9a4.36 4.36 0 0 0 1 .8c.1 0 .3.2.3.3-.2 0 0 .1 0 .1h0z"/></g><g class="W"><path d="M173.9 155.7l.7.7 1.1-.1s-.2-.2-.4-.3c-.1-.1-.1-.1-.2-.1h-.2-.3-.4c-.1-.2-.2-.2-.3-.2h0zm5.4-4.3l-.2-.2c-.2-.1-.5-.1-.5-.1l-.1.8.8-.2c.1 0 .1-.2 0-.3h0zm-2.2 3.3l.2-.4c-.2 0-.3 0-.4-.1-.2 0-.3-.1-.5-.1s-.3-.1-.6-.1c-.2 0-.3-.1-.5 0-.2 0-.2.1-.4.1a1.38 1.38 0 0 0-.4.3c-.2.1-.3.2-.5.3s-.3.1-.5.2c-.3.1-.5.1-.9.2l1 .4 3.5-.8z" class="T"/><path d="M172.7 155l.4-.7s-.4.1-.7.1c-.5.1-.8 0-1.3 0l.1.7.9.4.6-.5zm-1.1-1.6l.7-.2c.2-.1.3-.2.6-.2.1-.1.2-.1.4-.2s.3-.1.5-.1h.5c.3 0 .5 0 .8.1.3 0 .4.1.7.1s.4.1.7.1c.5.1.7.2 1.2.2.4 0 .6.1 1 .1.3 0 .4 0 .7-.1l-.3.4-2.4-.2-2.6-.1-1.9.2h-.3l-.3-.1z" class="T"/></g><path d="M157.4 151.7h.3c.1 0 .2-.1.4-.1.1 0 .2 0 .3.1.1 0 .1.1.1.1 0 .1.1.1.1.2s-.1.2-.3.2c-.1 0-.2 0-.2-.1v-.2h-.4c-.1 0-.2-.1-.3-.2h0z" class="T X"/><g class="Y"><path d="M160.7 172.1c-.4-.1-.9-.4-.9-.4.1-.1.3-.1.4-.2.2-.2.2-.3.3-.6.1-.2.1-.4.3-.6.1-.1.3-.1.5-.1s.4.2.4.3c.1.3-.1.4-.1.6 0 .3-.1.4-.1.6s.1.2.2.4c-.1.2-.6.1-1 0h0z" class="T"/><path d="M160.3 172.5c0-.2.1-.3.3-.3s.3.1.3.3-.1.3-.3.3-.3-.1-.3-.3h0zm-.8-7.3s-.1 0 0 0c-.2-.2-.2-.3-.3-.5s-.1-.3-.1-.5v-.5-.4c0-.2 0-.3-.1-.4s-.2-.2-.1-.2h.2c.2 0 .3.1.4.2.2.1.2.2.3.5.1.2.1.4.2.7 0 .1.1.2.1.3.1.1.1.2.2.3h0l-.4.4c-.2 0-.3.1-.4.1h0z" class="T"/></g><path d="M179.7 169.9v1.3c0 .6-.1.9-.1 1.2 0 .2.1.4.3.7.4.6.8.7.5 1.6-.2.6-.1.5-.2.7-.1.3-.1.4-.2.8s-.2 1.2-.3 2v.3c-.1.1-.2.1-.3.1-.2 0-.1.5-.2.7l-.2.2-.7-.2-.5-.2.1-.5c.1-.1.2-.1.3-.2.2-.2.4-.4.5-.7s.1-.5.2-.9.2-.6.1-1c0-.3-.2-.5-.2-.8-.1-.3.1-.5 0-.7-.1-.3.1-.3-.6-.6 0 0 0 .3.1.4 0 .1.1.2.1.3 0 .2-.1.3-.2.4-.2.3-.5.4-.7.6-.6.6-1 1-1.3 1.7-.1.2-.1.5-.3.6-.1.1-.3.1-.4.1-.2 0-.2.1-.4.2-.1.1-.1.2-.1.3l-.2.1-.6-.1-.7-.2.1-.5c.4-.3.6-.1.9-.4.2-.2.3-.3.4-.5.1-.1.1-.2.3-.4.1-.1.2-.2.2-.3l.5-.7c.1-.2.2-.3.3-.6.1-.2.1-.2.1-.4v-.3c-.1 0-.4.1-.4.1v.4c0 .2 0 .3-.1.4s-.1.1-.2 0c-.1 0-.2-.1-.2-.2-.1-.1 0-.2 0-.3v-.2h-.4-.4v.3c0 .1 0 .2-.1.3s-.2.1-.3.1-.1-.1-.2-.1c-.1-.1 0-.2-.1-.3v-.4c-.4-.2-.8-.4-1.2-.7l-.3.1c-1.6.3-2.7.4-4.1.2 0 .4-.1.7-.2 1.1l-.3 1c-.1.3-.1.4-.1.7 0 .5 0 .7.1 1.2.1.3.1.5.1.7v.3c-.1.1-.2 0-.4 0-.1 0-.2.1-.2.2-.1.1-.1.2-.1.3l-.3.1-.6-.1-.5-.2.1-.4c.2-.1.3-.1.4-.3s.2-.3.2-.5c.1-.3.1-.5.1-.8v-.8c0-.1-.1-.2-.1-.3s-.1-.2-.1-.3c-.1-.2 0-1.1-.1-1.5 0-.1 0-.2-.1-.3h-.2c-.2 0-.3.1-.5 0-.4-.1-.5-.2-.6-.2h-.4c-.4.4-.5.4-.9.8-.1.1-.2.2-.2.3.1.5.5.5.7.8.1.2.4.3.3.5-.1.1-.3.1-.3.3 0 .1 0 .2.1.3v.4l-.3.5-.3.3-.4-.2c0-.3-.1-.5-.1-.9-.1-.4-.2-.6-.3-.9-.3-.6-.4-.7-.7-1.1-.4-.7-.2-.7.1-1.2.3-.4.5-.6.9-1-.2-.3-.2-.6-.5-.7-.1 0-.4-.6-.6-1.4v-.4s0-.1.1-.2l-.9-.4c.1-.1.2-.1.3-.2h-.3c-.1 0-.2 0-.3.1h-.4c-.2 0-.3-.1-.6-.2s-.4-.3-.7-.4-.5-.1-.9-.2h-.6c-.1 0-.2-.2-.2-.4-.1-.1-.3-.5-.4-.6s-.1-.2-.1-.3c.1-.1.2-.3.3-.3h.3c.1 0 .1 0 .2-.1.2-.1.3-.3.5-.5l.5-.5c.1-.1.2-.2.3-.4s0-.3.1-.5l.2-.2c.2-.2.4-.2.5-.4.2-.1.2-.2.4-.4.1 0 .3-.1.3-.1.6.1.8.2 1.3.4l1 .5c.1-.1.2-.2.4-.3s.3-.1.5-.1h.4a.76.76 0 0 1 .4.2c-.1.2-.2.3-.3.4-.2.2-.1.3-.2.4-.2.3-.3.3-.6.5l.9.3s.9 0 1.7-.1c1.6-.1 1.6-.4 2.7-.5.6-.1 1.5.2 2.6.1.8 0 1.3-.1 2.2-.2s1.4-.3 2.2-.3h1.9c.7 0 1.2 0 1.8.3.4.2.9.2 1.2.6.1.1.2.2.2.4.1.1.1.2.1.4s.1.3.1.5 0 .4-.1.6c-.3.7-.5.8-1 1.1-.2.9-.3.9-.3.9h0z" class="T W"/><g class="T X"><path d="M173 170.9l.2-.5c-.3.2-.9.2-1.5.1l.3-.5c-.1 0-.3 0-.5-.1s-.3-.2-.5-.3c.4-.2.5-.2.8-.3s.5-.2.7-.3c.3-.1.6-.3 1-.3.5 0 1.2 0 3.4.3 1.3.2 1.9.1 2.4-.1.3-.1.4-.3.4-.7 0-.3-.2-.6-.4-.7-.1 0-.3-.1-.3-.2s-.2-.2-.1-.2c0 0 .5.2.6.2.1.1.5.4.4.9 0 .5-.2.7-.5.9-.5.2-1.1.3-2.5.1-2.2-.4-2.9-.4-3.4-.3-.4 0-.7.2-1 .3-.2.1-.4.2-.7.3-.2.1-.4.1-.6.1l.9.3-.4.6c.2-.1.4-.1.6-.1.3 0 .9-.1.9-.1h.2l-.3.6c.2-.2.4-.2.6-.3.3-.1.5-.2.7-.3.2-.2.5-.3.9-.4.6-.1 1.1.1 1.6.2s1 .2 1.5.2.8-.1 1.1-.2h.3s.2 0 .1.1l-.3.1c-.3.2-.6.2-1 .2-.8.1-1.2-.1-1.7-.2s-1-.2-1.5-.2c-.3 0-.5.2-.8.3-.2.1-.4.3-.7.4s-.5.1-.8.1h-.1 0z"/></g><path d="M160.5 166.1c-.2 0-.4 0-.6.1s-.2.3-.4.5c.2 0 .3.2.5.1.1 0 .2-.1.3-.2.2-.1.3-.3.2-.5h0z" class="T X"/><g class="T X"><path d="M166 173.8h0v-.7c-.1-.5-.1-.7-.1-.9-.1-.2-.1-.4-.2-.6 0 0-.1-.3 0-.3v-.2l.2.4c.1.2.2.4.2.7 0 .2.1.4.1.6l.1.6c0 .1-.1.3-.1.3h0 0c-.2-.1-.2.1-.2.1h0z"/></g><path d="M161.1 169.9l1 .5a3.66 3.66 0 0 0 1.5-1.7c.4-.7.5-1.2.6-1.9l-.8-.2h-.2c-.2.8-.3 1.2-.7 1.9-.3.6-.8 1-1.2 1.3l-.2.1z" class="T Y"/><path d="M161.1 170v-.3h.2l.3.2z" class="T W"/><g class="Y"><path d="M163.3 178c.2-.2.2-.4.4-.6s.3-.3.6-.5h.2c0 .2 0 .4-.1.7 0 .2-.1.3-.2.5s-.1.3-.2.4l-.2.2c-.2-.2-.5-.5-.5-.7h0zm14.6.8l.7.2c.3.1.4.3.6.4 0 .1.1.1 0 .2-.2.1-.4.1-.7.1h-.6-.5c-.1 0-.2-.1-.3-.1.4-.3.5-.8.8-.8h0zm-4.3-.9c.2.1.4.1.6.3.3.1.4.2.6.4 0 .1.1.2 0 .2-.2 0-.4.1-.7.1h-.6-.5c-.1 0-.2-.1-.3-.1.4-.5.6-.9.9-.9h0zm-7.7.9c.2.1.4.1.6.2.3.1.4.3.6.4 0 .1.1.1 0 .2-.2 0-.4.1-.7.1h-.6-.5c-.1 0-.2-.1-.3-.1.5-.3.6-.7.9-.8h0zm-4-13.2c-.3-.1-.5-.5-.3-.7.1-.1.2-.1.3-.2s.1-.2.1-.4-.1-.3-.1-.4c0-.2-.1-.3-.1-.5 0-.3 0-.5.2-.7.1-.1.3-.3.4-.3.1.1 0 .2 0 .4s.1.3.1.5l.3.6c.1.2.2.4.2.6s0 .3-.1.5-.1.2-.3.4c-.1.1-.2.1-.3.2-.2.1-.3.1-.4 0h0z" class="T"/></g><g class="T X"><path d="M172.7 173.9c-.1-.1-.1-.2 0-.2.8-.2 1.5-.5 2.1-.8.5-.2.9-.4 1.3-.5-.3.2-.7.4-1.2.6-.6.4-1.3.7-2.2.9h0 0z"/></g><g class="T X"><path d="M178.3 174.2h0l-.5-.2c-.5-.3-.8-.5-1.1-.8-.2-.2-.5-.5-.8-.7-.6-.5-.8-.6-1.1-.5l-.4-.1.3-.1c.6-.1.8.1 1 .3.7.5 1 .7 1.2 1a4.36 4.36 0 0 0 1 .8c.1 0 .3.2.3.3-.1-.1.1 0 .1 0h0z"/></g><g class="W"><path d="M173.9 171.9l.7.7 1.1-.1s-.2-.2-.4-.3c-.1 0-.1-.1-.2-.1h-.2-.3-.4c-.1-.2-.2-.2-.3-.2h0zm5.4-4.3l-.2-.2c-.2-.1-.5-.1-.5-.1l-.1.8.8-.2c.1 0 .1-.2 0-.3h0zm-2.2 3.3l.2-.4c-.2 0-.3 0-.4-.1-.2 0-.3-.1-.5-.1-.2-.1-.3-.1-.6-.1-.2 0-.3-.1-.5 0-.2 0-.2.1-.4.1a1.38 1.38 0 0 0-.4.3c-.2.1-.3.2-.5.3s-.3.1-.5.1c-.3.1-.5.1-.9.2l1 .4 3.5-.7z" class="T"/><path d="M172.7 171.2l.4-.7s-.4.1-.7.1c-.5.1-.8 0-1.3 0l.1.7.9.4.6-.5z" class="T"/></g><g class="X"><path d="M157.4 167.8h.3c.1 0 .2-.1.4-.1.1 0 .2 0 .3.1.1 0 .1.1.1.2s.1.1.1.2-.1.2-.3.2c-.1 0-.2 0-.2-.1v-.2h-.4c-.1-.1-.2-.1-.3-.3h0zm-46.3 5c.1.7.3 1.8 1 2.9.6 1 .4 1 1.9 2.6.7.8 1.9 1.5 2.8 2s1.6.7 3 1.1c2.9.7 4.9.8 7.3.7a38.21 38.21 0 0 0 4.5-.5l4.9-.5h2.7c1.1.1 2.1.2 3.2.5 2.4.5 4.8 1.4 4.8 1.4v-37.9h-36.4V171c.1.2.2 1.4.3 1.8h0z" class="T"/></g><g class="T U"><path d="M147.5 183.5l-.3-.1s-2.5-.9-4.8-1.4c-1.1-.2-2.2-.4-3.2-.4h-2.7l-4.9.5-.6-.1-3.9.4c-2.7.1-4.8-.1-7.4-.7-1.5-.4-2.1-.6-3.1-1.1-.9-.5-2-1.2-2.8-2-1.1-1.2-1.3-1.5-1.5-2l-.4-.7c-.5-.9-.8-1.9-1-3-.1-.4-.2-1.7-.2-1.7v-25.9l36.6-.2.2 38.4h0zm-9.5-2.4h1.3c1.1.1 2.1.2 3.3.5 1.9.4 3.9 1.1 4.6 1.3v-37.6l-36.1.2.2 25.7h0l.2 1.7c.2 1.1.5 2 .9 2.9.2.3.3.5.4.7.2.5.4.8 1.5 1.9.7.8 1.9 1.5 2.7 1.9.9.5 1.6.7 3 1.1 2.5.7 4.6.8 7.3.7l3.9-.4.7-.1 4.9-.5h1.2 0z"/></g><path d="M115.3 179.1c.6.4 1.2.7 1.7 1 .9.5 1.3.5 2.3.9v-35.5h-4v33.6h0z" class="T W"/><g class="T W"><path d="M119.4 181.1l-.9-.3c-.5-.2-.9-.3-1.5-.6l-1.7-1v-33.7h4.1v35.6h0zm-.1-35.6h-4l.1 33.6c.6.3 1.1.7 1.7 1s1 .4 1.5.6l.7.3v-35.5h0z"/></g><path d="M135.5 181.1v-35.6h-4.1v35.9a440.82 440.82 0 0 0 4.1-.3h0z" class="T W"/><g class="T W"><path d="M131.4 181.5v-36h4.1v35.7l-4.1.3h0 0zm4.1-36h-4l.1 35.8c.4 0 2.8-.2 4-.3l-.1-35.5h0z"/></g><path d="M143.6 145.5h-4V181c1.3.1 2.7.3 4 .7v-36.2z" class="T W"/><g class="T W"><path d="M143.6 181.8h0c-1.6-.4-3-.6-4.1-.7v-35.5h4.1v36.2h0zm-.1-36.3h-4v35.4c1 .1 2.5.2 3.9.6l.1-36h0z"/></g><g class="T U"><path d="M206.2 143.9c2.7-1.2 9.3-2.9 9.3-13.8 0-4-1.3-7.3-3.7-9.7-3.1-3-7-3.7-8.9-3.7v-.4c1.8 0 6 .7 9.2 3.9 2.6 2.5 3.9 5.9 3.9 10 0 11.1-7.1 13-9.8 13.7h0z"/></g><g class="T U"><path d="M207.2 143.5c2.2-1 8.2-4.4 8-12.7-.1-5-1.6-8.9-4.2-11.4-2-1.8-4.5-2.8-7.3-2.7v-.4c2.8-.1 5.5.9 7.6 2.8 2.7 2.5 4.2 6.6 4.3 11.7.2 8.5-6 12-8.4 12.7h0z"/></g><path d="M156.4 105.2h5.2v35.7h-5.2z" class="T W"/><g class="T W"><path d="M161.6 140.9h-5.2l-.1-35.8h5.2l.1 35.8h0zm-.1-35.7h-5.1l.1 35.7h5.1v-35.7h-.1z"/></g><path d="M166.8 105.2h5.2v35.7h-5.2z" class="T W"/><g class="T W"><use xlink:href="#C"/></g><path d="M177.2 105.2h5.2v35.7h-5.2z" class="T W"/><g class="T W"><path d="M182.4 140.9h-5.2v-35.8h5.2v35.8h0zm-.1-35.7h-5.1l.1 35.7h5.1v-35.7h-.1z"/></g><path d="M127.4 145.5v36.4s-2.7.1-4.1-.1v-36.4l4.1.1z" class="T W"/><g class="T W"><path d="M126 182c-.9 0-1.9 0-2.7-.1v-36.4l4.1-.1.1 36.5-1.5.1h0zm1.4-36.5l-4 .1v36.3h2.6 1.4v-36.4h0z"/></g></g></g></svg>