<svg xmlns="http://www.w3.org/2000/svg" xmlns:xlink="http://www.w3.org/1999/xlink" viewBox="0 0 300 300" xmlns:v="https://vecta.io/nano"><style><![CDATA[.d{clip-path:url(#B)}.e{fill:#fff}.f{clip-path:url(#D)}.g{clip-path:url(#L)}.h{clip-path:url(#J)}.i{clip-path:url(#P)}.j{clip-path:url(#H)}.k{clip-path:url(#T)}.l{clip-path:url(#F)}.m{clip-path:url(#N)}]]></style><defs><path id="A" d="M0 0h300v300H0z"/></defs><clipPath id="B"><use xlink:href="#A"/></clipPath><g class="d"><defs><path id="C" d="M-20 0h515.7v300.8H-20z"/></defs><clipPath id="D"><use xlink:href="#C"/></clipPath><path d="M-20 0h515.7v300.8H-20z" fill="#378911" class="f"/><g class="e"><path d="M-20 43h515.7v43H-20zm0 85.9h515.7v43H-20zm0 85.9h515.7v43H-20z" class="f"/></g><path d="M-20 0h228.6v128.9H-20z" fill="#d9002e" class="f"/><g class="e"><path d="M98.9 21l3 8.8-7.5-5.6-7.6 5.6 3.1-8.8-7.7-5.5 9.4.2 2.8-8.9 2.7 8.9 9.5-.2zm68.6 62.5l3 8.9-7.5-5.6-7.6 5.6 3.1-8.9-7.7-5.4 9.4.2 2.8-9 2.7 9 9.5-.2zm-137.3 0l3.1 8.9-7.6-5.6-7.5 5.6 3.1-8.9-7.8-5.4 9.4.2 2.8-9 2.8 9 9.5-.2zm34.9-52.9l3.1 8.8-7.6-5.6-7.6 5.6 3.1-8.9-7.7-5.3 9.4.1 2.8-8.9 2.7 9 9.6-.2zm67.5 0l3 8.8-7.6-5.6-7.5 5.6 3.1-8.9-7.8-5.3 9.5.1 2.7-8.9 2.9 9 9.4-.2zm24.3 24.8l3 8.9-7.6-5.6-7.6 5.6 3.1-8.9-7.7-5.4 9.4.2 2.8-9 2.7 9 9.6-.2zm-115.7 0l3.1 8.9-7.6-5.6-7.5 5.6 3.1-8.9-7.8-5.4 9.5.2 2.7-9 2.8 9L49 50z" class="f"/></g><g class="f"><defs><path id="E" d="M-20 0h515.7v300.8H-20z"/></defs><clipPath id="F"><use xlink:href="#E"/></clipPath><path d="M80.9 77.7s-2 .8-.6 16.6c1.1 12.9 5.7 17.2 5.7 17.2l2 8 19.1.1s.4-5 1.1-6.5c1.8-3.9 9-8.3 12.1-14.9 3.3-4.1 1.7-12.3 8.3-20.3 3.3-4-3.9-2.3-3.9-2.3-3.9 2.6-5.9 5.7-6.9 7.8-.7 4.1-3.8 7.6-4.1 4.6 0 0-1.1-5.2-4.5-15.3-.3-3-1.8-13.3-2.1-21.2-.2-5.1-4.7-5.4-5.1-.2l-.5 20.6-.9-23.9c-.5-6.7-5.6-5.7-5.8-.2l-.2 24.8-.9-24.1c-1.4-4.6-5-1.9-5.1 3.1L88 75l-1-18.2c-.2-3.3-4-3-4.3 1.6-.6 6.9-1.4 12.4-1.8 19.3h0z" class="e l"/><g class="l"><path d="M107.4 119.8l-19.4-.1-2.3-8.2c-.1 0-4.6-4.3-5.7-17.2-1.3-15.5.6-16.7.8-16.8.1-3.9.4-7.5.8-11.1.3-2.5.5-5.1.8-7.9.4-4.9 4.6-5.5 4.8-1.6.2 5.4 1 18.2 1 18.2l.1-23.4c0-3.4 1.7-5.7 3.2-5.7.6 0 1.7.3 2.3 2.5l.9 24.1-.3-24.8c.1-3.2 1.7-4.8 3.2-4.8 1.3 0 2.8 1.3 3.1 4.9l1.1 23.9V51.2c.4-5.7 5.4-5.5 5.6.2.3 6.3 1.2 14.3 1.8 18.5l.3 2.6c3.3 9.9 4.5 15.2 4.5 15.2 0 .4.1.9.5.9.8 0 2.6-2.5 3.1-5.5 1.5-3.3 3.8-5.9 7-8 .1-.1 1.6-.4 3-.4 1.2 0 1.8.3 2.1.8s0 1.3-.8 2.3c-3.9 4.6-4.9 9.5-5.8 13.4-.6 2.8-1.1 5.2-2.6 7-1.7 3.8-4.8 6.8-7.5 9.5-2 2-3.8 3.7-4.5 5.4-.7 1.5-1.1 6.4-1.1 6.5v.2h0zM85.2 55c-1 0-2.2 1.1-2.3 3.6-.2 2.8-.5 5.3-.8 7.9-.4 3.6-.7 7.2-1 11.3-.2.3-1.9 1.6-.6 16.5 1.1 12.7 5.6 17 5.6 17l2.1 8.1 18.6-.1c.1-1 .4-5 1.1-6.4.8-1.7 2.6-3.5 4.6-5.5 2.7-2.7 5.7-5.7 7.5-9.4 1.4-1.7 1.9-4.1 2.5-6.8.9-3.9 1.9-8.8 5.9-13.6.6-.8.9-1.4.8-1.7-.4-.8-4.4-.2-4.4-.1-3 2-5.2 4.6-6.7 7.7-.5 2.9-2.3 5.9-3.6 5.9-.3 0-.9-.2-1-1.4 0 0-1.2-5.3-4.5-15.2l-.3-2.7c-.5-4.3-1.5-12.3-1.8-18.6-.2-5-4.2-5.2-4.6-.2l-.5 20.6-1.5-23.9c-.5-7.1-5.1-5.4-5.3-.2l-.2 24.8-1.4-24.1c-.4-1.3-1.1-2.1-1.8-2.1-1.3 0-2.7 2.1-2.7 5.2L88.3 75h0c-.5 0-1.3-12.8-1.5-18.2-.1-1.1-.7-1.8-1.6-1.8h0z" fill="#d9002e"/></g></g><path d="M0 0h300v300H0z" fill="#bc0030"/><defs><path id="G" d="M-107.1 0h514.2v300h-514.2z"/></defs><clipPath id="H"><use xlink:href="#G"/></clipPath><path d="M-107.1 0h514.2v100h-514.2z" fill="#ea0020" class="j"/><path d="M-107.1 200h514.2v100h-514.2z" fill="#f09624" class="j"/><path d="M-107.1 100h514.2v100h-514.2z" fill="#1d00a6" class="j"/><defs><path id="I" d="M0 0h515.5v300.7H0z"/></defs><clipPath id="J"><use xlink:href="#I"/></clipPath><path d="M0 0h515.5v300.7H0z" fill="#5784d9" class="h"/><g fill="#f1d62f"><path d="M0 233.9h515.5v16.7H0zm0-33.4h515.5v16.7H0z" class="h"/></g><path d="M96.9 131L84.1 93.6 46.7 80.9l37.4-12.8 12.7-37.4L109.6 68 147 80.8l-37.4 12.8z" class="e h"/><path d="M96.9 122.6L86.2 91.5 55.1 80.9l31.1-10.7 10.6-31.1 10.7 31.1 31.1 10.6-31.1 10.7z" fill="#c0003b" class="h"/><defs><path id="K" d="M-54.1 0h519.3v303H-54.1z"/></defs><clipPath id="L"><use xlink:href="#K"/></clipPath><path d="M-54.1 0h519.3v303H-54.1z" fill="#180087" class="g"/><g class="e"><path d="M82.5 185.6l7.9 24.6 24.2-9.1-14.3 21.5 22.2 13.1-25.7 2.3 3.5 25.5-17.8-18.7-17.8 18.7 3.6-25.5-25.7-2.3 22.2-13.1-14.3-21.5 24.1 9.1zm273.3 44.3l3.7 11.7 11.5-4.4-6.8 10.2 10.6 6.3-12.2 1.1 1.6 12.2-8.4-9-8.5 9 1.7-12.2-12.3-1.1 10.6-6.3-6.8-10.2 11.5 4.4zm-68.3-108.2l3.7 11.7 11.5-4.4-6.8 10.3 10.6 6.2-12.3 1.1 1.7 12.2-8.4-8.9-8.5 8.9 1.7-12.2-12.3-1.1 10.6-6.2-6.8-10.3 11.5 4.4zm68.3-74l3.7 11.7L371 55l-6.8 10.3 10.6 6.3-12.2 1 1.6 12.2-8.4-8.9-8.5 8.9 1.7-12.2-12.3-1 10.6-6.3-6.8-10.3 11.5 4.4zm60.7 55.8l3.8 11.7 11.5-4.4-6.8 10.3 10.5 6.2-12.2 1.1 1.7 12.2-8.5-8.9-8.5 8.9 1.7-12.2-12.2-1.1 10.5-6.2-6.8-10.3 11.5 4.4zm-33.4 54.8l3 7.3 7.8.6-6 5 1.9 7.7-6.7-4.2-6.7 4.2 1.9-7.7-6-5 7.8-.6zM59.7 0v45.5H-54.1v45.6H59.7v45.5h45.6V91.1h113.9V45.5H105.3V0z" class="g"/><path d="M-54.1 0v15.3l242.7 121.3h30.5v-15.2L-23.5 0z" class="g"/><path d="M188.6 0L-54.1 121.4v15.2h30.6L219.1 15.3V0z" class="g"/></g><g fill="#ea0020"><path d="M68.9 0v54.7h-123V82h123v54.6h27.3V82h122.9V54.7H96.2V0zm-123 0v10.2l70.7 35.3H37L-54.1 0zm252.9 0l-91.1 45.5h20.4l91-45.5h-20.3zM37 91.1l-91.1 45.6h20.4l91.1-45.6H37zm91.1 0l91.1 45.6v-10.2l-70.7-35.4h-20.4z" class="g"/></g><defs><path id="M" d="M-83-1h517.8v302H-83z"/></defs><clipPath id="N"><use xlink:href="#M"/></clipPath><g fill="#c6001e"><path d="M-83-1h517.8V99.7H-83zm0 201.3h517.8V301H-83z" class="m"/></g><path d="M-83 99.6h517.8v100.7H-83z" class="e m"/><defs><path id="O" d="M-108.8-1h517.7v302h-517.7z"/></defs><clipPath id="P"><use xlink:href="#O"/></clipPath><path d="M-108.8-1h517.7v302h-517.7z" fill="#438fc3" class="i"/><path d="M-108.8 99.7h517.7v100.7h-517.7z" fill="#d6003f" class="i"/><path d="M-108.8 200.3h517.7V301h-517.7z" fill="#48ae68" class="i"/><g class="i"><defs><path id="Q" d="M-108.8-1h517.7v302h-517.7z"/></defs><clipPath id="R"><use xlink:href="#Q"/></clipPath><g class="e"><path d="M160.2 185.2c-19.5 0-35.2-15.8-35.2-35.3s15.8-35.2 35.2-35.2c7.1 0 13.6 2.1 19.1 5.6-7.7-7.8-18.4-12.7-30.2-12.7-23.3 0-42.3 18.9-42.3 42.3s18.9 42.3 42.3 42.3c11.8 0 22.5-4.9 30.2-12.7-5.5 3.7-12 5.7-19.1 5.7m47.7-19.2l-11.5-5.2-4.5 11.9-4.5-11.9-11.5 5.2 5.2-11.6-11.8-4.4 11.8-4.5-5.2-11.5 11.6 5.2 4.4-11.8 4.5 11.8 11.5-5.2-5.2 11.5 11.9 4.5-11.9 4.5z" clip-path="url(#R)"/></g></g><defs><path id="S" d="M-40 0h514.3v300H-40z"/></defs><clipPath id="T"><use xlink:href="#S"/></clipPath><path d="M-40 0h514.3v300H-40z" fill="#4ca9c5" class="k"/><path d="M-40 100h514.3v100H-40z" fill="#f3e04d" class="k"/><path d="M-40 0v300l250-150z" class="k"/></g></svg>