<svg xmlns="http://www.w3.org/2000/svg" xmlns:xlink="http://www.w3.org/1999/xlink" viewBox="0 0 300 300" xmlns:v="https://vecta.io/nano"><defs><path id="A" d="M0 0h300v300H0z"/></defs><clipPath id="B"><use xlink:href="#A"/></clipPath><path d="M0 0h300v300H0z" clip-path="url(#B)" fill="#1b257d"/><path d="M100 0h100v300H100z" clip-path="url(#B)" fill="#f4c638"/><g clip-path="url(#B)"><defs><path id="C" d="M0 62.4h300v175.1H0z"/></defs><clipPath id="D"><use xlink:href="#C"/></clipPath><path d="M150 101.5c-3.3 8.9-6.6 18.1-13.7 25.2 2.2-.7 6.1-1.4 8.5-1.3v37.3l-10.5 1.6c-.4 0-.5-.6-.5-1.4-1-11.6-3.8-21.3-6.9-31.4-.2-1.4-4.2-6.6-1.1-5.7.4 0 4.5 1.7 3.8.9-5.6-5.8-13.8-10-21.7-11.2-.7-.2-1.1.2-.5 1 10.5 16.3 19.4 35.4 19.3 58.2 4.1 0 14-2.4 18.1-2.4v26.3h10.3v-26.3c4.1 0 14 2.4 18.1 2.4-.1-22.8 8.7-41.9 19.3-58.2.6-.8.2-1.2-.5-1-8 1.2-16.1 5.4-21.7 11.2-.7.8 3.5-.9 3.8-.9 3.1-.9-.9 4.3-1.1 5.7-3.1 10.1-5.9 19.8-6.9 31.4 0 .8-.1 1.4-.5 1.4l-10.5-1.6v-37.3c2.5-.1 6.3.6 8.5 1.3-7-7.1-10.3-16.3-13.6-25.2" clip-path="url(#D)"/></g></svg>