<svg xmlns="http://www.w3.org/2000/svg" xmlns:xlink="http://www.w3.org/1999/xlink" viewBox="0 0 300 300" xmlns:v="https://vecta.io/nano"><style><![CDATA[.M{clip-path:url(#D)}.N{clip-path:url(#B)}.O{clip-path:url(#F)}.P{clip-path:url(#H)}]]></style><defs><path id="A" d="M0 0h300v300H0z"/></defs><clipPath id="B"><use xlink:href="#A"/></clipPath><g class="N"><defs><path id="C" d="M-20 0h515.7v300.8H-20z"/></defs><clipPath id="D"><use xlink:href="#C"/></clipPath><path d="M-20 0h515.7v300.8H-20z" fill="#378911" class="M"/><g fill="#fff"><path d="M-20 43h515.7v43H-20zm0 85.9h515.7v43H-20zm0 85.9h515.7v43H-20z" class="M"/></g><path d="M-20 0h228.6v128.9H-20z" fill="#d9002e" class="M"/><g fill="#fff"><path d="M98.9 21l3 8.8-7.5-5.6-7.6 5.6 3.1-8.8-7.7-5.5 9.4.2 2.8-8.9 2.7 8.9 9.5-.2zm68.6 62.5l3 8.9-7.5-5.6-7.6 5.6 3.1-8.9-7.7-5.4 9.4.2 2.8-9 2.7 9 9.5-.2zm-137.3 0l3.1 8.9-7.6-5.6-7.5 5.6 3.1-8.9-7.8-5.4 9.4.2 2.8-9 2.8 9 9.5-.2zm34.9-52.9l3.1 8.8-7.6-5.6-7.6 5.6 3.1-8.9-7.7-5.3 9.4.1 2.8-8.9 2.7 9 9.6-.2zm67.5 0l3 8.8-7.6-5.6-7.5 5.6 3.1-8.9-7.8-5.3 9.5.1 2.7-8.9 2.9 9 9.4-.2zm24.3 24.8l3 8.9-7.6-5.6-7.6 5.6 3.1-8.9-7.7-5.4 9.4.2 2.8-9 2.7 9 9.6-.2zm-115.7 0l3.1 8.9-7.6-5.6-7.5 5.6 3.1-8.9-7.8-5.4 9.5.2 2.7-9 2.8 9L49 50z" class="M"/></g><g class="M"><defs><path id="E" d="M-20 0h515.7v300.8H-20z"/></defs><clipPath id="F"><use xlink:href="#E"/></clipPath><path d="M80.9 77.7s-2 .8-.6 16.6c1.1 12.9 5.7 17.2 5.7 17.2l2 8 19.1.1s.4-5 1.1-6.5c1.8-3.9 9-8.3 12.1-14.9 3.3-4.1 1.7-12.3 8.3-20.3 3.3-4-3.9-2.3-3.9-2.3-3.9 2.6-5.9 5.7-6.9 7.8-.7 4.1-3.8 7.6-4.1 4.6 0 0-1.1-5.2-4.5-15.3-.3-3-1.8-13.3-2.1-21.2-.2-5.1-4.7-5.4-5.1-.2l-.5 20.6-.9-23.9c-.5-6.7-5.6-5.7-5.8-.2l-.2 24.8-.9-24.1c-1.4-4.6-5-1.9-5.1 3.1L88 75l-1-18.2c-.2-3.3-4-3-4.3 1.6-.6 6.9-1.4 12.4-1.8 19.3h0z" fill="#fff" class="O"/><g class="O"><path d="M107.4 119.8l-19.4-.1-2.3-8.2c-.1 0-4.6-4.3-5.7-17.2-1.3-15.5.6-16.7.8-16.8.1-3.9.4-7.5.8-11.1.3-2.5.5-5.1.8-7.9.4-4.9 4.6-5.5 4.8-1.6.2 5.4 1 18.2 1 18.2l.1-23.4c0-3.4 1.7-5.7 3.2-5.7.6 0 1.7.3 2.3 2.5l.9 24.1-.3-24.8c.1-3.2 1.7-4.8 3.2-4.8 1.3 0 2.8 1.3 3.1 4.9l1.1 23.9V51.2c.4-5.7 5.4-5.5 5.6.2.3 6.3 1.2 14.3 1.8 18.5l.3 2.6c3.3 9.9 4.5 15.2 4.5 15.2 0 .4.1.9.5.9.8 0 2.6-2.5 3.1-5.5 1.5-3.3 3.8-5.9 7-8 .1-.1 1.6-.4 3-.4 1.2 0 1.8.3 2.1.8s0 1.3-.8 2.3c-3.9 4.6-4.9 9.5-5.8 13.4-.6 2.8-1.1 5.2-2.6 7-1.7 3.8-4.8 6.8-7.5 9.5-2 2-3.8 3.7-4.5 5.4-.7 1.5-1.1 6.4-1.1 6.5v.2h0zM85.2 55c-1 0-2.2 1.1-2.3 3.6-.2 2.8-.5 5.3-.8 7.9-.4 3.6-.7 7.2-1 11.3-.2.3-1.9 1.6-.6 16.5 1.1 12.7 5.6 17 5.6 17l2.1 8.1 18.6-.1c.1-1 .4-5 1.1-6.4.8-1.7 2.6-3.5 4.6-5.5 2.7-2.7 5.7-5.7 7.5-9.4 1.4-1.7 1.9-4.1 2.5-6.8.9-3.9 1.9-8.8 5.9-13.6.6-.8.9-1.4.8-1.7-.4-.8-4.4-.2-4.4-.1-3 2-5.2 4.6-6.7 7.7-.5 2.9-2.3 5.9-3.6 5.9-.3 0-.9-.2-1-1.4 0 0-1.2-5.3-4.5-15.2l-.3-2.7c-.5-4.3-1.5-12.3-1.8-18.6-.2-5-4.2-5.2-4.6-.2l-.5 20.6-1.5-23.9c-.5-7.1-5.1-5.4-5.3-.2l-.2 24.8-1.4-24.1c-.4-1.3-1.1-2.1-1.8-2.1-1.3 0-2.7 2.1-2.7 5.2L88.3 75h0c-.5 0-1.3-12.8-1.5-18.2-.1-1.1-.7-1.8-1.6-1.8h0z" fill="#d9002e"/></g></g><path d="M0 0h300v300H0z" fill="#2d6b4f"/><defs><path id="G" d="M-64 31.3h406v236.8H-64z"/></defs><clipPath id="H"><use xlink:href="#G"/></clipPath><path d="M-64 31.3h406v236.8H-64z" fill="#2d6b4f" class="P"/><g class="P"><defs><path id="I" d="M-64 31.3h406v236.8H-64z"/></defs><clipPath id="J"><use xlink:href="#I"/></clipPath><path d="M118.7 68.5c44.8 0 81.2 36.4 81.2 81.2 0 44.9-36.4 81.2-81.2 81.2-44.9 0-81.2-36.3-81.2-81.2 0-44.8 36.4-81.2 81.2-81.2" clip-path="url(#J)" fill="#e01748"/></g></g></svg>