<?xml version="1.0" encoding="utf-8"?>
<!-- Generator: Adobe Illustrator 22.1.0, SVG Export Plug-In . SVG Version: 6.00 Build 0)  -->
<svg version="1.1" id="Layer_1" xmlns="http://www.w3.org/2000/svg" xmlns:xlink="http://www.w3.org/1999/xlink" x="0px" y="0px"
	 viewBox="0 0 300 300" style="enable-background:new 0 0 300 300;" xml:space="preserve">
<style type="text/css">
	.st0{clip-path:url(#SVGID_2_);}
	.st1{clip-path:url(#SVGID_4_);fill:#378911;}
	.st2{clip-path:url(#SVGID_4_);fill:#FFFFFF;}
	.st3{clip-path:url(#SVGID_4_);fill:#D9002E;}
	.st4{clip-path:url(#SVGID_4_);}
	.st5{clip-path:url(#SVGID_6_);fill:#FFFFFF;}
	.st6{clip-path:url(#SVGID_6_);}
	.st7{fill:#D9002E;}
	.st8{clip-path:url(#SVGID_2_);fill:#3C9242;}
	.st9{clip-path:url(#SVGID_8_);fill:#3C9242;}
	.st10{clip-path:url(#SVGID_8_);fill:#EDC226;}
	.st11{clip-path:url(#SVGID_8_);}
	.st12{clip-path:url(#SVGID_10_);fill:#2D146E;}
	.st13{clip-path:url(#SVGID_10_);fill:#FFFFFF;}
	.st14{clip-path:url(#SVGID_10_);fill-rule:evenodd;clip-rule:evenodd;fill:#3C9242;}
	.st15{clip-path:url(#SVGID_10_);fill:#3C9242;}
	.st16{clip-path:url(#SVGID_12_);}
	.st17{clip-path:url(#SVGID_12_);fill:#FFFFFF;}
</style>
<g>
	<defs>
		<rect id="SVGID_1_" width="300" height="300"/>
	</defs>
	<clipPath id="SVGID_2_">
		<use xlink:href="#SVGID_1_"  style="overflow:visible;"/>
	</clipPath>
	<g class="st0">
		<g>
			<defs>
				<rect id="SVGID_3_" x="-20" width="515.7" height="300.8"/>
			</defs>
			<clipPath id="SVGID_4_">
				<use xlink:href="#SVGID_3_"  style="overflow:visible;"/>
			</clipPath>
			<rect x="-20" class="st1" width="515.7" height="300.8"/>
			<rect x="-20" y="43" class="st2" width="515.7" height="43"/>
			<rect x="-20" y="128.9" class="st2" width="515.7" height="43"/>
			<rect x="-20" y="214.8" class="st2" width="515.7" height="43"/>
			<rect x="-20" class="st3" width="228.6" height="128.9"/>
			<polygon class="st2" points="98.9,21 101.9,29.8 94.4,24.2 86.8,29.8 89.9,21 82.2,15.5 91.6,15.7 94.4,6.8 97.1,15.7 
				106.6,15.5 			"/>
			<polygon class="st2" points="167.5,83.5 170.5,92.4 163,86.8 155.4,92.4 158.5,83.5 150.8,78.1 160.2,78.3 163,69.3 165.7,78.3 
				175.2,78.1 			"/>
			<polygon class="st2" points="30.2,83.5 33.3,92.4 25.7,86.8 18.2,92.4 21.3,83.5 13.5,78.1 22.9,78.3 25.7,69.3 28.5,78.3 
				38,78.1 			"/>
			<polygon class="st2" points="65.1,30.6 68.2,39.4 60.6,33.8 53,39.4 56.1,30.5 48.4,25.2 57.8,25.3 60.6,16.4 63.3,25.4 
				72.9,25.2 			"/>
			<polygon class="st2" points="132.6,30.6 135.6,39.4 128,33.8 120.5,39.4 123.6,30.5 115.8,25.2 125.3,25.3 128,16.4 130.9,25.4 
				140.3,25.2 			"/>
			<polygon class="st2" points="156.9,55.4 159.9,64.3 152.3,58.7 144.7,64.3 147.8,55.4 140.1,50 149.5,50.2 152.3,41.2 155,50.2 
				164.6,50 			"/>
			<polygon class="st2" points="41.2,55.4 44.3,64.3 36.7,58.7 29.2,64.3 32.3,55.4 24.5,50 34,50.2 36.7,41.2 39.5,50.2 49,50 			
				"/>
			<g class="st4">
				<defs>
					<rect id="SVGID_5_" x="-20" width="515.7" height="300.8"/>
				</defs>
				<clipPath id="SVGID_6_">
					<use xlink:href="#SVGID_5_"  style="overflow:visible;"/>
				</clipPath>
				<path class="st5" d="M80.9,77.7c0,0-2,0.8-0.6,16.6c1.1,12.9,5.7,17.2,5.7,17.2l2,8l19.1,0.1c0,0,0.4-5,1.1-6.5
					c1.8-3.9,9-8.3,12.1-14.9c3.3-4.1,1.7-12.3,8.3-20.3c3.3-4-3.9-2.3-3.9-2.3c-3.9,2.6-5.9,5.7-6.9,7.8c-0.7,4.1-3.8,7.6-4.1,4.6
					c0,0-1.1-5.2-4.5-15.3c-0.3-3-1.8-13.3-2.1-21.2c-0.2-5.1-4.7-5.4-5.1-0.2l-0.5,20.6L100.6,48c-0.5-6.7-5.6-5.7-5.8-0.2
					l-0.2,24.8l-0.9-24.1c-1.4-4.6-5-1.9-5.1,3.1l-0.6,23.4c0,0-0.8-12.8-1-18.2c-0.2-3.3-4-3-4.3,1.6
					C82.1,65.3,81.3,70.8,80.9,77.7L80.9,77.7z"/>
				<g class="st6">
					<path class="st7" d="M107.4,119.8L88,119.7l-2.3-8.2c-0.1,0-4.6-4.3-5.7-17.2c-1.3-15.5,0.6-16.7,0.8-16.8
						c0.1-3.9,0.4-7.5,0.8-11.1c0.3-2.5,0.5-5.1,0.8-7.9c0.4-4.9,4.6-5.5,4.8-1.6c0.2,5.4,1,18.2,1,18.2l0.1-23.4
						c0-3.4,1.7-5.7,3.2-5.7c0.6,0,1.7,0.3,2.3,2.5l0.9,24.1l-0.3-24.8c0.1-3.2,1.7-4.8,3.2-4.8c1.3,0,2.8,1.3,3.1,4.9l1.1,23.9
						l0-20.6c0.4-5.7,5.4-5.5,5.6,0.2c0.3,6.3,1.2,14.3,1.8,18.5l0.3,2.6c3.3,9.9,4.5,15.2,4.5,15.2c0,0.4,0.1,0.9,0.5,0.9
						c0.8,0,2.6-2.5,3.1-5.5c1.5-3.3,3.8-5.9,7-8c0.1-0.1,1.6-0.4,3-0.4c1.2,0,1.8,0.3,2.1,0.8c0.3,0.5,0,1.3-0.8,2.3
						c-3.9,4.6-4.9,9.5-5.8,13.4c-0.6,2.8-1.1,5.2-2.6,7c-1.7,3.8-4.8,6.8-7.5,9.5c-2,2-3.8,3.7-4.5,5.4c-0.7,1.5-1.1,6.4-1.1,6.5
						L107.4,119.8L107.4,119.8z M85.2,55c-1,0-2.2,1.1-2.3,3.6c-0.2,2.8-0.5,5.3-0.8,7.9c-0.4,3.6-0.7,7.2-1,11.3
						c-0.2,0.3-1.9,1.6-0.6,16.5c1.1,12.7,5.6,17,5.6,17l2.1,8.1l18.6-0.1c0.1-1,0.4-5,1.1-6.4c0.8-1.7,2.6-3.5,4.6-5.5
						c2.7-2.7,5.7-5.7,7.5-9.4c1.4-1.7,1.9-4.1,2.5-6.8c0.9-3.9,1.9-8.8,5.9-13.6c0.6-0.8,0.9-1.4,0.8-1.7c-0.4-0.8-4.4-0.2-4.4-0.1
						c-3,2-5.2,4.6-6.7,7.7c-0.5,2.9-2.3,5.9-3.6,5.9c-0.3,0-0.9-0.2-1-1.4c0,0-1.2-5.3-4.5-15.2l-0.3-2.7
						c-0.5-4.3-1.5-12.3-1.8-18.6c-0.2-5-4.2-5.2-4.6-0.2l-0.5,20.6L100.3,48c-0.5-7.1-5.1-5.4-5.3-0.2l-0.2,24.8l-1.4-24.1
						c-0.4-1.3-1.1-2.1-1.8-2.1c-1.3,0-2.7,2.1-2.7,5.2l-0.6,23.4l0,0c-0.5,0-1.3-12.8-1.5-18.2C86.7,55.7,86.1,55,85.2,55L85.2,55z
						"/>
				</g>
			</g>
		</g>
	</g>
	<rect x="0" class="st8" width="300" height="300"/>
	<g class="st0">
		<g>
			<defs>
				<rect id="SVGID_7_" x="-34" y="42.7" width="368" height="214.7"/>
			</defs>
			<clipPath id="SVGID_8_">
				<use xlink:href="#SVGID_7_"  style="overflow:visible;"/>
			</clipPath>
			<rect x="-34" y="42.7" class="st9" width="368" height="214.7"/>
			<polygon class="st10" points="22.7,150 150,231.3 277.3,150 150,68.7 			"/>
			<g class="st11">
				<defs>
					<rect id="SVGID_9_" x="-34" y="42.7" width="368" height="214.7"/>
				</defs>
				<clipPath id="SVGID_10_">
					<use xlink:href="#SVGID_9_"  style="overflow:visible;"/>
				</clipPath>
				<path class="st12" d="M203.7,150c0,29.6-24,53.7-53.7,53.7c-29.6,0-53.7-24-53.7-53.7c0-29.6,24-53.7,53.7-53.7
					C179.6,96.3,203.7,120.4,203.7,150"/>
				<path class="st13" d="M119.3,127c-6.3,0-12.4,0.4-18.4,1.3c-1.2,2.6-2.1,5.4-2.9,8.2c6.9-1.2,14-1.8,21.3-1.8
					c31.5,0,60.2,11.9,81.9,31.3c0.9-2.7,1.5-5.6,1.9-8.5C180.5,138.5,151.3,127,119.3,127"/>
				<path class="st14" d="M104.2,134.3c1.3-0.2,2.1-1.4,2-2.8c-0.2-1.4-1.3-2.4-2.6-2.3c-1.3,0.1-2.1,1.4-2,2.8
					C101.8,133.5,103,134.5,104.2,134.3 M104.1,133.4c0.7-0.1,1.3-0.9,1.1-1.8c-0.1-0.9-0.8-1.5-1.5-1.4c-0.7,0.1-1.3,0.9-1.1,1.8
					C102.7,132.8,103.4,133.5,104.1,133.4"/>
				<path class="st14" d="M108.4,133.8l0.9-0.1l-0.1-1.9l2-0.1c0.9-0.1,1.6-0.8,1.5-1.7c-0.1-0.9-0.8-1.5-1.7-1.5l-2.9,0.2
					L108.4,133.8z M109.1,130.9l2-0.1c0.4,0,0.6-0.3,0.6-0.7c0-0.4-0.3-0.6-0.7-0.6l-2,0.1L109.1,130.9z"/>
				<path class="st15" d="M112.7,133.5c0-0.7-0.2-2.3-1.2-2.3l-1.4,0.1c1.6-0.1,1.7,1.5,1.8,2.2"/>
				<path class="st14" d="M114.9,133.4l2.4-0.1c1.2,0,2.2-1,2.2-2.2l0-0.7c0-1.2-1-2.2-2.2-2.2l-2.4,0L114.9,133.4z M115.8,132.5
					l1.4,0c0.8,0,1.4-0.6,1.4-1.4l0-0.4c0-0.8-0.6-1.4-1.4-1.4l-1.4,0L115.8,132.5z"/>
				<polygon class="st15" points="121.4,133.4 126,133.5 126,132.6 122.3,132.5 122.3,131.1 125.2,131.2 125.3,130.4 122.3,130.3 
					122.4,129.3 125.9,129.4 125.9,128.4 121.5,128.3 				"/>
				<polygon class="st15" points="127.9,133.7 128.7,133.7 129,130.2 129.7,133.8 130.5,133.9 131.9,130.5 131.6,134 132.4,134.1 
					132.9,129 131.6,128.8 130.3,132.3 129.6,128.7 128.3,128.6 				"/>
				<polygon class="st15" points="138.4,134.8 142.2,135.5 142.4,134.6 139.4,134.1 139.6,133 142,133.4 142.2,132.5 139.8,132.1 
					139.9,131.3 142.8,131.8 142.9,130.9 139.2,130.3 				"/>
				<path class="st14" d="M148.1,136.8l0.9,0.2l0.5-1.8l2,0.5c0.9,0.2,1.7-0.3,2-1.1c0.2-0.9-0.3-1.7-1.2-2l-2.8-0.7L148.1,136.8z
					 M149.8,134.2l1.9,0.5c0.3,0.1,0.7-0.1,0.8-0.5c0.1-0.4-0.1-0.7-0.5-0.8l-1.9-0.5L149.8,134.2z"/>
				<path class="st14" d="M154.4,138.4l0.9,0.3l0.6-1.8l2,0.6c0.8,0.3,1.8-0.2,2-1c0.3-0.8-0.2-1.7-1.1-2l-2.8-0.9L154.4,138.4z
					 M156.2,136l1.9,0.6c0.4,0.1,0.7-0.1,0.8-0.4c0.1-0.4-0.1-0.7-0.4-0.8l-1.9-0.6L156.2,136z"/>
				<path class="st15" d="M158.6,139.7c0.2-0.7,0.7-2.2-0.3-2.6l-1.3-0.4c1.5,0.5,1.1,2,0.8,2.7"/>
				<path class="st14" d="M162.7,141.2c1.2,0.4,2.6-0.3,3.1-1.6c0.5-1.3-0.1-2.8-1.3-3.2c-1.2-0.4-2.6,0.3-3,1.6
					C161,139.4,161.5,140.8,162.7,141.2 M163.1,140.3c0.7,0.3,1.5-0.2,1.8-1c0.3-0.8,0-1.7-0.7-2c-0.7-0.3-1.5,0.2-1.8,1
					C162.1,139.2,162.4,140.1,163.1,140.3"/>
				<path class="st14" d="M168.8,143.7c1.2,0.5,2.6-0.1,3.1-1.4c0.6-1.3,0.1-2.7-1.1-3.3c-1.2-0.5-2.6,0.1-3.1,1.4
					C167.1,141.7,167.6,143.2,168.8,143.7 M169.1,142.8c0.7,0.3,1.5-0.1,1.9-0.9c0.4-0.8,0.1-1.7-0.6-2c-0.7-0.3-1.5,0.1-1.9,0.9
					C168.2,141.6,168.5,142.5,169.1,142.8"/>
				<polygon class="st15" points="170.1,141.5 171.9,142.2 171.6,142.9 169.8,142.1 				"/>
				<polygon class="st15" points="171.2,141.9 171.9,142.2 170.9,144.6 170.2,144.3 				"/>
				<path class="st14" d="M172.6,145.4l0.9,0.4l0.8-1.7l1.8,0.9c0.8,0.4,1.8,0.1,2.2-0.7c0.4-0.8,0.1-1.8-0.7-2.2l-2.6-1.3
					L172.6,145.4z M174.7,143.3l1.8,0.9c0.3,0.2,0.7,0,0.9-0.3c0.2-0.3,0-0.7-0.3-0.9l-1.8-0.9L174.7,143.3z"/>
				<path class="st15" d="M176.5,147.3c0.3-0.6,1-2.1,0.1-2.6l-1.2-0.6c1.4,0.7,0.7,2.2,0.4,2.8"/>
				<polygon class="st15" points="178.4,148.3 182.4,150.6 182.8,149.8 179.6,147.9 180.2,146.8 182.8,148.2 183.2,147.5 180.7,146 
					181.2,145.1 184.2,146.9 184.7,146 180.9,143.9 				"/>
				<path class="st15" d="M185.8,150.8c-0.3,0.4,0,0.9,0.6,1.3c0.6,0.4,1,0.4,1.2,0.1c0.6-0.9-2.7-2.2-1.7-3.7
					c0.9-1.3,2.3-0.3,2.9,0.1c0.6,0.4,1.4,1.3,0.8,2.3l-0.9-0.6c0.3-0.5,0-0.9-0.5-1.2c-0.5-0.3-0.9-0.5-1.1,0
					c-0.5,0.7,2.7,2.1,1.7,3.6c-0.7,1.1-2,0.6-2.8,0.1c-0.7-0.5-1.8-1.5-1.1-2.6L185.8,150.8z"/>
				<path class="st15" d="M191.3,154.4c-0.3,0.4,0,0.9,0.5,1.3c0.6,0.4,1,0.4,1.2,0.2c0.6-0.8-2.6-2.3-1.5-3.8
					c0.9-1.3,2.3-0.2,2.9,0.2c0.5,0.4,1.4,1.3,0.6,2.4l-0.9-0.6c0.3-0.4,0-0.9-0.5-1.2c-0.5-0.3-0.8-0.5-1.1-0.1
					c-0.5,0.7,2.6,2.2,1.5,3.7c-0.8,1.1-2,0.5-2.8,0c-0.7-0.5-1.7-1.6-0.9-2.7L191.3,154.4z"/>
				<path class="st14" d="M196.5,160.3c1,0.8,2.5,0.5,3.4-0.6c0.9-1.1,0.8-2.6-0.2-3.4c-1-0.8-2.5-0.5-3.4,0.6
					C195.4,158,195.5,159.5,196.5,160.3 M197.1,159.6c0.6,0.5,1.5,0.3,2.1-0.4c0.6-0.7,0.5-1.6-0.1-2.1c-0.6-0.5-1.5-0.3-2.1,0.4
					C196.5,158.2,196.5,159.1,197.1,159.6"/>
				<polygon class="st13" points="106.2,138.1 105.5,140.2 106.6,140.6 				"/>
				<polygon class="st13" points="106.2,138.1 106.9,140.2 105.8,140.6 				"/>
				<polygon class="st13" points="108.4,139.6 106.1,139.6 106.1,140.8 				"/>
				<polygon class="st13" points="108.4,139.6 106.5,141 105.8,140.1 				"/>
				<polygon class="st13" points="104,139.6 105.9,141 106.5,140.1 				"/>
				<polygon class="st13" points="104,139.6 106.3,139.6 106.3,140.8 				"/>
				<polygon class="st13" points="107.5,142.2 106.8,140 105.7,140.4 				"/>
				<polygon class="st13" points="107.5,142.2 105.7,140.9 106.4,139.9 				"/>
				<polygon class="st13" points="104.8,142.2 106.7,140.9 106,139.9 				"/>
				<polygon class="st13" points="104.8,142.2 105.6,140 106.6,140.4 				"/>
				<polygon class="st13" points="110.9,160.6 110.2,162.8 111.3,163.2 				"/>
				<polygon class="st13" points="110.9,160.6 111.6,162.8 110.6,163.2 				"/>
				<polygon class="st13" points="113.1,162.2 110.8,162.2 110.8,163.4 				"/>
				<polygon class="st13" points="113.1,162.2 111.3,163.6 110.6,162.6 				"/>
				<polygon class="st13" points="108.7,162.2 110.6,163.6 111.3,162.6 				"/>
				<polygon class="st13" points="108.7,162.2 111.1,162.2 111.1,163.4 				"/>
				<polygon class="st13" points="112.3,164.8 111.6,162.6 110.5,163 				"/>
				<polygon class="st13" points="112.3,164.8 110.4,163.4 111.1,162.5 				"/>
				<polygon class="st13" points="109.6,164.8 111.4,163.4 110.8,162.5 				"/>
				<polygon class="st13" points="109.6,164.8 110.3,162.6 111.4,163 				"/>
				<polygon class="st13" points="104.4,166.2 103.9,167.7 104.6,167.9 				"/>
				<polygon class="st13" points="104.4,166.2 104.8,167.7 104.1,167.9 				"/>
				<polygon class="st13" points="105.8,167.3 104.3,167.3 104.3,168 				"/>
				<polygon class="st13" points="105.8,167.3 104.6,168.2 104.1,167.5 				"/>
				<polygon class="st13" points="102.9,167.3 104.1,168.2 104.6,167.5 				"/>
				<polygon class="st13" points="102.9,167.3 104.4,167.3 104.4,168 				"/>
				<polygon class="st13" points="105.3,169 104.8,167.5 104.1,167.8 				"/>
				<polygon class="st13" points="105.3,169 104,168.1 104.5,167.5 				"/>
				<polygon class="st13" points="103.5,169 104.7,168.1 104.3,167.5 				"/>
				<polygon class="st13" points="103.5,169 103.9,167.5 104.7,167.8 				"/>
				<polygon class="st13" points="116.2,158.5 115.9,159.6 116.4,159.7 				"/>
				<polygon class="st13" points="116.2,158.5 116.5,159.6 116,159.7 				"/>
				<polygon class="st13" points="117.2,159.3 116.1,159.3 116.1,159.8 				"/>
				<polygon class="st13" points="117.2,159.3 116.4,159.9 116,159.5 				"/>
				<polygon class="st13" points="115.2,159.3 116,159.9 116.4,159.5 				"/>
				<polygon class="st13" points="115.2,159.3 116.2,159.3 116.2,159.8 				"/>
				<polygon class="st13" points="116.8,160.5 116.5,159.5 116,159.6 				"/>
				<polygon class="st13" points="116.8,160.5 116,159.9 116.3,159.4 				"/>
				<polygon class="st13" points="115.6,160.5 116.4,159.9 116.1,159.4 				"/>
				<polygon class="st13" points="115.6,160.5 115.9,159.5 116.4,159.6 				"/>
				<polygon class="st13" points="122.1,166.3 121.5,168.2 122.4,168.5 				"/>
				<polygon class="st13" points="122.1,166.3 122.7,168.2 121.8,168.5 				"/>
				<polygon class="st13" points="123.9,167.7 122,167.7 122,168.6 				"/>
				<polygon class="st13" points="123.9,167.7 122.4,168.8 121.8,168 				"/>
				<polygon class="st13" points="120.3,167.7 121.8,168.8 122.4,168 				"/>
				<polygon class="st13" points="120.3,167.7 122.2,167.7 122.2,168.6 				"/>
				<polygon class="st13" points="123.2,169.8 122.6,168 121.7,168.3 				"/>
				<polygon class="st13" points="123.2,169.8 121.7,168.7 122.3,167.9 				"/>
				<polygon class="st13" points="121,169.8 122.5,168.7 122,167.9 				"/>
				<polygon class="st13" points="121,169.8 121.6,168 122.5,168.3 				"/>
				<polygon class="st13" points="120.5,171.7 119.9,173.5 120.8,173.8 				"/>
				<polygon class="st13" points="120.5,171.7 121.1,173.5 120.2,173.8 				"/>
				<polygon class="st13" points="122.3,173 120.4,173 120.4,173.9 				"/>
				<polygon class="st13" points="122.3,173 120.8,174.1 120.2,173.3 				"/>
				<polygon class="st13" points="118.7,173 120.2,174.1 120.8,173.3 				"/>
				<polygon class="st13" points="118.7,173 120.6,173 120.6,173.9 				"/>
				<polygon class="st13" points="121.6,175.1 121,173.3 120.1,173.6 				"/>
				<polygon class="st13" points="121.6,175.1 120.1,174 120.6,173.2 				"/>
				<polygon class="st13" points="119.4,175.1 120.9,174 120.4,173.2 				"/>
				<polygon class="st13" points="119.4,175.1 120,173.3 120.9,173.6 				"/>
				<polygon class="st13" points="166.7,131 165.9,133.2 167,133.6 				"/>
				<polygon class="st13" points="166.7,131 167.4,133.2 166.3,133.6 				"/>
				<polygon class="st13" points="168.8,132.6 166.5,132.6 166.5,133.8 				"/>
				<polygon class="st13" points="168.8,132.6 167,134 166.3,133.1 				"/>
				<polygon class="st13" points="164.5,132.6 166.3,134 167,133.1 				"/>
				<polygon class="st13" points="164.5,132.6 166.8,132.6 166.8,133.8 				"/>
				<polygon class="st13" points="168,135.2 167.3,133 166.2,133.4 				"/>
				<polygon class="st13" points="168,135.2 166.1,133.9 166.8,132.9 				"/>
				<polygon class="st13" points="165.3,135.2 167.2,133.9 166.5,132.9 				"/>
				<polygon class="st13" points="165.3,135.2 166,133 167.1,133.4 				"/>
				<polygon class="st13" points="187.6,166.5 186.9,168.7 188,169.1 				"/>
				<polygon class="st13" points="187.6,166.5 188.3,168.7 187.2,169.1 				"/>
				<polygon class="st13" points="189.8,168.1 187.5,168.1 187.5,169.3 				"/>
				<polygon class="st13" points="189.8,168.1 187.9,169.5 187.3,168.5 				"/>
				<polygon class="st13" points="185.4,168.1 187.3,169.5 188,168.5 				"/>
				<polygon class="st13" points="185.4,168.1 187.7,168.1 187.7,169.3 				"/>
				<polygon class="st13" points="189,170.7 188.2,168.5 187.2,168.9 				"/>
				<polygon class="st13" points="189,170.7 187.1,169.3 187.8,168.4 				"/>
				<polygon class="st13" points="186.3,170.7 188.1,169.3 187.4,168.4 				"/>
				<polygon class="st13" points="186.3,170.7 187,168.5 188.1,168.9 				"/>
				<polygon class="st13" points="195.1,167.8 194.6,169.3 195.3,169.5 				"/>
				<polygon class="st13" points="195.1,167.8 195.5,169.3 194.8,169.5 				"/>
				<polygon class="st13" points="196.5,168.9 195,168.9 195,169.6 				"/>
				<polygon class="st13" points="196.5,168.9 195.3,169.8 194.8,169.2 				"/>
				<polygon class="st13" points="193.6,168.9 194.8,169.8 195.3,169.2 				"/>
				<polygon class="st13" points="193.6,168.9 195.1,168.9 195.1,169.6 				"/>
				<polygon class="st13" points="196,170.6 195.5,169.1 194.8,169.4 				"/>
				<polygon class="st13" points="196,170.6 194.7,169.7 195.2,169.1 				"/>
				<polygon class="st13" points="194.2,170.6 195.4,169.7 194.9,169.1 				"/>
				<polygon class="st13" points="194.2,170.6 194.6,169.1 195.4,169.4 				"/>
				<polygon class="st13" points="189.8,171.7 189.2,173.5 190.1,173.8 				"/>
				<polygon class="st13" points="189.8,171.7 190.4,173.5 189.5,173.8 				"/>
				<polygon class="st13" points="191.6,173 189.7,173 189.7,173.9 				"/>
				<polygon class="st13" points="191.6,173 190.1,174.1 189.5,173.3 				"/>
				<polygon class="st13" points="188,173 189.5,174.1 190.1,173.3 				"/>
				<polygon class="st13" points="188,173 189.9,173 189.9,173.9 				"/>
				<polygon class="st13" points="190.9,175.1 190.3,173.3 189.4,173.6 				"/>
				<polygon class="st13" points="190.9,175.1 189.4,174 189.9,173.2 				"/>
				<polygon class="st13" points="188.7,175.1 190.2,174 189.7,173.2 				"/>
				<polygon class="st13" points="188.7,175.1 189.3,173.3 190.2,173.6 				"/>
				<polygon class="st13" points="176.9,182.9 176.3,184.7 177.2,185 				"/>
				<polygon class="st13" points="176.9,182.9 177.5,184.7 176.6,185 				"/>
				<polygon class="st13" points="178.7,184.2 176.8,184.2 176.8,185.2 				"/>
				<polygon class="st13" points="178.7,184.2 177.2,185.4 176.6,184.6 				"/>
				<polygon class="st13" points="175.1,184.2 176.6,185.4 177.2,184.6 				"/>
				<polygon class="st13" points="175.1,184.2 177,184.2 177,185.2 				"/>
				<polygon class="st13" points="178,186.4 177.4,184.6 176.5,184.8 				"/>
				<polygon class="st13" points="178,186.4 176.4,185.2 177,184.5 				"/>
				<polygon class="st13" points="175.7,186.4 177.3,185.2 176.7,184.5 				"/>
				<polygon class="st13" points="175.7,186.4 176.3,184.6 177.2,184.8 				"/>
				<polygon class="st13" points="176.8,188.7 176.3,190.2 177.1,190.4 				"/>
				<polygon class="st13" points="176.8,188.7 177.3,190.2 176.5,190.4 				"/>
				<polygon class="st13" points="178.3,189.8 176.7,189.8 176.7,190.5 				"/>
				<polygon class="st13" points="178.3,189.8 177,190.7 176.6,190 				"/>
				<polygon class="st13" points="175.3,189.8 176.6,190.7 177,190 				"/>
				<polygon class="st13" points="175.3,189.8 176.9,189.8 176.9,190.5 				"/>
				<polygon class="st13" points="177.7,191.5 177.2,190 176.5,190.2 				"/>
				<polygon class="st13" points="177.7,191.5 176.5,190.6 176.9,189.9 				"/>
				<polygon class="st13" points="175.9,191.5 177.1,190.6 176.7,189.9 				"/>
				<polygon class="st13" points="175.9,191.5 176.4,190 177.1,190.2 				"/>
				<polygon class="st13" points="182.2,179.1 181.7,180.5 182.5,180.8 				"/>
				<polygon class="st13" points="182.2,179.1 182.7,180.5 181.9,180.8 				"/>
				<polygon class="st13" points="183.7,180.1 182.1,180.1 182.1,180.9 				"/>
				<polygon class="st13" points="183.7,180.1 182.4,181 182,180.4 				"/>
				<polygon class="st13" points="180.7,180.1 182,181 182.4,180.4 				"/>
				<polygon class="st13" points="180.7,180.1 182.3,180.1 182.3,180.9 				"/>
				<polygon class="st13" points="183.1,181.8 182.6,180.4 181.9,180.6 				"/>
				<polygon class="st13" points="183.1,181.8 181.9,180.9 182.3,180.3 				"/>
				<polygon class="st13" points="181.3,181.8 182.5,180.9 182.1,180.3 				"/>
				<polygon class="st13" points="181.3,181.8 181.8,180.4 182.5,180.6 				"/>
				<polygon class="st13" points="186.5,176 185.9,177.8 186.8,178.1 				"/>
				<polygon class="st13" points="186.5,176 187.1,177.8 186.2,178.1 				"/>
				<polygon class="st13" points="188.3,177.3 186.4,177.3 186.4,178.3 				"/>
				<polygon class="st13" points="188.3,177.3 186.8,178.4 186.2,177.7 				"/>
				<polygon class="st13" points="184.7,177.3 186.2,178.4 186.8,177.7 				"/>
				<polygon class="st13" points="184.7,177.3 186.6,177.3 186.6,178.3 				"/>
				<polygon class="st13" points="187.6,179.4 187,177.6 186.1,177.9 				"/>
				<polygon class="st13" points="187.6,179.4 186.1,178.3 186.7,177.5 				"/>
				<polygon class="st13" points="185.4,179.4 186.9,178.3 186.4,177.5 				"/>
				<polygon class="st13" points="185.4,179.4 186,177.6 186.9,177.9 				"/>
				<polygon class="st13" points="176.7,178 176.2,179.5 176.9,179.7 				"/>
				<polygon class="st13" points="176.7,178 177.1,179.5 176.4,179.7 				"/>
				<polygon class="st13" points="178.1,179.1 176.6,179.1 176.6,179.9 				"/>
				<polygon class="st13" points="178.1,179.1 176.9,180 176.4,179.4 				"/>
				<polygon class="st13" points="175.2,179.1 176.4,180 176.9,179.4 				"/>
				<polygon class="st13" points="175.2,179.1 176.7,179.1 176.7,179.9 				"/>
				<polygon class="st13" points="177.6,180.8 177.1,179.4 176.3,179.6 				"/>
				<polygon class="st13" points="177.6,180.8 176.3,179.9 176.8,179.3 				"/>
				<polygon class="st13" points="175.8,180.8 177,179.9 176.5,179.3 				"/>
				<polygon class="st13" points="175.8,180.8 176.2,179.4 177,179.6 				"/>
				<polygon class="st13" points="129.6,150.3 129,152.1 129.9,152.4 				"/>
				<polygon class="st13" points="129.6,150.3 130.2,152.1 129.2,152.4 				"/>
				<polygon class="st13" points="131.4,151.6 129.5,151.6 129.5,152.5 				"/>
				<polygon class="st13" points="131.4,151.6 129.8,152.7 129.3,151.9 				"/>
				<polygon class="st13" points="127.7,151.6 129.3,152.7 129.8,151.9 				"/>
				<polygon class="st13" points="127.7,151.6 129.7,151.6 129.7,152.5 				"/>
				<polygon class="st13" points="130.7,153.7 130.1,151.9 129.2,152.2 				"/>
				<polygon class="st13" points="130.7,153.7 129.1,152.6 129.7,151.8 				"/>
				<polygon class="st13" points="128.4,153.7 130,152.6 129.4,151.8 				"/>
				<polygon class="st13" points="128.4,153.7 129,151.9 129.9,152.2 				"/>
				<polygon class="st13" points="164.6,145.8 164.1,147.2 164.9,147.5 				"/>
				<polygon class="st13" points="164.6,145.8 165.1,147.2 164.4,147.5 				"/>
				<polygon class="st13" points="166.1,146.8 164.5,146.8 164.5,147.6 				"/>
				<polygon class="st13" points="166.1,146.8 164.8,147.7 164.4,147.1 				"/>
				<polygon class="st13" points="163.2,146.8 164.4,147.7 164.8,147.1 				"/>
				<polygon class="st13" points="163.2,146.8 164.7,146.8 164.7,147.6 				"/>
				<polygon class="st13" points="165.5,148.5 165,147.1 164.3,147.3 				"/>
				<polygon class="st13" points="165.5,148.5 164.3,147.6 164.7,147 				"/>
				<polygon class="st13" points="163.7,148.5 165,147.6 164.5,147 				"/>
				<polygon class="st13" points="163.7,148.5 164.2,147.1 164.9,147.3 				"/>
				<polygon class="st13" points="150,171.8 149.3,174 150.4,174.3 				"/>
				<polygon class="st13" points="150,171.8 150.7,174 149.6,174.3 				"/>
				<polygon class="st13" points="152.2,173.4 149.9,173.4 149.9,174.5 				"/>
				<polygon class="st13" points="152.2,173.4 150.3,174.7 149.7,173.8 				"/>
				<polygon class="st13" points="147.8,173.4 149.7,174.7 150.4,173.8 				"/>
				<polygon class="st13" points="147.8,173.4 150.1,173.4 150.1,174.5 				"/>
				<polygon class="st13" points="151.4,175.9 150.6,173.8 149.5,174.1 				"/>
				<polygon class="st13" points="151.4,175.9 149.5,174.6 150.2,173.7 				"/>
				<polygon class="st13" points="148.6,175.9 150.5,174.6 149.8,173.7 				"/>
				<polygon class="st13" points="148.6,175.9 149.4,173.8 150.5,174.1 				"/>
				<polygon class="st13" points="156.2,161.5 155.6,163.3 156.5,163.6 				"/>
				<polygon class="st13" points="156.2,161.5 156.8,163.3 155.9,163.6 				"/>
				<polygon class="st13" points="158,162.8 156.1,162.8 156.1,163.8 				"/>
				<polygon class="st13" points="158,162.8 156.5,164 155.9,163.2 				"/>
				<polygon class="st13" points="154.4,162.8 155.9,164 156.5,163.2 				"/>
				<polygon class="st13" points="154.4,162.8 156.3,162.8 156.3,163.8 				"/>
				<polygon class="st13" points="157.3,165 156.7,163.2 155.8,163.5 				"/>
				<polygon class="st13" points="157.3,165 155.8,163.9 156.3,163.1 				"/>
				<polygon class="st13" points="155.1,165 156.6,163.9 156.1,163.1 				"/>
				<polygon class="st13" points="155.1,165 155.7,163.2 156.6,163.5 				"/>
				<polygon class="st13" points="150,156.7 149.4,158.5 150.3,158.8 				"/>
				<polygon class="st13" points="150,156.7 150.6,158.5 149.7,158.8 				"/>
				<polygon class="st13" points="151.8,158 149.9,158 149.9,159 				"/>
				<polygon class="st13" points="151.8,158 150.3,159.1 149.7,158.4 				"/>
				<polygon class="st13" points="148.2,158 149.7,159.1 150.3,158.4 				"/>
				<polygon class="st13" points="148.2,158 150.1,158 150.1,159 				"/>
				<polygon class="st13" points="151.1,160.2 150.5,158.3 149.6,158.6 				"/>
				<polygon class="st13" points="151.1,160.2 149.6,159 150.1,158.3 				"/>
				<polygon class="st13" points="148.9,160.2 150.4,159 149.9,158.3 				"/>
				<polygon class="st13" points="148.9,160.2 149.5,158.3 150.4,158.6 				"/>
				<polygon class="st13" points="144.6,161.9 144.1,163.4 144.9,163.6 				"/>
				<polygon class="st13" points="144.6,161.9 145.1,163.4 144.3,163.6 				"/>
				<polygon class="st13" points="146.1,163 144.5,163 144.5,163.7 				"/>
				<polygon class="st13" points="146.1,163 144.8,163.9 144.4,163.2 				"/>
				<polygon class="st13" points="143.1,163 144.4,163.9 144.8,163.2 				"/>
				<polygon class="st13" points="143.1,163 144.7,163 144.7,163.7 				"/>
				<polygon class="st13" points="145.5,164.7 145,163.2 144.3,163.4 				"/>
				<polygon class="st13" points="145.5,164.7 144.3,163.8 144.7,163.2 				"/>
				<polygon class="st13" points="143.7,164.7 144.9,163.8 144.5,163.2 				"/>
				<polygon class="st13" points="143.7,164.7 144.2,163.2 144.9,163.4 				"/>
				<polygon class="st13" points="147.3,166.1 147,167.1 147.5,167.3 				"/>
				<polygon class="st13" points="147.3,166.1 147.6,167.1 147.1,167.3 				"/>
				<polygon class="st13" points="148.3,166.8 147.2,166.8 147.2,167.4 				"/>
				<polygon class="st13" points="148.3,166.8 147.5,167.5 147.1,167 				"/>
				<polygon class="st13" points="146.3,166.8 147.1,167.5 147.5,167 				"/>
				<polygon class="st13" points="146.3,166.8 147.4,166.8 147.4,167.4 				"/>
				<polygon class="st13" points="147.9,168 147.6,167 147.1,167.2 				"/>
				<polygon class="st13" points="147.9,168 147.1,167.4 147.4,167 				"/>
				<polygon class="st13" points="146.7,168 147.5,167.4 147.2,167 				"/>
				<polygon class="st13" points="146.7,168 147,167 147.5,167.2 				"/>
				<polygon class="st13" points="166.1,184.2 165.5,186 166.4,186.3 				"/>
				<polygon class="st13" points="166.1,184.2 166.7,186 165.7,186.3 				"/>
				<polygon class="st13" points="167.9,185.5 166,185.5 166,186.5 				"/>
				<polygon class="st13" points="167.9,185.5 166.3,186.7 165.8,185.9 				"/>
				<polygon class="st13" points="164.2,185.5 165.8,186.7 166.4,185.9 				"/>
				<polygon class="st13" points="164.2,185.5 166.2,185.5 166.2,186.5 				"/>
				<polygon class="st13" points="167.2,187.7 166.6,185.9 165.7,186.2 				"/>
				<polygon class="st13" points="167.2,187.7 165.6,186.6 166.2,185.8 				"/>
				<polygon class="st13" points="164.9,187.7 166.5,186.6 165.9,185.8 				"/>
				<polygon class="st13" points="164.9,187.7 165.5,185.9 166.4,186.2 				"/>
				<polygon class="st13" points="170.7,179.9 170.2,181.3 170.9,181.6 				"/>
				<polygon class="st13" points="170.7,179.9 171.1,181.3 170.4,181.6 				"/>
				<polygon class="st13" points="172.1,180.9 170.6,180.9 170.6,181.7 				"/>
				<polygon class="st13" points="172.1,180.9 170.9,181.8 170.4,181.2 				"/>
				<polygon class="st13" points="169.2,180.9 170.4,181.8 170.9,181.2 				"/>
				<polygon class="st13" points="169.2,180.9 170.7,180.9 170.7,181.7 				"/>
				<polygon class="st13" points="171.6,182.6 171.1,181.2 170.4,181.4 				"/>
				<polygon class="st13" points="171.6,182.6 170.3,181.7 170.8,181.1 				"/>
				<polygon class="st13" points="169.8,182.6 171,181.7 170.6,181.1 				"/>
				<polygon class="st13" points="169.8,182.6 170.2,181.2 171,181.4 				"/>
				<polygon class="st13" points="161.8,178.5 161.4,180 162.1,180.2 				"/>
				<polygon class="st13" points="161.8,178.5 162.3,180 161.6,180.2 				"/>
				<polygon class="st13" points="163.3,179.6 161.8,179.6 161.8,180.4 				"/>
				<polygon class="st13" points="163.3,179.6 162,180.5 161.6,179.9 				"/>
				<polygon class="st13" points="160.4,179.6 161.6,180.5 162.1,179.9 				"/>
				<polygon class="st13" points="160.4,179.6 161.9,179.6 161.9,180.4 				"/>
				<polygon class="st13" points="162.7,181.3 162.3,179.9 161.5,180.1 				"/>
				<polygon class="st13" points="162.7,181.3 161.5,180.4 161.9,179.8 				"/>
				<polygon class="st13" points="160.9,181.3 162.2,180.4 161.7,179.8 				"/>
				<polygon class="st13" points="160.9,181.3 161.4,179.9 162.1,180.1 				"/>
				<polygon class="st13" points="128.5,176.2 127.8,178.4 128.9,178.7 				"/>
				<polygon class="st13" points="128.5,176.2 129.2,178.4 128.1,178.7 				"/>
				<polygon class="st13" points="130.7,177.8 128.4,177.8 128.4,178.9 				"/>
				<polygon class="st13" points="130.7,177.8 128.8,179.1 128.1,178.2 				"/>
				<polygon class="st13" points="126.3,177.8 128.1,179.1 128.8,178.2 				"/>
				<polygon class="st13" points="126.3,177.8 128.6,177.8 128.6,178.9 				"/>
				<polygon class="st13" points="129.8,180.3 129.1,178.1 128,178.5 				"/>
				<polygon class="st13" points="129.8,180.3 128,179 128.6,178 				"/>
				<polygon class="st13" points="127.1,180.3 129,179 128.3,178 				"/>
				<polygon class="st13" points="127.1,180.3 127.8,178.1 128.9,178.5 				"/>
				<polygon class="st13" points="150,191.2 149.8,191.9 150.1,192.1 				"/>
				<polygon class="st13" points="150,191.2 150.2,191.9 149.9,192.1 				"/>
				<polygon class="st13" points="150.7,191.7 150,191.7 150,192.1 				"/>
				<polygon class="st13" points="150.7,191.7 150.1,192.2 149.9,191.9 				"/>
				<polygon class="st13" points="149.3,191.7 149.9,192.2 150.1,191.9 				"/>
				<polygon class="st13" points="149.3,191.7 150,191.7 150,192.1 				"/>
				<polygon class="st13" points="150.4,192.6 150.2,191.9 149.9,192 				"/>
				<polygon class="st13" points="150.4,192.6 149.8,192.1 150.1,191.8 				"/>
				<polygon class="st13" points="149.6,192.6 150.2,192.1 150,191.8 				"/>
				<polygon class="st13" points="149.6,192.6 149.8,191.9 150.2,192 				"/>
			</g>
		</g>
	</g>
	<g class="st0">
		<g>
			<defs>
				<rect id="SVGID_11_" x="-0.2" y="-0.8" width="517.2" height="301.7"/>
			</defs>
			<clipPath id="SVGID_12_">
				<use xlink:href="#SVGID_11_"  style="overflow:visible;"/>
			</clipPath>
			<rect x="204.7" y="-0.8" class="st16" width="312.3" height="30.2"/>
			<rect x="204.7" y="67.1" class="st16" width="312.3" height="30.2"/>
			<rect x="-0.2" y="135" class="st16" width="517.2" height="30.2"/>
			<rect x="-0.2" y="202.9" class="st16" width="517.2" height="30.2"/>
			<rect x="-0.2" y="270.8" class="st16" width="517.2" height="30.2"/>
			<rect x="204.7" y="29.4" class="st17" width="312.3" height="37.7"/>
			<rect x="204.7" y="97.3" class="st17" width="312.3" height="37.7"/>
			<rect x="-0.2" y="165.2" class="st17" width="517.2" height="37.7"/>
			<rect x="-0.2" y="233.1" class="st17" width="517.2" height="37.7"/>
			<rect x="-0.2" y="-0.8" class="st17" width="204.9" height="135.8"/>
			<polygon class="st16" points="153.5,56.6 158,53.5 165.5,56.6 158,59.6 			"/>
			<polygon class="st16" points="153.5,56.6 148.9,59.6 141.4,56.6 148.9,53.5 			"/>
			<polygon class="st16" points="153.5,56.6 150.4,52 153.5,44.5 156.5,52 			"/>
			<polygon class="st16" points="153.5,91.2 150.4,85.2 139.9,89.7 153.5,56.6 167,89.7 156.5,85.2 			"/>
			<polygon class="st16" points="179.1,97.3 183.6,94.3 191.1,97.3 183.6,100.3 			"/>
			<polygon class="st16" points="179.1,97.3 174.5,100.3 167,97.3 174.5,94.3 			"/>
			<polygon class="st16" points="179.1,97.3 176.1,92.8 179.1,85.2 182.1,92.8 			"/>
			<polygon class="st16" points="179.1,132 176.1,125.9 165.5,130.5 179.1,97.3 192.6,130.5 182.1,125.9 			"/>
			<polygon class="st16" points="127.8,97.3 132.4,94.3 139.9,97.3 132.4,100.3 			"/>
			<polygon class="st16" points="127.8,97.3 123.3,100.3 115.8,97.3 123.3,94.3 			"/>
			<polygon class="st16" points="127.8,97.3 124.8,92.8 127.8,85.2 130.9,92.8 			"/>
			<polygon class="st16" points="127.8,132 124.8,125.9 114.3,130.5 127.8,97.3 141.4,130.5 130.9,125.9 			"/>
			<polygon class="st16" points="179.1,12.8 183.6,9.8 191.1,12.8 183.6,15.8 			"/>
			<polygon class="st16" points="179.1,12.8 174.5,15.8 167,12.8 174.5,9.8 			"/>
			<polygon class="st16" points="179.1,12.8 176.1,8.3 179.1,0.7 182.1,8.3 			"/>
			<polygon class="st16" points="179.1,47.5 176.1,41.5 165.5,46 179.1,12.8 192.6,46 182.1,41.5 			"/>
			<polygon class="st16" points="129.4,13.6 133.9,10.6 141.4,13.6 133.9,16.6 			"/>
			<polygon class="st16" points="129.4,13.6 124.8,16.6 117.3,13.6 124.8,10.6 			"/>
			<polygon class="st16" points="129.4,13.6 126.3,9.1 129.4,1.5 132.4,9.1 			"/>
			<polygon class="st16" points="129.4,48.3 126.3,42.3 115.8,46.8 129.4,13.6 142.9,46.8 132.4,42.3 			"/>
			<polygon class="st16" points="102.2,56.6 106.7,53.5 114.3,56.6 106.7,59.6 			"/>
			<polygon class="st16" points="102.2,56.6 97.7,59.6 90.2,56.6 97.7,53.5 			"/>
			<polygon class="st16" points="102.2,56.6 99.2,52 102.2,44.5 105.2,52 			"/>
			<polygon class="st16" points="102.2,91.2 99.2,85.2 88.7,89.7 102.2,56.6 115.8,89.7 105.2,85.2 			"/>
			<polygon class="st16" points="76.6,12.8 81.1,9.8 88.7,12.8 81.1,15.8 			"/>
			<polygon class="st16" points="76.6,12.8 72.1,15.8 64.6,12.8 72.1,9.8 			"/>
			<polygon class="st16" points="76.6,12.8 73.6,8.3 76.6,0.7 79.6,8.3 			"/>
			<polygon class="st16" points="76.6,47.5 73.6,41.5 63.1,46 76.6,12.8 90.2,46 79.6,41.5 			"/>
			<polygon class="st16" points="76.6,97.3 81.1,94.3 88.7,97.3 81.1,100.3 			"/>
			<polygon class="st16" points="76.6,97.3 72.1,100.3 64.6,97.3 72.1,94.3 			"/>
			<polygon class="st16" points="76.6,97.3 73.6,92.8 76.6,85.2 79.6,92.8 			"/>
			<polygon class="st16" points="76.6,132 73.6,125.9 63.1,130.5 76.6,97.3 90.2,130.5 79.6,125.9 			"/>
			<polygon class="st16" points="51,56.6 55.5,53.5 63.1,56.6 55.5,59.6 			"/>
			<polygon class="st16" points="51,56.6 46.5,59.6 38.9,56.6 46.5,53.5 			"/>
			<polygon class="st16" points="51,56.6 48,52 51,44.5 54,52 			"/>
			<polygon class="st16" points="51,91.2 48,85.2 37.4,89.7 51,56.6 64.6,89.7 54,85.2 			"/>
			<polygon class="st16" points="25.4,12.8 29.9,9.8 37.4,12.8 29.9,15.8 			"/>
			<polygon class="st16" points="25.4,12.8 20.9,15.8 13.3,12.8 20.9,9.8 			"/>
			<polygon class="st16" points="25.4,12.8 22.4,8.3 25.4,0.7 28.4,8.3 			"/>
			<polygon class="st16" points="25.4,47.5 22.4,41.5 11.8,46 25.4,12.8 38.9,46 28.4,41.5 			"/>
			<polygon class="st16" points="25.4,97.3 29.9,94.3 37.4,97.3 29.9,100.3 			"/>
			<polygon class="st16" points="25.4,97.3 20.9,100.3 13.3,97.3 20.9,94.3 			"/>
			<polygon class="st16" points="25.4,97.3 22.4,92.8 25.4,85.2 28.4,92.8 			"/>
			<polygon class="st16" points="25.4,132 22.4,125.9 11.8,130.5 25.4,97.3 38.9,130.5 28.4,125.9 			"/>
		</g>
	</g>
</g>
</svg>
