<?xml version="1.0" encoding="utf-8"?>
<!-- Generator: Adobe Illustrator 22.1.0, SVG Export Plug-In . SVG Version: 6.00 Build 0)  -->
<svg version="1.1" id="Layer_1" xmlns="http://www.w3.org/2000/svg" xmlns:xlink="http://www.w3.org/1999/xlink" x="0px" y="0px"
	 viewBox="0 0 300 300" style="enable-background:new 0 0 300 300;" xml:space="preserve">
<style type="text/css">
	.st0{clip-path:url(#SVGID_2_);}
	.st1{clip-path:url(#SVGID_4_);fill:#378911;}
	.st2{clip-path:url(#SVGID_4_);fill:#FFFFFF;}
	.st3{clip-path:url(#SVGID_4_);fill:#D9002E;}
	.st4{clip-path:url(#SVGID_4_);}
	.st5{clip-path:url(#SVGID_6_);fill:#FFFFFF;}
	.st6{clip-path:url(#SVGID_6_);}
	.st7{fill:#D9002E;}
	.st8{clip-path:url(#SVGID_2_);fill:#F0E030;}
	.st9{clip-path:url(#SVGID_8_);}
	.st10{clip-path:url(#SVGID_10_);fill:#F0E030;}
	.st11{clip-path:url(#SVGID_10_);fill:#FFFFFF;}
	.st12{clip-path:url(#SVGID_10_);}
	.st13{clip-path:url(#SVGID_10_);fill:#BD0030;}
	.st14{clip-path:url(#SVGID_12_);fill:#BD0030;}
	.st15{clip-path:url(#SVGID_12_);}
	.st16{clip-path:url(#SVGID_14_);fill:#BD0030;}
	.st17{clip-path:url(#SVGID_14_);}
	.st18{clip-path:url(#SVGID_16_);fill:#BD0030;}
	.st19{clip-path:url(#SVGID_16_);}
	.st20{clip-path:url(#SVGID_12_);fill:#F4D02E;}
	.st21{fill:#BD0030;}
	.st22{fill:#BB4B4B;}
	.st23{fill:none;}
	.st24{clip-path:url(#SVGID_18_);fill:#FFFFFF;}
	.st25{clip-path:url(#SVGID_18_);fill:#58B44D;}
	.st26{clip-path:url(#SVGID_18_);fill:#C41A24;}
	.st27{clip-path:url(#SVGID_20_);fill:#DC1C37;}
	.st28{clip-path:url(#SVGID_20_);fill:#419E4B;}
	.st29{clip-path:url(#SVGID_20_);fill:#F3D02F;}
	.st30{clip-path:url(#SVGID_22_);fill:#BC0030;}
	.st31{clip-path:url(#SVGID_22_);fill:#50B63F;}
	.st32{clip-path:url(#SVGID_22_);}
	.st33{clip-path:url(#SVGID_24_);fill:#FFFFFF;}
	.st34{clip-path:url(#SVGID_24_);fill:#50B63F;}
	.st35{clip-path:url(#SVGID_24_);fill:#BC0030;}
</style>
<g>
	<defs>
		<rect id="SVGID_1_" width="300" height="300"/>
	</defs>
	<clipPath id="SVGID_2_">
		<use xlink:href="#SVGID_1_"  style="overflow:visible;"/>
	</clipPath>
	<g class="st0">
		<g>
			<defs>
				<rect id="SVGID_3_" x="-20" width="515.7" height="300.8"/>
			</defs>
			<clipPath id="SVGID_4_">
				<use xlink:href="#SVGID_3_"  style="overflow:visible;"/>
			</clipPath>
			<rect x="-20" class="st1" width="515.7" height="300.8"/>
			<rect x="-20" y="43" class="st2" width="515.7" height="43"/>
			<rect x="-20" y="128.9" class="st2" width="515.7" height="43"/>
			<rect x="-20" y="214.8" class="st2" width="515.7" height="43"/>
			<rect x="-20" class="st3" width="228.6" height="128.9"/>
			<polygon class="st2" points="98.9,21 101.9,29.8 94.4,24.2 86.8,29.8 89.9,21 82.2,15.5 91.6,15.7 94.4,6.8 97.1,15.7 
				106.6,15.5 			"/>
			<polygon class="st2" points="167.5,83.5 170.5,92.4 163,86.8 155.4,92.4 158.5,83.5 150.8,78.1 160.2,78.3 163,69.3 165.7,78.3 
				175.2,78.1 			"/>
			<polygon class="st2" points="30.2,83.5 33.3,92.4 25.7,86.8 18.2,92.4 21.3,83.5 13.5,78.1 22.9,78.3 25.7,69.3 28.5,78.3 
				38,78.1 			"/>
			<polygon class="st2" points="65.1,30.6 68.2,39.4 60.6,33.8 53,39.4 56.1,30.5 48.4,25.2 57.8,25.3 60.6,16.4 63.3,25.4 
				72.9,25.2 			"/>
			<polygon class="st2" points="132.6,30.6 135.6,39.4 128,33.8 120.5,39.4 123.6,30.5 115.8,25.2 125.3,25.3 128,16.4 130.9,25.4 
				140.3,25.2 			"/>
			<polygon class="st2" points="156.9,55.4 159.9,64.3 152.3,58.7 144.7,64.3 147.8,55.4 140.1,50 149.5,50.2 152.3,41.2 155,50.2 
				164.6,50 			"/>
			<polygon class="st2" points="41.2,55.4 44.3,64.3 36.7,58.7 29.2,64.3 32.3,55.4 24.5,50 34,50.2 36.7,41.2 39.5,50.2 49,50 			
				"/>
			<g class="st4">
				<defs>
					<rect id="SVGID_5_" x="-20" width="515.7" height="300.8"/>
				</defs>
				<clipPath id="SVGID_6_">
					<use xlink:href="#SVGID_5_"  style="overflow:visible;"/>
				</clipPath>
				<path class="st5" d="M80.9,77.7c0,0-2,0.8-0.6,16.6c1.1,12.9,5.7,17.2,5.7,17.2l2,8l19.1,0.1c0,0,0.4-5,1.1-6.5
					c1.8-3.9,9-8.3,12.1-14.9c3.3-4.1,1.7-12.3,8.3-20.3c3.3-4-3.9-2.3-3.9-2.3c-3.9,2.6-5.9,5.7-6.9,7.8c-0.7,4.1-3.8,7.6-4.1,4.6
					c0,0-1.1-5.2-4.5-15.3c-0.3-3-1.8-13.3-2.1-21.2c-0.2-5.1-4.7-5.4-5.1-0.2l-0.5,20.6L100.6,48c-0.5-6.7-5.6-5.7-5.8-0.2
					l-0.2,24.8l-0.9-24.1c-1.4-4.6-5-1.9-5.1,3.1l-0.6,23.4c0,0-0.8-12.8-1-18.2c-0.2-3.3-4-3-4.3,1.6
					C82.1,65.3,81.3,70.8,80.9,77.7L80.9,77.7z"/>
				<g class="st6">
					<path class="st7" d="M107.4,119.8L88,119.7l-2.3-8.2c-0.1,0-4.6-4.3-5.7-17.2c-1.3-15.5,0.6-16.7,0.8-16.8
						c0.1-3.9,0.4-7.5,0.8-11.1c0.3-2.5,0.5-5.1,0.8-7.9c0.4-4.9,4.6-5.5,4.8-1.6c0.2,5.4,1,18.2,1,18.2l0.1-23.4
						c0-3.4,1.7-5.7,3.2-5.7c0.6,0,1.7,0.3,2.3,2.5l0.9,24.1l-0.3-24.8c0.1-3.2,1.7-4.8,3.2-4.8c1.3,0,2.8,1.3,3.1,4.9l1.1,23.9
						l0-20.6c0.4-5.7,5.4-5.5,5.6,0.2c0.3,6.3,1.2,14.3,1.8,18.5l0.3,2.6c3.3,9.9,4.5,15.2,4.5,15.2c0,0.4,0.1,0.9,0.5,0.9
						c0.8,0,2.6-2.5,3.1-5.5c1.5-3.3,3.8-5.9,7-8c0.1-0.1,1.6-0.4,3-0.4c1.2,0,1.8,0.3,2.1,0.8c0.3,0.5,0,1.3-0.8,2.3
						c-3.9,4.6-4.9,9.5-5.8,13.4c-0.6,2.8-1.1,5.2-2.6,7c-1.7,3.8-4.8,6.8-7.5,9.5c-2,2-3.8,3.7-4.5,5.4c-0.7,1.5-1.1,6.4-1.1,6.5
						L107.4,119.8L107.4,119.8z M85.2,55c-1,0-2.2,1.1-2.3,3.6c-0.2,2.8-0.5,5.3-0.8,7.9c-0.4,3.6-0.7,7.2-1,11.3
						c-0.2,0.3-1.9,1.6-0.6,16.5c1.1,12.7,5.6,17,5.6,17l2.1,8.1l18.6-0.1c0.1-1,0.4-5,1.1-6.4c0.8-1.7,2.6-3.5,4.6-5.5
						c2.7-2.7,5.7-5.7,7.5-9.4c1.4-1.7,1.9-4.1,2.5-6.8c0.9-3.9,1.9-8.8,5.9-13.6c0.6-0.8,0.9-1.4,0.8-1.7c-0.4-0.8-4.4-0.2-4.4-0.1
						c-3,2-5.2,4.6-6.7,7.7c-0.5,2.9-2.3,5.9-3.6,5.9c-0.3,0-0.9-0.2-1-1.4c0,0-1.2-5.3-4.5-15.2l-0.3-2.7
						c-0.5-4.3-1.5-12.3-1.8-18.6c-0.2-5-4.2-5.2-4.6-0.2l-0.5,20.6L100.3,48c-0.5-7.1-5.1-5.4-5.3-0.2l-0.2,24.8l-1.4-24.1
						c-0.4-1.3-1.1-2.1-1.8-2.1c-1.3,0-2.7,2.1-2.7,5.2l-0.6,23.4l0,0c-0.5,0-1.3-12.8-1.5-18.2C86.7,55.7,86.1,55,85.2,55L85.2,55z
						"/>
				</g>
			</g>
		</g>
	</g>
	<rect x="0" class="st8" width="300" height="300"/>
	<g class="st0">
		<g>
			<defs>
				<rect id="SVGID_7_" x="-63.8" y="25.3" width="427.6" height="249.5"/>
			</defs>
			<clipPath id="SVGID_8_">
				<use xlink:href="#SVGID_7_"  style="overflow:visible;"/>
			</clipPath>
			<g class="st9">
				<defs>
					<rect id="SVGID_9_" x="-63.8" y="25.3" width="427.6" height="249.5"/>
				</defs>
				<clipPath id="SVGID_10_">
					<use xlink:href="#SVGID_9_"  style="overflow:visible;"/>
				</clipPath>
				<rect x="-63.8" y="25.3" class="st10" width="427.6" height="249.5"/>
				<polygon class="st11" points="-63.8,101.5 363.8,205.4 363.8,146.5 -63.8,42.6 				"/>
				<polygon class="st12" points="-63.8,153.5 363.8,257.4 363.8,205.4 -63.8,101.5 				"/>
				<rect x="147.5" y="129.2" class="st13" width="4.5" height="12"/>
				<g class="st12">
					<path d="M152.4,141.5h-5.3v-12.8h5.3V141.5L152.4,141.5z M147.9,140.8h3.7v-11.2h-3.7V140.8L147.9,140.8z"/>
				</g>
				<g class="st12">
					<defs>
						<rect id="SVGID_11_" x="-63.8" y="25.3" width="427.6" height="249.5"/>
					</defs>
					<clipPath id="SVGID_12_">
						<use xlink:href="#SVGID_11_"  style="overflow:visible;"/>
					</clipPath>
					<path class="st14" d="M156.5,160.8c0-8.2,0.2-16.1,0.8-18.4c0.6-2.2,1.4-2.7,2.4-3.8c-2.5-0.3-5.2,2.1-6.4,5.3
						c-0.8-3.5-2.3-5.9-3.6-7.1c-1.3,1.2-2.9,3.6-3.6,7.2c-1.3-2.6-3.5-5.5-6.2-5.2c1,1.1,1.8,1.6,2.4,3.7
						c0.6,2.2,0.9,10.1,0.7,18.3L156.5,160.8z"/>
					<g class="st15">
						<path d="M155.7,160.8c0-7.4,0.2-16,0.8-18.6c0.3-1,0.6-1.7,0.9-2.3c-1.4,0.8-2.7,2.3-3.4,4.2l-1,2.4l-0.6-2.5
							c-0.6-2.5-1.6-4.7-2.8-6.1c-0.8,0.9-2.1,2.9-2.8,6.2l-0.5,2.3l-1-2.1c-0.4-0.8-1.6-3.1-3.2-4.2c0.3,0.5,0.6,1.2,0.9,2.1
							c0.6,2.3,0.9,10.2,0.7,18.5l-1.6,0c0.2-8-0.1-15.9-0.6-18.1c-0.4-1.5-0.9-2-1.6-2.7c-0.2-0.2-0.5-0.5-0.7-0.7l-1-1.1l1.5-0.2
							c2.7-0.4,4.8,1.9,6,3.9c0.7-2.3,1.9-4.4,3.3-5.6l0.5-0.5l0.5,0.5c1.3,1.2,2.5,3.2,3.3,5.5c1.6-2.5,4-4.1,6.3-3.9l1.6,0.2
							l-1.7,1.8c-0.7,0.7-1.3,1.3-1.7,2.9c-0.5,2.1-0.8,9.5-0.8,18.2L155.7,160.8L155.7,160.8z"/>
					</g>
					<path class="st14" d="M156.9,181.4c-0.1-9.9,0.3-18.3,0.9-21c0.5-2.7,1.4-3.2,2.6-4.3c-2.7-0.3-5.3,0.5-6.8,5.1
						c-0.8-4.3-2.5-6.4-3.9-7.8c-1.4,1.4-3.1,3.6-3.9,7.8c-1.6-4.5-3.9-5.6-6.9-5.2c1.2,1.3,2.2,1.7,2.8,4.4
						c0.6,2.6,0.7,11,0.4,20.9L156.9,181.4z"/>
					<g class="st15">
						<path d="M156.2,181.4c-0.1-9.6,0.3-18.3,0.9-21.1c0.4-1.9,0.9-2.8,1.6-3.5c-1.6,0.2-3.3,1.3-4.4,4.6l-0.8,2.5l-0.5-2.6
							c-0.7-3.6-2-5.5-3.2-6.9c-1.2,1.3-2.5,3.4-3.2,6.9l-0.5,2.6l-0.9-2.4c-1.3-3.5-2.9-4.6-4.6-4.8c0.7,0.8,1.4,1.7,1.8,3.6
							c0.7,3.3,0.6,14.6,0.5,21l-1.4,0c0.3-11,0.1-18.4-0.4-20.7c-0.4-2-1-2.5-1.9-3.4l-1.6-1.6l1.4-0.2c3.1-0.4,5.2,0.7,6.8,3.7
							c0.9-3.1,2.4-4.9,3.6-6.1l0.5-0.5l0.5,0.5c1.3,1.3,2.7,3,3.6,6.1c1.4-2.7,3.7-3.9,6.7-3.6l1.5,0.2l-1.5,1.4
							c-1,0.9-1.6,1.4-2,3.6c-0.6,2.7-0.9,11.3-0.8,20.8L156.2,181.4L156.2,181.4z"/>
					</g>
					<path class="st14" d="M159.6,186.9c-0.1-2.3,0.2-5.4,0.7-6.6c0.5-1.2,1.3-2.1,2-3.1c-3.2-0.5-6.4-0.2-8.1,4.4
						c-1.1-4.2-2.8-6.4-4.5-7.9c-1.8,1.4-3.4,3.6-4.5,7.9c-1.7-4.6-4.9-4.9-8.2-4.4c0.7,1,1.5,1.9,2,3.1c0.5,1.2,0.9,4.3,0.8,6.6
						H159.6z"/>
					<g class="st15">
						<path d="M140.6,186.9l-1.2-0.1c0.1-2.3-0.3-5.2-0.7-6.3c-0.4-0.9-0.9-1.6-1.5-2.3l-1.1-1.5l1-0.2c2.8-0.4,6.1-0.4,8.1,3.2
							c1-3,2.3-5.1,4.2-6.6l0.4-0.3l0.4,0.3c1.9,1.5,3.3,3.7,4.3,6.6c2-3.6,5.1-3.7,8-3.2l1,0.2l-1,1.4c-0.6,0.8-1.1,1.5-1.5,2.4
							c-0.5,1-0.8,4-0.7,6.3l-1.2,0.1c-0.1-2.2,0.2-5.5,0.8-6.9c0.4-0.9,0.9-1.6,1.4-2.3c-2.9-0.2-5,0.6-6.3,4.1l-0.7,1.9l-0.5-1.9
							c-1.1-4.2-2.7-6.1-3.9-7.2c-1.8,1.6-3,3.8-3.9,7.2l-0.5,1.9l-0.7-1.9c-1.4-3.8-3.9-4.4-6.4-4.1c0.5,0.7,1,1.4,1.5,2.3
							C140.4,181.4,140.7,184.7,140.6,186.9L140.6,186.9z"/>
					</g>
					<rect x="148.1" y="105.9" class="st14" width="3.3" height="9.5"/>
					<g class="st15">
						<path d="M152.1,116h-4.6v-10.7h4.6V116L152.1,116z M148.7,114.7h2.1v-8.2h-2.1V114.7L148.7,114.7z"/>
					</g>
					<g class="st15">
						<g>
							<defs>
								<rect id="SVGID_13_" x="91.3" y="194.2" width="117.3" height="29.8"/>
							</defs>
							<clipPath id="SVGID_14_">
								<use xlink:href="#SVGID_13_"  style="overflow:visible;"/>
							</clipPath>
							<path class="st16" d="M171.3,222.7c0.8,0.6,4.1,1.1,10.1,0.1c10.4-1.8,10.4-12.1,26.6-7.4c-0.7-1.5-3.3-6-9.6-6.2
								c0.6-2.1,1.1-5.2-0.1-7.2c-1.2,2.7-3.1,4-4.5,4.9c-0.4-0.2-2.9-2.2-3.2-5.3c-0.4-6-3.3-7.1-3.6-6.9
								c-1.9-0.1-13.2,17.8-37.4,18c-23.9,0.1-35.8-17.8-37.2-18c-0.3-0.2-3.2,0.9-3.6,6.9c-0.3,3-2.8,4.9-3.2,5.2
								c-1.4-0.8-3.2-2.1-4.5-4.8c-1.2,1.9-0.7,5.1-0.1,7.2c-6.4,0.2-8.9,4.7-9.6,6.2c16.3-4.8,16.3,5.5,26.7,7.4c6,1,9.1,0.6,9.9,0
								L171.3,222.7z"/>
							<g class="st17">
								<path d="M124.3,224.1c-1.6,0-3.7-0.2-6.2-0.6c-4.1-0.7-6.6-2.6-9-4.5c-3.9-3-7.6-5.8-17.4-2.9l-0.7-0.9
									c1.1-2.2,3.8-6,9.4-6.5c-0.4-1.7-0.9-4.8,0.4-6.9l1.1,0.1c1,2.3,2.5,3.5,3.9,4.3c0.7-0.6,2.4-2.2,2.6-4.5
									c0.3-5,2.3-6.7,3.2-7.2c0.4-0.2,0.9-0.4,1.3-0.2c0.2,0.1,0.6,0.4,2,1.8c4.3,4.4,15.6,16.1,34.7,16.1c0.1,0,0.2,0,0.2,0
									c18.6-0.1,29.6-10.9,34.3-15.6c1.7-1.7,2.4-2.4,3.1-2.4c0,0,0,0,0,0c0.1-0.1,0.6,0.1,1,0.3c0.9,0.5,2.9,2.2,3.2,7.2
									c0.2,2.3,1.8,4,2.5,4.6c1.2-0.8,2.9-2,3.9-4.4l1.1-0.1c1.3,2.1,0.8,5.3,0.4,6.9c5.6,0.5,8.3,4.2,9.4,6.5l-0.7,0.9
									c-9.8-2.9-13.5-0.1-17.3,2.9c-2.4,1.9-4.9,3.8-9,4.5c-6.4,1.1-9.7,0.4-10.6-0.2l0.7-1c0.6,0.4,3.9,1,9.6,0
									c3.8-0.7,6.1-2.5,8.4-4.3c3.7-2.9,7.6-5.8,17-3.5c-1.4-2-3.9-4.4-8.4-4.5l-0.6-0.8c0.5-1.7,0.8-3.9,0.4-5.5
									c-1.3,2.1-2.9,3.2-4.1,3.9l-0.6,0c-0.5-0.3-3.2-2.4-3.5-5.8c-0.3-5-2.4-6.3-2.9-6.4c-0.3,0.1-1.3,1.1-2.3,2
									c-4.8,4.7-16.1,15.8-35.2,15.9c-0.1,0-0.2,0-0.2,0c-19.6,0-31.2-12-35.6-16.5c-0.7-0.7-1.3-1.4-1.5-1.5
									c-0.4,0.1-2.5,1.4-2.8,6.4c-0.3,3-2.6,5.1-3.5,5.7l-0.7,0c-1-0.6-2.7-1.7-4.1-3.9c-0.4,1.6-0.1,3.8,0.4,5.5l-0.6,0.8
									c-4.5,0.1-7,2.5-8.4,4.5c9.4-2.4,13.3,0.6,17.1,3.5c2.3,1.8,4.7,3.6,8.5,4.3c6.3,1.1,8.9,0.4,9.5,0.1l0.7,1
									C127.9,223.8,126.5,224.1,124.3,224.1L124.3,224.1z"/>
							</g>
						</g>
					</g>
					<g class="st15">
						<g>
							<defs>
								<rect id="SVGID_15_" x="104.9" y="206.2" width="89.6" height="22"/>
							</defs>
							<clipPath id="SVGID_16_">
								<use xlink:href="#SVGID_15_"  style="overflow:visible;"/>
							</clipPath>
							<path class="st18" d="M120.8,217.6c-5.7-0.2-16.7-8.8-15.1-10.6c0.5-0.5,2.9,0,7.1,3c6.3,4.3,11.6,17.7,36.7,17.6
								c25.6-0.1,30.8-13.3,37.1-17.6c4.2-3,6.8-3.4,7.1-2.8c1.5,1.7-9.6,10.3-15.2,10.5L120.8,217.6z"/>
							<g class="st19">
								<path d="M149.3,228.2c-15.3,0-23.4-5.1-28.8-10c-5.2-0.4-14.1-7-15.4-10c-0.4-0.9-0.1-1.4,0.1-1.7c1-1,4,0.1,8,2.9
									c1.5,1,2.9,2.5,4.5,4.2c5.4,5.6,12.7,13.3,31.6,13.3c0.1,0,0.2,0,0.3,0c19.5-0.1,26.9-7.8,32.3-13.4c1.6-1.7,3-3.1,4.4-4.1
									c3.2-2.2,6-3.5,7.4-3.1l0.7,0.5c0.2,0.1,0.4,0.7,0,1.5c-1.3,3-10.3,9.5-15.5,10c-5.4,4.8-13.6,9.9-29.3,9.9
									C149.5,228.2,149.4,228.2,149.3,228.2L149.3,228.2z M193.2,207.5c-0.6,0-2.7,0.6-6.2,3c-1.4,0.9-2.7,2.3-4.2,3.9
									c-0.7,0.7-1.4,1.5-2.2,2.2c4.3-1.3,10.1-5.4,12.1-8c0.7-0.8,0.6-1.2,0.6-1.2C193.3,207.5,193.2,207.5,193.2,207.5
									L193.2,207.5z M106.1,207.5c0.1,0,0.1,0.3,0.5,0.9c1.8,2.6,7.9,6.9,12.2,8.2c-0.7-0.7-1.4-1.5-2.1-2.2
									c-1.6-1.6-2.9-3.1-4.3-4C108.5,207.6,106.5,207.3,106.1,207.5L106.1,207.5z"/>
							</g>
						</g>
					</g>
					<path class="st14" d="M113.1,130.6c-22.4,23.6-10.3,77.8,36.2,78.6c46.8,0.5,60.4-54.2,37.2-78.7L113.1,130.6z M117.6,131.4
						c-11.9,20.1,0.5,55.2,32.3,55.2c32.1,0,43.9-35.4,32.1-55.3L117.6,131.4z"/>
					<g class="st15">
						<path d="M149.9,209.8c-0.2,0-0.4,0-0.7,0c-20.2-0.3-36.1-10.8-43.6-28.8c-7.5-17.8-4.6-38.7,7-50.8l0.9,0.9
							c-11.2,11.8-14,32.2-6.7,49.5c7.3,17.5,22.8,27.7,42.4,28c19.7,0,35.7-9.7,43.3-27.4c7.6-17.5,4.9-38.1-6.6-50.2l0.9-0.9
							c11.9,12.5,14.7,33.7,6.9,51.6C186,199.5,170,209.8,149.9,209.8L149.9,209.8z M149.9,187.2c-13.7,0-25.4-6.7-32-18.4
							c-6.8-12-7.1-27.1-0.8-37.8l1.1,0.6c-6.1,10.3-5.8,24.9,0.8,36.5c6.4,11.3,17.7,17.7,30.9,17.7c13.4,0,24.3-6.2,30.7-17.5
							c6.6-11.6,7-26.5,0.8-36.9l1.1-0.6c6.4,10.8,6,26.1-0.8,38.1C175,180.8,163.8,187.2,149.9,187.2L149.9,187.2z"/>
					</g>
					<path class="st20" d="M158.1,216.1c1.6,0.4,3.1,2,2.5,3.8c-0.7,2.1-3.1,2.6-4,2.4c-1-0.6-0.4-1.5,2.6-1.8
						c2-0.7,0.2-2.1-1.3-2.7C157.1,217.4,157.3,215.9,158.1,216.1L158.1,216.1z"/>
					<g class="st15">
						<path class="st21" d="M156.9,222.3l-0.4,0c-0.5-0.3-0.5-0.5-0.5-0.7c0.1-0.5,1.3-1,3.1-1.2c0.5-0.2,0.8-0.5,0.8-0.8
							c0-0.6-1.1-1.4-2.2-1.9c-0.5-0.2-0.6-0.7-0.5-1.2c0.1-0.4,0.3-0.6,0.6-0.6c1.1,0.2,2,0.9,2.5,1.7c0.4,0.7,0.4,1.4,0.2,2.1
							C160.1,221.7,158.1,222.3,156.9,222.3L156.9,222.3z M158,216.1c-0.4,0-0.5,0.3-0.6,0.5c-0.1,0.4,0,0.8,0.4,1
							c1,0.4,2.3,1.2,2.2,2c0,0.4-0.3,0.6-0.9,0.9c-1.8,0.2-2.9,0.6-3.1,1.1c-0.1,0.2,0.2,0.5,0.4,0.6l0.3,0c1.2,0,3.1-0.6,3.6-2.4
							c0.2-0.7,0.2-1.4-0.2-2C159.9,217,159,216.3,158,216.1C158.1,216.1,158.1,216.1,158,216.1L158,216.1z"/>
					</g>
					<path class="st20" d="M153,215.5c0.8-0.9,1.4,1.8,1.5,3.6c0.2,1.8,0.3,4-0.5,4.1c-0.4,0.1-0.1-2.1-0.5-4
						C153,217,152.7,215.9,153,215.5L153,215.5z"/>
					<g class="st15">
						<path class="st21" d="M154.1,223.3c-0.3,0-0.3-0.5-0.3-1.3c0-0.7-0.1-1.8-0.3-2.7c-0.6-2.2-0.9-3.3-0.5-3.8c0.1,0,0.2,0,0.3,0
							c-0.4,0.5-0.2,1.7,0.4,3.7c0.2,1,0.3,2,0.3,2.7c0,0.6,0,1.2,0.2,1.2V223.3l0-0.1c0.6-0.1,0.7-2.1,0.4-4
							c-0.1-1.1-0.3-2.3-0.6-3.1c0.4,0.8,0.7,2.1,0.8,3.1C154.7,219.8,155.1,223.1,154.1,223.3L154.1,223.3L154.1,223.3z"/>
					</g>
					<path class="st20" d="M151.3,218.8c1.9,1.8-1.3,7.2-8.4,4.9c-0.4-0.7,2.8,0,5-0.4C152.3,222.6,150.4,218,151.3,218.8
						L151.3,218.8z"/>
					<g class="st15">
						<path class="st22" d="M146.3,224.3c-1,0-2.2-0.2-3.3-0.6c0-0.1,0-0.1,0.1-0.2c1.1,0.5,2.2,0.7,3.3,0.7c3,0,4.8-1.6,5.3-3
							c0.4-0.9,0.3-1.8-0.3-2.4c-0.2-0.1-0.2,0.2-0.2,0.5c0,1.1-0.1,3.5-3.1,4c-0.5,0.1-1.2,0.1-1.8,0.1l0,0c-0.5,0-1,0-1.5,0l-1,0
							c-0.2,0-0.7,0-0.8,0.1c0.1-0.2,0.4-0.2,0.8-0.2l1,0c1,0,2.2,0.1,3.2-0.1c2.9-0.5,3-2.8,3-3.9c0-0.4,0-0.7,0.2-0.7
							c0.8,0.7,0.9,1.6,0.5,2.6C151.1,222.6,149.3,224.3,146.3,224.3L146.3,224.3z"/>
					</g>
					<path class="st20" d="M147.9,215.1c0.8-0.9,0.3,1.9,0.5,3.7c0.2,1.7,0,3.8-0.9,3.5c-0.4-0.2,0.3-2.1-0.2-4
						C146.8,216.1,147.3,215.7,147.9,215.1L147.9,215.1z"/>
					<g class="st15">
						<path class="st21" d="M147.6,222.4l-0.2,0c-0.2-0.1-0.2-0.6-0.1-1.3c0.1-0.7,0.2-1.8-0.1-2.7c-0.5-2.3,0-2.7,0.5-3.3
							c0.1,0,0.2,0,0.2,0c-0.7,0.6-1.1,1.2-0.6,3.2c0.3,1,0.2,2,0.1,2.8c-0.1,0.6-0.1,1.1,0.1,1.2L147.6,222.4l0.3-0.2
							c0.4-0.5,0.5-2.1,0.4-3.4c-0.1-0.6,0-1.4,0-2c0-0.6,0-1.1,0-1.4c0.2,0.3,0.1,0.8,0.1,1.4c0,0.7,0,1.4,0,2c0.1,1.4,0,3-0.4,3.5
							L147.6,222.4L147.6,222.4z"/>
					</g>
					<path class="st20" d="M143,214.4c1.3,0,1,0.4,0.9,4c-0.1,4-3.5,4.5-4.3,3.4c-0.7-0.9-0.4-1.1-3.5-0.8c-0.7-0.3-0.7-1.1-2.9-0.9
						c-0.6,0.1-0.5-1-1.6-1.6c-1.8-1.1-2.4,0.8-5.8-1.2c-0.2-0.1-1.6-1-1.4-2.8c0.3-2.2-1.7,0.3-4-0.7c-0.4-0.2-1.7-0.7-2.9-1.7
						c-1.6-1.4,0.1-1.7,2.3-0.3c1.3,0.9,3.3-1.1,3.4-3.1c0.1-2.1-0.9-2.6,0.7-2.6c0.9,0,0.7,3.6-0.8,5.2c-2,2.2-0.7,1.8,0.1,1.7
						c0.8-0.2,4.2-4.5,4.8-4.1c0.9,0.6-2.7,3.3-1.9,5.9c0.4,1.2,2.5,2.3,4.3,2.4c2.1,0.3,2.1-2.5,2.9-1.9c1.2,0.8-2.2,2.2,1.3,3.2
						c0.8,0.2,1.2-1.8,1.7-1.7c1.1,0.2-0.7,2.3,1.3,2.7c1.4,0.2,1-2,1.9-1.9c1-0.1,0.1,3.6,2.8,3.2
						C143.4,220.8,141.6,214.4,143,214.4L143,214.4z"/>
					<g class="st15">
						<path class="st21" d="M140.9,222.3c-0.6,0-1.1-0.2-1.3-0.5c-0.8-1-0.8-1.1-3.4-0.8c-0.2-0.1-0.4-0.2-0.5-0.3
							c-0.4-0.3-0.8-0.7-2.4-0.5c-0.4,0.2-0.5-0.2-0.7-0.6c-0.2-0.3-0.4-0.8-1-1.1c-0.6-0.4-1.2-0.4-1.9-0.3
							c-0.7,0.1-1.5,0.5-3.9-0.9c-0.2-0.1-1.6-1-1.4-2.8c0.1-0.4,0-0.7-0.1-0.8c-0.5-0.1-0.7,0-1,0.1c-0.8,0.2-1.9,0.5-2.8,0.1
							c-0.5-0.2-1.8-0.8-2.9-1.7c-0.5-0.4-0.7-0.8-0.6-1c0.1-0.3,1.1-0.5,3,0.7c1.2,0.8,3.2-1.2,3.3-3c0.1-0.8-0.1-1.3-0.1-1.7
							c-0.1-0.4-0.1-0.6,0-0.8c0.1-0.1,0.3-0.2,0.7-0.2c0.3,0,0.5,0.1,0.6,0.4c0.4,1,0,3.6-1.2,5c-0.7,0.7-1,1.2-1,1.4
							c0-0.3,0.3-0.7,1-1.5c1.2-1.3,1.6-3.9,1.2-4.8l-0.3-0.4l-0.2,0.1c-0.4,0-0.5,0-0.6,0.1c-0.1,0.1,0,0.3,0,0.7
							c0.1,0.4,0.2,1,0.2,1.7c-0.1,2-2.1,4-3.5,3.1c-1.1-0.7-1.9-0.9-2.4-0.9c-0.5,0.3-0.5,0.5,0.2,1.1c1.1,0.9,2.3,1.5,2.8,1.7
							c1.1,0.5,2,0.2,2.8,0c0.3-0.1,0.6-0.2,0.8-0.2c0.5,0.3,0.5,0.6,0.5,1c-0.3,1.8,1.2,2.6,1.3,2.7c2.4,1.4,3.1,1,3.9,0.9
							c0.7-0.1,1.3-0.1,2,0.3c0.5,0.3,0.8,0.8,1,1.1c0.2,0.3,0.3,0.5,0.5,0.5c0.3,0,0.5,0,0.7,0c1.1,0,1.5,0.3,1.8,0.6
							c0.1,0.1,0.3,0.2,0.4,0.3c2.6-0.3,2.8-0.1,3.3,0.6c0.4,0.6,0.9,0.8,1.4,0.8c1.4,0,2.9-1.2,3-3.8l0.1-1.8
							c0.1-1.1,0.1-1.7-0.1-1.9c-0.1-0.1-0.3-0.2-0.7-0.2c-0.7,0.5-0.6,2-0.4,3.4c0.1,1.6,0.3,3.1-0.3,3.2c-1.7-0.2-2.1-1.2-2.3-2.2
							c-0.1-0.6-0.4-1.2-0.5-1c-0.4,0-0.5,0.3-0.6,0.7c-0.2,0.5-0.4,1.1-1.1,1.1c-1.4-0.2-1.3-1.1-1.2-1.7c0.1-0.5,0.1-0.9-0.3-1
							l0,0c-0.2,0-0.4,0.3-0.6,0.7c-0.3,0.5-0.6,1-1,1c-1.1-0.3-1.6-0.6-1.8-1c-0.2-0.4,0.1-0.8,0.3-1.2c0.3-0.5,0.4-0.8,0-1
							c-0.4-0.1-0.5,0.2-0.7,0.6c-0.3,0.6-0.8,1.4-1.8,1.4c-2.1-0.2-4.3-1.3-4.7-2.5c-0.5-1.5,0.6-3.1,1.3-4.3
							c0.5-0.8,0.9-1.4,0.6-1.6h0c-0.5,0-1.6,1.2-2.6,2.2c-0.9,1-1.8,1.8-2.1,1.9c-0.4,0.1-0.6,0.1-0.8,0.1
							c-0.1-0.1-0.2-0.1-0.2-0.2c0.4,0.1,0.6,0.1,0.8,0c0.5-0.1,1.4-1,2.3-1.9c1.1-1.1,2.2-2.3,2.7-2.3c0.5,0.3,0.1,0.9-0.5,1.8
							c-0.7,1.1-1.8,2.7-1.3,4.2c0.4,1.2,2.6,2.2,4.2,2.4c1.3,0.1,1.7-0.7,2-1.3c0.2-0.4,0.4-0.7,0.7-0.7c0.7,0.4,0.5,0.8,0.2,1.3
							c-0.2,0.4-0.4,0.7-0.3,1.1c0.2,0.4,0.7,0.7,1.6,1c0.4,0,0.8-0.5,1-1c0.2-0.4,0.4-0.7,0.6-0.7c0.6,0.1,0.5,0.6,0.4,1.1
							c-0.1,0.7-0.2,1.4,0.9,1.6c0,0,0,0,0,0c0.7,0,0.9-0.5,1.1-1c0.1-0.4,0.3-0.8,0.6-0.8c0.5,0,0.6,0.5,0.7,1.1
							c0.2,0.9,0.4,2.1,1.8,2.1c0.9-0.1,0.7-1.6,0.6-3.1c-0.1-1.4-0.2-2.9,0.2-3.3c0.8-0.1,1-0.1,1.2,0.1c0.3,0.3,0.2,0.8,0.2,2
							l-0.1,1.8C143.9,221.1,142.3,222.3,140.9,222.3L140.9,222.3z"/>
					</g>
					<path class="st20" d="M118,209.7c0.8-0.2,2.2-0.9,2.2-2.1c0.1-1.3-1.7-1.8-3.9-1.4c-1.1,0.2-3.1-0.6-4.2-1.5
						c-1.1-1.4-1.1-3-2.5-2.3c-1,0.5,1.4,3.1,2.6,3.7c1.2,0.6,3.1,0.6,3.3,1.5C115.6,208.4,115,209.8,118,209.7L118,209.7z"/>
					<g class="st15">
						<path class="st21" d="M117.7,209.7c-2.2,0-2.2-1-2.2-1.8c-0.1-1-0.8-1.2-1.7-1.4c-0.5-0.1-1.1-0.3-1.5-0.5
							c-1-0.5-2.9-2.5-2.9-3.4c0.1-0.1,0.2-0.2,0.3-0.3c-0.2,1.2,1.6,3.1,2.6,3.6c0.4,0.2,1,0.4,1.5,0.5c0.9,0.2,1.7,0.4,1.8,1
							c0,1.3,0,2.2,2.1,2.2V209.7l0.3-0.1c0.7-0.1,2.1-0.8,2.2-2.1c0-0.3-0.1-0.6-0.3-0.8c-0.6-0.6-1.9-0.8-3.6-0.6
							c-1.6,0.1-3.2-0.7-4.3-1.6c-0.4-0.5-0.6-1-0.8-1.4c-0.4-0.9-0.8-1.4-1.6-1c0.3-0.2,0.4-0.3,0.5-0.3c0.5,0,0.8,0.5,1.1,1.2
							c0.2,0.4,0.5,0.9,0.8,1.4c1,0.9,2.7,1.5,3.8,1.5c0.8-0.1,1.3-0.1,1.7-0.1c1.1,0,1.9,0.3,2.3,0.7c0.2,0.2,0.3,0.6,0.3,0.9
							c-0.1,1.2-1.4,2-2.3,2.2L117.7,209.7L117.7,209.7z"/>
					</g>
					<path class="st20" d="M166.6,215.8c-0.4,0.2-0.8,4.2,1.7,4.3c3.1,0.1,4.7-1.5,5.5-2c1.3-1,3.6-3,2.6-4.7
						c-0.5-0.6-0.8,1.1-1.5,2.2c-0.8,1.5-3.8,3.3-6,3.1C166.1,218.4,167.1,215.7,166.6,215.8L166.6,215.8z"/>
					<g class="st15">
						<path class="st21" d="M168.6,220.1l-0.3,0c-1,0-1.7-0.7-2-1.9c-0.2-1.1,0-2.3,0.2-2.5c0.3-0.1,0.3,0.2,0.3,0.6
							c0.1,0.8,0.2,2.1,2,2.2c2.7-0.1,5.2-1.6,6-3c0.2-0.4,0.4-0.8,0.6-1.2c0.3-0.6,0.5-1.2,0.8-1.2c0,0.1,0.1,0.1,0.1,0.2
							c-0.4,0-0.6,0.4-0.8,1c-0.2,0.4-0.3,0.8-0.5,1.2c-0.8,1.4-3.4,3.1-5.6,3.1c-2.4-0.1-2.5-1.6-2.5-2.3c0-0.3,0-0.5-0.1-0.5
							c-0.2,0.1-0.4,1.3-0.2,2.3c0.2,0.8,0.6,1.8,1.9,1.8L168.6,220.1V220c2.5,0,4-1.1,4.8-1.8c2.2-1.7,3.2-2.9,3.1-4
							c0.1,1.1-0.8,2.4-2.7,3.8C172.7,219,171.2,220.1,168.6,220.1L168.6,220.1z"/>
					</g>
					<path class="st20" d="M173,213.9c-0.6-0.5,1.4-1.3,1.6-2c0.2-0.7-0.9-1.4-0.3-2.3c0.7-1.1,0.7,2,1.5,2.1
						c2.3,0.2,0.7,1.7-0.2,1.4C174.7,212.9,173.4,214.3,173,213.9L173,213.9z"/>
					<g class="st15">
						<path class="st21" d="M173.1,214.1L173,214c0-0.1,0-0.2,0-0.2l0.2,0.2c0.2,0,0.5-0.1,0.8-0.3c0.4-0.2,0.9-0.5,1.4-0.5l0.5,0.1
							c0.5,0,1.1-0.4,1.1-0.8c0-0.3-0.4-0.5-1.1-0.6c-0.4,0-0.7-0.8-0.9-1.4c-0.1-0.3-0.2-0.6-0.3-0.8c0.2,0.1,0.3,0.4,0.4,0.8
							c0.2,0.6,0.4,1.3,0.8,1.4c1.1,0.1,1.2,0.5,1.2,0.7c0,0.4-0.6,0.9-1.2,0.9l-0.5-0.1c-0.4,0-0.9,0.3-1.4,0.5
							C173.7,213.9,173.4,214.1,173.1,214.1L173.1,214.1L173.1,214.1z M172.9,213.7c0.1-0.3,0.3-0.6,0.7-0.8
							c0.4-0.3,0.9-0.6,0.9-0.9c0.1-0.3-0.1-0.6-0.2-0.9c-0.2-0.4-0.4-0.9-0.1-1.4c0.1,0,0.2-0.1,0.2-0.1c-0.5,0.6-0.3,1-0.1,1.4
							c0.2,0.3,0.3,0.6,0.2,1c-0.1,0.3-0.5,0.7-1,1C173.3,213.2,173,213.5,172.9,213.7L172.9,213.7z"/>
					</g>
					<path class="st20" d="M171.2,209.3c-0.1,1,0.5,1.3,0.7,0.7C172.1,208.8,171.5,208.3,171.2,209.3L171.2,209.3z"/>
					<g class="st15">
						<path class="st23" d="M171.2,209.3c-0.1,1,0.5,1.3,0.7,0.7C172.1,208.8,171.5,208.3,171.2,209.3z"/>
					</g>
					<path class="st20" d="M172.9,208.2c-0.4,0-0.4,1.3,0.1,1.3c0.5,0,0.3,0.9,0.7,0.9c0.5,0,0.6-1.5,0-1.5
						C173.1,208.9,173.2,208.2,172.9,208.2L172.9,208.2z"/>
					<g class="st15">
						<path class="st21" d="M173.6,210.5L173.6,210.5l-0.4-0.4c-0.1-0.2-0.1-0.4-0.3-0.5c-0.3,0-0.4-0.4-0.4-0.7
							c0-0.3,0.1-0.7,0.3-0.7c0.4,0.6,0.5,0.8,0.8,0.8c0.3,0,0.5,0.4,0.5,0.8C174.1,210.1,174,210.5,173.6,210.5L173.6,210.5
							L173.6,210.5z M172.9,208.4c-0.1,0-0.2,0.2-0.2,0.4c0,0.3,0.1,0.6,0.3,0.6c0.3,0,0.4,0.3,0.4,0.5l0.3,0.4v-0.1
							c0.2,0,0.3-0.4,0.3-0.7c0-0.3-0.1-0.7-0.4-0.7c-0.3,0-0.4-0.3-0.5-0.5C173,208.4,172.9,208.4,172.9,208.4L172.9,208.4z"/>
					</g>
					<path class="st20" d="M177,207.9c-0.4,0.6-1.3-2.1,1.5-2.5c1.3,0.1,2.5,2.3,2.4,4.4c0,0.8-0.1,2.5-0.5,3.4
						c-0.4,0.8-1.6,3.5-2.3,3.3c-0.6-0.2,0.2-1.4,1.2-2.9c0.9-1.3,1.2-4.9,0.7-5.5c-0.4-0.6-0.9,1.6-1.8,2c-0.8,0.4-1.5-0.7-1.6-1.3
						c-0.1-0.7,0.5-1.1,0.9-0.3c0.3,0.6,1.3-0.6,1.3-1.4C178.9,205.9,178,206.9,177,207.9L177,207.9z"/>
					<g class="st15">
						<path class="st21" d="M178.2,216.6l-0.1,0c0-0.1-0.1-0.2-0.1-0.2l0.2,0.1c0.6,0,1.7-2.2,2.1-3.3c0.4-0.8,0.4-2.2,0.5-3.1
							c0.1-2.4-1-4.6-2.3-4.7c-1.5,0.2-2,1.1-1.9,1.9c0,0.4,0.2,0.6,0.3,0.6c0.9-0.9,1.4-1.5,1.7-1.5c0.3,0.2,0.3,0.4,0.3,0.7
							c0,0.5-0.3,1-0.6,1.3c-0.2,0.2-0.4,0.3-0.5,0.3c-0.4-0.4-0.6-0.6-0.8-0.6c-0.3,0.2-0.4,0.4-0.3,0.6c0.1,0.5,0.7,1.3,1.3,1.3
							c0.7-0.3,1-0.9,1.3-1.4c0.2-0.5,0.4-0.8,0.6-0.8c0.1,0.1,0.1,0.1,0.1,0.2c0,0,0,0,0,0c-0.3-0.1-0.5,0.3-0.6,0.7
							c-0.3,0.5-0.6,1.2-1.1,1.4c-1,0-1.6-0.8-1.7-1.3c0-0.2,0-0.5,0.2-0.6c0.4-0.2,0.7-0.1,0.9,0.3l0.6-0.1
							c0.3-0.3,0.6-0.8,0.5-1.2c0-0.3-0.1-0.5-0.1-0.5c-0.4-0.1-0.9,0.5-1.4,1.1l-0.4,0.4c-0.2,0-0.4-0.3-0.4-0.7
							c-0.1-0.8,0.4-1.8,2-2c1.4,0.1,2.5,2.3,2.4,4.5c-0.1,1.2-0.1,2.7-0.5,3.4C180.4,213.3,179,216.6,178.2,216.6L178.2,216.6z
							 M178,216c0.1-0.6,0.6-1.3,1.2-2.2c0.9-1.3,1.2-4.3,1-5.3c0.3,1.3-0.1,4.1-0.8,5.2C178.7,214.7,178.2,215.5,178,216L178,216z"
							/>
					</g>
					<path class="st20" d="M183.1,201.9c-0.3,0.5-1.6,1.6-1.8,2.1c-0.2,0.5-0.3,1.3,0.1,2.1c0.4,0.8,1.2,2,1.1,3.2
						c-0.2,1.1-0.9,3.5-0.5,3.3c0.4-0.2,1.5-2.5,1.3-4.3c-0.2-1.8-1.1-2.7-0.9-3.3c0.2-0.6,1.1-1.7,1.3-2.4c0.2-0.7-0.1-2.7-0.4-2.9
						c-0.3-0.2-1.3,0.2-0.9,0.9C182.6,201.2,183.3,200.8,183.1,201.9L183.1,201.9z"/>
					<g class="st15">
						<path class="st21" d="M181.9,212.6l-0.1,0c-0.1-0.2,0-0.8,0.3-1.8c0.1-0.5,0.3-1.1,0.3-1.5c0.1-0.9-0.4-2-0.8-2.7
							c-0.6-1.2-0.6-2.1-0.3-2.5c0.1-0.3,0.6-0.8,1-1.2c0.3-0.3,0.6-0.7,0.8-0.9c0.1-0.6-0.1-0.7-0.3-0.9c-0.2-0.1-0.3-0.2-0.5-0.5
							c-0.1-0.2-0.1-0.4,0-0.6c0.2-0.3,0.5-0.4,0.8-0.4c0.5,0.2,0.8,2.3,0.6,3c-0.1,0.4-0.4,0.9-0.7,1.4c-0.3,0.4-0.5,0.8-0.6,1.1
							c-0.1,0.3,0.1,0.6,0.3,1.1c0.2,0.6,0.5,1.3,0.6,2.2C183.5,210.1,182.4,212.4,181.9,212.6L181.9,212.6L181.9,212.6z
							 M183.1,199.7c-0.3,0-0.6,0.1-0.8,0.3c0.1,0.7,0.3,0.8,0.4,0.9c0.3,0.1,0.5,0.3,0.4,1c-0.2,0.2-0.5,0.6-0.8,0.9
							c-0.4,0.5-0.9,0.9-1,1.2c-0.2,0.4-0.3,1.3,0.1,2c0.6,1.2,1.2,2.2,1.1,3.2c-0.1,0.4-0.2,1-0.3,1.5c-0.2,0.7-0.4,1.6-0.3,1.7
							l0,0c0.4-0.2,1.5-2.4,1.2-4.2c-0.1-0.9-0.4-1.6-0.6-2.2c-0.2-0.5-0.4-0.9-0.3-1.2c0.1-0.3,0.3-0.7,0.6-1.1
							c0.3-0.5,0.6-0.9,0.7-1.3c0.2-0.8-0.1-2.7-0.4-2.8C183.2,199.7,183.1,199.7,183.1,199.7L183.1,199.7z"/>
					</g>
					<path class="st20" d="M184.7,202.8c-0.4,0.4-0.2,2.6,0.4,1.8C185.6,203.9,185,202.5,184.7,202.8L184.7,202.8z"/>
					<g class="st15">
						<path class="st23" d="M184.7,202.8c-0.4,0.4-0.2,2.6,0.4,1.8C185.6,203.9,185,202.5,184.7,202.8z"/>
					</g>
					<path class="st20" d="M173.2,219.1c-0.2,1,0.7,1.3,1,0.7C174.5,218.7,173.5,218.2,173.2,219.1L173.2,219.1z"/>
					<g class="st15">
						<path class="st23" d="M173.2,219.1c-0.2,1,0.7,1.3,1,0.7C174.5,218.7,173.5,218.2,173.2,219.1z"/>
					</g>
					<path class="st20" d="M174.6,218.2c-0.3,0.8,1.1,0.9,1.4,0.4C176.5,217.8,175.1,217.5,174.6,218.2L174.6,218.2z"/>
					<g class="st15">
						<path class="st21" d="M175.3,219c-0.3,0-0.6-0.1-0.7-0.3c0-0.1,0.1-0.2,0.1-0.4c0.3,0.9,1.1,0.5,1.3,0.2
							c-0.1-1.2-0.9-0.8-1.2-0.4c0.4-0.7,1.2-0.4,1.4-0.1c0.1,0.1,0.1,0.3,0,0.6C175.9,218.9,175.6,219,175.3,219L175.3,219z"/>
					</g>
					<path class="st14" d="M117.8,206.9c-0.7-0.3-0.7,1.1-0.3,1.5C117.8,208.9,119.8,207.8,117.8,206.9L117.8,206.9z"/>
					<g class="st15">
						<path class="st21" d="M117.7,208.6L117.7,208.6l-0.3-0.1c-0.2-0.3-0.3-1-0.2-1.4l0.6-0.2c0.8,0.4,1,0.8,0.9,1
							C118.7,208.3,118.1,208.6,117.7,208.6L117.7,208.6z M117.8,207c-0.6,0.5-0.5,1.2-0.3,1.5l0.2,0.1l0,0c0.3,0,0.8-0.3,0.9-0.6
							C118.7,207.6,118.4,207.3,117.8,207L117.8,207z"/>
					</g>
					<path class="st14" d="M150.1,126.3c-7.3,1.5-12.4,5.8-10,7.2c1.4,1,8.2-1.7,9.7-3.9c2.6,4,9.7,5.5,11.4,4.6L150.1,126.3z"/>
					<g class="st15">
						<path d="M159.6,135.1c-2.8,0-7.5-1.6-9.9-4.5c-1.5,1.6-4.8,3.1-7.2,3.6c-1.3,0.3-2.2,0.2-2.7-0.1c-0.7-0.4-1-1.1-0.8-1.8
							c0.4-2.4,5.5-5.4,11.1-6.5c0.4,0,0.7,0.2,0.7,0.5c0.1,0.3-0.2,0.7-0.5,0.7c-5.8,1.2-9.8,4.1-10.1,5.5c0,0.2,0,0.4,0.3,0.6
							c0.2,0.1,0.7,0.2,1.8,0c2.4-0.5,6.1-2.3,7-3.7l0.5-0.8l0.5,0.8c2.5,3.8,9.3,5.1,10.6,4.4c0.3-0.2,0.7,0,0.8,0.3
							c0.2,0.3,0,0.7-0.3,0.8C161,135,160.4,135.1,159.6,135.1L159.6,135.1z"/>
					</g>
					<path class="st14" d="M112,124c1.2,1.9,7.5,6.4,12.1,6.8c4.5,0.3,14.8,2.4,16.8,1.6c2-0.9,7.6-4.8,9.1-4.1
						c1.4,0.7,9.9,5.3,12.9,5.2c3.1-0.1,23.1-5.8,23.8-6.9c0.7-1.1-4-4-7-4C176.8,122.5,112,124.1,112,124L112,124z"/>
					<path class="st14" d="M129.6,133.1c0,1.1,0.9,1.9,3,2c3.5,0.1,9.4-1.6,13-5.6L129.6,133.1z"/>
					<g class="st15">
						<path d="M132.8,135.7c-0.1,0-0.2,0-0.2,0c-3.2,0-3.6-1.8-3.6-2.6c0-0.3,0.3-0.6,0.6-0.6c0.5,0,0.6,0.3,0.6,0.6
							c0,0.9,0.8,1.4,2.4,1.4c3.7,0,9.3-1.8,12.5-5.4c0.2-0.2,0.6-0.3,0.9-0.1c0.3,0.2,0.3,0.6,0.1,0.9
							C142.3,134.2,136.2,135.7,132.8,135.7L132.8,135.7z"/>
					</g>
					<path class="st14" d="M119.1,131.4c-0.2,0.9,1.4,2.2,4.5,2.2c3.1,0,13.7-1.3,17.2-4.9L119.1,131.4z"/>
					<g class="st15">
						<path d="M123.7,134.3c0,0-0.1,0-0.1,0c-2.1,0-3.9-0.6-4.7-1.6c-0.3-0.4-0.5-0.9-0.4-1.4c0.1-0.3,0.4-0.6,0.7-0.5
							c0.3,0.1,0.6,0.4,0.5,0.7c0,0.1,0,0.2,0.2,0.4c0.4,0.5,1.6,1.1,3.7,1.1c3.4-0.1,13.5-1.3,16.7-4.7c0.2-0.2,0.6-0.3,0.9,0
							c0.2,0.2,0.3,0.6,0,0.9C137.5,133.1,126.5,134.3,123.7,134.3L123.7,134.3z"/>
					</g>
					<path class="st14" d="M111.9,128.6c-1.6,2.1,3.6,2.9,6.7,2.8c3.1,0,11.2-0.1,14.9-2.8L111.9,128.6z"/>
					<g class="st15">
						<path d="M118.6,132c-1.1,0-6.5-0.1-7.5-2.1c-0.2-0.3-0.3-1,0.3-1.8c0.2-0.3,0.6-0.3,0.9-0.1c0.3,0.2,0.3,0.6,0.1,0.9
							c-0.2,0.3-0.2,0.4-0.2,0.5c0.4,0.8,3.4,1.3,6.4,1.4c3.1,0,11.1-0.1,14.5-2.7c0.3-0.2,0.7-0.1,0.9,0.1c0.2,0.3,0.2,0.7-0.1,0.9
							c-3.7,2.8-11.7,2.9-15.1,2.9C118.8,132,118.7,132,118.6,132L118.6,132z"/>
					</g>
					<path class="st14" d="M106.2,125c-1.6,2.1,3.7,3.9,10.1,3.8c5.9-0.1,11.9-2.2,11.9-2.2L106.2,125z"/>
					<g class="st15">
						<path d="M115.6,129.4c-4.4,0-9.2-1-10.2-2.9c-0.3-0.6-0.2-1.3,0.2-1.9c0.2-0.3,0.6-0.3,0.9-0.1c0.3,0.2,0.3,0.6,0.1,0.9
							c-0.2,0.3-0.2,0.4-0.1,0.6c0.6,1.2,4.7,2.3,9.7,2.2C122,128,128,126,128,126c0.3-0.1,0.7,0.1,0.8,0.4c0.1,0.3-0.1,0.7-0.4,0.8
							c-0.3,0.1-6.2,2.1-12.1,2.2C116.1,129.4,115.9,129.4,115.6,129.4L115.6,129.4z"/>
					</g>
					<path class="st14" d="M169.7,133.1c0,1.1-0.9,1.9-3,2c-3.5,0.1-9.4-1.6-13-5.6L169.7,133.1z"/>
					<g class="st15">
						<path d="M166.5,135.7c-3.3,0-9.4-1.5-13.2-5.8c-0.2-0.3-0.2-0.7,0.1-0.9c0.3-0.2,0.7-0.2,0.9,0.1c3.2,3.6,8.7,5.3,12.5,5.4
							c1.6,0,2.4-0.5,2.4-1.4c0-0.3,0.2-0.6,0.6-0.6c0.3,0,0.6,0.3,0.6,0.6c0,0.8-0.4,2.5-3.6,2.6
							C166.7,135.7,166.6,135.7,166.5,135.7L166.5,135.7z"/>
					</g>
					<path class="st14" d="M180.2,131.4c0.2,0.9-1.4,2.2-4.4,2.2c-3.1,0-13.8-1.3-17.2-4.9L180.2,131.4z"/>
					<g class="st15">
						<path d="M175.7,134.3c-2.9,0-13.8-1.2-17.5-5c-0.2-0.3-0.2-0.6,0-0.9c0.3-0.2,0.6-0.2,0.9,0c3.2,3.3,13.3,4.7,16.7,4.7
							c2.1,0,3.3-0.6,3.7-1.1c-0.1-0.3,0.2-0.8,0.6-0.9c0.3-0.1,0.7,0,0.8,0.3c0.1,0.5-0.1,0.9-0.4,1.4c-0.8,1-2.5,1.6-4.7,1.6
							C175.7,134.3,175.7,134.3,175.7,134.3L175.7,134.3z"/>
					</g>
					<path class="st14" d="M187.4,128.6c1.6,2.1-3.5,2.8-6.7,2.8c-3.1,0-11.2-0.1-14.9-2.8L187.4,128.6z"/>
					<g class="st15">
						<path d="M180.9,132c-0.1,0-0.1,0-0.2,0c-3.6,0-11.5-0.1-15.2-2.9c-0.3-0.2-0.3-0.6-0.1-0.9c0.2-0.3,0.6-0.3,0.9-0.1
							c3.4,2.5,11.3,2.6,14.3,2.7c3.1,0.1,6.1-0.6,6.5-1.3c-0.2-0.3-0.3-0.9,0-1.1c0.3-0.2,0.6-0.4,0.8-0.1c0.6,0.8,0.5,1.4,0.3,1.8
							C187.3,131.9,182.1,132,180.9,132L180.9,132z"/>
					</g>
					<path class="st14" d="M193.2,125c1.6,2.1-3.7,3.9-10.1,3.8c-5.9-0.1-11.9-2.2-11.9-2.2L193.2,125z"/>
					<g class="st15">
						<path d="M183.7,129.4c-0.2,0-0.5,0-0.7,0c-5.9-0.1-11.9-2.1-12.1-2.2c-0.3-0.1-0.5-0.5-0.4-0.8c0.1-0.3,0.5-0.5,0.8-0.4
							c0.1,0,6,2,11.7,2.2c5,0.1,9.1-1.1,9.7-2.2c0.1-0.1,0.1-0.3-0.1-0.6c-0.2-0.3-0.2-0.7,0.1-0.9c0.3-0.2,0.7-0.2,0.9,0.1
							c0.4,0.6,0.5,1.3,0.2,1.9C192.9,128.4,188.2,129.4,183.7,129.4L183.7,129.4z"/>
					</g>
					<path class="st14" d="M118.8,124.8c-8.2,1.2-11.9,0.6-13.5-0.2c-2-0.9-5.5-3.6-0.4-3.7c3.4-0.1,5.1,0.2,9,0.2
						c9.9-0.1,24.2-8,28.6-8c4,0,5.1,1.8,7.4,1.9c2.4,0,3.1-1.9,7.1-1.9c4.3,0,18.6,7.9,28.6,8c3.9,0,5.6-0.2,9-0.2
						c5.1,0.1,1.7,2.8-0.4,3.7c-1.6,0.8-5.4,1.4-13.5,0.2H118.8z"/>
					<g class="st15">
						<path d="M188.5,126.1c-2,0-4.7-0.2-8-0.7c-0.3-0.1-0.6-0.4-0.5-0.7c0.1-0.3,0.4-0.6,0.7-0.5c8.6,1.2,11.9,0.4,13.2-0.1
							c1.5-0.7,2.7-1.8,2.7-2.1l0,0c0,0-0.3-0.4-2.1-0.4c-1.7,0-3,0-4.4,0.1c-1.3,0.1-2.7,0.1-4.6,0.1c-6.1-0.1-13.6-2.9-19.7-5.2
							c-3.9-1.5-7.2-2.7-8.9-2.8c-2.1,0.1-3.3,0.6-4.3,1.1c-0.9,0.4-1.7,0.9-2.8,0.8c-1.1,0-1.9-0.4-2.8-0.8
							c-1.1-0.5-2.4-1.1-4.5-1.1c-1.6,0-5,1.3-8.9,2.7c-6.1,2.3-13.6,5.2-19.7,5.2c-1.9,0-3.3,0-4.6-0.1c-1.4-0.1-2.7-0.1-4.4-0.1
							c-1.8,0-2.1,0.4-2.1,0.4c0,0.3,1.2,1.5,2.7,2.1c1.2,0.6,4.6,1.4,13.2,0.2c0.3-0.1,0.7,0.2,0.7,0.5c0.1,0.3-0.2,0.7-0.5,0.7
							c-8.5,1.2-12.2,0.5-13.9-0.3c-1-0.5-3.7-2-3.4-3.5c0.2-1.2,2-1.4,3.3-1.4c1.8,0,3.1,0,4.5,0.1c1.3,0.1,2.6,0.1,4.5,0.1
							c5.8-0.1,13.3-2.9,19.3-5.2c4.2-1.6,7.4-2.8,9.3-2.8c2.6,0.1,3.9,0.6,5.1,1.2c0.8,0.4,1.5,0.7,2.3,0.7
							c0.7-0.1,1.5-0.3,2.3-0.7c1.1-0.5,2.4-1.1,4.9-1.2c1.9,0,5.1,1.3,9.3,2.8c6,2.3,13.4,5.1,19.3,5.2c1.9,0,3.2,0,4.5-0.1
							c1.4-0.1,2.7-0.1,4.5-0.1c1.3,0,3,0.2,3.3,1.4c0.3,1.5-2.4,3-3.4,3.5C193.4,125.7,191.6,126.1,188.5,126.1L188.5,126.1z"/>
					</g>
					<path class="st14" d="M149.7,95.5c-3.8,0.2-9.1-0.5-10.8,3.8c-2.6,4.9-1.9,10.5-0.7,10.6c2.1,0.2,2.3-5.5,3.2-5.6
						c0.9,0,0.9,5,2.7,5c1.3,0,2.2-5.1,2.6-5c0.4,0,1.3,4.8,3,4.8c1.8,0,2.6-4.8,3-4.8c0.4,0,1.3,5,2.6,5c1.8,0,1.8-5,2.7-5
						c0.9,0,1.3,5.7,3.3,5.5c1.2-0.1,1.7-5.6-0.8-10.5C158.9,95,153.5,95.7,149.7,95.5L149.7,95.5z"/>
					<g class="st15">
						<path d="M138.3,110.5l-0.2,0c-0.3,0-0.7-0.2-1-0.8c-0.9-1.7-1-6.5,1.2-10.7c1.6-4,6-4,9.6-4.1c0.6,0,1.2,0,1.8,0
							c0.6,0,1.2,0,1.8,0c3.6,0.1,8.1,0.1,9.7,4.2c2.2,4.2,2.2,9,1.3,10.6c-0.3,0.6-0.7,0.7-1,0.8c0,0,0,0,0,0c-1.8,0-2.5-2.2-3.1-4
							c-0.1-0.4-0.3-0.9-0.4-1.3c0,0.3-0.1,0.8-0.2,1.2c-0.4,1.6-0.9,3.6-2.4,3.6c-1.3,0-2-2.1-2.6-4c0,0,0-0.1,0-0.1
							c-0.5,1.6-1.4,3.9-3,3.9c-1.6,0-2.4-2.3-3-3.9c0,0.1,0,0.1-0.1,0.2c-0.6,1.8-1.3,3.9-2.6,4c-1.6,0-2.1-2-2.5-3.6
							c-0.1-0.3-0.2-0.8-0.3-1.1c0,0.3-0.1,0.8-0.2,1.2C140.5,108.3,139.9,110.5,138.3,110.5L138.3,110.5z M149.6,96.1
							c-0.5,0-1.1,0-1.8,0c-3.5,0.1-7.2,0.1-8.5,3.4c-2.5,4.7-1.7,9.3-1.1,9.7l0,0c0.7,0,1.3-2,1.6-3.1c0.4-1.5,0.7-2.4,1.5-2.4
							c0.9,0,1.1,1,1.5,2.3c0.2,0.9,0.7,2.6,1.2,2.6c0.5-0.1,1.2-2.3,1.4-3.1c0.4-1.3,0.6-1.9,1.2-1.9c0.6,0.1,0.8,0.5,1.2,1.7
							c0.3,0.9,1.1,3.2,1.9,3.2c0.8,0,1.6-2.2,1.9-3.2c0.4-1.1,0.5-1.6,1.1-1.6c0.5-0.1,0.9,0.6,1.3,1.9c0.2,0.8,0.9,2.9,1.4,3.1
							c0.5,0,1-1.7,1.2-2.6c0.3-1.3,0.6-2.3,1.5-2.3c0.8,0,1.1,0.9,1.5,2.4c0.4,1.2,1,3.1,1.7,3.1c0.5-0.4,1.2-5-1.3-9.6
							c-1.3-3.3-5.2-3.4-8.6-3.4C150.8,96.2,150.2,96.2,149.6,96.1L149.6,96.1z"/>
					</g>
					<path class="st14" d="M140.4,97.3c1,1.7,9.1,1.7,9.5,1.7c0.5,0,7.5,0.1,9.1-1.6L140.4,97.3z"/>
					<g class="st15">
						<path d="M150.2,99.6c-0.1,0-0.2,0-0.3,0c-3.4,0-9-0.3-10-2l1.1-0.6c0.5,0.8,4.2,1.4,8.9,1.4c0.1,0,0.2,0,0.3,0
							c4.4,0,7.7-0.6,8.5-1.4l0.9,0.9C158,99.3,153.1,99.6,150.2,99.6L150.2,99.6z"/>
					</g>
					<path class="st14" d="M148.2,79.2v17.1c0,0,0.1,0.9,1.5,1c1.4,0,1.6-0.8,1.6-0.9l-0.1-17.2L148.2,79.2z"/>
					<g class="st15">
						<path d="M149.8,97.9C149.8,97.9,149.7,97.9,149.8,97.9c-1.6,0-2.1-1-2.2-1.5V79.2h1.2v17.1l0,0c0,0,0.1,0.3,0.9,0.4
							c0.9,0,1-0.4,1-0.4l-0.1-17.1h1.2l0.1,17.2c0,0.2-0.1,0.6-0.5,1C151.2,97.6,150.7,97.9,149.8,97.9L149.8,97.9z"/>
					</g>
					<path class="st14" d="M149.9,81.2c6.4-0.3,8.3,3.5,10.2,4.3c1.8,0.8,2.6,1.2,5.1,1c2.5-0.2-4.3,4.1-4.3,4.3l2.5,4.5
						c-2.3,0.3-6.7-1.8-8.4-3c-2-1.2-4.1-0.5-4.9-0.7L149.9,81.2z"/>
					<g class="st15">
						<path d="M162.8,95.9c-2.7,0-6.8-2.1-8.2-3.1c-0.9-0.5-2.4-0.6-3.5-0.6l-0.7,0l-0.5-0.1l-0.5-0.5l-0.1-11l1.4-0.1
							c4.4,0,6.7,2,8.3,3.3c0.5,0.5,1,0.9,1.4,1c1.8,0.8,2.5,1.1,4.8,0.9c0,0,0,0,0,0c0.9,0,1.1,0.4,1.2,0.6
							c0.2,0.8-0.6,1.6-4.1,4.1c-0.2,0.1-0.4,0.3-0.5,0.4l2.7,4.8L162.8,95.9L162.8,95.9z M152,90.9c1.3,0,2.3,0.3,3.2,0.8
							c1.6,1.1,4.9,2.6,7,2.9l-2-3.5c-0.1-0.7,0-0.7,1.2-1.5c0.7-0.5,2.3-1.6,3.1-2.4c-2.4,0.1-3.1-0.3-4.8-1.1
							c-0.6-0.3-1.1-0.7-1.7-1.2c-1.5-1.3-3.5-3-7.4-3l-0.1,0l0.1,9.2l0.4,0C151.3,90.9,151.6,90.9,152,90.9L152,90.9z"/>
					</g>
					<path class="st14" d="M153.4,76c0,2-1.7,3.5-3.7,3.5c-2,0-3.7-1.6-3.7-3.5s1.7-3.5,3.7-3.5C151.8,72.4,153.4,74,153.4,76
						L153.4,76z"/>
					<g class="st15">
						<path d="M149.7,79.9c-2.3,0-4.1-1.8-4.1-4c0-2.2,1.9-4,4.1-4c2.3,0,4.1,1.8,4.1,4C153.8,78.2,152,79.9,149.7,79.9L149.7,79.9z
							 M149.7,72.8c-1.8,0-3.3,1.4-3.3,3.1c0,1.7,1.5,3.1,3.3,3.1c1.8,0,3.3-1.4,3.3-3.1C153,74.3,151.5,72.8,149.7,72.8L149.7,72.8
							z"/>
					</g>
					<path class="st20" d="M110,160.8c-0.5,0.7-0.9-1.1-2.6,0.1c-1,0.8-1.3,2.1-1.3,4.7c0,2.2,1.3,3.7,2,3.5
						c1.1-0.1,0.5-2.8,1.8-3.3c1.8-0.8,4.3,0.4,4.7,2.1c0.4,1.6-0.8,3.4-2.2,3.2c-0.8-0.3,0.4-1.4,0.5-1.9c0.1-0.5,0.2-2.1-0.9-2.6
						c-1.2-0.4-1,1.2-1,1.6c0,0.4-0.9,1.8-1.8,1.8c-0.9-0.1-2.4,0-3.9-1.6c-0.8-0.8-1.7-3-0.9-5.7c0.8-2.7,2.3-3,3-3
						C108.2,159.5,110.2,160,110,160.8L110,160.8z"/>
					<g class="st15">
						<path class="st21" d="M112.5,171.1l-0.2,0c-0.4-0.6-0.1-1,0.1-1.4c0.2-0.2,0.3-0.5,0.3-0.6c0-0.1,0.4-2-0.9-2.4
							c-0.8,0-0.9,0.6-0.9,1.2c-0.1,0.8-0.9,2.1-1.9,2.1c-1.1-0.1-2.6-0.1-4-1.6c-0.8-0.9-1.7-3.1-0.9-5.8c0.8-2.7,2.2-3.1,3.1-3.1
							c0.9-0.1,2.1,0.3,2.6,0.8v0l0.1,0.5l-0.8,0c-0.4-0.3-1-0.5-1.9,0.2c-0.9,0.8-1.3,2.1-1.3,4.6c0,2.1,1.2,3.4,1.8,3.4
							c0.6-0.1,0.7-0.7,0.9-1.5c0.1-0.8,0.3-1.6,1-1.9c1.7-0.8,4.4,0.4,4.8,2.1c0.2,0.8,0,1.7-0.5,2.4
							C113.7,170.8,113.1,171.1,112.5,171.1L112.5,171.1z M111.6,166.4c1.8,0.6,1.4,2.7,1.4,2.7c0,0.2-0.2,0.4-0.4,0.7
							c-0.2,0.3-0.5,0.7-0.4,1l0.4,0.2c0.5,0,1-0.3,1.4-0.8c0.5-0.6,0.7-1.5,0.5-2.3c-0.4-1.6-3-2.8-4.6-2c-0.6,0.2-0.7,1-0.9,1.7
							c-0.1,0.8-0.3,1.5-0.9,1.6c0,0,0,0,0,0c-0.9,0-2.1-1.4-2.1-3.6c0-2.6,0.4-3.9,1.4-4.7c0.9-0.7,1.6-0.4,2.1-0.2
							c0-0.7-1.2-1-1.9-1c-0.7,0-2.2,0.1-3.1,3c-0.8,2.7,0.1,4.8,0.9,5.6c1.4,1.5,2.7,1.5,3.7,1.6c0,0,0,0,0,0c1,0,1.8-1.3,1.9-1.7
							C110.8,167.4,110.9,166.4,111.6,166.4L111.6,166.4z"/>
					</g>
					<path class="st20" d="M108,172.2c-0.8-0.4,0.3-2-1.8-1.5c-0.9,0.2,1.3,2.7,2.2,2.8C109.4,173.4,109.1,172.8,108,172.2
						L108,172.2z"/>
					<g class="st15">
						<path class="st21" d="M108.4,173.6L108.4,173.6c-0.8-0.1-2.4-1.8-2.5-2.6c0.6-0.5,0.8-0.5,1-0.5c0.7,0,0.8,0.5,0.8,0.9
							c0,0.3,0.1,0.6,0.3,0.7c0.7,0.4,1.1,0.8,1.1,1.1C109.1,173.4,108.9,173.6,108.4,173.6L108.4,173.6L108.4,173.6z M106.9,170.7
							c-0.2,0-0.4,0-0.7,0.1c-0.1,0.9,1.5,2.5,2.2,2.6c0.3,0,0.5-0.1,0.5-0.2c0-0.2-0.3-0.5-1-0.9c-0.4-0.2-0.4-0.6-0.4-0.9
							C107.5,171,107.4,170.7,106.9,170.7L106.9,170.7z"/>
					</g>
					<path class="st20" d="M110.2,173.5c0.4,2,0.9,1.8,0.9,2.8c0,1.3-2.1,0.7-2.4,1.3c-0.3,0.6-0.7,2.1,0.7,2.2
						c1.4,0.1,3.5-0.4,3.9,0.5c1.1,2.8,3.5,2.4,4.6,1.9c1.2-0.5,4.2-3.1,4.8-3.4c1-0.4-0.9-1.1-2.1-0.1c-0.3,0.3-2.7,2.8-4,2.8
						c-0.9,0.1-2.4-2.3-2.3-3.1c0.1-0.6,2.2-0.1,2.5-1.3c0.2-0.9,0.2-1.8-0.4-1.9c-0.7,0-3.9,0.4-4-0.1c-0.6-1.4,0.6-2,0.2-2.4
						C112.1,172.8,110.3,172.5,110.2,173.5L110.2,173.5z"/>
					<g class="st15">
						<path class="st21" d="M116.3,182.8c-1,0-2.3-0.4-3.1-2.3c-0.2-0.5-1.1-0.6-2.4-0.5c-0.3,0-0.7,0-1,0c-0.9,0-1.2-0.2-1.4-0.5
							c-0.3-0.6-0.1-1.4,0.1-1.8c0.1-0.3,0.6-0.3,1.1-0.4c0.7-0.1,1.4-0.2,1.4-0.9c0-0.4-0.1-0.6-0.3-0.9c-0.2-0.3-0.4-0.8-0.6-1.9
							c0-0.5,0.5-0.8,1.3-0.8c0.5,0,1,0.1,1.2,0.2c0.3,0.2,0.1,0.5,0,0.8c-0.2,0.4-0.4,0.9-0.1,1.7c0,0,0.1,0.2,1,0.2
							c0.5,0,1.2,0,1.7-0.1c0.4,0,0.8-0.1,1.1-0.1c0.3,0,0.5,0.1,0.6,0.3c0.3,0.4,0.2,1.3,0,1.7c-0.2,0.8-1,0.9-1.7,1
							c-0.4,0.1-0.8,0.1-0.8,0.3c0,0.5,0.5,1.7,1.2,2.4c0.3,0.4,0.7,0.6,1,0.6c0.8,0,2.2-1,4-2.8c1.3-1.2,2.4-0.6,2.5-0.1
							c-0.6,0.5-1.4,1-2.2,1.7c-1.1,0.8-2.3,1.8-3,2.1C117.6,182.6,117,182.8,116.3,182.8L116.3,182.8z M111.8,179.7
							c0.6,0,1.4,0.1,1.6,0.7c1.2,3.1,3.8,2.2,4.4,1.9c0.7-0.3,1.9-1.2,3-2c0.8-0.7,1.6-1.2,1.9-1.3c0.3-0.4-0.7-1.1-2,0.1
							c-1.1,1.1-3,2.8-4.1,2.9h0c-0.5,0-0.9-0.4-1.1-0.7c-0.7-0.8-1.3-2-1.2-2.5c0.1-0.3,0.5-0.4,1-0.5c0.7-0.1,1.4-0.2,1.6-0.9
							c0.2-0.7,0.2-1.3,0-1.6l-0.5-0.2c-0.2,0-0.6,0-1,0.1c-1.4,0.1-2.9,0.1-2.9-0.2c-0.4-0.9-0.1-1.4,0.1-1.8
							c0.1-0.3,0.2-0.4,0.1-0.5c-0.4-0.2-2.1-0.5-2.2,0.5c0.2,1,0.5,1.5,0.6,1.8c0.2,0.3,0.3,0.5,0.3,1c0,0.9-0.8,1-1.5,1.1
							c-0.4,0.1-0.8,0.1-0.9,0.3c-0.2,0.4-0.4,1.2-0.1,1.7c0.2,0.2,0.4,0.4,0.8,0.4c0.7,0,1,0,1.4,0
							C111.1,179.7,111.5,179.7,111.8,179.7L111.8,179.7z"/>
					</g>
					<path class="st20" d="M121.1,181.3c-1,1.1-3.8,2.8-3.8,4.1c0,0.7,0.8,1.8,1.4,2.1c0.9,0.4,2.4,0.3,3.5-0.6c1.2-1,1.8-2,1.3-2.2
						c-1.9-0.5-1.9,2-2.8,2.1c-0.9,0.1-2.2-1.3-0.4-3c1.7-1.7,4.1-3.4,4-3.9C124.1,179.3,121.9,180.6,121.1,181.3L121.1,181.3z"/>
					<g class="st15">
						<path class="st21" d="M119.9,187.7c-0.4,0-0.9-0.1-1.2-0.2c-0.7-0.3-1.4-1.4-1.4-2.1c0-0.9,1.3-2,2.5-3c0.5-0.4,1-0.8,1.3-1.1
							c0.6-0.6,2.4-1.7,3-1.7c0.1,0.1,0.1,0.1,0.1,0.2h0c-0.6,0-2.3,0.9-2.9,1.6c-0.3,0.3-0.8,0.7-1.3,1.1c-1.1,0.9-2.5,2-2.5,2.9
							c0,0.6,0.7,1.7,1.3,2c1,0.4,2.4,0.2,3.4-0.6c1-0.8,1.5-1.6,1.4-1.9l-0.6-0.2c-0.8,0-1.1,0.7-1.4,1.3c-0.3,0.5-0.5,0.9-0.9,0.9
							l0,0c-0.6,0-1.1-0.4-1.3-0.9c-0.2-0.4-0.3-1.3,0.8-2.3c0.7-0.7,1.4-1.3,2.1-1.9c0.9-0.8,1.8-1.5,1.9-1.9c0,0.5-0.7,1.1-1.8,2
							c-0.7,0.6-1.4,1.3-2.1,1.9c-1,1-0.9,1.7-0.7,2.1c0.2,0.5,0.7,0.8,1,0.8c0.3,0,0.6-0.4,0.8-0.8c0.3-0.6,0.7-1.4,1.6-1.4
							l0.5,0.1c0.3,0.7-0.3,1.6-1.2,2.4C121.6,187.4,120.8,187.7,119.9,187.7L119.9,187.7z"/>
					</g>
					<path class="st20" d="M116.7,188.5c-0.1,0.7,1.8,0.7,2.1,0.1C119,188.1,116.7,187.8,116.7,188.5L116.7,188.5z"/>
					<g class="st15">
						<path class="st21" d="M117.6,189.1L117.6,189.1c-0.4,0-0.8-0.1-0.9-0.3c-0.2-1.2,1.8-1,2.1-0.4
							C118.6,189,118.1,189.1,117.6,189.1L117.6,189.1z M117.5,188.2c-0.4,0-0.8,0.1-0.8,0.3c0.2,0.3,0.5,0.4,0.8,0.4l0,0
							c0.5,0,0.9-0.2,1.1-0.4C118.6,188.4,118.1,188.2,117.5,188.2L117.5,188.2z"/>
					</g>
					<path class="st20" d="M122.8,189c-1,1.1,0.1,2.3,0.9,3.3c0.4,0.5,1.4,1.1,2.1,1.3c0.9,0.4,2.8,0.2,3.9-0.6
						c1.2-1,1.3-2.8,0.6-2.8c-1.9,0-0.6,2.6-1.5,2.7c-0.9,0.1-3.3-0.5-4.4-3c-0.7-1.5,1.2-1.7,0.9-2.4
						C125,186.9,123.6,188.2,122.8,189L122.8,189z"/>
					<g class="st15">
						<path class="st21" d="M127.1,193.9c-0.5,0-0.9-0.1-1.3-0.2c-0.7-0.3-1.7-0.8-2.1-1.4c-1-1.2-1.9-2.4-0.9-3.5
							c0.7-0.7,1.7-1.6,2.3-1.6c0.5,0.6,0.2,0.8-0.1,1c-0.4,0.4-0.9,0.8-0.5,1.6c1.1,2.4,3.4,2.9,4.2,2.9c0.4,0,0.4-0.4,0.4-0.9
							c0-0.5,0-1.1,0.3-1.5c0.3-0.3,1.2-0.5,1.4,0.1c0.2,0.6-0.1,1.8-1,2.5C129.1,193.6,128.1,193.9,127.1,193.9L127.1,193.9z
							 M125.1,187.6c-0.6,0-1.3,0.6-2.2,1.5c-0.9,0.9,0,2,0.7,3c0.6,0.8,1.7,1.3,2.2,1.6c1,0.4,2.9,0.1,3.8-0.6
							c0.9-0.7,1.1-1.8,1-2.3c-0.7-0.3-0.9-0.2-1.1,0c-0.3,0.3-0.3,0.8-0.3,1.3c0,0.5,0,1.1-0.4,1.1c0,0,0,0,0,0
							c-1.2,0-3.4-0.6-4.5-3c-0.4-0.9,0.2-1.4,0.6-1.8c0.3-0.2,0.5-0.4,0.4-0.6C125.2,187.6,125.1,187.6,125.1,187.6L125.1,187.6z"
							/>
					</g>
					<path class="st20" d="M127.9,188.9c0.4,0.6,1.8-0.7,1.6-1.3C129.4,187,127.5,188.3,127.9,188.9L127.9,188.9z"/>
					<g class="st15">
						<path class="st21" d="M128.2,189.1L128.2,189.1l-0.4-0.2l0-0.5c0.3-0.5,1.1-1.1,1.5-1.1c0.4,0.5,0.1,0.9,0,1.1
							C129,188.7,128.6,189.1,128.2,189.1L128.2,189.1z"/>
					</g>
					<path class="st20" d="M130.6,194c-0.1,0.8,0.2,1.9-0.8,1.9c-0.9,0-2.1-1.2-3.1-1.2c-0.9,0-1.3,0.8-1.2,1.2
						c0.1,0.4,1.7,0.9,4.5,0.7c2.8-0.2,2.2,1.5,4.1,1.4c1.9-0.1,2.2-0.8,2.1-1.2c-0.2-0.4-1.8-0.1-2.4-0.3c-0.6-0.1-1.7-1.1-1.8-1.9
						c-0.1-0.8-0.1-2.3,0.6-2.3c1.3,0,0.7,1.2,0.8,1.6c0,0.4,0.5,0.8,1.1,0.1c0.8-0.9,0.4-2.4-0.4-2.9
						C133.3,190.7,130.8,192.1,130.6,194L130.6,194z"/>
					<g class="st15">
						<path class="st21" d="M134,198.1c-0.8,0-1.1-0.3-1.5-0.6c-0.4-0.4-0.8-0.8-2-0.8c-0.8,0-1.2,0.1-1.6,0.1
							c-1.9,0-3.3-0.3-3.4-0.8c-0.1-0.2,0-0.5,0.2-0.7c0.1-0.2,0.5-0.5,1.1-0.5l0,0c0.5,0,1.1,0.3,1.6,0.6c0.5,0.3,1,0.6,1.4,0.6
							c0.6,0,0.7-0.5,0.7-1.3c0.2-2.3,2.1-3.6,3.1-3.6c0.9,0.4,1.2,1,1.3,1.6c0.1,0.6-0.1,1.2-0.4,1.6c-0.2,0.3-0.5,0.4-0.7,0.4l0,0
							c-0.3,0-0.5-0.3-0.5-0.5c0.1-0.7,0.2-1.1,0-1.4c-0.1-0.1-0.3-0.2-0.6-0.2c-0.6,0.5-0.7,1.4-0.5,2.2c0.1,0.8,1.2,1.7,1.8,1.8
							l0.9,0l0.5,0c0.5,0,0.9,0,1,0.3c0.1,0.2,0,0.4-0.1,0.6c-0.3,0.4-1,0.7-2.1,0.7L134,198.1L134,198.1z M130.2,196.5
							c1.6,0,2,0.4,2.5,0.8c0.3,0.3,0.6,0.6,1.3,0.6v0.1l0.2-0.1c1.3-0.1,1.8-0.4,1.9-0.7c0-0.6-0.3-0.6-0.8-0.6l-0.5,0l-0.9,0
							c-0.7-0.1-1.8-1.1-1.9-2c-0.1-0.6-0.2-1.7,0.2-2.2l0.5-0.2c0.4,0,0.6,0.1,0.8,0.3c0.2,0.3,0.2,0.7,0.1,1.1
							c0,1,0.4,0.9,0.9,0.4c0.3-0.4,0.5-0.9,0.4-1.4c-0.1-0.6-0.4-1.1-0.8-1.3c-1.2,0-3.2,1.1-3.3,2.8c0,1.2,0,2-0.8,2l0,0
							c-0.5,0-1.1-0.3-1.6-0.6c-0.5-0.3-1-0.6-1.4-0.6c-0.6,0-0.9,0.3-1,0.5c-0.1,0.2-0.2,0.4-0.2,0.6
							C125.8,196.2,127.2,196.7,130.2,196.5C130.1,196.5,130.1,196.5,130.2,196.5L130.2,196.5z"/>
					</g>
					<path class="st20" d="M137.5,194.2c-0.2,1.4-1.2,1.5-1,2.1c0.1,0.6,0.5,0.8,0.8,2.3c0.1,0.7,1,1,2.2,1c0.9,0,1.6-1.3,2.2-1.3
						c0.9,0,0.2,2,2.2,2c1.6,0,2-1.4,2.6-1.4c0.6,0,0.5,1.6,1.8,1.6c1.3,0,1.9-1.5,2.5-1.5c0.6,0,0.6,1.6,2.6,1.5
						c2-0.1,3.5-0.4,3.9-0.8c0.5-0.4,0.7-1.7,1.3-1.8c0.6-0.1,1.7,1.2,2.6,1.2c0.9,0,2.8-2.3,3.3-2.3c0.6,0,1,1.4,2.3,1.4
						c2,0,2.2-2.7,3.2-2.8c1.7-0.2,1.8-0.9,1.8-1c0.2-0.5,0-2.9-0.4-3.9c-0.2-0.6-2.3-5.4-3.3-5.5c-1-0.1-0.7,1.3-0.1,2.1
						c0.6,0.8,3.5,4.7,3.1,5.8c-0.4,1.1-2.5-0.5-4.1-0.5c-2.3,0-3.7,4.7-5.3,4.8c-0.7,0.1-1.5-0.6-1.2-1.1c0.5-0.7,1-2.4-0.8-2.2
						c-1.8,0.2-3.6,1.1-3.3,2.1c0.3,1,1.4,1.9,0.2,2.3c-1.2,0.4-3.2,0.5-4.2,0.2c-1-0.3-0.4-2.6-1-2.6c-0.7,0-0.7,2.7-1.7,2.7
						c-1,0.1-1.8-0.3-2-1.1c-0.2-0.8,0.4-1.7-0.3-1.8c-0.7-0.1-1.3,3-2.3,2.9c-1-0.1-1-0.3-1.6-0.9c-0.6-0.6,0.5-2.7-0.5-2.9
						c-1-0.2-1.9,3.1-2.6,3.1c-0.7,0-1.6-0.1-1.9-0.7c-0.2-0.3-0.1-2.4-0.1-3.2C138.4,193.6,137.4,193.7,137.5,194.2L137.5,194.2z"
						/>
					<g class="st15">
						<path class="st21" d="M148.2,200.5c-0.9,0-1.2-0.6-1.4-1.1c-0.1-0.3-0.3-0.5-0.4-0.5c-0.2,0-0.4,0.2-0.6,0.4c-0.4,0.4-1,1-2,1
							c-1.3,0-1.5-0.8-1.7-1.3c-0.1-0.4-0.2-0.6-0.5-0.6c-0.1,0.2-0.5,0.2-0.8,0.5c-0.4,0.3-0.8,0.7-1.4,0.8c-1.3,0-2.2-0.4-2.3-1.1
							c-0.1-0.9-0.4-1.4-0.5-1.7c-0.1-0.2-0.2-0.4-0.2-0.6c-0.1-0.3,0.1-0.4,0.3-0.6c0.3-0.3,0.6-0.6,0.7-1.4
							c0.2-0.4,0.5-0.5,0.6-0.5l0.4,0.3c-0.1,1.1-0.1,2.9,0.1,3.1c0.3,0.6,1.1,0.6,1.8,0.7l0,0c0.3,0,0.7-0.7,1-1.3
							c0.5-0.9,1-1.8,1.6-1.8c0.7,0.1,0.6,0.9,0.5,1.6c-0.1,0.5-0.2,1.1,0.1,1.3c0.6,0.7,0.7,0.8,1.5,0.9l0,0c0.5,0,0.9-0.9,1.3-1.6
							c0.4-0.7,0.6-1.3,1-1.3c0.5,0.1,0.5,0.5,0.4,1c0,0.3-0.1,0.6,0,0.9c0.2,0.6,0.8,1,1.7,1c0.7,0,0.9-0.8,1.1-1.5
							c0.2-0.7,0.4-1.2,0.8-1.2c0.4,0,0.4,0.5,0.4,1c0.1,0.7,0.1,1.4,0.6,1.6c0.9,0.3,3.1,0.2,4.2-0.2c0.2-0.1,0.4-0.2,0.4-0.3
							c0.1-0.3-0.1-0.6-0.3-1.1c-0.1-0.3-0.3-0.6-0.4-0.8c-0.1-0.2,0-0.5,0.1-0.7c0.5-0.8,2-1.3,3.3-1.5c0.8,0,1.1,0.1,1.2,0.4
							c0.3,0.6-0.1,1.5-0.4,1.9c0.2,0.8,0.7,1,1,1c0.8-0.1,1.5-1,2.2-2.1c0.9-1.3,1.9-2.8,3.3-2.8c0.7,0,1.4,0.3,2.1,0.5
							c1,0.3,1.7,0.6,1.9,0c0.3-0.9-1.9-4.1-2.8-5.3L168,187c-0.4-0.6-0.7-1.5-0.5-2c0.1-0.1,0.2-0.3,0.5-0.3c1.2,0.1,3.3,5,3.5,5.6
							c0.4,1.1,0.6,3.5,0.4,4c-0.1,0.3-0.3,0.9-1.9,1.1c-0.3,0-0.6,0.5-0.9,1c-0.5,0.8-1.1,1.8-2.3,1.8c-0.8,0-1.3-0.5-1.7-0.9
							c-0.2-0.2-0.4-0.5-0.6-0.5c-0.2,0-0.8,0.5-1.3,0.9c-0.7,0.6-1.6,1.4-2.1,1.4c-0.5,0-1-0.4-1.5-0.7c-0.4-0.3-0.7-0.5-1-0.5
							c-0.4,0-0.6,0.5-0.8,0.9c-0.2,0.3-0.3,0.6-0.5,0.8c-0.5,0.4-1.9,0.7-4,0.8c0,0,0,0,0,0c-1.4,0-1.8-0.6-2.1-1.1
							c-0.2-0.2-0.3-0.4-0.5-0.4c-0.2,0-0.4,0.2-0.7,0.5C149.6,199.9,149,200.5,148.2,200.5L148.2,200.5z M146.4,198.7
							c0.3,0,0.4,0.3,0.6,0.6c0.2,0.5,0.5,1,1.2,1c0.8,0,1.3-0.5,1.7-1c0.3-0.3,0.5-0.6,0.8-0.6c0.3,0,0.5,0.3,0.6,0.5
							c0.3,0.4,0.7,1,1.8,1c2.2-0.1,3.6-0.4,4-0.8c0.2-0.1,0.3-0.4,0.5-0.7c0.2-0.5,0.5-1,0.9-1c0.4,0,0.8,0.3,1.2,0.6
							c0.5,0.3,0.9,0.7,1.4,0.7c0.5,0,1.3-0.7,2-1.3c0.7-0.6,1.1-0.9,1.4-1l0,0c0.3,0,0.5,0.2,0.8,0.5c0.4,0.4,0.8,0.9,1.6,0.9
							c1.2,0,1.7-0.9,2.2-1.7c0.3-0.5,0.6-1,1-1.1c1.5-0.1,1.7-0.7,1.7-0.9c0.2-0.6,0-2.9-0.4-4c-0.2-0.6-2.4-5.3-3.2-5.4
							c-0.7,0.6-0.4,1.4,0,2l0.3,0.4c1.6,2.2,3.1,4.5,2.8,5.4c-0.2,0.6-1.1,0.5-2.2,0.1c-0.7-0.2-1.4-0.5-2-0.5
							c-1.2,0-2.2,1.4-3.1,2.7c-0.7,1.1-1.4,2.1-2.2,2.1c-0.6,0-1-0.2-1.3-0.6c-0.1-0.2-0.2-0.4-0.1-0.6c0.3-0.5,0.6-1.3,0.4-1.8
							c-0.1-0.2-0.4-0.3-0.7-0.3c-1.8,0.2-3.1,0.8-3.5,1.4c-0.1,0.2-0.2,0.4-0.1,0.6c0.1,0.3,0.2,0.5,0.4,0.8
							c0.2,0.4,0.5,0.9,0.3,1.2c-0.1,0.2-0.3,0.3-0.6,0.4c-1.2,0.4-3.3,0.5-4.3,0.2c-0.6-0.2-0.7-1-0.7-1.7
							c-0.1-1.1-0.5-0.7-0.8,0.2c-0.2,0.7-0.5,1.6-1.1,1.6c0,0,0,0,0,0c-1.2,0-1.9-0.5-2.1-1.1c-0.1-0.3-0.1-0.7,0-1
							c0.1-0.5,0.1-0.7-0.2-0.7l0,0c-0.2,0-0.5,0.6-0.8,1.2c-0.4,0.8-0.8,1.7-1.4,1.7c-0.9-0.1-1.1-0.2-1.5-0.7
							c-0.5-0.6-0.4-1.2-0.4-1.7c0.1-0.8,0.1-1.3-0.3-1.4h0c-0.5,0-1,1-1.5,1.7c-0.4,0.8-0.8,1.4-1.1,1.4c-0.7,0-1.7-0.1-2-0.8
							c-0.2-0.4-0.1-3.2-0.1-3.2l-0.6,0c-0.1,1.1-0.5,1.5-0.8,1.7c-0.2,0.2-0.3,0.3-0.3,0.5c0.1,0.2,0.1,0.4,0.2,0.5
							c0.2,0.3,0.4,0.8,0.5,1.7c0.1,0.6,0.8,0.9,1.8,0.9c0.8,0,1.2-0.4,1.5-0.7c0.3-0.3,0.6-0.6,0.9-0.6c0.4,0,0.6,0.4,0.7,0.8
							c0.2,0.6,0.4,1.2,1.5,1.2c1,0,1.5-0.5,1.9-1C145.9,198.9,146.1,198.7,146.4,198.7L146.4,198.7L146.4,198.7z"/>
					</g>
					<path class="st20" d="M170.2,185.4c1.8,2.7,3.4,6.3,4.3,6.5c0.7,0.1-2-4.9-3-6C170.9,184.7,168.7,183,170.2,185.4L170.2,185.4z
						"/>
					<g class="st15">
						<path class="st21" d="M174.6,192L174.6,192c-0.7-0.1-1.6-1.7-2.7-3.6c-0.6-1-1.2-2-1.8-3c-0.6-0.9-0.6-1.1-0.5-1.2
							c0.5-0.1,1.6,1,2.1,1.7c0.7,0.9,3.3,5.5,3,6L174.6,192L174.6,192z M169.8,184.3c0,0,0,0.2,0.5,1c0.6,0.9,1.2,2,1.8,3
							c1,1.7,1.9,3.4,2.5,3.5c0.1-0.4-2.1-4.7-3-5.8C171,185.2,170,184.3,169.8,184.3L169.8,184.3z"/>
					</g>
					<path class="st20" d="M137.3,191.9c-0.3,0.7-0.2,1.3,0.3,1.2c0.5-0.1,1-1.2,0.9-1.4C138.4,191.5,137.7,191.3,137.3,191.9
						L137.3,191.9z"/>
					<g class="st15">
						<path class="st21" d="M137.5,193.2l-0.3-0.2c-0.2-0.2-0.1-0.7,0.1-1.2c0.5-0.9,1.1-0.5,1.3-0.2c-0.2,0.9-0.6,1.5-0.9,1.5
							L137.5,193.2L137.5,193.2z"/>
					</g>
					<path class="st20" d="M175.4,186.6c0,1.5,1,3.1,2.9,3c1.9-0.1,4-2.2,4.2-4.4c0.2-2.2-2.5-3.8-3.2-3.3c-0.7,0.5,0.2,2.1,2,2.2
						c0.7,0,0.5,1.5-0.9,2.6c-1.5,1.2-3.7,1.2-4.2,0.3C175.8,185.9,175.4,185.8,175.4,186.6L175.4,186.6z"/>
					<g class="st15">
						<path class="st21" d="M178.2,189.7c-0.8,0-1.4-0.3-1.9-0.8c-0.6-0.6-0.9-1.4-0.9-2.3l0.1-0.5c0.5-0.1,0.7,0.5,0.8,0.9
							c0.5,0.7,2.8,0.6,4.1-0.4c1.1-0.9,1.4-1.8,1.3-2.2c-1.5-0.3-2.3-1.1-2.5-1.8c-0.1-0.4,0-0.6,0.2-0.8c1-0.1,1.8,0.4,2.4,1
							c0.7,0.7,1,1.5,0.9,2.4c-0.2,2.2-2.3,4.4-4.3,4.5L178.2,189.7L178.2,189.7z M175.6,186.2c-0.1,1.2,0.2,2,0.8,2.6
							c0.5,0.5,1.1,0.7,1.8,0.7v0.1l0.2-0.1c1.9-0.1,3.9-2.2,4.1-4.3c0.1-0.8-0.3-1.5-0.9-2.2c-0.7-0.7-1.5-1.1-1.9-1.1
							c-0.5,0.2-0.4,0.5-0.4,0.7c0.1,0.5,0.9,1.4,2.1,1.4l0.1,0l0.4,0.4c0.2,0.5-0.2,1.6-1.3,2.4c-1.3,1.1-3.8,1.2-4.3,0.3
							C175.8,186.3,175.6,186.2,175.6,186.2L175.6,186.2z"/>
					</g>
					<path class="st20" d="M176.6,182.1c-0.3,0.6,0.3,1.9,0.9,1.8C178.2,183.9,176.8,181.8,176.6,182.1L176.6,182.1z"/>
					<g class="st15">
						<path class="st21" d="M176.6,182.2c-0.1,0.3,0,0.8,0.3,1.3c0.2,0.3,0.4,0.4,0.6,0.4v0.1l0-0.1
							C177.6,183.2,176.8,182.2,176.6,182.2L176.6,182.2z"/>
					</g>
					<path class="st20" d="M182.2,181.1c0.4,0.9,0.8,2.2,1.6,2.2c0.8,0,1.4,0.2,1.4,0.9c0,0.7-2.1,2.9-2.1,3.6
						c-0.1,1.3,0.8,1.2,1.3,0.5c0.5-0.7,1.7-4,1.9-4.9c0.1-0.7,1-2.1,1-3.5c-0.1-1.6,1.4-0.3,2.1-0.2c0.6,0,1.3-1.2,1.4-2
						c0.1-0.8-0.7-1-0.7-1.8c0-0.4,0.8-1.8,0.9-2.7c0.1-0.8-1.6-3.1-2.3-3.1c-0.6,0-0.1,0.9,0.2,1.2s1.2,1.1,0.9,1.8
						c-0.5,1.3-3.2,1.6-3.3,3c-0.1,1,0.1,4.1-0.7,4.1c-0.8,0-1.5-2-2.8-2C181.7,178.4,181.9,180.4,182.2,181.1L182.2,181.1z"/>
					<g class="st15">
						<path class="st21" d="M183.6,188.9l-0.4-0.2c-0.2-0.2-0.2-0.5-0.2-0.9c0-0.4,0.6-1.1,1.1-1.9c0.5-0.7,1-1.4,1-1.7
							c0-0.5-0.4-0.8-1.3-0.8c-0.8,0-1.2-1.1-1.5-1.9c-0.4-0.8-0.5-2-0.1-2.7c0.6-0.9,2-0.1,2.7,0.7c0.3,0.4,0.7,0.8,1,0.8
							c0.5,0,0.5-1.7,0.5-2.9c0-0.5,0-0.9,0-1.2c0.1-0.8,0.9-1.3,1.7-1.7c0.7-0.4,1.4-0.8,1.6-1.3c0.2-0.5-0.4-1.2-0.7-1.6
							c-0.4-0.4-0.8-1-0.6-1.3c0.7-0.2,1.1,0.2,1.4,0.5c0.7,0.7,1.3,1.9,1.3,2.4c0,0.5-0.3,1.2-0.5,1.8c-0.2,0.4-0.3,0.7-0.3,0.9
							c0,0.3,0.2,0.5,0.3,0.7c0.2,0.2,0.4,0.5,0.3,1c-0.1,0.8-0.8,2.1-1.5,2.1c-0.2,0-0.5-0.1-0.8-0.3c-0.3-0.1-0.6-0.3-0.9-0.3
							c-0.3,0.2-0.4,0.4-0.4,0.7c0,0.9-0.4,1.8-0.7,2.5c-0.2,0.4-0.3,0.7-0.4,1c-0.2,0.9-1.5,4.2-1.9,4.9
							C184.3,188.7,183.9,188.9,183.6,188.9L183.6,188.9z M183.1,178.5c-0.4,0-0.6,0.1-0.8,0.4c-0.4,0.6-0.2,1.7,0,2.1
							c0.5,1.1,0.9,2.1,1.5,2.1c1.3,0,1.5,0.5,1.5,1c0,0.4-0.5,1.1-1.1,1.8c-0.5,0.7-1,1.5-1.1,1.8c0,0.5,0.1,0.7,0.2,0.8l0.3,0.1
							c0.2,0,0.5-0.2,0.7-0.5c0.4-0.7,1.7-3.9,1.9-4.8c0-0.3,0.2-0.6,0.4-1c0.3-0.7,0.6-1.5,0.7-2.4c0-0.4,0.1-0.6,0.2-0.7
							c0.6-0.1,1,0,1.3,0.2c0.3,0.1,0.5,0.2,0.7,0.2l0,0c0.6,0,1.2-1.1,1.3-1.9c0.1-0.4-0.1-0.6-0.3-0.9c-0.2-0.2-0.4-0.5-0.4-0.9
							c0-0.2,0.1-0.5,0.3-1c0.2-0.5,0.5-1.2,0.5-1.7c0.1-0.4-0.5-1.5-1.2-2.3c-0.4-0.4-0.7-0.7-0.9-0.7c-0.3,0.3,0,0.8,0.3,1.1
							c0.5,0.6,1.2,1.2,0.9,1.9c-0.3,0.6-1,1-1.7,1.4c-0.8,0.4-1.6,0.9-1.6,1.6c0,0.3,0,0.7,0,1.2c0,1.4-0.1,3.1-0.7,3.1
							c-0.4,0-0.7-0.4-1.1-0.9C184.3,179.1,183.8,178.5,183.1,178.5L183.1,178.5L183.1,178.5z"/>
					</g>
					<path class="st20" d="M184.3,169.1c0,0.6,1.2,3,1.9,3c1,0-0.5-1.2-0.4-1.6c0.1-0.4,1.5-1.1,0.9-1.2
						C185.7,169,184.2,168.4,184.3,169.1L184.3,169.1z"/>
					<g class="st15">
						<path class="st21" d="M186.2,172.2c-0.8,0-2-2.5-2-3.1l0.5-0.4c0.4,0,1,0.2,1.6,0.4l0.5,0.2c0.2,0.3,0,0.5-0.3,0.8
							c-0.2,0.2-0.5,0.4-0.6,0.6c0,0.1,0.2,0.4,0.3,0.6c0.2,0.3,0.5,0.6,0.4,0.8L186.2,172.2L186.2,172.2z M184.7,168.9
							c-0.3,0.8,0.9,3.2,1.5,3.2v0.1l0.2-0.2c0.1-0.1-0.2-0.4-0.3-0.7c-0.2-0.3-0.4-0.6-0.4-0.8c0.1-0.2,0.4-0.4,0.6-0.7
							c0.2-0.1,0.4-0.3,0.4-0.4l-0.6-0.2C185.7,169.1,185.1,168.9,184.7,168.9L184.7,168.9z"/>
					</g>
					<path class="st20" d="M184.2,166c0.2,0.8,3.5,2,4.8,2.4c1.4,0.4,3.1,2.1,3.7,1.5c0.6-0.5-4.3-2.5-5-2.8
						C187.1,166.8,184.1,165.2,184.2,166L184.2,166z"/>
					<g class="st15">
						<path class="st21" d="M192.5,170.1c-0.4,0-1-0.3-1.7-0.7c-0.6-0.4-1.2-0.7-1.7-0.9c-0.9-0.3-4.7-1.5-4.9-2.4
							c0.1,0,0.2-0.1,0.3-0.1c0.2,0.8,3.2,1.9,4.6,2.3c0.6,0.2,1.2,0.5,1.8,0.9c0.6,0.4,1.2,0.7,1.6,0.7V170.1l0.3-0.3
							c-0.1-0.6-3.3-2-5-2.6c-0.2-0.1-0.5-0.2-0.9-0.4c-0.7-0.3-1.6-0.8-2.2-0.9c0.7,0,1.6,0.4,2.3,0.7c0.4,0.2,0.7,0.3,0.8,0.4
							c0.1,0,5,1.9,5.1,2.7L192.5,170.1L192.5,170.1z"/>
					</g>
					<path class="st20" d="M194,171.1c1.2,0,0.5-2.4,0.2-2.9c-0.3-0.6-0.8,1.1-0.7,1.6C193.6,170.2,193.6,171.1,194,171.1L194,171.1
						z"/>
					<g class="st15">
						<path class="st21" d="M194,171.2L194,171.2L194,171.2c-0.4,0-0.5-0.7-0.5-1.2c-0.1-0.6,0.2-1.6,0.4-1.9
							c0.1,0.1,0.1,0.1,0.2,0.2c-0.3,0.3-0.5,1.2-0.5,1.5c0.1,0.6,0.1,1.3,0.4,1.3L194,171.2V171c0.2,0,0.4-0.1,0.5-0.2
							c0.3-0.5,0-1.7-0.2-2.3c0.4,0.7,0.7,1.8,0.4,2.4C194.5,171.1,194.3,171.2,194,171.2L194,171.2z"/>
					</g>
					<path class="st20" d="M186.9,159.2c0,0.5,3.3,0.2,4.9,0.6c0.7,0.2,3,1.4,3.4,1.1c0.5-0.6-3.1-2-5.2-2
						C189.4,158.9,186.9,158.5,186.9,159.2L186.9,159.2z"/>
					<g class="st15">
						<path class="st21" d="M195,161c-0.5,0-1.4-0.4-2.2-0.8c-0.4-0.2-0.8-0.4-1-0.4c-0.7-0.2-1.8-0.2-2.7-0.2
							c-1.5,0-2.2-0.1-2.2-0.4c0-0.7,1.7-0.5,2.5-0.4l0.6,0c1.8,0,4.9,1.1,5.3,1.8L195,161L195,161z M188.2,158.9
							c-1,0-1.1,0.2-1.1,0.3c0,0.2,1.2,0.2,2,0.2c1,0,2.1,0,2.8,0.2c0.2,0.1,0.6,0.2,1,0.4c0.8,0.3,1.7,0.7,2.1,0.7v0.1l0.1-0.1
							c-0.3-0.8-3.3-1.8-5.1-1.8l-0.7,0C189,158.9,188.6,158.9,188.2,158.9L188.2,158.9z"/>
					</g>
					<path class="st20" d="M186.1,160.7c-0.6,0.6,2,1.4,4.4,1.5c2.3,0.1,3.8,1.5,3.6,2.5c-0.3,1.7-3.2,0.6-2.9,1.5
						c0.2,0.7,1.5,0.5,1.6,1.2c0.1,0.8,0.9,0.9,0.9,0c0-0.8,1.8-2,1.8-2.4c-0.1-0.7-1.2-3.3-4-3.5
						C188.7,161.2,186.8,159.9,186.1,160.7L186.1,160.7z"/>
					<g class="st15">
						<path class="st21" d="M193.3,168.2c-0.3,0-0.5-0.2-0.6-0.7c-0.1-0.3-0.4-0.5-0.8-0.6c-0.4-0.1-0.8-0.3-0.9-0.7
							c0.1-0.5,0.5-0.6,1-0.6c0.8,0,1.7-0.1,1.9-1c0.1-0.3-0.1-0.7-0.3-1c-0.5-0.6-1.6-1.3-3.2-1.4c-1.9-0.1-4.3-0.6-4.5-1.2
							c0.6-1.4,1.4-0.7,2.6-0.3c0.8,0.2,1.8,0.5,3,0.7c2.8,0.3,3.9,2.8,4,3.6c0,0.2-0.2,0.4-0.7,0.9c-0.5,0.5-1.1,1.1-1.1,1.5
							c0,0.4-0.1,0.6-0.2,0.7L193.3,168.2L193.3,168.2z M186.8,160.5c-0.3,0-0.5,0.1-0.7,0.3c0.2,0.7,2.3,1.2,4.3,1.3
							c1.7,0.1,2.8,0.8,3.3,1.4c0.3,0.4,0.4,0.8,0.4,1.2c-0.2,1.1-1.3,1.1-2.1,1.2c-0.3,0-0.7,0-0.8,0.2c0.1,0.5,0.4,0.6,0.8,0.7
							c0.4,0.1,0.8,0.3,0.9,0.7c0,0.4,0.2,0.6,0.4,0.6v0.1l0.2-0.2c0.1-0.1,0.1-0.3,0.1-0.5c0-0.5,0.6-1.1,1.1-1.6
							c0.3-0.3,0.6-0.6,0.6-0.8c-0.1-0.8-1.3-3.2-3.9-3.5c-1.2-0.1-2.2-0.4-3-0.7C187.8,160.7,187.2,160.5,186.8,160.5L186.8,160.5z
							"/>
					</g>
					<path class="st14" d="M111.6,177.7c-0.4-0.2-1.7,1-1.2,1.2C111.3,179.5,112.2,178,111.6,177.7L111.6,177.7z"/>
					<g class="st15">
						<path class="st21" d="M110.8,179.1L110.8,179.1l-0.4-0.1c0-0.1,0-0.1,0-0.2L110.8,179.1c0.5,0,0.9-0.5,1-0.9
							c0.1-0.2,0-0.4-0.1-0.5c-0.2,0-0.6,0.2-0.9,0.4c0.3-0.3,0.6-0.5,0.8-0.5c0.3,0.1,0.3,0.3,0.3,0.6
							C111.7,178.6,111.3,179.1,110.8,179.1L110.8,179.1z"/>
					</g>
					<path class="st14" d="M114.5,176.3c-0.6-0.1-1,1.3-0.4,1.4C115.4,177.8,115.7,176.4,114.5,176.3L114.5,176.3z"/>
					<g class="st15">
						<path class="st21" d="M114.3,177.7L114.3,177.7l-0.3,0c-0.2,0-0.3-0.2-0.3-0.5c0-0.4,0.3-0.9,0.7-0.9c0.6,0.1,0.9,0.4,0.9,0.7
							C115.3,177.3,114.9,177.7,114.3,177.7L114.3,177.7z"/>
					</g>
					<path class="st14" d="M184.1,180.1c-0.3,0-1.3,0.4-0.9,1.1c0.3,0.7,1.3,0.7,1.7,0.3C185.3,181.2,185.2,180.1,184.1,180.1
						L184.1,180.1z"/>
					<g class="st15">
						<path class="st21" d="M184.2,181.8c-0.4,0-0.8-0.2-1-0.6c-0.1-0.2-0.1-0.4,0-0.6c0.2-0.3,0.7-0.5,0.9-0.5c0.5,0,0.8,0.2,1,0.6
							c0.1,0.3,0.1,0.7-0.2,0.9C184.8,181.7,184.5,181.8,184.2,181.8L184.2,181.8z M184.1,180.2c-0.2,0-0.7,0.2-0.9,0.5
							c-0.1,0.2-0.1,0.4,0,0.5c0.3,0.6,1.3,0.7,1.7,0.3c0.2-0.2,0.3-0.5,0.2-0.8C185,180.5,184.8,180.2,184.1,180.2L184.1,180.2z"/>
					</g>
					<path class="st14" d="M187.9,177.2c0.1,0.7,0.6,0.6,1.1,0.5c0.5-0.2,0.6-0.9,0.2-1.1C188.7,176.3,187.8,176.7,187.9,177.2
						L187.9,177.2z"/>
					<g class="st15">
						<path class="st21" d="M188.5,177.8c-0.3,0-0.5-0.2-0.5-0.6c0.1-0.1,0.1-0.2,0.1-0.3c-0.1,1.1,0.6,0.8,0.9,0.7
							c0.2-0.1,0.4-0.4,0.4-0.6c0-0.1,0-0.2-0.1-0.3c0.1,0.1,0.1,0.2,0.1,0.3c0,0.3-0.2,0.5-0.5,0.6
							C188.8,177.8,188.6,177.8,188.5,177.8L188.5,177.8z"/>
					</g>
					<path class="st14" d="M166.1,194.4c-0.7,1.4-0.1,2.9,1,2.6c1-0.3,2.1-2.3,1.3-2.9C167.5,193.4,166.5,193.4,166.1,194.4
						L166.1,194.4z"/>
					<g class="st15">
						<path class="st21" d="M166.7,197c-0.3,0-0.6-0.2-0.7-0.4c-0.3-0.5-0.3-1.4,0-2.2c0.4-0.9,1.5-1,2.3-0.3c0.3,0.2,0.3,0.6,0.2,1
							c-0.2,0.8-0.8,1.7-1.5,1.9L166.7,197L166.7,197z M167.2,193.6c-0.5,0-0.9,0.3-1.1,0.8c-0.4,0.8-0.4,1.6,0,2.2
							c0.2,0.3,0.4,0.4,0.7,0.4v0l0.3-0.1c0.7-0.2,1.4-1.1,1.5-1.9c0.1-0.4,0-0.8-0.2-1C168,193.8,167.6,193.6,167.2,193.6
							L167.2,193.6z"/>
					</g>
					<path class="st14" d="M78.3,134.6c-2.4-0.2-7.9-1.3-8.2-0.2c-0.2,1.1,3,14,4.6,15.7c1.7,1.7,9.4,5.2,10.1,4.7
						c0.8-0.4-1.5-8.5-2.4-9.9c-0.9-1.4-3.5-6.6-3.3-6.8C79.4,137.8,78.2,134.6,78.3,134.6L78.3,134.6z"/>
					<path class="st14" d="M73.4,134.1c0.6-3.1,4.2,0.6,3.8,4.7c-0.2,1.4,0.6,2.9,1.3,3.6L73.4,134.1z"/>
					<g class="st15">
						<path d="M78.1,142.8c-0.9-0.9-1.7-2.6-1.5-4.1c0.2-2.7-1.5-5-2.2-5.1c-0.1,0-0.3,0.5-0.4,0.6l-1.2-0.2
							c0.3-1.7,1.4-1.7,1.8-1.6c1.7,0.2,3.6,3.3,3.3,6.5c-0.1,1.2,0.5,2.5,1.2,3.1L78.1,142.8L78.1,142.8z"/>
					</g>
					<path class="st14" d="M76.5,134.3l-0.1,0.2c1.8-3.1,3.6,1.3,3.8,6.3L76.5,134.3z"/>
					<g class="st15">
						<path d="M79.6,140.8c-0.2-3.9-1.3-6.6-2-6.8c-0.2-0.1-0.4,0.1-0.6,0.6l0,0l-0.1,0.2l-1-0.7c0.8-1.3,1.6-1.4,2.1-1.3
							c2,0.5,2.7,5.2,2.9,7.9L79.6,140.8L79.6,140.8z"/>
					</g>
					<path class="st14" d="M70.3,133.8c-0.1-2.5,4-3.2,3.7,5.8c1.8,1.2,3.9,5.5,4,7.1c1.3,0.3,3.6,2,4.1,3.3L70.3,133.8z"/>
					<g class="st15">
						<path d="M81.5,150.3c-0.4-1.1-2.5-2.7-3.7-2.9l-0.5-0.1l0-0.5c-0.1-1.5-2.2-5.6-3.7-6.6l-0.3-0.2l0-0.4
							c0.2-5.5-1.3-6.6-1.6-6.8c-0.2-0.1-0.4-0.1-0.5,0c-0.2,0.1-0.4,0.5-0.4,0.9l-1.2,0.1c0-0.9,0.3-1.7,1-2.1
							c0.6-0.3,1.2-0.3,1.8,0c0.9,0.5,2.3,2.2,2.2,7.5c1.7,1.4,3.5,5,3.9,6.9c1.5,0.5,3.5,2.1,4.1,3.6L81.5,150.3L81.5,150.3z"/>
					</g>
					<path class="st14" d="M80.3,184.1c0.2-6.9,0.3-21.7-0.4-23.3c-1.3-3-7.7-6.4-9.6-11.1c-1.9-4.9-3.6-16.2-2.8-17.6
						c1-2,4.5,2.4,3.6,7.2c4.2,4.9,3.3,7.8,4.1,8.5c2.6,2,6.5,3.3,7.2,5.1c1.4,3.2-0.3-4.5-1.5-6.1c-1.1-1.6-3.1-5-1.8-5.9
						c1.4-0.8,3.8,1.4,4.1,2c0.3,0.6,3.6,4.2,4.5,5c1.7,1.3,5.9,4.1,5.8,6.5c0,3.9,0.3,29.5,0.3,29.5L80.3,184.1z"/>
					<g class="st15">
						<path d="M80.9,184.1l-1.2,0c0.2-8.7,0.2-21.7-0.4-23c-0.5-1.2-2.1-2.6-3.7-4.1c-2.2-2-4.8-4.3-5.9-7
							c-1.8-4.6-3.8-16.4-2.8-18.1c0.4-0.7,1-1,1.8-0.7c1.7,0.6,3.6,4.2,3,8.1c2.8,3.4,3.3,5.9,3.6,7.3c0.1,0.4,0.2,0.8,0.2,0.9
							c0.9,0.7,2.1,1.4,3.2,2c1.2,0.7,2.3,1.3,3.1,2c-0.4-1.6-1-3.4-1.5-4.1c-0.3-0.4-2.7-3.8-2.3-5.7c0.1-0.5,0.3-0.8,0.7-1.1
							c0.3-0.2,0.9-0.4,1.8-0.2c1.4,0.4,2.9,1.8,3.2,2.4c0.3,0.5,3.4,3.9,4.3,4.8l0.5,0.4c2.1,1.5,5.6,4.1,5.5,6.6
							c0,3.9,0.3,29.5,0.3,29.5l-1.2,0c0,0-0.3-25.6-0.3-29.5c0.1-1.9-3.3-4.3-5-5.5l-0.6-0.4c-0.9-0.8-4.3-4.5-4.7-5.2
							c-0.2-0.3-1.4-1.5-2.4-1.8c-0.3-0.1-0.6-0.1-0.8,0c-0.3,1.2,0.8,3.4,1.9,5c0.8,1.1,2.5,6.6,2,7.5l-0.2,0.3l-0.4,0
							c-0.5,0-0.7-0.5-1-1.1c-0.4-0.9-2-1.9-3.7-2.8c-1.1-0.7-2.4-1.3-3.4-2.1c-0.4-0.3-0.5-0.9-0.7-1.6c-0.3-1.4-0.7-3.7-3.5-7
							l-0.2-0.2l0.1-0.3c0.7-3.5-1.2-6.6-2.1-6.9c-0.8,1.2,0.5,11.9,2.6,17.2c1,2.5,3.5,4.7,5.6,6.6c1.8,1.6,3.4,3.1,4,4.5
							C81.3,162.5,81,179.6,80.9,184.1L80.9,184.1z"/>
					</g>
					<path class="st14" d="M79.5,193.2c0,0,0,2.8,0,2.8c1.2,1.5,6.2,1.6,7.4,1.6c1.1,0,5.8,0,6.9-1.8c0-0.1,0.1-2.4,0.1-3
						L79.5,193.2z"/>
					<g class="st15">
						<path d="M87,198.3c-1.4,0-6.6-0.1-8-1.8l-0.1-3.2l1.2,0l0,2.8c0.7,0.6,4.4,0.9,6.7,1c3.8-0.1,5.9-0.6,6.4-1.5
							c-0.1,0,0-2.1,0-2.7h1.2c0,0.9,0,3-0.1,3.3c-1.1,1.8-4.4,2.1-7.1,2.1C87.2,198.3,87.1,198.3,87,198.3L87,198.3z"/>
					</g>
					<path class="st14" d="M79.3,189.1c-1.4,0.3-1.8,2-0.8,3.3c0.8,1,4.1,2.2,7.9,2.2c3.8,0.1,8.8-1.2,9.1-3.3
						c0.1-2.1-1.9-2-1.7-1.9L79.3,189.1z"/>
					<g class="st15">
						<path d="M86.7,195.2c-0.1,0-0.2,0-0.3,0c-3.7-0.1-7.3-1.2-8.4-2.5c-0.6-0.8-0.9-1.9-0.5-2.8c0.3-0.8,0.9-1.3,1.7-1.5l0.3,1.2
							c-0.5,0.1-0.7,0.4-0.8,0.7c-0.2,0.5,0,1.1,0.4,1.6c0.6,0.8,3.8,1.9,7.4,2c3.9-0.1,8.3-1.3,8.4-2.8c0-0.4-0.1-0.7-0.3-1
							c-0.2-0.2-0.4-0.3-0.6-0.3l-0.1-0.6l-0.2,0.6l-0.4-0.7l0.8-0.4l0,0l0.2-0.1c0.9,0.1,2,0.9,1.9,2.5
							C95.8,193.9,90.6,195.2,86.7,195.2L86.7,195.2z"/>
					</g>
					<path class="st14" d="M79.3,185.2c-1.4,0.3-1.7,2.1-0.7,3.3c0.8,1,4.2,2.4,7.9,2.5c3.8,0.1,8.6-1.5,8.8-3.6
						c0.1-2.1-1.4-1.9-1.5-1.9L79.3,185.2z"/>
					<g class="st15">
						<path d="M86.8,191.7c-0.1,0-0.2,0-0.3,0c-3.8-0.1-7.5-1.5-8.4-2.7c-0.7-0.9-0.9-2-0.6-2.9c0.3-0.7,0.8-1.2,1.6-1.4l0.3,1.2
							c-0.3,0.1-0.6,0.3-0.7,0.6c-0.2,0.5,0,1.2,0.4,1.7c0.6,0.7,3.7,2.2,7.5,2.2c3.9,0,8-1.5,8.2-3c0-0.5-0.1-0.9-0.3-1.1l-0.8-1.3
							c0.3-0.1,0.9-0.2,1.5,0.2c0.4,0.3,0.9,0.9,0.9,2.2C95.7,190.1,90.6,191.7,86.8,191.7L86.8,191.7z"/>
					</g>
					<path class="st14" d="M87.2,187.4c5,0.1,8.3-2.4,8.3-3.7c0-1.3-1.6-1.4-2.6-1c-1,0.4-2.6,1.4-5.8,1.4c-3.3,0.1-6.3-2.3-7.3-2.2
						c-1,0.1-1.8,1.2-1.5,2.3C78.7,185.3,82.2,187.5,87.2,187.4L87.2,187.4z"/>
					<g class="st15">
						<path d="M86.7,188c-4.7,0-8.5-2.2-9-3.7c-0.2-0.8-0.1-1.6,0.3-2.2c0.4-0.6,1-0.9,1.7-1c0.7,0.2,1.2,0.3,2.1,0.7
							c1.3,0.6,3.1,1.5,5,1.5c2.8,0,4.2-0.7,5.2-1.1l0.6-0.3c1.6-0.6,3.5,0.1,3.5,1.6c0,1.7-3.5,4.3-8.7,4.3L86.7,188L86.7,188z
							 M79.8,182.4c-0.3,0-0.5,0.2-0.7,0.5c-0.2,0.3-0.3,0.7-0.2,1.1c0.2,0.6,3.1,2.8,7.8,2.8v0.6l0.5-0.6h0c5,0,7.7-2.3,7.7-3.1
							c0-0.1,0-0.6-0.9-0.6c-0.3,0-0.6,0.1-0.9,0.2l-0.5,0.2c-1.1,0.5-2.7,1.2-5.5,1.2h0c-2.4,0-4.3-0.9-5.8-1.6
							C80.7,182.7,80,182.4,79.8,182.4L79.8,182.4z"/>
					</g>
					<path class="st14" d="M221.7,134.6c2.4-0.2,7.9-1.3,8.2-0.2c0.2,1.1-3,14-4.6,15.7c-1.7,1.7-9.4,5.2-10.1,4.7
						c-0.8-0.4,1.5-8.5,2.4-9.9c0.9-1.4,3.5-6.6,3.3-6.8C220.6,137.8,221.8,134.6,221.7,134.6L221.7,134.6z"/>
					<path class="st14" d="M226.6,134.1c-0.6-3.1-4.2,0.6-3.8,4.7c0.2,1.4-0.6,2.9-1.3,3.6L226.6,134.1z"/>
					<g class="st15">
						<path d="M221.8,142.8L221,142c0.7-0.7,1.3-2,1.2-3.1c-0.3-3.2,1.6-6.3,3.3-6.5c0.3,0,1.4-0.1,1.8,1.6l-1.2,0.2
							c0-0.2-0.1-0.6-0.4-0.6c-0.8,0.1-2.5,2.4-2.2,5.1C223.5,140.2,222.7,141.9,221.8,142.8L221.8,142.8z"/>
					</g>
					<path class="st14" d="M223.5,134.3l0.1,0.2c-1.8-3.1-3.6,1.3-3.8,6.3L223.5,134.3z"/>
					<g class="st15">
						<path d="M220.4,140.8l-1.2-0.1c0.1-2.7,0.9-7.4,2.9-7.9c0.5-0.1,1.3,0,2.1,1.3l-1,0.7l0.2-0.2l-0.2,0.1
							c-0.3-0.5-0.6-0.8-0.7-0.7C221.7,134.2,220.6,136.9,220.4,140.8L220.4,140.8z"/>
					</g>
					<path class="st14" d="M229.7,133.8c0.1-2.5-4-3.2-3.7,5.8c-1.8,1.2-3.9,5.5-4,7.1c-1.3,0.3-3.6,2-4.1,3.3L229.7,133.8z"/>
					<g class="st15">
						<path d="M218.5,150.3l-1.2-0.5c0.6-1.4,2.6-3,4.1-3.6c0.4-1.9,2.2-5.6,3.9-6.9c-0.1-5.4,1.3-7,2.2-7.5c0.6-0.4,1.3-0.4,1.8,0
							c0.6,0.4,1,1.2,1,2.1l-1.2-0.1c0-0.4-0.1-0.8-0.4-0.9c-0.2-0.1-0.3-0.1-0.5,0c-0.3,0.2-1.7,1.3-1.6,6.8l0,0.4l-0.3,0.2
							c-1.5,1-3.6,5.2-3.7,6.6l0,0.5l-0.5,0.1C221,147.6,218.9,149.2,218.5,150.3L218.5,150.3z"/>
					</g>
					<path class="st14" d="M219.7,184.1c-0.2-6.9-0.3-21.7,0.4-23.3c1.3-3,7.7-6.4,9.6-11.1c2-4.9,3.6-16.2,2.8-17.6
						c-1-2-4.5,2.4-3.6,7.2c-4.2,4.9-3.3,7.8-4.1,8.5c-2.6,2-6.5,3.3-7.2,5.1c-1.4,3.2,0.3-4.5,1.5-6.1c1.2-1.6,3.1-5,1.8-5.9
						c-1.4-0.8-3.8,1.4-4.1,2c-0.3,0.6-3.6,4.2-4.5,5c-1.7,1.3-5.9,4.1-5.8,6.5c0,3.9-0.3,29.5-0.3,29.5L219.7,184.1z"/>
					<g class="st15">
						<path d="M219.1,184.1c-0.1-4.5-0.4-21.6,0.5-23.6c0.6-1.4,2.2-2.8,4-4.5c2.1-1.9,4.6-4.1,5.6-6.6c2.1-5.2,3.4-15.9,2.9-17
							c-1.2,0.2-3.1,3.3-2.4,6.8l0.1,0.3l-0.2,0.2c-2.8,3.3-3.2,5.6-3.5,6.9c-0.1,0.7-0.3,1.3-0.7,1.6c-1,0.8-2.2,1.5-3.4,2.1
							c-1.6,0.9-3.3,1.9-3.6,2.8c-0.3,0.7-0.6,1.1-1,1.2l-0.4,0l-0.2-0.4c-0.5-0.9,1.2-6.4,2-7.5c1.2-1.6,2.3-3.8,2.1-4.7
							c-0.3-0.4-0.6-0.4-0.9-0.3c-1.1,0.3-2.2,1.5-2.4,1.8c-0.4,0.8-3.8,4.4-4.6,5.2l-0.6,0.5c-1.6,1.2-5,3.7-5,5.5
							c0,3.9-0.3,29.5-0.3,29.5l-1.2,0c0,0,0.3-25.6,0.3-29.5c-0.1-2.5,3.4-5,5.5-6.5l0.6-0.4c1-0.9,4.1-4.3,4.3-4.8
							c0.3-0.6,1.8-2,3.2-2.4c0.9-0.2,1.4,0,1.8,0.2c0.4,0.2,0.6,0.6,0.7,1.1c0.4,1.9-2,5.3-2.3,5.7c-0.5,0.6-1.1,2.5-1.5,4.1
							c0.8-0.7,1.9-1.3,3.1-2c1.1-0.6,2.3-1.3,3.2-2c0.1-0.1,0.1-0.5,0.2-0.9c0.3-1.4,0.8-3.9,3.6-7.3c-0.6-3.9,1.3-7.5,3-8.1
							c0.7-0.2,1.4,0,1.8,0.7c1,1.7-1,13.5-2.8,18.1c-1.1,2.7-3.7,5-5.9,7c-1.6,1.5-3.2,2.9-3.7,4.1c-0.6,1.3-0.6,14.3-0.4,23.1
							L219.1,184.1L219.1,184.1z"/>
					</g>
					<path class="st14" d="M220.5,193.2c0,0,0,2.8,0,2.8c-1.2,1.5-6.2,1.6-7.4,1.6c-1.1,0-5.8,0-7-1.8c0-0.1-0.1-2.4-0.1-3
						L220.5,193.2z"/>
					<g class="st15">
						<path d="M213.2,198.3C213.2,198.3,213.2,198.3,213.2,198.3c-3.2-0.1-6.5-0.3-7.5-2.1c-0.1-0.3-0.1-2.4-0.1-3.3h1.2
							c0,0.6,0,2.7,0.1,2.9c0.5,0.7,2.5,1.2,6,1.2c2.8,0,6.4-0.4,7.2-1.4l-0.2-2.4l1.2,0l0,2.8C219.5,198.2,214.1,198.3,213.2,198.3
							L213.2,198.3z"/>
					</g>
					<path class="st14" d="M220.7,189.1c1.4,0.3,1.8,2,0.8,3.3c-0.8,1-4.1,2.2-7.9,2.2c-3.8,0.1-8.8-1.2-9.1-3.3
						c-0.1-2.1,1.9-2,1.7-1.9L220.7,189.1z"/>
					<g class="st15">
						<path d="M213.2,195.2c-3.9,0-9.1-1.3-9.4-3.9c-0.1-1.7,1-2.5,1.9-2.6l0.6-0.1l0.5,1.1l-0.5,0.2l-0.2-0.6l-0.1,0.6
							c-0.1-0.1-0.4,0-0.6,0.3c-0.2,0.2-0.3,0.6-0.3,1c0.2,1.4,4.4,2.7,8.4,2.7c3.7-0.1,6.8-1.2,7.4-2c0.4-0.5,0.5-1.1,0.4-1.6
							c-0.1-0.2-0.3-0.6-0.8-0.7l0.3-1.2c0.8,0.2,1.4,0.7,1.7,1.5c0.3,0.9,0.1,2-0.5,2.8c-1,1.3-4.7,2.4-8.4,2.5
							C213.5,195.2,213.4,195.2,213.2,195.2L213.2,195.2z"/>
					</g>
					<path class="st14" d="M220.7,185.2c1.4,0.3,1.7,2.1,0.7,3.3c-0.8,1-4.2,2.4-8,2.5c-3.8,0.1-8.6-1.5-8.8-3.6
						c-0.1-2.1,1.4-1.9,1.5-1.9L220.7,185.2z"/>
					<g class="st15">
						<path d="M213.2,191.7c-3.7,0-8.9-1.5-9.2-4.1c-0.1-1.4,0.4-2,0.9-2.3c0.5-0.4,1.2-0.3,1.5-0.2l-0.5,1.1
							c-0.5,0.3-0.6,0.7-0.6,1.3c0.2,1.5,4.3,2.9,8.2,3c3.8-0.1,6.9-1.5,7.5-2.2c0.4-0.5,0.6-1.2,0.4-1.7c-0.1-0.3-0.3-0.5-0.7-0.6
							l0.3-1.2c0.8,0.2,1.3,0.7,1.6,1.4c0.3,0.9,0.1,2-0.6,2.9c-1,1.2-4.6,2.6-8.4,2.7C213.4,191.7,213.3,191.7,213.2,191.7
							L213.2,191.7z"/>
					</g>
					<path class="st14" d="M212.8,187.4c-5,0.1-8.3-2.4-8.3-3.7c0-1.3,1.6-1.4,2.6-1c1,0.4,2.6,1.4,5.8,1.4c3.3,0.1,6.3-2.3,7.3-2.2
						c1,0.1,1.8,1.2,1.5,2.3C221.3,185.3,217.8,187.5,212.8,187.4L212.8,187.4z"/>
					<g class="st15">
						<path d="M213.3,188l-0.5,0h0c-2.5,0-4.7-0.5-6.4-1.4c-1.6-0.9-2.5-1.9-2.5-2.9c0-1.5,1.9-2.2,3.5-1.6l0.6,0.3
							c1,0.4,2.4,1.1,5,1.1h0c2.1,0,3.9-0.9,5.2-1.5c0.9-0.4,1.5-0.7,2-0.7c0.8,0.1,1.4,0.4,1.8,1c0.4,0.6,0.6,1.4,0.4,2.1
							C221.8,185.8,218,188,213.3,188L213.3,188z M206,183.1c-0.9,0-0.9,0.4-0.9,0.6c0,0.3,0.5,1,1.9,1.8c1.5,0.8,3.5,1.3,5.6,1.3
							l0.7,0c4.7,0,7.6-2.2,7.8-2.8c0.1-0.3,0-0.7-0.2-1c-0.2-0.3-0.5-0.4-0.7-0.5c-0.2,0-0.9,0.3-1.5,0.6c-1.4,0.7-3.4,1.6-5.6,1.6
							c-3,0-4.6-0.7-5.7-1.2l-0.5-0.2C206.7,183.1,206.3,183.1,206,183.1L206,183.1z"/>
					</g>
				</g>
			</g>
		</g>
	</g>
	<g class="st0">
		<g>
			<defs>
				<rect id="SVGID_17_" x="1.1" width="514.3" height="300"/>
			</defs>
			<clipPath id="SVGID_18_">
				<use xlink:href="#SVGID_17_"  style="overflow:visible;"/>
			</clipPath>
			<rect x="1.1" class="st24" width="514.3" height="300"/>
			<rect x="1.1" y="100" class="st25" width="514.3" height="200"/>
			<rect x="1.1" y="200" class="st26" width="514.3" height="100"/>
		</g>
	</g>
	<g class="st0">
		<g>
			<defs>
				<rect id="SVGID_19_" x="-107.2" y="0.3" width="514.4" height="300.1"/>
			</defs>
			<clipPath id="SVGID_20_">
				<use xlink:href="#SVGID_19_"  style="overflow:visible;"/>
			</clipPath>
			<rect x="-107.2" y="0.3" class="st27" width="514.4" height="300.1"/>
			<rect x="-107.2" y="150.4" class="st28" width="514.4" height="150"/>
			<polygon class="st29" points="168.2,156.3 197.6,134.9 161.2,134.9 150,100.3 138.8,134.9 102.4,134.9 131.8,156.3 120.6,190.8 
				150,169.5 179.4,190.8 			"/>
		</g>
	</g>
	<g class="st0">
		<g>
			<defs>
				<rect id="SVGID_21_" x="-106.4" y="0.4" width="512.8" height="299.2"/>
			</defs>
			<clipPath id="SVGID_22_">
				<use xlink:href="#SVGID_21_"  style="overflow:visible;"/>
			</clipPath>
			<polygon class="st30" points="366.5,0.4 -66.5,0.4 150,126.7 			"/>
			<polygon class="st30" points="-66.5,299.6 366.6,299.6 150,173.3 			"/>
			<polygon class="st31" points="406.4,276.3 406.4,23.7 189.9,150 			"/>
			<polygon class="st31" points="-106.4,276.3 110.1,150 -106.4,23.7 			"/>
			<g class="st32">
				<defs>
					<rect id="SVGID_23_" x="-106.4" y="0.4" width="512.8" height="299.2"/>
				</defs>
				<clipPath id="SVGID_24_">
					<use xlink:href="#SVGID_23_"  style="overflow:visible;"/>
				</clipPath>
				<path class="st33" d="M406.4,0.4h-39.9L212.1,90.5c-15.8-15.6-37.8-25.3-62.1-25.3c-24.3,0-46.3,9.7-62.1,25.3L-66.5,0.4h-39.9
					v23.3l173.2,101c-2.6,8-4,16.5-4,25.3c0,8.8,1.4,17.3,4,25.3l-173.2,101v23.3h39.9l154.5-90.1c15.8,15.6,37.8,25.3,62.1,25.3
					c24.3,0,46.3-9.7,62.1-25.3l154.5,90.1h39.9v-23.3l-173.2-101c2.6-8,3.9-16.5,3.9-25.3c0-8.8-1.4-17.3-3.9-25.3l173.2-101V0.4z"
					/>
				<polygon class="st34" points="155.8,96.2 150,86.2 144.2,96.2 132.7,96.2 138.5,106.1 132.7,116.1 144.2,116.1 150,126.1 
					155.8,116.1 167.3,116.1 161.5,106.1 167.3,96.2 				"/>
				<polygon class="st34" points="199.5,171.9 205.3,162 193.7,162 188,152 182.2,162 170.7,162 176.5,171.9 170.7,181.9 
					182.2,181.9 188,191.9 193.7,181.9 205.3,181.9 				"/>
				<polygon class="st34" points="117.8,162 112,152 106.2,162 94.7,162 100.5,171.9 94.7,181.9 106.2,181.9 112,191.9 117.8,181.9 
					129.3,181.9 123.5,171.9 129.3,162 				"/>
				<polygon class="st35" points="154.7,97.9 150,89.8 145.3,97.9 135.8,97.9 140.6,106.1 135.8,114.3 145.3,114.3 150,122.5 
					154.7,114.3 164.2,114.3 159.4,106.1 164.2,97.9 				"/>
				<polygon class="st35" points="197.4,171.9 202.2,163.8 192.7,163.8 188,155.6 183.3,163.8 173.8,163.8 178.5,171.9 173.8,180.1 
					183.3,180.1 188,188.3 192.7,180.1 202.2,180.1 				"/>
				<polygon class="st35" points="116.7,163.8 112,155.6 107.3,163.8 97.8,163.8 102.6,171.9 97.8,180.1 107.3,180.1 112,188.3 
					116.7,180.1 126.2,180.1 121.4,171.9 126.2,163.8 				"/>
			</g>
		</g>
	</g>
</g>
</svg>
