<?xml version="1.0" encoding="utf-8"?>
<!-- Generator: Adobe Illustrator 22.1.0, SVG Export Plug-In . SVG Version: 6.00 Build 0)  -->
<svg version="1.1" xmlns="http://www.w3.org/2000/svg" xmlns:xlink="http://www.w3.org/1999/xlink" x="0px" y="0px"
	 viewBox="0 0 300 300" style="enable-background:new 0 0 300 300;" xml:space="preserve">
<style type="text/css">
	.st0{clip-path:url(#SVGID_2_);}
	.st1{clip-path:url(#SVGID_4_);fill:#FFFFFF;}
	.st2{clip-path:url(#SVGID_4_);fill:#3E9937;}
	.st3{clip-path:url(#SVGID_4_);fill:#E90020;}
	.st4{clip-path:url(#SVGID_4_);}
	.st5{clip-path:url(#SVGID_6_);}
	.st6{fill:#F5CC28;}
	.st7{clip-path:url(#SVGID_6_);fill:#F5CC28;}
	.st8{clip-path:url(#SVGID_8_);fill:#FFFFFF;}
	.st9{clip-path:url(#SVGID_8_);fill:#2530A9;}
	.st10{clip-path:url(#SVGID_8_);fill:#C22623;}
	.st11{clip-path:url(#SVGID_10_);fill:#CB1D23;}
	.st12{clip-path:url(#SVGID_10_);fill:#F7DE29;}
</style>
<g id="Layer_2">
</g>
<g id="Layer_1">
	<g>
		<defs>
			<rect id="SVGID_1_" width="300" height="300"/>
		</defs>
		<clipPath id="SVGID_2_">
			<use xlink:href="#SVGID_1_"  style="overflow:visible;"/>
		</clipPath>
		<g class="st0">
			<g>
				<defs>
					<rect id="SVGID_3_" width="515" height="300.4"/>
				</defs>
				<clipPath id="SVGID_4_">
					<use xlink:href="#SVGID_3_"  style="overflow:visible;"/>
				</clipPath>
				<rect class="st1" width="515" height="300.4"/>
				<rect class="st2" width="515" height="177.5"/>
				<rect y="204.5" class="st3" width="515" height="95.9"/>
				<rect class="st1" width="41.7" height="300.4"/>
				<g class="st4">
					<defs>
						<rect id="SVGID_5_" width="515" height="300.4"/>
					</defs>
					<clipPath id="SVGID_6_">
						<use xlink:href="#SVGID_5_"  style="overflow:visible;"/>
					</clipPath>
					<g class="st5">
						<path class="st6" d="M21.3,150.4c-0.6,0-1.3,0-1.9-0.1c-4-0.6-7.6-3-9.7-6.6c-4.7-7.8-2.8-17.4,5-26.4l10.8-10.4
							c4.1-4.7,10.2-14.1,4.6-23.3c-1.8-2.9-4.6-4.9-7.9-5.3c-3.1-0.4-6.2,0.5-8.4,2.5c-3.6,3.4-5.7,9.1-2.5,13.5
							c1.5,2.1,3.9,3.3,6.1,3.2c2,0,3.7-1,4.7-2.6c1-1.5,1.2-3.3,0.6-4.8c-0.5-1.3-1.6-2.2-2.9-2.6c-0.7-0.2-1.1-0.9-1-1.6
							c0.2-0.7,0.9-1.1,1.6-1c2.1,0.5,3.9,2.1,4.7,4.1c0.9,2.3,0.6,4.9-0.9,7.1c-1.5,2.3-4,3.7-6.9,3.8c-0.1,0-0.1,0-0.2,0
							c-3.1,0-6.1-1.6-8.1-4.3c-3.6-5-2.4-12.1,2.8-17c2.8-2.6,6.7-3.8,10.6-3.2c4.1,0.6,7.6,3,9.8,6.6c4.7,7.8,2.8,17.4-5,26.4
							L16.5,119c-4.1,4.7-10.2,14.1-4.6,23.3c1.7,2.9,4.6,4.9,7.9,5.3c3.1,0.5,6.2-0.5,8.5-2.5c3.6-3.4,5.7-9.1,2.5-13.5
							c-1.5-2.1-3.8-3.3-6.1-3.2c-2,0-3.7,1-4.7,2.6c-1,1.5-1.2,3.3-0.6,4.8c0.5,1.3,1.6,2.2,2.9,2.5c0.7,0.2,1.1,0.9,1,1.6
							c-0.2,0.7-0.9,1.1-1.6,1c-2.1-0.5-3.8-2-4.7-4.1c-0.9-2.3-0.6-4.9,0.9-7.2c1.5-2.3,4-3.7,6.9-3.8c3.3,0.1,6.3,1.5,8.3,4.3
							c3.6,5,2.4,12.1-2.8,17C27.6,149.2,24.5,150.4,21.3,150.4L21.3,150.4z"/>
					</g>
					<g class="st5">
						<path class="st6" d="M21.3,299.8c-0.6,0-1.3,0-1.9-0.1c-4-0.6-7.6-3-9.7-6.6c-4.7-7.8-2.9-17.4,5-26.4l10.8-9.9
							c4-4.7,10.2-14,4.6-23.3c-1.8-2.9-4.6-4.9-7.9-5.3c-3.1-0.4-6.2,0.5-8.4,2.5c-3.7,3.4-5.7,9.1-2.5,13.5
							c1.5,2.1,3.7,3.2,6.1,3.2c2-0.1,3.7-1,4.7-2.6c1-1.5,1.2-3.3,0.6-4.8c-0.5-1.3-1.6-2.2-2.9-2.6c-0.7-0.2-1.1-0.9-1-1.6
							c0.2-0.7,0.9-1.1,1.6-1c2.1,0.5,3.9,2.1,4.7,4.1c0.9,2.3,0.6,4.9-0.9,7.2c-1.5,2.3-4,3.7-6.9,3.8c-2.9,0.1-6.3-1.5-8.3-4.3
							c-3.6-5-2.4-12.1,2.8-17c2.8-2.6,6.7-3.8,10.6-3.2c4,0.6,7.6,3,9.8,6.6c4.7,7.8,2.9,17.4-5,26.4l-10.8,9.9
							c-4,4.7-10.2,14-4.6,23.3c1.7,2.9,4.6,4.8,7.9,5.3c3.1,0.5,6.2-0.5,8.5-2.5c3.6-3.4,5.7-9.1,2.5-13.5
							c-1.5-2.1-3.8-3.4-6.1-3.2c-2,0-3.7,1-4.7,2.6c-1,1.5-1.2,3.3-0.6,4.8c0.5,1.3,1.6,2.2,2.9,2.5c0.7,0.2,1.1,0.9,1,1.6
							c-0.2,0.7-0.9,1.1-1.6,1c-2.1-0.5-3.8-2-4.7-4.1c-0.9-2.3-0.6-4.9,0.9-7.2c1.5-2.3,4-3.7,6.9-3.8c3.3,0,6.3,1.5,8.3,4.3
							c3.6,5,2.4,12.1-2.8,17C27.6,298.7,24.5,299.8,21.3,299.8L21.3,299.8z"/>
					</g>
					<g class="st5">
						<path class="st6" d="M20.6,75.6c-3.2,0-6.3-1.2-8.7-3.3c-5.2-4.9-6.4-12-2.8-17c1.9-2.7,4.9-4.3,8.1-4.3c0.1,0,0.1,0,0.2,0
							c2.8,0.1,5.3,1.4,6.9,3.8c1.5,2.2,1.8,4.8,0.9,7.1c-0.8,2.1-2.6,3.6-4.7,4.1c-0.7,0.2-1.4-0.3-1.6-1c-0.2-0.7,0.3-1.4,1-1.6
							c1.3-0.3,2.3-1.2,2.9-2.6c0.6-1.5,0.4-3.2-0.6-4.8c-1.1-1.6-2.7-2.6-4.7-2.6c-2.2-0.1-4.6,1.1-6.1,3.2
							c-3.2,4.4-1.2,10.2,2.5,13.5c2.2,2.1,5.3,3,8.4,2.5c3.3-0.5,6.1-2.4,7.9-5.3c5.5-9.2-0.6-18.6-4.7-23.4L14.7,33.7
							C6.8,24.6,4.9,15,9.6,7.2c2.2-3.6,5.7-6,9.7-6.6c3.9-0.6,7.8,0.6,10.6,3.2c5.2,4.9,6.4,12,2.8,17c-2,2.8-5,4.4-8.3,4.3
							c-2.8-0.1-5.3-1.5-6.9-3.8c-1.5-2.2-1.8-4.8-0.9-7.1c0.8-2.1,2.6-3.6,4.7-4.1c0.7-0.2,1.4,0.3,1.6,1c0.2,0.7-0.3,1.4-1,1.6
							c-1.3,0.3-2.3,1.2-2.9,2.5c-0.6,1.5-0.4,3.2,0.6,4.8c1.1,1.6,2.7,2.6,4.7,2.6c2.2,0.1,4.6-1.1,6.1-3.2
							c3.2-4.4,1.2-10.1-2.5-13.5c-2.2-2.1-5.3-3-8.4-2.5c-3.3,0.5-6.1,2.4-7.9,5.3c-5.5,9.2,0.6,18.6,4.7,23.4l10.7,10.4
							c7.9,9.1,9.7,18.8,5.1,26.5c-2.2,3.6-5.7,6-9.8,6.6C21.9,75.5,21.2,75.6,20.6,75.6L20.6,75.6z"/>
					</g>
					<g class="st5">
						<path class="st6" d="M20.6,225c-3.2,0-6.3-1.2-8.7-3.3c-5.2-4.9-6.4-12-2.8-17c2-2.8,5-4.4,8.3-4.3c2.8,0.1,5.3,1.4,6.9,3.8
							c1.5,2.2,1.8,4.9,0.9,7.2c-0.8,2.1-2.6,3.6-4.7,4.1c-0.7,0.2-1.4-0.3-1.6-1c-0.2-0.7,0.3-1.4,1-1.6c1.3-0.3,2.3-1.2,2.9-2.6
							c0.6-1.5,0.4-3.2-0.6-4.8c-1-1.6-2.8-2.6-4.7-2.6c-2.7-0.2-4.6,1.1-6.1,3.2c-3.2,4.4-1.2,10.2,2.5,13.5c2.2,2.1,5.3,3,8.4,2.5
							c3.3-0.5,6.1-2.4,7.9-5.3c5.5-9.2-0.6-18.6-4.7-23.4l-10.6-9.8c-7.9-9.1-9.8-18.8-5.1-26.5c2.2-3.6,5.7-6,9.8-6.6
							c3.9-0.6,7.8,0.6,10.6,3.2c5.2,4.9,6.4,12,2.8,17c-2,2.8-5,4.3-8.3,4.3c-2.8-0.1-5.3-1.5-6.9-3.8c-1.5-2.2-1.8-4.9-0.9-7.2
							c0.8-2.1,2.6-3.6,4.7-4.1c0.7-0.1,1.4,0.3,1.6,1c0.2,0.7-0.3,1.4-1,1.6c-1.3,0.3-2.3,1.2-2.9,2.5c-0.6,1.5-0.4,3.2,0.6,4.8
							c1.1,1.6,2.7,2.6,4.7,2.6c2.3,0.2,4.6-1.1,6.1-3.2c3.2-4.4,1.2-10.1-2.5-13.5c-2.2-2.1-5.3-3-8.4-2.5
							c-3.3,0.5-6.1,2.4-7.9,5.3c-5.5,9.2,0.6,18.6,4.7,23.4l10.6,9.8c7.9,9.1,9.7,18.8,5.1,26.5c-2.2,3.6-5.7,6-9.8,6.6
							C21.9,224.9,21.2,225,20.6,225L20.6,225z"/>
					</g>
					<polygon class="st7" points="9.7,75.5 20.8,74.6 32,75.5 20.9,76.5 					"/>
					<g class="st5">
						<path class="st6" d="M20.9,77.4C20.8,77.4,20.8,77.4,20.9,77.4l-11.2-1c-0.5,0-0.8-0.4-0.8-0.9s0.3-0.8,0.8-0.9l11.1-1
							L32,74.6c0.4,0,0.8,0.4,0.8,0.9c0,0.5-0.3,0.8-0.8,0.9L20.9,77.4C20.9,77.4,20.9,77.4,20.9,77.4L20.9,77.4z"/>
					</g>
					<polygon class="st7" points="9.7,150.4 20.8,149.5 32,150.4 20.9,151.4 					"/>
					<g class="st5">
						<path class="st6" d="M20.9,152.3C20.8,152.3,20.8,152.3,20.9,152.3l-11.2-1c-0.5,0-0.8-0.4-0.8-0.9c0-0.5,0.3-0.8,0.8-0.9
							l11.1-1l11.3,0.9c0.4,0,0.8,0.4,0.8,0.9c0,0.4-0.3,0.8-0.8,0.9L20.9,152.3C20.9,152.3,20.9,152.3,20.9,152.3L20.9,152.3z"/>
					</g>
					<polygon class="st7" points="9.7,225.2 20.8,224.2 32,225.2 20.9,226.2 					"/>
					<g class="st5">
						<path class="st6" d="M20.9,227C20.8,227,20.8,227,20.9,227l-11.2-1c-0.5,0-0.8-0.4-0.8-0.9c0-0.4,0.3-0.8,0.8-0.9l11.1-1
							l11.3,0.9c0.4,0,0.8,0.4,0.8,0.9c0,0.5-0.3,0.8-0.8,0.9L20.9,227C20.9,227,20.9,227,20.9,227L20.9,227z"/>
					</g>
				</g>
			</g>
		</g>
		<g class="st0">
			<g>
				<defs>
					<rect id="SVGID_7_" y="-1.7" width="516.8" height="301.5"/>
				</defs>
				<clipPath id="SVGID_8_">
					<use xlink:href="#SVGID_7_"  style="overflow:visible;"/>
				</clipPath>
				<rect y="-1.7" class="st8" width="516.8" height="301.5"/>
				<rect y="-1.7" class="st9" width="150.7" height="301.5"/>
				<rect y="149.1" class="st10" width="516.8" height="150.7"/>
				<polygon class="st8" points="75.4,36 63.7,71.8 81.6,77.7 				"/>
				<polygon class="st8" points="75.4,36 87,71.8 69.1,77.7 				"/>
				<polygon class="st8" points="111.2,62 73.5,62 73.5,80.9 				"/>
				<polygon class="st8" points="111.2,62 80.7,84.2 69.6,68.9 				"/>
				<polygon class="st8" points="39.5,62 70,84.2 81.1,68.9 				"/>
				<polygon class="st8" points="39.5,62 77.2,62 77.2,80.9 				"/>
				<polygon class="st8" points="97.5,104.2 85.9,68.3 68,74.2 				"/>
				<polygon class="st8" points="97.5,104.2 67,82 78.1,66.8 				"/>
				<polygon class="st8" points="53.2,104.2 83.7,82 72.6,66.8 				"/>
				<polygon class="st8" points="53.2,104.2 64.9,68.3 82.8,74.2 				"/>
			</g>
		</g>
		<g class="st0">
			<g>
				<defs>
					<rect id="SVGID_9_" y="-0.1" width="514.5" height="300.1"/>
				</defs>
				<clipPath id="SVGID_10_">
					<use xlink:href="#SVGID_9_"  style="overflow:visible;"/>
				</clipPath>
				<rect y="-0.1" class="st11" width="514.5" height="300.1"/>
				<polygon class="st12" points="49.5,108.6 59.2,78.6 33.8,60 65.2,60 75,30.1 84.8,60 116.3,60.1 90.9,78.6 100.5,108.6 75,90.1 
									"/>
				<polygon class="st12" points="137.2,124.8 147.9,129 155.2,120.3 154.5,131.7 165.1,136 154,138.8 153.1,150.2 147.1,140.5 
					136,143.3 143.3,134.5 				"/>
				<polygon class="st12" points="194.7,67.2 183.5,65.2 178.1,75.3 176.4,64 165.2,62 175.5,57 173.9,45.6 181.9,53.8 192.2,48.8 
					186.8,59 				"/>
				<polygon class="st12" points="170.8,118.5 174.3,107.6 165.1,100.8 176.5,100.8 180.1,90 183.6,100.8 195.1,100.9 185.8,107.6 
					189.3,118.5 180.1,111.8 				"/>
				<polygon class="st12" points="137.8,19 148.2,23.8 156,15.5 154.6,26.8 165,31.7 153.8,33.9 152.3,45.3 146.8,35.3 135.5,37.4 
					143.3,29 				"/>
			</g>
		</g>
	</g>
</g>
</svg>
