<?xml version="1.0" encoding="utf-8"?>
<!-- Generator: Adobe Illustrator 22.1.0, SVG Export Plug-In . SVG Version: 6.00 Build 0)  -->
<svg version="1.1" xmlns="http://www.w3.org/2000/svg" xmlns:xlink="http://www.w3.org/1999/xlink" x="0px" y="0px"
	 viewBox="0 0 300 300" style="enable-background:new 0 0 300 300;" xml:space="preserve">
<style type="text/css">
	.st0{clip-path:url(#SVGID_2_);fill:#3F8A45;}
	.st1{clip-path:url(#SVGID_2_);}
	.st2{clip-path:url(#SVGID_4_);fill:#2115A9;}
	.st3{clip-path:url(#SVGID_4_);fill:#3F8A45;}
	.st4{clip-path:url(#SVGID_4_);}
	.st5{clip-path:url(#SVGID_6_);fill:#F4C545;}
	.st6{clip-path:url(#SVGID_6_);fill:#3F8A45;}
	.st7{clip-path:url(#SVGID_6_);fill:#FFFFFF;}
	.st8{clip-path:url(#SVGID_2_);fill:#2115A9;}
</style>
<g id="Layer_2">
</g>
<g id="Layer_1">
	<g>
		<defs>
			<rect id="SVGID_1_" width="300" height="300"/>
		</defs>
		<clipPath id="SVGID_2_">
			<use xlink:href="#SVGID_1_"  style="overflow:visible;"/>
		</clipPath>
		<rect x="-10.1" y="-4.6" class="st0" width="316.9" height="51.4"/>
		<g class="st1">
			<g>
				<defs>
					<rect id="SVGID_3_" x="-39.4" y="42.3" width="369.2" height="215.3"/>
				</defs>
				<clipPath id="SVGID_4_">
					<use xlink:href="#SVGID_3_"  style="display:none;overflow:visible;"/>
				</clipPath>
				<rect x="-39.4" y="42.3" class="st2" width="369.2" height="215.3"/>
				<polygon class="st3" points="-39.4,42.2 329.8,257.6 329.5,42.4 				"/>
				<g class="st4">
					<defs>
						<rect id="SVGID_5_" x="-39.4" y="42.3" width="369.2" height="215.3"/>
					</defs>
					<clipPath id="SVGID_6_">
						<use xlink:href="#SVGID_5_"  style="overflow:visible;"/>
					</clipPath>
					<path class="st5" d="M178.8,149.9c0,18.4-14.9,33.3-33.3,33.3c-18.4,0-33.3-14.9-33.3-33.3c0-18.4,14.9-33.3,33.3-33.3
						C163.9,116.6,178.8,131.5,178.8,149.9L178.8,149.9z"/>
					<path class="st6" d="M124.8,135c2.3,3.1,5.7,8.4,8.5,7c2.2,0,3.3,0.2,3.6,1.6c5.1,0.9,13.7-1.3,19.1-8.3c0,0,0.5,0.1,0.3-2.6
						c0-1.2,1.6-0.9,1.6-0.6c0.2,0.6,0.2,1,0.5,1c0.7-0.2,1.6-1.7,2.3-2.6c0.2-0.4,0.1-0.8,0.1-1.4c0.4-1,1.4-0.8,1.6-0.3
						c0.2,0.3,0.2,0.6,0.4,0.9c1,0.7,2.8,0,3,0c0.2-0.8,0.7-0.7,0.7-0.7c0.7-0.1,0.4-0.1,0.9,0.1c-0.4,4.4,0.9,4.6,0.8,6.9
						c0,2.5-0.8,3.3-0.8,4.2c0.3,1.2,4,1.2,2.7,2.2c-1.2,0.6,0,1.8-1.7,2.2c-5.1,2.6-6,4.8-6,4.8s-1.3,2.4-1.4,2.4
						c-0.9,1.6-1.9,0.7-2.5,1.5c-0.3,1-0.6,3.2,0,4.3c0.3,1.6,0,2.4-0.4,4c-0.3,3.2-1.6,3.7-1.8,4.9c-0.6,1.2,0.1,6.9-0.4,6.9
						c-3.8,0.1-6.7-0.7-8.2-1c1.5-6.3,0.9-11.8,0.9-12.3c-0.4-4.5-6.7-3.4-7.7-4c-0.8-0.2-1.3-0.8-1.6-1.1c-0.9-0.1-1.2-0.3-2.1-0.4
						c-0.5,0.2-0.2,0.5-1.2,0.8c-2.5,0.3-3.6-2.2-3.6-2.2c0.1-0.8-5.7,0.2-8.8-0.6c-1.3,0.7-1.9,2.9-2.9,3.1c0,0.7-1.7-0.5-2.1-1.2
						c-0.1-1.9,1.7-2.7,1.7-2.7c1.4-1,2.2-1.1,2.8-1.8c0.3-1.6,0.2-2.9,0.9-4.1c0.6-0.9,1.5-0.5,2.1-0.9c0.6-0.4,0.9-3.2,0.3-4
						c0,0-2.6-2.3-2.7-2.4C122.5,136.4,124.3,134.8,124.8,135L124.8,135z"/>
					<path class="st5" d="M284.7,93.7c-1.5-6-15-18.9-25.2-27.1c-2.4-1.6-4-0.7-3.7,1.7c1.3,2.1,2.2,4.4,3.5,6.5
						c0.3,1.4,1,2.4,1.4,3.8c0,0,0.1,2.4,0.3,2.6c3.2,3.5,3.6,6.4,3.6,6.4c1.8,3.5,3.5,6.1,6.6,9c3.6,2.3,1,9.2,1.1,13
						c0,2.4-1.7,2.1-3.2,1.8c-11.6-10.7-23.2-10.7-33.3-13.8c-4-0.4-4,1.5-2.8,2.5c7.1,7.6,13.8,12.8,22.6,17.1
						c1.5,0.9,3,1.8,4.4,2.7c1.7,1.4,3.4,2.8,5.1,4.2c3.9,2.5,4.2,4.8,4.2,5.1c0.1,4.7-2.4,8.4-3.2,9.9c-1.3,5-4,5.9-4,5.9
						c-21.7,14.7-33.1,18.5-68.4,13.9c-0.5-0.3-3.9,0.3,0,1.7c9,3,31,7.8,52.3-2.3c5.1-3.6,8.5-2.4,12.2-4.6
						c6.1-3.8,14.8-8.4,16.4-9c4.7-2.5,18-5.4,21.1-7.9c3.5-0.3,7.2-0.7,7.4-3.8c1.2-0.7,2.8-0.2,4.1-2.7c2.8-0.5,2.3-1.5,2.3-1.5
						c-0.7-2-3.3-2.8-5.2-4.2c-2.7-0.9-4.6-1.2-6.6-0.2c-0.6,0.3-1.3,0.6-1.9,0.8c0,0-3-0.4-3-0.6C286.3,124.6,287,102.8,284.7,93.7
						L284.7,93.7z"/>
					<path class="st6" d="M300,129.3c-0.2,0.5-1,0.7-1.9,0.5c-0.9-0.3-1.4-0.9-1.2-1.4c0.2-0.5,1-0.7,1.9-0.5
						C299.7,128.2,300.2,128.8,300,129.3L300,129.3z"/>
					<polygon class="st7" points="30,128.2 25.3,123.8 20.6,128.1 21.1,121.7 14.7,120.7 20,117.1 16.9,111.5 23,113.4 25.4,107.4 
						27.8,113.4 33.9,111.6 30.7,117.2 36,120.8 29.6,121.8 					"/>
					<polygon class="st7" points="46.7,181.6 41.6,178.2 36.7,181.8 38.4,176 33.4,172.5 39.6,172.4 41.4,166.7 43.5,172.3 
						49.6,172.2 44.8,175.9 					"/>
					<polygon class="st7" points="70,159.6 65.3,155.2 60.6,159.5 61.1,153.1 54.7,152.1 60.1,148.5 56.9,142.9 63,144.8 
						65.5,138.8 67.8,144.8 74,143 70.7,148.5 76,152.2 69.6,153.2 					"/>
					<polygon class="st7" points="-11.3,173.7 -16,169.3 -20.8,173.6 -20.3,167.2 -26.7,166.2 -21.3,162.6 -24.5,157 -18.4,158.9 
						-15.9,152.9 -13.6,158.9 -7.4,157.1 -10.7,162.6 -5.4,166.3 -11.8,167.3 					"/>
					<polygon class="st7" points="31,227.5 26.3,223.1 21.5,227.5 22,221 15.6,220 21,216.4 17.8,210.8 23.9,212.7 26.4,206.7 
						28.7,212.8 34.9,210.9 31.6,216.5 36.9,220.2 30.5,221.1 					"/>
				</g>
			</g>
		</g>
		<rect x="-10.1" y="253.2" class="st8" width="316.9" height="51.4"/>
	</g>
</g>
</svg>
