<?xml version="1.0" encoding="utf-8"?>
<!-- Generator: Adobe Illustrator 22.1.0, SVG Export Plug-In . SVG Version: 6.00 Build 0)  -->
<svg version="1.1" xmlns="http://www.w3.org/2000/svg" xmlns:xlink="http://www.w3.org/1999/xlink" x="0px" y="0px"
	 viewBox="0 0 300 300" style="enable-background:new 0 0 300 300;" xml:space="preserve">
<style type="text/css">
	.st0{clip-path:url(#SVGID_2_);}
	.st1{clip-path:url(#SVGID_4_);fill:#4279FC;}
	.st2{clip-path:url(#SVGID_4_);fill:#EFD630;}
	.st3{clip-path:url(#SVGID_4_);fill:#BC002C;}
	.st4{clip-path:url(#SVGID_6_);fill:#3D9546;}
	.st5{clip-path:url(#SVGID_6_);fill:#F4DE53;}
	.st6{clip-path:url(#SVGID_6_);fill:#C9152C;}
	.st7{clip-path:url(#SVGID_8_);fill:#1A237B;}
	.st8{clip-path:url(#SVGID_8_);fill:#FFFFFF;}
	.st9{clip-path:url(#SVGID_8_);fill:#BD0034;}
</style>
<g id="Layer_2">
</g>
<g id="Layer_1">
	<g>
		<defs>
			<rect id="SVGID_1_" width="300" height="300"/>
		</defs>
		<clipPath id="SVGID_2_">
			<use xlink:href="#SVGID_1_"  style="overflow:visible;"/>
		</clipPath>
		<g class="st0">
			<g>
				<defs>
					<rect id="SVGID_3_" x="-10.7" width="515.2" height="300.6"/>
				</defs>
				<clipPath id="SVGID_4_">
					<use xlink:href="#SVGID_3_"  style="overflow:visible;"/>
				</clipPath>
				<rect x="-10.7" class="st1" width="515.2" height="300.6"/>
				<polygon class="st2" points="472.3,0 -10.7,225.4 -10.7,300.6 -10.7,300.6 21.5,300.6 504.5,75.1 504.5,0 				"/>
				<polygon class="st3" points="504.5,0 -10.7,240.5 -10.7,300.6 -10.7,300.6 -10.7,300.6 504.5,60.1 				"/>
				<polygon class="st2" points="81.5,20.6 94.3,59.9 135.6,59.9 102.2,84.2 115,123.4 81.5,99.2 48.1,123.4 60.9,84.2 27.4,59.9 
					68.8,59.9 				"/>
			</g>
		</g>
		<g class="st0">
			<g>
				<defs>
					<rect id="SVGID_5_" x="-108.3" y="-0.7" width="516.6" height="301.4"/>
				</defs>
				<clipPath id="SVGID_6_">
					<use xlink:href="#SVGID_5_"  style="overflow:visible;"/>
				</clipPath>
				<rect x="-108.3" y="-0.7" class="st4" width="516.6" height="301.4"/>
				<polygon class="st5" points="236.1,-0.7 -108.3,300.7 408.3,300.7 408.3,-0.7 				"/>
				<polygon class="st6" points="408.3,-0.7 63.9,300.7 408.3,300.7 				"/>
			</g>
		</g>
		<g class="st0">
			<g>
				<defs>
					<rect id="SVGID_7_" x="-106.5" y="0.4" width="513" height="299.3"/>
				</defs>
				<clipPath id="SVGID_8_">
					<use xlink:href="#SVGID_7_"  style="overflow:visible;"/>
				</clipPath>
				<polygon class="st7" points="150.1,0.4 150.1,9.9 150.1,13.1 150.1,14.7 93.2,43.1 150.1,43.1 150.1,51.7 150.1,64.5 
					150.1,77.3 150.1,85.9 93.2,85.9 150.1,114.3 150.1,119.1 150.1,128.7 150.1,129.5 132.6,129.5 126,129.5 123,129.5 43.1,89.5 
					43.1,129.5 34.6,129.5 21.8,129.5 8.9,129.5 0.4,129.5 0.4,89.5 -79.5,129.5 -89.1,129.5 -106.5,129.5 -106.5,299.6 
					406.5,299.6 406.5,0.4 				"/>
				<polygon class="st7" points="-106.5,85.9 -106.5,114.3 -49.7,85.9 				"/>
				<polygon class="st7" points="43.1,0.4 43.1,39.5 121.3,0.4 				"/>
				<polygon class="st7" points="0.4,0.4 -77.8,0.4 0.4,39.5 				"/>
				<polygon class="st7" points="-106.5,43.1 -49.7,43.1 -106.5,14.7 				"/>
				<polygon class="st8" points="150,0.4 64.5,43.1 45.4,43.1 130.9,0.4 121.3,0.4 43.1,39.5 43.1,0.4 34.6,0.4 34.6,43.7 
					34.6,48.5 34.6,51.7 47.4,51.7 66.5,51.7 73,51.7 76.1,51.7 150.1,51.7 150.1,43.1 93.2,43.1 150.1,14.7 150.1,13.1 150.1,9.9 
					150.1,0.4 				"/>
				<polygon class="st8" points="0.4,0.4 0.4,39.5 -77.8,0.4 -106.5,0.4 -21,43.1 -40.1,43.1 -106.5,9.9 -106.5,14.7 -49.7,43.1 
					-106.5,43.1 -106.5,51.7 -32.6,51.7 -23,51.7 -3.9,51.7 8.9,51.7 8.9,48.5 8.9,45.3 8.9,43.7 8.9,0.4 				"/>
				<polygon class="st8" points="66.5,77.3 47.4,77.3 34.6,77.3 34.6,80.5 34.6,83.7 34.6,85.3 34.6,129.5 43.1,129.5 43.1,89.5 
					123,129.5 126,129.5 132.6,129.5 150.1,129.5 150.1,128.7 64.5,85.9 83.6,85.9 150.1,119.1 150.1,114.3 93.2,85.9 150.1,85.9 
					150.1,77.3 76.1,77.3 				"/>
				<polygon class="st8" points="-3.9,77.3 -23,77.3 -29.6,77.3 -32.6,77.3 -106.5,77.3 -106.5,85.9 -49.7,85.9 -106.5,114.3 
					-106.5,128.6 -21,85.9 -1.9,85.9 -89.1,129.5 -79.5,129.5 0.4,89.5 0.4,129.5 8.9,129.5 8.9,85.3 8.9,80.5 8.9,77.3 				"/>
				<polygon class="st9" points="-21,85.9 -106.5,128.6 -106.5,129.5 -89.1,129.5 -1.9,85.9 				"/>
				<polygon class="st9" points="-106.5,9.9 -40.1,43.1 -21,43.1 -106.5,0.4 				"/>
				<polygon class="st9" points="150,0.4 130.9,0.4 45.4,43.1 64.5,43.1 				"/>
				<polygon class="st9" points="64.5,85.9 150.1,128.7 150.1,119.1 83.6,85.9 				"/>
				<polygon class="st9" points="8.9,0.4 8.9,43.7 8.9,45.3 8.9,48.5 8.9,51.7 -3.9,51.7 -23,51.7 -32.6,51.7 -106.5,51.7 
					-106.5,77.3 -32.6,77.3 -29.6,77.3 -23,77.3 -3.9,77.3 8.9,77.3 8.9,80.5 8.9,85.3 8.9,129.5 21.8,129.5 34.6,129.5 34.6,85.3 
					34.6,83.7 34.6,80.5 34.6,77.3 47.4,77.3 66.5,77.3 76.1,77.3 150.1,77.3 150.1,64.5 150.1,51.7 76.1,51.7 73,51.7 66.5,51.7 
					47.4,51.7 34.6,51.7 34.6,48.5 34.6,43.7 34.6,0.4 				"/>
				<polygon class="st8" points="271.3,64.8 266.9,78.1 278.3,69.9 289.6,78.1 285.2,64.8 296.5,56.6 282.6,56.6 278.3,43.3 
					273.9,56.6 260,56.6 				"/>
				<polygon class="st8" points="310.7,76.8 317.7,88.9 319.2,75 332.9,72.1 320.1,66.4 321.5,52.5 312.2,62.9 299.4,57.2 
					306.4,69.3 297.1,79.7 				"/>
				<polygon class="st8" points="336.7,87.7 323.9,93.4 337.6,96.3 339.1,110.2 346.1,98.1 359.7,101 350.4,90.6 357.4,78.5 
					344.6,84.2 335.2,73.8 				"/>
				<polygon class="st8" points="356.9,116.8 342.9,116.8 354.2,125.1 349.9,138.4 361.2,130.1 372.5,138.4 368.2,125.1 
					379.5,116.8 365.5,116.8 361.2,103.6 				"/>
				<polygon class="st8" points="362,165.6 369,177.7 370.4,163.8 384.1,160.9 371.4,155.2 372.8,141.3 363.5,151.7 350.7,146 
					357.7,158.1 348.3,168.5 				"/>
				<polygon class="st8" points="361.1,192.6 368.1,180.5 355.3,186.2 346,175.8 347.4,189.7 334.6,195.4 348.3,198.3 349.8,212.2 
					356.8,200.1 370.4,203 				"/>
				<polygon class="st8" points="333.8,214.3 329.5,201.1 325.2,214.3 311.2,214.3 322.5,222.6 318.2,235.9 329.5,227.6 
					340.8,235.9 336.5,222.6 347.8,214.3 				"/>
				<polygon class="st8" points="302.8,231.4 304.2,217.5 294.9,227.9 282.1,222.2 289.1,234.3 279.7,244.7 293.4,241.8 
					300.4,253.9 301.9,240 315.5,237.1 				"/>
				<polygon class="st8" points="267.4,234.3 274.4,222.2 261.6,227.9 252.3,217.5 253.8,231.4 241,237.1 254.7,240 256.1,253.9 
					263.1,241.8 276.8,244.7 				"/>
				<polygon class="st8" points="234,222.6 245.3,214.3 231.3,214.3 227,201.1 222.7,214.3 208.7,214.3 220,222.6 215.7,235.9 
					227,227.6 238.3,235.9 				"/>
				<polygon class="st8" points="208.2,198.3 221.9,195.4 209.1,189.7 210.5,175.8 201.2,186.2 188.4,180.5 195.4,192.6 186.1,203 
					199.7,200.1 206.7,212.2 				"/>
				<polygon class="st8" points="187.5,177.7 194.5,165.6 208.2,168.5 198.8,158.1 205.8,146 193,151.7 183.7,141.3 185.2,155.2 
					172.4,160.9 186.1,163.8 				"/>
				<polygon class="st8" points="188.3,125.1 184,138.4 195.3,130.1 206.6,138.4 202.3,125.1 213.6,116.8 199.6,116.8 195.3,103.6 
					191,116.8 177,116.8 				"/>
				<polygon class="st8" points="210.5,98.1 217.4,110.2 218.9,96.3 232.6,93.4 219.8,87.7 221.3,73.8 211.9,84.2 199.2,78.5 
					206.1,90.6 196.8,101 				"/>
				<polygon class="st8" points="237.3,75 238.8,88.9 245.8,76.8 259.4,79.7 250.1,69.3 257.1,57.2 244.3,62.9 234.9,52.5 
					236.4,66.4 223.7,72.1 				"/>
			</g>
		</g>
	</g>
</g>
</svg>
