<?xml version="1.0" encoding="utf-8"?>
<!-- Generator: Adobe Illustrator 22.1.0, SVG Export Plug-In . SVG Version: 6.00 Build 0)  -->
<svg version="1.1" xmlns="http://www.w3.org/2000/svg" xmlns:xlink="http://www.w3.org/1999/xlink" x="0px" y="0px"
	 viewBox="0 0 300 300" style="enable-background:new 0 0 300 300;" xml:space="preserve">
<style type="text/css">
	.st0{clip-path:url(#SVGID_2_);}
	.st1{clip-path:url(#SVGID_4_);fill:#4279FC;}
	.st2{clip-path:url(#SVGID_4_);fill:#EFD630;}
	.st3{clip-path:url(#SVGID_4_);fill:#BC002C;}
	.st4{clip-path:url(#SVGID_6_);fill:#3D9546;}
	.st5{clip-path:url(#SVGID_6_);fill:#F4DE53;}
	.st6{clip-path:url(#SVGID_6_);fill:#C9152C;}
	.st7{clip-path:url(#SVGID_8_);fill:#1A237B;}
	.st8{clip-path:url(#SVGID_8_);fill:#FFFFFF;}
	.st9{clip-path:url(#SVGID_8_);fill:#BD0034;}
	.st10{clip-path:url(#SVGID_10_);fill:#1C2A7D;}
	.st11{clip-path:url(#SVGID_10_);fill:#FFFFFF;}
	.st12{clip-path:url(#SVGID_10_);fill:#BC0030;}
	.st13{clip-path:url(#SVGID_12_);fill:#FFFFFF;}
	.st14{clip-path:url(#SVGID_12_);fill:#E77C22;}
	.st15{clip-path:url(#SVGID_12_);fill:#429E61;}
	.st16{clip-path:url(#SVGID_14_);fill:#FFFFFF;}
	.st17{clip-path:url(#SVGID_14_);fill:#356DAC;}
	.st18{clip-path:url(#SVGID_14_);fill:#C8172B;}
	.st19{clip-path:url(#SVGID_16_);fill:#FFFFFF;}
	.st20{clip-path:url(#SVGID_16_);fill:#1E2788;}
	.st21{clip-path:url(#SVGID_16_);fill:#CB0028;}
	.st22{clip-path:url(#SVGID_16_);}
	.st23{clip-path:url(#SVGID_18_);fill:#FFFFFF;}
	.st24{clip-path:url(#SVGID_18_);}
	.st25{fill:#CB0028;}
	.st26{clip-path:url(#SVGID_18_);fill:#3A7AA1;}
	.st27{fill:#4C73D5;}
	.st28{fill:#FFFFFF;}
	.st29{clip-path:url(#SVGID_18_);fill:#FBFC2B;}
	.st30{fill:#C2A21F;}
	.st31{fill:none;}
	.st32{clip-path:url(#SVGID_18_);fill:#C2A21F;}
	.st33{clip-path:url(#SVGID_18_);fill:#613F21;}
	.st34{clip-path:url(#SVGID_18_);fill:#1E2788;}
	.st35{fill:#160080;}
	.st36{clip-path:url(#SVGID_18_);fill:#CB0028;}
	.st37{fill:#D30028;}
	.st38{fill:#BA0019;}
	.st39{clip-path:url(#SVGID_18_);fill:#82373B;}
	.st40{fill:#83353B;}
	.st41{fill:#E8D629;}
	.st42{clip-path:url(#SVGID_18_);fill:#624E0F;}
	.st43{fill:#624E0F;}
	.st44{fill:#F4C627;}
	.st45{clip-path:url(#SVGID_18_);fill:#F4C427;}
	.st46{clip-path:url(#SVGID_18_);fill:#F4C627;}
</style>
<g id="Layer_2">
</g>
<g id="Layer_1">
	<g>
		<defs>
			<rect id="SVGID_1_" width="300" height="300"/>
		</defs>
		<clipPath id="SVGID_2_">
			<use xlink:href="#SVGID_1_"  style="overflow:visible;"/>
		</clipPath>
		<g class="st0">
			<g>
				<defs>
					<rect id="SVGID_3_" x="-10.7" width="515.2" height="300.6"/>
				</defs>
				<clipPath id="SVGID_4_">
					<use xlink:href="#SVGID_3_"  style="overflow:visible;"/>
				</clipPath>
				<rect x="-10.7" class="st1" width="515.2" height="300.6"/>
				<polygon class="st2" points="472.3,0 -10.7,225.4 -10.7,300.6 -10.7,300.6 21.5,300.6 504.5,75.1 504.5,0 				"/>
				<polygon class="st3" points="504.5,0 -10.7,240.5 -10.7,300.6 -10.7,300.6 -10.7,300.6 504.5,60.1 				"/>
				<polygon class="st2" points="81.5,20.6 94.3,59.9 135.6,59.9 102.2,84.2 115,123.4 81.5,99.2 48.1,123.4 60.9,84.2 27.4,59.9 
					68.8,59.9 				"/>
			</g>
		</g>
		<g class="st0">
			<g>
				<defs>
					<rect id="SVGID_5_" x="-108.3" y="-0.7" width="516.6" height="301.4"/>
				</defs>
				<clipPath id="SVGID_6_">
					<use xlink:href="#SVGID_5_"  style="overflow:visible;"/>
				</clipPath>
				<rect x="-108.3" y="-0.7" class="st4" width="516.6" height="301.4"/>
				<polygon class="st5" points="236.1,-0.7 -108.3,300.7 408.3,300.7 408.3,-0.7 				"/>
				<polygon class="st6" points="408.3,-0.7 63.9,300.7 408.3,300.7 				"/>
			</g>
		</g>
		<g class="st0">
			<g>
				<defs>
					<rect id="SVGID_7_" x="-106.5" y="0.4" width="513" height="299.3"/>
				</defs>
				<clipPath id="SVGID_8_">
					<use xlink:href="#SVGID_7_"  style="overflow:visible;"/>
				</clipPath>
				<polygon class="st7" points="150.1,0.4 150.1,9.9 150.1,13.1 150.1,14.7 93.2,43.1 150.1,43.1 150.1,51.7 150.1,64.5 
					150.1,77.3 150.1,85.9 93.2,85.9 150.1,114.3 150.1,119.1 150.1,128.7 150.1,129.5 132.6,129.5 126,129.5 123,129.5 43.1,89.5 
					43.1,129.5 34.6,129.5 21.8,129.5 8.9,129.5 0.4,129.5 0.4,89.5 -79.5,129.5 -89.1,129.5 -106.5,129.5 -106.5,299.6 
					406.5,299.6 406.5,0.4 				"/>
				<polygon class="st7" points="-106.5,85.9 -106.5,114.3 -49.7,85.9 				"/>
				<polygon class="st7" points="43.1,0.4 43.1,39.5 121.3,0.4 				"/>
				<polygon class="st7" points="0.4,0.4 -77.8,0.4 0.4,39.5 				"/>
				<polygon class="st7" points="-106.5,43.1 -49.7,43.1 -106.5,14.7 				"/>
				<polygon class="st8" points="150,0.4 64.5,43.1 45.4,43.1 130.9,0.4 121.3,0.4 43.1,39.5 43.1,0.4 34.6,0.4 34.6,43.7 
					34.6,48.5 34.6,51.7 47.4,51.7 66.5,51.7 73,51.7 76.1,51.7 150.1,51.7 150.1,43.1 93.2,43.1 150.1,14.7 150.1,13.1 150.1,9.9 
					150.1,0.4 				"/>
				<polygon class="st8" points="0.4,0.4 0.4,39.5 -77.8,0.4 -106.5,0.4 -21,43.1 -40.1,43.1 -106.5,9.9 -106.5,14.7 -49.7,43.1 
					-106.5,43.1 -106.5,51.7 -32.6,51.7 -23,51.7 -3.9,51.7 8.9,51.7 8.9,48.5 8.9,45.3 8.9,43.7 8.9,0.4 				"/>
				<polygon class="st8" points="66.5,77.3 47.4,77.3 34.6,77.3 34.6,80.5 34.6,83.7 34.6,85.3 34.6,129.5 43.1,129.5 43.1,89.5 
					123,129.5 126,129.5 132.6,129.5 150.1,129.5 150.1,128.7 64.5,85.9 83.6,85.9 150.1,119.1 150.1,114.3 93.2,85.9 150.1,85.9 
					150.1,77.3 76.1,77.3 				"/>
				<polygon class="st8" points="-3.9,77.3 -23,77.3 -29.6,77.3 -32.6,77.3 -106.5,77.3 -106.5,85.9 -49.7,85.9 -106.5,114.3 
					-106.5,128.6 -21,85.9 -1.9,85.9 -89.1,129.5 -79.5,129.5 0.4,89.5 0.4,129.5 8.9,129.5 8.9,85.3 8.9,80.5 8.9,77.3 				"/>
				<polygon class="st9" points="-21,85.9 -106.5,128.6 -106.5,129.5 -89.1,129.5 -1.9,85.9 				"/>
				<polygon class="st9" points="-106.5,9.9 -40.1,43.1 -21,43.1 -106.5,0.4 				"/>
				<polygon class="st9" points="150,0.4 130.9,0.4 45.4,43.1 64.5,43.1 				"/>
				<polygon class="st9" points="64.5,85.9 150.1,128.7 150.1,119.1 83.6,85.9 				"/>
				<polygon class="st9" points="8.9,0.4 8.9,43.7 8.9,45.3 8.9,48.5 8.9,51.7 -3.9,51.7 -23,51.7 -32.6,51.7 -106.5,51.7 
					-106.5,77.3 -32.6,77.3 -29.6,77.3 -23,77.3 -3.9,77.3 8.9,77.3 8.9,80.5 8.9,85.3 8.9,129.5 21.8,129.5 34.6,129.5 34.6,85.3 
					34.6,83.7 34.6,80.5 34.6,77.3 47.4,77.3 66.5,77.3 76.1,77.3 150.1,77.3 150.1,64.5 150.1,51.7 76.1,51.7 73,51.7 66.5,51.7 
					47.4,51.7 34.6,51.7 34.6,48.5 34.6,43.7 34.6,0.4 				"/>
				<polygon class="st8" points="271.3,64.8 266.9,78.1 278.3,69.9 289.6,78.1 285.2,64.8 296.5,56.6 282.6,56.6 278.3,43.3 
					273.9,56.6 260,56.6 				"/>
				<polygon class="st8" points="310.7,76.8 317.7,88.9 319.2,75 332.9,72.1 320.1,66.4 321.5,52.5 312.2,62.9 299.4,57.2 
					306.4,69.3 297.1,79.7 				"/>
				<polygon class="st8" points="336.7,87.7 323.9,93.4 337.6,96.3 339.1,110.2 346.1,98.1 359.7,101 350.4,90.6 357.4,78.5 
					344.6,84.2 335.2,73.8 				"/>
				<polygon class="st8" points="356.9,116.8 342.9,116.8 354.2,125.1 349.9,138.4 361.2,130.1 372.5,138.4 368.2,125.1 
					379.5,116.8 365.5,116.8 361.2,103.6 				"/>
				<polygon class="st8" points="362,165.6 369,177.7 370.4,163.8 384.1,160.9 371.4,155.2 372.8,141.3 363.5,151.7 350.7,146 
					357.7,158.1 348.3,168.5 				"/>
				<polygon class="st8" points="361.1,192.6 368.1,180.5 355.3,186.2 346,175.8 347.4,189.7 334.6,195.4 348.3,198.3 349.8,212.2 
					356.8,200.1 370.4,203 				"/>
				<polygon class="st8" points="333.8,214.3 329.5,201.1 325.2,214.3 311.2,214.3 322.5,222.6 318.2,235.9 329.5,227.6 
					340.8,235.9 336.5,222.6 347.8,214.3 				"/>
				<polygon class="st8" points="302.8,231.4 304.2,217.5 294.9,227.9 282.1,222.2 289.1,234.3 279.7,244.7 293.4,241.8 
					300.4,253.9 301.9,240 315.5,237.1 				"/>
				<polygon class="st8" points="267.4,234.3 274.4,222.2 261.6,227.9 252.3,217.5 253.8,231.4 241,237.1 254.7,240 256.1,253.9 
					263.1,241.8 276.8,244.7 				"/>
				<polygon class="st8" points="234,222.6 245.3,214.3 231.3,214.3 227,201.1 222.7,214.3 208.7,214.3 220,222.6 215.7,235.9 
					227,227.6 238.3,235.9 				"/>
				<polygon class="st8" points="208.2,198.3 221.9,195.4 209.1,189.7 210.5,175.8 201.2,186.2 188.4,180.5 195.4,192.6 186.1,203 
					199.7,200.1 206.7,212.2 				"/>
				<polygon class="st8" points="187.5,177.7 194.5,165.6 208.2,168.5 198.8,158.1 205.8,146 193,151.7 183.7,141.3 185.2,155.2 
					172.4,160.9 186.1,163.8 				"/>
				<polygon class="st8" points="188.3,125.1 184,138.4 195.3,130.1 206.6,138.4 202.3,125.1 213.6,116.8 199.6,116.8 195.3,103.6 
					191,116.8 177,116.8 				"/>
				<polygon class="st8" points="210.5,98.1 217.4,110.2 218.9,96.3 232.6,93.4 219.8,87.7 221.3,73.8 211.9,84.2 199.2,78.5 
					206.1,90.6 196.8,101 				"/>
				<polygon class="st8" points="237.3,75 238.8,88.9 245.8,76.8 259.4,79.7 250.1,69.3 257.1,57.2 244.3,62.9 234.9,52.5 
					236.4,66.4 223.7,72.1 				"/>
			</g>
		</g>
		<g class="st0">
			<g>
				<defs>
					<rect id="SVGID_9_" x="-118" y="0" width="514.3" height="300"/>
				</defs>
				<clipPath id="SVGID_10_">
					<use xlink:href="#SVGID_9_"  style="overflow:visible;"/>
				</clipPath>
				<rect x="-118" y="0" class="st10" width="514.3" height="300"/>
				<rect x="-118" y="50" class="st11" width="514.3" height="200"/>
				<rect x="-118" y="100" class="st12" width="514.3" height="100"/>
			</g>
		</g>
		<g class="st0">
			<g>
				<defs>
					<rect id="SVGID_11_" x="-106.2" y="0.6" width="512.4" height="298.9"/>
				</defs>
				<clipPath id="SVGID_12_">
					<use xlink:href="#SVGID_11_"  style="overflow:visible;"/>
				</clipPath>
				<rect x="-106.2" y="0.6" class="st13" width="512.4" height="298.9"/>
				<rect x="-106.2" y="0.6" class="st14" width="170.8" height="298.9"/>
				<rect x="235.4" y="0.6" class="st15" width="170.8" height="298.9"/>
			</g>
		</g>
		<g class="st0">
			<g>
				<defs>
					<rect id="SVGID_13_" x="-40.3" width="514.3" height="300"/>
				</defs>
				<clipPath id="SVGID_14_">
					<use xlink:href="#SVGID_13_"  style="overflow:visible;"/>
				</clipPath>
				<rect x="-40.3" class="st16" width="514.3" height="300"/>
				<rect x="-40.3" class="st17" width="514.3" height="50"/>
				<rect x="-40.3" y="250" class="st18" width="514.3" height="50"/>
			</g>
		</g>
		<g class="st0">
			<g>
				<defs>
					<rect id="SVGID_15_" x="-107.6" y="-0.3" width="515.2" height="300.5"/>
				</defs>
				<clipPath id="SVGID_16_">
					<use xlink:href="#SVGID_15_"  style="overflow:visible;"/>
				</clipPath>
				<rect x="-107.6" y="99.9" class="st19" width="515.2" height="100.2"/>
				<rect x="-107.6" y="200.1" class="st20" width="515.2" height="100.2"/>
				<rect x="-107.6" y="-0.3" class="st21" width="515.2" height="100.2"/>
				<g class="st22">
					<defs>
						<rect id="SVGID_17_" x="-107.6" y="-0.3" width="515.2" height="300.5"/>
					</defs>
					<clipPath id="SVGID_18_">
						<use xlink:href="#SVGID_17_"  style="overflow:visible;"/>
					</clipPath>
					<path class="st23" d="M90.3,98.5c18.4-6.6,38.9-10.1,58.9-10.2c20-0.1,40.4,3.1,60.5,10.3l15-30.3L214.2,50
						c0,0-18.8,7.7-19,7.7c-0.2,0-13.3-14.4-13.3-14.4l-16.8,10.2l-15.8-12.1l-14.9,11.9l-17.4-10l-12.7,15l-19-8.1L75.3,68.4
						L90.3,98.5z"/>
					<g class="st24">
						<path class="st25" d="M209.9,99.2l-0.4-0.1c-19-6.8-39.2-10.3-59.9-10.3c-20.4,0.1-40.7,3.6-59.2,10.1L74.9,68.6L85.1,50
							l19.5,7.9L116.8,43l17.9,9.9L149,41l16.3,12.1l16.3-10.2c5.6,5.6,13.3,14.1,13.7,14.4c0.1-0.2,13.5-5.7,18.5-7.8l11.1,18.5
							L209.9,99.2L209.9,99.2z M85.3,50.6l-9.6,18l15,29.7c18-6.8,38.5-10.3,58.5-10.4c21.1,0,41.3,3.4,60.3,10.2l14.8-29.9
							l-10.5-18c-18.3,7.9-18.5,7.9-18.6,7.9c-0.3,0-0.4,0-13.6-14.6l-16.3,10.3L149,41.7l-14.3,11.9l-17.9-10l-12.1,14.9L85.3,50.6
							L85.3,50.6z"/>
					</g>
					<path class="st26" d="M186.4,90.1l8.6-30.4l18.4-7.5l9.7,16.3L209.2,97C201.2,93.8,196.9,92.4,186.4,90.1L186.4,90.1z"/>
					<g class="st24">
						<path class="st27" d="M209.2,97.1L209.2,97.1c-8-3.2-12.1-4.5-22.8-6.9l8.5-30.5l18.5-7.5l9.8,16.3L209.2,97.1L209.2,97.1z
							 M213.3,52.3l-18.2,7.5l-8.5,30.3c10.6,2.3,14.8,3.6,22.6,6.7L223,68.5L213.3,52.3L213.3,52.3z"/>
					</g>
					<path class="st26" d="M138,86.8l-2.9-31.4l14.6-11.6L165,55.3l-2.7,31.5C153.9,86.4,147.9,86.4,138,86.8L138,86.8z"/>
					<g class="st24">
						<path class="st27" d="M162.4,86.9L162.4,86.9c-8.5-0.5-14.5-0.4-24.4,0l-3-31.5l14.7-11.7l15.4,11.6L162.4,86.9L162.4,86.9z
							 M149.7,43.8l-14.5,11.6l2.9,31.3c9.6-0.6,15.7-0.5,24.1-0.1l2.7-31.4L149.7,43.8L149.7,43.8z"/>
					</g>
					<path class="st26" d="M91,97L77.4,68.1l9.1-15.9l18.9,8.2l8,29.7C104.7,92,100.2,93.4,91,97L91,97z"/>
					<g class="st24">
						<path class="st27" d="M91,97.1L77.3,68.2l9.1-16l19,8.2l8,29.8C104.6,92.1,99.9,93.6,91,97.1L91,97.1L91,97.1z M86.4,52.3
							l-9,15.9l13.6,28.6c8.8-3.4,13.5-4.9,22.2-6.7l-8.1-29.6L86.4,52.3L86.4,52.3z"/>
					</g>
					<path class="st23" d="M88.1,82.5c4.2,0.4,7.1,0.2,10.7-1c4.3-2,5.6-4.3,6.9-6.2c1,3.6,0.6,7.1-4.2,9.9
						C97.2,87.4,91,86.7,88.1,82.5L88.1,82.5z"/>
					<g class="st24">
						<path class="st28" d="M96.2,86.5c-3.5,0-6.5-1.4-8.2-4c1.3,0,2.5,0,3.5,0c2.6,0,4.7-0.4,7.2-1.2c4-1.8,5.4-3.9,6.6-5.8
							c0,0,0,0,0,0.1c-1.2,2.1-2.7,4.1-6.5,5.9c-3.6,1.2-6.5,1.5-10.8,1c2.7,3.6,8.9,4.8,13.4,2.5c3.9-2.3,4.8-5,4.6-7.4
							c0.4,2.4-0.4,5.2-4.5,7.6C99.9,86.1,98.1,86.5,96.2,86.5L96.2,86.5z"/>
					</g>
					<path class="st29" d="M153.7,60.2l-0.8,0.2l0,1.5l-1,0.2l-0.7,1.3l0.4,0.4c0,0-0.4,1-0.3,1c0,0,0.3,0.4,0.3,0.4l0.3,0.8
						l0.7,0.1l0.2,0.9l1.1,0.2l1,0.7l0.1,0.4l1.1,0l0.8,0.2l2.7-0.3l0.4-0.6l0-0.8l1.5,0l0.1-1.2h0.8l-0.1-1.4l0.6,0.1l-0.2-0.7
						l-0.4-0.5l-0.1-0.8l-1.1-1.1l-0.3-1.5c0,0-0.7-0.3-0.7-0.3c0,0,0-1,0-1l0.8-1.1l-0.1-0.5l-0.8,0l-0.6,0.5c0,0-0.8,0.1-0.8,0.1
						v0.3c0,0,0.2,0.6,0.2,0.7c0,0-0.9,0-0.9,0l0-1l-1.2-0.6c0,0-1.1,0.8-1.1,0.8c0,0-0.1,0.9-0.1,0.9l-0.6,0.2l-0.6-0.8l-1-0.4
						l-0.5,0l0,0.7l1,1.3L153.7,60.2z"/>
					<g class="st24">
						<path class="st30" d="M156.7,68.9l-2.1-0.3l-0.1-0.6l-0.9-0.5l-1-0.1l-0.4-1.1l-0.5,0.1l-0.6-1.9l0.4-0.5l-0.6-0.2l0.7-1.6
							l1.2-0.3l-0.2-1.2l1-0.4l-0.1-0.6l-1-1.2l-0.1-0.8l0-0.3l0.8,0l1.1,0.4l0.7,0.9l0.2-0.9c0-0.1,0-0.1,1.3-1l1.5,0.6l0.2,1.2
							l0.4-0.2l-0.2-0.3c0-0.7,0-0.7,1-0.8l0.4-0.4l0.9,0l0.2,0l0.1,0.7l-0.9,1.3l0.1,0.8c0-0.1,0.6,0.1,0.6,0.1l0.4,1.6l1.1,1
							l0.7,2.1l-0.9,0.3l0.4,1.1l-1,0.3l0.1,1l-1.7,0.3l0.2,0.5l-0.4,0.7L156.7,68.9L156.7,68.9z M156,68.1l0.8,0.2l2.7-0.3l0.2-0.4
							l0-0.6l1.7-0.3l-0.1-1l1-0.2l-0.4-1.1l0.9-0.2l-0.8-0.8l-0.1-1l-1.1-1l-0.3-1.6c-0.7-0.2-0.7-0.2-0.7-0.4l-0.1-1l0.9-1.3
							l-0.6-0.1l-0.4,0.4c-0.1,0.1-0.7,0.1-0.8,0.1c0.4,0.7,0.4,0.7,0.4,0.8l-1.1,0.2l-0.3-1.3l-1.1-0.4c0,0.1-0.7,0.6-0.9,0.7
							c0,0.1,0,0.7,0,0.7l0,0.2l-0.7,0.2l-0.8-0.9l-0.9-0.3l-0.2,0.4l1,1.2l-0.1,1l-1,0.4l0.2,1.2l-1.2,0.5l-0.5,1.2
							c0.5,0.3,0.5,0.4,0.3,1c-0.2,0-0.2,0.1,0.1,0.5l0.3,0.9l0.5-0.1l0.4,1.1l0.9,0l1.2,0.8l0.1,0.5L156,68.1L156,68.1z"/>
					</g>
					<g class="st24">
						<path class="st31" d="M161.4,65.7l-0.2-0.8L161.4,65.7z"/>
					</g>
					<g class="st24">
						<path class="st31" d="M162.1,64.3l-0.4-0.5L162.1,64.3z"/>
					</g>
					<path class="st32" d="M151.6,63.7l1.2-0.1l0.2,1.1l0.4,0.4l0.1,1.9l0.4,0.1l0.1-0.8l0.9-0.1l0.2,1.6l-0.2,0.2l0.1,0.2l1.1,0
						c0,0,0.3-0.4,0.3-0.4c0,0,0.6-0.1,0.6,0c0,0,0.3,0.5,0.3,0.5l0.2-0.6c0,0,0.6-0.2,0.6-0.2c0,0,0.5,0.7,0.5,0.7l0.8-0.1
						l-0.5-0.5l-0.2-1l1.1-0.6l0.4,0.8c0,0,0.4,0,0.4,0c0,0-0.5-0.9-0.5-0.9v-1.8l0.9-1.1l1.2-0.1v-0.5l-1.2-1.1l-0.3-1.5l-0.7-0.3
						l-0.2,0.2l-0.7,0.1l0.7,1.1v0.7l0.3,0.2l-0.1,1.9c0,0-0.8,0.1-0.8,0.1c0,0-0.1,1.1-0.1,1.1l-0.5,0.5c0,0-0.3,1-0.3,1
						c0,0-0.5,0.6-0.5,0.6l-0.9,0c0,0-0.5-0.5-0.5-0.5c0,0-0.1-0.7-0.1-0.7s-0.4-0.1-0.4-0.1c0,0-0.2-0.8-0.2-0.8l-0.6-0.4l0-0.5
						l-0.6-0.3c0,0-0.1-0.4-0.1-0.5c0,0-0.3-0.2-0.3-0.2c0,0,0-1.2,0-1.2l0.5-0.1l-0.3-0.4l-0.1-0.3v-0.3l0.4-0.4
						c0,0-0.8-0.1-0.8-0.1c0,0-0.8,0.4-0.8,0.3c0,0,0,1.4,0,1.4l-0.9,0.3l-0.7,1.2L151.6,63.7z"/>
					<g class="st24">
						<path class="st30" d="M154.8,68.6l-0.2-0.4l0-1.8l-0.7,0.3l0.1,0.5l-0.1,0.3l-0.7-0.3l-0.2-2.2l-0.6-1.4l-1,0.3l-0.5-0.4
							l0.7-1.5l1-0.4c-0.1-0.1-0.1-1.1-0.1-1.2c0.3-0.3,0.8-0.5,0.9-0.6c0.3-0.1,1,0,1,0l-0.4,1.3l-0.4-0.3l0.4-0.6
							c-0.2,0.1-0.4,0-0.4,0c0.2,0.1-0.3,0.2-0.6,0.3c0,0.1,0,0.5,0,1.2l-1.1,0.5l-0.6,1.1l1.3-0.1l0.5,1.3l0.5,2.3l0-0.6l1.1-0.3
							l0.4,1.8l-0.2,0.2l1.1-0.2l0,0.5L154.8,68.6L154.8,68.6z M158.5,68.5c-0.8-0.9-0.8-0.9-0.8-1l-0.3,0.2l0,0.1l-0.1-0.4
							c0.6-0.2,0.6-0.2,0.7-0.2c0.3,0.2,0.7,0.9,0.7,0.9l0.6-0.2l-0.6,0l-0.3-1.1l0.1-0.1c0,0-0.1,0-0.1,0l-0.3,0.5l-1.1,0.1
							c-0.8-0.6-0.8-0.7-0.8-0.8l-0.1-0.7c-0.4,0.1-0.4,0.1-0.6-0.9l-0.6-0.3l0-0.6l-0.6-0.1l-0.1-0.6c-0.4,0-0.4,0-0.4-1.5v-0.2
							l0.8-0.1l0,0l0.5,0.4l-0.8,0.1c0.1,0.1,0.1,0.8,0.1,0.9l1,0.8l0,0.6l0.5,0.2c0.1,0.2,0.3,0.8,0.3,0.9c0.4,0.2,0.5,0.9,0.5,1
							c0,0,0.4,0.3,0.4,0.3l0.8-0.1c0.3-0.6,0.4-0.6,0.5-0.6c-0.2,0,0.1-0.8,0.1-0.8l0.6-0.6l0-0.9c0-0.2,0-0.2,1.1-0.4l-0.5-2.6
							l-0.7-0.9l0.9-0.5l1,0.2l0.4,1.7l1.2,1v0.6l-1.4,0.4l-0.7,1l0,1.6l0,0c0,0,0.4,0.6,0.4,0.7l-0.6,0.4l-0.7-0.9l-0.8,0.7
							l0.8,1.1L158.5,68.5L158.5,68.5z M159.3,64c0.1,0.1,0,0.9,0,0.9l-0.6,0.7c-0.2,0.8-0.3,1-0.4,1.1l1.1-0.8l0.3,0.3
							c0,0,0-0.1-0.1-0.1l0-1.9l0.3-0.3C159.8,64,159.4,64,159.3,64L159.3,64z M159.8,59.8l-0.8,0.3l0.9,0.7l0.3,2.8l0.5-0.7
							l1.4-0.2l-1.3-1.1l-0.4-1.6L159.8,59.8L159.8,59.8z"/>
					</g>
					<path class="st33" d="M156.3,65.7l0.6-0.4l0-0.7l-0.6-0.1l-0.2-0.2l0.6,0.1l0.8-0.1l0.3-0.1c-0.1,0.3-0.2,0.3-0.2,0.3
						c0,0-0.4,0.2-0.4,0.2l0,0.7c0,0,1.4,0.2,1.4,0.2s0,0.3,0,0.3c0,0-1.4-0.3-1.4-0.3l-0.9,0.5L156.3,65.7z"/>
					<g class="st24">
						<path class="st30" d="M155.9,66.3l0.3-0.7l0.7-0.4l-0.2-0.7l0.3,0.1l0-0.1l0.6-0.2l0,0.1l-0.4,0.3l0.1,0.5
							c1.4,0.1,1.4,0.1,1.4,0.2c-0.2,0.4-0.2,0.4-1.6,0.1L155.9,66.3L155.9,66.3z"/>
					</g>
					<path class="st32" d="M159.8,61.6l-0.8,0.6l-0.5,0.9l-0.3,0l-0.8-1l-0.9,0c0,0-0.5,1.2-0.5,1.2c0,0-0.4,0-0.4,0l-0.9-1
						c0,0-0.3-0.5-0.3-0.5c0.1,0,2.3,0,2.3,0l0-1.1c0,0-0.4-0.1-0.5-0.2c0.1,0,1.3,0,1.3,0l-0.5,0.3v0.9l2,0L159.8,61.6z"/>
					<g class="st24">
						<path class="st30" d="M156,63.6l-0.4,0l-1.2-1.2l-0.2-0.7l2.6-0.1l-0.2-0.8l0.3-0.1c-0.1,0-0.2,0.1-0.3,0.1
							c-0.2-0.5,0.2-0.5,1-0.5h0.8l-1.1,0.8l0.1,0.7l2.4-0.4l-1.2,1.9l-0.5,0l-0.8-1l-0.6,0.1c0.1,0.1-0.3,1-0.3,1.1L156,63.6
							L156,63.6z M157,61.9l-2.5,0.2l1.4,1.1c0.1-0.2,0.2-0.5,0.4-1.1L157,61.9L157,61.9L157,61.9z"/>
					</g>
					<path class="st33" d="M155.6,62.1h0.2c0.1,0,0.2,0.1,0.2,0.2v0.2c0,0.1-0.1,0.2-0.2,0.2h-0.2c-0.1,0-0.2-0.1-0.2-0.2v-0.2
						C155.4,62.2,155.5,62.1,155.6,62.1L155.6,62.1z"/>
					<path class="st33" d="M158.1,62h0.2c0.1,0,0.2,0.1,0.2,0.2v0.2c0,0.1-0.1,0.2-0.2,0.2h-0.2c-0.1,0-0.2-0.1-0.2-0.2v-0.2
						C158,62.1,158.1,62,158.1,62L158.1,62z"/>
					<g class="st24">
						<path class="st30" d="M154.5,60.5l-0.3-0.2l0.1-0.3c0.8-0.3,1.4-0.6,2.4-0.6c1-0.1,1.8,0,2.7,0.2c-1,0.3-1.7,0.2-2.7,0.3
							C155.8,60,155.2,60.2,154.5,60.5L154.5,60.5z"/>
					</g>
					<polygon class="st32" points="154.7,58.6 154,58.6 153,57.6 153.6,57.6 154.2,57.9 					"/>
					<g class="st24">
						<polygon class="st30" points="155.2,58.9 154,58.9 152.3,57.2 154.3,57.7 155.2,58.9 						"/>
					</g>
					<polygon class="st32" points="158.9,58.2 160.4,57 159.9,57 159.3,57.5 158.6,57.6 					"/>
					<g class="st24">
						<polygon class="st31" points="158.9,58.2 160.4,57 159.9,57 159.3,57.5 158.6,57.6 						"/>
					</g>
					<path class="st32" d="M157.9,58.4l-2.5,0.1l0-0.3l0.9-0.1l0.1-0.4c0,0,0.3,0,0.3,0c0,0,0.2,0.3,0.2,0.3l0.9,0.2L157.9,58.4z"/>
					<g class="st24">
						<polygon class="st30" points="155.2,58.8 155.3,58.2 156.4,57.9 155.9,58.2 156.7,58.2 156.6,57.9 157.9,58.1 158.2,58.4 
							158,58.7 155.2,58.8 						"/>
					</g>
					<polygon class="st32" points="157.8,57.5 157,57.5 156.9,57.1 					"/>
					<g class="st24">
						<polygon class="st31" points="157.8,57.5 157,57.5 156.9,57.1 						"/>
					</g>
					<polygon class="st32" points="156.4,57.1 156.3,57.5 155.5,57.7 					"/>
					<g class="st24">
						<polygon class="st31" points="156.4,57.1 156.3,57.5 155.5,57.7 						"/>
					</g>
					<polygon class="st32" points="151.7,65.5 152.1,64.4 151.7,63.7 151.4,64.8 					"/>
					<g class="st24">
						<polygon class="st31" points="151.7,65.5 152.1,64.4 151.7,63.7 151.4,64.8 						"/>
					</g>
					<polygon class="st32" points="152.5,66.1 153.1,64.8 152.1,65.8 					"/>
					<g class="st24">
						<polygon class="st30" points="152.7,66.4 152,66 152.8,64.7 152.3,66 152.5,66.1 152.3,66 152.9,64.6 152.7,66.4 						"/>
					</g>
					<path class="st29" d="M140.1,60.7l-0.8,0.2l0,1.5l-1,0.2l-0.7,1.3l0.4,0.4c0,0-0.3,1-0.3,1c0,0,0.3,0.4,0.3,0.4l0.3,0.8
						l0.7,0.1l0.2,0.9l1.1,0.2l1,0.7l0.1,0.4l1.1,0l0.8,0.2l2.7-0.3l0.4-0.6l0-0.8l1.5,0l0.1-1.2h0.8l-0.1-1.4l0.7,0.1l-0.2-0.7
						l-0.4-0.5l-0.1-0.8l-1.1-1.1l-0.3-1.5c0,0-0.7-0.3-0.7-0.3c0,0-0.1-1-0.1-1l0.8-1.1l-0.1-0.4l-0.8,0l-0.6,0.5
						c0,0-0.8,0.1-0.8,0.1v0.3c0,0,0.2,0.6,0.2,0.6c0,0-0.9,0-0.9,0l0-1l-1.2-0.6c0,0-1.1,0.8-1.1,0.8c0,0-0.1,0.9-0.1,0.9l-0.6,0.2
						l-0.6-0.8l-1-0.4l-0.5,0l0,0.6l1,1.4L140.1,60.7z"/>
					<g class="st24">
						<path class="st30" d="M143.1,69.3L141,69l-0.1-0.6l-0.9-0.5l-1-0.1l-0.4-1.1l-0.5,0.1l-0.6-1.8c0.1-0.2,0.2-0.5,0.2-0.6
							l-0.4-0.5l0.7-1.3l1.2-0.3l-0.2-1.2l1-0.5l-0.1-0.6l-1-1.2l0-0.8l0-0.3l0.8,0l1.1,0.4l0.7,0.9l0.2-0.9c0-0.1,0-0.1,1.3-1
							l1.5,0.6l0.2,1.2l0.4-0.2l-0.2-0.3c0-0.7,0-0.7,1-0.8l0.4-0.4l0.9,0l0.2,0l0.1,0.7l-0.9,1.3l0.1,0.8c0-0.1,0.6,0.1,0.6,0.1
							l0.4,1.6l1.1,1l0.7,2.1l-0.9,0.3l0.4,1.1l-1,0.3l0.1,1l-1.7,0.3l0.2,0.5l-0.4,0.7L143.1,69.3L143.1,69.3z M142.4,68.5l0.8,0.2
							l2.7-0.3L146,68l0-0.6l1.7-0.3l-0.1-1l1-0.2l-0.4-1.1l0.9-0.2l-0.8-0.8l-0.1-1l-1.1-1l-0.3-1.6c-0.7-0.2-0.7-0.2-0.7-0.4
							l-0.1-1l0.9-1.3l-0.6-0.1l-0.4,0.4c-0.1,0.1-0.8,0.1-0.9,0.1c0.4,0.7,0.4,0.7,0.4,0.8l-1.1,0.2l-0.3-1.2l-1.1-0.4
							c0,0.1-0.7,0.6-0.9,0.7c0,0.1,0,0.7,0,0.7l0,0.2l-0.7,0.2l-0.8-0.9l-0.9-0.3l-0.2,0.4l1,1.2l0,1l-1,0.4l0.2,1.2l-1.2,0.5
							l-0.5,1.2c0.5,0.3,0.5,0.3,0.2,1.1c-0.2-0.1-0.2-0.1,0.1,0.4l0.3,0.9l0.5-0.1l0.4,1.1l0.9,0l1.2,0.8l0.1,0.5L142.4,68.5
							L142.4,68.5z"/>
					</g>
					<g class="st24">
						<path class="st31" d="M147.9,66.1l-0.2-0.8L147.9,66.1z"/>
					</g>
					<g class="st24">
						<path class="st31" d="M148.5,64.8l-0.4-0.6L148.5,64.8z"/>
					</g>
					<path class="st32" d="M138.1,64.2l1.2-0.1l0.2,1.1l0.4,0.3l0.1,1.9l0.4,0.2l0.1-0.8l0.9-0.1l0.2,1.6l-0.2,0.2l0.1,0.2l1.1,0
						c0,0,0.3-0.4,0.3-0.4c0,0,0.6-0.1,0.6-0.1c0,0,0.3,0.5,0.3,0.5l0.2-0.6c0,0,0.6-0.2,0.6-0.2c0,0,0.5,0.7,0.5,0.7l0.8-0.1
						l-0.5-0.5l-0.2-1l1.1-0.6l0.4,0.7c0,0,0.4,0,0.4,0s-0.5-0.9-0.5-0.9v-1.8l0.9-1.1l1.2-0.1v-0.5l-1.2-1.1l-0.3-1.5l-0.7-0.3
						l-0.2,0.2l-0.7,0.1l0.7,1.1V62l0.3,0.2l-0.1,1.9c0,0-0.8,0.1-0.8,0.1c0,0-0.1,1.1-0.1,1.1l-0.5,0.5c0,0-0.3,1-0.3,1
						c0,0-0.5,0.6-0.5,0.6l-0.9,0c0,0-0.5-0.5-0.5-0.5c0,0-0.1-0.7-0.1-0.7s-0.4-0.1-0.4-0.1c0,0-0.2-0.8-0.2-0.8l-0.6-0.4l0-0.5
						l-0.6-0.3c0,0-0.1-0.4-0.1-0.5c0,0-0.3-0.2-0.3-0.2c0,0,0-1.2,0-1.2l0.5-0.1l-0.3-0.4l-0.1-0.3v-0.4l0.4-0.4
						c0,0-0.8-0.1-0.8-0.1c0,0-0.8,0.4-0.8,0.3c0,0,0,1.4,0,1.4l-0.9,0.3l-0.7,1.2L138.1,64.2z"/>
					<g class="st24">
						<path class="st30" d="M141.2,69l-0.2-0.4l0-1.8l-0.7,0.3l0.1,0.6l-0.1,0.3l-0.7-0.3l-0.2-2.2l-0.6-1.4l-1,0.3l-0.4-0.4
							l0.7-1.5l1-0.4c-0.1-0.1-0.1-1.1-0.1-1.2c0.3-0.3,0.8-0.5,0.9-0.6c0.3,0,1,0,1,0l-0.4,1.3l-0.4-0.3l0.4-0.7
							c-0.2,0-0.4,0-0.4,0c0.2,0.1-0.3,0.2-0.6,0.3c0,0.1,0,0.5,0,1.2l-1.1,0.5l-0.6,1.1l1.3-0.1l0.5,1.3l0.5,2.3l0-0.6l1.1-0.3
							l0.4,1.8l-0.2,0.2l1.1-0.2l0,0.5L141.2,69L141.2,69z M144.9,68.9c-0.8-0.9-0.8-0.9-0.8-1l-0.3,0.2l0,0.1l-0.1-0.4
							c0.6-0.2,0.6-0.2,0.7-0.2l0.7,0.9l0.6-0.2l-0.6,0l-0.3-1.1l1.2-0.9l0.3,0.3c0,0,0-0.1,0-0.1l0-1.9l0.3-0.4
							c-0.2,0.1-0.6,0.2-0.7,0.2c0.1,0.1,0,0.9,0,0.9l-0.6,0.7c-0.3,1.1-0.3,1.1-0.5,1.1l-0.3,0.5l-1.1,0.1
							c-0.8-0.6-0.8-0.7-0.8-0.8l-0.1-0.7c-0.4,0.1-0.4,0-0.6-0.9l-0.6-0.3l-0.1-0.6l-0.6-0.1l-0.1-0.6c-0.3,0-0.3,0-0.3-1.5v-0.2
							l0.7-0.1l0,0l0.5,0.4l-0.8,0.1c0.1,0.1,0.1,0.8,0.1,0.9l1,0.8l0.1,0.6l0.5,0.2c0.1,0.2,0.3,0.8,0.3,0.9c0.4,0.2,0.5,0.9,0.5,1
							c0-0.1,0.4,0.3,0.4,0.3l0.8-0.1c0.4-0.6,0.4-0.6,0.5-0.6c-0.2,0,0.1-0.8,0.1-0.8l0.6-0.6l0-0.9c0-0.2,0.1-0.2,1.1-0.4
							l-0.5-2.6l-0.7-0.9l0.9-0.5l1,0.2l0.4,1.7l1.2,1v0.6l-1.4,0.4l-0.7,1l0.1,1.6l0,0c0,0,0.4,0.6,0.4,0.7h0l-0.6,0.4l-0.7-0.9
							l-0.8,0.7l0.7,1.1L144.9,68.9L144.9,68.9z M146.2,60.2l-0.8,0.3l0.9,0.7l0.3,2.8l0.5-0.7l1.4-0.2l-1.3-1.1l-0.4-1.6
							L146.2,60.2L146.2,60.2z"/>
					</g>
					<path class="st33" d="M142.7,66.1l0.6-0.4l0-0.7l-0.6-0.1l-0.2-0.2l0.6,0.1l0.8-0.1l0.3-0.1c-0.1,0.3-0.2,0.3-0.2,0.3
						c0,0-0.4,0.2-0.4,0.2l0,0.7c0,0,1.4,0.2,1.4,0.2c0,0,0,0.3,0,0.3c0,0-1.4-0.3-1.4-0.3l-0.9,0.5L142.7,66.1z"/>
					<g class="st24">
						<path class="st30" d="M142.3,66.8l0.3-0.7l0.7-0.4l-0.2-0.7l0.3,0.1l0-0.1l0.6-0.2l0,0.1l-0.4,0.3l0.1,0.5
							c1.4,0.1,1.4,0.1,1.4,0.2c-0.2,0.4-0.2,0.4-1.6,0.1L142.3,66.8L142.3,66.8z"/>
					</g>
					<path class="st32" d="M146.2,62l-0.8,0.6l-0.5,0.9l-0.3,0l-0.8-1l-0.9,0c0,0-0.5,1.2-0.5,1.2c0,0-0.4,0-0.4,0l-0.9-1
						c0,0-0.3-0.5-0.3-0.5c0,0,2.3,0,2.3,0l0-1.1c0,0-0.4-0.1-0.5-0.2c0.1,0,1.3,0,1.3,0l-0.5,0.3v0.9l2,0L146.2,62z"/>
					<g class="st24">
						<path class="st30" d="M142.4,64.1L142,64l-1.2-1.2l-0.2-0.7l2.6-0.1l-0.2-0.8l0.2-0.1c-0.1,0-0.2,0.1-0.3,0.1
							c-0.2-0.5,0.2-0.5,1-0.5h0.8l-1.2,0.8l0.1,0.7l2.4-0.4l-1.2,1.9l-0.5,0l-0.8-1l-0.6,0.1c0.1,0.1-0.3,1-0.3,1.1L142.4,64.1
							L142.4,64.1z M143.4,62.3l-2.5,0.2l1.4,1.1c0.1-0.2,0.2-0.5,0.4-1.1L143.4,62.3L143.4,62.3L143.4,62.3z"/>
					</g>
					<path class="st33" d="M142,62.6h0.2c0.1,0,0.2,0.1,0.2,0.2v0.2c0,0.1-0.1,0.2-0.2,0.2H142c-0.1,0-0.2-0.1-0.2-0.2v-0.2
						C141.9,62.6,141.9,62.6,142,62.6L142,62.6z"/>
					<path class="st33" d="M144.6,62.5h0.2c0.1,0,0.2,0.1,0.2,0.2v0.2c0,0.1-0.1,0.2-0.2,0.2h-0.2c-0.1,0-0.2-0.1-0.2-0.2v-0.2
						C144.4,62.5,144.5,62.5,144.6,62.5L144.6,62.5z"/>
					<g class="st24">
						<path class="st30" d="M141,61l-0.3-0.1l0.1-0.3c0.7-0.3,1.4-0.5,2.3-0.6c1-0.1,1.8,0,2.7,0.2c-0.9,0.3-1.7,0.2-2.6,0.3
							C142.3,60.4,141.7,60.7,141,61L141,61z"/>
					</g>
					<polygon class="st32" points="141.1,59 140.4,59 139.4,58 140,58.1 140.6,58.4 					"/>
					<g class="st24">
						<polygon class="st30" points="141.6,59.3 140.4,59.3 138.8,57.7 140.7,58.1 141.6,59.3 						"/>
					</g>
					<polygon class="st32" points="145.3,58.6 146.9,57.5 146.3,57.4 145.8,57.9 145.1,58 					"/>
					<g class="st24">
						<polygon class="st31" points="145.3,58.6 146.9,57.5 146.3,57.4 145.8,57.9 145.1,58 						"/>
					</g>
					<path class="st32" d="M144.4,58.9l-2.5,0.1l0-0.3l0.9-0.1l0.1-0.4c0,0,0.3,0,0.3,0c0,0,0.2,0.3,0.2,0.3l0.9,0.2L144.4,58.9z"/>
					<g class="st24">
						<polygon class="st30" points="141.6,59.2 141.7,58.7 142.8,58.3 142.3,58.7 143.1,58.7 143,58.3 144.3,58.5 144.6,58.9 
							144.4,59.1 141.6,59.2 						"/>
					</g>
					<polygon class="st32" points="144.3,57.9 143.4,58 143.3,57.5 					"/>
					<g class="st24">
						<polygon class="st31" points="144.3,57.9 143.4,58 143.3,57.5 						"/>
					</g>
					<polygon class="st32" points="142.8,57.5 142.8,58 141.9,58.1 					"/>
					<g class="st24">
						<polygon class="st31" points="142.8,57.5 142.8,58 141.9,58.1 						"/>
					</g>
					<polygon class="st32" points="138.1,65.9 138.5,64.9 138.2,64.2 137.8,65.2 					"/>
					<g class="st24">
						<polygon class="st31" points="138.1,65.9 138.5,64.9 138.2,64.2 137.8,65.2 						"/>
					</g>
					<polygon class="st32" points="139,66.5 139.5,65.2 138.5,66.3 					"/>
					<g class="st24">
						<polygon class="st30" points="139.1,66.8 138.4,66.5 139.3,65.2 138.7,66.4 139,66.5 138.7,66.4 139.3,65.1 139.1,66.8 						
							"/>
					</g>
					<path class="st34" d="M162.5,86.8l2.7-31.5l16.7-9.6l12.9,14L186.2,90C177.9,88.3,173.1,87.6,162.5,86.8L162.5,86.8z"/>
					<g class="st24">
						<path class="st35" d="M186.3,90.1l-0.1,0c-8.3-1.7-13.1-2.4-23.7-3.2l2.6-31.6l16.8-9.7l13,14L186.3,90.1L186.3,90.1z
							 M181.8,45.7l-16.6,9.6l-2.7,31.4c10.5,0.7,15.3,1.4,23.5,3.1l8.6-30.3L181.8,45.7L181.8,45.7z"/>
					</g>
					<path class="st29" d="M147.2,72.4l-0.8,0.2l0,1.5l-1,0.2l-0.7,1.3l0.4,0.4c0,0-0.4,1-0.3,1c0,0,0.3,0.4,0.3,0.4l0.3,0.8
						l0.7,0.1l0.2,0.9l1.1,0.2l1,0.7l0.1,0.4l1.1,0l0.8,0.2l2.7-0.3l0.4-0.6l0-0.8l1.5,0l0.1-1.2h0.8l-0.1-1.4l0.6,0.1L156,76
						l-0.4-0.5l-0.1-0.8l-1.1-1.1l-0.3-1.5c0,0-0.7-0.3-0.7-0.3c0,0,0-1,0-1l0.8-1.1l-0.1-0.5l-0.8,0l-0.6,0.5c0,0-0.8,0.1-0.8,0.1
						V70c0,0,0.2,0.6,0.2,0.6c0,0-0.9,0-0.9,0l0-1l-1.2-0.6c0,0-1.1,0.8-1.1,0.8c0,0-0.1,0.9-0.1,0.9l-0.6,0.2l-0.6-0.8l-1-0.4
						l-0.5,0l0,0.6l1,1.3L147.2,72.4z"/>
					<g class="st24">
						<path class="st30" d="M150.2,81.1l-2.1-0.3l-0.1-0.6l-0.9-0.5l-1-0.1l-0.4-1.1l-0.5,0.1l-0.7-2l-0.1-0.9l0.7-1.3l1.2-0.3
							l-0.2-1.2l1-0.4l-0.1-0.6l-1-1.2l-0.1-0.8l0-0.3l0.8,0l1.1,0.4l0.7,0.9l0.2-0.9c0-0.1,0-0.1,1.3-1l1.5,0.6l0.2,1.2l0.4-0.2
							l-0.2-0.3c0-0.7,0-0.7,1-0.8l0.4-0.4l0.9,0l0.2,0l0.1,0.7l-0.9,1.3l0.1,0.8c0-0.1,0.6,0.1,0.6,0.1l0.4,1.6l1.1,1l0.7,2.1
							l-0.9,0.3l0.4,1.1l-1,0.3l0.1,1l-1.7,0.3l0.2,0.5l-0.4,0.7L150.2,81.1L150.2,81.1z M149.4,80.3l0.8,0.2l2.6-0.3l0.2-0.4l0-0.6
							l1.7-0.3l-0.1-1l1-0.2l-0.4-1.1l0.9-0.2l-0.8-0.8l-0.1-1l-1.1-1l-0.3-1.6c-0.7-0.2-0.7-0.2-0.7-0.4l-0.1-1l0.9-1.3l-0.6-0.1
							l-0.4,0.4c-0.1,0.1-0.8,0.1-0.9,0.1c0.4,0.7,0.4,0.7,0.4,0.8l-1.1,0.2l-0.3-1.2l-1.1-0.4c0,0.1-0.7,0.6-0.9,0.7
							c0.1,0,0,0.7,0,0.7l0,0.2l-0.7,0.2l-0.8-0.9l-0.9-0.3l-0.2,0.4l1,1.2l-0.1,1l-1,0.4l0.2,1.2l-1.2,0.5l-0.5,1.2
							c0.5,0.3,0.5,0.4,0.3,1c-0.2,0-0.2,0.1,0.1,0.5l0.3,0.9L146,78l0.4,1.1l0.9,0l1.2,0.8l0.1,0.5L149.4,80.3L149.4,80.3z"/>
					</g>
					<g class="st24">
						<path class="st31" d="M154.9,77.9l-0.2-0.8L154.9,77.9z"/>
					</g>
					<g class="st24">
						<path class="st31" d="M155.5,76.6l-0.4-0.5L155.5,76.6z"/>
					</g>
					<path class="st32" d="M145.1,75.9l1.2-0.1l0.2,1.1l0.4,0.4l0.1,1.9l0.4,0.2l0.1-0.8l0.9-0.1l0.2,1.6l-0.2,0.2l0.1,0.2l1.1,0
						c0,0,0.2-0.4,0.3-0.4s0.6-0.1,0.6,0c0,0,0.2,0.5,0.2,0.5l0.2-0.6c0,0,0.6-0.2,0.6-0.2c0,0,0.5,0.7,0.5,0.7l0.8-0.1l-0.5-0.5
						l-0.2-1l1.1-0.6l0.4,0.8c0,0,0.4,0,0.4,0c0,0-0.5-0.9-0.5-0.9v-1.8l0.8-1.1l1.2-0.1v-0.5l-1.2-1.1l-0.3-1.5l-0.7-0.3l-0.2,0.2
						l-0.7,0.1l0.7,1.1v0.7l0.3,0.2l-0.1,1.9c0,0-0.8,0.1-0.8,0.1c0,0-0.1,1.1-0.1,1.1l-0.5,0.5c0,0-0.3,1-0.3,1
						c0,0-0.5,0.6-0.5,0.6l-0.9,0c0,0-0.5-0.5-0.5-0.5c0,0-0.1-0.7-0.1-0.7s-0.4-0.1-0.4-0.1c0,0-0.2-0.8-0.2-0.8l-0.6-0.3l0-0.5
						l-0.6-0.3c0,0-0.1-0.4-0.1-0.5c0,0-0.3-0.2-0.3-0.2c0,0,0-1.2,0-1.2L148,74l-0.3-0.4l-0.1-0.3v-0.4l0.4-0.4
						c0,0-0.8-0.1-0.8-0.1c0,0-0.8,0.4-0.8,0.3c0,0,0,1.4,0,1.4l-0.9,0.3l-0.7,1.2L145.1,75.9z"/>
					<g class="st24">
						<path class="st30" d="M148.3,80.8l-0.2-0.4l0-1.8l-0.7,0.3l0.1,0.6l0,0.3l-0.7-0.3l-0.2-2.2l-0.6-1.4l-1,0.3l-0.4-0.4l0.7-1.5
							l1-0.4c-0.1-0.1-0.1-1-0.1-1.2c0.3-0.3,0.8-0.5,0.9-0.6c0.3,0,1,0.1,1,0.1l-0.4,1.3l-0.4-0.3l0.4-0.6c-0.2,0-0.4,0-0.4,0
							c0.2,0.1-0.3,0.2-0.6,0.3c0,0.2,0,0.5,0,1.2l-1.1,0.5l-0.6,1.1l1.3-0.1l0.5,1.2l0.5,2.3v-0.6l1.1-0.3l0.4,1.8l-0.2,0.2
							l1.1-0.2l0,0.5L148.3,80.8L148.3,80.8z M151.9,80.7c-0.8-0.9-0.8-0.9-0.8-1l-0.3,0.9l-0.7-0.5l-0.4,0.1l0.6-0.3l0,0.3l0.4,0.3
							l0-0.1l-0.2-0.6c0.6-0.2,0.6-0.2,0.7-0.2c0.3,0.2,0.7,0.9,0.7,0.9l0.6-0.2l-0.6,0l-0.3-1.1l1.2-0.9l0.3,0.3c0,0,0-0.1-0.1-0.1
							l0-1.9l0.2-0.3c-0.2,0.1-0.6,0.2-0.7,0.2c0.1,0.1,0,0.9,0,0.9l-0.6,0.7c-0.3,1.1-0.3,1.1-0.5,1.1c0.1,0-0.3,0.5-0.3,0.5
							l-1.1,0.1c-0.8-0.6-0.8-0.6-0.8-0.8l-0.1-0.7c-0.3,0.1-0.4,0.1-0.6-0.9l-0.6-0.3l0-0.6l-0.6-0.1l-0.1-0.6
							c-0.4,0-0.4,0-0.4-1.5v-0.2l0.8-0.1l0,0l0.5,0.4l-0.9,0.1c0.1,0.1,0.1,0.8,0.1,0.9c0.3,0.1,0.3,0.1,0.4,0.7l0.6,0.1l0,0.6
							l0.5,0.2c0.1,0.2,0.3,0.8,0.3,0.9c0.4,0.2,0.5,0.9,0.5,1c0-0.1,0.5,0.3,0.5,0.3l0.8-0.1c0.3-0.6,0.3-0.6,0.5-0.6
							c-0.2,0,0.1-0.8,0.1-0.8l0.6-0.6l0-0.9c0-0.2,0-0.2,1.1-0.4l-0.5-2.6l-0.7-0.9l0.9-0.5l1,0.2l0.4,1.7l1.2,1v0.6l-1.4,0.4
							l-0.7,1l0,1.6l0,0c0,0,0.4,0.6,0.4,0.7l-0.6,0.4l-0.7-0.9l-0.8,0.7l0.8,1.1L151.9,80.7L151.9,80.7z M153.3,72l-0.8,0.3
							l0.9,0.7l0.3,2.8l0.5-0.6l1.4-0.2l-1.3-1.1l-0.4-1.6L153.3,72L153.3,72z"/>
					</g>
					<path class="st33" d="M149.7,77.9l0.6-0.3l0-0.7l-0.6-0.1l-0.2-0.2l0.7,0.1l0.8-0.1l0.3-0.1c-0.1,0.3-0.2,0.3-0.2,0.3
						c0,0-0.4,0.2-0.4,0.2l0,0.7c0,0,1.4,0.2,1.4,0.2c0,0,0,0.3,0,0.3c0,0-1.4-0.3-1.4-0.3l-0.9,0.5L149.7,77.9z"/>
					<g class="st24">
						<path class="st30" d="M149.4,78.5l0.3-0.7l0.7-0.4l-0.2-0.7l0.3,0.1l0-0.1l0.6-0.2l0,0.1l-0.4,0.3l0.1,0.5
							c1.4,0.1,1.4,0.1,1.4,0.2c-0.2,0.4-0.2,0.4-1.6,0.1L149.4,78.5L149.4,78.5z"/>
					</g>
					<path class="st32" d="M153.2,73.8l-0.8,0.6l-0.5,0.9l-0.3,0l-0.8-1l-0.9,0c0,0-0.5,1.2-0.5,1.2c0,0-0.4,0-0.4,0l-0.9-1
						c0,0-0.3-0.5-0.2-0.5c0.1,0,2.3,0,2.3,0l0-1.1c0,0-0.4-0.1-0.5-0.2c0.1-0.1,1.3-0.1,1.3-0.1l-0.5,0.3V74l2,0L153.2,73.8z"/>
					<g class="st24">
						<path class="st30" d="M149.5,75.9l-0.4-0.1l-1.2-1.2l-0.2-0.7l2.6-0.1L150,73l0.3-0.1c-0.1,0-0.2,0.1-0.3,0.1
							c-0.2-0.5,0.2-0.5,1-0.5h0.8l-1.1,0.8l0.1,0.7l2.4-0.4l-1.2,1.9l-0.5,0l-0.8-1l-0.6,0.1c0.1,0.1-0.3,1-0.3,1.1L149.5,75.9
							L149.5,75.9z M150.5,74.1l-2.5,0.2l1.4,1.1c0.1-0.2,0.2-0.5,0.4-1.1L150.5,74.1L150.5,74.1L150.5,74.1z"/>
					</g>
					<path class="st33" d="M149.1,74.3h0.2c0.1,0,0.2,0.1,0.2,0.2v0.2c0,0.1-0.1,0.2-0.2,0.2h-0.2c-0.1,0-0.2-0.1-0.2-0.2v-0.2
						C148.9,74.4,149,74.3,149.1,74.3L149.1,74.3z"/>
					<path class="st33" d="M151.6,74.2h0.2c0.1,0,0.2,0.1,0.2,0.2v0.2c0,0.1-0.1,0.2-0.2,0.2h-0.2c-0.1,0-0.2-0.1-0.2-0.2v-0.2
						C151.4,74.3,151.5,74.2,151.6,74.2L151.6,74.2z"/>
					<g class="st24">
						<path class="st30" d="M147.9,72.8l-0.3-0.2l0.1-0.3c0.8-0.3,1.4-0.6,2.4-0.7c1-0.1,1.8,0,2.7,0.2c-1,0.3-1.7,0.2-2.7,0.3
							C149.3,72.2,148.7,72.5,147.9,72.8L147.9,72.8z"/>
					</g>
					<polygon class="st32" points="148.2,70.8 147.5,70.8 146.5,69.8 147,69.9 147.7,70.1 					"/>
					<g class="st24">
						<polygon class="st30" points="148.6,71.1 147.5,71.1 145.8,69.5 147.8,69.9 148.6,71.1 						"/>
					</g>
					<polygon class="st32" points="152.3,70.4 153.9,69.2 153.4,69.2 152.8,69.7 152.1,69.8 					"/>
					<g class="st24">
						<polygon class="st31" points="152.3,70.4 153.9,69.2 153.4,69.2 152.8,69.7 152.1,69.8 						"/>
					</g>
					<path class="st32" d="M151.4,70.6l-2.5,0.1l0-0.3l0.9-0.1L150,70c0,0,0.3,0,0.3,0s0.2,0.3,0.2,0.3l0.9,0.2L151.4,70.6z"/>
					<g class="st24">
						<polygon class="st30" points="148.7,71 148.7,70.4 149.9,70.1 149.4,70.5 150.2,70.4 150,70.1 151.4,70.3 151.6,70.6 
							151.4,70.9 148.7,71 						"/>
					</g>
					<polygon class="st32" points="151.3,69.7 150.4,69.7 150.4,69.3 					"/>
					<g class="st24">
						<polygon class="st31" points="151.3,69.7 150.4,69.7 150.4,69.3 						"/>
					</g>
					<polygon class="st32" points="149.9,69.3 149.8,69.8 149,69.9 					"/>
					<g class="st24">
						<polygon class="st31" points="149.9,69.3 149.8,69.8 149,69.9 						"/>
					</g>
					<polygon class="st32" points="145.2,77.7 145.6,76.7 145.2,75.9 144.8,77 					"/>
					<g class="st24">
						<polygon class="st31" points="145.2,77.7 145.6,76.7 145.2,75.9 144.8,77 						"/>
					</g>
					<polygon class="st32" points="146,78.3 146.5,77 145.5,78 					"/>
					<g class="st24">
						<polygon class="st30" points="146.1,78.6 145.4,78.3 146.3,76.9 145.7,78.2 146,78.3 145.8,78.2 146.3,76.9 146.1,78.6 						
							"/>
					</g>
					<path class="st36" d="M166.6,81.1l-0.8,1l0.1,0.8l1.7,0c0.6-0.1,0.7-0.3,0.8-0.6c0.2-0.3,0.1-0.4,0.1-0.8L166.6,81.1z"/>
					<g class="st24">
						<path class="st37" d="M165.8,83l-0.1-0.9l0.9-1.1l2,0.4l-0.1,0.9l0.1,0c-0.1,0.2-0.3,0.5-0.9,0.6L165.8,83L165.8,83z"/>
					</g>
					<path class="st36" d="M170.8,83.4L170,84l-0.1,0.8l1.5,0.1c0.6-0.1,0.7-0.2,0.8-0.4c0.2-0.3,0.1-0.3,0.2-0.6L170.8,83.4z"/>
					<g class="st24">
						<path class="st37" d="M171.5,85l-1.6-0.1l0-0.9l0.8-0.7l1.8,0.4l-0.3,0.7l0.1,0.1C172.2,84.8,172.1,84.9,171.5,85L171.5,85
							L171.5,85z"/>
					</g>
					<path class="st36" d="M177.6,81.5l-0.8,0.8l0,0.6l1.6,0.1c0.6-0.1,0.5-0.1,0.6-0.4c0.2-0.3,0.1-0.3,0.2-0.7L177.6,81.5z"/>
					<g class="st24">
						<path class="st37" d="M178.5,83.1l-1.6-0.1l-0.1-0.7l0.8-0.9l1.8,0.4l-0.2,0.8l0.1,0.1C179,83,179,83,178.5,83.1L178.5,83.1
							L178.5,83.1z"/>
					</g>
					<path class="st36" d="M182.4,83l-0.9,0.8v0.8l1.7,0.2c0.6-0.1,0.6-0.3,0.7-0.5c0.2-0.3,0.1-0.3,0.1-0.7L182.4,83z"/>
					<g class="st24">
						<path class="st37" d="M183.2,84.8l-1.8-0.2l-0.1-0.9l1-0.9l1.8,0.5l-0.1,0.8C183.9,84.5,183.8,84.7,183.2,84.8L183.2,84.8
							L183.2,84.8z"/>
					</g>
					<path class="st36" d="M170.7,62.3l3.3,2.2c0.6-0.5,1.9-0.2,2.4-0.1c0.9,0.2,1.5,0.8,2.3,0.9c1.4,0.4,3.2,0.6,4.5,0.5
						c1.3-0.1,2.4-0.8,3.4-1.3v-0.3H186c-1,0.4-2.5,0.4-3.6,0.2c-1.1-0.1-1.4-0.6-3.1-1.1l-0.1-0.3c2,0.1,2.4,0,3.3-0.3
						c0.8-0.2,1.2-0.7,1.7-1l0-0.4l-0.6,0c-0.8,0.5-1.3,0.6-2.5,0.5c-1.1-0.1-2.1-0.7-2.8-0.8c-0.8,0-0.8-0.4-1.5-0.4
						c-1.2-0.1-2.5,0.1-3.6,0.3C171.6,61.3,171.4,61.6,170.7,62.3L170.7,62.3z"/>
					<g class="st24">
						<path class="st38" d="M182.4,66c-1.1,0-2.4-0.2-3.7-0.5c-0.4-0.1-0.8-0.3-1.2-0.5c-0.4-0.2-0.7-0.3-1.1-0.5
							c-1.1-0.3-1.9-0.3-2.3,0l-3.4-2.2c0.8-0.9,1.1-1.3,2.3-1.6c1.3-0.3,2.5-0.4,3.7-0.3c0.4,0,0.6,0.1,0.8,0.2
							c0.2,0.1,0.4,0.2,0.7,0.2c0.4,0,0.8,0.2,1.3,0.3c0.5,0.2,1,0.4,1.6,0.4c1.1,0.1,1.6,0,2.4-0.5l0,0l0.7,0.1l0,0.1l0,0v0.1
							c0,0,0,0-0.1,0l-0.2,0.6c-0.3,0.3-0.7,0.6-1.4,0.8c-0.6,0.3-1,0.4-2,0.4l-0.5,0l0.5-0.2c0.9,0,1.3-0.1,1.9-0.4
							c0.6-0.2,0.9-0.4,1.3-0.7l0.3-0.4c-1.5,0.5-1.9,0.6-3,0.4c-0.6-0.1-1.1-0.3-1.6-0.4c-0.4-0.2-0.8-0.3-1.2-0.3
							c-0.4,0-0.6-0.1-0.8-0.2c-0.2-0.1-0.3-0.2-0.7-0.2c-1.1-0.1-2.3,0-3.6,0.3c-1.2,0.3-1.5,0.7-2,1.2l3,2.3
							c0.2-0.4,1.2-0.4,2.4-0.1c0.4,0.1,0.8,0.3,1.2,0.5c0.4,0.2,0.8,0.4,1.1,0.4c1.6,0.4,3.2,0.6,4.4,0.5c1.1-0.1,2-0.6,2.9-1.1
							l-0.1-0.3c-1.3,0.5-2.7,0.4-3.6,0.2c-0.6-0.1-1-0.3-1.4-0.5c-0.4-0.2-0.9-0.4-1.7-0.6l0.4-0.1c0.7,0.2,1.1,0.4,1.4,0.6
							c0.4,0.2,0.8,0.4,1.4,0.5c1,0.1,2.3,0.2,3.6-0.2l0.7,0l-0.4,0.8c-0.9,0.5-1.8,1-3,1.1C183,65.9,182.7,66,182.4,66L182.4,66z"
							/>
					</g>
					<path class="st39" d="M171.4,61.8c0.3,0.1,0.7,0.2,0.9,0.3c0.3,0.1,0.2,0.1,0.5,0.3c0-0.3,0-0.2-0.2-0.4
						c-0.2-0.2-0.5-0.4-0.7-0.6L171.4,61.8z"/>
					<g class="st24">
						<path class="st31" d="M171.4,61.8c0.3,0.1,0.7,0.2,0.9,0.3c0.3,0.1,0.2,0.1,0.5,0.3c0-0.3,0-0.2-0.2-0.4
							c-0.2-0.2-0.5-0.4-0.7-0.6L171.4,61.8z"/>
					</g>
					<path class="st39" d="M174.1,64.2c0-0.3-0.1-0.5-0.3-0.8c-0.1-0.2-0.2-0.5-0.4-0.7c0.3,0.1,0.4,0.2,0.6,0.4
						c0.2,0.3,0.2,0.5,0.2,0.9L174.1,64.2z"/>
					<g class="st24">
						<path class="st31" d="M174.1,64.2c0-0.3-0.1-0.5-0.3-0.8c-0.1-0.2-0.2-0.5-0.4-0.7c0.3,0.1,0.4,0.2,0.6,0.4
							c0.2,0.3,0.2,0.5,0.2,0.9L174.1,64.2z"/>
					</g>
					<path class="st39" d="M174.7,60.7c0.1,0.2,0.2,0.3,0.3,0.8c0.1,0.4,0.2,0.9,0.2,0.9c0-0.3,0-0.6,0-0.9c0-0.3-0.2-0.5-0.2-0.8
						L174.7,60.7z"/>
					<g class="st24">
						<path class="st31" d="M174.7,60.7c0.1,0.2,0.2,0.3,0.3,0.8c0.1,0.4,0.2,0.9,0.2,0.9c0-0.3,0-0.6,0-0.9c0-0.3-0.2-0.5-0.2-0.8
							L174.7,60.7z"/>
					</g>
					<polygon class="st39" points="177.4,60.9 177.5,62.5 177.7,61 					"/>
					<g class="st24">
						<polygon class="st31" points="177.4,60.9 177.5,62.5 177.7,61 						"/>
					</g>
					<path class="st39" d="M176.8,64.1c0.1-0.3,0.1-0.5,0-0.8c0-0.3-0.1-0.5-0.2-0.8c0.3,0.2,0.4,0.5,0.5,0.8
						C177.1,63.7,177,63.9,176.8,64.1L176.8,64.1z"/>
					<g class="st24">
						<path class="st31" d="M176.8,64.1c0.1-0.3,0.1-0.5,0-0.8c0-0.3-0.1-0.5-0.2-0.8c0.3,0.2,0.4,0.5,0.5,0.8
							C177.1,63.7,177,63.9,176.8,64.1z"/>
					</g>
					<path class="st39" d="M179.5,63.4c0,0,0.1,0.5,0,0.9c-0.1,0.4-0.2,0.4-0.4,0.6c0.3-0.2,0.6-0.3,0.7-0.5
						C179.8,64.1,179.6,63.5,179.5,63.4L179.5,63.4z"/>
					<g class="st24">
						<path class="st31" d="M179.5,63.4c0,0,0.1,0.5,0,0.9c-0.1,0.4-0.2,0.4-0.4,0.6c0.3-0.2,0.6-0.3,0.7-0.5
							C179.8,64.1,179.6,63.5,179.5,63.4z"/>
					</g>
					<path class="st39" d="M180,62.9c-0.2,0-0.2-0.8-0.4-1.1c0.1,0,0.2,0,0.3,0.2C180,62.1,180,62.6,180,62.9L180,62.9z"/>
					<g class="st24">
						<path class="st31" d="M180,62.9c-0.2,0-0.2-0.8-0.4-1.1c0.1,0,0.2,0,0.3,0.2C180,62.1,180,62.6,180,62.9z"/>
					</g>
					<path class="st39" d="M181.9,62.6L182,62l0.2,0v0.6C182.2,62.5,181.9,62.6,181.9,62.6L181.9,62.6z"/>
					<g class="st24">
						<path class="st31" d="M181.9,62.6L182,62l0.2,0v0.6C182.2,62.5,181.9,62.6,181.9,62.6z"/>
					</g>
					<path class="st39" d="M181.7,64.4c0.1,0.2,0.3,0.4,0.4,0.7c0,0.2,0,0.3-0.2,0.7l0.3,0c0.2-0.3,0.2-0.5,0.2-0.7
						c0-0.2-0.1-0.4-0.3-0.6L181.7,64.4z"/>
					<g class="st24">
						<path class="st40" d="M182.2,65.8l-0.4,0L182,65l-0.4-0.6c0.1,0,0.1,0,0.2,0l-0.1,0l0.5,0.5c0,0.2,0,0.4-0.2,0.6l0.2,0.1
							l-0.1-0.1c0.1-0.2,0.2-0.4,0.2-0.6l-0.2-0.5c0.3,0.1,0.4,0.3,0.4,0.5C182.5,65.3,182.5,65.5,182.2,65.8L182.2,65.8L182.2,65.8
							z"/>
					</g>
					<polygon class="st39" points="184,64.6 184.1,65.5 184.3,65.3 184.3,64.6 					"/>
					<g class="st24">
						<polygon class="st31" points="184,64.6 184.1,65.5 184.3,65.3 184.3,64.6 						"/>
					</g>
					<path class="st29" d="M170.5,62.5c-0.8,0.2-1,0.6-1.4,1l-2.1-1.1c-0.3,0.3-0.5,0.7-0.3,1.1c0.2,0.4,0.8,1.1,1.3,1.4
						c-0.1,0.6-0.3,1-0.5,1.5c-0.2,0.6-0.7,1.3-0.7,1.5c0,0.3-0.1,0.8,0.3,1c0.4,0.1,1.6-0.1,2.1-0.1c-0.1,0.2-0.2,0.6-0.2,0.8
						c0,0.2,0.2,0.2,0.5,0.2c-0.1,0.2-0.3,0.5-0.2,0.6c0.3,0.2,0.6,0.2,0.8,0.1c-0.2,0.2-0.4,0.4-0.6,0.7c-0.4,0.4-0.9,0.9-1.1,1.1
						c-0.3,0.5-0.4,1,0.3,0.9c-0.3,0.3-0.5,0.5-0.4,0.8c0,0.3,0.2,0.5,0.7,0.3c-0.3,0.6-0.1,1.2,0,1.9c-0.2,0.5-0.1,1-0.2,1.5
						c-0.5,0.3-0.5,0.6-0.9,1.2c-0.3,0.6-0.8,0.8-1.1,2.1l1.9,0.5c0.1-0.3,0.3-0.4,0.4-0.7c0.1-0.3,0.1-0.6,0-0.9
						c0.4-0.6,1.1-1.7,1.4-2.3c0.4-0.2,0.7-0.4,1-0.4s0.5,0.2,0.8,0.4c-0.1,0.5-0.6,1.1-0.6,1.8v2c-0.1,0.5-0.6,0.5-0.9,2l1.7,0.4
						c0.3-0.5,0.8-0.6,0.9-0.8l0.1-2c0.2-1,1.6-1.8,1.6-2.8c0.5,0,0.7,0,0.9-0.1c0.3-0.1,0.4-0.2,0.6-0.4c0.1,0.3,0.3,0.3,0.5,0.3
						c0.2,0,0.6-0.3,0.8-0.4c0.1,0.2,0.2,0.3,0.4,0.4c0.3,0.1,1,0,1.3-0.1l-1.4,2.3c0,0.2,0,0.4-0.1,0.6c-0.1,0.2-0.3,0.3-0.4,0.6
						l1.6,0.4l0.3-0.7c0.3-0.1,0.6-0.2,0.8-0.4c0.2-0.2,0.2-0.6,0.3-0.9c0.5-0.4,1.4-1.3,2-2c0.4,0.1,1,0.4,1.2,0.9
						c0,0.5,0.1,1.5-0.2,2.2l-1,1.6l-0.1,0.3l1.6,0.6l1-0.8l0.1-1.1c0.5-0.9,1.3-1.4,2-2c0,0,0.1-1.2,0.1-1.3
						c-0.2-0.1-0.3-0.1-0.4-0.3c-0.1-0.2,0-0.9,0-1.2c0.1-0.1,0.3-0.3,0.3-0.4c-0.3-0.3-0.2-1.1-0.1-1.7c0-0.7,1-1.6,1.1-2l0.1-0.8
						c-0.1-0.2-0.3-0.3-0.3-0.4c0-0.2,0.2-0.4,0.3-0.6l0.2-0.4l0-1.8c-0.1-0.2-0.2-0.5-0.4-0.5c-0.2,0-0.4,0.2-0.6,0.4l-0.9,0.7
						c-0.4,0.1-0.8,0.2-1.6,0l-1.2,0c-0.6,0.2-1,0.2-1.6-0.1l-0.7,0c-0.2,0.1-0.5,0.3-0.8,0.4c-0.2,0.1-0.6,0.1-0.8,0
						c-1.9,0.1-1.4,0.3-1.9,0.4c-0.4-0.1-0.3-0.3-1.9-0.3l-0.7-0.2c-0.8-0.5-1.5-1.4-2-2.4c1.7-0.5,2.4-1,3-2.2l-2.4,0.1L170.5,62.5
						z"/>
					<g class="st24">
						<path class="st41" d="M172.6,83.8l-1.8-0.5c0.1-1.1,0.4-1.4,0.6-1.7l0.2-2.3c0-0.5,0.2-0.9,0.4-1.3l-0.5-0.8
							c-0.3,0-0.5,0.1-1,0.4c-0.2,0.6-1,1.7-1.3,2.3c0,0.1,0.1,0.5,0,0.9l-0.5,0.8l-1.9-0.5c0.1-1,0.4-1.4,0.7-1.7l0.6-0.9
							c0.2-0.3,0.3-0.6,0.7-0.8c-0.2,0.5-0.3,0.7-0.5,0.9c-0.3,0.6-0.4,0.8-0.6,0.9c-0.3,0.3-0.5,0.7-0.7,1.5l1.8,0.3l0.3-0.6
							c0.1-0.2,0.1-0.5,0-0.8c0.4-0.6,1.2-1.7,1.4-2.3c0.8-0.5,1.3-0.5,1.8-0.2c0.2,0.4,0.2,0.6,0.1,0.8c-0.2,0.4-0.3,0.7-0.3,1.2v2
							c-0.5,0.7-0.7,1.1-0.9,2l1.6,0.3c0.2-0.3,0.4-0.4,0.6-0.5l0.3-2.2c0.1-0.5,0.5-0.9,0.8-1.3c0.4-0.5,0.8-1,0.8-1.5l0.5,0
							l0.2-0.1l0.4,0.1l-0.8,0.1c0,0.5-0.4,1-0.8,1.5c-0.3,0.4-0.6,0.8-0.7,1.2l-0.1,2C173.1,83.3,172.8,83.5,172.6,83.8L172.6,83.8
							L172.6,83.8z M184.3,83.4l-1.7-0.6l1.1-2.1c0.2-0.5,0.2-1.2,0.1-2.2c-0.2-0.4-0.7-0.7-1.1-0.8c-0.5,0.6-1.4,1.5-1.9,1.9
							l-0.3,0.9c-0.2,0.2-0.4,0.3-0.7,0.4l-0.3,0.7l-1.7-0.3l0.4-0.6l-0.1,0.3l1.4,0.5l0.1-0.6c0.5-0.2,0.7-0.3,0.8-0.5l0.3-0.9
							c0.6-0.4,1.4-1.3,2-2c0.6,0,1.2,0.4,1.4,0.9c0.1,1,0,1.8-0.2,2.3l-1.1,1.6l1.4,0.7l0.9-0.8v-1c0.5-0.9,1.1-1.4,1.7-1.8
							c0.3-1.1,0.3-1.3,0.3-1.4c-0.4-0.6-0.4-1.3-0.4-1.5c0-0.6,0.1-1.4,0.2-2.1c0-0.5,0.4-1,0.7-1.4c0.2-0.2,0.3-0.4,0.4-0.6
							l0.1-0.7c-0.3-0.6-0.1-0.8,0-1.1l0.2-2.2v0l-0.8-0.1l-0.9,0.7c-0.4,0.2-0.9,0.2-1.7,0l-1.2,0c-0.6,0.2-1,0.2-1.6-0.1l-0.7,0
							c-0.3,0.2-0.5,0.3-0.8,0.4l-0.8-0.1l0,0.1c-1.3,0.1-1.4,0.2-1.6,0.3l-0.7,0c-0.2-0.1-0.4-0.2-1.6-0.2l-0.7-0.2
							c-0.8-0.5-1.4-1.3-2.1-2.5c1.8-0.6,2.4-1.1,3-2.3l-2.3,0.2l-3.5-2.3c-0.5,0.2-0.8,0.5-1.1,0.8l-0.2-0.1
							c0.3-0.4,0.6-0.7,1.2-0.9l3.5,2.3l2.4-0.1c-0.4,1.3-1.2,1.9-2.9,2.4c0.7,1,1.3,1.8,2,2.2l0.6,0.2c1.2,0,1.5,0.1,1.7,0.2
							c0.6-0.1,0.8-0.2,2.1-0.3l0.8,0c0.2,0,0.4-0.2,0.6-0.3l0.9-0.1c0.7,0.3,1,0.2,1.5,0.1l1.2,0c0.8,0.2,1.2,0.1,1.6,0l0.9-0.7
							c0.1-0.1,0.4-0.4,0.6-0.4c0.3,0.1,0.5,0.5,0.5,0.6l0,1.9l-0.5,0.9l0.2,1.2c-0.1,0.2-0.2,0.4-0.4,0.6c-0.3,0.4-0.7,0.9-0.7,1.3
							c-0.1,0.5-0.2,1.4,0.1,1.7c-0.3,0.7-0.4,1.4-0.3,1.6c0.4,0.3,0.4,0.3,0.3,1.5c-1,0.9-1.6,1.4-2,2.2l0,1.1L184.3,83.4
							L184.3,83.4z M178.1,80.7L178.1,80.7V80l1.4-2.3c-0.1,0.2-0.6,0.3-0.9,0.3l-0.7-0.4c-0.6,0.5-1.1,0.8-1.4,0l0.6,0.1
							c0.1,0,0.3-0.1,0.7-0.4l0.5,0.4c0.5,0,1-0.1,1.2-0.1L178.1,80.7L178.1,80.7z M168.6,77.5c0-0.7,0-1.1,0.2-1.4
							c-0.2-0.8-0.3-1.3,0-1.9c-0.5,0.2-0.6,0.1-0.7-0.2c0-0.2,0.1-0.4,0.3-0.6c0,0.3-0.1,0.5-0.1,0.6l0.2-0.1l0.4,0.4
							c-0.2,0.5-0.1,1,0,1.5c-0.1,0.7-0.1,1-0.1,1.4C168.7,77.3,168.7,77.4,168.6,77.5L168.6,77.5z M168.2,72.9
							c-0.2-0.2-0.1-0.5,0-0.7c0.2-0.2,0.5-0.5,0.8-0.9l0.9-0.9c-0.4,0.2-0.6,0.2-0.8,0l0.2-0.6l0,0.1l0.6,0.4l-0.3,0.7
							c-0.8,0.8-1.1,1.1-1.3,1.3C168.3,72.5,168.2,72.8,168.2,72.9L168.2,72.9z M169.4,69.9l-0.5-0.3c-0.1-0.2,0-0.4,0.1-0.7
							c-0.1,0-0.3,0.1-0.6,0.1c-0.3,0-0.7,0.1-0.9,0.1c-0.9-0.2-0.8-0.9-0.8-1.1c0-0.1,0.1-0.4,0.3-0.8c0.1-0.3,0.3-0.5,0.4-0.8
							c0.2-0.5,0.4-0.9,0.5-1.5c-0.4-0.2-1.1-0.9-1.3-1.3c-0.2-0.4-0.1-0.9,0.3-1.2l1.4,0.7l-1.4-0.5c-0.2,0.2-0.3,0.6-0.2,1
							c0.2,0.4,0.8,1,1.2,1.3c-0.1,0.7-0.2,1.1-0.5,1.6c-0.1,0.3-0.3,0.5-0.4,0.8c-0.1,0.3-0.3,0.6-0.3,0.7c0,0.4-0.1,0.8,0.2,0.9
							c0.6,0,1,0,1.3,0c0.3,0,0.5-0.1,0.7-0.1L169.4,69.9L169.4,69.9z"/>
					</g>
					<path class="st42" d="M169.7,65.5l0.7,0.3c0.1,0.1,0.3,0.2,0.4,0.2c0.1,0,0.2-0.1,0.3-0.2l0.6-0.3c-0.4-0.1-0.5-0.3-0.9-0.3
						S170.1,65.4,169.7,65.5L169.7,65.5z"/>
					<g class="st24">
						<path class="st43" d="M170.7,66.1l-1.1-0.5c0,0,0,0,0,0l0-0.1l0.1,0c0.6-0.3,0.8-0.4,1-0.4l0.7,0.3l-0.7-0.1l-0.9,0.2l0.8,0.5
							l0-0.1V66l0.1-0.2l0.6-0.4l0.2,0.1L170.7,66.1L170.7,66.1z"/>
					</g>
					<path class="st32" d="M170.9,73.6c0,0.1-0.1,0.1-0.1,0c-0.1-0.8-0.2-1.4-0.5-2C170.6,72.1,170.8,72.9,170.9,73.6L170.9,73.6z"
						/>
					<g class="st24">
						<path class="st31" d="M170.9,73.6c0,0.1-0.1,0.1-0.1,0c-0.1-0.8-0.2-1.4-0.5-2C170.6,72.1,170.8,72.9,170.9,73.6z"/>
					</g>
					<path class="st32" d="M175,73.7c0.1,0,0.3,0,0.4-0.1c0.1-0.2-0.1-0.4-0.2-0.6c-0.2-0.5-0.4-0.9-0.5-1.2
						c-0.1-0.1-0.2-0.1-0.2,0.1C174.7,72.3,174.9,73.5,175,73.7L175,73.7z"/>
					<g class="st24">
						<path class="st31" d="M175,73.7c0.1,0,0.3,0,0.4-0.1c0.1-0.2-0.1-0.4-0.2-0.6c-0.2-0.5-0.4-0.9-0.5-1.2
							c-0.1-0.1-0.2-0.1-0.2,0.1C174.7,72.3,174.9,73.5,175,73.7z"/>
					</g>
					<path class="st32" d="M177.2,73.4c0,0.1-0.3,0-0.4-0.2c0-0.2-0.5-1.8-0.4-1.9c0.1,0,0.4,0.5,0.5,0.8
						C176.9,72.3,177.1,72.9,177.2,73.4L177.2,73.4z"/>
					<g class="st24">
						<path class="st31" d="M177.2,73.4c0,0.1-0.3,0-0.4-0.2c0-0.2-0.5-1.8-0.4-1.9c0.1,0,0.4,0.5,0.5,0.8
							C176.9,72.3,177.1,72.9,177.2,73.4z"/>
					</g>
					<path class="st32" d="M176.9,76.7c0,0.1,0.3,0,0.3-0.1c0.3-0.5,0.7-1,0.8-1.1c0.1-0.2,0.4-1.5,0.3-1.5c0,0-0.3,0.6-0.7,1.3
						C177.2,76,176.9,76.6,176.9,76.7L176.9,76.7z"/>
					<g class="st24">
						<path class="st30" d="M176.9,76.8l-0.1-0.1c0-0.1-0.1-0.2,0.7-1.5l0.4-0.8c0.1,0,0.1,0,0.1,0l-0.4,1c-0.6,1.1-0.7,1.3-0.7,1.3
							l-0.1-0.1v0.1l0.7-0.9c0.3-0.5,0.5-1.1,0.6-1.5c0.2,0.2,0,1.1,0,1.1L176.9,76.8L176.9,76.8z"/>
					</g>
					<path class="st32" d="M179.1,76c-0.1,0.1,0.2-1.1,0.2-1.3c0.1-0.3,0.1-0.9,0.3-1.6C179.8,74.1,179.6,75.2,179.1,76L179.1,76z"
						/>
					<g class="st24">
						<path class="st30" d="M179.1,76.2l-0.1-0.1c-0.1-0.1,0-0.2,0.1-0.9l0.4-2.1c0.4,1.1,0.2,2.2-0.3,3L179.1,76.2L179.1,76.2z"/>
					</g>
					<path class="st32" d="M180.4,72.5c-0.1,0.1-1-1.5-0.9-1.5c0-0.1,0.8,1,0.9,1.2C180.4,72.2,180.5,72.3,180.4,72.5L180.4,72.5z"
						/>
					<g class="st24">
						<path class="st31" d="M180.4,72.5c-0.1,0.1-1-1.5-0.9-1.5c0-0.1,0.8,1,0.9,1.2C180.4,72.2,180.5,72.3,180.4,72.5z"/>
					</g>
					<path class="st32" d="M182.6,73.6c-0.1-0.1,0-0.6-0.2-1.1c-0.1-0.6-0.4-1.1-0.3-1.2c0-0.1,0.2,0,0.3,0.1
						c0.1,0.3,0.2,1.4,0.4,2.2C182.8,73.6,182.7,73.7,182.6,73.6L182.6,73.6z"/>
					<g class="st24">
						<path class="st31" d="M182.6,73.6c-0.1-0.1,0-0.6-0.2-1.1c-0.1-0.6-0.4-1.1-0.3-1.2c0-0.1,0.2,0,0.3,0.1
							c0.1,0.3,0.2,1.4,0.4,2.2C182.8,73.6,182.7,73.7,182.6,73.6z"/>
					</g>
					<path class="st32" d="M184.2,72.2c-0.1-0.1,0.2,0.5,0.4,1.3c0.2,0.7,0.3,2.1,0.4,2c0.1-0.1,0.1-0.2,0.3-0.3c0.2,0,1,0,1,0
						c-0.5-0.5-1-0.8-1.3-1.3C184.6,73.4,184.4,72.7,184.2,72.2L184.2,72.2z"/>
					<g class="st24">
						<path class="st30" d="M185,75.6L185,75.6l-0.2-0.6c-0.1-0.4-0.1-1-0.3-1.4c-0.1-0.4-0.2-0.8-0.3-1c0,0,0,0,0,0
							c0-0.1-0.1-0.1-0.1-0.2c0.2,0.2,0.3,0.3,0.4,0.5c0.2,0.3,0.4,0.6,0.6,0.9c0.3,0.4,0.6,0.7,1.1,1.1L185,75.6L185,75.6z"/>
					</g>
					<path class="st23" d="M192.1,69.9c4.7,1,9.1,2.1,13.4,3.5c4.4,1.4,8.5,3.1,12.7,4.9l-7.1,14.3c-4-1.5-7.9-2.7-11.7-4
						c-3.9-1.3-7.7-2.4-11.6-3.6L192.1,69.9z"/>
					<g class="st24">
						<path class="st28" d="M211.3,92.8L211.3,92.8c-3.5-1.3-6.8-2.4-10.1-3.4l-1.7-0.6c-2.7-0.9-5.3-1.7-8-2.5l-3.7-1.1l4.2-15.3
							c4.9,0.9,9.3,2.1,13.6,3.5c4.7,1.5,9.1,3.3,12.8,4.9L211.3,92.8L211.3,92.8z M192.1,70L188,85.1l3.6,1c2.7,0.8,5.3,1.6,8,2.5
							l1.7,0.6c3.3,1.1,6.6,2.1,9.9,3.4l7-14.2c-3.6-1.4-8-3.2-12.7-4.8C201.3,72.2,196.9,71,192.1,70L192.1,70z"/>
					</g>
					<path class="st36" d="M191.2,73.3c0,0,6.6,1.5,13,3.5c6.4,2.1,12.6,4.7,12.6,4.7c0,0-4,8.2-4,8.2c-3.8-1.5-7.9-3-11.9-4.3
						c-4-1.3-8-2.5-12.1-3.5L191.2,73.3z"/>
					<g class="st24">
						<path class="st37" d="M212.8,89.8L212.8,89.8c-3.8-1.5-7.8-2.9-12-4.3C197,84.3,193,83,188.8,82l2.3-8.8
							c0.3,0,6.8,1.4,13.1,3.4c4.2,1.3,11.4,4.1,12.5,4.7c-0.6,0-6.4-2.5-12.6-4.5c-6.3-2-12.9-3.5-13-3.5l-2.3,8.6
							c4.1,0.8,8.2,2.1,12,3.3c4.1,1.3,8.1,2.8,11.8,4.2c3.5-7.2,3.9-8,4-8.1c0.1,0.1,0.1,0.1,0.1,0.1
							C216.7,81.7,213.9,87.5,212.8,89.8L212.8,89.8L212.8,89.8z"/>
					</g>
					<path class="st24" d="M191.8,77.3c0.6-0.4,1.1-0.5,1.4-1.1h2.3l0,0.8c0.6,0.3,0.9,0.6,1.5,0.9c0.6,0.3,1.4,0.5,2,0.8l5,0.4
						c0.7,0.1,1.6,0.4,2.2,0.7c0.6,0.3,1,0.8,1.3,1.3c1,0.4,2.1,0.6,3.1,0.7c1.1,0.2,2.4,0.2,3.4,0.3c0.5,0.2,0.5,0.4,0.3,0.7
						c0,0-0.6,0.8-2.1,0.8c-1.5,0-3.3-0.9-4.1-0.7c0,0.5,0.8,1.4,1.8,1.8l0,2.2l-0.4,0.4L209,87c0.4-0.5,0.2-1.1,0.1-1.7
						c-0.4-0.5-0.4-0.7-1-0.7c-0.8-0.1-1.3-0.4-2.3-1l-0.4,0.1c-0.2,0.4-0.4,0.6-0.9,0.8l-1-0.1c0,0-2.3-0.5-2.3-0.5
						c0,0,0-0.4,0-0.4c0.1,0,0.8,0,0.8,0c0.5,0.1,1.5,0.1,1.5,0.1l0-0.9l1.5-0.1c-0.3-1.1-0.4-1.7-1.8-2l-4.4,0.1l0.1,0.6
						c-1.1-0.1-3.1-0.2-4.1,0.2c-0.6,0.1-1.4,0.4-1.8,0.4l-0.5-0.1c-0.3-0.1-0.3-0.2-0.2-0.4c1.9-0.1,2.2-0.3,2.8-0.6
						c0-0.2-0.2-0.6-0.3-0.6c-1.2-0.1-2.2,0-2.5,0c-0.5-0.1-1.2-0.4-1.2-0.4c0,0-0.1-0.5-0.1-0.5c0,0,0.8,0.2,0.8,0.2
						c0.8,0.1,2.2,0.1,2.6-0.1l0-0.6c0-0.3-0.2-0.6-0.3-0.6c-0.1,0-1.3-0.2-1.8-0.2C191.6,78,191.8,77.6,191.8,77.3L191.8,77.3z"/>
					<g class="st24">
						<path d="M209.5,87.5l-0.5-0.3c0.3-0.6,0.2-1.2,0-1.7c-0.4-0.5-0.4-0.6-0.9-0.7c-0.7-0.1-1.2-0.3-2.1-0.9
							c1,0.4,1.5,0.6,2.1,0.7c0.6,0,0.7,0.2,1,0.6c0.3,0.8,0.4,1.4,0,2l0.4,0.2l-0.1-0.1l0.4-0.4l0-2.2c-0.9-0.3-1.7-1.3-1.8-1.8
							c0.6-0.1,1.1,0,1.7,0.2c0.8,0.2,1.6,0.4,2.4,0.4c1.5,0,2.1-0.7,2.1-0.7c-1.2-0.6-2.6-0.6-3.6-0.8c-1.1-0.2-2.1-0.4-3.1-0.7
							c-0.4-0.6-0.8-1-1.3-1.3c-0.6-0.3-1.5-0.6-2.2-0.7l-5-0.4c-0.3-0.1-0.7-0.3-1-0.4c-0.4-0.1-0.7-0.3-1-0.4
							c-0.3-0.1-0.5-0.3-0.8-0.4c-0.2-0.1-0.4-0.3-0.7-0.4l-0.1-0.9l-2.2,0.1c-0.2,0.4-0.5,0.6-1,0.8c-0.4,0.6-0.4,0.8,0.2,0.9
							c0.1-0.1,1.7,0.1,1.8,0.2c0.1,0,0.3,0.3,0.4,0.7l0,0.7c-0.6,0.4-1.9,0.3-2.7,0.2l-0.5-0.2l0.1-0.1c1.8,0.4,2.6,0.2,2.9,0
							l0-0.5c-0.3-0.5-1.5-0.6-2-0.6c-0.8-0.1-0.7-0.5-0.7-0.8v-0.1l0.5-0.4c0.4-0.2,0.7-0.4,1-0.8l2.4-0.1l0.1,0.9
							c0.2,0,0.5,0.2,0.7,0.3c0.2,0.1,0.4,0.3,0.7,0.4c0.3,0.1,0.6,0.3,1,0.4c0.3,0.1,0.7,0.3,1,0.4l5,0.4c0.7,0.1,1.6,0.4,2.3,0.8
							c0.5,0.3,1,0.7,1.3,1.4c1,0.3,2,0.5,3,0.7c1.1,0.2,2.4,0.2,3.4,0.3l0.1,0l0.4,0.4c-0.2,0.5-0.8,1.3-2.4,1.3
							c-0.9,0-1.7-0.2-2.5-0.5c-0.6-0.2-1.1-0.3-1.4-0.3c0,0.3,0.7,1.2,1.6,1.6l0,2.4L209.5,87.5L209.5,87.5z M204.6,84.6l-1,0
							c-2.4-0.5-2.4-0.5-2.4-0.6c0.1-0.5,0.2-0.5,1-0.5c0.5,0.1,1.5,0.1,1.5,0.1l-0.1-0.7l1-0.1l-0.9,0.2l0.1,0.7
							c-0.1,0.1-1.1,0.1-1.6,0c-0.4,0-0.7,0-0.8,0c0.1,0.2,2.2,0.7,2.2,0.7l1,0.1c0.4-0.2,0.6-0.4,0.8-0.8c0.1,0,0.2,0.1,0.3,0.1
							C205.3,84.1,205.1,84.4,204.6,84.6L204.6,84.6z M205.1,82.6c-0.4-0.9-0.6-1.5-1.8-1.7l-4.4,0.1l0.2,0.5c-0.6,0.1-1.2,0-1.9,0
							c-1,0-1.8,0.1-2.3,0.3c-0.3,0-0.7,0.1-1,0.2c-0.4,0.1-0.7,0.2-0.9,0.2l-0.8-0.3c0.1,0,0.2-0.1,0.3-0.1L193,82v-0.1
							c0.2,0,0.5-0.1,0.8-0.2c0.3-0.1,0.7-0.2,1-0.2c0.7-0.2,1.8-0.3,2.4-0.3c0.7,0,1.3,0,1.8,0.1l-0.2-0.5l4.5-0.2
							C204.7,80.9,204.9,81.6,205.1,82.6L205.1,82.6L205.1,82.6z M193.2,81.5c1.1-0.3,1.4-0.5,1.8-0.7l-1.2-0.4l-0.7,0l-0.9,0
							c-0.2-0.1-1.3-0.4-1.3-0.5l0.2-0.2c0.3,0.2,0.8,0.4,1.1,0.5l0.8,0l0.7,0l0.9,0c0.2,0.1,0.4,0.5,0.4,0.7
							C194.7,81.2,194.4,81.4,193.2,81.5L193.2,81.5z"/>
					</g>
					<path class="st23" d="M201.4,82.5c0.7,0.2,1.2,0.3,2.2,0.4l1.5-0.1c-0.3-1.1-0.4-1.7-1.8-2l-4.4,0.1l0.1,0.6
						C200.3,82,200.9,82.3,201.4,82.5L201.4,82.5z"/>
					<g class="st24">
						<path d="M203.6,82.9L203.6,82.9c-1-0.1-1.5-0.1-2.2-0.4c-0.8-0.3-1.4-0.6-2.5-1l-0.1-0.7l4.5-0.2c1.4,0.2,1.6,0.9,1.9,1.9
							l-0.1,0c-0.4-0.9-0.6-1.5-1.8-1.7l-4.4,0.1l0.2,0.5c1,0.3,1.6,0.6,2.1,0.7c1,0.3,1.5,0.4,2.5,0.5l1.1-0.1L203.6,82.9
							L203.6,82.9z"/>
					</g>
					<path class="st34" d="M113.6,90.1l-8-29.8l12.2-14.8l17.1,9.8l2.9,31.6C129,87.5,123.4,88.3,113.6,90.1L113.6,90.1z"/>
					<g class="st24">
						<path class="st35" d="M113.5,90.2L113.5,90.2l-8-29.9l12.2-14.9l17.2,9.7l3,31.7C129,87.6,123.2,88.5,113.5,90.2L113.5,90.2
							L113.5,90.2z M117.7,45.6l-12.1,14.8l8,29.6c9.5-1.7,15.3-2.6,24.1-3.2l-3-31.5L117.7,45.6L117.7,45.6z"/>
					</g>
					<path class="st29" d="M85,65.2l2.9,2.3l-0.6,4l3.8-1.6l3,2.3l0.4-3.7l3.1-1.2L95,64.9l0.6-3.6c0,0-3.7,1.3-3.7,1.3
						c0,0-2.7-2.3-2.7-2.2c0,0-0.6,3.5-0.6,3.5L85,65.2z"/>
					<g class="st24">
						<path class="st44" d="M94.2,72.4L91,70l-3.6,1.6l0.4-4.1l-2.9-2.1l3.7-1.7c0.5-3.3,0.5-3.4,0.5-3.4c0.2,0,2.9,2.2,2.9,2.2
							c0.1-0.1,3.6-1.3,3.6-1.3l-0.4,3.8l2.5,2.3l-3.1,1.4L94.2,72.4L94.2,72.4z M91.1,69.8l2.9,2.2l0.4-3.4l3.2-1.3L94.9,65
							l0.5-3.8c-3.5,1.5-3.5,1.5-3.6,1.5c-0.2-0.2-2.6-2.1-2.8-2.2c0.1,0.1-0.4,3.4-0.4,3.4L85,65.4l3,2l-0.5,4.1L91.1,69.8
							L91.1,69.8z"/>
					</g>
					<path class="st45" d="M85,65.3l12.5,2l-3.1,1.3l-3-2.1c0,0,2.7,5.7,2.6,5.6c0,0-2.8-2.1-3-2.2l0.3-3.5c0,0-4,5-4,5
						c0,0,0.6-4,0.6-4L85,65.3z"/>
					<polygon class="st46" points="88.5,63.8 91.4,66.3 89.2,60.3 					"/>
					<path class="st46" d="M91.8,62.7c0,0-0.4,3.6-0.4,3.6c0.3-0.4,4.2-5,4.1-5C95.5,61.3,91.9,62.7,91.8,62.7L91.8,62.7z"/>
					<path class="st29" d="M204.5,60.2l0.7,3.6l-3,2.7l3.9,1.2l0.8,3.6l2.7-2.5l3.2,1l-0.3-3.5l2.8-2.4c0,0-3.7-1.3-3.7-1.3
						c0,0-0.5-3.4-0.6-3.4c-0.1,0-2.7,2.3-2.7,2.3L204.5,60.2z"/>
					<g class="st24">
						<path class="st44" d="M206.8,71.5l-0.8-3.8l-3.8-1.1l3-2.9l-0.8-3.5l3.9,1.1c2.6-2.2,2.6-2.3,2.7-2.3c0.1,0.1,0.8,3.5,0.7,3.6
							c0.2,0,3.7,1.2,3.7,1.2l-2.8,2.6l0.4,3.4l-3.3-0.9L206.8,71.5L206.8,71.5z M204.4,60.3l0.9,3.5l-3.1,2.8l3.9,1l0.8,3.5
							l2.6-2.4l3.3,1l-0.5-3.4l2.9-2.5c-3.7-1.1-3.7-1.2-3.7-1.2c0-0.2-0.5-3.2-0.6-3.4c0,0.1-2.6,2.3-2.6,2.3L204.4,60.3
							L204.4,60.3z"/>
					</g>
					<path class="st46" d="M204.5,60.2l8.2,9.5l-3.2-1l-0.9-3.5c0,0-1.7,6-1.7,6c0,0-0.8-3.4-0.8-3.5l2.5-2.5c0,0-6.3,1.3-6.3,1.3
						c0,0,3-2.7,3-2.7L204.5,60.2z"/>
					<polygon class="st46" points="208.1,61.3 208.8,65.1 211,59 					"/>
					<path class="st46" d="M211.5,62.5c0,0-2.7,2.5-2.7,2.5c0.5-0.1,6.4-1.1,6.4-1.2C215.2,63.8,211.5,62.6,211.5,62.5L211.5,62.5z"
						/>
					<path class="st36" d="M105.6,60.4c4.3-2.1,9.2-3.7,14.3-4.4c4.9-0.7,9.9-0.8,15-0.8c0,0,0.7,7.8,0.7,7.8c-4,0-7,0-14,0.9
						c-7,1-9.9,1.8-14.1,3.4L105.6,60.4z"/>
					<g class="st24">
						<path class="st37" d="M107.4,67.5l-1.9-7.1c4.8-2.4,9.7-3.9,14.4-4.5c4.4-0.6,8.8-0.8,14-0.8h1c0.1,0.1,0.8,7.9,0.8,7.9
							l-1.2,0.1c-3.5,0-6.5,0-12.9,0.9c-7,1-9.9,1.8-14.1,3.4L107.4,67.5L107.4,67.5z M134.8,55.2l-0.9,0.1c-5.2,0-9.6,0.1-13.9,0.8
							c-4.8,0.6-9.6,2.1-14.3,4.4l1.9,6.7c4.2-1.6,7.1-2.4,14-3.4C128,63,131,63,134.5,63l1.1,0C135.5,62.9,134.8,55.2,134.8,55.2
							L134.8,55.2z"/>
					</g>
					<path class="st36" d="M109.3,74.1c-0.1,0,2.2,8.2,2.2,8.2c4.2-1.1,8.4-1.9,12.7-2.4c4.2-0.6,8.8-0.9,12.9-1.2l-0.7-8
						c-4.3-0.3-9.3-0.3-13.7,0.3C118.1,71.6,113.8,72.6,109.3,74.1L109.3,74.1z"/>
					<g class="st24">
						<path class="st37" d="M111.5,82.5L111.5,82.5c-2.3-8.3-2.3-8.4-2.2-8.4c4.6-1.6,8.9-2.6,13.3-3.2c4-0.5,9.2-0.6,13.8-0.3
							l0.8,8.1c-4,0.4-8.6,0.7-13,1.3C119.8,80.6,115.6,81.5,111.5,82.5L111.5,82.5L111.5,82.5z M130.9,70.6c-3,0-5.8,0.2-8.3,0.5
							c-4.4,0.6-8.7,1.6-13.2,3.1c0.1,0.1,1.4,4.8,2.2,8c4-1,8.2-1.8,12.6-2.4c4.3-0.6,8.9-1,12.9-1.2l-0.8-7.9
							C134.6,70.7,132.8,70.6,130.9,70.6L130.9,70.6z"/>
					</g>
					<path class="st23" d="M89.4,99.5h121.2v77.7c-3.1,30.3-32.2,52.9-58.7,52.7c-28.7,1.3-60.4-22.2-62.7-53L89.4,99.5z"/>
					<g class="st24">
						<path class="st25" d="M149.7,230.4c-26.9,0-58.6-21.9-60.9-53.4L89,99.5l121.6-0.4l0.4,78.1c-3.2,31.3-33.6,53.1-58.9,53.1
							C151.1,230.4,150.4,230.4,149.7,230.4L149.7,230.4z M210.2,99.5L89.4,99.9l0.2,77c2.4,31.8,35.1,53.7,62.3,52.5
							c25.2,0,55.2-21.5,58.3-52.3V99.5L210.2,99.5z"/>
					</g>
					<path class="st36" d="M91.9,102.2h116.1v74.5c-3,29-30.8,50.7-56.3,50.5c-27.5,1.2-57.9-21.3-60.1-50.8L91.9,102.2z"/>
					<g class="st24">
						<path class="st25" d="M149.7,227.7c-25.8,0-56.2-21-58.4-51.2l0.3-74.2l116.5-0.4l0.4,74.9c-3.1,30-32.2,50.9-56.4,50.9
							C151.1,227.7,150.4,227.7,149.7,227.7L149.7,227.7z M207.6,102.2l-115.7,0.4l0.2,73.8c2.3,30.5,33.7,51.4,59.6,50.4
							c24.2,0,52.9-20.6,55.9-50.1V102.2L207.6,102.2z"/>
					</g>
					<rect x="115.3" y="102.6" class="st23" width="23.1" height="24.8"/>
					<path class="st23" d="M184.7,177.2v24.5l13,0.1c6.3-9.4,9-18.7,9.6-24.6C207.3,177.2,184.8,177.2,184.7,177.2L184.7,177.2z"/>
					<g class="st24">
						<path class="st28" d="M197.8,201.9l-13.1-0.1l-0.1-24.7l10.9-0.1l11.9,0C207.2,180,205.7,190.1,197.8,201.9L197.8,201.9
							L197.8,201.9z M184.7,177.3l0.1,24.4l12.9,0c7.8-11.7,9.3-21.7,9.6-24.5l-11.8,0.1L184.7,177.3L184.7,177.3z"/>
					</g>
					<path class="st23" d="M161.6,202v23.6c10-2,18.2-7,22.9-10.4l0-13.2L161.6,202z"/>
					<g class="st24">
						<path class="st28" d="M161.5,225.7V202l22.9-0.1l0.1,13.3c-5.1,3.8-13.2,8.5-23,10.5L161.5,225.7L161.5,225.7z M184.4,202
							l-22.7,0.1l0.1,23.3c9.6-2,17.7-6.7,22.7-10.3L184.4,202L184.4,202z"/>
					</g>
					<path class="st23" d="M115.5,202l0,13.2c7.9,5.6,16.8,8.9,22.8,10.2l-0.1-23.3L115.5,202z"/>
					<g class="st24">
						<path class="st28" d="M138.5,225.5l-0.1,0c-5.8-1.2-14.8-4.5-22.9-10.2l-0.1-13.3l22.9-0.1L138.5,225.5L138.5,225.5z
							 M138.2,202l-22.7,0.1l0.2,13.1c7.9,5.5,16.8,8.8,22.6,10L138.2,202L138.2,202z"/>
					</g>
					<path class="st23" d="M92.4,177.2c0.7,9.6,5.1,18.2,9.4,24.3l13.5,0.3l0-24.5L92.4,177.2z"/>
					<g class="st24">
						<path class="st28" d="M115.3,201.9l-0.1,0l-13.5-0.3c-3.2-4.4-8.7-13.5-9.5-24.4l23-0.1L115.3,201.9L115.3,201.9z
							 M115.1,177.2l-22.7,0.1c0.9,10.7,6.3,19.7,9.5,24.1l13.3,0.2L115.1,177.2L115.1,177.2z"/>
					</g>
					<rect x="92.2" y="127.5" class="st23" width="23.1" height="24.8"/>
					<rect x="138.4" y="127.5" class="st23" width="23.1" height="24.8"/>
					<rect x="161.5" y="102.5" class="st23" width="23.1" height="24.8"/>
					<rect x="184.6" y="127.5" class="st23" width="23.1" height="24.8"/>
					<rect x="115.3" y="152.3" class="st23" width="23.1" height="24.8"/>
					<rect x="161.5" y="152.3" class="st23" width="23.1" height="24.8"/>
					<rect x="138.4" y="177.1" class="st23" width="23.1" height="24.8"/>
					<path class="st32" d="M172.8,73.3c-0.1,0.1-0.3-1.1-0.3-1.3c-0.1-0.3-0.2-0.9-0.4-1.6C172.6,71.3,172.9,72.4,172.8,73.3
						L172.8,73.3z"/>
					<g class="st24">
						<path class="st30" d="M172.8,73.4c-0.1,0-0.2-0.1-0.3-1l-0.5-2c0.8,0.8,1.1,1.9,1,2.9L172.8,73.4L172.8,73.4z"/>
					</g>
				</g>
			</g>
		</g>
	</g>
</g>
</svg>
