<?xml version="1.0" encoding="utf-8"?>
<!-- Generator: Adobe Illustrator 22.1.0, SVG Export Plug-In . SVG Version: 6.00 Build 0)  -->
<svg version="1.1" xmlns="http://www.w3.org/2000/svg" xmlns:xlink="http://www.w3.org/1999/xlink" x="0px" y="0px"
	 viewBox="0 0 300 300" style="enable-background:new 0 0 300 300;" xml:space="preserve">
<style type="text/css">
	.st0{clip-path:url(#SVGID_2_);}
	.st1{clip-path:url(#SVGID_4_);fill:#FFFFFF;}
	.st2{clip-path:url(#SVGID_4_);}
	.st3{clip-path:url(#SVGID_6_);fill:#EA0020;}
	.st4{clip-path:url(#SVGID_6_);fill:#FFFFFF;}
</style>
<g id="Layer_2">
</g>
<g id="Layer_1">
	<g>
		<defs>
			<rect id="SVGID_1_" width="300" height="300"/>
		</defs>
		<clipPath id="SVGID_2_">
			<use xlink:href="#SVGID_1_"  style="overflow:visible;"/>
		</clipPath>
		<g class="st0">
			<g>
				<defs>
					<rect id="SVGID_3_" x="-6.5" y="58.7" width="313.1" height="182.6"/>
				</defs>
				<clipPath id="SVGID_4_">
					<use xlink:href="#SVGID_3_"  style="overflow:visible;"/>
				</clipPath>
				<rect x="-6.5" y="58.7" class="st1" width="313.1" height="182.6"/>
				<g class="st2">
					<defs>
						<rect id="SVGID_5_" x="-6.5" y="58.7" width="313.1" height="182.6"/>
					</defs>
					<clipPath id="SVGID_6_">
						<use xlink:href="#SVGID_5_"  style="overflow:visible;"/>
					</clipPath>
					<path class="st3" d="M272.2,95.7l0.4-3.6l-1,3.5c-2.1,7.2-8.1,13.4-14.2,14.7c-4.6,0.9-8.6,2.4-10.2,3.7
						c-1,0.8-1.4,0.8-2.5-0.2c-0.8-0.8-2.6-1.2-4.9-1.2c-3.2,0-3.8,0.3-5.2,2.2c-0.9,1.2-1.8,2-2,1.8c-0.2-0.2,0-0.9,0.5-1.5
						c0.7-0.8,0.7-1.1,0.1-1.1c-0.5,0-1.3,1.1-1.8,2.4c-1.2,2.9-4.5,5.9-6.2,5.9c-5-1.8-5.7-9.6-11.4-10c-1.9,0.1-1.9,0.1-0.1,0.4
						c2.5,0.5,3.4,3.1,6.6,7.1C240.2,145.3,267.9,123.1,272.2,95.7L272.2,95.7z"/>
					<path class="st3" d="M153,216.6c-31.4,0.4-72.6-21.1-85.3-51.4c-1.2-3.5-3-6.7-4.3-10.1c-4-6-7.9-12.6-13-17.7
						c-11.9-12.1-23.1-26.6-23.9-44.1c0-1.4,0.5,0.3,1.1,3.8c4.7,28.9,32.8,48.1,52.8,23.6c1.3-1.6,2.5-4.1,3.3-5
						c1.5-1.6,4.1-2.2,4.1-0.9c0,0.4-0.8,0.7-1.8,0.7c-1.4,0-2.2,0.7-3.7,3.7c-1.7,3.5-9.1,10.9-10.4,11.4c-1.1,0.4-0.4,1.3,2.4,2.8
						c6.3,3.3,8.5,4.7,15,10c7,5.8,15.3,10.4,24.6,10.6c8.4-1.8,13.7-1.9,18.8,3c2.7,2.6,8.1,3.2,17.3,3.2c9.2,0,14.5-0.7,17.3-3.2
						c5.4-4.9,10.4-4.7,18.8-3c9.5,0,17.4-5,24.6-10.6c6.6-5.2,8.7-6.7,15-10c2.8-1.5,3.9-2.8,2.4-2.8c-1.4,0-8.7-7.9-10.4-11.4
						c-1.5-3-2.3-3.7-3.7-3.7c-1,0-1.8-0.3-1.8-0.7c0-1.3,2.6-0.7,4.1,0.9c0.8,0.9,2.3,3.1,3.3,5c22.5,26.9,48.8,1.2,53.3-23.6
						c0.5-3.5,1-5.2,1.1-3.8c-0.8,17.5-12.8,31.9-24.3,44.1c-4.9,5.4-9.4,11.4-13,17.7c-1.6,3.3-2.8,6.8-4.3,10.1
						C216.6,195.3,187,217.2,153,216.6L153,216.6z"/>
					<path class="st4" d="M125.9,155.8c0.7-2.9-4.1-1.7-2.5,0.6C124.1,157.5,126.1,157.3,125.9,155.8L125.9,155.8z"/>
					<path class="st4" d="M176.7,156c0.8-2.6-3.7-2.6-2.6,0.2C174.5,157.6,176.4,157.4,176.7,156L176.7,156z"/>
					<path class="st3" d="M27.9,95.7l-0.4-3.6l1,3.5c2.1,7.2,8.1,13.4,14.2,14.7c4.6,0.9,8.6,2.4,10.2,3.7c1,0.8,1.4,0.8,2.5-0.2
						c0.8-0.8,2.6-1.2,4.9-1.2c3.2,0,3.8,0.3,5.2,2.2c0.9,1.2,1.8,2,2,1.8c0.2-0.2,0-0.9-0.5-1.5c-0.7-0.8-0.7-1.1-0.1-1.1
						c0.5,0,1.3,1.1,1.8,2.4c1.2,2.9,4.5,5.9,6.2,5.9c5-1.8,5.7-9.6,11.4-10c1.9,0.1,1.9,0.1,0.1,0.4c-2.5,0.4-3.4,3.1-6.6,7.1
						C59.9,145.3,32.2,123.1,27.9,95.7L27.9,95.7z"/>
					<path class="st4" d="M61.5,128.8c2.5-1.9,0.9-3.3-3.7-3.1l-4.2,0.1l3.6,0.4c2,0.2,3.5,0.8,3.4,1.1c-0.1,0.4-0.8,0.6-1.4,0.5
						c-0.7-0.1-2.5-0.3-4.1-0.5l-2.9-0.3l2.5,0.8c1.4,0.4,3,1,3.6,1.4C59.8,130,59.9,130,61.5,128.8L61.5,128.8z"/>
					<path class="st4" d="M52.2,125.6c0-1.6-3.5-1.4-3.8,0.2c-0.2,1.1,0.1,1.3,1.8,1.1C51.4,126.7,52.2,126.2,52.2,125.6L52.2,125.6
						z"/>
					<path class="st4" d="M49.9,125.8c0.2-0.2,0.9-0.3,1.4-0.1c0.6,0.2,0.4,0.4-0.4,0.4C50.1,126.2,49.7,126.1,49.9,125.8
						L49.9,125.8z"/>
					<path class="st4" d="M56.8,118.5c-0.3-2.2-2.7-3.3-2.7-1.2c0,0.7-0.6,2-1.4,3c-2.1,2.7-1.8,3.1,1.5,1.5
						C56.5,120.7,56.9,120.2,56.8,118.5L56.8,118.5z"/>
					<path class="st4" d="M44.7,119.4c-1.7-3-1.8-5.6-0.3-6.8c1.3-1.1,1.4-0.5,0.3,1.4c-0.5,0.8-0.6,1.9-0.3,2.7
						c0.5,1.2,0.6,1,1.1-0.9c0.3-1.2,0.7-2.6,1-3c0.7-1.1-1.7-1.8-2.9-0.8c-1.9,1.6-0.3,10,1.9,10C45.8,122,45.4,120.8,44.7,119.4
						L44.7,119.4z"/>
					<path class="st4" d="M51.7,119.9c1.5-2,1.5-2.1,0.2-2.4c-0.7-0.2-1.5,0-1.7,0.5c-0.2,0.5-0.8,1.6-1.1,1.3
						c-0.3-0.3,0.3-2.2,1.2-2.9c0.9-0.7,1.4-1.5,1.1-1.7c-0.3-0.3-1-0.1-1.6,0.4c-0.9,0.7-1,0.7-0.7-0.3c0.5-1.3-1.3-2.4-2-1.3
						c-0.2,0.4,0,0.7,0.4,0.7c0.5,0,0.6,0.5,0.4,1.1c-0.2,0.6-0.1,0.9,0.3,0.7c0.4-0.2,0.7,0.1,0.6,0.9c-0.2,2.6,0.1,5.3,0.7,5.3
						C49.9,122,50.8,121,51.7,119.9L51.7,119.9z"/>
					<path class="st4" d="M46.6,116.4c-0.2-0.7-0.3,0-0.3,1.6c0,1.6,0.2,2.1,0.3,1.2C46.8,118.4,46.8,117.1,46.6,116.4L46.6,116.4z"
						/>
					<path class="st4" d="M62.4,116.6c-0.6-0.6-1.2-1.1-1.5-1.1c-0.2,0-0.2,0.5,0,1.1c0.2,0.6,0.9,1.1,1.5,1.1
						C63.3,117.6,63.3,117.5,62.4,116.6L62.4,116.6z"/>
					<path class="st4" d="M241.5,129.2c0.7-0.4,2.4-1,3.8-1.4l2.5-0.8l-2.9,0.3c-1.6,0.2-3.4,0.4-4.1,0.5c-0.7,0.1-1.3-0.1-1.4-0.5
						c-0.1-0.4,1.4-0.9,3.4-1.1l3.6-0.4l-4.2-0.1c-4.6-0.1-6.2,1.2-3.7,3.1C240.2,130,240,130,241.5,129.2L241.5,129.2z"/>
					<path class="st4" d="M251.6,125.7c-0.3-1.4-2.6-2.1-3.6-1c-1.1,1.1,0,2.3,2,2.3C251.4,127,251.8,126.7,251.6,125.7L251.6,125.7
						z"/>
					<path class="st4" d="M248.3,125.8c0.2-0.2,0.9-0.3,1.4-0.1c0.6,0.2,0.4,0.4-0.4,0.4C248.5,126.2,248.1,126.1,248.3,125.8
						L248.3,125.8z"/>
					<path class="st4" d="M247.5,120.5c-0.9-1.2-1.6-2.6-1.6-3.3c0-2-2.5-0.9-2.7,1.3c-0.2,1.6,0.2,2.2,2.5,3.3
						c1.5,0.7,2.9,1.2,3.1,1.1C249,122.8,248.4,121.7,247.5,120.5L247.5,120.5z"/>
					<path class="st4" d="M251.1,120c0.1-1.1,0.1-2.6,0-3.3c-0.1-0.7,0.2-1.1,0.6-0.9c0.4,0.3,0.5,0,0.3-0.7c-0.2-0.6,0-1.1,0.4-1.1
						c0.5,0,0.6-0.3,0.4-0.7c-0.7-1.2-2.5,0-2,1.3c0.4,1,0.3,1-0.7,0.3c-0.6-0.5-1.3-0.7-1.6-0.4c-0.3,0.3,0.2,1.1,1.1,1.7
						c0.9,0.7,1.4,1.5,1,1.8c-0.3,0.3-0.8,0.2-0.9-0.2c-0.2-0.5-0.9-0.7-1.7-0.5c-1.3,0.3-1.3,0.4,0.2,2.4
						C250.2,122.5,251,122.5,251.1,120L251.1,120z"/>
					<path class="st4" d="M256.4,119.8c1.4-2.6,1.4-6.8,0.1-7.9c-1.2-1-3.5-0.3-2.9,0.8c0.3,0.4,0.7,1.8,1,3c0.4,1.9,0.6,2,1.1,0.9
						c0.3-0.8,0.2-1.9-0.3-2.7c-1.1-1.8-1-2.4,0.3-1.4c1.5,1.2,1.4,3.8-0.3,6.8c-0.8,1.4-1.1,2.5-0.7,2.5
						C255,122,255.8,121,256.4,119.8L256.4,119.8z"/>
					<path class="st4" d="M253.7,116.4c-0.2-0.7-0.3,0-0.3,1.6c0,1.6,0.2,2.1,0.3,1.2C253.9,118.4,253.8,117.1,253.7,116.4
						L253.7,116.4z"/>
					<path class="st4" d="M239.1,116.6c0.2-0.6,0.2-1.1,0-1.1c-0.2,0-0.9,0.5-1.5,1.1c-0.9,0.9-0.9,1.1,0,1.1
						C238.2,117.6,238.8,117.2,239.1,116.6L239.1,116.6z"/>
				</g>
			</g>
		</g>
	</g>
</g>
</svg>
