<?xml version="1.0" encoding="utf-8"?>
<!-- Generator: Adobe Illustrator 22.1.0, SVG Export Plug-In . SVG Version: 6.00 Build 0)  -->
<svg version="1.1" xmlns="http://www.w3.org/2000/svg" xmlns:xlink="http://www.w3.org/1999/xlink" x="0px" y="0px"
	 viewBox="0 0 300 300" style="enable-background:new 0 0 300 300;" xml:space="preserve">
<style type="text/css">
	.st0{clip-path:url(#SVGID_2_);}
	.st1{clip-path:url(#SVGID_4_);fill:#6CB2DD;}
	.st2{clip-path:url(#SVGID_4_);}
	.st3{clip-path:url(#SVGID_6_);fill:#FFFFFF;}
	.st4{clip-path:url(#SVGID_6_);}
	.st5{clip-path:url(#SVGID_6_);fill:#C0003B;}
	.st6{clip-path:url(#SVGID_6_);fill:#192967;}
	.st7{clip-path:url(#SVGID_6_);fill:#BC0030;}
	.st8{clip-path:url(#SVGID_6_);fill:#F3EDEB;}
	.st9{clip-path:url(#SVGID_6_);fill:#F5D028;}
	.st10{clip-path:url(#SVGID_6_);fill:#30770E;}
	.st11{fill:none;}
	.st12{clip-path:url(#SVGID_6_);fill:#28620A;}
	.st13{clip-path:url(#SVGID_6_);fill:#A87F36;}
	.st14{clip-path:url(#SVGID_6_);fill:#1D4805;}
	.st15{clip-path:url(#SVGID_2_);fill:#FFFFFF;}
	.st16{clip-path:url(#SVGID_8_);}
	.st17{clip-path:url(#SVGID_10_);fill:#D50037;}
	.st18{clip-path:url(#SVGID_12_);}
	.st19{clip-path:url(#SVGID_12_);fill:#E1001F;}
	.st20{clip-path:url(#SVGID_12_);fill:#F6D928;}
	.st21{clip-path:url(#SVGID_14_);fill:#F6D728;}
	.st22{clip-path:url(#SVGID_14_);}
	.st23{clip-path:url(#SVGID_14_);fill:#CA001C;}
	.st24{clip-path:url(#SVGID_14_);fill:#F0F7FF;}
	.st25{fill:#F6D728;}
	.st26{clip-path:url(#SVGID_16_);fill:#2D6C41;}
	.st27{clip-path:url(#SVGID_16_);fill:#F3D02F;}
	.st28{clip-path:url(#SVGID_16_);fill:#BC0030;}
	.st29{clip-path:url(#SVGID_16_);}
	.st30{clip-path:url(#SVGID_18_);fill:#FFFFFF;}
	.st31{clip-path:url(#SVGID_18_);fill:#C70021;}
	.st32{clip-path:url(#SVGID_18_);fill:#F0D82C;}
	.st33{clip-path:url(#SVGID_18_);}
	.st34{clip-path:url(#SVGID_20_);fill:#F0D82C;}
	.st35{clip-path:url(#SVGID_20_);}
	.st36{clip-path:url(#SVGID_20_);fill:#C70021;}
	.st37{clip-path:url(#SVGID_22_);fill:#16007E;}
	.st38{clip-path:url(#SVGID_22_);fill:#FFFFFF;}
	.st39{clip-path:url(#SVGID_24_);fill:#BE003A;}
	.st40{clip-path:url(#SVGID_24_);fill:#FFFFFF;}
	.st41{clip-path:url(#SVGID_24_);}
	.st42{clip-path:url(#SVGID_26_);fill:#BE003A;}
	.st43{clip-path:url(#SVGID_26_);fill:#FFFFFF;}
</style>
<g id="Layer_2">
</g>
<g id="Layer_1">
	<g>
		<defs>
			<rect id="SVGID_1_" width="300" height="300"/>
		</defs>
		<clipPath id="SVGID_2_">
			<use xlink:href="#SVGID_1_"  style="overflow:visible;"/>
		</clipPath>
		<g class="st0">
			<g>
				<defs>
					<rect id="SVGID_3_" width="339" height="197.7"/>
				</defs>
				<clipPath id="SVGID_4_">
					<use xlink:href="#SVGID_3_"  style="overflow:visible;"/>
				</clipPath>
				<rect class="st1" width="339" height="197.7"/>
				<g class="st2">
					<defs>
						<rect id="SVGID_5_" width="339" height="197.7"/>
					</defs>
					<clipPath id="SVGID_6_">
						<use xlink:href="#SVGID_5_"  style="overflow:visible;"/>
					</clipPath>
					<path class="st3" d="M223,62.9V105c0.8,26,13.9,35.3,32.1,42.9c20.8-9.2,31.4-20.5,31.4-42.9V62.9H223z"/>
					<g class="st4">
						<path d="M255.1,148.2l-0.1-0.1c-19.3-8.1-31.5-18.2-32.3-43.2V62.5h64.2V105c0,21-8.9,33.1-31.6,43.2L255.1,148.2L255.1,148.2
							z M223.4,63.2V105c0.8,24.7,12.2,34.3,31.7,42.5c22.4-9.9,31.1-21.9,31.1-42.5V63.2H223.4L223.4,63.2z"/>
					</g>
					<path class="st5" d="M223,104.3c0,0,0.1,5.4,1.5,12.2l60.7,0c1.4-6.1,1.5-12.2,1.5-12.2H223z"/>
					<path class="st5" d="M248.7,83.1l0,61.5c3,1.5,6.8,3.2,6.8,3.2s2.6-1.7,5.4-3.1l0-61.7H248.7z"/>
					<rect class="st6" width="169.9" height="84.9"/>
					<polygon class="st3" points="0,0 0,9.5 150.9,84.9 169.9,84.9 169.9,75.4 19,0 					"/>
					<polygon class="st3" points="169.9,0 169.9,9.5 19,84.9 0,84.9 0,75.4 150.9,0 					"/>
					<rect x="70.8" class="st3" width="28.3" height="84.9"/>
					<rect y="28.3" class="st3" width="169.9" height="28.3"/>
					<rect y="34" class="st7" width="169.9" height="17"/>
					<rect x="76.4" class="st7" width="17" height="84.9"/>
					<polygon class="st5" points="0,84.9 56.6,56.6 69.3,56.6 12.7,84.9 					"/>
					<polygon class="st5" points="0,0 56.6,28.3 44,28.3 0,6.3 					"/>
					<polygon class="st5" points="100.6,28.3 157.2,0 169.9,0 113.2,28.3 					"/>
					<polygon class="st5" points="169.9,84.9 113.2,56.6 125.9,56.6 169.9,78.6 					"/>
					<rect x="222.9" y="62.7" class="st5" width="63.7" height="22.7"/>
					<path class="st8" d="M226.4,73.3L226.4,73.3c1.1,0,2.1,1.2,2.1,2.6v0c0,1.4-0.9,2.6-2,2.6h0c-1.1,0-2-1.2-2-2.6v0
						C224.4,74.5,225.3,73.3,226.4,73.3L226.4,73.3z"/>
					<g class="st4">
						<path d="M226.4,78.7L226.4,78.7c-1.2,0-2.1-1.2-2.1-2.7c0-1.5,0.9-2.7,2.1-2.7c1.2,0,2.1,1.2,2.1,2.7
							C228.5,77.5,227.6,78.7,226.4,78.7L226.4,78.7z M226.4,73.4c-1.1,0-2,1.2-2,2.6c0,1.5,0.9,2.6,2,2.6h0c1.1,0,2-1.2,2-2.6
							C228.4,74.5,227.5,73.4,226.4,73.4L226.4,73.4z"/>
					</g>
					<path class="st9" d="M273,71.9c0,0,3.7-0.2,4.9-1.5c1.3-1.3-0.9-3.5,0.5-3.8c0.5,0,1.3,0.1,1.9,0.7c-0.1-0.5-0.5-0.7-0.6-1
						c-0.5-0.4-1-0.4-1.7-0.4c-0.5,0.1-0.6-0.1-1.4-0.9c-0.4-0.4-0.4-1.4-0.1-2c-1,0.6-0.8,1.5-0.7,1.7c0.2,0.9,0.5,1.1,0.5,1.5
						c-0.3-0.1-0.8-1.1-3.4-1.3c-2.6-0.2-9.2,1.6-12.2,1.6c-3,0-7.3-1.1-7.3-1.1s1.1-0.7-0.2-1.1c-1.3-0.3-4.3,1.1-5.1,0.3
						c-0.6-0.7-0.4-0.6-0.5-0.9c-0.2,0.1-0.4,0.6,0,1.2c0.3,0.6,0.5,0.4,0.5,0.4c0,0-1.1,0-1.1,0.3c-0.1,0.2-0.2,0.5,0.3,1.4
						c0.2-0.9-0.5-1,1-1.1c1.5-0.1,2.6,0.5,3.9,0.7c1.3,0.2,1.3-0.5,1.3-0.4c0,0,3.9,0.9,7.5,0.7c3.6-0.2,9.4-1.9,12-1.5
						c2.7,0.4,4.4,2,4.4,3.5c0,0.9-1.2,1.4-2.1,1.6c-1.1,0.2-3.7,0.4-3.7,0.4L273,71.9z"/>
					<g class="st4">
						<path d="M273,72L273,72l-1.4-0.9c0-0.1,2.6-0.3,3.7-0.4c0.5-0.1,2-0.4,2.1-1.5c0-1.4-1.7-3.1-4.4-3.5
							c-1.5-0.2-4.1,0.3-6.6,0.7c-1.9,0.3-3.8,0.7-5.4,0.8c-3.5,0.2-7.3-0.7-7.5-0.8c0.5,0.1,4.2,0.9,7.5,0.7
							c1.5-0.1,3.5-0.4,5.4-0.8c2.5-0.5,5.1-1,6.7-0.7c2.9,0.4,4.4,2.1,4.5,3.6c-0.1,1.2-1.6,1.5-2.1,1.6c-1.1,0.2-3.7,0.4-3.7,0.4
							L273,72c0.2-0.1,3.7-0.3,4.9-1.6c0.7-0.6,0.4-1.5,0.2-2.3c-0.1-0.5-0.3-1-0.1-1.2c0.1-0.1,0.2-0.2,0.4-0.2
							c0.5,0,1.3,0.1,2,0.8c-0.1-0.3-0.3-0.5-0.4-0.7c-0.6-0.6-1-0.6-1.6-0.6l-0.6,0v0c-0.3,0-0.5-0.2-1-0.7
							c-0.7-0.6-0.6-1.7-0.3-2.3c-0.9,0.6-0.7,1.4-0.6,1.7c0.1,0.4,0.2,0.7,0.3,0.9c0.1,0.2,0.2,0.4,0.2,0.6
							c-0.6-0.5-1.3-1.1-3.4-1.3c-1.7,0.1-4,0.4-6.2,0.8c-2.2,0.4-4.5,0.8-6,0.8c-3,0-7.3-1-7.3-1.1c0-0.1,0.5-0.4,0.4-0.7
							c0-0.2-0.2-0.3-0.6-0.4c-0.5-0.1-1.5,0.1-2.4,0.3c-1.2,0.3-2.3,0.4-2.7,0c-0.4-0.5-0.4-0.6-0.4-0.8c-0.2-0.1-0.3,0.4,0,1
							c0.1,0.3,0.3,0.4,0.3,0.4c-0.6,0.1-1,0.2-1,0.3c-0.1,0.2-0.2,0.5,0.3,1.4c0-0.3,0-0.4,0-0.6c0-0.1,0-0.1,0.1-0.2
							c0,0.4,0,0.5,0,0.8c-0.6-0.8-0.4-1.1-0.3-1.4c0.1-0.3,0.7-0.3,1-0.3c-0.1,0-0.2-0.2-0.4-0.4c-0.3-0.7-0.2-1.1,0.1-1.3
							c0.1,0.4,0.1,0.4,0.5,1c0.4,0.4,1.5,0.2,2.7-0.1c0.9-0.2,1.8-0.4,2.4-0.3c0.4,0.1,0.6,0.3,0.7,0.4c0.1,0.3-0.4,0.6-0.4,0.7
							c0,0,0,0,0,0c0.2,0,4.4,1,7.3,1c1.4,0,3.7-0.4,5.9-0.8c2.2-0.4,4.5-0.8,5.9-0.8c2.5,0.1,3.2,0.8,3.6,1.2c0.1,0,0.1-0.2,0-0.4
							c-0.1-0.2-0.2-0.5-0.3-0.9c-0.1-0.2-0.2-1.1,0.7-1.7c-0.3,0.7-0.2,1.7,0.1,2c0.7,0.8,0.9,0.9,1.2,0.9l0.6,0c0.6,0,1,0,1.4,0.4
							c0.4,0.5,0.5,0.7,0.6,1c-0.7-0.6-1.5-0.7-1.8-0.7c-0.3,0-0.4,0.1-0.5,0.2c-0.2,0.3,0,0.7,0.1,1.2c0.2,0.8,0.5,1.7-0.2,2.4
							C276.7,71.7,273.1,72,273,72L273,72L273,72z M252.5,66.9c-0.1,0-0.3,0-0.4,0c-0.5-0.1-0.9-0.2-1.4-0.3
							c-0.7-0.2-1.4-0.4-2.2-0.4c-0.6,0-0.9,0.1-1.1,0.1c0.2-0.1,0.4-0.1,0.8-0.2c1.1,0,1.8,0.2,2.5,0.4c0.4,0.1,0.9,0.3,1.3,0.3
							c1,0.1,1.2-0.2,1.3-0.4c0,0,0,0,0,0C253.4,66.5,253.2,66.9,252.5,66.9L252.5,66.9z"/>
					</g>
					<path class="st9" d="M268.9,72.8c0,0-2.5,0.1-3.2,1.4c-0.7,1.3-1,2.5-1,2.5c0,0,1.6-1.1,1.6-1.1s-1.2,2.1-0.5,4.1
						c0.6,1.9-1.6,1.8-3,1.9c-0.6-0.6-2.4-1.5-3.1-1.7c-0.4-0.2-1.2-0.2-2.1,1c-0.5,0.7,0.7-0.7,2-0.6c0.1,0.2,0.2,0.3,0.2,0.7
						c-0.7-0.1-1.3-1-2.1,1c0.8-0.7,0.9-0.7,1.3-0.7c0.5-0.1,0.5,0.3,0.5,0.3c-0.1,0-0.3,0.1-0.6,0.4c-0.2,0.3-0.6,0.9-0.5,0.9
						c0.1,0,0.4-0.3,0.8-0.6c0.3-0.2,0.5-0.2,1.3,0.1c4.3,1.3,6.6,0.3,6.9-0.2c0.1-0.2-2.5-6.6,4.5-8.3
						C271.8,73.8,268.9,72.9,268.9,72.8L268.9,72.8z"/>
					<g class="st4">
						<path d="M264.4,83L264.4,83c-1.2,0-2.5-0.2-4-0.7c-0.8-0.3-1-0.3-1.3-0.1c-0.2,0.1-0.4,0.3-0.5,0.4c0,0-0.1,0-0.1,0
							c0.3-0.2,0.4-0.4,0.6-0.5c0.3-0.2,0.5-0.2,1.3,0.1c3.5,1,6.6,0.4,6.9-0.2c-1-4.7,0.5-7.3,4.5-8.3c0,0-0.6-0.2-1.1-0.3
							c-1.8-0.6-1.9-0.7-1.9-0.7c0,0-2.4,0.1-3.1,1.4c-0.7,1.2-1,2.4-1,2.5c0,0,1-0.7,1.6-1.1c0,0.1-1.1,2.2-0.5,4.1
							c0.2,0.5,0.1,0.9-0.1,1.2c-0.4,0.6-1.6,0.7-2.5,0.7c0,0,0,0-0.1,0c1.2,0,2.2-0.1,2.6-0.7c0.2-0.3,0.2-0.7,0.1-1.1
							c-0.6-1.9,0.5-4.1,0.5-4.1c-0.6,0.4-1.5,1.1-1.6,1.1c-0.1-0.1,0.3-1.3,1-2.6c0.7-1.3,3.2-1.4,3.2-1.4c0.1,0.1,1.1,0.4,1.9,0.7
							c0.6,0.2,1,0.4,1.1,0.4c-4,1-5.5,3.6-4.6,7.9c0.1,0.3,0.1,0.4,0.1,0.4C267.2,82.5,266.3,83,264.4,83L264.4,83z M257.8,82
							c0.5-1.3,1.1-1.4,1.7-1.1c0.2,0.1,0.3,0.1,0.5,0.1c0-0.3-0.1-0.4-0.2-0.6c0.1,0.1,0.2,0.3,0.2,0.6c-0.2,0-0.3-0.1-0.5-0.1
							C259.1,80.7,258.6,80.1,257.8,82c0.8-0.7,0.9-0.7,1.3-0.7c0.3-0.1,0.5,0.1,0.5,0.3c0,0,0,0,0,0l-0.3-0.3
							C258.7,81.3,258.6,81.3,257.8,82L257.8,82z M257.9,81c0-0.1,0.1-0.1,0.1-0.2c0.4-0.2,1-0.5,1.6-0.5c0,0,0,0,0.1,0
							C258.9,80.3,258.2,80.7,257.9,81L257.9,81z M261.8,80.8c-0.8-0.4-1.6-0.8-2-0.9c-0.2-0.1-0.7-0.3-1.3,0.2
							c0.6-0.6,1.1-0.4,1.4-0.3C260.2,80,261.1,80.4,261.8,80.8L261.8,80.8z"/>
					</g>
					<path class="st9" d="M239,79.9c2.9,2.6,22.2-2.8,24.6-4.6c1.4-1.1,3.9-1.9,3.9,1.8c0.6-2.5,0.6-3.1,0.6-3c0.1,0.1,1,1,1.8,4
						c0.2-2.7-0.4-4.3-0.1-4.1c0.2-0.2,0.2,1.4,1.9,3.5c-0.4-1.7-0.5-2.5-0.5-2.5s3.1,3.3,4.9,3.7c1.8,0.4,4.3-0.9,5.1-0.1
						c0.8,0.8,2.1,2.2,2.1,3.3c-0.1,1.1-2.9,0.2-3.2,1.1c-0.3,0.9,0.2,0.9,0.2,0.9s0.3,0.7,0.5,1.2c0.2-0.4-0.2-1.2,0.4-1.3
						c0.4,0.1,0.4,0.8,0.5,1.2c0.1-0.4,0-1.4,0.4-1.4c0.4-0.1,0.5,0.7,0.8,1.2v-1.2c1.2-0.4,2.2-0.4,2.4-1.3c0.2-0.8-1.8-2.8-2.3-4
						c-0.5-1.2,0.4-1.7-0.5-2.4c-0.9-0.7-4.3,1.1-5.8,0.4c-1.6-0.7-0.9-5.5-6.8-6.6c-5.9-1.1-21.8,5.6-24.6,5.9
						c-2.8,0.3-6.3-1-6.3-1L239,79.9z"/>
					<g class="st4">
						<path d="M280.8,85.2l-0.2-0.6l0.2,0.4c0-0.1,0-0.3,0-0.4c0-0.4,0-0.8,0.4-0.8c0.3,0,0.4,0.5,0.5,0.9c0.1-0.6,0.1-1.1,0.4-1.1
							c0,0,0,0,0,0c0.3,0,0.4,0.3,0.5,0.7c0.1,0.2,0.1,0.4,0.3,0.6l-0.1-1.2l0.8-0.3c0.8-0.2,1.5-0.4,1.6-1c0.1-0.5-0.5-1.3-1.1-2.2
							c-0.5-0.6-0.9-1.3-1.2-1.8c-0.2-0.6-0.2-1-0.1-1.3c0-0.4,0.1-0.7-0.4-1.1c-0.4-0.3-1.4-0.1-2.5,0.2c-1.2,0.3-2.6,0.5-3.3,0.2
							c-0.5-0.2-0.8-0.9-1.2-1.7c-0.7-1.7-1.7-4.1-5.7-4.9c-4-0.7-12.6,2.1-18.7,4.2c-2.8,0.9-5,1.7-5.9,1.8c-2.8,0.3-6.2-0.9-6.3-1
							l0.1,5.2c0.5,0.4,1.6,0.7,3.1,0.7c6.4,0,19.6-3.8,21.5-5.3c0.4-0.3,1.3-0.9,2.2-0.9c0.8,0,1.7,0.5,1.7,2.7
							c0.5-2.2,0.6-2.9,0.6-3c0.3,0.2,1.1,1.3,1.9,4c0.1-1.6-0.1-2.7-0.2-3.4c0-0.4-0.1-0.6,0-0.7c0.2,0,0.2,0.1,0.3,0.4
							c0.2,0.6,0.6,1.7,1.6,3.2c-0.4-1.7-0.5-2.5-0.5-2.5c0.1,0,3.2,3.2,4.9,3.7c0.8,0.2,1.8,0,2.8-0.2c1.1-0.2,2-0.3,2.3,0.1
							c0.7,0.7,2.1,2.2,2.1,3.3c0,0.6-0.9,0.6-1.7,0.6c-0.7,0-1.4,0-1.6,0.4c-0.1,0.3-0.1,0.5-0.1,0.6c-0.1-0.2-0.1-0.4,0-0.6
							c0.2-0.4,0.9-0.5,1.6-0.5c0.8,0,1.6,0,1.6-0.6c0-1.1-1.4-2.6-2.1-3.3c-0.3-0.4-1.2-0.2-2.3,0c-1,0.2-2.1,0.4-2.8,0.2
							c-1.7-0.4-4.6-3.4-4.9-3.7c0.1,0.1,0.2,0.9,0.5,2.5c-1.1-1.4-1.5-2.6-1.7-3.1c-0.1-0.2-0.1-0.4-0.2-0.4c-0.1,0-0.1,0.3,0,0.6
							c0.1,0.7,0.2,1.9,0.1,3.4c-0.8-2.7-1.6-3.7-1.9-4c0,0.1,0,0.9-0.6,3c-0.1-2.8-1.9-3.3-3.9-1.8c-1.9,1.5-15.1,5.3-21.5,5.3l0,0
							c-1.6,0-2.7-0.2-3.2-0.7l-0.1-5.2l0,0c0.1,0,3.5,1.2,6.3,0.9c0.9-0.1,3.1-0.8,5.9-1.8c6.1-2,14.7-4.9,18.8-4.2
							c4,0.7,5,3.1,5.7,4.9c0.3,0.8,0.6,1.5,1.1,1.7c0.7,0.3,2.1,0.1,3.3-0.2c1.1-0.3,2.1-0.5,2.5-0.2c0.5,0.4,0.5,0.7,0.4,1.2
							c0,0.3-0.1,0.7,0.1,1.3c0.2,0.5,0.7,1.2,1.1,1.8c0.6,0.9,1.2,1.7,1.2,2.2c-0.1,0.7-0.8,0.9-1.6,1.1l-0.8,0.2l0,1.2
							c-0.2-0.2-0.2-0.4-0.3-0.6c-0.3-0.8-0.7-0.5-0.8,0.2c0,0.2,0,0.4-0.1,0.6c-0.2-0.7-0.3-1.1-0.6-1.2c-0.3,0-0.3,0.4-0.3,0.7
							C280.9,84.8,280.9,85,280.8,85.2L280.8,85.2L280.8,85.2z"/>
					</g>
					<path class="st9" d="M235.3,78c0,0-3,3.8-5.1,3.7c-2.1-0.2-3.7-2.7-4.2-2.5c-0.4,0.2-0.6-0.2-0.7-0.9c-0.2-0.7,0.2-1,0.2-1
						c0.1,0,0.2,1.1,0.3,1.2c0.1,0.1-0.3-1.4,0.3-1.4c0.2,0,0.2,1.1,0.4,1.5c0.1-0.1-0.2-1.6,0-1.6c0.3,0,0.4,1.5,0.8,2
						c0.6,0.8,1.5,1.2,2.8,1.6c1.3-0.2,4.3-3.6,4.6-3.5L235.3,78z"/>
					<g class="st4">
						<path d="M230.3,81.8L230.3,81.8c-1.4-0.1-2.5-1.1-3.3-1.8c-0.3-0.3-0.6-0.5-0.8-0.6c0.3,0.1,0.5,0.3,0.8,0.6
							C227.8,80.6,228.9,81.6,230.3,81.8L230.3,81.8L230.3,81.8c2-0.1,5-3.7,5-3.8l-0.6-0.7c-0.1,0-0.6,0.5-1.2,1
							c-1.1,1-2.6,2.4-3.4,2.5c-1.4-0.3-2.3-0.8-2.8-1.6c-0.2-0.2-0.4-0.8-0.5-1.2c-0.1-0.4-0.2-0.8-0.3-0.8c-0.1,0.1-0.1,0.7,0,1.1
							c0,0.4,0,0.4,0,0.5c-0.1-0.2-0.2-0.6-0.2-0.9c0-0.2-0.1-0.4-0.1-0.6c0.1,0.1,0.1,0.3,0.2,0.5c0,0.3,0.1,0.6,0.1,0.8
							c0-0.1,0-0.2,0-0.4c-0.1-0.5-0.1-1,0-1.1c0.2-0.1,0.3,0.3,0.4,0.8c0.1,0.5,0.2,1,0.5,1.2c0.5,0.7,1.4,1.2,2.7,1.5
							c0.8-0.1,2.3-1.5,3.4-2.5c0.7-0.7,1.1-1,1.2-1l0.7,0.8C235.3,78.1,232.3,81.8,230.3,81.8L230.3,81.8z"/>
					</g>
					<path class="st9" d="M235.4,75.9c0,0-2.5-4-4.5-4.4c-2-0.3-4,1.5-4.4,1.3c-0.4-0.3-0.6,0.1-0.8,0.6c-0.3,0.6,0.1,1,0.1,0.9
						c0.1,0,0.4-1,0.5-1c0.1-0.1-0.5,1.1,0.1,1.3c0.2,0.1,0.3-0.9,0.6-1.3c0,0.1-0.4,1.3-0.2,1.4c0.3,0.1,0.6-1.3,1-1.6
						c0.7-0.6,1.7-0.8,2.9-0.8c1.2,0.4,3.8,4.1,4.1,4.1L235.4,75.9z"/>
					<g class="st4">
						<path d="M234.7,76.4c-0.1,0-0.4-0.4-1.1-1.1c-0.9-1.1-2.2-2.7-3-2.9c-1.4,0-2.3,0.2-2.9,0.8c-0.2,0.2-0.4,0.6-0.6,1
							c-0.2,0.4-0.3,0.6-0.4,0.6c-0.2-0.2-0.1-0.7,0-1.1c-0.2,0.7-0.3,0.9-0.5,0.9c0-0.1-0.1-0.1-0.1-0.2c0.2,0,0.3-0.2,0.4-0.4
							c0.1-0.2,0.2-0.5,0.3-0.7c-0.1,0.7-0.2,1.2-0.2,1.4c0.1,0,0.3-0.3,0.4-0.6c0.2-0.4,0.4-0.8,0.6-1c0.6-0.5,1.5-0.8,2.9-0.8
							c0.8,0.3,2.1,1.8,3,2.9C234.1,75.8,234.5,76.3,234.7,76.4l0.7-0.6c0,0-2.5-4-4.5-4.3c-1.3-0.2-2.5,0.5-3.4,0.9
							c-0.4,0.2-0.7,0.4-0.9,0.4c-0.6-0.1-0.7,0.2-0.9,0.6c-0.2,0.5,0,0.8,0,0.9c0,0,0.2-0.3,0.2-0.5c0.1-0.3,0.2-0.5,0.2-0.5
							c0,0.3-0.1,0.5-0.1,0.8c0-0.2,0-0.4,0.1-0.6c-0.3,0.7-0.4,0.9-0.4,0.9c-0.1-0.1-0.3-0.4-0.1-0.9c0.2-0.5,0.3-0.7,0.6-0.7
							c0.5,0.1,0.9-0.1,1.3-0.3c0.9-0.5,2.1-1.1,3.4-0.9c2,0.4,4.5,4.4,4.6,4.4L234.7,76.4L234.7,76.4z"/>
					</g>
					<path class="st9" d="M234.1,74.6l-2.8,1.5l2,0.6l-1.5,1.8l2.1-0.7l-0.2,2.4l1.2-1.6l0.8,2.2l0.8-1.6l1,1.8l0.4-1.7l1.2,1.7
						l0.4-2.4l1.5,1.5l-0.2-2.5l1.8,0.6l-1.1-1.9c0,0,1.9-0.1,1.8-0.1c-0.1,0-1.5-1.2-2.7-1.6L234.1,74.6z"/>
					<g class="st4">
						<path d="M239.3,81l-1.2-1.8l-0.4,1.7l-1-1.8l-0.8,1.6l-0.8-2.2l-1.2,1.6l0.1-2.4l-2.1,0.8l1.4-1.8l-2-0.5l2.8-1.5l6.7-0.1
							c0.9,0.3,1.8,1,2.3,1.4l0.3,0.2c-0.8-0.6-1.8-1.3-2.7-1.5l-6.7,0.1l-2.8,1.5l2,0.5l-1.4,1.8l2.1-0.8l-0.1,2.4l1.2-1.6l0.8,2.2
							l0.8-1.6l1,1.8l0.4-1.7l1.2,1.7l0.4-2.3l1.5,1.5l-0.2-2.5l1.8,0.6l-1.1-1.9c0,0,1.8-0.1,1.8-0.1l0,0c0,0,0,0-1.8,0.1l1.1,1.9
							l-1.8-0.6l0.2,2.4l-1.5-1.4L239.3,81L239.3,81z"/>
					</g>
					<path class="st9" d="M235.6,74l-1.5,0.8l1.1,0.3l-0.8,1l1.1-0.4l-0.1,1.4l0.7-0.9l0.4,1.2l0.5-0.9l0.5,1l0.2-1l0.7,1l0.2-1.3
						l0.8,0.8l-0.1-1.4l1,0.4l-0.6-1.1c0,0,1.1-0.1,1-0.1s-0.8-0.7-1.5-0.9L235.6,74z"/>
					<g class="st4">
						<path d="M238.4,77.6l-0.7-1l-0.2,1l-0.6-1l-0.4,0.9l-0.5-1.2l-0.6,0.9l0-1.4l-1.1,0.4l0.8-1l-1.1-0.3l1.5-0.9l3.7,0
							c0.5,0.1,1,0.5,1.3,0.8c0,0,0,0,0.1,0.1c-0.4-0.3-0.9-0.7-1.3-0.8l-3.7,0l-1.5,0.8l1.1,0.3l-0.8,1.1l1.1-0.4l-0.1,1.4l0.6-0.9
							l0.5,1.2l0.4-0.9l0.6,1l0.2-1l0.7,0.9l0.2-1.3l0.8,0.8l-0.1-1.4l1,0.3l-0.6-1.1c0,0,0.7-0.1,0.9-0.1c0,0-0.3,0.1-0.9,0.1
							l0.6,1l-1-0.3l0.1,1.4l-0.8-0.8L238.4,77.6L238.4,77.6z"/>
					</g>
					<path class="st9" d="M236.4,70c0,0-0.8-0.7-1.1,0c-0.3,0.7,0.7,0.4,0.7,0.5c0,0.1-0.7,0.9-0.7,1.8c0,0.9,0.5,2.4,0.5,2.6
						c0,0.2,0.2,0.8,0.9,1.1c0.7,0.2,1-0.7,1.1-0.8c0.2-0.1,1.1,0.2,1.5-0.8c0.4-1,0.4-2.7,0.4-2.7s0.6,0.5,0.6-0.5c0-1-0.7,0-0.7,0
						s0.1-1.1-1.5-1.6C236.6,69.1,236.4,70.1,236.4,70L236.4,70z"/>
					<g class="st4">
						<path d="M237,76.1l-0.2,0c-0.7-0.2-1-0.8-1-1.1c0-0.1-0.1-0.3-0.1-0.6c-0.2-0.6-0.4-1.5-0.4-2.1c0-0.4,0.1-0.8,0.3-1.1
							c-0.1,0.4-0.2,0.7-0.2,1.1c0,0.6,0.2,1.5,0.4,2.1c0.1,0.3,0.1,0.5,0.1,0.6c0,0.2,0.2,0.8,0.9,1L237,76.1
							c0.4,0,0.6-0.4,0.8-0.7l0.4-0.3c0.4,0,1,0,1.2-0.7c0.4-0.9,0.4-2.7,0.4-2.7c0.6,0.1,0.6-0.2,0.6-0.5c0-0.2,0-0.4-0.2-0.4
							c-0.2,0-0.4,0.3-0.5,0.4c0,0,0-1.1-1.5-1.6c-1.1-0.4-1.6,0.1-1.7,0.3c0,0,0,0,0,0c0.2-0.3,0.7-0.7,1.8-0.4
							c1.5,0.5,1.5,1.4,1.5,1.6c0.1-0.2,0.7-0.7,0.7,0c0,0.6-0.2,0.7-0.4,0.6c-0.3,0-0.3,1.7-0.6,2.6c-0.3,0.7-0.9,0.8-1.3,0.8
							l-0.4,0.2C237.6,75.7,237.4,76.1,237,76.1L237,76.1z"/>
					</g>
					<path class="st9" d="M236.2,69.8c-0.2-0.6-0.8-3.1-0.8-3.1l1.4,0.9c-0.5-0.2-0.8-0.3-0.8-0.3c0,0,0.6,1.2,0.6,1.2
						c0.5-0.1,1.1,0.2,1.7,0.4c0,0,0.5-1,0.5-1c-0.1,0-0.3-0.2-0.3-0.2l1.2-0.9l-0.4,1.2l-0.2,0l-0.5,0.9c0.6,0.2,0.8,0.3,1.4,0.8
						c0.5-0.1,0.9-0.5,1.1-0.8c-0.4-0.2-0.6-0.3-0.6-0.3c0,0,1.8,0.1,1.8,0.1s-1.7,1.8-2.7,2.4C238.7,70.8,236.3,70.1,236.2,69.8
						L236.2,69.8z"/>
					<g class="st4">
						<path d="M239.6,71.3L239.6,71.3c-0.4-0.2-0.9-0.4-1.5-0.6c-1.2-0.4-1.9-0.7-2-0.9c-0.2-0.6-0.8-3.1-0.8-3.1l1.4,0.9l-0.7-0.2
							c0,0,0.2,0.5,0.4,0.8c-0.2-0.4-0.5-0.8-0.5-0.9l0.8,0.2l-1.4-0.9c0.1,0.1,0.7,2.4,0.9,3.1c0.1,0.1,1,0.5,1.9,0.8
							C238.7,70.9,239.2,71.1,239.6,71.3c0.9-0.7,2.5-2.4,2.6-2.5c-0.1,0-1.6-0.1-1.8-0.1c0.1,0,0.2,0.1,0.6,0.3
							c-0.4,0.5-0.8,0.8-1.1,0.9c-0.6-0.6-0.9-0.7-1.4-0.8l1.1-2.2l0,0l0,0l-0.3,1.3l-0.7,0.9c0.5,0.1,0.8,0.2,1.4,0.8
							c0.3-0.1,0.7-0.4,1.1-0.8c0,0-0.6-0.2-0.6-0.3c0.1,0,1.8,0.1,1.8,0.1C242.3,68.9,240.6,70.6,239.6,71.3L239.6,71.3L239.6,71.3
							z M238.3,69l-0.5-0.1c-0.4-0.2-0.8-0.3-1.1-0.3c0,0,0,0,0,0c0.4-0.1,0.8,0.1,1.2,0.3L238.3,69c0.1-0.3,0.3-0.7,0.4-0.9
							C238.7,68.2,238.6,68.5,238.3,69L238.3,69z"/>
					</g>
					<path class="st4" d="M237,71.7L237,71.7c0.3,0.2,0.4,0.3,0.3,0.2l0,0c-0.2,0-0.5-0.2-0.8-0.3l0,0c-0.3-0.2-0.4-0.3-0.3-0.2h0
						C236.3,71.4,236.7,71.5,237,71.7L237,71.7z"/>
					<path class="st4" d="M238.6,72.3L238.6,72.3c0.3,0.2,0.4,0.3,0.3,0.2h0c-0.1,0-0.5-0.2-0.8-0.3l0,0c-0.3-0.2-0.4-0.3-0.3-0.2h0
						C237.9,72,238.3,72.2,238.6,72.3L238.6,72.3z"/>
					<path class="st4" d="M237.6,74.2L237.6,74.2c0.6,0.2,0.8,0.4,0.5,0.3l0,0c-0.3,0-1-0.2-1.6-0.4l0,0c-0.6-0.2-0.8-0.4-0.5-0.3h0
						C236.3,73.8,237,74,237.6,74.2L237.6,74.2z"/>
					<path class="st4" d="M237.5,73.3L237.5,73.3c0.3,0.1,0.4,0.2,0.2,0.2h0c-0.1,0-0.4-0.1-0.7-0.2l0,0c-0.3-0.1-0.4-0.2-0.2-0.2h0
						C236.9,73.1,237.2,73.2,237.5,73.3L237.5,73.3z"/>
					<path class="st4" d="M237.1,73.5L237.1,73.5c0.1-0.2,0.2-0.4,0.2-0.3v0c0,0.1,0,0.4-0.1,0.6l0,0c-0.1,0.2-0.2,0.3-0.2,0.2v0
						C237,74.1,237,73.8,237.1,73.5L237.1,73.5z"/>
					<polygon class="st10" points="227.8,119.7 226.5,117.5 228.3,119.7 228.4,120.6 					"/>
					<g class="st4">
						<path d="M228.4,120.6l-0.7-0.9l-1.3-2.2l1.8,2.1L228.4,120.6L228.4,120.6z M226.5,117.6l1.9,2.9l-0.1-0.8L226.5,117.6
							L226.5,117.6z"/>
					</g>
					<polygon class="st10" points="228.1,120 228.3,118.4 228.9,120.3 228.4,120.6 					"/>
					<g class="st4">
						<polygon points="228.4,120.7 228.1,120 228.3,118.4 228.9,120.3 228.4,120.7 						"/>
					</g>
					<polygon class="st10" points="227.7,120.5 225.6,119.4 227.3,120 228.4,120.6 					"/>
					<g class="st4">
						<path d="M228.4,120.6l-0.8-0.1l-2.1-1.1l1.8,0.5L228.4,120.6L228.4,120.6L228.4,120.6z M225.5,119.4l2.1,1.1l0.7,0.1l-1.1-0.6
							L225.5,119.4L225.5,119.4z"/>
					</g>
					<polygon class="st10" points="228.3,121.2 225.1,120.3 227.6,120.4 228.5,120.5 					"/>
					<g class="st4">
						<path d="M228.3,121.2L228.3,121.2l-3.2-0.9l3.4,0.2L228.3,121.2L228.3,121.2z M225.1,120.3l3.2,0.9l0.2-0.7l-0.8-0.1
							L225.1,120.3L225.1,120.3z"/>
					</g>
					<polygon class="st10" points="228.5,120.1 230.4,119.8 229.8,121.1 228.3,120.5 					"/>
					<g class="st4">
						<polygon points="229.8,121.1 228.3,120.6 228.5,120.1 230.4,119.8 229.8,121.1 						"/>
					</g>
					<polygon class="st10" points="229.6,120.8 232.1,121.8 230,121.5 228.2,120.5 					"/>
					<g class="st4">
						<path d="M232.1,121.8l-2.1-0.3l-1.8-1l1.4,0.3L232.1,121.8L232.1,121.8L232.1,121.8z M228.2,120.5l1.8,1l1.9,0.3l-2.3-1
							L228.2,120.5L228.2,120.5z"/>
					</g>
					<polygon class="st10" points="229.9,121.3 232.6,122.9 230.2,122 228.3,120.5 					"/>
					<g class="st4">
						<path d="M232.6,122.9l-2.4-0.9l-2-1.5L232.6,122.9L232.6,122.9L232.6,122.9z M228.2,120.5l2,1.5l2.1,0.8L228.2,120.5
							L228.2,120.5z"/>
					</g>
					<polygon class="st10" points="229.9,121.9 231.5,124.1 229.1,121.6 228.3,120.5 					"/>
					<g class="st4">
						<path d="M231.5,124.2l-3.1-3.7l1.6,1.3L231.5,124.2L231.5,124.2L231.5,124.2z M228.3,120.5l0.8,1l2.2,2.4l-1.4-2L228.3,120.5
							L228.3,120.5z"/>
					</g>
					<polygon class="st10" points="229.6,121.9 229.6,123.4 228.4,121.2 228.3,120.5 					"/>
					<g class="st4">
						<path d="M229.6,123.4l-1.2-2.2l-0.1-0.8l1.3,1.4L229.6,123.4L229.6,123.4L229.6,123.4z M228.3,120.5l0.1,0.7l1.1,2.1l0-1.4
							L228.3,120.5L228.3,120.5z"/>
					</g>
					<polygon class="st10" points="229,121.5 227.8,122.4 227.9,120.8 228.4,120.6 					"/>
					<g class="st4">
						<polygon points="227.8,122.4 227.8,120.8 228.4,120.6 229,121.5 227.8,122.4 						"/>
					</g>
					<polygon class="st10" points="227.5,119.7 226.6,118.5 227.8,119.7 228.3,120.5 					"/>
					<g class="st4">
						<polygon points="228.3,120.6 227.5,119.7 226.6,118.5 227.8,119.7 228.4,120.5 228.3,120.6 						"/>
					</g>
					<polygon class="st10" points="228.1,120.2 227.3,118.7 228.5,120.4 228.7,120.8 					"/>
					<g class="st4">
						<polygon points="228.6,120.9 228.1,120.2 227.2,118.7 228.7,120.8 228.6,120.9 						"/>
					</g>
					<polygon class="st10" points="228.2,120.7 225.9,119.7 227.8,120.3 228.6,120.7 					"/>
					<g class="st4">
						<polygon points="228.6,120.8 228.2,120.7 225.9,119.8 228.6,120.7 228.6,120.8 						"/>
					</g>
					<polygon class="st10" points="228.7,120.6 230.8,121.2 229.3,121 228.4,120.7 					"/>
					<g class="st4">
						<polygon points="230.8,121.2 228.4,120.7 230.6,121.2 230.4,121.1 230.8,121.2 230.8,121.2 						"/>
					</g>
					<polygon class="st10" points="228.8,121.1 228.2,121.5 228.5,120.9 228.5,120.6 					"/>
					<g class="st4">
						<polygon class="st11" points="228.8,121.1 228.2,121.5 228.5,120.9 228.5,120.6 						"/>
					</g>
					<polygon class="st10" points="229.7,121.5 231,123.1 229.9,122 228.6,120.7 					"/>
					<g class="st4">
						<path d="M231,123.1l-2.5-2.5l1.2,0.8L231,123.1L231,123.1L231,123.1z M228.5,120.7l2.1,2l-1-1.2L228.5,120.7L228.5,120.7z"/>
					</g>
					<polygon class="st10" points="229.4,120.9 229.7,120.5 229.9,121.3 228.6,120.8 					"/>
					<g class="st4">
						<polygon class="st11" points="229.4,120.9 229.7,120.5 229.9,121.3 228.6,120.8 						"/>
					</g>
					<polygon class="st10" points="228,120 227.4,118.3 228.3,120 228.4,120.6 					"/>
					<g class="st4">
						<polygon points="228.4,120.6 227.9,120 227.4,118.4 228.4,120.6 228.4,120.6 						"/>
					</g>
					<path class="st3" d="M234.2,123.7c0.3-0.2,2.5-5.3,13.2-4.5c-6,2.5-9.8,7.9-10.7,8.1C236,127.5,234.5,124.5,234.2,123.7
						L234.2,123.7z"/>
					<g class="st4">
						<path d="M236.6,127.3c-0.8,0-2.4-3.6-2.5-3.6c2.5-3.6,6.6-5.1,13.2-4.6c-4.2,1.9-7.2,4.9-9,6.8
							C237.5,126.7,237,127.2,236.6,127.3L236.6,127.3L236.6,127.3z M245.3,119.1c-5.2,0-8.9,1.5-10.9,4.4c0.4,1.3,1.6,3.7,2.2,3.7
							v0.1l0.1-0.1c0.3-0.1,0.8-0.6,1.6-1.4c1.8-1.8,4.9-4.9,9.1-6.7C246.6,119.1,245.9,119.1,245.3,119.1L245.3,119.1z"/>
					</g>
					<path class="st3" d="M248.4,121.2c-1.6,0.7-2.5,1.1-3.3,1.2c0.4,0.2,1.4,0.1,2.5,0.5c-1,0-2.7,1-3.5,1c0.5,0.4,2.3,0,2.7,0.1
						c-1,0.1-2.5,1.1-3.5,1.1c-0.4,0.5,2.3-0.3,3.4,0.5c-1.1-0.1-3.3,0.8-4.5,0.6c0.9,0.7,2.5-0.1,3.9,0.7c-0.4,0.1-3.5,0.5-4.6,0.3
						c0.7,0.4,2.7,0.4,3.1,0.8c-0.8-0.1-3,0.5-3.8,0.2c0.7,0.7,2.8,0.3,3.1,0.7c-1.3,0.6-3.4,0.1-4.3,0.3c0.6,0.4,1.2,0.8,1.7,1.2
						c0.8,0.8,3.4,2.9,4.9,3.5c-1.7-0.3-2.3-0.3-3.4-0.4l2.5,3.5c-1-0.7-2.9-2.1-4.1-2.9c-2.7-1.7-4.6-1.4-6.5-2.9
						c-2.6-3.4-4.1-7.4-4.2-8.4c-0.1-1.1-0.2-3-2.6-2c2.3-0.4,0.7-2.9,3.1-2.9c1.4,0,1.3,1.4,1.8,2.3c0.4,0.7,2.8,3,3.3,3.1
						C240.6,119.7,244.3,119.3,248.4,121.2L248.4,121.2z"/>
					<g class="st4">
						<path d="M245.2,137l-0.9-0.7c-1-0.7-2.2-1.6-3.1-2.2c-1.3-0.9-2.5-1.2-3.5-1.6c-1-0.3-2-0.6-2.9-1.4c-2.7-3.4-4.1-7.4-4.2-8.5
							c-0.1-1.1-0.4-2.5-1.9-2.1c0,0,0,0,0.1-0.1c0,0,0,0,0,0c0.4-0.4,0.5-0.9,0.6-1.3c0.2-0.7,0.4-1.4,1.7-1.4
							c1.1,0,1.3,0.7,1.5,1.5c0.1,0.3,0.2,0.6,0.3,0.9c0.4,0.7,2.8,3,3.3,3.1c4.4-3.5,8-4.2,12.4-2.1c-1.6,0.8-2.4,1.2-3.3,1.3
							c0.2,0,0.5,0,0.8,0c0.4,0,1,0.1,1.6,0.3c-0.5,0.2-1.2,0.4-1.9,0.7c-0.6,0.2-1.1,0.4-1.5,0.5c0.2,0,0.5,0,0.9,0
							c0.3,0,0.7,0,0.9-0.1c0.2,0,0.4,0,0.6,0c0,0,0,0-0.1,0.1c0.1,0,0.2,0,0.3,0c-0.2,0.1-0.3,0.1-0.4,0.1
							c-0.3,0.2-0.8,0.4-1.2,0.5c-0.6,0.3-1.3,0.5-1.8,0.6l-0.2-0.1c0.6,0,1.2-0.3,1.9-0.6c0.3-0.1,0.6-0.3,0.9-0.4c0,0,0,0,0,0
							c-0.8,0.1-1.7,0.1-1.9-0.2c0.4-0.1,0.9-0.4,1.5-0.6c0.7-0.3,1.5-0.5,2-0.6c-0.6-0.1-1.1-0.1-1.6-0.2c-0.4,0-0.7-0.1-0.9-0.2
							c0.9-0.3,1.7-0.6,3.3-1.3c-4.3-1.6-7.8-1.3-12.3,2.2c-0.6-0.1-3.1-2.5-3.5-3.1c-0.2-0.3-0.3-0.6-0.4-0.9
							c-0.2-0.7-0.4-1.4-1.4-1.4c-1.2,0-1.3,0.6-1.5,1.3c-0.1,0.4-0.2,0.9-0.6,1.2c1.3-0.3,1.6,1.2,1.7,2.2c0.1,1.2,1.6,5.2,4.2,8.5
							c0.9,0.7,1.8,1,2.9,1.3c1,0.3,2.2,0.7,3.6,1.6c0.9,0.5,2.1,1.4,3.1,2.2l0.5,0.4l-2.2-3.1l0.5-0.1c0.8,0.1,1.5,0.2,2.9,0.4
							c-1.5-0.5-4-2.6-5-3.4l-0.7-0.5c-0.3-0.2-0.7-0.5-1-0.7c0.4-0.4,0.9-0.2,1.4-0.1c1.1,0.1,2.3,0,2.9-0.3
							c-0.2,0-0.7-0.1-1.2-0.1c-0.7,0-1.6-0.1-2-0.5c0.2-0.1,0.4-0.1,0.6-0.1c0.4,0,1-0.1,1.5-0.2c0.5-0.1,1.1-0.2,1.4-0.2
							c0,0-0.6-0.1-1.2-0.2c-0.7-0.1-1.4-0.2-1.7-0.4c0.3-0.1,0.5-0.1,0.9-0.1l0,0c1.3,0,3.3-0.3,3.7-0.4c-0.5-0.2-1.1-0.2-1.7-0.2
							l-0.7,0c-0.6,0-1.1-0.1-1.4-0.3l0.5-0.1c0.6,0,1.3-0.2,2.1-0.3c0.7-0.2,1.4-0.3,1.9-0.3c-0.3-0.1-0.8-0.3-1.7-0.3l-1.3,0
							l-0.2-0.2l1.4,0c0.9,0,1.5,0.1,1.9,0.5c-0.7,0.1-1.3,0.3-2,0.4c-0.9,0.2-1.9,0.4-2.5,0.3c0.4,0.1,0.8,0.2,1.4,0.2l0.7,0
							c0.6,0,1.2,0,1.8,0.4c-0.7,0.3-3.6,0.7-4.7,0.4c0.4,0.1,1.1,0.2,1.7,0.3c0.6,0.1,1.2,0.2,1.5,0.4c-0.7,0.1-1.3,0.2-1.8,0.3
							c-0.8,0.1-1.7,0.2-2.1,0.1c0.4,0.2,1.2,0.3,2,0.3c0.6,0,1.1,0.1,1.3,0.3c-0.7,0.5-1.9,0.5-3.1,0.4c-0.5,0-1-0.1-1.3,0
							c0.4,0.1,0.7,0.3,1.1,0.6l0.7,0.5c0.9,0.9,3.4,2.9,4.9,3.5c-1.5-0.1-2.1-0.2-2.9-0.3l-0.5,0l2.5,3.4L245.2,137L245.2,137z"/>
					</g>
					<path class="st12" d="M262.5,139.9c-0.1-0.5-0.1-0.8,0.1-1.5c0.4-0.5,0.6-1,1.2-1.5c0.7-0.3,1,0,1.9-1c0.3-0.6,0.8-1.1,1-1.8
						c0.6-1,0.8-1.5,1.3-2.3c0.6-0.8,1.2-1.5,1.5-2.2c0.4-0.8,0.8-1.3,1.4-2c0.2-0.8,0.7-1.3,1.4-2c0.5-1,1.4-2,1.7-2.8
						c0.7-0.9,1-1.3,1.5-2.2c0.5-0.4,1.4-1.2,2.1-1.5c1-0.5,1.5-0.9,2.2-0.2c0.4,0.5,1.2,1.3,0.7,1.8c-0.3,0.4-0.7,0.4-1.3,0.1
						c-0.5-0.4-0.8-1.6-1.5-0.7c-0.5,0.7-0.8,1.2-1.5,2c-0.4,0.6-0.6,1.1-1,2c-0.4,0.6-0.8,1.2-1.2,2.2c-0.5,0.4-0.9,1.3-1.2,2
						c-0.5,0.5-0.8,1.1-1.2,2c-0.7,0.8-1,1.5-1.5,2c-0.4,0.9-0.9,1.7-1.4,2.2c-0.3,0.6-0.7,1.3-1,2c-0.6,0.7-0.6,0.9-1.5,2
						c-0.8,1.1-0.5,1-1.7,2.3C264,140.7,263.3,140.8,262.5,139.9L262.5,139.9z"/>
					<g class="st4">
						<path d="M263.9,140.7c-0.5,0-0.9-0.2-1.4-0.8c-0.1-0.6-0.2-0.9,0.1-1.6l0.2-0.4c0.2-0.4,0.5-0.7,1-1.1
							c0.2-0.1,0.4-0.1,0.5-0.1c0.4-0.1,0.7-0.2,1.4-0.8c0.1-0.3,0.3-0.5,0.4-0.8c0.2-0.3,0.4-0.6,0.6-1c0.3-0.5,0.5-0.9,0.7-1.2
							c0.2-0.4,0.4-0.7,0.6-1.1c0.7-0.8,1.2-1.6,1.5-2.2c0.4-0.8,0.7-1.3,1.4-2c0.2-0.8,0.8-1.4,1.4-2c0.2-0.5,0.6-1,0.9-1.5
							c0.3-0.5,0.6-0.9,0.8-1.3c0.7-0.9,1-1.3,1.5-2.2l0.5-0.4c0.5-0.4,1.1-0.9,1.6-1.1l0.4-0.2c0.8-0.4,1.3-0.6,1.8,0
							c0.5,0.6,1.2,1.3,0.7,1.9c-0.3,0.4-0.8,0.4-1.3,0.1c-0.2-0.1-0.3-0.3-0.4-0.5c-0.3-0.4-0.6-0.7-1-0.2l-0.5,0.6
							c-0.3,0.4-0.6,0.8-1.1,1.3c-0.4,0.6-0.6,1.1-1,1.9c-0.5,0.6-0.8,1.3-1.2,2.2c-0.5,0.4-0.9,1.3-1.2,2c-0.5,0.6-0.8,1.1-1.2,2
							c-0.4,0.4-0.6,0.8-0.8,1.1c-0.2,0.3-0.4,0.6-0.7,0.9c-0.4,1.1-1.1,1.9-1.3,2.2c-0.3,0.6-0.7,1.3-1,1.9
							c-0.3,0.4-0.5,0.6-0.7,0.8c-0.2,0.3-0.4,0.6-0.9,1.1l-0.5,0.7c-0.3,0.4-0.4,0.6-1.2,1.5C264.4,140.6,264.2,140.7,263.9,140.7
							L263.9,140.7z M279.1,118.6c-0.3,0-0.6,0.2-1,0.4l-0.4,0.2c-0.5,0.2-1.1,0.7-1.6,1.1l-0.5,0.4c-0.6,0.9-0.9,1.3-1.5,2.2
							c-0.2,0.4-0.5,0.8-0.8,1.3c-0.3,0.5-0.7,1-0.9,1.5c-0.7,0.7-1.1,1.2-1.3,2c-0.6,0.7-1,1.2-1.4,2c-0.4,0.6-0.9,1.4-1.5,2.2
							c-0.2,0.4-0.4,0.7-0.6,1.1c-0.2,0.4-0.4,0.7-0.7,1.2c-0.1,0.4-0.4,0.7-0.6,1c-0.2,0.3-0.3,0.5-0.5,0.8c-0.7,0.7-1,0.8-1.4,0.9
							c-0.1,0-0.3,0.1-0.5,0.1c-0.5,0.4-0.7,0.7-0.9,1.1l-0.2,0.4c-0.2,0.7-0.2,0.9-0.1,1.5c0.7,0.9,1.5,0.8,2.1,0.6
							c0.8-0.9,0.9-1.1,1.2-1.5l0.5-0.7c0.4-0.5,0.7-0.9,0.9-1.1c0.2-0.3,0.4-0.5,0.7-0.8c0.3-0.7,0.6-1.3,1-1.9
							c0.2-0.2,0.9-1.1,1.3-2.2c0.3-0.3,0.5-0.6,0.7-0.9c0.2-0.3,0.5-0.7,0.8-1.1c0.4-0.8,0.7-1.4,1.2-2c0.3-0.7,0.7-1.5,1.2-2
							c0.3-0.9,0.7-1.5,1.2-2.2c0.3-0.9,0.6-1.3,1-2c0.5-0.5,0.8-0.9,1.1-1.3l0.5-0.6c0.5-0.6,0.9-0.3,1.2,0.2
							c0.1,0.2,0.3,0.4,0.4,0.5c0.5,0.3,0.9,0.2,1.2-0.1c0.5-0.5-0.2-1.2-0.6-1.7C279.6,118.7,279.4,118.6,279.1,118.6L279.1,118.6z
							"/>
					</g>
					<path class="st9" d="M271.9,131.5L271.9,131.5c0.3,0.3-0.4,1.5-1.6,2.7l0,0c-1.2,1.2-2.3,1.9-2.6,1.6l0,0
						c-0.3-0.3,0.4-1.5,1.6-2.6l0,0C270.4,131.9,271.6,131.2,271.9,131.5L271.9,131.5z"/>
					<g class="st4">
						<path d="M267.9,135.8l-0.2-0.1c0-0.1,0-0.2,0-0.2c0,0,0,0,0,0L267.9,135.8c0.5-0.1,1.4-0.8,2.4-1.7c0.9-0.9,1.4-1.7,1.6-2.2
							c-0.1,0.6-0.8,1.5-1.5,2.2C269.3,135.2,268.3,135.8,267.9,135.8L267.9,135.8z M267.6,135.4c0.1-0.7,0.7-1.5,1.5-2.3
							c1-1,2-1.7,2.5-1.7c0,0,0.1,0.1,0.1,0.1c-0.7,0-1.6,0.6-2.5,1.6C268.4,134,267.8,134.9,267.6,135.4L267.6,135.4z"/>
					</g>
					<path class="st9" d="M265.5,127.2L265.5,127.2c0.4,0.2,0.2,1.5-0.4,3l0,0c-0.6,1.5-1.4,2.6-1.8,2.5l0,0c-0.4-0.2-0.2-1.5,0.4-3
						l0,0C264.4,128.1,265.2,127,265.5,127.2L265.5,127.2z"/>
					<g class="st4">
						<path d="M263.4,132.8L263.4,132.8c-0.6-0.2-0.3-1.7,0.3-3.1c0.6-1.5,1.4-2.6,1.8-2.6c0.6,0.2,0.3,1.7-0.3,3.1
							C264.6,131.7,263.8,132.8,263.4,132.8L263.4,132.8z M265.5,127.2c-0.4,0-1.1,0.9-1.8,2.5c-0.7,1.7-0.8,2.9-0.5,3l0.1,0
							c0.3,0,1.1-0.9,1.7-2.5C265.7,128.6,265.9,127.4,265.5,127.2C265.5,127.2,265.5,127.2,265.5,127.2L265.5,127.2z"/>
					</g>
					<path class="st9" d="M266.6,127.9L266.6,127.9c0.4,0.2,0.2,1.5-0.5,3l0,0c-0.7,1.5-1.5,2.6-1.9,2.4l0,0c-0.4-0.2-0.1-1.5,0.5-3
						l0,0C265.3,128.8,266.2,127.7,266.6,127.9L266.6,127.9z"/>
					<g class="st4">
						<path d="M264.2,133.5l-0.1,0c-0.5-0.2-0.1-1.7,0.5-3.1c0.7-1.5,1.4-2.5,1.9-2.5c0.4,0.1,0.3,0.7,0.3,1.1
							c-0.1,0.6-0.3,1.3-0.7,2C265.4,132.4,264.7,133.5,264.2,133.5L264.2,133.5z M266.6,127.9c-0.4,0-1.2,0.9-1.8,2.4
							c-0.7,1.7-0.9,2.9-0.6,3l0.1,0c0.3,0,1.1-0.9,1.8-2.4c0.3-0.8,0.6-1.5,0.7-2C266.8,128.4,266.7,128,266.6,127.9
							C266.6,127.9,266.6,127.9,266.6,127.9L266.6,127.9z"/>
					</g>
					<path class="st9" d="M268.9,129.6L268.9,129.6c0.3,0.2-0.2,1.5-1.1,2.9l0,0c-1,1.3-2,2.2-2.3,2l0,0c-0.3-0.2,0.2-1.5,1.1-2.8
						l0,0C267.5,130.2,268.6,129.3,268.9,129.6L268.9,129.6z"/>
					<g class="st4">
						<path d="M265.5,134.5l-0.2,0c0-0.1,0-0.2,0-0.3c0,0,0,0,0,0.1L265.5,134.5c0.4-0.1,1.4-0.9,2.2-2.1c0.8-1.2,1.3-2.2,1.3-2.6
							c0.1,0.6-0.5,1.7-1.2,2.6C266.9,133.7,266,134.5,265.5,134.5L265.5,134.5z M265.3,134.1c0-0.7,0.5-1.6,1.2-2.6
							c0.9-1.2,1.8-2.1,2.3-2.1c0.1,0,0.1,0.1,0.1,0.1c0,0,0,0,0,0c-0.6,0-1.5,0.8-2.3,2C265.8,132.6,265.3,133.6,265.3,134.1
							L265.3,134.1z"/>
					</g>
					<path class="st9" d="M273.7,132.6L273.7,132.6c0.3,0.3-0.5,1.4-1.8,2.5l0,0c-1.3,1.1-2.5,1.7-2.8,1.4l0,0
						c-0.3-0.3,0.5-1.4,1.8-2.5l0,0C272.2,132.9,273.4,132.3,273.7,132.6L273.7,132.6z"/>
					<g class="st4">
						<path d="M269.4,136.7l-0.3-0.1c-0.3-0.4,0.6-1.6,1.8-2.6c1.1-0.9,2.1-1.5,2.6-1.5c0.1,0,0.1,0.1,0.1,0.2
							c-0.7,0-1.7,0.6-2.6,1.4c-1.4,1.2-2,2.2-1.8,2.5L269.4,136.7c0.5-0.1,1.5-0.7,2.5-1.5c0.9-0.8,1.5-1.5,1.7-1.9
							c-0.2,0.6-0.9,1.3-1.6,2C270.9,136.1,269.9,136.7,269.4,136.7L269.4,136.7z"/>
					</g>
					<path class="st9" d="M272.9,132.1L272.9,132.1c0.3,0.3-0.4,1.5-1.6,2.6l0,0c-1.2,1.2-2.4,1.9-2.6,1.6l0,0
						c-0.3-0.3,0.4-1.5,1.6-2.6l0,0C271.4,132.5,272.6,131.8,272.9,132.1L272.9,132.1z"/>
					<g class="st4">
						<path d="M268.8,136.5l-0.2-0.1c0-0.1,0-0.2,0-0.3c0,0,0,0,0,0L268.8,136.5c0.5-0.1,1.5-0.8,2.4-1.7c1-1,1.7-2,1.7-2.4
							c-0.7-0.2-1.7,0.5-2.7,1.4c-0.9,0.9-1.6,1.8-1.7,2.3c0.1-0.7,0.7-1.5,1.6-2.3c1-1,2-1.7,2.5-1.7l0.3,0.3
							c0,0.5-0.7,1.5-1.7,2.5C270.3,135.8,269.3,136.5,268.8,136.5L268.8,136.5z"/>
					</g>
					<path class="st9" d="M270.4,130.9L270.4,130.9c0.3,0.2-0.2,1.5-1.1,2.9l0,0c-1,1.3-2,2.2-2.3,2l0,0c-0.3-0.2,0.2-1.5,1.1-2.9
						l0,0C269,131.5,270.1,130.6,270.4,130.9L270.4,130.9z"/>
					<g class="st4">
						<path d="M267,135.8l-0.2,0c-0.4-0.3,0.2-1.7,1.1-2.9c0.9-1.2,1.8-2.1,2.3-2.1c0,0.1,0.1,0.2,0.1,0.2c-0.6-0.1-1.5,0.8-2.3,1.8
							c-1,1.5-1.5,2.6-1.2,2.8L267,135.8c0.4-0.1,1.4-0.9,2.2-2.1c0.5-0.7,0.9-1.4,1.1-2c-0.1,0.6-0.5,1.3-1,2
							C268.4,135,267.5,135.8,267,135.8L267,135.8z"/>
					</g>
					<path class="st9" d="M269.7,130.1L269.7,130.1c0.3,0.2-0.2,1.5-1.1,2.9l0,0c-1,1.3-2,2.2-2.4,2l0,0c-0.3-0.2,0.2-1.5,1.1-2.9
						l0,0C268.3,130.8,269.4,129.9,269.7,130.1L269.7,130.1z"/>
					<g class="st4">
						<path d="M266.3,135.1l-0.2,0c0-0.1,0-0.2,0-0.3c0,0,0,0,0,0L266.3,135.1c0.4-0.1,1.4-0.9,2.2-2.1c0.5-0.7,0.9-1.4,1.1-2
							c-0.1,0.6-0.5,1.3-1,2C267.7,134.2,266.8,135.1,266.3,135.1L266.3,135.1z M266.1,134.7c0-0.7,0.5-1.6,1.2-2.6
							c0.9-1.2,1.8-2.1,2.3-2.1c0,0.1,0.1,0.2,0.1,0.3c-0.7-0.1-1.5,0.8-2.3,1.8C266.7,133.1,266.2,134.1,266.1,134.7L266.1,134.7z"
							/>
					</g>
					<path class="st9" d="M271.1,119.7L271.1,119.7c0.3,0.3-0.2,1.5-1.1,2.9l0,0c-1,1.3-2,2.2-2.3,2l0,0c-0.3-0.2,0.2-1.5,1.1-2.9
						l0,0C269.7,120.3,270.8,119.4,271.1,119.7L271.1,119.7z"/>
					<g class="st4">
						<path d="M267.7,124.6l-0.2,0c0-0.1,0-0.1,0-0.2l0,0L267.7,124.6c0.4-0.1,1.4-0.9,2.2-2.1c0.9-1.2,1.3-2.2,1.3-2.7
							c0.1,0.6-0.5,1.7-1.2,2.7C269.1,123.8,268.2,124.6,267.7,124.6L267.7,124.6z M267.5,124.2c0-0.7,0.5-1.6,1.2-2.5
							c0.9-1.2,1.8-2.1,2.3-2.1c0.1,0,0.1,0.1,0.1,0.1c0,0,0,0-0.1,0c-0.5,0-1.5,0.9-2.3,2C268,122.7,267.6,123.7,267.5,124.2
							L267.5,124.2z"/>
					</g>
					<path class="st9" d="M272,120.3L272,120.3c0.3,0.2-0.2,1.5-1.1,2.9l0,0c-1,1.3-2,2.2-2.3,2l0,0c-0.3-0.2,0.2-1.5,1.1-2.9l0,0
						C270.6,120.9,271.7,120,272,120.3L272,120.3z"/>
					<g class="st4">
						<path d="M268.6,125.2l-0.2,0c-0.4-0.3,0.2-1.7,1.1-2.9c0.9-1.2,1.8-2.1,2.3-2.1c0,0.1,0.1,0.2,0.1,0.2c-0.7,0-1.5,0.8-2.3,1.8
							c-1.1,1.5-1.5,2.6-1.2,2.8L268.6,125.2c0.4-0.1,1.4-0.9,2.2-2.1c0.5-0.7,0.9-1.4,1.1-2c-0.1,0.6-0.5,1.3-1,2
							C270,124.4,269.1,125.2,268.6,125.2L268.6,125.2z"/>
					</g>
					<path class="st9" d="M273,121L273,121c0.3,0.2-0.2,1.5-1.1,2.9l0,0c-1,1.3-2,2.2-2.3,2l0,0c-0.3-0.2,0.2-1.5,1.1-2.9l0,0
						C271.6,121.6,272.6,120.7,273,121L273,121z"/>
					<g class="st4">
						<path d="M269.6,125.9l-0.2,0c-0.4-0.3,0.2-1.7,1.1-2.9c0.9-1.2,1.8-2.1,2.3-2.1c0,0.1,0.1,0.2,0.1,0.2c-0.6,0-1.5,0.8-2.3,1.8
							c-1.1,1.5-1.5,2.6-1.2,2.8L269.6,125.9c0.4-0.1,1.4-0.9,2.2-2.1c0.5-0.7,0.9-1.5,1.1-2c-0.1,0.6-0.5,1.3-1,2
							C271,125.1,270,125.9,269.6,125.9L269.6,125.9z"/>
					</g>
					<path class="st9" d="M274,121.7L274,121.7c0.3,0.2-0.2,1.5-1.1,2.9l0,0c-1,1.3-2,2.2-2.3,2l0,0c-0.3-0.2,0.2-1.5,1.1-2.9l0,0
						C272.6,122.3,273.6,121.4,274,121.7L274,121.7z"/>
					<g class="st4">
						<path d="M270.6,126.6l-0.2,0c-0.4-0.3,0.3-1.7,1.1-2.9c0.9-1.2,1.8-2.1,2.3-2.1c0,0.1,0.1,0.2,0.1,0.3
							c-0.7-0.1-1.5,0.8-2.3,1.8c-1.1,1.5-1.5,2.6-1.2,2.8L270.6,126.6c0.4-0.1,1.4-0.9,2.2-2.1c0.5-0.7,0.9-1.4,1.1-2
							c-0.1,0.6-0.5,1.3-1,2C272,125.8,271,126.6,270.6,126.6L270.6,126.6z"/>
					</g>
					<path class="st9" d="M274.7,122.3L274.7,122.3c0.3,0.3-0.2,1.5-1.1,2.9l0,0c-1,1.3-2,2.2-2.3,2l0,0c-0.3-0.2,0.2-1.5,1.1-2.9
						l0,0C273.3,123,274.4,122.1,274.7,122.3L274.7,122.3z"/>
					<g class="st4">
						<path d="M271.4,127.3l-0.2,0c-0.4-0.3,0.2-1.7,1.1-2.9c0.9-1.2,1.8-2.1,2.3-2.1c0.1,0,0.1,0.1,0.1,0.1c0,0,0,0-0.1,0
							c-0.5,0-1.5,0.9-2.3,2c-1.1,1.5-1.5,2.6-1.2,2.8L271.4,127.3c0.4-0.1,1.4-0.9,2.2-2.1c0.9-1.2,1.3-2.2,1.3-2.7
							c0.1,0.6-0.5,1.7-1.2,2.7C272.8,126.4,271.8,127.3,271.4,127.3L271.4,127.3z"/>
					</g>
					<path class="st9" d="M279.8,125.2L279.8,125.2c0.3,0.2-0.2,1.5-1.1,2.9l0,0c-1,1.3-2,2.2-2.3,2l0,0c-0.3-0.2,0.2-1.5,1.1-2.9
						l0,0C278.4,125.8,279.5,124.9,279.8,125.2L279.8,125.2z"/>
					<g class="st4">
						<path d="M276.4,130.1l-0.2,0c-0.4-0.3,0.2-1.7,1.1-2.9c0.9-1.2,1.8-2.1,2.3-2.1c0.1,0,0.1,0.1,0.1,0.1c0,0,0,0,0,0
							c-0.5,0-1.5,0.8-2.3,2c-1.1,1.5-1.5,2.6-1.2,2.8L276.4,130.1c0.4-0.1,1.4-0.9,2.2-2.1c0.9-1.2,1.3-2.2,1.3-2.6
							c0.1,0.6-0.5,1.7-1.2,2.6C277.8,129.3,276.9,130.1,276.4,130.1L276.4,130.1z"/>
					</g>
					<path class="st9" d="M279,124.9L279,124.9c0.3,0.2-0.2,1.5-1.1,2.9l0,0c-1,1.3-2,2.2-2.3,2l0,0c-0.3-0.2,0.2-1.5,1.1-2.9l0,0
						C277.6,125.5,278.7,124.7,279,124.9L279,124.9z"/>
					<g class="st4">
						<path d="M275.6,129.9l-0.2,0c-0.4-0.3,0.2-1.7,1.1-2.9c0.9-1.2,1.8-2.1,2.3-2.1c0,0.1,0.1,0.2,0.1,0.3c-0.6,0-1.5,0.8-2.3,1.8
							c-1.1,1.5-1.5,2.6-1.2,2.8L275.6,129.9c0.4-0.1,1.4-0.9,2.2-2.1c0.5-0.7,0.9-1.4,1.1-2c-0.1,0.6-0.5,1.3-1,2
							C277,129,276.1,129.9,275.6,129.9L275.6,129.9z"/>
					</g>
					<path class="st9" d="M278.3,124.5L278.3,124.5c0.3,0.2-0.2,1.5-1.1,2.9l0,0c-1,1.3-2,2.2-2.3,2l0,0c-0.3-0.2,0.2-1.5,1.1-2.9
						l0,0C276.9,125.2,278,124.3,278.3,124.5L278.3,124.5z"/>
					<g class="st4">
						<path d="M274.9,129.5l-0.2,0c-0.4-0.3,0.3-1.7,1.1-2.9c0.9-1.2,1.8-2.1,2.3-2.1c0,0.1,0.1,0.2,0.1,0.3
							c-0.7-0.1-1.5,0.8-2.3,1.8c-1,1.5-1.5,2.6-1.2,2.8L274.9,129.5c0.4-0.1,1.4-0.9,2.2-2.1c0.5-0.7,0.9-1.4,1.1-2
							c-0.1,0.6-0.5,1.3-1,2C276.3,128.6,275.4,129.5,274.9,129.5L274.9,129.5z"/>
					</g>
					<path class="st9" d="M277.4,123.9L277.4,123.9c0.3,0.2-0.2,1.5-1.1,2.9l0,0c-1,1.3-2,2.2-2.4,2l0,0c-0.3-0.2,0.2-1.5,1.1-2.9
						l0,0C276,124.5,277,123.7,277.4,123.9L277.4,123.9z"/>
					<g class="st4">
						<path d="M274,128.9l-0.2,0c-0.4-0.3,0.3-1.7,1.1-2.9c0.9-1.2,1.8-2.1,2.3-2.1c0.1,0,0.1,0.1,0.1,0.1c0,0,0,0,0,0
							c-0.5,0-1.5,0.8-2.3,2c-1.1,1.5-1.5,2.6-1.2,2.8L274,128.9c0.4-0.1,1.4-0.9,2.2-2.1c0.8-1.2,1.3-2.1,1.3-2.6
							c0.1,0.6-0.5,1.7-1.2,2.6C275.4,128,274.5,128.9,274,128.9L274,128.9z"/>
					</g>
					<path class="st9" d="M276.4,123.4L276.4,123.4c0.3,0.2-0.2,1.5-1.1,2.9l0,0c-1,1.3-2,2.2-2.3,2l0,0c-0.3-0.2,0.2-1.5,1.1-2.9
						l0,0C275,124,276,123.2,276.4,123.4L276.4,123.4z"/>
					<g class="st4">
						<path d="M273,128.4l-0.2,0c-0.4-0.3,0.2-1.7,1.1-2.9c0.9-1.2,1.8-2.1,2.3-2.1c0.1,0,0.1,0.1,0.1,0.1c0,0,0,0,0,0
							c-0.5,0-1.5,0.8-2.3,2c-1.1,1.5-1.5,2.6-1.2,2.8L273,128.4c0.4-0.1,1.4-0.9,2.2-2.1c0.9-1.2,1.3-2.2,1.3-2.6
							c0.1,0.6-0.5,1.7-1.2,2.6C274.4,127.5,273.4,128.4,273,128.4L273,128.4z"/>
					</g>
					<path class="st9" d="M275.6,122.8L275.6,122.8c0.3,0.2-0.2,1.5-1.1,2.9l0,0c-1,1.3-2,2.2-2.3,2l0,0c-0.3-0.2,0.2-1.5,1.1-2.9
						l0,0C274.2,123.5,275.2,122.6,275.6,122.8L275.6,122.8z"/>
					<g class="st4">
						<path d="M272.2,127.8l-0.2,0c-0.4-0.3,0.3-1.7,1.1-2.9c0.9-1.2,1.8-2.1,2.3-2.1c0,0.1,0.1,0.2,0.1,0.3c-0.6,0-1.5,0.8-2.3,1.8
							c-1.1,1.5-1.5,2.6-1.2,2.8L272.2,127.8c0.4-0.1,1.4-0.9,2.2-2.1c0.5-0.7,0.9-1.4,1.1-2c-0.1,0.6-0.5,1.3-1,2
							C273.6,127,272.6,127.8,272.2,127.8L272.2,127.8z"/>
					</g>
					<path class="st9" d="M267.6,128.7L267.6,128.7c0.4,0.2,0,1.5-0.8,3l0,0c-0.8,1.4-1.7,2.5-2.1,2.3l0,0c-0.4-0.2,0-1.5,0.8-3l0,0
						C266.3,129.5,267.2,128.5,267.6,128.7L267.6,128.7z"/>
					<g class="st4">
						<path d="M264.8,134.1l-0.1,0c0-0.1-0.1-0.2-0.1-0.3c0,0,0,0,0,0.1L264.8,134.1c0.4-0.1,1.2-1.1,1.9-2.4
							c0.4-0.8,0.8-1.6,0.9-2.2c0,0.6-0.3,1.4-0.8,2.2C266.1,133.1,265.3,134.1,264.8,134.1L264.8,134.1z M264.6,133.7
							c-0.1-0.7,0.3-1.7,0.8-2.7c0.8-1.4,1.6-2.4,2-2.4c0,0.1,0.1,0.2,0.1,0.2c-0.6,0-1.4,0.9-2,2.1
							C264.9,132.1,264.6,133.2,264.6,133.7L264.6,133.7z"/>
					</g>
					<path class="st9" d="M268,123.4L268,123.4c0.3,0.2-0.2,1.5-1.1,2.9l0,0c-1,1.3-2,2.2-2.3,2l0,0c-0.3-0.2,0.2-1.5,1.1-2.9l0,0
						C266.7,124,267.7,123.1,268,123.4L268,123.4z"/>
					<g class="st4">
						<path d="M264.7,128.3l-0.2,0c-0.4-0.3,0.2-1.7,1.1-2.9c0.9-1.2,1.8-2.1,2.3-2.1c0.1,0,0.1,0.1,0.1,0.1c0,0,0,0,0,0
							c-0.5,0-1.5,0.8-2.3,2c-1.1,1.5-1.5,2.6-1.2,2.8L264.7,128.3c0.4-0.1,1.4-0.9,2.2-2.1c0.8-1.2,1.3-2.2,1.3-2.6
							c0.1,0.6-0.5,1.7-1.2,2.6C266.1,127.5,265.1,128.3,264.7,128.3L264.7,128.3z"/>
					</g>
					<path class="st9" d="M269,124L269,124c0.3,0.2-0.2,1.5-1.1,2.9l0,0c-1,1.3-2,2.2-2.3,2l0,0c-0.3-0.2,0.2-1.5,1.1-2.9l0,0
						C267.6,124.6,268.6,123.7,269,124L269,124z"/>
					<g class="st4">
						<path d="M265.6,128.9l-0.2,0c0-0.1,0-0.1,0-0.2c0,0,0,0,0,0L265.6,128.9c0.4-0.1,1.4-0.9,2.2-2.1c0.8-1.2,1.3-2.2,1.3-2.6
							c0.1,0.6-0.5,1.7-1.2,2.6C267,128.1,266,128.9,265.6,128.9L265.6,128.9z M265.4,128.5c0-0.7,0.5-1.6,1.2-2.5
							c0.9-1.2,1.8-2.1,2.3-2.1c0.1,0,0.1,0.1,0.1,0.1c0,0,0,0,0,0c-0.5,0-1.5,0.8-2.3,2C265.9,127,265.4,128,265.4,128.5
							L265.4,128.5z"/>
					</g>
					<path class="st9" d="M269.9,124.7L269.9,124.7c0.3,0.2-0.2,1.5-1.1,2.9l0,0c-1,1.3-2,2.2-2.3,2l0,0c-0.3-0.2,0.2-1.5,1.1-2.9
						l0,0C268.5,125.3,269.6,124.4,269.9,124.7L269.9,124.7z"/>
					<g class="st4">
						<path d="M266.5,129.6l-0.2,0c-0.4-0.3,0.2-1.7,1.1-2.9c0.9-1.2,1.8-2.1,2.3-2.1c0.1,0,0.1,0.1,0.1,0.1c0,0,0,0,0,0
							c-0.6,0-1.5,0.8-2.3,2c-1.1,1.5-1.5,2.6-1.2,2.8L266.5,129.6c0.4-0.1,1.4-0.9,2.2-2.1c0.8-1.2,1.3-2.2,1.3-2.6
							c0.1,0.6-0.5,1.7-1.2,2.6C267.9,128.8,267,129.6,266.5,129.6L266.5,129.6z"/>
					</g>
					<path class="st9" d="M270.9,125.4L270.9,125.4c0.3,0.2-0.2,1.5-1.1,2.9l0,0c-1,1.3-2,2.2-2.3,2l0,0c-0.3-0.2,0.2-1.5,1.1-2.9
						l0,0C269.5,126,270.6,125.1,270.9,125.4L270.9,125.4z"/>
					<g class="st4">
						<path d="M267.6,130.3l-0.2,0c0-0.1,0-0.1,0-0.2c0,0,0,0,0,0L267.6,130.3c0.4-0.1,1.4-0.9,2.2-2.1c0.9-1.2,1.3-2.2,1.3-2.6
							c0.1,0.6-0.5,1.7-1.2,2.6C268.9,129.5,268,130.3,267.6,130.3L267.6,130.3z M267.3,129.9c0-0.7,0.5-1.6,1.2-2.5
							c0.9-1.2,1.8-2.1,2.3-2.1c0.1,0,0.1,0.1,0.1,0.1c0,0,0,0,0,0c-0.5,0-1.5,0.8-2.3,2C267.9,128.4,267.4,129.4,267.3,129.9
							L267.3,129.9z"/>
					</g>
					<path class="st9" d="M271.7,126L271.7,126c0.3,0.2-0.2,1.5-1.1,2.9l0,0c-1,1.3-2,2.2-2.3,2l0,0c-0.3-0.2,0.2-1.5,1.1-2.9l0,0
						C270.3,126.7,271.4,125.8,271.7,126L271.7,126z"/>
					<g class="st4">
						<path d="M268.3,131l-0.2,0c-0.4-0.3,0.3-1.7,1.1-2.9c0.9-1.2,1.8-2.1,2.3-2.1c0,0.1,0.1,0.2,0.1,0.3c-0.6,0-1.5,0.8-2.3,1.8
							c-1.1,1.5-1.4,2.6-1.2,2.8L268.3,131c0.4-0.1,1.4-0.9,2.2-2.1c0.5-0.7,0.9-1.4,1.1-2c-0.1,0.6-0.5,1.3-1,2
							C269.7,130.1,268.8,131,268.3,131L268.3,131z"/>
					</g>
					<path class="st9" d="M276.8,128.9L276.8,128.9c0.3,0.3-0.2,1.5-1.1,2.9l0,0c-1,1.3-2,2.2-2.3,2l0,0c-0.3-0.2,0.2-1.5,1.1-2.9
						l0,0C275.4,129.5,276.4,128.6,276.8,128.9L276.8,128.9z"/>
					<g class="st4">
						<path d="M273.4,133.8l-0.2,0c0-0.1,0-0.1,0-0.2c0,0,0,0,0,0L273.4,133.8c0.4-0.1,1.4-0.9,2.2-2.1c0.9-1.2,1.3-2.2,1.3-2.6
							c0.1,0.6-0.5,1.7-1.2,2.6C274.8,133,273.8,133.8,273.4,133.8L273.4,133.8z M273.2,133.4c0-0.7,0.5-1.6,1.2-2.5
							c0.9-1.2,1.8-2.1,2.3-2.1c0.1,0,0.1,0.1,0.1,0.1c0,0,0,0-0.1,0c-0.5,0-1.5,0.9-2.3,2C273.7,131.9,273.2,132.9,273.2,133.4
							L273.2,133.4z"/>
					</g>
					<path class="st9" d="M276,128.6L276,128.6c0.3,0.2-0.2,1.5-1.1,2.9l0,0c-1,1.3-2,2.2-2.3,2l0,0c-0.3-0.2,0.2-1.5,1.1-2.9l0,0
						C274.6,129.3,275.6,128.4,276,128.6L276,128.6z"/>
					<g class="st4">
						<path d="M272.6,133.6l-0.2,0c-0.4-0.3,0.3-1.7,1.1-2.9c0.9-1.2,1.8-2.1,2.3-2.1c0.1,0,0.1,0.1,0.1,0.1c0,0,0,0,0,0
							c-0.5,0-1.5,0.8-2.3,2c-1.1,1.5-1.5,2.6-1.2,2.8L272.6,133.6c0.4-0.1,1.4-0.9,2.2-2.1c0.8-1.2,1.3-2.2,1.3-2.6
							c0.1,0.6-0.5,1.7-1.2,2.6C274,132.7,273,133.6,272.6,133.6L272.6,133.6z"/>
					</g>
					<path class="st9" d="M275.3,128.3L275.3,128.3c0.3,0.2-0.2,1.5-1.1,2.9l0,0c-1,1.3-2,2.2-2.3,2l0,0c-0.3-0.2,0.2-1.5,1.1-2.9
						l0,0C273.9,128.9,274.9,128,275.3,128.3L275.3,128.3z"/>
					<g class="st4">
						<path d="M271.9,133.2l-0.2,0c0-0.1,0-0.2,0-0.2v0L271.9,133.2c0.4-0.1,1.4-0.9,2.2-2.1c0.8-1.2,1.3-2.2,1.3-2.6
							c0.1,0.6-0.5,1.7-1.2,2.6C273.3,132.4,272.3,133.2,271.9,133.2L271.9,133.2z M271.7,132.8c0-0.7,0.5-1.6,1.2-2.5
							c0.9-1.2,1.8-2.1,2.3-2.1c0.1,0,0.1,0.1,0.1,0.1c0,0,0,0,0,0c-0.5,0-1.5,0.8-2.3,2C272.2,131.3,271.7,132.2,271.7,132.8
							L271.7,132.8z"/>
					</g>
					<path class="st9" d="M274.3,127.6L274.3,127.6c0.3,0.2-0.2,1.5-1.1,2.9l0,0c-1,1.3-2,2.2-2.4,2l0,0c-0.3-0.2,0.2-1.5,1.1-2.9
						l0,0C272.9,128.3,274,127.4,274.3,127.6L274.3,127.6z"/>
					<g class="st4">
						<path d="M270.9,132.6l-0.2,0c0-0.1,0-0.2,0-0.3c0,0,0,0,0,0L270.9,132.6c0.4-0.1,1.4-0.9,2.2-2.1c0.8-1.2,1.3-2.2,1.3-2.6
							c0.1,0.6-0.5,1.7-1.2,2.6C272.3,131.7,271.4,132.6,270.9,132.6L270.9,132.6z M270.7,132.2c0-0.7,0.5-1.6,1.2-2.6
							c0.9-1.2,1.8-2.1,2.3-2.1c0.1,0,0.1,0.1,0.1,0.1c0,0,0,0,0,0c-0.5,0-1.5,0.8-2.3,2C271.3,130.6,270.8,131.7,270.7,132.2
							L270.7,132.2z"/>
					</g>
					<path class="st9" d="M273.3,127.1L273.3,127.1c0.3,0.2-0.2,1.5-1.1,2.9l0,0c-1,1.3-2,2.2-2.3,2l0,0c-0.3-0.2,0.2-1.5,1.1-2.9
						l0,0C271.9,127.8,273,126.9,273.3,127.1L273.3,127.1z"/>
					<g class="st4">
						<path d="M269.9,132.1l-0.2,0c0-0.1,0-0.1,0-0.2l0,0L269.9,132.1c0.4-0.1,1.4-0.9,2.2-2.1c0.9-1.2,1.3-2.2,1.3-2.6
							c0.1,0.6-0.5,1.7-1.2,2.7C271.3,131.2,270.4,132.1,269.9,132.1L269.9,132.1z M269.7,131.6c0-0.7,0.5-1.6,1.2-2.5
							c0.9-1.2,1.8-2.1,2.3-2.1c0.1,0,0.1,0.1,0.1,0.1c0,0,0,0-0.1,0c-0.5,0-1.5,0.9-2.3,2C270.3,130.1,269.8,131.1,269.7,131.6
							L269.7,131.6z"/>
					</g>
					<path class="st9" d="M272.5,126.6L272.5,126.6c0.3,0.2-0.2,1.5-1.1,2.9l0,0c-1,1.3-2,2.2-2.4,2l0,0c-0.3-0.2,0.2-1.5,1.1-2.9
						l0,0C271.1,127.2,272.2,126.3,272.5,126.6L272.5,126.6z"/>
					<g class="st4">
						<path d="M269.1,131.5l-0.2,0c0-0.1,0-0.2,0-0.3c0,0,0,0,0,0L269.1,131.5c0.4-0.1,1.4-0.9,2.2-2.1c0.9-1.2,1.3-2.2,1.3-2.6
							c0.1,0.6-0.5,1.7-1.2,2.6C270.5,130.7,269.6,131.5,269.1,131.5L269.1,131.5z M268.9,131.1c0-0.7,0.5-1.6,1.2-2.6
							c0.9-1.2,1.8-2.1,2.3-2.1c0.1,0,0.1,0.1,0.1,0.1c0,0,0,0-0.1,0c-0.5,0-1.5,0.9-2.3,2C269.5,129.6,269,130.6,268.9,131.1
							L268.9,131.1z"/>
					</g>
					<path class="st13" d="M273.1,91.4L273.1,91.4c0.6,0,1,0.2,1,0.4v12c0,0.2-0.5,0.4-1,0.4h0c-0.6,0-1-0.2-1-0.4v-12
						C272.1,91.5,272.6,91.4,273.1,91.4L273.1,91.4z"/>
					<g class="st4">
						<path d="M273.2,104.1L273.2,104.1c-0.6,0-1.1-0.2-1.1-0.4v-12c0-0.4,2.1-0.4,2.1,0v12C274.2,104,273.7,104.1,273.2,104.1
							L273.2,104.1z M273.2,91.4c-0.6,0-1,0.2-1,0.3v12c0,0.2,0.4,0.3,1,0.3h0c0.6,0,1-0.2,1-0.3v-12
							C274.1,91.6,273.7,91.4,273.2,91.4L273.2,91.4z"/>
					</g>
					<polygon class="st10" points="271,96.2 265.1,100.2 268.9,95.3 272.7,94.5 					"/>
					<g class="st4">
						<path d="M265.2,100.2L265.2,100.2l3.7-4.9l3.8-0.9l-1.6,1.8L265.2,100.2L265.2,100.2z M272.7,94.4l-3.7,1l-3.5,4.5l5.6-3.8
							L272.7,94.4L272.7,94.4z"/>
					</g>
					<polygon class="st10" points="270.9,95.4 262.7,96.4 269.8,93.9 273,94.4 					"/>
					<g class="st4">
						<path d="M262.7,96.5l0-0.1l7.1-2.6l3.2,0.5l-2.1,1.1L262.7,96.5L262.7,96.5z M269.8,93.9l-6.6,2.4l7.6-1l2.1-1L269.8,93.9
							L269.8,93.9z"/>
					</g>
					<polygon class="st10" points="275,95.7 277.3,100.1 273.7,96.8 272.7,94.3 					"/>
					<g class="st4">
						<path d="M277.2,100.2l-3.6-3.4l-1-2.5l2.4,1.3L277.2,100.2L277.2,100.2L277.2,100.2z M272.6,94.4l1.1,2.4l3.3,3.1l-2.1-4.1
							L272.6,94.4L272.6,94.4z"/>
					</g>
					<polygon class="st10" points="276,94.1 282.9,100.2 274.6,95.9 272.2,94.4 					"/>
					<g class="st4">
						<path d="M282.9,100.2l-8.4-4.2l-2.3-1.5L276,94L282.9,100.2L282.9,100.2L282.9,100.2z M275.9,94.1l-3.7,0.3l2.4,1.4l8,4
							L275.9,94.1L275.9,94.1z"/>
					</g>
					<polygon class="st10" points="270.4,94.7 262.1,91.7 270.3,91.8 273,94.7 					"/>
					<g class="st4">
						<path d="M273.2,94.7l-2.8,0l-8.4-3l8.2,0L273.2,94.7L273.2,94.7z M262.1,91.7l8.4,2.9l2.5,0l-2.7-2.8L262.1,91.7L262.1,91.7z"
							/>
					</g>
					<polygon class="st10" points="269.6,92.3 265.6,87.3 271.5,91 272.9,94.8 					"/>
					<g class="st4">
						<path d="M273,95l-3.5-2.6l-4-5l6,3.6L273,95L273,95z M265.6,87.3l4,4.9l3.2,2.4l-1.3-3.6L265.6,87.3L265.6,87.3z"/>
					</g>
					<polygon class="st10" points="270.9,91.2 268.6,85.5 272.9,90.2 272.7,94.8 					"/>
					<g class="st4">
						<path d="M272.8,95l-1.9-3.7l-2.3-5.7l4.4,4.6L272.8,95L272.8,95z M268.6,85.6l2.4,5.6l1.7,3.3l0.2-4.3L268.6,85.6L268.6,85.6z
							"/>
					</g>
					<polygon class="st10" points="273.3,90.8 278.5,86.3 274.9,92.4 272.6,94.6 					"/>
					<g class="st4">
						<path d="M272.5,94.8l0.8-4l5.2-4.5l-3.5,6.2L272.5,94.8L272.5,94.8z M278.5,86.2l-5.1,4.6l-0.7,3.6l2.3-2L278.5,86.2
							L278.5,86.2z"/>
					</g>
					<polygon class="st10" points="274.9,91.4 281.6,90 275.7,93.8 272.5,94.6 					"/>
					<g class="st4">
						<path d="M272.4,94.7l2.5-3.4l6.8-1.3l-5.9,3.9L272.4,94.7L272.4,94.7z M281.6,90l-6.7,1.4l-2.3,3.1l3-0.8L281.6,90L281.6,90z"
							/>
					</g>
					<polygon class="st10" points="274.9,92.7 283.1,93.9 275.4,95.2 272.9,94.4 					"/>
					<g class="st4">
						<path d="M275.4,95.2l-2.5-0.7l2-1.8l8.3,1.1L275.4,95.2L275.4,95.2z M274.9,92.8l-1.9,1.7l2.5,0.6l7.7-1.3L274.9,92.8
							L274.9,92.8z"/>
					</g>
					<polygon class="st10" points="271.9,96.7 269,99.2 270.7,96.2 272.7,94.5 					"/>
					<g class="st4">
						<path d="M269.1,99.2L269.1,99.2l1.6-3l2-1.7l-0.8,2.2L269.1,99.2L269.1,99.2z M272.7,94.5l-1.9,1.7l-1.5,2.7l2.6-2.2
							L272.7,94.5L272.7,94.5z"/>
					</g>
					<polygon class="st10" points="272.2,95.2 267.8,98 271.4,94.5 273.1,93.8 					"/>
					<g class="st4">
						<path d="M267.8,98L267.8,98l3.6-3.5l1.6-0.7l-0.9,1.5L267.8,98L267.8,98z M273,93.8l-1.6,0.7l-3.3,3.2l4-2.5L273,93.8
							L273,93.8z"/>
					</g>
					<polygon class="st10" points="274.2,94.7 277.5,99.2 273.5,95.6 272.6,93.9 					"/>
					<g class="st4">
						<path d="M277.4,99.2l-3.9-3.6l-0.9-1.7l1.6,0.7L277.4,99.2L277.4,99.2L277.4,99.2z M272.6,93.9l0.9,1.7l3.6,3.3l-3-4.2
							L272.6,93.9L272.6,93.9z"/>
					</g>
					<polygon class="st10" points="271.6,93.8 267.2,89.9 271.5,92.7 272.9,94.3 					"/>
					<g class="st4">
						<path d="M273,94.4l-1.5-0.5l-4.3-3.9l4.3,2.7L273,94.4L273,94.4z M267.2,90l4.4,3.8l1.2,0.4l-1.3-1.5L267.2,90L267.2,90z"/>
					</g>
					<polygon class="st10" points="273.6,93.2 277.6,93.9 273.7,93.9 272.5,94.2 					"/>
					<g class="st4">
						<path d="M272.5,94.2L272.5,94.2l1.1-1l4,0.7l-3.9,0.1L272.5,94.2L272.5,94.2z M273.6,93.3l-1,0.9l1.1-0.3l3.9,0L273.6,93.3
							L273.6,93.3z"/>
					</g>
					<polygon class="st10" points="272.4,91.5 275.5,87.9 273.9,90.7 272.6,94.1 					"/>
					<g class="st4">
						<path d="M272.6,94.1l-0.1,0l-0.2-2.6l3.1-3.6l-1.5,2.9L272.6,94.1L272.6,94.1z M275.4,87.9l-3,3.6l0.2,2.3l1.2-3.1L275.4,87.9
							L275.4,87.9z"/>
					</g>
					<polygon class="st10" points="270.9,92.5 267.6,92.3 271.1,91.4 272.9,93.9 					"/>
					<g class="st4">
						<path d="M272.8,94l-1.9-1.4l-3.3-0.2l3.4-1L272.8,94L272.8,94L272.8,94z M271,91.4l-3.4,0.9l3.3,0.1l1.7,1.2L271,91.4
							L271,91.4z"/>
					</g>
					<polygon class="st10" points="271.5,95.7 265.8,98 270.6,95 272.7,94.4 					"/>
					<g class="st4">
						<path d="M265.8,98L265.8,98l4.7-3l2.1-0.6l-1.1,1.3L265.8,98L265.8,98z M272.6,94.4l-2.1,0.6l-4.3,2.7l5.3-2.1L272.6,94.4
							L272.6,94.4z"/>
					</g>
					<path class="st13" d="M241.8,94.4L241.8,94.4c0.3,0.1,0.5,0.3,0.4,0.5l-2.7,8.9c0,0.1-0.3,0.2-0.6,0.1h0
						c-0.3-0.1-0.5-0.3-0.4-0.5l2.7-8.9C241.3,94.3,241.5,94.3,241.8,94.4L241.8,94.4z"/>
					<g class="st4">
						<path d="M239.2,103.8l-0.3-0.1c-0.3-0.1-0.5-0.3-0.4-0.5l2.7-8.9l0.6-0.1c0.3,0.1,0.5,0.3,0.4,0.5l-2.7,8.9L239.2,103.8
							L239.2,103.8z M241.8,94.4l-0.6,0.1l-2.7,8.9c0,0.1,0.1,0.3,0.4,0.4l0.3,0.1l0.2-0.1l2.7-8.9C242.2,94.7,242,94.5,241.8,94.4
							L241.8,94.4z"/>
					</g>
					<path class="st13" d="M236.2,93.5L236.2,93.5c0.3,0,0.5,0.1,0.5,0.3v9.4c0,0.2-0.2,0.3-0.5,0.3h0c-0.3,0-0.5-0.1-0.5-0.3v-9.4
						C235.7,93.7,235.9,93.5,236.2,93.5L236.2,93.5z"/>
					<g class="st4">
						<path d="M236.2,103.5c-0.3,0-0.6-0.1-0.6-0.3v-9.4c0-0.3,1.1-0.3,1.1,0v9.4C236.8,103.3,236.5,103.5,236.2,103.5L236.2,103.5z
							 M236.2,93.6c-0.3,0-0.5,0.1-0.5,0.2v9.4c0,0.1,0.2,0.2,0.5,0.2h0c0.3,0,0.5-0.1,0.5-0.2v-9.4
							C236.7,93.7,236.5,93.6,236.2,93.6L236.2,93.6z"/>
					</g>
					<path class="st14" d="M232.9,88.5c1.3-0.4,2.3,0.4,2.7,2.2c0,0.2,0.3,0.2,0.3,0.1c-0.2-3,2.7-5.4,4.6-1.2
						c0.2,0.7-0.9-0.3-1.6-1.1c-0.9-1.1-2,0.2-2.1,3c-0.1,0.6-0.2,2-0.2,2s-1-0.1-1-0.2c0,0-0.8-3.4-2.2-3.8c-1.1-0.2-0.8,0.5-2,0.8
						c-1.2,0.1-1.1-0.1-0.3-0.4C231.9,89.8,232.4,88.7,232.9,88.5L232.9,88.5z"/>
					<g class="st4">
						<path d="M236.7,93.5L236.7,93.5c-1-0.1-1-0.2-1-0.2c-0.3-1.2-0.7-2.2-1.1-2.8c0.6,0.8,1,1.9,1.2,2.7
							C235.8,93.3,236.3,93.3,236.7,93.5c0-0.3,0.1-1.5,0.1-2c0.1-3,1.3-4,2.1-3c0.3,0.4,0.7,0.7,1,1c-0.4-0.2-0.8-0.6-1-1
							c-0.8-0.9-2,0.1-2.1,3C236.8,92.1,236.7,93.4,236.7,93.5L236.7,93.5L236.7,93.5z M236,90.8c-0.1-0.2-0.2-0.3-0.2-0.5
							c0.2-0.8,0.5-1.7,1.1-2.3c1.1-1.2,2.8-0.6,3.8,1.6c0,0-0.1,0-0.1,0c-0.9-2.3-2.5-2.8-3.6-1.6C236.2,88.6,235.9,89.7,236,90.8
							L236,90.8z M230.9,90.3c-0.1,0-0.1-0.1-0.2-0.1c0.4,0,0.5,0,0.7,0c0.6-0.1,0.8-0.3,1-0.5c0.2-0.2,0.4-0.3,0.7-0.3
							c0.1,0,0.2,0,0.3,0.1c-0.6,0-0.8,0.1-0.9,0.3c-0.2,0.2-0.5,0.4-1.1,0.5C231.2,90.3,231,90.3,230.9,90.3L230.9,90.3z
							 M230.7,90.1c0-0.1,0.2-0.2,0.5-0.3c0.4,0,0.8-0.4,1.1-0.8c0.2-0.3,0.4-0.5,0.6-0.6c0.9-0.3,1.7,0,2.2,0.9
							c-0.6-0.8-1.3-1.1-2.2-0.8c-0.2,0.1-0.4,0.3-0.6,0.5c-0.3,0.4-0.7,0.8-1.1,0.8C230.9,90,230.7,90.1,230.7,90.1L230.7,90.1z"/>
					</g>
					<path class="st14" d="M233.2,90.2c1.3-0.3,2.3,0.6,2.6,2.3c0,0.2,0.3,0.2,0.3,0.2c-0.1-3,4.1-3.1,5.8,1.2
						c0.1,0.7-0.1,0.6-0.8-0.2c-0.8-1.1-3.9-3.1-4.1-0.3c-0.1,0.6-0.3,2-0.3,2s-1-0.2-1-0.2c0,0-0.6-3.5-2-3.9
						c-1-0.2-1.4,0.7-2.6,0.9c-1.2,0-1.1-0.1-0.2-0.5C231,91.7,232.7,90.3,233.2,90.2L233.2,90.2z"/>
					<g class="st4">
						<path d="M236.7,95.4L236.7,95.4c-1-0.2-1-0.2-1-0.3c-0.3-1.4-0.7-2.5-1.2-3.2c0.5,0.7,0.9,1.7,1.2,3
							C235.8,95.2,236.3,95.3,236.7,95.4c0-0.3,0.1-1.4,0.2-2c0.1-1.2,0.7-1.4,1.2-1.4c1,0,2.4,1,2.9,1.7c0.4,0.6,0.6,0.6,0.7,0.6
							c0.1-0.1,0.1-0.1,0-0.4c-1.4-3.6-4.1-3.9-5.2-2.8c-0.4,0.4-0.6,0.9-0.5,1.6c-0.1-0.2-0.1-0.3-0.2-0.4c0.2-0.4,0.4-0.8,0.7-1.2
							c1.1-1.1,3.8-0.9,5.2,2.8c0.1,0.2,0.1,0.4,0,0.5c-0.2,0-0.5-0.2-0.8-0.6c-0.5-0.7-1.9-1.7-2.9-1.7c-0.7,0-1.1,0.5-1.2,1.4
							C236.9,94,236.7,95.4,236.7,95.4L236.7,95.4L236.7,95.4z M231,92.2c-0.8,0-0.8-0.1-0.9-0.1c0-0.1,0.1-0.2,0.7-0.4
							c0.1,0,0.4-0.2,0.7-0.5c0.6-0.4,1.3-0.9,1.6-1c0.9-0.2,1.7,0.2,2.2,1c-0.6-0.8-1.3-1.2-2.2-1c-0.3,0.1-1.1,0.6-1.6,1
							c-0.4,0.3-0.7,0.5-0.8,0.5c-0.6,0.2-0.6,0.3-0.6,0.3c0,0,0,0.1,0.6,0.1c0.8-0.1,1.2-0.3,1.5-0.6c0.3-0.2,0.6-0.4,1-0.4
							c0.1,0,0.2,0.1,0.3,0.1c-0.7,0-0.9,0.2-1.3,0.4C232,91.9,231.6,92.1,231,92.2C231,92.2,231,92.2,231,92.2L231,92.2z"/>
					</g>
					<path class="st14" d="M233.5,92.2c1.3-0.2,2.2,0.8,2.4,2.6c0,0.2,0.3,0.2,0.3,0.2c0.2-3,2.8-1.3,3.9,2.7
						c0.1,0.4-0.8-0.4-1.4-1.3c-0.7-1.2-1.3-3.3-1.7-0.6c-0.2,0.6-0.4,1.9-0.4,1.9s-0.9-0.3-1-0.3c0,0-0.4-3.5-1.7-4.1
						c-1-0.3-1.6,2.4-2.9,2.5c-1.2-0.1-1.1-0.2-0.2-0.5C231,95.3,233,92.3,233.5,92.2L233.5,92.2z"/>
					<g class="st4">
						<path d="M240.1,97.8c-0.2,0-1-0.8-1.4-1.4c-0.2-0.3-0.3-0.6-0.4-0.9c-0.5-1-0.9-1.6-1.2,0.2c-0.2,0.6-0.4,1.9-0.4,1.9
							c-1-0.3-1-0.3-1-0.3c-0.3-2-0.8-3.3-1.4-3.9c0.7,0.6,1.2,1.9,1.4,3.7c0.1,0.1,0.6,0.3,0.9,0.4c0,0,0.2-1.3,0.4-1.9
							c0.3-1.9,0.8-1.4,1.3-0.3c0.1,0.3,0.3,0.6,0.4,0.9C239.2,97.1,240,97.8,240.1,97.8L240.1,97.8L240.1,97.8
							c-1.1-4.4-3.7-5.5-3.9-2.9c0-0.2-0.1-0.4-0.2-0.5c0.3-0.6,0.6-1,1.1-1c0.9,0,2.3,1.6,3,4.3L240.1,97.8L240.1,97.8z M231,95.8
							c-0.8-0.1-0.9-0.1-0.9-0.2c0-0.1,0.1-0.2,0.7-0.3c0.1,0,0.4-0.5,0.8-1c0.7-0.9,1.6-2.1,1.9-2.1c0.3,0,0.5,0,0.7,0.1
							c-0.1,0-0.3,0-0.4,0c-0.6,0.1-1.5,1.3-2.2,2.1c-0.5,0.7-0.8,1-0.8,1c-0.6,0.2-0.7,0.3-0.7,0.3C230.2,95.6,230.3,95.7,231,95.8
							c0.6-0.1,1.1-0.8,1.5-1.4c0.4-0.6,0.8-1.1,1.2-1.1c0.1,0.1,0.3,0.1,0.4,0.2c-0.1-0.1-0.2-0.1-0.2-0.1
							c-0.7-0.2-0.9,0.5-1.3,1.1C232.2,95.1,231.7,95.8,231,95.8L231,95.8z"/>
					</g>
					<path class="st13" d="M228.6,93.6L228.6,93.6c0.3-0.1,0.5-0.1,0.6,0.1l3,8.9c0,0.1-0.1,0.3-0.4,0.4h0c-0.3,0.1-0.5,0.1-0.6-0.1
						l-3-8.9C228.1,93.9,228.3,93.7,228.6,93.6L228.6,93.6z"/>
					<g class="st4">
						<path d="M231.5,103l-0.3-0.2l-3.1-8.9c0.1-0.3,0.2-0.4,0.4-0.5l0.6,0.1l3.1,8.9c0.1,0.2-0.1,0.4-0.4,0.5L231.5,103L231.5,103z
							 M228.6,93.6L228.6,93.6c-0.2,0.1-0.3,0.2-0.4,0.3l3,9l0.3,0.1l0.3-0.1c0.3-0.1,0.4-0.3,0.4-0.4l-3.1-8.9L228.6,93.6
							L228.6,93.6z"/>
					</g>
					<path class="st14" d="M229.5,87.9c-1.4,0.1-2,1.3-1.7,3c0.1,0.1-0.2,0.3-0.2,0.2c-0.9-2.8-4-2.7-4.1,1.8c0.1,0.7,0.7-0.6,1-1.6
						c0.4-1.3,1.3-1.8,2.5,0.7c0.3,0.5,0.9,1.8,0.9,1.8s0.8-0.5,0.8-0.5c0,0-0.6-3.5,0.6-4.3c0.9-0.6,1-0.5,2.2-0.8
						c1.1-0.3,1-0.5,0.1-0.5C231.5,87.8,230,87.9,229.5,87.9L229.5,87.9z"/>
					<g class="st4">
						<path d="M227.9,93.9L227.9,93.9c0,0-0.6-1.2-0.9-1.8c-0.7-1.5-1.2-1.8-1.5-1.8c-0.4,0-0.7,0.4-0.9,1c-0.2,0.5-0.7,1.8-1,1.8
							c0-0.1,0-0.1,0-0.2c0.2,0,0.6-0.7,0.9-1.6c0.5-1.6,1.6-1.4,2.5,0.7C227.3,92.6,227.8,93.7,227.9,93.9c0.3-0.3,0.8-0.5,0.8-0.6
							c-0.3-2.4-0.1-3.8,0.6-4.3c0.9-0.5,1-0.5,2-0.7c1-0.3,1-0.4,1-0.4c0,0-0.1-0.1-0.7-0.1c-0.1,0-1.2,0.1-1.8,0.1
							c-0.9,0.1-1.3,0.3-1.6,0.7c-0.4,0.5-0.5,1.3-0.4,2.3c-0.1-0.1-0.1-0.2-0.2-0.3c0-1,0.2-1.6,0.5-2.1c0.3-0.4,0.8-0.6,1.3-0.7
							c1,0,2-0.1,2.2-0.1c0.7,0,0.8,0.1,0.8,0.2c0,0.1-0.1,0.2-0.8,0.4c-1.3,0.2-1.4,0.2-2.2,0.8c-0.7,0.5-0.9,2-0.6,4.2
							C228.8,93.4,228.8,93.4,227.9,93.9L227.9,93.9L227.9,93.9z M223.9,90.8c0.7-2,2.1-1.8,2.9-1C225.9,89.1,224.6,89,223.9,90.8
							L223.9,90.8z"/>
					</g>
					<path class="st14" d="M229.9,89.6c-1.3,0.2-1.9,1.4-1.5,3.1c0.1,0.1-0.2,0.3-0.2,0.3c-1.1-2.8-4.1-2.5-3.9,2.1
						c0.1,0.7,0.7-0.7,0.9-1.7c0.3-1.3,1.2-1.9,2.5,0.6c0.3,0.5,1,1.7,1,1.7s0.8-0.5,0.8-0.6c0,0-0.8-3.4,0.4-4.4
						c0.9-0.6,0.9-0.6,2.2-0.9c1.1-0.4,1-0.6,0-0.5C231.9,89.4,230.4,89.5,229.9,89.6L229.9,89.6z"/>
					<g class="st4">
						<path d="M228.7,95.7L228.7,95.7c0,0-0.7-1.2-1-1.7c-0.7-1.4-1.3-1.7-1.6-1.7c-0.4,0-0.7,0.4-0.9,1.1c-0.1,0.5-0.6,1.9-0.9,1.9
							c0-0.1,0-0.1,0-0.2c0.2,0,0.6-0.8,0.8-1.7c0.4-1.6,1.5-1.5,2.5,0.6C228,94.5,228.6,95.5,228.7,95.7c0.3-0.3,0.8-0.6,0.8-0.6
							c-0.3-1.4-0.5-3.6,0.4-4.4c0.8-0.6,0.9-0.6,2-0.9c0.9-0.3,1-0.4,1-0.5c0,0,0-0.1-0.5-0.1c-0.4,0-1.9,0.2-2.4,0.3
							c-0.6,0.1-1,0.3-1.2,0.7c-0.4,0.5-0.5,1.4-0.2,2.4c-0.1-0.1-0.2-0.2-0.2-0.3c0-1,0.1-1.7,0.4-2.1c0.3-0.4,0.7-0.7,1.3-0.8
							c0.5-0.1,2-0.2,2.2-0.3c0.7,0,0.8,0.1,0.8,0.1c0,0.1-0.1,0.2-0.8,0.5c-1.3,0.3-1.3,0.3-2.2,0.9c-0.9,0.7-0.6,3-0.4,4.3
							C229.5,95.1,229.5,95.2,228.7,95.7L228.7,95.7L228.7,95.7z M224.3,93.9c0.1-1,0.3-1.8,0.8-2.2c0.6-0.7,1.6-0.6,2.3,0.1
							c-0.8-0.6-1.6-0.7-2.3,0C224.7,92.2,224.4,92.9,224.3,93.9L224.3,93.9z"/>
					</g>
					<path class="st14" d="M230.4,91.6c-1.3,0.3-1.8,1.6-1.2,3.3c0.1,0.1-0.2,0.3-0.2,0.3c-1.3-2.7-4.2-2.1-3.8,2.5
						c0.2,0.7,0.6-0.7,0.8-1.7c0.2-1.4,1.1-2,2.5,0.3c0.4,0.5,1.1,1.6,1.1,1.6s0.8-0.6,0.8-0.7c0,0-1-3.4,0-4.4
						c0.8-0.7,0.9-0.7,2.1-1.1c1.1-0.5,0.9-0.6,0-0.5C232.3,91.2,230.9,91.5,230.4,91.6L230.4,91.6z"/>
					<g class="st4">
						<path d="M229.6,97.9L229.6,97.9c0,0-0.8-1.2-1.2-1.6c-0.8-1.3-1.3-1.5-1.7-1.5c-0.4,0-0.7,0.4-0.8,1.2c0,0-0.4,1.9-0.7,1.9
							c0-0.1,0-0.1,0-0.2c0.2,0,0.5-0.8,0.7-1.8c0.2-1.6,1.3-1.6,2.6,0.3C228.8,96.7,229.5,97.6,229.6,97.9c0.3-0.3,0.7-0.7,0.7-0.7
							c-0.4-1.3-0.8-3.6,0-4.4c0.8-0.7,0.9-0.7,1.9-1c0.6-0.3,0.8-0.4,0.9-0.5c0,0.1-0.2,0.2-0.6,0.4c-1.2,0.4-1.3,0.4-2.1,1.1
							c-0.6,0.6-0.6,2.2,0,4.3C230.4,97.2,230.4,97.2,229.6,97.9L229.6,97.9L229.6,97.9z M225.1,96.4c0-1.1,0.2-1.9,0.7-2.4
							c0.6-0.7,1.6-0.7,2.3,0c-0.8-0.5-1.7-0.6-2.3,0C225.4,94.6,225.2,95.4,225.1,96.4L225.1,96.4z M229.1,94.9
							c-0.1-0.1-0.2-0.2-0.2-0.2c-0.1-1,0-1.7,0.3-2.2c0.2-0.4,0.6-0.7,1.2-0.9c0.5-0.1,2-0.4,2.1-0.4c0.2,0,0.4,0,0.5,0
							c0.1,0,0.1,0.1,0.1,0.1c-0.3,0-0.4,0-0.6,0c-0.2,0.1-1.6,0.3-2.1,0.4c-0.5,0.1-0.9,0.4-1.2,0.9
							C228.9,93.1,228.8,93.9,229.1,94.9L229.1,94.9z"/>
					</g>
					<path class="st14" d="M240.7,87.3c1.3,0.1,2,1.2,1.9,3c0,0.2,0.2,0.3,0.2,0.2c0.7-2.9,4.2-4.1,4.7,0.6c0,0.7-0.7-0.6-1.1-1.6
						c-0.5-1.3-2-0.5-2.9,2c-0.3,0.6-0.8,1.8-0.8,1.8s-0.9-0.5-0.9-0.5c0,0,0.3-3.5-0.9-4.4c-0.9-0.5-0.9,0.2-2.1,0
						c-1.1-0.3-1.1-0.5-0.1-0.5C239.4,88.1,240.2,87.2,240.7,87.3L240.7,87.3z"/>
					<g class="st4">
						<path d="M242.8,93.4L242.8,93.4c-0.9-0.5-0.9-0.5-0.9-0.6c0.1-1.1,0.1-3.6-0.9-4.3c-0.2-0.1-0.4-0.2-0.6-0.2
							c-0.8,0.2-0.9,0.3-1.5,0.2c-0.8-0.2-0.9-0.3-0.9-0.4c0-0.1,0.1-0.1,0.8-0.2c0.6,0,1-0.2,1.3-0.3c0.3-0.2,0.5-0.3,0.8-0.3
							c0.9,0.1,1.5,0.6,1.8,1.5c-0.4-0.9-0.9-1.4-1.8-1.5l0,0c-0.2,0-0.5,0.1-0.7,0.3c-0.3,0.2-0.7,0.4-1,0.4l0,0
							c-0.9,0-1,0.1-1,0.1c0,0,0,0.1,0.8,0.3c0.6,0.1,0.9,0,1.1-0.1l0,0l0.4-0.1c0.2,0,0.4,0.1,0.6,0.2c1,0.7,1,3,0.9,4.3
							C241.9,92.8,242.4,93.1,242.8,93.4c0-0.3,0.5-1.3,0.7-1.9c1-2.8,2.5-3.2,2.9-2c0.2,0.5,0.5,1,0.7,1.4c-0.3-0.4-0.6-1-0.7-1.3
							c-0.4-1.2-1.8-0.8-2.8,2C243.3,92.1,242.8,93.3,242.8,93.4L242.8,93.4L242.8,93.4z M247.5,91.1
							C247.5,91.1,247.5,91.1,247.5,91.1c-0.2-2-1-3.1-2.1-3.1c-1.1,0-2.2,1.1-2.5,2.5c0-0.2,0-0.4-0.1-0.6c0.6-1.1,1.6-2,2.6-2
							C246.6,88,247.4,89.2,247.5,91.1C247.6,91.1,247.5,91.1,247.5,91.1L247.5,91.1z"/>
					</g>
					<path class="st14" d="M240.5,89c1.3,0.2,2,1.4,1.7,3.2c-0.1,0.2,0.2,0.3,0.2,0.3c0.9-2.8,4.8-1.3,5,3.3
						c-0.1,0.7-0.3,0.5-0.7-0.5c-0.4-1.3-2.7-4.3-3.8-1.8c-0.3,0.5-0.9,1.7-0.9,1.7s-0.8-0.5-0.8-0.6c0,0,0.5-3.5-0.7-4.4
						c-0.9-0.6-1.5,0.2-2.8-0.1c-1.1-0.4-1-0.5-0.1-0.5C237.9,89.5,239.9,88.9,240.5,89L240.5,89z"/>
					<g class="st4">
						<path d="M247.3,96.2c-0.1,0-0.3-0.3-0.5-0.9c-0.3-1-1.6-2.8-2.6-2.8c-0.4,0-0.8,0.3-1.1,0.9c-0.3,0.5-0.9,1.7-0.9,1.7
							c-0.9-0.5-0.9-0.6-0.9-0.6c0.1-1.4,0.2-3.7-0.7-4.4c-0.4-0.3-0.9-0.3-1.3-0.2c-0.4,0.1-0.9,0.2-1.4,0
							c-0.8-0.3-0.8-0.4-0.8-0.5c0-0.1,0.3-0.1,0.6-0.1c0.3,0,0.6-0.1,1-0.2c0.6-0.2,1.4-0.4,1.8-0.4c0.9,0.1,1.6,0.7,1.8,1.6
							c-0.3-0.9-0.9-1.4-1.7-1.6h0c-0.4,0-1.2,0.2-1.8,0.4c-0.4,0.1-0.8,0.2-0.9,0.2l0,0c-0.7,0.1-0.7,0.1-0.7,0.1
							c0,0,0,0.1,0.8,0.4c0.5,0.1,1,0,1.4,0c0.5-0.1,1-0.1,1.4,0.2c0.9,0.7,0.8,3,0.7,4.3c0,0.1,0.5,0.4,0.8,0.6
							c0,0,0.6-1.2,0.8-1.7c0.3-0.6,0.6-1,1.1-1c1.1,0,2.4,1.9,2.7,2.8C247.1,96,247.2,96.1,247.3,96.2c0-0.1,0.1-0.1,0.1-0.5
							c-0.1-2.9-1.8-4.7-3.3-4.7c-0.8,0-1.4,0.5-1.7,1.4c0-0.2,0-0.4,0-0.5c0.4-0.5,1-0.9,1.7-0.9c1.5,0,3.2,1.8,3.3,4.8
							C247.4,96,247.4,96.2,247.3,96.2L247.3,96.2z"/>
					</g>
					<path class="st14" d="M240.2,91c1.3,0.3,1.9,1.5,1.5,3.3c-0.1,0.1,0.2,0.3,0.2,0.3c1.1-2.7,3.1-0.2,2.8,4
						c0,0.5-0.6-0.7-0.9-1.8c-0.3-1.4-0.2-3.6-1.4-1.2c-0.3,0.5-1,1.7-1,1.7s-0.8-0.6-0.8-0.7c0,0,0.7-3.4-0.4-4.5
						c-0.9-0.7-2.3,1.6-3.5,1.2c-1.1-0.5-1-0.6,0-0.5C236.8,93,239.6,90.9,240.2,91L240.2,91z"/>
					<g class="st4">
						<path d="M244.7,98.8c-0.2,0-0.7-1-0.9-1.9c-0.1-0.3-0.1-0.7-0.2-1c-0.2-1.1-0.4-1.8-1.2-0.2c-0.3,0.5-1,1.7-1,1.7
							c-0.9-0.6-0.9-0.6-0.9-0.7c0.1-0.7,0.3-1.7,0.2-2.6c0.1,0.9,0,1.9-0.2,2.6c0,0.1,0.5,0.5,0.8,0.7c0,0,0.6-1.2,1-1.6
							c0.9-1.7,1.1-1,1.3,0.2c0,0.3,0.1,0.7,0.2,1C244,97.8,244.6,98.7,244.7,98.8L244.7,98.8l0-0.1c0.1-2.4-0.4-4.1-1.1-4.8
							c-0.6-0.6-1.3-0.4-1.7,0.8c0-0.2,0-0.4,0-0.6c0.8-0.9,1.3-0.8,1.7-0.3c0.6,0.7,1.2,2.4,1.1,4.8L244.7,98.8L244.7,98.8z
							 M237,93.5c-0.1,0-0.2-0.1-0.3-0.1c0.8,0,1.3-0.3,1.8-0.7c0.5-0.3,0.9-0.7,1.3-0.7c0.1,0,0.1,0.1,0.2,0.2
							c-0.6,0-1,0.2-1.4,0.5C238.1,93.1,237.5,93.5,237,93.5L237,93.5z M236.6,93.4c-0.6-0.3-0.7-0.4-0.7-0.4
							c0.4-0.1,0.6-0.1,0.8-0.1l0,0c0.1,0,0.5-0.3,1-0.6c0.9-0.6,2-1.3,2.4-1.3c0.9,0.2,1.5,0.8,1.6,1.8c-0.2-0.9-0.8-1.5-1.6-1.7
							l0,0c-0.4,0-1.6,0.7-2.4,1.3c-0.6,0.4-1,0.6-1.1,0.6c-0.2,0-0.4,0-0.5,0C236,93,236,93.1,236.6,93.4L236.6,93.4z"/>
					</g>
					<g class="st4">
						<path d="M255.1,148.2l-0.1-0.1c-19.3-8.1-31.5-18.2-32.3-43.2V62.5h64.2V105c0,21-8.9,33.1-31.6,43.2L255.1,148.2L255.1,148.2
							z M223.4,63.2V105c0.8,24.7,12.2,34.3,31.7,42.5c22.4-9.9,31.1-21.9,31.1-42.5V63.2H223.4L223.4,63.2z"/>
					</g>
				</g>
			</g>
		</g>
		<rect x="-11.5" y="-30" class="st15" width="324" height="335"/>
		<g class="st0">
			<g>
				<defs>
					<rect id="SVGID_7_" x="-72" y="20.5" width="444" height="259"/>
				</defs>
				<clipPath id="SVGID_8_">
					<use xlink:href="#SVGID_7_"  style="display:none;overflow:visible;"/>
				</clipPath>
				<g class="st16">
					<defs>
						<rect id="SVGID_9_" x="-72" y="20.5" width="444" height="259"/>
					</defs>
					<clipPath id="SVGID_10_">
						<use xlink:href="#SVGID_9_"  style="display:none;overflow:visible;"/>
					</clipPath>
					<path class="st17" d="M33.3,78.9c-0.2,4.8-0.7,9.5-1.4,14.1c-0.2,1.5-0.5,3-0.8,4.4c2.9-0.4,5.8-0.5,8.8-0.5
						c3,0,5.9,0.2,8.8,0.5C48.5,96,48.2,94.5,48,93c-0.7-4.6-1.2-9.3-1.4-14.1c6.3,0.3,12.5,1,18.5,2.2c-0.4-2.9-0.5-5.8-0.5-8.8
						c0-3,0.2-5.9,0.5-8.8c-6,1.1-12.2,1.9-18.5,2.2c0.3-6.3,1-12.5,2.2-18.5c-2.9,0.4-5.8,0.5-8.8,0.5c-3,0-5.9-0.2-8.8-0.5
						c1.1,6,1.9,12.2,2.2,18.5c-6.3-0.3-12.5-1.1-18.5-2.2c0.4,2.9,0.5,5.8,0.5,8.8c0,3-0.2,5.9-0.5,8.8C20.8,80,27,79.2,33.3,78.9"
						/>
					<path class="st17" d="M253.4,78.9c-0.2,4.8-0.7,9.5-1.4,14.1c-0.2,1.5-0.5,3-0.8,4.4c2.9-0.4,5.8-0.5,8.8-0.5
						c3,0,5.9,0.2,8.8,0.5c-0.3-1.5-0.5-2.9-0.8-4.4c-0.7-4.6-1.2-9.3-1.4-14.1c6.3,0.3,12.5,1,18.5,2.2c-0.4-2.9-0.5-5.8-0.5-8.8
						c0-3,0.2-5.9,0.5-8.8c-6,1.1-12.2,1.9-18.5,2.2c0.3-6.3,1.1-12.5,2.2-18.5c-2.9,0.4-5.8,0.5-8.8,0.5c-3,0-5.9-0.2-8.8-0.5
						c1.1,6,1.9,12.2,2.2,18.5c-6.3-0.3-12.5-1.1-18.5-2.2c0.4,2.9,0.5,5.8,0.5,8.8c0,3-0.2,5.9-0.5,8.8
						C241,80,247.1,79.2,253.4,78.9"/>
					<path class="st17" d="M46.6,221.1c0.2-4.8,0.7-9.5,1.4-14.1c0.2-1.5,0.5-3,0.8-4.4c-2.9,0.4-5.8,0.5-8.8,0.5
						c-3,0-5.9-0.2-8.8-0.5c0.3,1.5,0.5,2.9,0.8,4.4c0.7,4.6,1.2,9.3,1.4,14.1c-6.3-0.3-12.5-1-18.5-2.2c0.4,2.9,0.5,5.8,0.5,8.8
						c0,3-0.2,5.9-0.5,8.8c6-1.1,12.2-1.9,18.5-2.2c-0.3,6.3-1,12.5-2.2,18.5c2.9-0.4,5.8-0.6,8.8-0.6c3,0,5.9,0.2,8.8,0.6
						c-1.1-6-1.9-12.2-2.2-18.5c6.3,0.3,12.5,1.1,18.5,2.2c-0.4-2.9-0.5-5.8-0.5-8.8c0-3,0.2-5.9,0.5-8.8
						C59,220,52.9,220.8,46.6,221.1"/>
					<path class="st17" d="M266.7,221.1c0.2-4.8,0.7-9.5,1.4-14.1c0.2-1.5,0.5-3,0.8-4.4c-2.9,0.4-5.8,0.5-8.8,0.5
						c-3,0-5.9-0.2-8.8-0.5c0.3,1.5,0.5,2.9,0.8,4.4c0.7,4.6,1.2,9.3,1.4,14.1c-6.3-0.3-12.5-1-18.5-2.2c0.4,2.9,0.5,5.8,0.5,8.8
						c0,3-0.2,5.9-0.5,8.8c6-1.1,12.2-1.9,18.5-2.2c-0.3,6.3-1,12.5-2.2,18.5c2.9-0.4,5.8-0.6,8.8-0.6c3,0,5.9,0.2,8.8,0.6
						c-1.1-6-1.9-12.2-2.2-18.5c6.3,0.3,12.5,1.1,18.5,2.2c-0.4-2.9-0.5-5.8-0.5-8.8c0-3,0.2-5.9,0.5-8.8
						C279.2,220,273,220.8,266.7,221.1"/>
					<rect x="123.9" y="-14.5" class="st17" width="52.2" height="329"/>
					<rect x="-72" y="123.9" class="st17" width="444" height="52.2"/>
				</g>
			</g>
		</g>
		<g class="st0">
			<g>
				<defs>
					<rect id="SVGID_11_" x="-107.6" y="-0.3" width="515.3" height="300.6"/>
				</defs>
				<clipPath id="SVGID_12_">
					<use xlink:href="#SVGID_11_"  style="overflow:visible;"/>
				</clipPath>
				<rect x="-107.6" y="-0.3" class="st18" width="515.3" height="100.2"/>
				<rect x="-107.6" y="99.9" class="st19" width="515.3" height="100.2"/>
				<rect x="-107.6" y="200.1" class="st20" width="515.3" height="100.2"/>
				<g class="st18">
					<defs>
						<rect id="SVGID_13_" x="-107.6" y="-0.3" width="515.3" height="300.6"/>
					</defs>
					<clipPath id="SVGID_14_">
						<use xlink:href="#SVGID_13_"  style="overflow:visible;"/>
					</clipPath>
					<path class="st21" d="M78.7,70.9v120.3c0,45,60.5,39.6,71.3,57.6c10.8-18,71.3-12.6,71.3-57.6V70.9H78.7z"/>
					<g class="st22">
						<path d="M150,249.7l-0.4-0.6c-3.8-6.4-14-9.7-25.7-13.6c-20.3-6.7-45.6-15.1-45.6-44.2V70.4h143.5v120.8
							c0,29.1-25.3,37.5-45.6,44.2c-11.8,3.9-21.9,7.3-25.7,13.6L150,249.7L150,249.7z M79.1,71.3v119.9c0,28.4,23.9,36.4,45,43.4
							c11.6,3.8,21.6,7.2,25.8,13.4c4.2-6.3,14.3-9.6,25.9-13.4c21.1-7,45-14.9,45-43.4V71.3H79.1L79.1,71.3z"/>
					</g>
					<path class="st22" d="M145.3,88.2c0.7,3.6-0.7,12.2-2.5,15.1c-1.8,2.9-6.5,8.3-6.8,13.7c-1.8,27,8.3,66.3,14,94.4
						c5.8-28.1,15.9-67.4,14.1-94.4c-1.8-27-5.4-34.2-5.4-34.2L145.3,88.2z"/>
					<path class="st23" d="M146.8,92.1c-6.7-0.5-12.4-1.8-16.9-4c1.9,2.4,6.2,4.3,13,5.8L146.8,92.1z"/>
					<g class="st22">
						<path d="M142.8,93.7c-6.8-1-11.2-3-13.2-5.4c4.8,1.8,10.4,3.1,17.1,3.6l0,0.4c-6.7-0.5-12.4-1.8-17-4
							C131.9,90.4,136.2,92.3,142.8,93.7L142.8,93.7z"/>
					</g>
					<path class="st23" d="M144.6,77.4c-10.8-5.4-17.3,0.7-10.1,10.5c0.7-1.8,7.6-4.3,10.8,4.3c-1.7,1-5.6,1.1-11.9,0.4
						c3.2,2.5,13,2.9,14.8,1.8c1.8-1.1-3.2-10.1-3.2-10.1L144.6,77.4z"/>
					<g class="st22">
						<path d="M144.1,95.1c-3.7,0-8.6-0.7-10.8-2.4c6.4,0.3,10.3,0.2,11.9-0.7c-2-4.9-5.1-5.7-6.8-5.7c0,0,0,0-0.1,0
							c-1.9,0-3.4,1-3.7,1.6c-3.6-4.4-4.4-8.4-2.3-10.8c2.2-2.6,6.9-2.6,12.3,0.1l-0.2,0.4c-5.1-2.6-9.8-2.6-11.8-0.2
							c-1.9,2.3-1.2,6.1,2,10.3c0-0.9,1.8-1.9,3.7-1.9c1.8,0,5.1,0.9,7.1,6.3c-1.8,1.3-5.8,1.4-12.1,0.7c3.3,2,12.9,2.4,14.7,1.4
							c1.2-0.7-1.4-6.4-3.3-9.8c1.3,1.3,5.4,9,3.6,10.2C147.7,94.9,146,95.1,144.1,95.1L144.1,95.1z"/>
					</g>
					<path class="st22" d="M157.9,84.9c1.8-0.4,4.7-1.4,6.8-3.6c-4,0-11.2-2.2-14.1-3.6c-2.9-1.4-7.9-4.7-7.9,1.4
						c0,6.1,6.5,10.8,5.4,15.8L157.9,84.9z"/>
					<path class="st24" d="M148.9,81c0,0-3.6-1.8-4.3-2.5c-0.7-0.7-1.8,4,1.4,5.4C146.5,82.6,147.5,81.7,148.9,81L148.9,81z"/>
					<path class="st22" d="M146.4,78.8c-1.7,0.5-2,1.8-1.1,4c0.2-1.7,1.4-2.8,3.6-3.2L146.4,78.8z"/>
					<path class="st22" d="M165.9,127.8v42.5l48.3,39.6V104.4c0-8.2-1.7-13.7-5-16.6v22L165.9,127.8z"/>
					<g class="st22">
						<polygon class="st25" points="175.5,205.2 174.2,205.2 174.2,115.2 175.5,115.2 175.5,205.2 						"/>
					</g>
					<g class="st22">
						<polygon class="st25" points="185.6,205.2 184.3,205.2 184.3,115.2 185.6,115.2 185.6,205.2 						"/>
					</g>
					<g class="st22">
						<polygon class="st25" points="195.7,205.2 194.3,205.2 194.3,115.2 195.7,115.2 195.7,205.2 						"/>
					</g>
					<g class="st22">
						<polygon class="st25" points="205.8,205.2 204.4,205.2 204.4,115.2 205.8,115.2 205.8,205.2 						"/>
					</g>
					<path class="st22" d="M156.5,135.7c32.4,0,46.1-10.5,53-18.4V88.2c3.6-1,5.5-3.6,5.8-7.9c-10.1,8.3-25.9-11.2-35.3,9
						c5,10.1,15.1,9,18.7,3.2c7.2,6.1,1.4,29.2-42.1,28.8V135.7z"/>
					<path class="st23" d="M168.4,206.3c-2.5,3.2-0.4,6.1,1.8,7.2c-0.7-2.2-0.4-4.2,1.1-6.1L168.4,206.3z"/>
					<g class="st22">
						<path d="M170.4,213.4c-1.5-0.3-2.9-1.6-3.3-3.3c-0.3-1.3,0.1-2.7,1.1-4l0.4,0.3c-0.9,1.2-1.3,2.4-1,3.6
							c0.4,1.6,1.6,2.7,2.7,3.2c-1.1-2-0.7-4.1,0.8-6.1C170,209.4,169.7,211.3,170.4,213.4L170.4,213.4z"/>
					</g>
					<path class="st23" d="M181,218.6c0.2,1.4-0.5,3.2-2.2,5.4c4.3-1.1,6.1-2.5,4.7-5L181,218.6z"/>
					<g class="st22">
						<path d="M178.9,224.2c1.4-2.4,2.1-4.2,1.9-5.6l0.4-0.1c0.3,1.5-0.5,3.4-2.2,5.6c2.6-1.1,4.2-1.9,4.6-3
							c0.3-0.6,0.1-1.3-0.3-2.1c0.9,0.7,1.1,1.6,0.7,2.3C183.5,222.5,181.9,223.4,178.9,224.2L178.9,224.2z"/>
					</g>
					<path class="st23" d="M195.4,213.2c0.7,1.7,0.8,3.6,0.4,5.8c3.2-2.9,4.3-6.8,1.8-7.6L195.4,213.2z"/>
					<g class="st22">
						<path d="M195.9,219.1c0.1-2.3,0-4.2-0.7-5.9l0.4-0.2c0.7,1.7,0.9,3.7,0.4,5.9c1.8-2.1,3-4.6,2.7-6.2c-0.1-0.6-0.5-1-1.2-1.2
							c0.9-0.2,1.4,0.3,1.6,1.1C199.5,214.4,198.2,217.1,195.9,219.1L195.9,219.1z"/>
					</g>
					<path class="st23" d="M195,200.2c1.2,0.2,2.4,1.5,3.6,3.6c0.4-4-0.4-6.1-4-6.8L195,200.2z"/>
					<g class="st22">
						<path d="M198.9,203.8c-1.6-2-2.7-3.2-3.9-3.4l0.1-0.4c1.3,0.3,2.5,1.5,3.8,3.7c0-4.2-1-5.9-4.2-6.5
							C198.6,197.5,199.2,200,198.9,203.8L198.9,203.8z"/>
					</g>
					<path class="st23" d="M163.3,188.3l16.9,15.5c0,0-6.5,1.4-9,1.4s-4.7,0.7-4,1.4c0.7,0.7,2.2,0.7,2.9,1.8
						c0.7,1.1,1.8,2.5,3.2,1.1c1.4-1.5,6.5-2.9,6.5-2.9s0,8.3-0.4,9.4c-0.4,1.1-1.4,3.2-0.7,3.2c0.7,0,0.7-0.4,3.6,0
						c2.9,0.4,2.5,1.1,1.8-3.2c-0.7-4.3-0.4-9-0.4-9s6.5,4.3,8.6,7.2c2.2,2.9,1.8,0.7,2.9-0.4c1.1-1.1,2.5-1.4,3.6-1.8
						c1.1-0.4-2.9-1.4-4-2.2c-1.1-0.7-9.4-5.4-9.4-5.4s4.7-1.4,7.6-1.8c2.9-0.4,2.9-0.4,2.5-1.8c-0.4-1.4,0-2.9,0-3.6
						c0-0.7-0.4-1.4-2.2,0c-1.8,1.4-10.1,5-10.1,5l-14-18.7L163.3,188.3z"/>
					<g class="st22">
						<path d="M184.3,219.8c-0.2,0-0.5,0-0.8-0.1l-1.1-0.2c-2-0.3-2.6-0.1-3-0.1l-0.9-0.1c-0.3-0.4,0-1.2,0.5-2.4l0.3-0.9
							c0.3-0.9,0.3-6.9,0.3-9.3c-0.2,0.3-4.8,1.7-6.1,3c-0.5,0.5-0.9,0.7-1.5,0.7c-0.9-0.1-1.5-0.9-2.1-1.8c-0.4-0.6-1-0.8-1.6-1.1
							c-0.5-0.2-0.9-0.4-1.3-0.7l-0.1-0.1l-0.1-0.5c0.3-0.8,2.4-1.2,4.3-1.2c2.5,0,8.9-1.4,9-1.4l-17-15.1l0.3-0.3l16.9,15.5
							c-0.4,0.4-6.6,1.8-9.2,1.8c-2.2,0-3.7,0.5-3.9,0.9c0.3,0.4,0.8,0.6,1.2,0.8c0.6,0.3,1.3,0.5,1.8,1.2c0.5,0.8,1.1,1.5,1.8,1.6
							c0.4,0,0.7-0.1,1.1-0.5c1.5-1.5,6.4-2.9,6.6-2.9c0.3,0.6,0.3,8.6-0.1,9.7l-0.4,0.9c-0.2,0.6-0.7,1.8-0.6,2
							c0.9-0.2,1.5-0.3,3.6,0l1.1,0.2c0.4,0.1,0.8,0.2,0.9,0.1c0.1-0.1,0-0.8-0.2-1.6l-0.3-1.6c-0.7-4.3-0.4-9-0.4-9
							c0.6,0,6.9,4.2,9,7.1c0.8,1.1,1,1.2,1.4,1.3c0.1,0,0.3-0.3,0.4-0.6c0.2-0.3,0.4-0.8,0.7-1.1c1-1,2.2-1.4,3.3-1.7
							c0.3-0.2-0.8-0.7-1.5-1c-0.8-0.3-1.7-0.6-2.1-0.9c-1.1-0.7-9.4-5.4-9.4-5.4c0.1-0.4,4.8-1.9,7.6-2.2c1.5-0.2,2.3-0.3,2.4-0.5
							c0.1-0.1,0-0.5-0.1-1c-0.3-1.1-0.1-2.1-0.1-2.9c0-0.3,0.1-0.5,0.1-0.7c-0.3-0.6-0.7-0.7-1.8,0.2c-1.8,1.4-9.8,4.9-10.1,5.1
							l-14.3-18.8l14.4,18.5c0-0.2,8-3.7,9.8-5.1c0.9-0.8,1.6-1,2.1-0.8c0.2,0.1,0.5,0.4,0.5,1c0,0.2,0,0.5-0.1,0.8
							c-0.1,0.8-0.2,1.8,0.1,2.8c0.2,0.7,0.3,1.1,0.1,1.4c-0.3,0.4-0.9,0.5-2.8,0.7c-2.6,0.3-6.8,1.6-7.4,1.8c0.8,0.1,8.3,4.3,9.3,5
							c0.4,0.3,1.2,0.6,2,0.9c1.7,0.7,2.3,0.9,2.2,1.3l-0.8,0.5c-1,0.3-2.2,0.7-3.1,1.6c-0.3,0.3-0.5,0.7-0.6,1
							c-0.2,0.4-0.4,0.8-0.8,0.9c-0.4,0-0.9-0.4-1.8-1.5c-2-2.7-7.9-6.7-8.5-7.1c0.2,0.5,0,4.8,0.6,8.7l0.3,1.6
							c0.2,1.3,0.3,1.8,0.1,2C184.7,219.7,184.5,219.8,184.3,219.8L184.3,219.8z"/>
					</g>
					<path class="st22" d="M150,235.1l7.6-9c8.6,5.3,15,3.8,19.1-4.3c-13,2.2-19.1-9.6-18.4-35.3l9.7,15.1v-14l11.9,1.4l-31.3-33.5
						L150,235.1z"/>
					<path class="st22" d="M134.2,127.8v42.5l-48.3,39.6V104.4c0-8.2,1.7-13.7,5-16.6v22L134.2,127.8z"/>
					<g class="st22">
						<polygon class="st25" points="125.8,205.2 124.5,205.2 124.5,115.2 125.8,115.2 125.8,205.2 						"/>
					</g>
					<g class="st22">
						<polygon class="st25" points="115.7,205.2 114.4,205.2 114.4,115.2 115.7,115.2 115.7,205.2 						"/>
					</g>
					<g class="st22">
						<polygon class="st25" points="105.6,205.2 104.3,205.2 104.3,115.2 105.6,115.2 105.6,205.2 						"/>
					</g>
					<g class="st22">
						<polygon class="st25" points="95.6,205.2 94.2,205.2 94.2,115.2 95.6,115.2 95.6,205.2 						"/>
					</g>
					<path class="st22" d="M143.5,135.7c-32.4,0-46.1-10.5-53-18.4V88.2c-3.6-1-5.5-3.6-5.8-7.9c10.1,8.3,25.9-11.2,35.3,9
						c-5,10.1-15.1,9-18.7,3.2c-7.2,6.1-1.4,29.2,42.2,28.8V135.7z"/>
					<path class="st23" d="M131.6,206.3c2.5,3.2,0.4,6.1-1.8,7.2c0.7-2.2,0.4-4.2-1.1-6.1L131.6,206.3z"/>
					<g class="st22">
						<path d="M129.9,213.7c0.4-2.4,0-4.3-1.4-6.2c1.8,1.7,2.2,3.8,1.5,6.1c0.8-0.8,2-1.9,2.4-3.5c0.3-1.2-0.1-2.4-1-3.6l0.4-0.3
							c1,1.3,1.4,2.7,1.1,4C132.5,211.9,131.1,213.1,129.9,213.7L129.9,213.7z"/>
					</g>
					<path class="st23" d="M119,218.6c-0.2,1.4,0.5,3.2,2.2,5.4c-4.3-1.1-6.1-2.5-4.7-5L119,218.6z"/>
					<g class="st22">
						<path d="M121.4,223.8c-3.3-0.4-4.9-1.3-5.4-2.5c-0.3-0.7-0.2-1.6,0.4-2.5c-0.1,1-0.2,1.7,0.1,2.3c0.4,1.1,2,1.9,4.9,2.6
							c-1.9-1.8-2.7-3.7-2.4-5.2l0.4,0.1C119,220,119.7,221.7,121.4,223.8L121.4,223.8z"/>
					</g>
					<path class="st23" d="M104.6,213.2c-0.7,1.7-0.8,3.6-0.4,5.8c-3.2-2.9-4.3-6.8-1.8-7.6L104.6,213.2z"/>
					<g class="st22">
						<path d="M104.5,218.9c-2.6-1.8-4-4.5-3.6-6.2c0.2-0.8,0.7-1.3,1.5-1.5c-0.5,0.6-0.9,1-1.1,1.6c-0.4,1.6,0.9,4.1,3.1,6
							c-0.9-2-0.7-4,0-5.7l0.4,0.2C104.1,214.9,104,216.8,104.5,218.9L104.5,218.9z"/>
					</g>
					<path class="st23" d="M105,200.2c-1.2,0.2-2.4,1.5-3.6,3.6c-0.4-4,0.4-6.1,4-6.8L105,200.2z"/>
					<g class="st22">
						<path d="M101.6,203.9c-0.8-3.9-0.2-6.4,3.7-7.2c-3.1,1.1-4.1,2.8-3.7,7c0.8-2.3,2.1-3.6,3.3-3.8l0.1,0.4
							C103.9,200.6,102.7,201.8,101.6,203.9L101.6,203.9z"/>
					</g>
					<path class="st23" d="M136.7,188.3l-16.9,15.5c0,0,6.5,1.4,9,1.4c2.5,0,4.7,0.7,4,1.4c-0.7,0.7-2.2,0.7-2.9,1.8
						c-0.7,1.1-1.8,2.5-3.2,1.1c-1.4-1.5-6.5-2.9-6.5-2.9s0,8.3,0.4,9.4c0.4,1.1,1.4,3.2,0.7,3.2c-0.7,0-0.7-0.4-3.6,0
						c-2.9,0.4-2.5,1.1-1.8-3.2c0.7-4.3,0.4-9,0.4-9s-6.5,4.3-8.6,7.2c-2.2,2.9-1.8,0.7-2.9-0.4c-1.1-1.1-2.5-1.4-3.6-1.8
						c-1.1-0.4,2.9-1.4,4-2.2c1.1-0.7,9.4-5.4,9.4-5.4s-4.7-1.4-7.6-1.8c-2.9-0.4-2.9-0.4-2.5-1.8c0.4-1.4,0-2.9,0-3.6
						c0-0.7,0.4-1.4,2.2,0c1.8,1.4,10.1,5,10.1,5l14.1-18.7L136.7,188.3z"/>
					<g class="st22">
						<path d="M115.7,219.8c-0.2,0-0.3,0-0.5-0.2c-0.3-0.3-0.2-0.7,0.1-2l0.3-1.6c0.7-4,0.4-8.4,0.4-8.9c-0.2,0.5-6.2,4.6-8.2,7.3
							c-0.8,1.1-1.4,1.5-1.8,1.5c-0.4,0-0.6-0.4-0.8-0.9c-0.2-0.3-0.3-0.7-0.6-1c-0.9-0.9-2.1-1.3-3.1-1.6l-0.8-0.5
							c0-0.4,0.6-0.7,2.3-1.3c0.8-0.3,1.6-0.6,2-0.9c1-0.7,8.3-4.8,9.3-5.3c-0.8,0-4.8-1.1-7.4-1.5c-1.8-0.2-2.5-0.3-2.8-0.7
							c-0.2-0.3-0.1-0.7,0-1.4c0.2-1,0.1-2,0.1-2.8c0-0.3-0.1-0.6-0.1-0.8c0-0.6,0.2-0.9,0.5-1c0.4-0.2,1.1,0.1,2.1,0.8
							c1.8,1.4,10,5,10,5l13.8-18.7l-13.7,19c-0.6-0.1-8.6-3.6-10.4-5c-1.1-0.9-1.5-0.8-1.6-0.8c-0.2,0.8-0.2,1-0.1,1.3
							c0.1,0.8,0.2,1.8-0.1,2.9c-0.1,0.5-0.2,0.9-0.1,1c0.2,0.2,1,0.3,2.5,0.5c2.9,0.4,7.6,1.8,7.6,1.8c0,0.4-8.2,5.1-9.3,5.8
							c-0.4,0.3-1.3,0.6-2.1,0.9c-0.7,0.3-1.9,0.7-2,0.9c1.5,0.4,2.8,0.8,3.7,1.7c0.3,0.3,0.5,0.8,0.7,1.1c0.1,0.3,0.3,0.6,0.4,0.6
							c0.3-0.1,0.6-0.2,1.4-1.3c2.2-2.9,8.4-7.1,8.7-7.3c0.4,0.2,0.7,4.9,0,9.2l-0.3,1.6c-0.2,0.8-0.3,1.5-0.2,1.6
							c0.1,0.1,0.5,0,0.9-0.1l1.1-0.2c2.1-0.3,2.7-0.1,3.2-0.1c0.6-0.1,0.1-1.4-0.1-2l-0.4-0.9c-0.4-1.1-0.4-9.1-0.4-9.4
							c0.5-0.1,5.4,1.3,6.9,2.7c0.4,0.4,0.8,0.6,1.1,0.5c0.7-0.1,1.2-0.8,1.8-1.6c0.5-0.7,1.2-1,1.8-1.2c0.4-0.2,0.8-0.3,1.1-0.6
							c-0.1-0.5-1.6-1.1-3.8-1.1c-2.5,0-8.8-1.4-9.1-1.4l16.8-15.9l0.3,0.3l-16.9,15.4c0.6-0.2,6.5,1.1,8.8,1.1c1.8,0,4,0.4,4.3,1.2
							l0.1,0.1l-0.2,0.5c-0.3,0.3-0.8,0.5-1.3,0.7c-0.6,0.2-1.2,0.5-1.6,1.1c-0.6,0.9-1.2,1.7-2.1,1.8c-0.5,0.1-1-0.2-1.5-0.7
							c-1.4-1.4-6.3-2.8-6.4-2.8c0.3,2.1,0.4,8.2,0.6,9.1l0.3,0.9c0.5,1.3,0.8,2.1,0.5,2.5l-0.9,0.1c-0.4-0.1-1-0.2-3,0.1l-1.1,0.2
							C116.1,219.7,115.9,219.8,115.7,219.8L115.7,219.8z"/>
					</g>
					<path class="st22" d="M150,235.1l-7.6-9c-8.6,5.3-15,3.8-19.1-4.3c13,2.2,19.1-9.6,18.4-35.3l-9.7,15.1v-14l-11.9,1.4
						l31.3-33.5L150,235.1z"/>
				</g>
			</g>
		</g>
		<g class="st0">
			<g>
				<defs>
					<rect id="SVGID_15_" x="-107.6" y="-0.3" width="515.1" height="300.5"/>
				</defs>
				<clipPath id="SVGID_16_">
					<use xlink:href="#SVGID_15_"  style="overflow:visible;"/>
				</clipPath>
				<rect x="-107.6" y="200.1" class="st26" width="515.1" height="100.2"/>
				<rect x="-107.6" y="99.9" class="st27" width="515.1" height="100.2"/>
				<rect x="-107.6" y="-0.3" class="st28" width="515.1" height="100.2"/>
				<polygon class="st29" points="106.3,140.2 139.7,140.2 150,108.4 160.3,140.2 193.7,140.2 166.7,159.8 177,191.6 150,172 
					123,191.6 133.3,159.8 				"/>
			</g>
		</g>
		<g class="st0">
			<g>
				<defs>
					<rect id="SVGID_17_" x="-107.1" width="514.3" height="300"/>
				</defs>
				<clipPath id="SVGID_18_">
					<use xlink:href="#SVGID_17_"  style="overflow:visible;"/>
				</clipPath>
				<rect x="-107.1" class="st30" width="514.3" height="300"/>
				<rect x="-107.1" y="201" class="st31" width="514.3" height="99"/>
				<path class="st32" d="M126.3,266.7v9.4h5.9v-4.7h8v4.7h6.3v-9.4H126.3z M126.3,279.6v9.4h20.3v-9.4h-6.3v4.7h-8v-4.7H126.3z"/>
				<g class="st33">
					<path d="M146.9,289.4h-20.5l-0.3-9.7l6.2-0.3l0.3,5l7.7-0.3l-0.3-4.4l6.6-0.3L146.9,289.4L146.9,289.4z M131.9,279.6l-5.6,0.3
						l0.3,9.1l19.7-0.3v-9.2l-6,0.3l0.3,4.4l-8.3,0.3L131.9,279.6L131.9,279.6z M146.9,276.4h-6.6l-0.3-5l-7.7,0.3l0.3,4.4l-6.2,0.3
						l-0.3-9.7l20.5-0.3L146.9,276.4L146.9,276.4z M140.2,271.1l0.3,5l5.7-0.3v-9.1l-20,0.3l0.3,9.1l5.6-0.3l-0.3-4.4L140.2,271.1
						L140.2,271.1z"/>
				</g>
				<rect x="80.4" y="136.3" class="st33" width="139.3" height="51.6"/>
				<polygon class="st31" points="119.3,180.3 73.5,180.3 63.4,187 63.4,194.1 119.3,194.1 				"/>
				<g class="st33">
					<polygon points="63.4,194.4 63.1,187 73.4,180.1 119.6,180 119.3,180.6 73.5,180.6 63.5,187.2 63.7,194.1 119.3,193.8 
						63.4,194.4 					"/>
				</g>
				<polygon class="st31" points="180.7,180.3 226.5,180.3 236.6,187 236.6,194.1 180.7,194.1 				"/>
				<g class="st33">
					<polygon points="180.7,194.4 236.6,193.8 236.3,187 226.3,180.6 180.4,180.6 180.7,180 226.5,180 236.8,186.7 236.9,194.1 
						180.7,194.4 					"/>
				</g>
				<path class="st31" d="M63.4,187h173.2H63.4z"/>
				<g class="st33">
					<polygon points="63.4,187.3 63.1,187.3 63.4,186.7 236.6,186.7 63.4,187.3 					"/>
				</g>
				<polygon class="st31" points="117.8,183.8 106.4,189.3 106.4,197.5 150,197.5 193.6,197.5 193.6,189.3 182.2,183.8 150,183.8 
									"/>
				<g class="st33">
					<path d="M193.9,197.8h-87.5l-0.3-8.5l11.6-5.8l64.4,0l11.6,5.5L193.9,197.8L193.9,197.8z M117.8,184.1l-11.3,5.5l0.2,8
						l86.6-0.3v-7.9L182,184L117.8,184.1L117.8,184.1z"/>
				</g>
				<g class="st33">
					<defs>
						<rect id="SVGID_19_" x="-107.1" width="514.3" height="300"/>
					</defs>
					<clipPath id="SVGID_20_">
						<use xlink:href="#SVGID_19_"  style="overflow:visible;"/>
					</clipPath>
					<path class="st34" d="M170.3,175.8c-1.6,0.5-3.6,1.5-6,2.8c-2.4,1.4-5.2,3.1-7.9,4.8c-2,1.3-3.6,2.6-5.2,3.8
						c-0.6,0.4-1.3,0.9-1.8,1.3c-0.6,0.5-1,1-1.4,1.4c-0.3,0.3-0.7,0.6-1,0.9c-0.6,0.8-1.2,1.4-1.2,2.8c0,0.3,0,0.5,0,0.8
						c0.9-1.1,2.2-1.8,3.7-2c0,0,0,0,0,0c0,0,0.1,0,0.1,0h0c0.1,0,0.3,0,0.4,0c0.1,0,0.3,0,0.4,0c0.2,0,0.4,0.1,0.6,0.1
						c0.1-0.1,0.1-0.1,0.2-0.2c0.3-0.3,0.4-0.4,0.7-0.7c0.7-0.5,1.7-1.2,2.5-1.9c1.3-1,2.5-2,4.1-3c2.5-1.7,5.3-3.3,7.6-4.6
						c2.3-1.3,4.4-2.2,5.2-2.5L170.3,175.8z"/>
					<g class="st35">
						<path d="M145.6,195.1l-0.1-0.5c0-0.3,0-0.5,0-0.8c0-1.4,0.6-2.1,1.2-2.9c0.2-0.3,0.5-0.5,0.7-0.7l0.9-0.6l-0.2-0.2
							c0.3-0.3,0.6-0.7,1.1-1c0.3-0.2,0.6-0.5,1-0.7c0.3-0.2,0.6-0.4,0.8-0.6c1.7-1.4,3.3-2.6,5.2-3.9c2.6-1.8,5.4-3.5,7.9-4.8
							c2.5-1.4,4.5-2.4,6.1-2.8l1.5,4.1c-1,0.5-3,1.4-5.3,2.7c-2.3,1.3-5,2.9-7.6,4.6c-1.2,0.8-2.2,1.5-3.2,2.3l-2,1.5
							c-0.5,0.4-1,0.7-1.4,1.1l-0.9,0.5l0.2,0.2l-0.6,0.2l-0.5-0.3l-0.1,0.2l-0.7,0c-1.3,0.2-2.6,0.9-3.5,1.9L145.6,195.1
							L145.6,195.1z M170.1,175.9c-1.3,0.6-3.2,1.6-5.7,3c-2.4,1.4-5.2,3.1-7.9,4.8c-1.9,1.2-3.4,2.5-5,3.7
							c-0.5,0.4-0.8,0.6-1.1,0.8c-0.4,0.2-0.7,0.5-1,0.7c-0.4,0.3-0.7,0.7-1,1l-0.8,0.8c-0.2,0.2-0.4,0.4-0.5,0.5
							c-0.7,0.8-1.2,1.4-1.2,2.7c0,0.1,0,0.1,0,0.2c0.9-0.9,2.2-1.5,3.4-1.7l1.5,0.1l1-0.8c0.4-0.3,0.9-0.7,1.4-1.1l2-1.5
							c1-0.8,2-1.5,3.2-2.3c2.6-1.7,5.3-3.3,7.6-4.6c2.4-1.3,4.4-2.2,5.3-2.5L170.1,175.9L170.1,175.9z"/>
					</g>
					<g class="st35">
						<path class="st11" d="M155.2,184.4v4.6V184.4z"/>
					</g>
					<g class="st35">
						<path class="st11" d="M158,182.4v4.5V182.4z"/>
					</g>
					<g class="st35">
						<path class="st11" d="M160.8,180.7v4.5V180.7z"/>
					</g>
					<g class="st35">
						<path class="st11" d="M163.7,178.9v4.7V178.9z"/>
					</g>
					<path class="st36" d="M106.4,189.3h87.3H106.4z"/>
					<g class="st35">
						<polygon points="106.4,189.6 106.4,189 193.6,189 106.4,189.6 						"/>
					</g>
					<path class="st36" d="M100.2,150.7c6.6,0,12,5.5,12,12.3v17.3h8.6v-65.6H73.5v65.6h14.6V163C88.2,156.4,93.5,150.7,100.2,150.7
						L100.2,150.7z"/>
					<g class="st35">
						<path d="M121,180.6h-8.9l-0.3-17.6c0-6.6-5.2-12-11.7-12c-6.3,0-11.7,5.5-11.7,12v17.3l-14.9,0.3l-0.3-65.9l47.5-0.3
							L121,180.6L121,180.6z M100.2,150.4c6.8,0,12.3,5.6,12.3,12.6v17.3l8-0.3v-65.3L73.5,115l0.3,65.3l14.4-0.3l-0.3-17
							C87.9,156.1,93.5,150.4,100.2,150.4L100.2,150.4z"/>
					</g>
					<rect x="89.7" y="70.3" class="st35" width="21.7" height="39.8"/>
					<path class="st36" d="M111.3,103.9h-19v-6.7H78.4v6.7H69v-6.7h-5.7v12.2h48V103.9z M69,109.3h41v5.3H69V109.3z"/>
					<g class="st35">
						<path d="M69,115l-0.3-5.3l-5.4,0.1L63,97.2l5.9-0.3l0.3,7l9.1-0.3l-0.3-6.4l14.2-0.3l0.3,7l18.7-0.3v0.6h-19l-0.3-7l-13.6,0.3
							l0.3,6.4l-9.7,0.3l-0.3-7l-5.4,0.3l0.3,11.9l46.3-0.4l0,0.1l1.4,0l-1.4,0l0.3,5.6L69,115L69,115z M69.3,109.6v5l40.7-0.3
							l-0.3-5L69.3,109.6L69.3,109.6z"/>
					</g>
					<path class="st36" d="M85.2,55.8v41.3h7.1V85.8c0-4.3,3-7.7,7.2-8c0.1,0,0.3,0,0.4,0c4.4,0,7.9,3.6,7.9,8v11.4h6.8V55.8H85.2z"
						/>
					<g class="st35">
						<path d="M115,97.5h-7.1l-0.3-11.6c0-4.2-3.4-7.7-7.7-7.7c-4.3,0.2-7.3,3.5-7.3,7.7v11.4l-7.4,0.3l-0.3-41.6l29.7-0.3L115,97.5
							L115,97.5z M99.5,77.6c5,0,8.7,3.7,8.7,8.3v11.4l6.2-0.3V55.8l-29.1,0.3l0.3,41.1l6.8-0.3l-0.3-11
							C92,81.3,95.3,77.8,99.5,77.6L99.5,77.6z"/>
					</g>
					<rect x="132.2" y="44.9" class="st35" width="34.4" height="62.4"/>
					<path class="st36" d="M129.8,45v52.2h10.9V81.7c0-3.6,2.3-8.5,9.3-8.5c7,0,9.3,5,9.3,8.5v15.5h10.9V45H150H129.8z M148.3,50.8
						h1.7h1.7v17.9H150h-1.7V50.8z M138.7,54.3h3.4v13.1h-3.4V54.3z M157.9,54.3h3.4v13.1h-3.4V54.3z"/>
					<g class="st35">
						<path d="M170.5,97.5h-11.2L159,81.7c0-3.1-1.9-8.2-9-8.2c-7.1,0-9,5.2-9,8.2v15.5l-11.2,0.3L129.5,45l40.7-0.3L170.5,97.5
							L170.5,97.5z M150,72.9c7.6,0,9.6,5.5,9.6,8.8v15.5l10.3-0.3V45l-40.1,0.3l0.3,51.9l10.6-0.3l-0.3-15.2
							C140.4,78.4,142.4,72.9,150,72.9L150,72.9z M150,69h-1.7L148,50.5h3.7l0.3,18.2L150,69L150,69z M148.6,51.1v17.6l1.4-0.3h1.7
							l-0.3-17.6L148.6,51.1L148.6,51.1z M157.9,67.7L157.6,54h3.7l0.3,13.4L157.9,67.7L157.9,67.7z M158.2,54.6v12.8l3.1-0.3
							l-0.3-12.8L158.2,54.6L158.2,54.6z M138.7,67.7L138.4,54h3.7l0.3,13.4L138.7,67.7L138.7,67.7z M138.9,54.6v12.8l3.1-0.3
							l-0.3-12.8L138.9,54.6L138.9,54.6z"/>
					</g>
					<polygon class="st36" points="126.1,37.5 126.1,44.9 150,44.9 173.9,44.9 173.9,37.5 150,37.5 					"/>
					<g class="st35">
						<path d="M174.2,45.2h-48.1l-0.3-7.7l48.1-0.3L174.2,45.2L174.2,45.2z M126.1,37.8l0.3,7.1l47.2-0.3v-7.1L126.1,37.8
							L126.1,37.8z"/>
					</g>
					<polygon class="st36" points="121.6,28.8 121.6,37.5 150,37.5 178.4,37.5 178.4,28.8 171.3,28.8 171.3,33.6 163.2,33.6 
						163.2,28.8 154,28.8 154,33.6 150,33.6 146,33.6 146,28.8 136.8,28.8 136.8,33.6 128.7,33.6 128.7,28.8 					"/>
					<g class="st35">
						<path d="M178.7,37.8h-57.1l-0.3-8.9l7.4-0.3l0.3,5.1l7.8-0.3l-0.3-4.5l9.5-0.3l0.3,5.1l3.7-0.3h4l-0.3-4.5l9.5-0.3l0.3,5.1
							l7.8-0.3l-0.3-4.5l7.4-0.3L178.7,37.8L178.7,37.8z M128.4,28.8l-6.8,0.3l0.3,8.3l56.2-0.3v-8.3l-6.8,0.3l0.3,4.5l-8.3,0.3
							l-0.3-5.1l-8.9,0.3l0.3,4.5l-8.4,0.3l-0.3-5.1l-8.9,0.3l0.3,4.5l-8.3,0.3L128.4,28.8L128.4,28.8z"/>
					</g>
					<rect x="82.7" y="50.2" class="st36" width="34.3" height="5.6"/>
					<g class="st35">
						<path d="M117.2,56.1H82.7l-0.3-5.9l34.6-0.3L117.2,56.1L117.2,56.1z M116.6,50.2l-34,0.3l0.3,5.3l33.7-0.3V50.2L116.6,50.2z"
							/>
					</g>
					<polygon class="st36" points="78.3,39.5 78.3,50.2 119.4,50.2 119.4,39.5 113,39.5 113,44.9 105.4,44.9 105.4,39.5 93.7,39.5 
						93.7,44.9 86.1,44.9 86.1,39.5 					"/>
					<g class="st35">
						<path d="M119.7,50.5H78.3l-0.3-11l8.1-0.3l0.3,5.8l7.4-0.3l-0.3-5.2l12-0.3l0.3,5.8l7.4-0.3l-0.3-5.2l6.6-0.3L119.7,50.5
							L119.7,50.5z M85.8,39.5l-7.5,0.3l0.3,10.4l40.5-0.3V39.5l-6,0.3l0.3,5.2l-8,0.3l-0.3-5.8l-11.4,0.3l0.3,5.2l-8,0.3L85.8,39.5
							L85.8,39.5z"/>
					</g>
					<rect x="146.5" y="226.9" class="st34" width="5.8" height="68.1"/>
					<g class="st35">
						<path d="M152.7,295.3h-6.1l-0.3-68.4l6.1-0.3L152.7,295.3L152.7,295.3z M152.1,226.9l-5.5,0.3l0.3,67.8l5.3-0.3V226.9
							L152.1,226.9z"/>
					</g>
					<path class="st34" d="M149.5,210.2l12.5,7.2l-12.5,7.2l-12.4-7.2L149.5,210.2z M132.8,214.9h-3.3v5.2h3.3l16.7,9.7l16.7-9.7
						h3.3v-5.2h-3.3l-16.7-9.7L132.8,214.9z"/>
					<g class="st35">
						<path d="M149.5,230.1l-16.8-9.8l-3.1,0l-0.3-5.5l3.6-0.3l16.5-9.6l17,9.7l3.1,0l0.3,5.5l-3.6,0.3L149.5,230.1L149.5,230.1z
							 M132.8,219.8l16.7,9.6l16.5-9.6l3.4-0.1l-0.3-4.9l-3,0.3l-16.8-9.7l-16.4,9.7l-3.4,0l0.3,4.9L132.8,219.8L132.8,219.8z
							 M149.6,225l-12.8-7.2l12.6-7.9l12.6,7.3L149.6,225L149.6,225z M149.5,210.6l-12.3,7.2l12.5,6.7l12.1-7.2L149.5,210.6
							L149.5,210.6z"/>
					</g>
					<path class="st34" d="M130,176l-1.4,3.9c4.5,1.6,10.9,4.8,16,7.9c2.5,1.5,4.8,3.1,6.3,4.3c0.8,0.6,1.4,1.2,1.7,1.6
						c0,0.1,0.1,0.1,0.1,0.1c0,0,0,0,0,0c0,0.1,0.1,0.1,0.1,0.1c0,0.3-0.1,0.5-0.1,0.7c0,0,0,0.1,0,0.1c0,0,0,0,0,0c0,0,0,0,0,0
						c0,0,0,0.1-0.1,0.1c0,0,0,0,0,0c0,0,0,0,0,0c0,0-0.1,0-0.1,0c0,0-0.1,0.1-0.1,0.1c-0.2,0.1-0.4,0.1-0.9,0.1
						c-0.3,0-0.5,0-0.6-0.1c-0.1,0-0.1,0-0.2,0c0,0-0.1,0-0.1,0c0,0-0.1,0-0.1-0.1c0,0,0,0,0,0c0,0,0,0,0,0c0,0,0-0.1,0-0.1h0
						c0,0,0,0,0,0h0h-0.1c-0.1,0-0.2,0-0.3,0c-1.3,0.1-2.5,1.1-2.8,2.4v0c0,0,0,0,0,0c0,0,0.1,0.1,0.1,0.1c0.9,1.1,2.5,1.9,4.4,1.9
						c1.9,0,3.5-0.8,4.5-2c0.9-1.2,1.1-2.5,1.1-3.6c0-1.3-0.6-2-1.2-2.7c-0.6-0.7-1.4-1.4-2.3-2.2c-1.8-1.5-4.2-3-6.8-4.7
						C141.3,181,134.9,177.7,130,176L130,176z"/>
					<g class="st35">
						<path d="M151.3,199.6c-1.8,0-3.5-0.7-4.5-2c0.2-1.8,1.5-2.8,2.9-2.9l1.6,0.4c0.5,0,0.7-0.1,0.8-0.1c0.3-0.5,0.4-0.7,0.4-0.9
							c-0.4-0.6-1-1.2-1.8-1.8c-1.5-1.2-3.7-2.7-6.3-4.3c-5.2-3.1-11.6-6.3-16-7.8l1.3-4.2c5,1.6,11.4,4.7,17.1,8.1
							c2.9,1.8,5.2,3.3,6.8,4.7c0.9,0.7,1.7,1.4,2.3,2.2c0.6,0.7,1.2,1.5,1.2,2.9c0,1.5-0.4,2.8-1.2,3.8
							C155,198.8,153.3,199.6,151.3,199.6L151.3,199.6z M150.1,195.1c-1.6,0.1-2.7,1-3,2.3c2.1,2.2,6.7,2.2,8.5-0.1
							c0.7-0.9,1.1-2.1,1.1-3.5c0-1.2-0.6-1.9-1.1-2.6c-0.6-0.7-1.4-1.4-2.2-2.1c-1.6-1.3-3.9-2.9-6.8-4.6c-5.6-3.4-12-6.5-16.7-8.2
							l-1.1,3.7c4.3,1.3,10.7,4.5,15.9,7.6c2.7,1.6,4.9,3.1,6.4,4.3c0.8,0.6,1.4,1.2,1.7,1.6c0.2,0.8,0.2,1.1,0.1,1.3l-0.4,0.5
							c-0.5,0.3-1.4,0.2-1.7,0.1L150.1,195.1L150.1,195.1z"/>
					</g>
					<g class="st35">
						<path class="st11" d="M147.7,185.2l-0.4,3.9L147.7,185.2z"/>
					</g>
					<g class="st35">
						<path class="st11" d="M151,187.2l-1,3.8L151,187.2z"/>
					</g>
					<g class="st35">
						<path class="st11" d="M154.5,189.9l-2.1,3L154.5,189.9z"/>
					</g>
					<g class="st35">
						<path d="M155.5,197.4c0,0-0.1,0-0.1,0l-3.1-1.6l3.3,1.1c0.1,0.1,0.2,0.3,0.1,0.4C155.7,197.3,155.6,197.4,155.5,197.4
							L155.5,197.4z"/>
					</g>
					<g class="st35">
						<path class="st11" d="M156.5,193.9l-3.5,0.3L156.5,193.9z"/>
					</g>
					<g class="st35">
						<path d="M152,199.2c-0.2,0-0.3-0.1-0.3-0.3l-0.2-3.1l0.8,3C152.3,199.1,152.1,199.2,152,199.2C152,199.2,152,199.2,152,199.2
							L152,199.2z"/>
					</g>
					<g class="st35">
						<path class="st11" d="M150.7,195.4l-2.9,2.1L150.7,195.4z"/>
					</g>
					<g class="st35">
						<path class="st11" d="M136.7,179.2v3.6V179.2z"/>
					</g>
					<g class="st35">
						<path class="st11" d="M144.1,183.1v4.1V183.1z"/>
					</g>
					<g class="st35">
						<path class="st11" d="M140.4,181.2v3.9V181.2z"/>
					</g>
					<path class="st34" d="M149.2,192.5c-2.7,0.4-4.8,2.9-4.8,5.8v12.9c0,3.2,2.5,5.8,5.6,5.8c0.1,0,0.1,0,0.2,0c0.1,0,0.1,0,0.2,0
						c2.2,0,4.1-1.3,5.1-3.3l-2-1.2c-0.5,1.2-1.7,2.1-3,2.1c0,0-0.1,0-0.1,0h-0.1c0,0-0.1,0-0.1,0c0,0-0.1,0-0.1,0
						c-1.8,0-3.3-1.5-3.3-3.4v-12.9c0-1.9,1.5-3.4,3.3-3.4c0,0,0.1,0,0.1,0c0,0,0.1,0,0.1,0h0.1c0,0,0.1,0,0.1,0
						c0.5,0,1,0.1,1.4,0.3c0,0,0,0,0,0c0.1,0,0.2-0.1,0.3-0.1c0,0,0.1-0.1,0.1-0.1c0,0,0,0,0,0h0c0,0,0,0,0,0c0,0,0,0,0,0
						c0,0,0.1-0.1,0.1-0.1v0l0,0c0,0,0-0.1,0-0.1c0.1-0.2,0.1-0.5,0.1-0.7c0,0,0-0.1-0.1-0.1v0c0,0-0.1-0.1-0.1-0.1
						c-0.2-0.3-0.6-0.7-1.1-1.1h0c0,0-0.1,0-0.1,0h0c0,0-0.1,0-0.1,0c0,0,0,0,0,0c0,0-0.1,0-0.1,0c0,0-0.1,0-0.1,0
						c-0.1,0-0.3,0-0.4,0c-0.1,0-0.1,0-0.2,0c-0.1,0-0.1,0-0.2,0c-0.1,0-0.3,0-0.4,0c0,0-0.1,0-0.1,0c0,0-0.1,0-0.1,0c0,0,0,0,0,0
						c0,0-0.1,0-0.1,0H149.2C149.3,192.5,149.3,192.5,149.2,192.5L149.2,192.5z M156,197.1c-0.1,0.1-0.1,0.2-0.2,0.3
						c-0.5,0.6-1.2,1.2-2,1.5v8.9l2.4,1.4v-10.8C156.2,197.9,156.1,197.5,156,197.1C156,197.1,156,197.1,156,197.1L156,197.1z"/>
					<g class="st35">
						<path d="M150.4,217.4L150.4,217.4c-3.6,0-6.2-2.8-6.2-6.1v-12.9c0-3,2.2-5.7,5.1-6.1l0.6,0h1.3c1,0.6,1.5,1,1.7,1.3
							c0.2,0.7,0.2,1.1,0.1,1.4l-1.1,0.7c-0.4-0.2-0.9-0.3-1.3-0.3c-2.1,0-3.4,1.4-3.4,3.1v12.9c0,1.8,1.3,3.1,3,3.1
							c1.6,0,2.7-0.7,3.2-1.9l2.5,1.1c-0.9,2.5-3,3.8-5.2,3.8L150.4,217.4L150.4,217.4z M149.8,192.8c-3.1,0.4-5.1,2.8-5.1,5.5v12.9
							c0,3,2.4,5.5,5.3,5.5l0.3,0.3l0.1-0.3c2.1,0,3.9-1.2,4.9-3.1l-1.9-0.8c-0.1,1.2-1.4,2.1-2.9,2.1c-2.5,0-4-1.6-4-3.7v-12.9
							c0-2.1,1.6-3.7,3.6-3.7c1,0,1.5,0.1,2,0.4c0.3-0.5,0.4-0.7,0.4-1c-0.3-0.4-0.7-0.7-1.2-1.2l-0.7,0H149.8L149.8,192.8z
							 M156.5,209.6l-2.8-1.6l-0.2-9.1c1-0.6,1.6-1.1,2.1-1.7l0.5-0.4c0.4,0.6,0.4,1.1,0.4,1.5V209.6L156.5,209.6z M155.7,197.2
							c-0.2,1.1-0.9,1.6-1.8,2l0.2,8.6l1.7,0.9v-10.3C155.9,197.9,155.8,197.5,155.7,197.2L155.7,197.2z"/>
					</g>
					<path class="st36" d="M199.8,150.7c-6.6,0-12,5.5-12,12.3v17.3h-8.6v-65.6h47.2v65.6h-14.6V163
						C211.8,156.4,206.5,150.7,199.8,150.7L199.8,150.7z"/>
					<g class="st35">
						<path d="M226.8,180.6h-14.9l-0.3-17.6c0-6.5-5.3-12-11.7-12c-6.4,0-11.7,5.4-11.7,12v17.3l-8.9,0.3l-0.3-65.9l47.5-0.3
							L226.8,180.6L226.8,180.6z M199.8,150.4c6.6,0,12.3,5.7,12.3,12.6v17.3l14.1-0.3v-65.3l-46.9,0.3l0.3,65.3l8.3-0.3l-0.3-17
							C187.6,156,193.1,150.4,199.8,150.4L199.8,150.4z"/>
					</g>
					<polygon class="st36" points="111,114.7 111,120 150,120 189,120 189,114.7 150,114.7 					"/>
					<g class="st35">
						<path d="M189.3,120.3H111l-0.3-5.7l78.2-0.3L189.3,120.3L189.3,120.3z M111,115l0.3,5.1l77.3-0.3v-5.1L111,115L111,115z"/>
					</g>
					<rect x="188.6" y="70.3" class="st35" width="21.7" height="39.8"/>
					<path class="st36" d="M188.7,103.9h19v-6.7h13.9v6.7h9.4v-6.7h5.6v12.2h-48V103.9z M231,109.3h-41v5.3h41V109.3z"/>
					<g class="st35">
						<path d="M190.1,115l-0.3-5.3l-1.1,0l1.1,0l0-0.3l41.6-0.3v0.1l5.3-0.1l-0.3-11.9l-5.3,0.3l0.3,6.4l-9.7,0.3l-0.3-7l-13.6,0.3
							l0.3,6.4l-19.3,0.3v-0.6h19l-0.3-6.4l14.2-0.3l0.3,7l9.1-0.3l-0.3-6.4l5.9-0.3l0.3,12.5l-5.6,0v5.2L190.1,115L190.1,115z
							 M190.1,109.7l0.3,5l40.7-0.3l-0.3-4.7L190.1,109.7L190.1,109.7z"/>
					</g>
					<path class="st36" d="M214.8,55.8v41.3h-7.1V85.8c0-4.3-3-7.7-7.2-8c-0.1,0-0.3,0-0.4,0c-4.4,0-7.9,3.6-7.9,8v11.4h-6.8V55.8
						H214.8z"/>
					<g class="st35">
						<path d="M215.1,97.5h-7.4l-0.3-11.6c0-4.2-3-7.5-6.9-7.7c-4.6,0-8,3.4-8,7.7v11.4l-7.1,0.3L185,55.8l29.7-0.3L215.1,97.5
							L215.1,97.5z M200.1,77.6c4.7,0.2,7.9,3.8,7.9,8.3v11.4l6.5-0.3V55.8l-29.1,0.3l0.3,41.1l6.5-0.3l-0.3-11
							C191.8,81.3,195.5,77.6,200.1,77.6L200.1,77.6z"/>
					</g>
					<polygon class="st36" points="107.8,97.2 107.8,114.7 150,114.7 192.2,114.7 192.2,97.2 184.2,97.2 184.2,103.9 173.5,103.9 
						173.5,97.2 159.3,97.2 159.3,103.9 150,103.9 140.7,103.9 140.7,97.2 126.5,97.2 126.5,103.9 115.8,103.9 115.8,97.2 					"/>
					<g class="st35">
						<path d="M192.5,115h-84.6l-0.3-17.8l8.3-0.3l0.3,7l10.3-0.3l-0.3-6.4l14.5-0.3l0.3,7l18.3-0.3l-0.3-6.4l14.5-0.3l0.3,7
							l10.3-0.3l-0.3-6.4l8.3-0.3L192.5,115L192.5,115z M115.5,97.2l-7.7,0.3l0.3,17.2l83.7-0.3V97.2l-7.7,0.3l0.3,6.4l-10.9,0.3
							l-0.3-7l-14,0.3l0.3,6.4l-18.9,0.3l-0.3-7l-14,0.3l0.3,6.4l-10.9,0.3L115.5,97.2L115.5,97.2z"/>
					</g>
					<rect x="183.1" y="50.2" class="st36" width="34.3" height="5.6"/>
					<g class="st35">
						<path d="M217.6,56.1h-34.6l-0.3-5.9l34.6-0.3L217.6,56.1L217.6,56.1z M217.1,50.2l-34,0.3l0.3,5.3l33.7-0.3V50.2L217.1,50.2z"
							/>
					</g>
					<polygon class="st36" points="221.7,39.5 221.7,50.2 180.6,50.2 180.6,39.5 187,39.5 187,44.9 194.6,44.9 194.6,39.5 
						206.3,39.5 206.3,44.9 213.9,44.9 213.9,39.5 					"/>
					<g class="st35">
						<path d="M222,50.5h-41.4l-0.3-11l6.6-0.3l0.3,5.8l7.4-0.3l-0.3-5.2l12-0.3l0.3,5.8l7.4-0.3l-0.3-5.2l8.1-0.3L222,50.5
							L222,50.5z M186.7,39.5l-6,0.3l0.3,10.4l40.5-0.3V39.5l-7.5,0.3l0.3,5.2l-8,0.3l-0.3-5.8l-11.4,0.3l0.3,5.2l-8,0.3L186.7,39.5
							L186.7,39.5z"/>
					</g>
					<rect x="146.5" y="232.8" class="st34" width="5.8" height="58.7"/>
					<g class="st35">
						<path d="M152.7,291.8h-6.1l-0.3-59l6.1-0.3L152.7,291.8L152.7,291.8z M152.1,232.8l-5.5,0.3l0.3,58.4l5.3-0.3V232.8
							L152.1,232.8z"/>
					</g>
					<path class="st36" d="M118,120v63.7H133v-23.8c0-11.2,7.5-16.5,17-16.5c9.1,0,17,5.3,17,16.5v23.8H182V120h-32H118z"/>
					<g class="st35">
						<path d="M182,184H167l-0.3-24.1c0-12-9-16.2-16.7-16.2c-10.3,0-16.7,6.2-16.7,16.2v23.8L118,184l-0.3-64l64.3-0.3l0.3,64
							C182.3,183.9,182.2,184,182,184L182,184z M150,143.1c8,0,17.2,4.4,17.2,16.8v23.8l14.5-0.3V120l-63.7,0.3l0.3,63.4l14.8-0.3
							l-0.3-23.5C132.7,149.5,139.4,143.1,150,143.1L150,143.1z"/>
					</g>
				</g>
			</g>
		</g>
		<g class="st0">
			<g>
				<defs>
					<rect id="SVGID_21_" y="-0.6" width="516.5" height="301.3"/>
				</defs>
				<clipPath id="SVGID_22_">
					<use xlink:href="#SVGID_21_"  style="overflow:visible;"/>
				</clipPath>
				<rect y="267.2" class="st37" width="516.5" height="33.5"/>
				<rect y="233.7" class="st38" width="516.5" height="33.5"/>
				<rect y="200.2" class="st37" width="516.5" height="33.5"/>
				<rect y="166.7" class="st38" width="516.5" height="33.5"/>
				<rect y="133.3" class="st37" width="516.5" height="33.5"/>
				<rect y="99.8" class="st38" width="516.5" height="33.5"/>
				<rect y="66.3" class="st37" width="516.5" height="33.5"/>
				<rect y="32.8" class="st38" width="516.5" height="33.5"/>
				<rect y="-0.6" class="st37" width="516.5" height="33.5"/>
				<rect y="-0.6" class="st37" width="167.4" height="167.4"/>
				<rect y="66.3" class="st38" width="167.4" height="33.5"/>
				<rect x="66.9" y="-0.6" class="st38" width="33.5" height="167.4"/>
			</g>
		</g>
		<g class="st0">
			<g>
				<defs>
					<rect id="SVGID_23_" x="-66" y="0" width="515.5" height="300.7"/>
				</defs>
				<clipPath id="SVGID_24_">
					<use xlink:href="#SVGID_23_"  style="overflow:visible;"/>
				</clipPath>
				<rect x="-66" y="150.4" class="st39" width="515.5" height="150.4"/>
				<rect x="-66" y="0" class="st40" width="515.5" height="150.4"/>
				<g class="st41">
					<defs>
						<rect id="SVGID_25_" x="-66" y="0" width="515.5" height="300.7"/>
					</defs>
					<clipPath id="SVGID_26_">
						<use xlink:href="#SVGID_25_"  style="overflow:visible;"/>
					</clipPath>
					<path class="st42" d="M9.2,150.4C9.2,95,54,50.1,109.4,50.1c55.4,0,100.2,44.9,100.2,100.2H9.2z"/>
					<path class="st43" d="M9.2,150.4c0,55.4,44.9,100.2,100.2,100.2c55.4,0,100.2-44.9,100.2-100.2H9.2z"/>
				</g>
			</g>
		</g>
	</g>
</g>
</svg>
