<?xml version="1.0" encoding="utf-8"?>
<!-- Generator: Adobe Illustrator 22.1.0, SVG Export Plug-In . SVG Version: 6.00 Build 0)  -->
<svg version="1.1" id="Layer_1" xmlns="http://www.w3.org/2000/svg" xmlns:xlink="http://www.w3.org/1999/xlink" x="0px" y="0px"
	 viewBox="0 0 300 300" style="enable-background:new 0 0 300 300;" xml:space="preserve">
<style type="text/css">
	.st0{clip-path:url(#SVGID_2_);}
	.st1{clip-path:url(#SVGID_4_);fill:#C4314C;}
	.st2{clip-path:url(#SVGID_4_);fill:#2E4BC4;}
	.st3{clip-path:url(#SVGID_4_);}
	.st4{clip-path:url(#SVGID_6_);fill:#C4314C;}
	.st5{clip-path:url(#SVGID_6_);fill:#78ACE8;}
	.st6{clip-path:url(#SVGID_6_);fill:#203B74;}
	.st7{clip-path:url(#SVGID_6_);fill:#E4DCDC;}
	.st8{clip-path:url(#SVGID_6_);fill:#FAF22A;}
	.st9{clip-path:url(#SVGID_6_);}
	.st10{clip-path:url(#SVGID_6_);fill:#734911;}
	.st11{clip-path:url(#SVGID_6_);fill:#3E926F;}
	.st12{clip-path:url(#SVGID_6_);fill:#FFFFFF;}
	.st13{clip-path:url(#SVGID_6_);fill:#5593CE;}
</style>
<g>
	<defs>
		<rect id="SVGID_1_" width="300" height="300"/>
	</defs>
	<clipPath id="SVGID_2_">
		<use xlink:href="#SVGID_1_"  style="overflow:visible;"/>
	</clipPath>
	<g class="st0">
		<g>
			<defs>
				<rect id="SVGID_3_" x="-0.2" y="-5" width="300.4" height="308"/>
			</defs>
			<clipPath id="SVGID_4_">
				<use xlink:href="#SVGID_3_"  style="overflow:visible;"/>
			</clipPath>
			<rect x="7.5" y="13.1" class="st1" width="284.6" height="273.6"/>
			<rect x="-0.2" y="-0.1" class="st1" width="300.4" height="300"/>
			<rect x="13.9" y="15.4" class="st2" width="272.3" height="267.2"/>
			<g class="st3">
				<defs>
					<rect id="SVGID_5_" x="-0.2" y="17" width="300.4" height="264"/>
				</defs>
				<clipPath id="SVGID_6_">
					<use xlink:href="#SVGID_5_"  style="overflow:visible;"/>
				</clipPath>
				<path class="st4" d="M150.1,44.1c0,0-65.2,47.8-65.2,104.2c0,56.4,65.2,105.6,65.2,105.6s64.8-45.1,64.8-105.6
					C214.8,87.9,150.1,44.1,150.1,44.1"/>
				<path class="st5" d="M205,167c1.4-6,2.2-12.2,2.2-18.7c0-54.1-57.2-94.3-57.2-94.3S92,95.5,92,148.3c0,6.3,0.8,12.5,2.3,18.5
					L205,167"/>
				<path class="st6" d="M149.6,243.5c0,0,44.9-32,55.4-76.7H94.2C105,210.7,149.6,243.5,149.6,243.5"/>
				<path class="st7" d="M207,154.6c-9.8,7.5-65.1,3.9-65.1,3.9l-3.1,8.4H205c0.3-1.2,0.5-2.3,0.8-3.5L207,154.6"/>
				<path class="st8" d="M146.7,207.9c-0.8-6.3-26.7-13-40.4-12.5c4.3,7.2,9.1,13.9,14,19.7C127.2,207.1,146.9,210,146.7,207.9"/>
				<path class="st8" d="M199,184.5c-3.3,0.1-9.2,0.7-13.3,3c-5.9,3.3-19.1,6.9-25,5.1c-5.9-1.8-15.1,3.9-14,5.1
					c1.9,2,15.4-0.3,15.4,12.7c0,10.8-15.7,6-21.9,10.5c-3.7,2.7-6.3,5.7-7.8,7.6c9.6,9.6,17.2,15.2,17.2,15.2s17.9-12.8,33.7-33.4
					l7.4-10.6C193.8,194.8,196.6,189.7,199,184.5"/>
				<rect x="129.2" y="154" class="st9" width="2.4" height="27.5"/>
				<path class="st10" d="M137,186.7c0,0-1,0.2-2.5,0.4v-2.2h-1.6v2.3c-1.6,0.2-3.6,0.3-5.6,0.3c-2.2,0-4.4-0.2-6.2-0.4V185h-1.7v2
					c-1.5-0.2-2.5-0.4-2.5-0.4s-0.5,2.8,10.3,2.8C137.8,189.4,137,186.7,137,186.7"/>
				<path class="st11" d="M146.5,101.1c0,0-9-5.6-21.1-2.9c-12.2,2.7-14.9,10.9-14.9,10.9l4.1-2l0.1,1.8l3.7-2.5l0.1,1.8l3.2-3.1
					l0.5,2l2.8-2.7l0.2,1.5l4.6-3.1v2l3.7-1.8l-0.3,1.9l6.9-1.3c0,0-16.4,5.9-18.5,20l3.2-4.1l0.3,1.9l2-4.3l0.5,1.7l1.8-3.9
					l0.5,2.3l2.7-4.3l0.2,2.5l3.1-4.6v2.3l3.4-3.9l-0.1,2.9c0,0,3.2-2.9,4.3-2.9l-3.9,5.4l1.3,0.5c0,0-2.7,2.4-3,2.8
					c-0.2,0.4,1.8,0,1.8,0s-2.4,2.7-2.5,3.5c-0.1,0.8,1.6,0,1.6,0s-2.2,3-2.5,4.2c-0.3,1.1,1.2,0.2,1.2,0.2s-1.4,3.6-1.5,4.6
					c-0.1,1,1.6-0.2,1.6-0.2l1,6.2l1.7-7.4l1.1,1.7v-5.3l1,0.9l-0.1-3.5l1.3,1.3l-0.6-4.3l1.4,1.7l-0.2-3.6l1.4,1.5v-4.7l1.3,1.2
					l0.2-3.3l1.5,0.8c0,0,0.2-4,1.9-3.8c1.7,0.1,3.8,2,2.9,2.9l1.5-0.4l-0.3,3.8l1.3-0.9l-0.2,2.8l1.1-0.6l-0.4,3.6l1.4-0.9l0.1,4.4
					l1.6-1.2l-0.1,5.2l1.6-1.4v4.3l1.5-1.1l1.6,4.2l-0.3-6.2l1.2,1l-2.1-4.4l1.6-0.2l-1.7-2.9l1.6,0.1l-2.3-2.9l1.6-0.3l-3.5-2.7
					l1.9-0.8l-3.6-2.5l1.4-0.6l-2.5-2.8l2.6,1.1l0.9-1.8l3.1,2.7v-2.7l2.7,4.1l0.3-2.5l2.1,3.2l0.4-1.5l1.5,3.2l0.8-2.4l1.5,3.4
					l0.4-2.4l1.4,3.7l1.3-1.5l0.6,3.8l1.3-1.5l1.1,3.4l1.5-1.2l1.3,3.8c0,0,3.5-20.5-26.3-20.9L146.5,101.1"/>
				<path class="st11" d="M132.8,82.8l1.7,2.3l-0.8,0.7l2.8,1.7l-0.6,1.2l2.8,1.1l-1.1,0.9l2.5,1.6l-1.7,0.6l3,1.6l-0.4,1.5l2.6,0.7
					l-1.2,1l3,2.6l3.5,2.6l2.4-0.9l-0.9-5C150.6,96.9,140.6,82.2,132.8,82.8"/>
				<path class="st11" d="M142,68.6l1.2,2.9l-1.6,0.3l3.6,3.8l-2.8,0.1l3.5,2.9l-1.7,0.6l3.2,3.4l-1.7,0.9l3.3,3.5l-2.2,0.9l3.7,3.6
					l-2.1,0.1l2.2,3l-2,0.7c0,0,2.4,4.8,2.3,6.9l4.1,0.2c0,0,0.6-13.1,0.1-14.8l-1.1,0.8l0.3-4.8l-1.6,1l-0.3-5.6l-1.6,1.8l-0.4-5.5
					l-1.2,1.9l-1.2-5.4l-1.3,1.7l-1.2-3.5l-1,1.4L142,68.6"/>
				<path class="st11" d="M152.6,101.5c1.2-7.9,8.8-19.4,23.3-19.9l-3.3,1.8l1.9,0.9l-3.8,1.5l1.9,1.2l-4.5,0.3l2.3,1.7l-3.3,0.5
					l-2.6,0.6l1.9,1.9l-3.8,0.4l2.4,1.4c0,0-6,2.3-6.4,2.9c0,0,20.2-5.5,25.1,4.7l-3.9-1.8l0.3,1.9l-2.7-2.1l0.4,1.6l-2.8-1.6
					l0.4,1.9l-2.9-1.8l0.6,1.7l-3.8-1.9l0.6,1.8l-3.3-1.1l0.3,1.9l-3.3-0.2l0.3,2.2l-10.1-0.2L152.6,101.5"/>
				<path class="st10" d="M149.5,108.3l2.1-0.2c-1,21.5-0.1,52.4,2.7,63.8c4.6,19.4,18.1,26.9,21.3,28.7c1.8,1,1.1,5.4-2.5,5.1
					c-3.6-0.3-16.4-10.4-20.8-28.4C146.4,153.1,149.3,110.8,149.5,108.3"/>
				<path class="st4" d="M121.4,141.3h-2.5c-0.2-1.2-0.7-2-1.4-2.4c-0.4-0.3-0.9-0.4-1.4-0.4c-1,0-1.8,0.5-2.4,1.5
					c-0.6,1-0.9,2.6-0.9,4.6c0,2.1,0.3,3.5,1,4.4c0.7,0.8,1.4,1.3,2.3,1.3c0.8,0,1.5-0.3,2.1-1c0.5-0.7,0.9-1.6,1-2.7h-2.8v-2.8h5.1
					v9.1h-1.7l-0.3-2.1c-0.5,0.8-0.9,1.4-1.3,1.7c-0.7,0.6-1.5,0.8-2.5,0.8c-1.6,0-2.9-0.8-3.9-2.3c-1.1-1.6-1.6-3.7-1.6-6.4
					c0-2.7,0.5-4.9,1.6-6.6c1.1-1.7,2.5-2.5,4.3-2.5c1.5,0,2.8,0.5,3.7,1.6C120.7,138.3,121.3,139.6,121.4,141.3"/>
				<path class="st4" d="M133.3,146.4V136h2.6v10.4c0,1.1,0.1,2,0.3,2.5c0.3,0.9,1,1.4,2,1.4c1,0,1.7-0.5,2-1.4
					c0.2-0.5,0.3-1.4,0.3-2.5V136h2.6v10.4c0,1.8-0.2,3.2-0.6,4.2c-0.8,1.8-2.2,2.7-4.3,2.7c-2.1,0-3.5-0.9-4.3-2.7
					C133.5,149.6,133.3,148.2,133.3,146.4"/>
				<polygon class="st4" points="158.8,152.9 159.7,149.4 164.1,149.4 164.9,152.9 167.7,152.9 163.4,136 160.5,136 156.2,152.9 
									"/>
				<path class="st4" d="M183.7,149.3l2.2-13.3h3.7v16.9h-2.4v-11.4c0-0.3,0-0.8,0-1.4c0-0.6,0-1,0-1.4l-2.3,14.2h-2.5l-2.3-14.2
					c0,0.3,0,0.8,0,1.4c0,0.6,0,1,0,1.4v11.4h-2.4V136h3.7L183.7,149.3"/>
				<path class="st10" d="M126.8,181.4c8.7,0,16-1.5,16-1.5s1.1,6-16,6s-15.7-5.1-15.7-5.1S118.1,181.4,126.8,181.4"/>
				<path class="st12" d="M119.5,155.5c0,0,13.5,5.4,18.8,24.4c0,0-12.3-2.7-19.4,0.3H115C115,180.2,121.7,169.7,119.5,155.5"/>
				<path class="st10" d="M152.9,101.1c1.3,0,2.4,1.1,2.4,2.6c0,1.4-1.1,2.6-2.4,2.6c-1.3,0-2.4-1.1-2.4-2.6
					C150.5,102.2,151.6,101.1,152.9,101.1"/>
				<path class="st10" d="M149.1,100.4c1.2,0,2.2,1.1,2.2,2.4c0,1.3-1,2.4-2.2,2.4c-1.2,0-2.2-1.1-2.2-2.4
					C146.9,101.4,147.9,100.4,149.1,100.4"/>
				<path class="st10" d="M149.1,104.7c1.2,0,2.1,1,2.1,2.2c0,1.2-0.9,2.2-2.1,2.2c-1.1,0-2.1-1-2.1-2.2
					C147,105.7,148,104.7,149.1,104.7"/>
				<path class="st10" d="M151.9,103.4c1.2,0,2.2,1.1,2.2,2.4c0,1.3-1,2.4-2.2,2.4c-1.2,0-2.2-1.1-2.2-2.4
					C149.7,104.5,150.7,103.4,151.9,103.4"/>
				<polygon class="st13" points="163.4,146.5 160.3,146.5 161.9,139.8 				"/>
			</g>
		</g>
	</g>
</g>
</svg>
