<?xml version="1.0" encoding="utf-8"?>
<!-- Generator: Adobe Illustrator 22.1.0, SVG Export Plug-In . SVG Version: 6.00 Build 0)  -->
<svg version="1.1" xmlns="http://www.w3.org/2000/svg" xmlns:xlink="http://www.w3.org/1999/xlink" x="0px" y="0px"
	 viewBox="0 0 300 300" style="enable-background:new 0 0 300 300;" xml:space="preserve">
<style type="text/css">
	.st0{clip-path:url(#SVGID_2_);fill:#FFFFFF;}
	.st1{clip-path:url(#SVGID_2_);}
	.st2{clip-path:url(#SVGID_4_);fill:#FFFFFF;}
	.st3{clip-path:url(#SVGID_4_);fill:#49A044;}
	.st4{clip-path:url(#SVGID_4_);fill:#C7001B;}
	.st5{clip-path:url(#SVGID_4_);}
	.st6{clip-path:url(#SVGID_6_);fill:#C7001B;}
	.st7{clip-path:url(#SVGID_6_);fill:#FFFFFF;}
	.st8{clip-path:url(#SVGID_8_);fill:#BD1032;}
	.st9{clip-path:url(#SVGID_8_);fill:#FFFFFF;}
	.st10{clip-path:url(#SVGID_8_);fill:#050505;}
	.st11{clip-path:url(#SVGID_8_);}
	.st12{clip-path:url(#SVGID_10_);fill:#439B4C;}
	.st13{clip-path:url(#SVGID_12_);fill:#409A63;}
	.st14{clip-path:url(#SVGID_12_);fill:#FFFFFF;}
	.st15{clip-path:url(#SVGID_12_);fill:#EE7E46;}
</style>
<g id="Layer_2">
</g>
<g id="Layer_1">
	<g>
		<defs>
			<rect id="SVGID_1_" width="300" height="300"/>
		</defs>
		<clipPath id="SVGID_2_">
			<use xlink:href="#SVGID_1_"  style="overflow:visible;"/>
		</clipPath>
		<rect x="-11.5" y="-30" class="st0" width="324" height="335"/>
		<g class="st1">
			<g>
				<defs>
					<rect id="SVGID_3_" x="-106.6" y="0.3" width="513.3" height="299.4"/>
				</defs>
				<clipPath id="SVGID_4_">
					<use xlink:href="#SVGID_3_"  style="overflow:visible;"/>
				</clipPath>
				<rect x="-106.6" y="0.3" class="st2" width="513.3" height="299.4"/>
				<rect x="-106.6" y="0.3" class="st3" width="513.3" height="100"/>
				<rect x="-106.6" y="199.7" class="st4" width="513.3" height="100"/>
				<polygon class="st4" points="150,113.9 144.6,118.4 145.6,189.1 150,194.2 154.4,189.1 155.4,118.4 				"/>
				<g class="st5">
					<defs>
						<rect id="SVGID_5_" x="-106.6" y="0.3" width="513.3" height="299.4"/>
					</defs>
					<clipPath id="SVGID_6_">
						<use xlink:href="#SVGID_5_"  style="overflow:visible;"/>
					</clipPath>
					<path class="st6" d="M160.9,106.4c-2.2,3.5-6.8,4.6-10.3,2.4c-0.2-0.1-0.4-0.3-0.6-0.4c-3.3,2.5-8,1.8-10.5-1.5
						c-0.1-0.2-0.3-0.4-0.4-0.6c-0.9,3.5,1.2,7,4.7,7.9c2.2,0.6,4.6-0.1,6.2-1.7c2.5,2.6,6.6,2.6,9.1,0.1
						C160.8,111.1,161.5,108.7,160.9,106.4"/>
					<path class="st6" d="M163.6,116.3c14.5,19.7,10.2,47.4-9.5,61.8c-9,6.6-20.2,9.6-31.3,8.3c21,8.4,44.9-1.8,53.3-22.8
						C182.8,146.8,177.7,127.6,163.6,116.3"/>
					<path class="st6" d="M136.4,116.3c-14.5,19.7-10.2,47.4,9.5,61.8c9,6.6,20.2,9.6,31.3,8.3c-21,8.4-44.9-1.8-53.3-22.8
						C117.2,146.8,122.3,127.6,136.4,116.3"/>
					<path class="st6" d="M168.7,114.9c19.8,14.4,24.1,42,9.8,61.8c-0.7,1-1.5,1.9-2.3,2.9c17-9.2,23.4-30.5,14.2-47.5
						C185.8,123.7,178,117.5,168.7,114.9"/>
					<path class="st6" d="M131.3,114.9c-19.8,14.4-24.1,42-9.8,61.8c0.7,1,1.5,1.9,2.3,2.9c-17-9.2-23.4-30.5-14.2-47.5
						C114.2,123.7,122,117.5,131.3,114.9"/>
					<path class="st7" d="M-105.5,95.6h2.3v-4.8h7v4.8h11.7v-7.1h-7v2.4h4.7v2.4h-7v-4.8h-11.7V95.6z M-100.8,95.6h2.3v-2.4h-2.3
						V95.6z M-105.5,86h30.3v-2.4h-30.3V86z M-75.1,95.6h-7v-7.1h9.3v-4.8h2.3v9.5h2.3v-9.5h2.3v9.5h2.3v-9.5h2.3v11.9h-11.7v-4.8
						h-7v2.4h4.7V95.6z"/>
					<path class="st7" d="M-58.8,95.6h2.3v-4.8h7v4.8h11.7v-7.1h-7v2.4h4.7v2.4h-7v-4.8h-11.7V95.6z M-54.2,95.6h2.3v-2.4h-2.3V95.6
						z M-58.8,86h30.3v-2.4h-30.3V86z M-28.5,95.6h-7v-7.1h9.3v-4.8h2.3v9.5h2.3v-9.5h2.3v9.5h2.3v-9.5h2.3v11.9h-11.7v-4.8h-7v2.4
						h4.7V95.6z"/>
					<path class="st7" d="M-12.2,95.6h2.3v-4.8h7v4.8H8.8v-7.1h-7v2.4h4.7v2.4h-7v-4.8h-11.7V95.6z M-7.5,95.6h2.3v-2.4h-2.3V95.6z
						 M-12.2,86h30.3v-2.4h-30.3V86z M18.2,95.6h-7v-7.1h9.3v-4.8h2.3v9.5h2.3v-9.5h2.3v9.5h2.3v-9.5h2.3v11.9H20.5v-4.8h-7v2.4h4.7
						V95.6z"/>
					<path class="st7" d="M34.5,95.6h2.3v-4.8h7v4.8h11.7v-7.1h-7v2.4h4.7v2.4h-7v-4.8H34.5V95.6z M39.2,95.6h2.3v-2.4h-2.3V95.6z
						 M34.5,86h30.3v-2.4H34.5V86z M64.8,95.6h-7v-7.1h9.3v-4.8h2.3v9.5h2.3v-9.5h2.3v9.5h2.3v-9.5h2.3v11.9H67.2v-4.8h-7v2.4h4.7
						V95.6z"/>
					<path class="st7" d="M81.2,95.6h2.3v-4.8h7v4.8h11.7v-7.1h-7v2.4h4.7v2.4h-7v-4.8H81.2V95.6z M85.8,95.6h2.3v-2.4h-2.3V95.6z
						 M81.2,86h30.3v-2.4H81.2V86z M111.5,95.6h-7v-7.1h9.3v-4.8h2.3v9.5h2.3v-9.5h2.3v9.5h2.3v-9.5h2.3v11.9h-11.7v-4.8h-7v2.4h4.7
						V95.6z"/>
					<path class="st7" d="M127.8,95.6h2.3v-4.8h7v4.8h11.7v-7.1h-7v2.4h4.7v2.4h-7v-4.8h-11.7V95.6z M132.5,95.6h2.3v-2.4h-2.3V95.6
						z M127.8,86h30.3v-2.4h-30.3V86z M158.2,95.6h-7v-7.1h9.3v-4.8h2.3v9.5h2.3v-9.5h2.3v9.5h2.3v-9.5h2.3v11.9h-11.7v-4.8h-7v2.4
						h4.7V95.6z"/>
					<path class="st7" d="M174.5,95.6h2.3v-4.8h7v4.8h11.7v-7.1h-7v2.4h4.7v2.4h-7v-4.8h-11.7V95.6z M179.2,95.6h2.3v-2.4h-2.3V95.6
						z M174.5,86h30.3v-2.4h-30.3V86z M204.8,95.6h-7v-7.1h9.3v-4.8h2.3v9.5h2.3v-9.5h2.3v9.5h2.3v-9.5h2.3v11.9h-11.7v-4.8h-7v2.4
						h4.7V95.6z"/>
					<path class="st7" d="M221.2,95.6h2.3v-4.8h7v4.8h11.7v-7.1h-7v2.4h4.7v2.4h-7v-4.8h-11.7V95.6z M225.8,95.6h2.3v-2.4h-2.3V95.6
						z M221.2,86h30.3v-2.4h-30.3V86z M251.5,95.6h-7v-7.1h9.3v-4.8h2.3v9.5h2.3v-9.5h2.3v9.5h2.3v-9.5h2.3v11.9h-11.7v-4.8h-7v2.4
						h4.7V95.6z"/>
					<path class="st7" d="M267.8,95.6h2.3v-4.8h7v4.8h11.7v-7.1h-7v2.4h4.7v2.4h-7v-4.8h-11.7V95.6z M272.5,95.6h2.3v-2.4h-2.3V95.6
						z M267.8,86h30.3v-2.4h-30.3V86z M298.1,95.6h-7v-7.1h9.3v-4.8h2.3v9.5h2.3v-9.5h2.3v9.5h2.3v-9.5h2.3v11.9h-11.7v-4.8h-7v2.4
						h4.7V95.6z"/>
					<path class="st7" d="M314.5,95.6h2.3v-4.8h7v4.8h11.7v-7.1h-7v2.4h4.7v2.4h-7v-4.8h-11.7V95.6z M319.2,95.6h2.3v-2.4h-2.3V95.6
						z M314.5,86h30.3v-2.4h-30.3V86z M344.8,95.6h-7v-7.1h9.3v-4.8h2.3v9.5h2.3v-9.5h2.3v9.5h2.3v-9.5h2.3v11.9h-11.7v-4.8h-7v2.4
						h4.7V95.6z"/>
					<path class="st7" d="M361.1,95.6h2.3v-4.8h7v4.8h11.7v-7.1h-7v2.4h4.7v2.4h-7v-4.8h-11.7V95.6z M365.8,95.6h2.3v-2.4h-2.3V95.6
						z M361.1,86h30.3v-2.4h-30.3V86z M391.5,95.6h-7v-7.1h9.3v-4.8h2.3v9.5h2.3v-9.5h2.3v9.5h2.3v-9.5h2.3v11.9h-11.7v-4.8h-7v2.4
						h4.7V95.6z"/>
					<path class="st7" d="M-105.5,102.7h21v-4.8h-21V102.7z M-82.1,102.7h21v-4.8h-21V102.7z"/>
					<path class="st7" d="M-58.8,102.7h21v-4.8h-21V102.7z M-35.5,102.7h21v-4.8h-21V102.7z"/>
					<path class="st7" d="M-12.2,102.7h21v-4.8h-21V102.7z M11.2,102.7h21v-4.8h-21V102.7z"/>
					<path class="st7" d="M34.5,102.7h21v-4.8h-21V102.7z M57.8,102.7h21v-4.8h-21V102.7z"/>
					<path class="st7" d="M81.2,102.7h21v-4.8h-21V102.7z M104.5,102.7h21v-4.8h-21V102.7z"/>
					<path class="st7" d="M127.8,102.7h21v-4.8h-21V102.7z M151.2,102.7h21v-4.8h-21V102.7z"/>
					<path class="st7" d="M174.5,102.7h21v-4.8h-21V102.7z M197.8,102.7h21v-4.8h-21V102.7z"/>
					<path class="st7" d="M221.2,102.7h21v-4.8h-21V102.7z M244.5,102.7h21v-4.8h-21V102.7z"/>
					<path class="st7" d="M267.8,102.7h21v-4.8h-21V102.7z M291.2,102.7h21v-4.8h-21V102.7z"/>
					<path class="st7" d="M314.5,102.7h21v-4.8h-21V102.7z M337.8,102.7h21v-4.8h-21V102.7z"/>
					<path class="st7" d="M361.1,102.7h21v-4.8h-21V102.7z M384.5,102.7h21v-4.8h-21V102.7z"/>
					<path class="st7" d="M-105.5,216.3h2.3v-4.8h7v4.8h11.7v-7.1h-7v2.4h4.7v2.4h-7v-4.8h-11.7V216.3z M-100.8,216.3h2.3V214h-2.3
						V216.3z M-105.5,206.8h30.3v-2.4h-30.3V206.8z M-75.1,216.3h-7v-7.1h9.3v-4.8h2.3v9.5h2.3v-9.5h2.3v9.5h2.3v-9.5h2.3v11.9
						h-11.7v-4.8h-7v2.4h4.7V216.3z"/>
					<path class="st7" d="M-58.8,216.3h2.3v-4.8h7v4.8h11.7v-7.1h-7v2.4h4.7v2.4h-7v-4.8h-11.7V216.3z M-54.2,216.3h2.3V214h-2.3
						V216.3z M-58.8,206.8h30.3v-2.4h-30.3V206.8z M-28.5,216.3h-7v-7.1h9.3v-4.8h2.3v9.5h2.3v-9.5h2.3v9.5h2.3v-9.5h2.3v11.9h-11.7
						v-4.8h-7v2.4h4.7V216.3z"/>
					<path class="st7" d="M-12.2,216.3h2.3v-4.8h7v4.8H8.8v-7.1h-7v2.4h4.7v2.4h-7v-4.8h-11.7V216.3z M-7.5,216.3h2.3V214h-2.3
						V216.3z M-12.2,206.8h30.3v-2.4h-30.3V206.8z M18.2,216.3h-7v-7.1h9.3v-4.8h2.3v9.5h2.3v-9.5h2.3v9.5h2.3v-9.5h2.3v11.9H20.5
						v-4.8h-7v2.4h4.7V216.3z"/>
					<path class="st7" d="M34.5,216.3h2.3v-4.8h7v4.8h11.7v-7.1h-7v2.4h4.7v2.4h-7v-4.8H34.5V216.3z M39.2,216.3h2.3V214h-2.3V216.3
						z M34.5,206.8h30.3v-2.4H34.5V206.8z M64.8,216.3h-7v-7.1h9.3v-4.8h2.3v9.5h2.3v-9.5h2.3v9.5h2.3v-9.5h2.3v11.9H67.2v-4.8h-7
						v2.4h4.7V216.3z"/>
					<path class="st7" d="M81.2,216.3h2.3v-4.8h7v4.8h11.7v-7.1h-7v2.4h4.7v2.4h-7v-4.8H81.2V216.3z M85.8,216.3h2.3V214h-2.3V216.3
						z M81.2,206.8h30.3v-2.4H81.2V206.8z M111.5,216.3h-7v-7.1h9.3v-4.8h2.3v9.5h2.3v-9.5h2.3v9.5h2.3v-9.5h2.3v11.9h-11.7v-4.8h-7
						v2.4h4.7V216.3z"/>
					<path class="st7" d="M127.8,216.3h2.3v-4.8h7v4.8h11.7v-7.1h-7v2.4h4.7v2.4h-7v-4.8h-11.7V216.3z M132.5,216.3h2.3V214h-2.3
						V216.3z M127.8,206.8h30.3v-2.4h-30.3V206.8z M158.2,216.3h-7v-7.1h9.3v-4.8h2.3v9.5h2.3v-9.5h2.3v9.5h2.3v-9.5h2.3v11.9h-11.7
						v-4.8h-7v2.4h4.7V216.3z"/>
					<path class="st7" d="M174.5,216.3h2.3v-4.8h7v4.8h11.7v-7.1h-7v2.4h4.7v2.4h-7v-4.8h-11.7V216.3z M179.2,216.3h2.3V214h-2.3
						V216.3z M174.5,206.8h30.3v-2.4h-30.3V206.8z M204.8,216.3h-7v-7.1h9.3v-4.8h2.3v9.5h2.3v-9.5h2.3v9.5h2.3v-9.5h2.3v11.9h-11.7
						v-4.8h-7v2.4h4.7V216.3z"/>
					<path class="st7" d="M221.2,216.3h2.3v-4.8h7v4.8h11.7v-7.1h-7v2.4h4.7v2.4h-7v-4.8h-11.7V216.3z M225.8,216.3h2.3V214h-2.3
						V216.3z M221.2,206.8h30.3v-2.4h-30.3V206.8z M251.5,216.3h-7v-7.1h9.3v-4.8h2.3v9.5h2.3v-9.5h2.3v9.5h2.3v-9.5h2.3v11.9h-11.7
						v-4.8h-7v2.4h4.7V216.3z"/>
					<path class="st7" d="M267.8,216.3h2.3v-4.8h7v4.8h11.7v-7.1h-7v2.4h4.7v2.4h-7v-4.8h-11.7V216.3z M272.5,216.3h2.3V214h-2.3
						V216.3z M267.8,206.8h30.3v-2.4h-30.3V206.8z M298.1,216.3h-7v-7.1h9.3v-4.8h2.3v9.5h2.3v-9.5h2.3v9.5h2.3v-9.5h2.3v11.9h-11.7
						v-4.8h-7v2.4h4.7V216.3z"/>
					<path class="st7" d="M314.5,216.3h2.3v-4.8h7v4.8h11.7v-7.1h-7v2.4h4.7v2.4h-7v-4.8h-11.7V216.3z M319.2,216.3h2.3V214h-2.3
						V216.3z M314.5,206.8h30.3v-2.4h-30.3V206.8z M344.8,216.3h-7v-7.1h9.3v-4.8h2.3v9.5h2.3v-9.5h2.3v9.5h2.3v-9.5h2.3v11.9h-11.7
						v-4.8h-7v2.4h4.7V216.3z"/>
					<path class="st7" d="M361.1,216.3h2.3v-4.8h7v4.8h11.7v-7.1h-7v2.4h4.7v2.4h-7v-4.8h-11.7V216.3z M365.8,216.3h2.3V214h-2.3
						V216.3z M361.1,206.8h30.3v-2.4h-30.3V206.8z M391.5,216.3h-7v-7.1h9.3v-4.8h2.3v9.5h2.3v-9.5h2.3v9.5h2.3v-9.5h2.3v11.9h-11.7
						v-4.8h-7v2.4h4.7V216.3z"/>
					<path class="st7" d="M-105.5,202.1h21v-4.8h-21V202.1z M-82.1,202.1h21v-4.8h-21V202.1z"/>
					<path class="st7" d="M-58.8,202.1h21v-4.8h-21V202.1z M-35.5,202.1h21v-4.8h-21V202.1z"/>
					<path class="st7" d="M-12.2,202.1h21v-4.8h-21V202.1z M11.2,202.1h21v-4.8h-21V202.1z"/>
					<path class="st7" d="M34.5,202.1h21v-4.8h-21V202.1z M57.8,202.1h21v-4.8h-21V202.1z"/>
					<path class="st7" d="M81.2,202.1h21v-4.8h-21V202.1z M104.5,202.1h21v-4.8h-21V202.1z"/>
					<path class="st7" d="M127.8,202.1h21v-4.8h-21V202.1z M151.2,202.1h21v-4.8h-21V202.1z"/>
					<path class="st7" d="M174.5,202.1h21v-4.8h-21V202.1z M197.8,202.1h21v-4.8h-21V202.1z"/>
					<path class="st7" d="M221.2,202.1h21v-4.8h-21V202.1z M244.5,202.1h21v-4.8h-21V202.1z"/>
					<path class="st7" d="M267.8,202.1h21v-4.8h-21V202.1z M291.2,202.1h21v-4.8h-21V202.1z"/>
					<path class="st7" d="M314.5,202.1h21v-4.8h-21V202.1z M337.8,202.1h21v-4.8h-21V202.1z"/>
					<path class="st7" d="M361.1,202.1h21v-4.8h-21V202.1z M384.5,202.1h21v-4.8h-21V202.1z"/>
				</g>
			</g>
		</g>
		<g class="st1">
			<g>
				<defs>
					<rect id="SVGID_7_" x="-107.1" width="514.3" height="300"/>
				</defs>
				<clipPath id="SVGID_8_">
					<use xlink:href="#SVGID_7_"  style="overflow:visible;"/>
				</clipPath>
				<rect x="-107.1" class="st8" width="514.3" height="100"/>
				<rect x="-107.1" y="100" class="st9" width="514.3" height="100"/>
				<rect x="-107.1" y="200" class="st10" width="514.3" height="100"/>
				<g class="st11">
					<defs>
						<rect id="SVGID_9_" x="-107.1" width="514.3" height="300"/>
					</defs>
					<clipPath id="SVGID_10_">
						<use xlink:href="#SVGID_9_"  style="overflow:visible;"/>
					</clipPath>
					<path class="st12" d="M194.4,131.6c-0.6-0.3-1.3-0.8-1.5-1.1c-0.3-0.5-0.1-0.5,1.3-0.1c2.5,0.7,4.2,0.4,5.8-1l1.4-1.2l1.7,0.9
						c0.9,0.5,1.9,0.8,2.2,0.7c0.7-0.2,2.2-2.1,2.2-2.8c-0.1-0.8,0.6-0.6,1,0.3c0.7,1.8-0.3,3.8-2,4.3c-0.9,0.2-1.6,0.1-2.9-0.3
						c-1.6-0.5-1.8-0.5-2.6,0.1C199.1,132.6,196.6,132.7,194.4,131.6"/>
					<path class="st12" d="M200.6,125.8c-0.6-0.8-1.3-3.8-1.1-4.5c0.2-0.6,0.4-0.8,1-0.6c1,0.3,1.2,1,1.1,3.4
						C201.5,126.1,201.2,126.6,200.6,125.8"/>
					<path class="st12" d="M126.7,123.7c-0.2,1.4,2.5,5,3.8,5.6c-0.8,0.4-1.9,0.2-2.7,0.6c-4.3,4.3-20.1,19.7-23,23.4
						c8.5,0.2,18-0.1,26-0.5c0-5.8,5.5-6.1,9.2-8.2c1.9,3,6.7,2.8,7.2,7.2c0,5.4,0,13.5,0,19.3H74.4c-1.3,5.7-6.4,10-13.5,8.2
						c2.2-2.3,5.9-3.1,7.2-6.3c1.1-7-2.2-11.3-4.4-15.2c3.6-1.3,4.1-1.6,7.8-4.1c-2.6,7.8,6.7,6.9,13.5,6.8c0.2-2.6,0.1-5.8-1.9-6.2
						c2.6-1,3.1-1.3,7.2-4.8v10.5c16.3,0,33.9-0.1,50.5-0.1c0-3.3,0.9-8.6-1.7-8.6c-2.5,0-0.1,6.7-2,6.7H98c0-1.4,0-4.5,0-6.7
						c1.7-1.7,1.5-1.5,12.8-12.8C111.9,137.6,119.8,130.4,126.7,123.7"/>
					<path class="st12" d="M224.2,123.4c2.7,1.5,4.9,3.5,8.2,4.3c-0.4,1.4-1.6,1.9-1.9,3.4v29.5c3.7,0.8,4.5-1.3,6.3-2.4
						c0.5,4.7,3.5,9.3,3.4,13h-15.9V123.4z"/>
					<path class="st12" d="M203,139.2c0,0,5.8-4.9,5.8-5.1v25.7h4.2c0-9.8-0.1-19.7-0.1-28.8c1.7-1.7,5-4.1,5.8-5.9v46
						c-11.8,0-33.7,0-36.6,0c-0.5-9.5-0.6-19.5,10.5-17.3V150c-0.4-0.7-1,0.2-1.1-0.7c1.8-1.8,2.4-2.2,7.2-6.4c0,5,0.1,17,0.1,17
						c1.2,0,3.5,0,4.2,0C202.9,159.8,203,139.9,203,139.2 M189.2,159.6c0.8,1.2,3.5,1.2,3.3-0.8
						C192.1,157.1,188.6,157.7,189.2,159.6"/>
					<path class="st12" d="M83.2,174.4c1.2,0,2.2,1,2.2,2.2c0,1.2-1,2.2-2.2,2.2c-1.2,0-2.2-1-2.2-2.2C81,175.4,82,174.4,83.2,174.4
						"/>
					<path class="st12" d="M152.2,123.5c2.7,1.5,4.9,3.5,8.2,4.3c-0.4,1.4-1.6,1.9-1.9,3.4v29.5c3.7,0.8,4.5-1.3,6.3-2.4
						c0.5,4.7,3.5,9.3,3.4,13h-15.9V123.5z"/>
				</g>
			</g>
		</g>
		<g class="st1">
			<g>
				<defs>
					<rect id="SVGID_11_" x="-107.2" y="0" width="514.4" height="300.1"/>
				</defs>
				<clipPath id="SVGID_12_">
					<use xlink:href="#SVGID_11_"  style="overflow:visible;"/>
				</clipPath>
				<rect x="-107.2" y="0" class="st13" width="171.5" height="300.1"/>
				<rect x="64.3" y="0" class="st14" width="171.5" height="300.1"/>
				<rect x="235.7" y="0" class="st15" width="171.5" height="300.1"/>
			</g>
		</g>
	</g>
</g>
</svg>
