<?xml version="1.0" encoding="utf-8"?>
<!-- Generator: Adobe Illustrator 22.1.0, SVG Export Plug-In . SVG Version: 6.00 Build 0)  -->
<svg version="1.1" xmlns="http://www.w3.org/2000/svg" xmlns:xlink="http://www.w3.org/1999/xlink" x="0px" y="0px"
	 viewBox="0 0 300 300" style="enable-background:new 0 0 300 300;" xml:space="preserve">
<style type="text/css">
	.st0{clip-path:url(#SVGID_2_);fill:#FFFFFF;}
	.st1{clip-path:url(#SVGID_2_);}
	.st2{clip-path:url(#SVGID_4_);fill:#FFFFFF;}
	.st3{clip-path:url(#SVGID_4_);fill:#49A044;}
	.st4{clip-path:url(#SVGID_4_);fill:#C7001B;}
	.st5{clip-path:url(#SVGID_4_);}
	.st6{clip-path:url(#SVGID_6_);fill:#C7001B;}
	.st7{clip-path:url(#SVGID_6_);fill:#FFFFFF;}
	.st8{clip-path:url(#SVGID_8_);fill:#BD1032;}
	.st9{clip-path:url(#SVGID_8_);fill:#FFFFFF;}
	.st10{clip-path:url(#SVGID_8_);fill:#050505;}
	.st11{clip-path:url(#SVGID_8_);}
	.st12{clip-path:url(#SVGID_10_);fill:#439B4C;}
	.st13{clip-path:url(#SVGID_12_);fill:#409A63;}
	.st14{clip-path:url(#SVGID_12_);fill:#FFFFFF;}
	.st15{clip-path:url(#SVGID_12_);fill:#EE7E46;}
	.st16{clip-path:url(#SVGID_14_);}
	.st17{clip-path:url(#SVGID_16_);fill:#D50037;}
	.st18{clip-path:url(#SVGID_16_);}
	.st19{clip-path:url(#SVGID_18_);}
	.st20{clip-path:url(#SVGID_20_);fill:#F2DD30;}
	.st21{clip-path:url(#SVGID_18_);fill:#FFFFFF;}
	.st22{clip-path:url(#SVGID_18_);fill:#F2DD30;}
	.st23{clip-path:url(#SVGID_18_);fill:#F8E72B;}
	.st24{clip-path:url(#SVGID_22_);fill:#F2DD30;}
	.st25{clip-path:url(#SVGID_24_);fill:#F2DD30;}
	.st26{clip-path:url(#SVGID_26_);fill:#F2DD30;}
	.st27{clip-path:url(#SVGID_28_);fill:#FFFFFF;}
	.st28{clip-path:url(#SVGID_28_);fill:#313883;}
</style>
<g id="Layer_2">
</g>
<g id="Layer_1">
	<g>
		<defs>
			<rect id="SVGID_1_" width="300" height="300"/>
		</defs>
		<clipPath id="SVGID_2_">
			<use xlink:href="#SVGID_1_"  style="overflow:visible;"/>
		</clipPath>
		<rect x="-11.5" y="-30" class="st0" width="324" height="335"/>
		<g class="st1">
			<g>
				<defs>
					<rect id="SVGID_3_" x="-106.6" y="0.3" width="513.3" height="299.4"/>
				</defs>
				<clipPath id="SVGID_4_">
					<use xlink:href="#SVGID_3_"  style="overflow:visible;"/>
				</clipPath>
				<rect x="-106.6" y="0.3" class="st2" width="513.3" height="299.4"/>
				<rect x="-106.6" y="0.3" class="st3" width="513.3" height="100"/>
				<rect x="-106.6" y="199.7" class="st4" width="513.3" height="100"/>
				<polygon class="st4" points="150,113.9 144.6,118.4 145.6,189.1 150,194.2 154.4,189.1 155.4,118.4 				"/>
				<g class="st5">
					<defs>
						<rect id="SVGID_5_" x="-106.6" y="0.3" width="513.3" height="299.4"/>
					</defs>
					<clipPath id="SVGID_6_">
						<use xlink:href="#SVGID_5_"  style="overflow:visible;"/>
					</clipPath>
					<path class="st6" d="M160.9,106.4c-2.2,3.5-6.8,4.6-10.3,2.4c-0.2-0.1-0.4-0.3-0.6-0.4c-3.3,2.5-8,1.8-10.5-1.5
						c-0.1-0.2-0.3-0.4-0.4-0.6c-0.9,3.5,1.2,7,4.7,7.9c2.2,0.6,4.6-0.1,6.2-1.7c2.5,2.6,6.6,2.6,9.1,0.1
						C160.8,111.1,161.5,108.7,160.9,106.4"/>
					<path class="st6" d="M163.6,116.3c14.5,19.7,10.2,47.4-9.5,61.8c-9,6.6-20.2,9.6-31.3,8.3c21,8.4,44.9-1.8,53.3-22.8
						C182.8,146.8,177.7,127.6,163.6,116.3"/>
					<path class="st6" d="M136.4,116.3c-14.5,19.7-10.2,47.4,9.5,61.8c9,6.6,20.2,9.6,31.3,8.3c-21,8.4-44.9-1.8-53.3-22.8
						C117.2,146.8,122.3,127.6,136.4,116.3"/>
					<path class="st6" d="M168.7,114.9c19.8,14.4,24.1,42,9.8,61.8c-0.7,1-1.5,1.9-2.3,2.9c17-9.2,23.4-30.5,14.2-47.5
						C185.8,123.7,178,117.5,168.7,114.9"/>
					<path class="st6" d="M131.3,114.9c-19.8,14.4-24.1,42-9.8,61.8c0.7,1,1.5,1.9,2.3,2.9c-17-9.2-23.4-30.5-14.2-47.5
						C114.2,123.7,122,117.5,131.3,114.9"/>
					<path class="st7" d="M-105.5,95.6h2.3v-4.8h7v4.8h11.7v-7.1h-7v2.4h4.7v2.4h-7v-4.8h-11.7V95.6z M-100.8,95.6h2.3v-2.4h-2.3
						V95.6z M-105.5,86h30.3v-2.4h-30.3V86z M-75.1,95.6h-7v-7.1h9.3v-4.8h2.3v9.5h2.3v-9.5h2.3v9.5h2.3v-9.5h2.3v11.9h-11.7v-4.8
						h-7v2.4h4.7V95.6z"/>
					<path class="st7" d="M-58.8,95.6h2.3v-4.8h7v4.8h11.7v-7.1h-7v2.4h4.7v2.4h-7v-4.8h-11.7V95.6z M-54.2,95.6h2.3v-2.4h-2.3V95.6
						z M-58.8,86h30.3v-2.4h-30.3V86z M-28.5,95.6h-7v-7.1h9.3v-4.8h2.3v9.5h2.3v-9.5h2.3v9.5h2.3v-9.5h2.3v11.9h-11.7v-4.8h-7v2.4
						h4.7V95.6z"/>
					<path class="st7" d="M-12.2,95.6h2.3v-4.8h7v4.8H8.8v-7.1h-7v2.4h4.7v2.4h-7v-4.8h-11.7V95.6z M-7.5,95.6h2.3v-2.4h-2.3V95.6z
						 M-12.2,86h30.3v-2.4h-30.3V86z M18.2,95.6h-7v-7.1h9.3v-4.8h2.3v9.5h2.3v-9.5h2.3v9.5h2.3v-9.5h2.3v11.9H20.5v-4.8h-7v2.4h4.7
						V95.6z"/>
					<path class="st7" d="M34.5,95.6h2.3v-4.8h7v4.8h11.7v-7.1h-7v2.4h4.7v2.4h-7v-4.8H34.5V95.6z M39.2,95.6h2.3v-2.4h-2.3V95.6z
						 M34.5,86h30.3v-2.4H34.5V86z M64.8,95.6h-7v-7.1h9.3v-4.8h2.3v9.5h2.3v-9.5h2.3v9.5h2.3v-9.5h2.3v11.9H67.2v-4.8h-7v2.4h4.7
						V95.6z"/>
					<path class="st7" d="M81.2,95.6h2.3v-4.8h7v4.8h11.7v-7.1h-7v2.4h4.7v2.4h-7v-4.8H81.2V95.6z M85.8,95.6h2.3v-2.4h-2.3V95.6z
						 M81.2,86h30.3v-2.4H81.2V86z M111.5,95.6h-7v-7.1h9.3v-4.8h2.3v9.5h2.3v-9.5h2.3v9.5h2.3v-9.5h2.3v11.9h-11.7v-4.8h-7v2.4h4.7
						V95.6z"/>
					<path class="st7" d="M127.8,95.6h2.3v-4.8h7v4.8h11.7v-7.1h-7v2.4h4.7v2.4h-7v-4.8h-11.7V95.6z M132.5,95.6h2.3v-2.4h-2.3V95.6
						z M127.8,86h30.3v-2.4h-30.3V86z M158.2,95.6h-7v-7.1h9.3v-4.8h2.3v9.5h2.3v-9.5h2.3v9.5h2.3v-9.5h2.3v11.9h-11.7v-4.8h-7v2.4
						h4.7V95.6z"/>
					<path class="st7" d="M174.5,95.6h2.3v-4.8h7v4.8h11.7v-7.1h-7v2.4h4.7v2.4h-7v-4.8h-11.7V95.6z M179.2,95.6h2.3v-2.4h-2.3V95.6
						z M174.5,86h30.3v-2.4h-30.3V86z M204.8,95.6h-7v-7.1h9.3v-4.8h2.3v9.5h2.3v-9.5h2.3v9.5h2.3v-9.5h2.3v11.9h-11.7v-4.8h-7v2.4
						h4.7V95.6z"/>
					<path class="st7" d="M221.2,95.6h2.3v-4.8h7v4.8h11.7v-7.1h-7v2.4h4.7v2.4h-7v-4.8h-11.7V95.6z M225.8,95.6h2.3v-2.4h-2.3V95.6
						z M221.2,86h30.3v-2.4h-30.3V86z M251.5,95.6h-7v-7.1h9.3v-4.8h2.3v9.5h2.3v-9.5h2.3v9.5h2.3v-9.5h2.3v11.9h-11.7v-4.8h-7v2.4
						h4.7V95.6z"/>
					<path class="st7" d="M267.8,95.6h2.3v-4.8h7v4.8h11.7v-7.1h-7v2.4h4.7v2.4h-7v-4.8h-11.7V95.6z M272.5,95.6h2.3v-2.4h-2.3V95.6
						z M267.8,86h30.3v-2.4h-30.3V86z M298.1,95.6h-7v-7.1h9.3v-4.8h2.3v9.5h2.3v-9.5h2.3v9.5h2.3v-9.5h2.3v11.9h-11.7v-4.8h-7v2.4
						h4.7V95.6z"/>
					<path class="st7" d="M314.5,95.6h2.3v-4.8h7v4.8h11.7v-7.1h-7v2.4h4.7v2.4h-7v-4.8h-11.7V95.6z M319.2,95.6h2.3v-2.4h-2.3V95.6
						z M314.5,86h30.3v-2.4h-30.3V86z M344.8,95.6h-7v-7.1h9.3v-4.8h2.3v9.5h2.3v-9.5h2.3v9.5h2.3v-9.5h2.3v11.9h-11.7v-4.8h-7v2.4
						h4.7V95.6z"/>
					<path class="st7" d="M361.1,95.6h2.3v-4.8h7v4.8h11.7v-7.1h-7v2.4h4.7v2.4h-7v-4.8h-11.7V95.6z M365.8,95.6h2.3v-2.4h-2.3V95.6
						z M361.1,86h30.3v-2.4h-30.3V86z M391.5,95.6h-7v-7.1h9.3v-4.8h2.3v9.5h2.3v-9.5h2.3v9.5h2.3v-9.5h2.3v11.9h-11.7v-4.8h-7v2.4
						h4.7V95.6z"/>
					<path class="st7" d="M-105.5,102.7h21v-4.8h-21V102.7z M-82.1,102.7h21v-4.8h-21V102.7z"/>
					<path class="st7" d="M-58.8,102.7h21v-4.8h-21V102.7z M-35.5,102.7h21v-4.8h-21V102.7z"/>
					<path class="st7" d="M-12.2,102.7h21v-4.8h-21V102.7z M11.2,102.7h21v-4.8h-21V102.7z"/>
					<path class="st7" d="M34.5,102.7h21v-4.8h-21V102.7z M57.8,102.7h21v-4.8h-21V102.7z"/>
					<path class="st7" d="M81.2,102.7h21v-4.8h-21V102.7z M104.5,102.7h21v-4.8h-21V102.7z"/>
					<path class="st7" d="M127.8,102.7h21v-4.8h-21V102.7z M151.2,102.7h21v-4.8h-21V102.7z"/>
					<path class="st7" d="M174.5,102.7h21v-4.8h-21V102.7z M197.8,102.7h21v-4.8h-21V102.7z"/>
					<path class="st7" d="M221.2,102.7h21v-4.8h-21V102.7z M244.5,102.7h21v-4.8h-21V102.7z"/>
					<path class="st7" d="M267.8,102.7h21v-4.8h-21V102.7z M291.2,102.7h21v-4.8h-21V102.7z"/>
					<path class="st7" d="M314.5,102.7h21v-4.8h-21V102.7z M337.8,102.7h21v-4.8h-21V102.7z"/>
					<path class="st7" d="M361.1,102.7h21v-4.8h-21V102.7z M384.5,102.7h21v-4.8h-21V102.7z"/>
					<path class="st7" d="M-105.5,216.3h2.3v-4.8h7v4.8h11.7v-7.1h-7v2.4h4.7v2.4h-7v-4.8h-11.7V216.3z M-100.8,216.3h2.3V214h-2.3
						V216.3z M-105.5,206.8h30.3v-2.4h-30.3V206.8z M-75.1,216.3h-7v-7.1h9.3v-4.8h2.3v9.5h2.3v-9.5h2.3v9.5h2.3v-9.5h2.3v11.9
						h-11.7v-4.8h-7v2.4h4.7V216.3z"/>
					<path class="st7" d="M-58.8,216.3h2.3v-4.8h7v4.8h11.7v-7.1h-7v2.4h4.7v2.4h-7v-4.8h-11.7V216.3z M-54.2,216.3h2.3V214h-2.3
						V216.3z M-58.8,206.8h30.3v-2.4h-30.3V206.8z M-28.5,216.3h-7v-7.1h9.3v-4.8h2.3v9.5h2.3v-9.5h2.3v9.5h2.3v-9.5h2.3v11.9h-11.7
						v-4.8h-7v2.4h4.7V216.3z"/>
					<path class="st7" d="M-12.2,216.3h2.3v-4.8h7v4.8H8.8v-7.1h-7v2.4h4.7v2.4h-7v-4.8h-11.7V216.3z M-7.5,216.3h2.3V214h-2.3
						V216.3z M-12.2,206.8h30.3v-2.4h-30.3V206.8z M18.2,216.3h-7v-7.1h9.3v-4.8h2.3v9.5h2.3v-9.5h2.3v9.5h2.3v-9.5h2.3v11.9H20.5
						v-4.8h-7v2.4h4.7V216.3z"/>
					<path class="st7" d="M34.5,216.3h2.3v-4.8h7v4.8h11.7v-7.1h-7v2.4h4.7v2.4h-7v-4.8H34.5V216.3z M39.2,216.3h2.3V214h-2.3V216.3
						z M34.5,206.8h30.3v-2.4H34.5V206.8z M64.8,216.3h-7v-7.1h9.3v-4.8h2.3v9.5h2.3v-9.5h2.3v9.5h2.3v-9.5h2.3v11.9H67.2v-4.8h-7
						v2.4h4.7V216.3z"/>
					<path class="st7" d="M81.2,216.3h2.3v-4.8h7v4.8h11.7v-7.1h-7v2.4h4.7v2.4h-7v-4.8H81.2V216.3z M85.8,216.3h2.3V214h-2.3V216.3
						z M81.2,206.8h30.3v-2.4H81.2V206.8z M111.5,216.3h-7v-7.1h9.3v-4.8h2.3v9.5h2.3v-9.5h2.3v9.5h2.3v-9.5h2.3v11.9h-11.7v-4.8h-7
						v2.4h4.7V216.3z"/>
					<path class="st7" d="M127.8,216.3h2.3v-4.8h7v4.8h11.7v-7.1h-7v2.4h4.7v2.4h-7v-4.8h-11.7V216.3z M132.5,216.3h2.3V214h-2.3
						V216.3z M127.8,206.8h30.3v-2.4h-30.3V206.8z M158.2,216.3h-7v-7.1h9.3v-4.8h2.3v9.5h2.3v-9.5h2.3v9.5h2.3v-9.5h2.3v11.9h-11.7
						v-4.8h-7v2.4h4.7V216.3z"/>
					<path class="st7" d="M174.5,216.3h2.3v-4.8h7v4.8h11.7v-7.1h-7v2.4h4.7v2.4h-7v-4.8h-11.7V216.3z M179.2,216.3h2.3V214h-2.3
						V216.3z M174.5,206.8h30.3v-2.4h-30.3V206.8z M204.8,216.3h-7v-7.1h9.3v-4.8h2.3v9.5h2.3v-9.5h2.3v9.5h2.3v-9.5h2.3v11.9h-11.7
						v-4.8h-7v2.4h4.7V216.3z"/>
					<path class="st7" d="M221.2,216.3h2.3v-4.8h7v4.8h11.7v-7.1h-7v2.4h4.7v2.4h-7v-4.8h-11.7V216.3z M225.8,216.3h2.3V214h-2.3
						V216.3z M221.2,206.8h30.3v-2.4h-30.3V206.8z M251.5,216.3h-7v-7.1h9.3v-4.8h2.3v9.5h2.3v-9.5h2.3v9.5h2.3v-9.5h2.3v11.9h-11.7
						v-4.8h-7v2.4h4.7V216.3z"/>
					<path class="st7" d="M267.8,216.3h2.3v-4.8h7v4.8h11.7v-7.1h-7v2.4h4.7v2.4h-7v-4.8h-11.7V216.3z M272.5,216.3h2.3V214h-2.3
						V216.3z M267.8,206.8h30.3v-2.4h-30.3V206.8z M298.1,216.3h-7v-7.1h9.3v-4.8h2.3v9.5h2.3v-9.5h2.3v9.5h2.3v-9.5h2.3v11.9h-11.7
						v-4.8h-7v2.4h4.7V216.3z"/>
					<path class="st7" d="M314.5,216.3h2.3v-4.8h7v4.8h11.7v-7.1h-7v2.4h4.7v2.4h-7v-4.8h-11.7V216.3z M319.2,216.3h2.3V214h-2.3
						V216.3z M314.5,206.8h30.3v-2.4h-30.3V206.8z M344.8,216.3h-7v-7.1h9.3v-4.8h2.3v9.5h2.3v-9.5h2.3v9.5h2.3v-9.5h2.3v11.9h-11.7
						v-4.8h-7v2.4h4.7V216.3z"/>
					<path class="st7" d="M361.1,216.3h2.3v-4.8h7v4.8h11.7v-7.1h-7v2.4h4.7v2.4h-7v-4.8h-11.7V216.3z M365.8,216.3h2.3V214h-2.3
						V216.3z M361.1,206.8h30.3v-2.4h-30.3V206.8z M391.5,216.3h-7v-7.1h9.3v-4.8h2.3v9.5h2.3v-9.5h2.3v9.5h2.3v-9.5h2.3v11.9h-11.7
						v-4.8h-7v2.4h4.7V216.3z"/>
					<path class="st7" d="M-105.5,202.1h21v-4.8h-21V202.1z M-82.1,202.1h21v-4.8h-21V202.1z"/>
					<path class="st7" d="M-58.8,202.1h21v-4.8h-21V202.1z M-35.5,202.1h21v-4.8h-21V202.1z"/>
					<path class="st7" d="M-12.2,202.1h21v-4.8h-21V202.1z M11.2,202.1h21v-4.8h-21V202.1z"/>
					<path class="st7" d="M34.5,202.1h21v-4.8h-21V202.1z M57.8,202.1h21v-4.8h-21V202.1z"/>
					<path class="st7" d="M81.2,202.1h21v-4.8h-21V202.1z M104.5,202.1h21v-4.8h-21V202.1z"/>
					<path class="st7" d="M127.8,202.1h21v-4.8h-21V202.1z M151.2,202.1h21v-4.8h-21V202.1z"/>
					<path class="st7" d="M174.5,202.1h21v-4.8h-21V202.1z M197.8,202.1h21v-4.8h-21V202.1z"/>
					<path class="st7" d="M221.2,202.1h21v-4.8h-21V202.1z M244.5,202.1h21v-4.8h-21V202.1z"/>
					<path class="st7" d="M267.8,202.1h21v-4.8h-21V202.1z M291.2,202.1h21v-4.8h-21V202.1z"/>
					<path class="st7" d="M314.5,202.1h21v-4.8h-21V202.1z M337.8,202.1h21v-4.8h-21V202.1z"/>
					<path class="st7" d="M361.1,202.1h21v-4.8h-21V202.1z M384.5,202.1h21v-4.8h-21V202.1z"/>
				</g>
			</g>
		</g>
		<g class="st1">
			<g>
				<defs>
					<rect id="SVGID_7_" x="-107.1" width="514.3" height="300"/>
				</defs>
				<clipPath id="SVGID_8_">
					<use xlink:href="#SVGID_7_"  style="overflow:visible;"/>
				</clipPath>
				<rect x="-107.1" class="st8" width="514.3" height="100"/>
				<rect x="-107.1" y="100" class="st9" width="514.3" height="100"/>
				<rect x="-107.1" y="200" class="st10" width="514.3" height="100"/>
				<g class="st11">
					<defs>
						<rect id="SVGID_9_" x="-107.1" width="514.3" height="300"/>
					</defs>
					<clipPath id="SVGID_10_">
						<use xlink:href="#SVGID_9_"  style="overflow:visible;"/>
					</clipPath>
					<path class="st12" d="M194.4,131.6c-0.6-0.3-1.3-0.8-1.5-1.1c-0.3-0.5-0.1-0.5,1.3-0.1c2.5,0.7,4.2,0.4,5.8-1l1.4-1.2l1.7,0.9
						c0.9,0.5,1.9,0.8,2.2,0.7c0.7-0.2,2.2-2.1,2.2-2.8c-0.1-0.8,0.6-0.6,1,0.3c0.7,1.8-0.3,3.8-2,4.3c-0.9,0.2-1.6,0.1-2.9-0.3
						c-1.6-0.5-1.8-0.5-2.6,0.1C199.1,132.6,196.6,132.7,194.4,131.6"/>
					<path class="st12" d="M200.6,125.8c-0.6-0.8-1.3-3.8-1.1-4.5c0.2-0.6,0.4-0.8,1-0.6c1,0.3,1.2,1,1.1,3.4
						C201.5,126.1,201.2,126.6,200.6,125.8"/>
					<path class="st12" d="M126.7,123.7c-0.2,1.4,2.5,5,3.8,5.6c-0.8,0.4-1.9,0.2-2.7,0.6c-4.3,4.3-20.1,19.7-23,23.4
						c8.5,0.2,18-0.1,26-0.5c0-5.8,5.5-6.1,9.2-8.2c1.9,3,6.7,2.8,7.2,7.2c0,5.4,0,13.5,0,19.3H74.4c-1.3,5.7-6.4,10-13.5,8.2
						c2.2-2.3,5.9-3.1,7.2-6.3c1.1-7-2.2-11.3-4.4-15.2c3.6-1.3,4.1-1.6,7.8-4.1c-2.6,7.8,6.7,6.9,13.5,6.8c0.2-2.6,0.1-5.8-1.9-6.2
						c2.6-1,3.1-1.3,7.2-4.8v10.5c16.3,0,33.9-0.1,50.5-0.1c0-3.3,0.9-8.6-1.7-8.6c-2.5,0-0.1,6.7-2,6.7H98c0-1.4,0-4.5,0-6.7
						c1.7-1.7,1.5-1.5,12.8-12.8C111.9,137.6,119.8,130.4,126.7,123.7"/>
					<path class="st12" d="M224.2,123.4c2.7,1.5,4.9,3.5,8.2,4.3c-0.4,1.4-1.6,1.9-1.9,3.4v29.5c3.7,0.8,4.5-1.3,6.3-2.4
						c0.5,4.7,3.5,9.3,3.4,13h-15.9V123.4z"/>
					<path class="st12" d="M203,139.2c0,0,5.8-4.9,5.8-5.1v25.7h4.2c0-9.8-0.1-19.7-0.1-28.8c1.7-1.7,5-4.1,5.8-5.9v46
						c-11.8,0-33.7,0-36.6,0c-0.5-9.5-0.6-19.5,10.5-17.3V150c-0.4-0.7-1,0.2-1.1-0.7c1.8-1.8,2.4-2.2,7.2-6.4c0,5,0.1,17,0.1,17
						c1.2,0,3.5,0,4.2,0C202.9,159.8,203,139.9,203,139.2 M189.2,159.6c0.8,1.2,3.5,1.2,3.3-0.8
						C192.1,157.1,188.6,157.7,189.2,159.6"/>
					<path class="st12" d="M83.2,174.4c1.2,0,2.2,1,2.2,2.2c0,1.2-1,2.2-2.2,2.2c-1.2,0-2.2-1-2.2-2.2C81,175.4,82,174.4,83.2,174.4
						"/>
					<path class="st12" d="M152.2,123.5c2.7,1.5,4.9,3.5,8.2,4.3c-0.4,1.4-1.6,1.9-1.9,3.4v29.5c3.7,0.8,4.5-1.3,6.3-2.4
						c0.5,4.7,3.5,9.3,3.4,13h-15.9V123.5z"/>
				</g>
			</g>
		</g>
		<g class="st1">
			<g>
				<defs>
					<rect id="SVGID_11_" x="-107.2" y="0" width="514.4" height="300.1"/>
				</defs>
				<clipPath id="SVGID_12_">
					<use xlink:href="#SVGID_11_"  style="overflow:visible;"/>
				</clipPath>
				<rect x="-107.2" y="0" class="st13" width="171.5" height="300.1"/>
				<rect x="64.3" y="0" class="st14" width="171.5" height="300.1"/>
				<rect x="235.7" y="0" class="st15" width="171.5" height="300.1"/>
			</g>
		</g>
		<g class="st1">
			<g>
				<defs>
					<rect id="SVGID_13_" x="-107.8" y="-0.4" width="515.5" height="300.7"/>
				</defs>
				<clipPath id="SVGID_14_">
					<use xlink:href="#SVGID_13_"  style="overflow:visible;"/>
				</clipPath>
				<g class="st16">
					<defs>
						<rect id="SVGID_15_" x="-107.8" y="-0.4" width="515.5" height="300.7"/>
					</defs>
					<clipPath id="SVGID_16_">
						<use xlink:href="#SVGID_15_"  style="overflow:visible;"/>
					</clipPath>
					<rect x="-107.8" y="-0.4" class="st17" width="515.5" height="300.7"/>
					<g class="st18">
						<defs>
							<rect id="SVGID_17_" x="-107.8" y="-0.4" width="515.5" height="300.7"/>
						</defs>
						<clipPath id="SVGID_18_">
							<use xlink:href="#SVGID_17_"  style="overflow:visible;"/>
						</clipPath>
						<g class="st19">
							<g>
								<defs>
									<rect id="SVGID_19_" x="154.6" y="201.6" width="14.7" height="16.7"/>
								</defs>
								<clipPath id="SVGID_20_">
									<use xlink:href="#SVGID_19_"  style="overflow:visible;"/>
								</clipPath>
								<path class="st20" d="M158.5,213.5c0.1-0.3,0.3-3,0.2-3s-4.1-4.8-4.1-4.8c0.1,0,5.2,1.1,5.2,1c0-0.2,2-5,2-5.1
									c0-0.1,2.5,5.9,2.5,5.9l5,2.2l-3.5,2.9c0,0,0.8,5.6,0.8,5.7c0,0.1-3.5-3.4-3.5-3.4l-3.9,0.4
									C159.2,215.5,158.6,213.7,158.5,213.5L158.5,213.5z"/>
							</g>
						</g>
						<g class="st19">
							<path d="M166.5,218.7c-0.2,0-0.3,0-3.8-3.4l-3.6,0.5c-0.6-1-0.9-1.9-1-2.1c0-0.6,0.1-2.9,0.1-3.1c-0.1,0.2-4.1-4.8-4.1-4.9
								c0.4-0.4,0.5-0.4,1.3-0.2c1,0.2,3.3,0.7,4,0.8c0-0.2,0.3-1,1.1-3c0.4-0.9,0.7-1.7,0.8-1.9c0.2-0.1,0.4-0.2,0.6,0.1h0.1
								c0,0,0,0.1,0,0.1c0.4,0.6,1,2.1,2.5,5.6l5.4,2.2l-4,3.3c0.2,0.1,0.9,5.3,0.9,5.4v0.4H166.5
								C166.6,218.7,166.6,218.7,166.5,218.7L166.5,218.7z M163,214.6c0.2,0.1,2,1.8,3.1,2.8c-0.2-1.6-0.7-4.7-0.7-4.7l3.2-2.9
								l-4.5-2c-0.2-0.2-1.6-3.6-2.3-5.2c-0.1,0.3-0.3,0.6-0.4,1.1c-0.5,1.3-1.2,2.9-1.2,3.1c-0.9,0.3-2.7,0-4.6-0.5
								c1.1,1.3,3.1,3.7,3.3,3.9c0.3,0.4,0,2.7,0,3.3l0,0c0.1,0,0.3,0.4,0.7,1.8L163,214.6L163,214.6z"/>
						</g>
						<path class="st21" d="M131.2,139.6c-3.3,1.7-16.2,16.4-17.9,18.7c-1.5,3.3-4.4,7.5-7.3,10.2c-3.2,2.4-4.9,5.7-4.5,8.8
							c0,3.9,2.1,6.5,3.8,9.2c1,1.2,2.4,2,3.9,2.1c3,0.4,3.3,1.3,4.8,1.9c5.9,8,14.7,14,21,18.7c4,2.1,6.9,4.3,7.8,5.4
							c1.9,3.5,1.5,7,1.3,8.7c-1.6,5.9-3.1,11.8-4.7,17.8c-0.8,4.8,3.4,3.8,3.6,2.8c1.9-2.5,4.7-0.7,8.8-15c1.9-2.5,3.7-5,5.6-7.5
							c0,0,2.1-0.9,2.1-1.1c3.3-3.9,0.8-6.1-1.1-6.8c-1.4-0.5-2.7-1-4.1-1.5c0,0-4.7-4.7-4.9-4.7c-2.2-6.5-13.2-20.4-15.8-22.3
							c-1.8-1.8-2.6-2.6-4.3-3.6c-2.6-1.2-3.4-1.6-5-2.3c-1.3-0.5-0.4-2,0.5-2.6c8.7-4.7,15.6-10,23.9-15.3c0.4-0.3,0.9-0.6,1.3-0.9
							c-1-5.7-2-11.4-3-17.1c-4.6-1.6-9.3-3.3-13.9-4.9C132.4,138.6,131.9,139.1,131.2,139.6L131.2,139.6z"/>
						<g class="st19">
							<path d="M141.3,245L141.3,245c-0.7,0-1.3-0.3-1.8-0.8c-0.6-0.7-0.8-1.8-0.5-3.3l4.7-17.8c0.5-3.2,0.1-5.9-1.2-8.4
								c-0.9-1.1-3.6-3.1-7.7-5.3l-2.4-1.7c-6-4.4-13.6-9.9-18.8-17c-0.4-0.1-0.8-0.3-1.1-0.6c-0.7-0.4-1.5-0.9-3.4-1.2
								c-1.5-0.1-3-0.9-4.1-2.3l-0.8-1.2c-1.6-2.4-3.2-4.8-3.1-8.2c-0.4-3.1,1.3-6.5,4.6-9.1c2.7-2.5,5.6-6.5,7.2-10.1
								c1.5-2,14.5-17,18.1-18.8l0.5-0.5c0.4-0.3,0.8-0.7,1.3-1l14.3,4.9l3.2,17.4l-1.5,1.2c-2.8,1.8-5.5,3.6-8.1,5.4
								c-5.2,3.5-10.1,6.8-15.9,10c-0.5,0.4-1,1.1-0.9,1.5c1.9,1,2.7,1.4,5,2.5c2.2,1.3,3.1,2.1,4.8,3.9c2.6,2,13.5,15.7,15.8,22.4
								l0,0c0.1,0,0.9,0.7,4.9,4.7l3.9,1.4c0.5,0.2,2.3,1,2.8,2.8c0.4,1.4-0.2,3-1.6,4.6c0.1,0,0.1,0.2-2.3,1.2l-5.4,7.4
								c-3.1,10.8-5.5,12.5-7.3,13.7c-0.6,0.4-1,0.7-1.5,1.2C143.2,244.6,142.1,245,141.3,245L141.3,245z M133,138.5
								c-0.1,0.3-0.5,0.6-0.9,1l-0.6,0.5c-3.3,1.7-16,16.2-17.8,18.6c-1.6,3.5-4.6,7.7-7.4,10.3c-3.2,2.4-4.8,5.5-4.4,8.4
								c0,3.2,1.5,5.6,3,7.9l0.8,1.2c1,1.2,2.2,1.9,3.6,2c2.1,0.3,2.9,0.8,3.7,1.3c0.4,0.2,0.7,0.4,1.2,0.6
								c5.3,7.2,12.8,12.6,18.8,17l2.4,1.7c4.1,2.1,6.9,4.3,7.9,5.5c1.4,2.7,1.8,5.6,1.3,9l-4.7,17.8c-0.2,1.2-0.1,2.1,0.4,2.7
								c0.4,0.4,0.8,0.5,1.2,0.5l0,0c0.7,0,1.3-0.4,1.4-0.5c0.6-0.8,1.1-1.2,1.7-1.6c1.7-1.2,4-2.8,7.1-13.4l5.6-7.6
								c1-0.5,2-0.9,2.1-1.1c1.2-1.5,1.7-2.8,1.4-4c-0.4-1.5-1.9-2.1-2.3-2.3l-4.1-1.5c-1.8-1.8-4.6-4.5-5-4.7
								c-2.4-6.6-13.3-20.4-15.8-22.4c-1.8-1.9-2.7-2.7-4.2-3.6c-2.6-1.2-3.4-1.6-4.9-2.2c-0.6-0.3-0.8-0.7-0.9-1
								c-0.1-0.8,0.6-1.7,1.2-2.3c5.8-3.2,10.7-6.5,15.9-10c2.6-1.8,5.3-3.6,8.1-5.4l1.3-0.8l-3.2-16.7L133,138.5L133,138.5z"/>
						</g>
						<path class="st22" d="M142.8,229.7c0-0.2,8.7-1.8,8.7-1.8s-1,3.2-1.1,3.2l-8.6,2.6L142.8,229.7z"/>
						<g class="st19">
							<path d="M120.6,197.3l-0.7-0.3c1.6-4.4,6.2-8.1,9.7-9.2l0.2,0.7C127,189.4,122.3,192.7,120.6,197.3L120.6,197.3z"/>
						</g>
						<g class="st19">
							<path d="M141.3,235.4l-0.6-0.5c0.1-0.1,0.7-0.7,1.2-1l0.9-0.4c0.7-0.3,1.6-0.6,2.1-0.7c0.6-0.2,1.3-0.4,2-0.6l0.9-0.2
								c0.4-0.1,0.7-0.2,1.2-0.3c0.6-0.3,1.2-0.4,1.9-0.6l0.2,0.7c-0.6,0.2-1.2,0.3-1.8,0.6c-0.5,0.1-0.9,0.2-1.2,0.3l-0.9,0.2
								c-0.6,0.2-1.3,0.4-2,0.6c-0.4,0.1-1.3,0.4-2,0.7l-0.9,0.3C141.9,234.9,141.3,235.3,141.3,235.4L141.3,235.4z M143.2,230
								l-0.7-0.2l0.5-0.5c1-0.3,2.7-0.8,3.2-0.8c0.7-0.2,1.5-0.4,2.2-0.6l1-0.2c0.4-0.1,0.8-0.2,1.3-0.3c0.7-0.2,1.4-0.4,2.1-0.6
								l0.2,0.7c-0.7,0.2-1.4,0.4-2.1,0.6c-0.6,0.1-0.9,0.2-1.3,0.3l-1,0.2c-0.7,0.2-1.5,0.4-2.3,0.6
								C145.8,229.3,144.1,229.8,143.2,230L143.2,230z"/>
						</g>
						<g class="st19">
							<path d="M139,201.1l-0.6-0.9c1.1,0.1,2,0.1,2.6,0c1.1,0,2.6-1.1,2.7-1.4c0.3-0.4,0.5-0.6,0.6-0.7l0.1,0.3V198l0.4,0.8
								c-0.1,0.1-0.2,0.2-0.4,0.5c-0.2,0.6-1.9,1.8-3.3,1.8C140.5,201.1,139.5,201.1,139,201.1L139,201.1z"/>
						</g>
						<g class="st19">
							<path d="M154.4,225.1c-0.4,0-0.7,0-1-0.1l-0.7-0.1l0,0c-0.4,0-0.8,0-1.2-0.1c-0.3,0-0.6-0.1-0.9-0.1c-0.4,0-0.7-0.1-1-0.1
								c-0.4,0-0.7,0-1.1-0.1c-0.3,0-0.6,0-0.9-0.1c-0.6-0.1-1.1-0.1-1.8-0.1c-0.3,0-0.7-0.1-1-0.1l-0.6-0.8h0.1
								c0.8,0,1.2,0,1.5,0.1c0.6,0.1,1.2,0.1,1.8,0.1c0.3,0,0.6,0.1,0.9,0.1c0.4,0,0.7,0.1,1,0.1c0.4,0,0.7,0,1.1,0.1
								c0.3,0,0.6,0,0.9,0.1c0.4,0,0.7,0.1,1.1,0.1l0,0v0l0,0l1.6,0.1L154.4,225.1L154.4,225.1z"/>
						</g>
						<g class="st19">
							<path d="M140.4,239.4l-0.6-0.4c0.1-0.2,0.7-0.7,1.1-1l0.8-0.3c0.7-0.3,1.5-0.6,1.9-0.7c0.6-0.2,1.2-0.4,1.8-0.6l0.8-0.2
								c0.4-0.1,0.7-0.2,1.1-0.3c0.5-0.2,1.1-0.4,1.7-0.6l0.2,0.7c-0.6,0.2-1.1,0.4-1.7,0.6c-0.5,0.1-0.8,0.2-1.1,0.3l-0.8,0.2
								c-0.6,0.2-1.2,0.4-1.9,0.6c-0.4,0.1-1.2,0.4-1.8,0.7l-0.8,0.3C141,238.8,140.5,239.3,140.4,239.4L140.4,239.4z"/>
						</g>
						<g class="st19">
							<path d="M156.8,221.9c-0.3-0.1-0.5-0.2-0.8-0.2c-0.7-0.3-1.1-0.4-1.6-0.5c-1.4-0.4-2.3-1.1-2.7-1.6c-0.4-0.6-0.7-1.1-0.4-2.1
								l0.7,0.2c-0.2,0.6-0.1,0.8,0.1,1.1c0.4,0.6,1.2,1.2,2.4,1.6c0.5,0.1,0.9,0.3,1.5,0.5c0.3,0,0.5,0.1,0.8,0.2L156.8,221.9
								L156.8,221.9z"/>
						</g>
						<g class="st19">
							<path d="M102.7,180.5l0-0.3L102.7,180.5l-0.6-0.3c0.4-0.6,0.6-0.7,0.8-0.9c0.2-0.2,0.3-0.3,0.5-0.5c0.2-0.2,0.4-0.3,0.6-0.6
								l0.6,0.5c-0.2,0.3-0.4,0.5-0.7,0.7c-0.2,0.1-0.3,0.3-0.5,0.5c-0.3,0.3-0.5,0.4-0.7,0.5l-0.1-0.1V180.5L102.7,180.5z"/>
						</g>
						<g class="st19">
							<path d="M110.6,189.3l-0.1-0.7c0.4-0.1,7.2-3.6,7.9-4.3l0.7-0.5c0.3-0.2,0.6-0.5,1-0.8c0.3-0.1,0.5-0.3,0.6-0.4
								c0.5-0.5,0.7-0.7,0.9-0.8c0.2-0.2,0.3-0.4,0.4-0.6l0.3-0.6c0.1-0.2,0.1-0.5,0.3-0.7c0.2-0.7,0.4-1.2,0.5-1.5l0.7,0.2
								c-0.1,0.3-0.3,0.9-0.5,1.4l-0.4,0.9c-0.1,0.3-0.1,0.6-0.5,0.8c-0.1,0.2-0.3,0.4-0.5,0.6c-0.1,0.2-0.3,0.3-0.4,0.5l-0.5,0.4
								c-0.2,0.2-0.4,0.3-0.7,0.5c-0.3,0.2-0.6,0.5-0.9,0.7l-0.7,0.5C118.2,185.6,111,189.3,110.6,189.3L110.6,189.3z"/>
						</g>
						<g class="st19">
							<path d="M130.7,189.3l-0.4-0.7c1-0.6,1.8-2.6,1.8-3.2c0-0.3,0-0.7,0.1-1l0.8-0.7c0,0.2,0,0.4,0,0.8c0,0.3-0.1,0.7-0.1,0.9
								C132.9,186.3,131.9,188.6,130.7,189.3L130.7,189.3z"/>
						</g>
						<g class="st19">
							<path d="M145.9,219.7c-0.3,0-0.6,0-0.8,0l-1,0v-0.8h0.6c1.1,0.1,2.5,0.2,4.9-0.5c0.7-0.3,1.2-0.5,1.5-0.8
								c0.3-0.2,0.6-0.5,0.9-0.8c0.2-0.2,0.4-0.4,0.6-0.6c0.2-0.2,0.3-0.6,0.3-0.9c-0.1-1-1.1-2-1.4-2.3c-0.3-0.2-6.8-4.3-7.4-4.6
								c-0.2-0.2-0.4-0.3-0.6-0.4c-0.3-0.2-0.6-0.4-1-0.7c-0.3-0.1-0.6-0.4-1-0.7l-0.5-0.4c-0.6-0.8-0.8-1.1-1-1.5
								c-0.4-0.7-0.5-1-0.7-1.1c-0.2-0.5-0.5-1-0.7-1.4c-0.2-0.6-3.8-8.2-5.1-9.2c-0.4-0.6-0.7-1-1.2-1.5c-0.6-0.7-0.8-1-1.2-1.3
								c-0.2-0.3-0.6-0.5-0.9-0.7c-0.3-0.1-0.5-0.3-0.7-0.4c-0.4-0.4-4.9-3.2-7.1-4l-1.9-0.6c-0.6-0.2-0.9-0.3-1-0.3l0.1-0.8
								c0.1,0,0.1,0,1.1,0.3l1.9,0.6c2.3,0.8,6.9,3.7,7.3,4.1c0.1,0.1,0.4,0.2,0.6,0.4c0.4,0.2,0.8,0.5,1.1,0.8
								c0.3,0.3,0.6,0.6,0.9,1c0.8,0.9,1.2,1.4,1.4,1.9c1.4,1.1,5.2,9.1,5.3,9.4c0.2,0.4,0.5,0.9,0.6,1.3c0.1,0.1,0.3,0.4,0.5,0.7
								c0.4,0.9,0.6,1.2,0.8,1.4l0.7,0.7c0.3,0.2,0.6,0.5,0.9,0.7c0.4,0.3,0.7,0.5,0.9,0.6c0.2,0.1,0.4,0.3,0.6,0.4
								c0.6,0.2,7.4,4.5,7.4,4.6c0.1,0.1,1.6,1.3,1.7,2.8c0,0.6-0.1,1.1-0.5,1.5c-0.2,0.2-0.4,0.4-0.6,0.6c-0.3,0.3-0.6,0.6-1,0.8
								c-0.4,0.4-0.9,0.6-1.4,0.8C148.1,219.6,146.8,219.7,145.9,219.7L145.9,219.7z"/>
						</g>
						<g class="st19">
							<path d="M117,174.3c-0.2,0-0.4,0-0.7,0c-0.8,0-1.6-0.3-2.3-0.6c-0.9-0.4-1.4-0.6-2.1-1.1c-0.5-0.3-0.9-0.6-1.3-1
								c-0.8-0.7-1.8-1-2.4-1.2l-0.9-0.7l-0.1,0.4c-0.3-0.1-0.5-0.1-0.8-0.3c-0.7-0.2-0.8-0.3-1.3-0.4l0.3-0.7
								c0.4,0.1,0.5,0.2,0.6,0.2c0.2,0,0.3,0.1,0.7,0.3c0.3,0.1,0.5,0.2,0.7,0.2l0.6,0.2c1.1,0.3,2.2,0.6,2.9,1.2
								c0.6,0.6,1,0.9,1.4,1.2c0.7,0.5,1.1,0.7,2,1c0.7,0.3,1.4,0.5,2.1,0.6c0.5,0,0.7,0,1,0l2.4,0v0.8H118
								C117.5,174.3,117.3,174.3,117,174.3L117,174.3z"/>
						</g>
						<path class="st23" d="M105.1,177.4c1.9-0.1,5,0.4,5,0.4l4.1-0.1c2.2-0.2,2.6-1,3-1.6c0.8-1.2,1.4-1.7,2-2.6c1-0.7,2.4,1,2.4,1
							c3.5,3.3,0.7,7.3,0.5,7.5c-1.7,1.6-2.1,1.7-3.2,0.7c-1.1-1.2-1.4-1.8-2.2-2.2c-1.7-0.8-5.2-0.2-5.2-0.2
							c-0.1,0-1.8,0.7-1.8,0.7c-0.9,0.3-1.4,1.1-2.9,1.3c-1.5,0.1-2-0.1-2.7-1.2C103.1,179.4,103.6,177.5,105.1,177.4L105.1,177.4z"
							/>
						<g class="st19">
							<path d="M120.1,183.7c-0.5,0-0.9-0.3-1.4-0.8l-0.6-0.8c-0.6-0.7-0.9-1.1-1.5-1.4c-1.1-0.5-4.3-0.3-4.9-0.2
								c-0.3,0.1-1.8,0.7-1.8,0.7c-0.3,0.1-0.5,0.3-0.8,0.4c-0.5,0.3-1.1,0.7-2.1,0.9l-0.7,0c-1.1,0-1.7-0.3-2.4-1.5
								c-0.6-1-0.8-2.1-0.3-3c0.3-0.7,0.9-1.1,1.6-1.2l0.6,0c1.6,0,3.7,0.3,4.3,0.4l4.2,0c1.9-0.2,2.3-0.9,2.7-1.4
								c0.5-0.7,0.8-1.2,1.2-1.6c0.3-0.3,0.5-0.6,0.8-1l0.1-0.2l0.8-0.2c0.9,0,1.7,0.8,2,1.2c1.5,1.4,2.1,2.9,2,4.7
								c-0.2,1.8-1.2,3.3-1.4,3.5C121.3,183.2,120.7,183.7,120.1,183.7L120.1,183.7z M114.2,179.6c1.1,0,2.1,0.2,2.7,0.5
								c0.8,0.4,1.1,0.8,1.8,1.6l0.6,0.7c1,1,1.2,0.6,2.6-0.7c0.1-0.2,1.2-1.7,1.1-3.5c0-1.3-0.6-2.4-1.6-3.4
								c-0.4-0.4-1.1-1.1-1.6-1.1c-0.5,0.4-0.8,0.8-1.1,1.1c-0.3,0.4-0.7,0.8-1.1,1.5c-0.4,0.6-0.9,1.6-3.3,1.8l-4.1,0.1
								c-0.8-0.1-2.9-0.4-4.5-0.4c-1.1,0.1-1.4,0.5-1.5,0.8c-0.3,0.7-0.2,1.5,0.3,2.3c0.6,0.9,0.9,1.1,1.8,1.1l0.6,0
								c0.8-0.1,1.3-0.5,1.8-0.8c0.3-0.2,0.6-0.4,0.9-0.5c1.8-0.7,1.8-0.7,1.9-0.7C111.9,179.8,113,179.6,114.2,179.6L114.2,179.6z"
								/>
						</g>
						<g class="st19">
							<g>
								<defs>
									<rect id="SVGID_21_" x="190.5" y="92.5" width="13.3" height="16.6"/>
								</defs>
								<clipPath id="SVGID_22_">
									<use xlink:href="#SVGID_21_"  style="overflow:visible;"/>
								</clipPath>
								<path class="st24" d="M202.5,101.9c-0.3,0.1-2.7,1.2-2.7,1.3c0,0.1-2.1,5.9-2.2,5.8c0-0.1-1.5-5.1-1.7-5
									c-0.2,0.1-5.4,0.7-5.4,0.7c-0.1,0.1,3.9-5,3.9-5l-0.5-5.4l4.3,1.6c0,0,4.5-3.4,4.6-3.5c0.1,0-1.2,4.7-1.2,4.7l2.3,3.2
									C203.9,100.3,202.6,101.7,202.5,101.9L202.5,101.9z"/>
							</g>
						</g>
						<g class="st19">
							<path d="M197.3,109.3c0,0-0.1-0.4-0.3-0.9c-0.3-0.9-1-3.3-1.3-3.9c-0.2,0.1-1.1,0.2-3.2,0.5c-1,0.1-1.8,0.2-1.9,0.2
								c-0.2-0.2-0.3-0.3-0.2-0.6l-0.1-0.1c0,0,0.1,0,0.1-0.1c0.3-0.6,1.3-1.9,3.7-4.9l-0.7-5.8l4.8,1.9c4.2-3.4,4.2-3.4,4.3-3.5
								c0.6,0.3,0.6,0.3-0.6,5.1l2.2,2.8c-0.6,1-1.2,1.8-1.3,1.9c-0.6,0.3-2.6,1.3-2.8,1.5c0.1-0.1-2,5.7-2.1,5.7L197.3,109.3
								L197.3,109.3z M195.9,103.7c0.4,0,0.5,0.3,1.8,4.3c0.6-1.6,1.7-4.5,1.7-4.8c0.2-0.4,2.3-1.4,2.9-1.6c0-0.1,0.3-0.5,1.3-1.5
								l-2.3-2.7c0-0.2,0.6-2.6,0.9-4c-1.3,1-3.8,2.9-3.8,2.9l-4-1.4l0.5,4.9c-0.1,0.2-2.4,3.2-3.5,4.6c0.3,0,0.6-0.1,1-0.1
								C193.8,104,195.6,103.8,195.9,103.7C195.9,103.7,195.9,103.7,195.9,103.7L195.9,103.7z"/>
						</g>
						<path class="st21" d="M151.4,161.9c3.1,2.1,22.2,6.1,25.1,6.5c3.6-0.3,8.7,0.1,12.5,1.4c3.6,1.6,7.4,1.5,9.8-0.4
							c3.4-1.9,4.6-5,6.1-7.9c0.6-1.5,0.6-3.1,0-4.4c-1.1-2.8-0.4-3.5-0.7-5.1c4.1-9.1,5-19.7,6-27.5c-0.1-4.6,0.4-8.1,0.9-9.5
							c2.2-3.4,5.4-4.8,7-5.4c5.9-1.5,11.9-3.1,17.8-4.6c4.6-1.7,1.6-4.8,0.6-4.5c-3.1-0.4-3-3.8-17.4-0.3c-3.1-0.4-6.2-0.8-9.3-1.2
							c0,0-1.8-1.4-2-1.3c-5-0.9-5.7,2.3-5.5,4.3c0.2,1.4,0.5,2.8,0.7,4.3c0,0-1.8,6.4-1.7,6.6c-4.6,5.1-11.4,21.6-11.8,24.8
							c-0.2,3-1.3,2.4-1,5.3c0,2.3-0.3,0.8,0.5,5.5c0.2,1.4-1.5,1.3-2.5,0.9c-8.4-5.3-16.4-8.7-25.1-13.4c-0.5-0.2-0.9-0.5-1.4-0.7
							c-4.5,3.7-9,7.3-13.5,11c0.8,4.9,1.7,9.7,2.5,14.5C150,161.3,150.7,161.6,151.4,161.9L151.4,161.9z"/>
						<g class="st19">
							<path d="M194,171.2c-1.7,0-3.4-0.4-5.2-1.1c-3.4-1.1-8.5-1.7-12.3-1.3c-2.4-0.3-22-4.4-25.3-6.5l-0.7-0.3
								c-0.5-0.2-1-0.4-1.5-0.7l-2.7-14.8l13.6-11.4l1.8,0.7c3,1.6,5.9,3,8.7,4.4c5.6,2.8,10.9,5.4,16.5,8.9c0.6,0.2,1.6,0.3,1.8,0
								c-0.5-4-0.5-4.1-0.4-4.9l0-1.2c-0.2-1.6,0.1-2.3,0.4-3c0.3-0.6,0.5-1.1,0.6-2.4c0.4-3.3,7.3-19.8,11.9-25
								c0-0.1,0.2-1.1,1.7-6.5l-0.7-4.1c-0.2-1.4,0.1-2.7,0.9-3.6c1-1.2,2.6-1.6,5-1.1c0.1,0,0.4,0,2.1,1.4l9.1,1.1
								c4.3-1,7.6-1.6,10.2-1.6c2.9,0,4.3,0.7,5.4,1.2c0.6,0.3,1.1,0.6,1.8,0.7c0.7,0,1.9,0.9,2.1,2.1c0.1,0.8,0,2.2-2.7,3.2
								l-17.8,4.6c-3,1.1-5.2,2.8-6.7,5.2c-0.5,1.3-1,4.7-0.8,9.2l-0.4,3c-0.9,7.4-2,16.6-5.6,24.7c0.1,0.4,0.1,0.8,0.1,1.3
								c0,0.8-0.1,1.7,0.6,3.5c0.7,1.4,0.7,3,0,4.7l-0.7,1.2c-1.3,2.5-2.6,5.2-5.7,6.8C197.7,170.7,196,171.2,194,171.2L194,171.2z
								 M179,167.9c3.5,0,7.3,0.6,10.1,1.5c3.6,1.5,7.2,1.4,9.5-0.3c2.9-1.6,4.1-4.1,5.4-6.5l0.6-1.2c0.5-1.4,0.5-2.9,0-4.1
								c-0.8-2-0.7-3-0.7-3.9c0-0.4,0-0.8,0-1.3c3.6-8.2,4.7-17.3,5.6-24.7l0.3-2.9c-0.1-4.6,0.4-8.1,0.9-9.6c1.6-2.5,4-4.4,7.2-5.6
								l17.8-4.6c1.6-0.6,2.3-1.4,2.2-2.3c-0.1-0.9-1-1.5-1.3-1.5c-1-0.1-1.6-0.4-2.2-0.7c-1.1-0.5-2.3-1.1-5-1.1
								c-2.5,0-5.8,0.5-10.2,1.5l-9.4-1.2c-0.9-0.6-1.8-1.3-2-1.3c-2.2-0.4-3.5-0.1-4.3,0.9c-0.9,1-0.8,2.5-0.7,3l0.7,4.3
								c-0.7,2.4-1.7,6.2-1.7,6.6c-4.6,5.3-11.4,21.7-11.8,24.9c-0.1,1.4-0.4,2.1-0.7,2.7c-0.3,0.6-0.5,1.1-0.4,2.6l0,1.2
								c0,0.7,0,0.8,0.5,4.3c0.1,0.5,0,0.8-0.3,1.1c-0.5,0.6-1.7,0.6-2.8,0.2c-5.6-3.5-10.9-6.1-16.4-8.9c-2.8-1.4-5.7-2.9-8.7-4.4
								l-1.4-0.7l-13,11l2.7,14.2c0.4-0.1,0.8,0.2,1.3,0.4l0.8,0.3c3.1,2,22,6,25,6.5C177.3,167.9,178.1,167.9,179,167.9L179,167.9z
								"/>
						</g>
						<path class="st22" d="M224.3,107.6c-0.2,0-5.8-6.7-5.8-6.7s3.3-0.7,3.3-0.7l6.5,6.2L224.3,107.6z"/>
						<g class="st19">
							<path d="M205.1,143.7c-4.1,0-8.6-1.9-10.9-4.1l0.5-0.6c2.1,2,7.3,4.5,12.1,3.7l0.1,0.8C206.4,143.7,205.8,143.7,205.1,143.7
								L205.1,143.7z"/>
						</g>
						<g class="st19">
							<path d="M224.5,107.8l-0.5,0c-0.7-0.7-2.1-2.1-2.5-2.6c-0.5-0.5-1-1.1-1.6-1.6l-0.7-0.8c-0.3-0.3-0.6-0.6-0.9-1
								c-0.5-0.4-1-1-1.6-1.5l0.6-0.5c0.5,0.6,1,1.1,1.6,1.5c0.4,0.4,0.6,0.7,0.9,1l0.7,0.7c0.6,0.5,1.1,1.1,1.7,1.7
								c0.4,0.5,1.8,1.8,2.4,2.5L224.5,107.8L224.5,107.8z M229.9,106.9c-0.2,0-1-0.3-1.4-0.6l-0.7-0.6c-0.6-0.5-1.4-1.1-1.7-1.5
								c-0.5-0.5-1-1-1.5-1.4l-0.7-0.7c-0.3-0.3-0.5-0.5-0.8-0.9c-0.5-0.4-1-0.8-1.5-1.3l0.5-0.5c0.5,0.5,0.9,0.9,1.4,1.3l1.5,1.6
								c0.5,0.4,1,0.9,1.5,1.5c0.3,0.4,1,0.9,1.6,1.4l0.7,0.6c0.3,0.2,1,0.4,1.1,0.4L229.9,106.9L229.9,106.9z"/>
						</g>
						<g class="st19">
							<path d="M200.8,125.9c-0.5-1.1-0.9-1.8-1.3-2.3c-0.6-1-2.2-1.6-2.5-1.7c-0.5-0.1-0.7-0.1-0.9-0.2l0.2-0.3l-0.4,0.3l0.5-0.7
								c0.1,0,0.3,0.1,0.6,0.2c0.5-0.1,2.5,0.8,3.2,2c0.3,0.5,0.8,1.2,1.1,1.7L200.8,125.9L200.8,125.9z"/>
						</g>
						<g class="st19">
							<path d="M218.7,109.3l-0.5-0.1l0.3-0.2l-0.4,0.1l0.1,0l-0.1,0c-0.4-0.8-0.6-1.1-0.7-1.4c-0.1-0.3-0.2-0.5-0.4-0.8
								c-0.2-0.3-0.3-0.6-0.4-0.9c-0.1-0.3-0.2-0.6-0.4-0.8c-0.1-0.3-0.3-0.6-0.4-0.9c-0.2-0.3-0.3-0.7-0.5-1
								c-0.1-0.3-0.3-0.5-0.4-0.8c-0.1-0.3-0.3-0.7-0.5-1l-0.7-1.5l0.7-0.3c0.2,0.3,0.3,0.6,0.4,0.9l0.3,0.6
								c0.2,0.4,0.4,0.7,0.5,1.1c0.1,0.3,0.2,0.5,0.4,0.8c0.1,0.3,0.3,0.6,0.4,0.9c0.2,0.3,0.3,0.7,0.4,1c0.1,0.2,0.3,0.5,0.4,0.9
								c0.1,0.3,0.2,0.5,0.4,0.8c0.1,0.2,0.3,0.5,0.4,0.8c0.1,0.3,0.3,0.6,0.4,0.9l0.2,0.3l0,0.1l0.1,0l-0.1,0.1L218.7,109.3
								L218.7,109.3z"/>
						</g>
						<g class="st19">
							<path d="M233.8,105.7c-0.2,0-1-0.3-1.4-0.5l-0.7-0.6c-0.6-0.4-1.3-1-1.5-1.3c-0.4-0.4-0.9-0.9-1.4-1.3l-0.6-0.6
								c-0.2-0.2-0.5-0.5-0.8-0.8c-0.5-0.3-0.9-0.7-1.4-1.2l0.5-0.5c0.4,0.4,0.9,0.8,1.4,1.2c0.3,0.4,0.6,0.6,0.8,0.8l0.6,0.6
								c0.5,0.4,1,0.8,1.4,1.3c0.3,0.3,0.9,0.8,1.4,1.2l0.7,0.5c0.3,0.1,0.9,0.3,1,0.4L233.8,105.7L233.8,105.7z"/>
						</g>
						<g class="st19">
							<path d="M209.4,106.1l-0.1-0.8c0.6-0.1,0.8-0.3,0.9-0.6c0.4-0.7,0.5-1.7,0.2-2.9c-0.1-0.5-0.2-0.9-0.3-1.6
								c-0.1-0.3-0.2-0.5-0.2-0.8l0.7-0.2c0,0.4,0.1,0.5,0.2,0.8c0.1,0.7,0.2,1.1,0.3,1.6c0.3,1.4,0.1,2.6-0.1,3.1
								C210.6,105.5,210.4,105.9,209.4,106.1L209.4,106.1z"/>
						</g>
						<g class="st19">
							<path d="M201.1,167.3c-0.7,0-0.9-0.2-1.2-0.3c-0.2-0.1-0.4-0.1-0.7-0.2c-0.2-0.1-0.5-0.2-0.8-0.2l0.1-0.8
								c0.4,0.1,0.6,0.1,0.9,0.2c0.2,0.1,0.4,0.1,0.6,0.2c0.4,0.2,0.6,0.3,0.8,0.4l0,0.1l0.1,0l-0.1,0.1l0.2-0.1l0.1,0.3
								L201.1,167.3L201.1,167.3z"/>
						</g>
						<g class="st19">
							<path d="M204.3,155.9c-0.5-0.4-6.7-4.5-7.6-4.7l-0.8-0.3c-0.4-0.1-0.7-0.3-1.1-0.5c-0.3-0.2-0.5-0.3-0.7-0.4
								c-0.7-0.2-0.9-0.3-1.2-0.4c-0.3-0.1-0.5-0.1-0.7-0.1h-0.6c-0.2,0.1-0.5,0.1-0.8,0.1c-0.8,0.1-1.3,0.2-1.6,0.3l-0.2-0.7
								c0.3-0.1,0.9-0.2,1.4-0.3l1.1-0.1c0.2-0.1,0.6-0.2,1,0c0.2,0,0.5,0,0.8,0.1c0.2,0.1,0.4,0.1,0.7,0.1l0.6,0.3
								c0.3,0.1,0.5,0.2,0.8,0.4c0.4,0.2,0.7,0.3,1,0.4l0.8,0.3c0.7,0.2,7.7,4.6,7.9,5l-0.7,0.3l0.3-0.2L204.3,155.9L204.3,155.9z"
								/>
						</g>
						<g class="st19">
							<path d="M190,139l-1-0.3c0.1-0.1,0.3-0.2,0.7-0.4c0.3-0.1,0.6-0.3,0.8-0.4c0.8-0.4,3.2-0.7,4.4,0l-0.4,0.7
								c-1-0.6-3.2-0.3-3.7,0C190.7,138.8,190.3,138.9,190,139L190,139z"/>
						</g>
						<g class="st19">
							<path d="M195.2,150.4c-0.1-0.1-0.1-0.1-0.3-1.3l-0.4-1.9c-0.4-2.3-0.1-7.8,0-8.4c0-0.2,0-0.4,0-0.7c0-0.5,0-1,0.2-1.4
								c0.1-0.4,0.3-0.9,0.4-1.3c0.4-1.2,0.7-1.7,0.9-2.2c0.3-1.8,5.4-8.9,5.6-9.2c0.2-0.3,0.6-0.8,0.9-1.2c0-0.2,0.2-0.5,0.4-0.8
								c0.6-0.8,0.7-1.1,0.8-1.4l0.3-1c0.1-0.4,0.1-0.8,0.1-1.1c0.1-0.5,0.1-0.8,0.1-1.1c0-0.3,0-0.5,0.1-0.7
								c-0.1-0.6,0.4-8.7,0.4-8.7c0.1-0.7,0.6-2.2,1.6-2.9c0.5-0.3,1-0.4,1.6-0.3l0.8,0.2c0.5,0.1,0.9,0.3,1.2,0.5
								c0.5,0.1,1,0.5,1.4,0.8c2.2,2.1,2.9,3.5,3.2,4.1l0,0.8l0.3-0.2l-0.5,0.6l-0.3-0.5c-0.5-1-1.1-2.3-2.9-4
								c-0.6-0.5-1-0.8-1.5-0.9c-0.3-0.2-0.7-0.3-1.1-0.4l-0.8-0.3c-0.3-0.1-0.7,0-1,0.2c-0.8,0.5-1.2,1.9-1.3,2.4
								c0,0.4-0.4,8.1-0.4,8.6c0,0.3,0,0.5,0,0.7c0,0.4,0,0.7-0.1,1.2c0,0.3-0.1,0.8-0.1,1.2l-0.1,0.6c-0.4,0.9-0.5,1.2-0.8,1.6
								c-0.4,0.7-0.6,0.9-0.7,1.2c-0.3,0.4-0.7,0.9-0.9,1.3c-0.5,0.5-5.2,7.4-5.5,9c-0.3,0.6-0.5,1.1-0.7,1.7
								c-0.3,0.9-0.5,1.3-0.6,1.8c-0.1,0.3-0.1,0.8-0.1,1.1c0,0.3,0,0.6,0,0.8c-0.1,0.5-0.4,5.8,0,8.1l0.4,1.9
								c0.1,0.6,0.2,1,0.2,1.1L195.2,150.4L195.2,150.4z"/>
						</g>
						<g class="st19">
							<path d="M189.9,170.2l-0.2-0.3l-0.2,0.1l0.2-0.1l-0.3,0.1l0,0l0,0l0.2-0.1l-0.2,0.1l0.3-0.2l-0.5-0.4
								c-0.1-0.4-0.1-0.8-0.2-1.2l-0.1-0.7c-0.3-0.9-0.4-1.3-0.3-1.7c-0.2-0.3-0.1-0.8-0.1-1.2c0.2-1,0.3-1.5,0.3-2.1
								c0-0.5,0-0.8,0-1.2c0-0.3,0-0.6,0-1l-0.2-0.5c-0.1-0.4-0.2-0.7-0.4-1.1l-0.3-0.7c-0.2-0.4-0.3-0.7-0.6-1.1l-0.9-1.5l0.7-0.4
								l0.9,1.5c0.2,0.4,0.4,0.8,0.6,1.2l0.3,0.6c0.2,0.4,0.3,0.8,0.4,1.2l0.2,1.7c0,0.4,0,0.8,0,1.2c0,0.7-0.1,1.2-0.3,1.9
								c-0.1,0.7-0.1,1,0,1.3c0,0.4,0.1,0.7,0.2,1l0.3,1.2c0.1,0.4,0.2,0.8,0.2,1.2v0.4l0.1,0l0,0l0,0l-0.1,0.1V170.2L189.9,170.2z"
								/>
						</g>
						<path class="st22" d="M197.1,166.1c-1-1.6-2.1-4.6-2.1-4.6L193,158c-1.2-1.8-2.2-1.8-2.9-1.8c-1.5-0.1-2.1-0.4-3.2-0.5
							c-1.1-0.5-0.3-2.6-0.3-2.6c1.2-4.6,6.1-4.2,6.3-4.1c2.2,0.7,2.5,1,2.1,2.4c-0.6,1.5-0.9,2.1-0.9,3.1c0.1,1.9,2.4,4.6,2.4,4.6
							c0,0.1,1.5,1.2,1.5,1.2c0.7,0.6,1.6,0.7,2.5,1.8c0.8,1.2,0.9,1.8,0.3,3C199.9,166.9,198,167.3,197.1,166.1L197.1,166.1z"/>
						<g class="st19">
							<path d="M198.5,167.2c-0.7,0-1.2-0.3-1.6-0.8c-0.9-1.4-1.8-3.7-2-4.5l-2.1-3.7c-1.1-1.6-1.9-1.6-2.5-1.6
								c-0.9,0-1.4-0.2-2-0.3c-0.4-0.1-0.8-0.2-1.3-0.2c-1.4-0.6-0.9-2.3-0.7-2.9c1.1-4.3,4.8-4.6,6-4.6c0.2,0,0.7,0,0.9,0.1
								c2.1,0.7,2.8,1.1,2.3,2.9l-0.4,0.9c-0.4,0.9-0.5,1.3-0.5,2c0.1,1,0.9,2.6,2.3,4.4c0.2,0.2,1.5,1.3,1.5,1.3
								c0.2,0.2,0.5,0.3,0.8,0.5c0.5,0.3,1.2,0.6,1.8,1.4c0.9,1.4,1.1,2,0.3,3.4C200.5,166.5,199.5,167.2,198.5,167.2L198.5,167.2z
								 M192.4,149.4c-1.9,0-4.7,0.5-5.5,3.8c-0.4,1.3-0.3,2,0.1,2.2c0.4,0,0.8,0.1,1.3,0.2c0.5,0.1,1.1,0.2,1.8,0.3
								c0.7,0,1.8,0,3.2,2l2.1,3.6c0.4,1,1.3,3.3,2.1,4.6c0.7,0.9,2.3,0.4,3-0.9c0.6-1.1,0.5-1.4-0.2-2.6c-0.5-0.6-1.1-0.9-1.6-1.2
								c-0.3-0.2-0.6-0.3-0.9-0.6c-1.5-1.2-1.5-1.3-1.6-1.4c-0.9-1.1-2.3-3.2-2.4-4.8c-0.1-0.9,0.2-1.4,0.5-2.3l0.3-0.9
								c0.3-1,0.3-1.2-1.9-1.9C192.6,149.4,192.5,149.4,192.4,149.4L192.4,149.4z"/>
						</g>
						<g class="st19">
							<g>
								<defs>
									<rect id="SVGID_23_" x="73.6" y="122.6" width="17" height="11.6"/>
								</defs>
								<clipPath id="SVGID_24_">
									<use xlink:href="#SVGID_23_"  style="overflow:visible;"/>
								</clipPath>
								<path class="st25" d="M81.6,122.9c0.2,0.2,2.5,1.6,2.6,1.5c0-0.1,6.1-1.5,6.1-1.4c0,0.1-3.4,4.1-3.2,4.2
									c0.1,0.1,3.5,4.1,3.6,4.1c0.1,0-6.4-0.5-6.4-0.5l-4.3,3.4l-1-4.5c0,0-5.4-1.9-5.4-1.9c-0.1,0,4.6-1.6,4.6-1.6l1.4-3.6
									C79.6,122.6,81.4,123,81.6,122.9L81.6,122.9z"/>
							</g>
						</g>
						<g class="st19">
							<path d="M79.8,134.9l-1.1-5c-0.1,0-5.2-1.7-5.2-1.7c-0.2-0.7-0.2-0.7,4.6-2.3l1.2-3.4c0.4-0.2,1.8,0,2.3,0
								c0.6,0.3,2.5,1.5,2.8,1.5c-0.2-0.2,5.9-1.4,6-1.4h0.6l-0.3,0.6c0,0-0.2,0.3-0.5,0.7c-0.6,0.8-2.2,2.7-2.6,3.3
								c0.2,0.1,0.7,0.8,2.1,2.4c0.6,0.8,1.2,1.4,1.3,1.5l-0.3,0.7c-0.3,0-6.4-0.5-6.4-0.5L79.8,134.9L79.8,134.9z M74.7,127.8
								c1.5,0.6,4.5,1.6,4.5,1.6l1,4.2l3.8-3.1c0.2-0.1,4,0.2,5.7,0.4c-0.2-0.2-0.4-0.5-0.7-0.9c-0.9-1.1-2-2.4-2.2-2.6
								c-0.2-0.5-0.2-0.6,2.5-3.9c-1.6,0.4-4.7,1.1-5,1.2c-0.3,0-2.9-1.5-3-1.6c-0.3,0.1-1.8-0.2-1.8-0.2l-1,3.4
								C78.4,126.6,76,127.4,74.7,127.8L74.7,127.8z"/>
						</g>
						<path class="st21" d="M159.8,132.8c0-3.8-7.1-21.9-8.3-24.5c-2.3-2.8-4.7-7.3-5.7-11.2c-0.7-3.9-2.8-7-5.7-8
							c-3.4-1.8-6.7-1.1-9.9-0.8c-1.6,0.3-2.9,1.2-3.7,2.4c-1.7,2.5-2.7,2.3-3.9,3.4c-9.9,1.5-19.2,6.6-26.3,10.1
							c-3.8,2.6-6.9,4.1-8.4,4.4c-4,0-6.9-1.9-8.3-2.9c-4.5-4.1-9.1-8.2-13.6-12.4c-3.9-2.9-4.9,1.3-4.1,2c1.3,2.8-1.5,4.5,9.3,14.7
							c1.4,2.8,2.7,5.6,4.1,8.4c0,0-0.2,2.3,0,2.4c2,4.7,5.1,3.5,6.6,2.2c1.1-1,2.1-1.9,3.2-2.9c0,0,6.4-2,6.4-2.2
							c6.8,1,24.3-2.3,27.2-3.7c2.6-1.5,2.8-0.2,5-2.1c1.9-1.3,0.9-0.3,4.3-3.4c1.1-0.9,1.9,0.6,2.1,1.6c0.2,9.9,1.7,18.4,2.6,28.3
							c0.1,0.5,0.1,1,0.2,1.5c5.5,1.7,11.1,3.5,16.6,5.2c3.6-3.4,7.2-6.7,10.8-10.1C160.1,134.3,159.9,133.6,159.8,132.8
							L159.8,132.8z"/>
						<g class="st19">
							<path d="M149.6,145.7l-16.8-5.3l-0.4-1.9c-0.3-3.4-0.7-6.5-1.1-9.7c-0.7-6.2-1.4-12.1-1.5-18.7c-0.1-0.7-0.6-1.5-1.1-1.5
								c-3.1,2.6-3.1,2.6-3.8,3.1l-1,0.6c-1.3,1-2,1.1-2.7,1.3c-0.6,0.1-1.2,0.2-2.3,0.8c-3,1.4-20.5,4.7-27.4,3.8
								c0,0.1-1.1,0.5-6.4,2.2l-3.1,2.8c-0.4,0.4-1.6,1.3-3,1.3c-1.2,0-2.9-0.6-4.2-3.6c0,0.1-0.2,0,0-2.6l-4.1-8.2
								c-8.2-7.7-8.5-10.7-8.8-12.8c-0.1-0.7-0.1-1.2-0.4-1.9c-0.4-0.3-0.3-1.2-0.1-1.9c0.7-1.8,2.6-2.1,4.8-0.5l13.6,12.4
								c2.6,1.9,5.2,2.8,8,2.8c1.4-0.3,4.5-1.8,8.3-4.4l2.6-1.3c6.7-3.3,15-7.5,23.8-8.8c0.2-0.3,0.6-0.5,1-0.8
								c0.7-0.4,1.5-0.9,2.6-2.4c0.8-1.3,2.2-2.2,3.9-2.6l1.4-0.1c3.1-0.3,6.3-0.3,8.8,1c3,1,5.2,4.2,5.9,8.3c1,3.6,3.2,8,5.6,11.1
								c1.1,2.3,8.4,20.8,8.4,24.8l0.2,0.7c0.1,0.5,0.2,1,0.3,1.6L149.6,145.7L149.6,145.7z M128.7,107.9c1,0,1.7,1.3,1.8,2.2
								c0.1,6.6,0.8,12.5,1.5,18.7c0.4,3.2,0.7,6.4,1,9.7l0.2,1.5l16.1,4.8l10.6-9.9c-0.2-0.2-0.3-0.7-0.4-1.2l-0.2-0.8
								c0-3.7-7-21.7-8.3-24.4c-2.4-3-4.7-7.6-5.7-11.3c-0.7-3.9-2.7-6.8-5.5-7.8c-2.4-1.3-5.4-1.3-8.4-0.9l-1.4,0.1
								c-1.5,0.3-2.7,1.1-3.4,2.2c-1.2,1.7-2.1,2.2-2.8,2.7c-0.4,0.2-0.7,0.4-1.1,0.8c-8.8,1.4-17.1,5.6-23.8,8.9l-2.6,1.3
								c-3.8,2.6-7,4.1-8.5,4.5c0,0,0,0,0,0c-3.1,0-5.8-1-8.6-3L65.8,93.5c-2-1.5-3.3-0.5-3.6,0.2c-0.2,0.6-0.1,1.1,0,1.2
								c0.4,0.9,0.5,1.5,0.6,2.2c0.3,2.1,0.6,4.9,8.7,12.5l4.2,8.5c0,1.1-0.1,2.2,0,2.4c0.9,2.1,2.1,3.2,3.5,3.2
								c1.2,0,2.2-0.8,2.5-1.1l3.2-2.9c2.4-0.8,6.1-2,6.5-2.2c1.1,0.1,2.2,0.1,3.3,0.1c7.9,0,21.4-2.6,24-3.9
								c1.2-0.7,1.9-0.8,2.6-0.9c0.7-0.1,1.2-0.2,2.4-1.1l1-0.7c0.6-0.4,0.7-0.4,3.3-2.8C128,108,128.4,107.9,128.7,107.9
								L128.7,107.9z"/>
						</g>
						<path class="st22" d="M74.4,101.6c0.1,0.1-2.5,8.5-2.5,8.5s-2.4-2.4-2.4-2.4l1.7-8.8L74.4,101.6z"/>
						<g class="st19">
							<path d="M117.7,109.1L117,109c0.5-2.9-0.2-8.5-3.5-12.2l0.6-0.5C117.2,99.8,118.4,105.5,117.7,109.1L117.7,109.1z"/>
						</g>
						<g class="st19">
							<path d="M72.5,111.9l-0.7-0.2c0.2-0.7,0.3-1.4,0.4-2.1c0.2-0.5,0.3-0.9,0.4-1.3l0.3-1c0.1-0.7,0.3-1.5,0.5-2.3
								c0.2-0.7,0.7-2.9,0.8-3.6l0.4-0.1l0.3,0.2c-0.2,0.8-0.6,3-0.8,3.7c-0.2,0.7-0.4,1.5-0.5,2.2l-0.3,1c-0.1,0.4-0.2,0.8-0.4,1.3
								C72.8,110.4,72.7,111.1,72.5,111.9L72.5,111.9z M69.5,107.9l-0.7-0.2c0.1-0.7,0.3-1.3,0.3-1.9l0.5-2.1
								c0.1-0.7,0.2-1.4,0.4-2.1c0.1-0.4,0.2-1.3,0.3-2.1l0.1-0.9c0-0.3-0.2-1-0.3-1.1l0.7-0.3c0.1,0.2,0.3,1,0.3,1.5l-0.1,1
								c-0.1,0.8-0.2,1.7-0.3,2.2c-0.1,0.7-0.3,1.3-0.4,2l-0.5,2.1C69.7,106.6,69.6,107.2,69.5,107.9L69.5,107.9z"/>
						</g>
						<g class="st19">
							<path d="M101.9,117.5l-0.9,0c0-0.1-0.1-0.3-0.2-0.6c-0.4-0.5-0.7-2.5,0-3.7c0.2-0.5,0.6-1.3,0.8-1.9l1-0.1
								c-0.6,0.9-1,1.7-1.2,2.3c-0.5,1-0.2,2.8,0,3c0.2,0.4,0.3,0.7,0.3,0.8h-0.4L101.9,117.5L101.9,117.5z"/>
						</g>
						<g class="st19">
							<path d="M73.8,114.4l-0.7-0.4c0.2-0.4,0.3-0.6,0.5-0.8l0.4-0.6c0.2-0.4,0.4-0.7,0.6-1c0.2-0.2,0.3-0.5,0.5-0.8
								c0.2-0.3,0.4-0.6,0.5-0.9c0.2-0.3,0.4-0.6,0.5-0.9c0.1-0.2,0.3-0.5,0.5-0.8c0.2-0.2,0.3-0.5,0.5-0.8c0.1-0.3,0.3-0.5,0.5-0.8
								c0.2-0.3,0.3-0.5,0.5-0.8l0.3-0.4l-0.1,0l0.1,0l0.4-0.2l0.2,0.4l-0.1,0.1c-0.4,0.8-0.6,1-0.8,1.3c-0.2,0.3-0.3,0.5-0.4,0.7
								c-0.1,0.3-0.3,0.6-0.5,0.8c-0.2,0.2-0.4,0.5-0.5,0.7c-0.2,0.3-0.4,0.6-0.5,0.9c-0.2,0.3-0.4,0.6-0.6,0.9
								c-0.1,0.3-0.3,0.5-0.5,0.8c-0.2,0.3-0.4,0.6-0.6,0.9L73.8,114.4L73.8,114.4z"/>
						</g>
						<g class="st19">
							<path d="M66.7,104.6l-0.8-0.2c0.1-0.6,0.2-1.2,0.3-1.8l0.4-2c0.1-0.6,0.2-1.3,0.3-1.9c0.1-0.4,0.2-1.2,0.2-1.9l0.1-0.9
								c0-0.3-0.2-1-0.3-1.1l0.7-0.3c0.1,0.2,0.3,1,0.4,1.4L67.9,97c-0.1,0.7-0.1,1.6-0.3,2c-0.1,0.6-0.2,1.2-0.3,1.9l-0.4,2
								C66.9,103.4,66.8,104,66.7,104.6L66.7,104.6z"/>
						</g>
						<g class="st19">
							<path d="M75.6,118l-0.6-0.5c0.3-0.2,0.4-0.3,0.5-0.6c0.5-0.5,0.8-0.8,1.2-1.1c1-1,2.1-1.5,2.7-1.6c0.8,0,1.3-0.1,2,0.7
								l-0.6,0.5c-0.4-0.5-0.7-0.5-1-0.4c-0.8,0.1-1.7,0.5-2.6,1.4c-0.3,0.4-0.7,0.7-1.1,1.1C76,117.7,75.8,117.9,75.6,118L75.6,118
								z"/>
						</g>
						<g class="st19">
							<path d="M137.3,91.1c-0.1-0.3-0.2-0.6-0.3-0.8c-0.1-0.2-0.1-0.4-0.2-0.7c-0.1-0.4-0.1-0.7-0.1-0.8l0.1-0.1l-0.2-0.1l0.5-0.4
								c0.3,0.6,0.4,0.8,0.4,1.1c0.1,0.2,0.1,0.4,0.2,0.7c0.1,0.2,0.1,0.5,0.2,0.8L137.3,91.1L137.3,91.1z"/>
						</g>
						<g class="st19">
							<path d="M128.6,108.4c-0.3-0.2-0.6-0.6-0.9-1l-0.7-0.8c-0.2-0.2-0.4-0.4-0.5-0.8c-0.1-0.1-0.2-0.4-0.3-0.7
								c-0.1-0.2-0.1-0.4-0.3-0.6l-0.1-0.7c0-0.3-0.1-0.5-0.1-0.8c-0.1-0.4-0.1-0.8-0.2-1.1l-0.2-0.8c-0.2-0.7-0.4-9-0.1-9.4
								l0.6,0.4l-0.3-0.2l0.4,0.1c-0.1,0.6-0.1,8,0.2,8.9l0.2,0.9c0.1,0.4,0.2,0.8,0.2,1.2c0,0.3,0,0.5,0.1,0.8
								c0.2,0.7,0.3,1,0.3,1.2c0.1,0.3,0.2,0.5,0.3,0.6l0.4,0.5c0.2,0.1,0.4,0.3,0.5,0.6c0.6,0.6,0.9,1,1.1,1.2L128.6,108.4
								L128.6,108.4z"/>
						</g>
						<g class="st19">
							<path d="M119.8,114c-0.2,0-0.3-0.2-0.7-0.4c-0.2-0.2-0.5-0.3-0.8-0.5c-0.7-0.4-2.3-2.3-2.4-3.7l0.8,0c0.1,1.1,1.5,2.8,2,3.1
								c0.3,0.1,0.6,0.3,0.9,0.5L119.8,114L119.8,114z"/>
						</g>
						<g class="st19">
							<path d="M83.5,118.2c-0.4,0-0.8-0.1-1.1-0.2c-0.5-0.2-0.9-0.6-1.1-1.2c-0.1-0.3-0.2-0.6-0.2-0.8c-0.1-0.4-0.3-0.8-0.3-1.2
								c-0.2-0.5-0.1-1.1-0.1-1.6c0.5-3,1.3-4.3,1.7-5l1.1-0.5l-0.5,0.9c-0.4,0.6-1.1,1.8-1.6,4.3c-0.1,0.8-0.1,1.3,0,1.7
								c0,0.4,0.1,0.7,0.3,1.1c0.1,0.3,0.2,0.6,0.2,0.9c0.1,0.3,0.3,0.5,0.7,0.7c0.9,0.4,2.2,0,2.7-0.2c0.4-0.2,7-4.1,7.4-4.4
								c0.3-0.1,0.4-0.3,0.6-0.4c0.3-0.2,0.6-0.4,1-0.6c0.3-0.2,0.7-0.4,1.1-0.5l0.7-0.3c0.8-0.1,1.2-0.2,1.7-0.1
								c0.8,0,1.1,0,1.3-0.1c0.5,0,1.1,0.1,1.6,0.1c0.7,0.1,9,0.4,10.5-0.3c0.6,0,1.1-0.2,1.8-0.3l0.7,0.2l-0.1-0.4
								c0.4-0.1,0.8-0.2,1.3-0.3c0.3-0.1,0.7-0.3,1-0.5c0.3-0.2,0.5-0.3,0.7-0.4c0.5-0.2,5.1-2.9,6.8-4.5l2.1-2.2l0.6,0.4
								c0,0.1,0,0.1-0.6,0.7l-1.6,1.6c-1.7,1.6-6.4,4.4-7,4.6c-0.2,0.1-0.4,0.2-0.6,0.4c-0.4,0.3-0.8,0.5-1.2,0.6
								c-0.4,0.2-0.9,0.3-1.3,0.4l-0.6,0.1c-0.6,0.1-1.2,0.3-1.7,0.3c-1.7,0.8-10.4,0.4-10.8,0.3c-0.4,0-1,0-1.5-0.1
								c-0.3,0.1-0.9,0.1-1.3,0.1c-0.7,0-0.9,0-1.2,0.1l-0.9,0.3c-0.3,0.1-0.7,0.3-1,0.5c-0.4,0.2-0.7,0.4-1,0.5
								c-0.2,0.1-0.4,0.3-0.7,0.4c-0.5,0.4-7.4,4.5-7.5,4.5C85.5,117.7,84.5,118.2,83.5,118.2L83.5,118.2z"/>
						</g>
						<g class="st19">
							<path d="M135,107l-0.7-0.3l0.8-1.6c0.2-0.4,0.5-0.8,0.7-1.2l0.3-0.5c0.2-0.4,0.5-0.7,0.8-1l1.3-1.1c0.3-0.2,0.7-0.4,1.1-0.7
								c0.6-0.3,1-0.6,1.7-0.8c0.6-0.3,0.9-0.4,1.1-0.7c0.3-0.2,0.6-0.5,0.8-0.7l0.9-0.9c0.3-0.3,0.6-0.6,0.9-0.8l0.3-0.2l-0.1-0.1
								l0.1,0l-0.1,0l0.1,0l0.5-0.3l-0.2,0.3l0.3,0.2l-0.1,0.1l-0.3-0.2l0,0.6c-0.3,0.3-0.6,0.6-0.9,0.8l-0.5,0.5
								c-0.6,0.7-0.9,1-1.2,1.2c-0.2,0.3-0.6,0.5-1,0.7c-0.9,0.4-1.4,0.6-1.9,0.9c-0.4,0.2-0.7,0.4-1,0.6l-1.2,1
								c-0.2,0.3-0.5,0.5-0.7,0.9l-0.4,0.6c-0.2,0.4-0.5,0.7-0.7,1.1L135,107L135,107z"/>
						</g>
						<g class="st19">
							<path d="M139.6,139.1l-0.3-0.1l0.1-0.5c0.1-0.8,0.2-1.3,0.2-1.8c0-0.4,0.1-0.8,0.1-1.2c0.1-0.8,0.3-1.6,0.3-2.4l0-0.7
								c0-0.6,0-1.2-0.1-1.9c0-0.5,0-0.9-0.1-1.4l-0.1-1.1c0-0.8-0.1-1.4-0.2-2.2c0-0.6-0.1-1.4-0.2-2.1c0.1-0.6-0.1-1-0.2-1.4
								l-1-4.2c-0.1-0.5-0.2-1-0.4-1.4l-0.2-0.7c-0.2-0.4-0.4-1.1-0.5-1.5c-0.3-0.6-0.5-1.1-0.6-1.6c-0.1-0.2-0.3-0.7-0.5-1.1
								c-0.3-0.6-0.3-0.9-0.4-1.1c-0.1-0.3-0.2-0.6-0.3-0.8c-0.4-1-0.6-1.4-0.7-1.8l0.3-0.9l0.4,0.7c0.1,0.4,0.2,0.8,0.4,1.1
								c0.3,0.8,0.4,1.1,0.5,1.4l0.3,0.7c0.3,0.8,0.5,1.3,0.7,1.6c0.1,0.5,0.3,0.9,0.5,1.3c0.2,0.8,0.4,1.3,0.6,1.8l0.2,0.7
								c0.2,0.5,0.3,1,0.4,1.5l1,4c0.1,0.5,0.3,1.1,0.2,1.6c0.1,0.6,0.2,1.4,0.2,2c0.2,0.7,0.2,1.4,0.3,2.2l0.1,1.1
								c0,0.5,0.1,0.9,0.1,1.4c0.1,0.6,0.1,1.2,0.2,1.9l0,0.7c0,0.8-0.1,1.7-0.3,2.5c0,0.3,0,0.7-0.1,1.2c0,0.4-0.1,0.9-0.1,1.3
								l-0.1,0.6h0l0,0l-0.2,0.3L139.6,139.1L139.6,139.1z"/>
						</g>
						<path class="st22" d="M138.3,92.2c-0.7,1.7-2.7,4.2-2.7,4.3l-1.8,3.7c-0.8,2-0.3,2.8,0.1,3.4c0.7,1.3,0.9,2,1.4,3
							c0.2,1.2-2,1.6-2,1.7c-4.5,1.6-6.8-2.8-6.9-3c-0.6-2.3-0.5-2.6,0.9-3.1c1.6-0.4,2.2-0.4,3-1c1.5-1.1,2.5-4.5,2.6-4.6
							c0-0.1,0.2-1.9,0.2-1.9c0.1-0.9-0.3-1.7,0.2-3.1c0.6-1.4,1-1.7,2.4-1.9C137.4,89.5,138.8,90.8,138.3,92.2L138.3,92.2z"/>
						<g class="st19">
							<path d="M131.3,108.9c-3.4,0-5.3-3.2-5.3-3.7c-0.6-2.2-0.6-2.9,1.1-3.5l1-0.2c0.9-0.2,1.4-0.3,2-0.7c0.8-0.6,1.7-2.1,2.4-4.3
								c0.1-0.3,0.2-1.9,0.2-1.9c0-0.3,0-0.6,0-0.9c-0.1-0.6-0.1-1.3,0.2-2.3c0.7-1.5,1.1-2,2.7-2.1c1.4,0,2.4,0.4,2.9,1.2
								c0.4,0.6,0.5,1.2,0.2,1.9c-0.4,1-1.3,2.4-2.6,4.2l-1.9,3.8c-0.7,1.8-0.3,2.5,0,3c0.4,0.8,0.6,1.3,0.9,1.8
								c0.2,0.4,0.3,0.8,0.6,1.2c0.3,1.5-1.5,2-2.1,2.2C132.6,108.8,132,108.9,131.3,108.9L131.3,108.9z M135.9,90
								c-1.5,0.1-1.8,0.3-2.3,1.6c-0.3,0.8-0.2,1.4-0.1,2c0,0.4,0.1,0.7,0,1.1c-0.2,1.9-0.2,2-0.3,2c-0.5,1.4-1.4,3.7-2.7,4.7
								c-0.7,0.5-1.3,0.6-2.3,0.8l-0.9,0.2c-1,0.4-1.2,0.4-0.6,2.7c0,0,1.5,3.1,4.6,3.1c0.6,0,1.2-0.1,1.8-0.3
								c1.3-0.4,1.8-0.8,1.7-1.3c-0.2-0.3-0.4-0.7-0.5-1.2c-0.2-0.5-0.4-1-0.8-1.7c-0.4-0.6-0.9-1.6-0.1-3.7l1.9-3.7
								c1.4-2,2.3-3.3,2.7-4.2c0.2-0.5,0-0.9-0.2-1.2C137.4,90.4,136.7,90,135.9,90L135.9,90z"/>
						</g>
						<g class="st19">
							<g>
								<defs>
									<rect id="SVGID_25_" x="131.5" y="131.6" width="30.2" height="30"/>
								</defs>
								<clipPath id="SVGID_26_">
									<use xlink:href="#SVGID_25_"  style="overflow:visible;"/>
								</clipPath>
								<path class="st26" d="M132.4,136.4c-0.7-0.6,12.9,4.9,14.7,5c2.6-0.9,13.1-9.8,13.1-9.8c0.1,0.9,0.5,3.1,1.5,3.6
									c-4.1,3.3-7.8,6.5-11.8,9.8c0.3,5.2-0.7,10.8,2,16.6c0,0-3.2,0.1-3.2,0c-2.8-2.8-3.8-16.3-3.8-16.3c-4.5-2-8.9-3.9-13.4-5.9
									C132.1,138.9,132.6,137.7,132.4,136.4L132.4,136.4z"/>
							</g>
						</g>
						<g class="st19">
							<path d="M149.5,162c-1,0-1.2,0-1.2-0.4c-2.8-2.6-3.8-15.7-3.8-16.3l-13.8-5.9l0.6-0.4c0.5-0.3,1-1.4,0.7-2.5l0.4-0.5
								c0.3,0,1.6,0.5,5.1,1.8c3.6,1.4,8.6,3.2,9.6,3.3c2.3-0.9,12.7-9.6,12.8-9.7l0.5-0.4l0.1,0.7c0.2,1.8,0.7,3.1,1.3,3.3l0.5,0.3
								l-0.5,0.4c-2,1.6-3.9,3.2-5.8,4.8c-2,1.6-3.9,3.3-6,5c0.2,1,0.2,2.4,0.2,3.8c0,4,0,8.1,1.9,12.4l0.2,0.5L149.5,162L149.5,162
								z M132.2,139.2l12.9,5.7c0.2,0.4,1.2,13.7,3.9,16.4c-0.1-0.1,0.2-0.1,0.6-0.1l1.8,0c-1.8-4.2-1.8-8.3-1.7-12.2
								c0-1.4,0-2.7-0.1-4.1c2.2-2,4.2-3.6,6.1-5.3c1.8-1.5,3.6-3,5.4-4.5c-0.6-0.6-1-1.8-1.1-2.9c-2.2,1.8-10.4,8.6-12.7,9.5
								c-1.2,0-5.1-1.4-10-3.3c-1.8-0.7-3.6-1.4-4.5-1.6C132.8,137.8,132.6,138.7,132.2,139.2L132.2,139.2z"/>
						</g>
						<g class="st19">
							<path d="M119.9,173.5l-0.7-0.4c0.5-0.6,1.3-1.7,1.7-2.2c0.1-0.2,0.3-0.5,0.5-0.8l0.4-0.6c0.5-0.7,0.8-1.1,1-1.5l0.3,0.2
								l0.1-0.7c6.5-8.5,13.8-13.5,18.8-16.1l0.8-0.4c1.3-0.7,2-1,2.3-1.2l0.2,0.3l-0.3,0.2c0.3,0.2-1,0.9-1.9,1.4l-0.8,0.4
								c-4.9,2.6-12.2,7.5-18.5,15.9l-0.4,0.5c-0.1,0.2-0.4,0.7-0.7,1.1l-0.6,0.9c-0.2,0.2-0.4,0.5-0.5,0.7c-0.4,0.5-1.1,1.5-1.6,2
								l0.1,0.1l-0.1-0.1C119.9,173.4,119.8,173.4,119.9,173.5L119.9,173.5L119.9,173.5z"/>
						</g>
						<g class="st19">
							<path d="M186,155.2c-0.8-0.2-2.1-0.4-2.7-0.5c-0.3,0-0.6-0.1-0.9-0.1c-0.3,0-0.5-0.1-0.8-0.1c-0.9-0.1-1.4-0.2-1.7-0.2l0-0.4
								l-0.6,0.3c-10.5-1.9-18.3-6.1-22.9-9.4l-0.7-0.5c-1.2-0.8-1.8-1.3-2.1-1.5l0.2-0.3l0.3,0.2c0.1-0.3,1.2,0.4,2,1l0.7,0.5
								c4.6,3.2,12.3,7.4,22.7,9.2l0.6,0.1c0.2,0,0.8,0,1.3,0.1c0.6,0.1,0.9,0.1,1.2,0.2c0.3,0,0.6,0.1,0.8,0.1
								c0.6,0.1,1.8,0.3,2.5,0.5l0-0.1l0,0.1c0,0,0,0,0.1,0l0.1-0.1L186,155.2L186,155.2z"/>
						</g>
					</g>
				</g>
			</g>
		</g>
		<g class="st1">
			<g>
				<defs>
					<rect id="SVGID_27_" x="-106.9" y="0.2" width="513.7" height="299.7"/>
				</defs>
				<clipPath id="SVGID_28_">
					<use xlink:href="#SVGID_27_"  style="overflow:visible;"/>
				</clipPath>
				<rect x="-106.9" y="0.2" class="st27" width="513.7" height="299.7"/>
				<rect x="-106.9" y="23.9" class="st28" width="513.7" height="48.2"/>
				<rect x="-106.9" y="227.9" class="st28" width="513.7" height="48.2"/>
				<path class="st28" d="M188.9,150l19.8-33.8h-39.4L150,82.2l-19.4,34.1H91.2l19.9,33.8l-19.9,33.7h39.4l19.4,34.1l19.4-34.1h39.4
					L188.9,150z M143,116.2l7-12.3l7,12.3H143z M182.6,160.8l6.8,11.8h-13.6L182.6,160.8z M175.8,127.4h13.6l-6.8,11.8L175.8,127.4z
					 M157,183.7l-7,12.3l-7-12.3H157z M136.6,172.6l-13-22.6l13-22.6h26.9l13,22.6l-13,22.6H136.6z M124.2,172.6h-13.6l6.8-11.8
					L124.2,172.6z M110.6,127.4h13.6l-6.8,11.8L110.6,127.4z"/>
			</g>
		</g>
	</g>
</g>
</svg>
