<?xml version="1.0" encoding="utf-8"?>
<!-- Generator: Adobe Illustrator 22.1.0, SVG Export Plug-In . SVG Version: 6.00 Build 0)  -->
<svg version="1.1" xmlns="http://www.w3.org/2000/svg" xmlns:xlink="http://www.w3.org/1999/xlink" x="0px" y="0px"
	 viewBox="0 0 300 300" style="enable-background:new 0 0 300 300;" xml:space="preserve">
<style type="text/css">
	.st0{clip-path:url(#SVGID_2_);}
	.st1{clip-path:url(#SVGID_4_);fill:#3B9112;}
	.st2{clip-path:url(#SVGID_4_);fill:#FFFFFF;}
	.st3{clip-path:url(#SVGID_6_);fill:#BC0030;}
	.st4{clip-path:url(#SVGID_6_);fill:#192967;}
	.st5{clip-path:url(#SVGID_6_);}
	.st6{clip-path:url(#SVGID_8_);fill:#FFFFFF;}
	.st7{clip-path:url(#SVGID_10_);fill:#7B132A;}
	.st8{clip-path:url(#SVGID_10_);fill:#FFFFFF;}
</style>
<g id="Layer_2">
</g>
<g id="Layer_1">
	<g>
		<defs>
			<rect id="SVGID_1_" y="-0.1" width="300" height="300"/>
		</defs>
		<clipPath id="SVGID_2_">
			<use xlink:href="#SVGID_1_"  style="overflow:visible;"/>
		</clipPath>
		<g id="Layer_2_1_" class="st0">
		</g>
		<g class="st0">
			<g>
				<defs>
					<rect id="SVGID_3_" x="-46" y="-0.1" width="515" height="300.4"/>
				</defs>
				<clipPath id="SVGID_4_">
					<use xlink:href="#SVGID_3_"  style="overflow:visible;"/>
				</clipPath>
				<rect x="-46" y="-0.1" class="st1" width="515" height="300.4"/>
				<polygon class="st1" points="76.6,-0.1 -46,113.3 76.6,113.3 				"/>
				<polygon class="st2" points="75.4,-0.1 75.4,112.1 -46,112.1 -46,114.5 77.9,114.5 77.9,-0.1 				"/>
				<polygon class="st1" points="-46,186.9 76.6,300.3 76.6,186.9 				"/>
				<polygon class="st2" points="-46,185.7 -46,188.1 75.4,188.1 75.4,300.3 77.9,300.3 77.9,185.7 				"/>
				<polygon class="st1" points="150.2,186.9 150.2,300.3 469,186.9 				"/>
				<polygon class="st2" points="149,185.7 149,300.3 151.4,300.3 151.4,188.1 469,188.1 469,185.7 				"/>
				<polyline class="st1" points="150.2,-0.1 150.2,113.3 469,113.3 				"/>
				<polygon class="st2" points="469,114.5 149,114.5 149,-0.1 151.4,-0.1 151.4,112.1 469,112.1 				"/>
			</g>
		</g>
		<g class="st0">
			<g>
				<defs>
					<rect id="SVGID_5_" x="-108.8" y="-1" width="517.7" height="302"/>
				</defs>
				<clipPath id="SVGID_6_">
					<use xlink:href="#SVGID_5_"  style="overflow:visible;"/>
				</clipPath>
				<rect x="-108.8" y="-1" class="st3" width="517.7" height="302"/>
				<rect x="-108.8" y="74.5" class="st4" width="517.7" height="151"/>
				<g class="st5">
					<defs>
						<rect id="SVGID_7_" x="-108.8" y="-1" width="517.7" height="302"/>
					</defs>
					<clipPath id="SVGID_8_">
						<use xlink:href="#SVGID_7_"  style="overflow:visible;"/>
					</clipPath>
					<path class="st6" d="M150,89.6c33.4,0,60.4,27,60.4,60.4c0,33.4-27,60.4-60.4,60.4c-33.4,0-60.4-27-60.4-60.4
						C89.6,116.6,116.6,89.6,150,89.6"/>
				</g>
			</g>
		</g>
		<g class="st0">
			<g>
				<defs>
					<rect id="SVGID_9_" x="-110.8" y="-2.1" width="521.5" height="304.2"/>
				</defs>
				<clipPath id="SVGID_10_">
					<use xlink:href="#SVGID_9_"  style="overflow:visible;"/>
				</clipPath>
				<rect x="-110.8" y="-2.1" class="st7" width="521.5" height="304.2"/>
				<rect x="-110.8" y="119.6" class="st8" width="521.5" height="60.8"/>
			</g>
		</g>
	</g>
</g>
</svg>
