<?xml version="1.0" encoding="utf-8"?>
<!-- Generator: Adobe Illustrator 22.1.0, SVG Export Plug-In . SVG Version: 6.00 Build 0)  -->
<svg version="1.1" xmlns="http://www.w3.org/2000/svg" xmlns:xlink="http://www.w3.org/1999/xlink" x="0px" y="0px"
	 viewBox="0 0 300 300" style="enable-background:new 0 0 300 300;" xml:space="preserve">
<style type="text/css">
	.st0{clip-path:url(#SVGID_2_);}
	.st1{clip-path:url(#SVGID_4_);fill:#3B9112;}
	.st2{clip-path:url(#SVGID_4_);fill:#FFFFFF;}
	.st3{clip-path:url(#SVGID_6_);fill:#BC0030;}
	.st4{clip-path:url(#SVGID_6_);fill:#192967;}
	.st5{clip-path:url(#SVGID_6_);}
	.st6{clip-path:url(#SVGID_8_);fill:#FFFFFF;}
	.st7{clip-path:url(#SVGID_10_);fill:#7B132A;}
	.st8{clip-path:url(#SVGID_10_);fill:#FFFFFF;}
	.st9{clip-path:url(#SVGID_12_);fill:#FFFFFF;}
	.st10{clip-path:url(#SVGID_12_);fill:#E53633;}
	.st11{clip-path:url(#SVGID_12_);}
	.st12{clip-path:url(#SVGID_14_);fill:#419F43;}
	.st13{clip-path:url(#SVGID_16_);fill:#FFFFFF;}
	.st14{clip-path:url(#SVGID_16_);fill:#3D9546;}
	.st15{clip-path:url(#SVGID_16_);fill:#1F189B;}
	.st16{clip-path:url(#SVGID_16_);}
	.st17{clip-path:url(#SVGID_18_);}
	.st18{clip-path:url(#SVGID_18_);fill:#FFFFFF;}
</style>
<g id="Layer_2">
</g>
<g id="Layer_1">
	<g>
		<defs>
			<rect id="SVGID_1_" y="-0.1" width="300" height="300"/>
		</defs>
		<clipPath id="SVGID_2_">
			<use xlink:href="#SVGID_1_"  style="overflow:visible;"/>
		</clipPath>
		<g id="Layer_2_1_" class="st0">
		</g>
		<g class="st0">
			<g>
				<defs>
					<rect id="SVGID_3_" x="-46" y="-0.1" width="515" height="300.4"/>
				</defs>
				<clipPath id="SVGID_4_">
					<use xlink:href="#SVGID_3_"  style="overflow:visible;"/>
				</clipPath>
				<rect x="-46" y="-0.1" class="st1" width="515" height="300.4"/>
				<polygon class="st1" points="76.6,-0.1 -46,113.3 76.6,113.3 				"/>
				<polygon class="st2" points="75.4,-0.1 75.4,112.1 -46,112.1 -46,114.5 77.9,114.5 77.9,-0.1 				"/>
				<polygon class="st1" points="-46,186.9 76.6,300.3 76.6,186.9 				"/>
				<polygon class="st2" points="-46,185.7 -46,188.1 75.4,188.1 75.4,300.3 77.9,300.3 77.9,185.7 				"/>
				<polygon class="st1" points="150.2,186.9 150.2,300.3 469,186.9 				"/>
				<polygon class="st2" points="149,185.7 149,300.3 151.4,300.3 151.4,188.1 469,188.1 469,185.7 				"/>
				<polyline class="st1" points="150.2,-0.1 150.2,113.3 469,113.3 				"/>
				<polygon class="st2" points="469,114.5 149,114.5 149,-0.1 151.4,-0.1 151.4,112.1 469,112.1 				"/>
			</g>
		</g>
		<g class="st0">
			<g>
				<defs>
					<rect id="SVGID_5_" x="-108.8" y="-1" width="517.7" height="302"/>
				</defs>
				<clipPath id="SVGID_6_">
					<use xlink:href="#SVGID_5_"  style="overflow:visible;"/>
				</clipPath>
				<rect x="-108.8" y="-1" class="st3" width="517.7" height="302"/>
				<rect x="-108.8" y="74.5" class="st4" width="517.7" height="151"/>
				<g class="st5">
					<defs>
						<rect id="SVGID_7_" x="-108.8" y="-1" width="517.7" height="302"/>
					</defs>
					<clipPath id="SVGID_8_">
						<use xlink:href="#SVGID_7_"  style="overflow:visible;"/>
					</clipPath>
					<path class="st6" d="M150,89.6c33.4,0,60.4,27,60.4,60.4c0,33.4-27,60.4-60.4,60.4c-33.4,0-60.4-27-60.4-60.4
						C89.6,116.6,116.6,89.6,150,89.6"/>
				</g>
			</g>
		</g>
		<g class="st0">
			<g>
				<defs>
					<rect id="SVGID_9_" x="-110.8" y="-2.1" width="521.5" height="304.2"/>
				</defs>
				<clipPath id="SVGID_10_">
					<use xlink:href="#SVGID_9_"  style="overflow:visible;"/>
				</clipPath>
				<rect x="-110.8" y="-2.1" class="st7" width="521.5" height="304.2"/>
				<rect x="-110.8" y="119.6" class="st8" width="521.5" height="60.8"/>
			</g>
		</g>
		<g class="st0">
			<g>
				<defs>
					<rect id="SVGID_11_" x="-109.1" y="-1.1" width="518.2" height="302.3"/>
				</defs>
				<clipPath id="SVGID_12_">
					<use xlink:href="#SVGID_11_"  style="overflow:visible;"/>
				</clipPath>
				<rect x="-109.1" y="-1.1" class="st9" width="518.2" height="302.3"/>
				<rect x="-109.1" y="225.6" class="st10" width="518.2" height="75.6"/>
				<rect x="-109.1" y="-1.1" class="st10" width="518.2" height="75.6"/>
				<g class="st11">
					<defs>
						<rect id="SVGID_13_" x="-109.1" y="-1.1" width="518.2" height="302.3"/>
					</defs>
					<clipPath id="SVGID_14_">
						<use xlink:href="#SVGID_13_"  style="overflow:visible;"/>
					</clipPath>
					<path class="st12" d="M147.9,74.4l-2.5,4.1c-1.4,2.3-4.7,5.7-7.3,7.6c-2.7,1.9-5.9,4.7-7.1,6.3l-2.3,2.8l2.5-0.6
						c1.4-0.4,3.1-0.9,3.9-1.3c0.8-0.3,1.5-0.2,1.5,0.4c0,0,0,0,0,0.1c0,0,0,0.1,0,0.1c-0.4,1.5-4.6,4.8-8,6.2
						c-3.2,1.3-8,4.8-8.7,6.2c0,0,0,0.1,0,0.1c0,0,0,0,0,0.1c0,0,0,0,0,0.1v0v0c0,0,0,0,0,0v0c0,0,0,0,0,0.1c0,0,0,0,0,0
						c0,0,0,0,0,0c0,0,0,0,0,0c0,0,0,0,0,0c0,0,0,0,0,0c0.4,0.3,1.4,0.3,2.6,0c2.1-0.5,3-0.2,3.7,1.3c1.1,2.2,0.4,3.2-2,3.2
						c-3,0-7.2,3-7.7,5.5c-0.4,1.7-2,3.1-5.5,4.6c-5.7,2.6-13,7.5-13.5,9.1c0,0.1,0,0.1,0,0.1c0,2.2,4.8,2,11.7-0.4
						c1.6-0.5,2.2,0,3.4,2.7c1.5,3.3,1.4,3.4-1.9,7.7c-2.4,3-4.4,4.6-6.7,5.1c-4.5,0.9-5.9,1.8-11.7,7.7c-2.8,2.8-5.6,5.1-6.2,5.1
						c-0.2,0-0.4,0-0.5,0.1c0,0,0,0,0,0s0,0,0,0l0,0v0l0,0c0,0,0,0,0,0s0,0,0,0v0c0,0,0,0,0,0c0,0,0,0,0,0c0,0,0,0,0,0.1
						c0,0,0,0,0,0c0,0,0,0,0,0c0.5,0.9,3.5,2.6,5.3,2.6c1.3,0,4.3-1.4,6.8-3.2c4.4-3.1,4.6-3.1,6.3-1.4c1,1,1.8,2.9,1.8,4.3
						c0,2.1-1.1,3-6.8,5.9c-4.2,2.2-9.2,5.9-13.1,9.8c-5.2,5.2-6.7,6.2-9,5.8c-1.4-0.2-2.2-0.3-2.4-0.2c0,0,0,0,0,0c0,0,0,0,0,0
						c0,0,0,0,0,0c0,0,0,0.1,0,0.1c0,0.3,0.5,0.8,1.3,1.8c0.8,0.9,2.7,1.6,4.1,1.6c4,0,16.7-4.7,20.6-7.7c3.6-2.7,7.2-3.3,10.1-1.5
						c4.5,2.7-3,8-17.3,12.3c-5.2,1.6-9.8,3.1-10.4,3.5c0,0,0,0,0,0l0,0c0,0,0,0,0,0s0,0,0,0c-0.2,0.3,0.1,1.2,0.7,2
						c1.5,2,9,2.1,15.4,0.2c2.6-0.8,8.9-3.3,14.1-5.7c9.5-4.3,9.5-4.3,12.8-2.6c7.7,4,7,11.1-2.3,22.7c-4,5-7.6,7.3-14.1,8.9
						c-2.4,0.6-7.3,5.2-7.3,6.9c0,0.2,0,0.3,0.1,0.4h1.7c0.4-0.3,0.7-0.6,1.1-1.1c2-2.7,6.2-4.5,10.4-4.6c4.5,0,10.1-2.5,14.3-6.4
						c3.7-3.4,7.4-4.4,10.1-2.8c1.5,0.9,2.9,1,4.8,0.3c3.3-1.3,5-0.6,5,1.8c0,1.1,1.2,2.6,2.8,3.5c1.5,0.9,4.2,3,6,4.7
						c1.4,1.3,2.4,1.9,2.9,1.9c0,0,0.1,0,0.1,0c0,0,0,0,0,0c0,0,0,0,0.1,0c0,0,0,0,0,0c0,0,0.1,0,0.1,0c0,0,0,0,0,0c0,0,0,0,0,0
						s0,0,0,0l0,0c0,0,0,0,0,0c0,0,0,0,0,0c0,0,0,0,0,0c0,0,0,0,0-0.1c0,0,0,0,0-0.1c0.1-0.6-0.4-1.8-1.4-3.4
						c-0.6-1-0.9-1.9-0.8-2.4c0,0,0,0,0-0.1c0,0,0,0,0,0c0,0,0,0,0,0s0,0,0,0c0,0,0,0,0-0.1l0,0c0,0,0,0,0,0l0,0c0,0,0,0,0,0
						c0.6-0.2,3.7-0.1,7,0.3c5.9,0.7,6.6,1,10.1,5.1c1.7,2,3.1,3.2,4.3,3.8h2.4c0.5-0.2,0.9-0.6,0.9-0.9c0,0,0,0,0,0c0,0,0,0,0-0.1
						c0,0,0,0,0,0c0,0,0,0,0,0v0c0,0,0,0,0,0c-0.2-0.7-3.7-4-7.9-7.5c-9.5-8-11-10.9-11-21.9c0-6.6,0.3-8.3,1.8-10
						c2.4-2.7,3.7-2.6,9.6,0.5c4.5,2.3,5.9,2.5,16,2.3c10.9-0.2,11.2-0.2,16.7,3c3.1,1.8,6.8,4.2,8.3,5.4c3.4,2.5,6.8,2.7,7.6,0.4
						c1-2.7-5.5-8.1-17.6-14.5c-12-6.4-13.3-8.2-7.7-11.1c3.2-1.7,3.4-1.6,8.4,1.2c4,2.2,5.8,2.7,8.4,2.2l3.3-0.7l-7.2-5.9
						c-4-3.2-7.8-6.7-8.5-7.7c-2.1-2.8-6.2-4.7-10.2-4.7c-1.9,0-3.6-0.4-4.1-0.8c0,0,0,0,0-0.1c0,0,0,0,0,0c0,0,0,0,0,0
						c-1.1-2,2.3-3,11.8-3.3c12.8-0.5,14.5-2,5.7-4.8c-3.5-1.1-8.8-2.6-11.7-3.2c-3.6-0.8-5.5-1.6-6-2.6c-0.1-0.1-0.1-0.2-0.1-0.4
						c0-0.1,0-0.2,0-0.3c0-0.3,0.2-0.7,0.6-1c0.6-0.7,3.5-0.6,8.3,0.2c5.5,0.9,8.5,1.1,9,0.5c0.6-0.7-2-2.6-7.5-5.6
						c-5.1-2.8-11.5-7.4-14.4-10.2c-2.9-2.8-7.2-6.1-9.5-7.2c-3.1-1.5-4.1-2.5-3.7-3.6c0.7-2,5.6-2,8.7,0c1.3,0.8,4.6,1.5,7.4,1.4
						l5.1,0l-3.4-1.4c-3.4-1.4-12.6-7.9-13.3-9.4c0,0,0-0.1,0-0.1c0,0,0,0,0,0v0c0,0,0,0,0,0c0,0,0,0,0,0s0,0,0,0l0,0
						c0.4-0.3,2.5-0.4,5-0.3l5.1,0.3l-7.4-5.7c-5.4-4.2-8.7-6-12.5-6.8c-2.9-0.6-6.1-1.3-7.3-1.6c-3.1-0.7-8.2-6.1-10.3-10.7
						L147.9,74.4z M131.2,103.1c0.1,0,0.2,0,0.4,0c1,0,1.6,0.2,1.9,0.6c0,0,0,0,0,0c0,0,0,0,0,0c0,0,0.1,0.1,0.1,0.2c0,0,0,0,0,0.1
						c0,0,0,0.1,0,0.1c0,0,0,0,0,0.1c0,0,0,0.1,0,0.1c0,0,0,0,0,0.1c-0.2,0.7-1.3,1.8-2.4,2.7c-0.9,0.6-1.4,1-1.7,0.9c0,0,0,0-0.1,0
						c0,0,0,0,0,0c0,0,0,0,0-0.1c-0.2-0.2-0.2-0.9-0.2-2C129.1,103.7,129.5,103.2,131.2,103.1 M156,105.7
						C156,105.7,156,105.7,156,105.7c1.5,0,2.5,0.7,2.7,1.8c0.2,1.4-0.3,1.8-2.6,1.8c-1.3,0-2-0.1-2.4-0.5c-0.3-0.3-0.3-0.7-0.2-1.3
						C153.6,106.3,154.6,105.7,156,105.7 M148.7,106.3c1.3-0.1,1.8,0.6,1.8,2.2c0,1.9-0.7,2.5-4.2,3.4c-2.2,0.6-4.2,0.8-4.6,0.6
						c0,0,0,0,0,0l0,0c-1.2-1.3-0.1-3,2.8-4.6C146.4,106.9,147.8,106.3,148.7,106.3 M165.5,106.3c1.8-0.1,2.1,0.8,1.2,3.4
						c-0.3,0.9-1.6,1.6-2.9,1.6c-1.8,0-2.2-0.4-2-2.3c0.2-1.7,1-2.4,2.9-2.6C165,106.3,165.2,106.3,165.5,106.3 M137.2,111.3
						c0.1,0,0.1,0,0.2,0c2.2,0,0.8,4.2-2,6.2c-2.6,1.7-5.3,2.5-6,1.8c0,0,0,0,0,0c0-0.1-0.1-0.1-0.1-0.2c0,0,0,0,0,0c0,0,0,0,0-0.1
						c0,0,0,0,0,0c0,0,0,0,0-0.1c0,0,0-0.1,0-0.1v0C129.2,116.4,134.6,111.5,137.2,111.3 M158.3,121.1c1.1-0.1,1.7,1,1.4,3.2
						c-0.2,1.2-1.3,2-2.9,2.2c-1.2,0.2-2,0.1-2.3-0.2c0,0,0,0,0,0c0,0,0,0,0-0.1c0,0,0,0,0,0c0,0,0,0,0,0c0,0,0-0.1,0-0.1
						c-0.1-0.6,0.4-1.6,1.7-3.4C156.9,121.7,157.6,121.1,158.3,121.1 M149.9,121.5c0.1,0,0.1,0,0.1,0c2.1,0,2.5,1.9,0.5,3
						c-0.9,0.5-1.8,0.9-2,1c0,0,0,0,0,0l0,0c-0.2-0.1-1.3-0.4-2.6-0.9l-2.3-0.8l2.6-1.2C147.5,122.1,149.1,121.6,149.9,121.5
						 M167.9,123.9c1-0.1,2.1,0.1,3.2,0.6c1.9,0.8,2.3,1.5,1.9,3.6c-0.5,2.9-2.1,3.2-7.5,1.5c-2.6-0.8-2.9-1.2-2.1-3
						C164.3,125,166,124,167.9,123.9 M128,124.6c0.1,0,0.1,0,0.2,0c3.9,0,4.5,0.7,2.6,3.2c-0.6,0.8-1.8,2.1-2.7,2.8
						c-1.3,1.1-1.7,1-2.5-0.7c-1-2-1.3-3.4-0.8-4.2C125.1,124.9,126.2,124.6,128,124.6 M117.7,126.3c1.7-0.1,2.7,0.7,4,3l1.9,3.2
						l-2.8,1.1c-2.6,1-3,0.8-5.1-2.2c-1.3-1.9-1.8-3.1-1.5-3.9c0-0.1,0.1-0.2,0.1-0.2c0,0,0,0,0.1-0.1c0,0,0,0,0-0.1
						c0.5-0.5,1.4-0.7,2.9-0.9C117.5,126.4,117.6,126.3,117.7,126.3 M179.4,136c1.9-0.2,3.7,1.2,3.5,3.3c-0.4,2.7-3.3,3.4-5.7,1.5
						c-1.4-1.2-1.5-1.6-0.4-3.3C177.4,136.5,178.4,136.1,179.4,136 M144.4,141c0.1,0,0.1,0,0.2,0c0.2,0,0.3,0,0.4,0.1
						c0.1,0,0.2,0.1,0.2,0.1c0,0,0.1,0,0.1,0.1c0,0,0,0,0,0c0,0,0,0,0,0c0,0,0,0,0,0c0.3,0.4,0.4,1,0.3,1.8c-0.4,2.8-2.2,3.6-3,1.3
						C142,142.5,142.7,141.1,144.4,141 M132.7,143.1c0.8-0.1,2.1,0.4,3.4,1.5c0.9,0.7,1.3,1.4,1.2,2c0,0.1,0,0.1,0,0.1
						c0,0,0,0.1,0,0.1c0,0,0,0,0,0.1c0,0,0,0.1-0.1,0.1c0,0,0,0,0,0c0,0,0,0,0,0.1c0,0-0.1,0.1-0.1,0.1c0,0,0,0,0,0
						c-0.5,0.4-1.7,0.3-3-0.7c-1.1-0.8-2-1.9-2-2.5c0,0,0,0,0,0v0C131.9,143.5,132.2,143.2,132.7,143.1 M151.3,143.5
						c0.4,0,0.7,0.3,1.4,1c0.8,0.9,1.7,2.6,2.1,3.7c0.8,2.8-0.5,4-3,2.7c-2.7-1.4-3.4-3.6-1.8-6C150.5,144,150.9,143.6,151.3,143.5
						 M157.8,147.4c0.7-0.1,1.6,0.9,1.8,2.7c0.1,1,0,1.9-0.3,2.1c0,0,0,0,0,0c0,0,0,0,0,0c0,0,0,0,0,0s0,0,0,0h0h0h0h0
						c-1.3,0-2.1-1.2-2.1-3.3C157,147.9,157.3,147.4,157.8,147.4 M117,151.5c1.4,0,2.6,0.1,3.4,0.2c1.3,0.3,2.2,0.6,2.6,1.1
						c0.1,0.1,0.2,0.2,0.2,0.3c0,0.1,0,0.1,0,0.2c0,0.1,0,0.2,0,0.4c-0.2,0.8-1.3,1.8-3.4,2.9c-1.8,0.9-4.7,2-6.6,2.4
						c-3.1,0.6-3.6,0.4-4.9-2.4c-0.8-1.7-1.4-3.2-1.4-3.5c0,0,0,0,0,0c0,0,0,0,0,0c0,0,0,0,0,0c0,0,0,0,0,0l0,0
						C107.5,152.1,113,151.5,117,151.5 M180.2,160.7c3.7-0.2,5.6,2.3,1.7,5.4c-2.6,2-6.3,2.1-8.7,0.2c-1.7-1.4-1.6-1.5,1.5-3.6
						C176.6,161.3,178.6,160.7,180.2,160.7 M193.6,163.6c0.1,0,0.1,0,0.2,0c0.5,0,1.8,0.6,2.8,1.4c1.8,1.4,1.8,1.5-0.4,4.1
						c-1.1,1.3-2.3,2.4-2.7,2.5c0,0,0,0,0,0h0h0c0,0,0,0,0,0c-0.3-0.1-1.9-0.3-3.6-0.6c-1.8-0.3-3-1-3-1.9c0,0,0-0.1,0-0.1
						C187,167.4,191.6,163.8,193.6,163.6 M126.5,167.6c0.2,0,0.4,0,0.6,0c2.5,0,3.9,2.1,3.9,5.8c0,5.1-3.1,4.7-4.5-0.6
						C125.2,168.3,125.1,167.7,126.5,167.6 M145.7,169.1c1.5,0,5.2,0.8,5.7,1.4c0,0,0,0,0,0c0,0,0,0,0,0v0l0,0v0c0,0,0,0,0,0
						s0,0,0,0c0,0.4-1,2-2.2,3.6l-2.2,2.9l-1.1-3.8c-0.6-1.9-0.9-3.6-0.8-4c0,0,0,0,0,0c0,0,0,0,0,0v0c0,0,0,0,0,0l0,0c0,0,0,0,0,0
						h0l0,0c0,0,0,0,0,0C145.3,169.1,145.4,169.1,145.7,169.1 M136.3,170.8c0.3,0,0.7,0,1.3,0.1c1.2,0.2,2.3,1.2,2.5,2.2
						c0.2,1.3,0.1,2.2-0.2,2.7c0,0-0.1,0.1-0.1,0.1c0,0-0.1,0.1-0.1,0.1c0,0,0,0,0,0c-0.1,0-0.1,0.1-0.2,0.1c0,0-0.1,0-0.1,0
						c-0.1,0-0.1,0-0.2,0c-0.6-0.1-1.4-0.9-2.1-2.3c-0.8-1.7-1.2-2.5-1-2.9c0,0,0-0.1,0.1-0.1C136.1,170.8,136.2,170.8,136.3,170.8"
						/>
				</g>
			</g>
		</g>
		<g class="st0">
			<g>
				<defs>
					<rect id="SVGID_15_" x="-108.3" y="-0.7" width="516.6" height="301.3"/>
				</defs>
				<clipPath id="SVGID_16_">
					<use xlink:href="#SVGID_15_"  style="overflow:visible;"/>
				</clipPath>
				<rect x="-108.3" y="-0.7" class="st13" width="516.6" height="301.3"/>
				<rect x="-108.3" y="210.3" class="st14" width="516.6" height="90.4"/>
				<rect x="-108.3" y="-0.7" class="st15" width="516.6" height="90.4"/>
				<g class="st16">
					<defs>
						<rect id="SVGID_17_" x="-108.3" y="-0.7" width="516.6" height="301.3"/>
					</defs>
					<clipPath id="SVGID_18_">
						<use xlink:href="#SVGID_17_"  style="overflow:visible;"/>
					</clipPath>
					<path class="st17" d="M149.8,95.3c-1.7,0-3.4,1.9-3.4,1.9l0.1,20.3l-6.4,6.7h5.2l0,11.7l-30.7,41.4l-4.6-1.6l-7.9,16.9
						c0,0,19.6,12.3,48.1,12c31.3-0.4,48.3-12.5,48.3-12.5l-8.2-16.7l-4,1.7L155.1,136l0-12h5.2l-7.1-6.6l0-20.2
						C153.2,97.1,151.5,95.3,149.8,95.3L149.8,95.3z"/>
					<g class="st17">
						<path d="M149,204.9c-27.6,0-46.9-11.9-47.1-12l7.8-17.2l4.8,1.5l30.5-41.3v-11.5l-5,0.2l6.3-7.1l-0.2-20.2
							c0.1-0.2,1.8-2.1,3.6-2.2c1.8,0,3.6,1.8,3.6,1.9l0,20.4l7,6.5l-5.3,0.4l0.3,11.8l31.1,41l3.7-1.8l8.5,16.8
							c-0.2,0.4-17.5,12.5-48.5,12.8L149,204.9L149,204.9z M102.3,192.8c0.4,0,19.5,11.7,46.8,11.7l1.2,0
							c30.9-0.4,48-12.4,48.2-12.5l-8.3-16.4l-3.7,1.9l-31.4-41.2l-0.1-12.1l5.4-0.2l-7.2-6.3l0-20.4l0,0c-0.1,0-1.7-1.6-3.2-1.6
							c-1.6,0-3.3,1.9-3.3,1.9l0.2,20.2l-6.5,6.9l5-0.4l0.2,11.9l-30.8,41.5l-4.8-1.5L102.3,192.8L102.3,192.8L102.3,192.8z"/>
					</g>
					<g class="st17">
						<path d="M161.2,145.1h-22.6l-0.3-0.6c-0.3-0.7-7.8-16.7-6.5-28.2c1.3-11.4,7.7-18,17.7-18.1h0c11.1,0,16.9,5.6,18.6,17.6
							c1.7,11.7-6.2,28-6.5,28.7L161.2,145.1L161.2,145.1z M139.9,142.9h19.8c1.4-3.1,7.4-17,6.1-26.8c-1.6-10.9-6.5-15.7-16.1-15.7
							c-9.2,0.1-14.8,5.8-15.9,16.2C132.8,126.2,138.6,139.8,139.9,142.9L139.9,142.9z"/>
					</g>
					<path class="st18" d="M112.6,182.7c-0.4,0.5-2.9,5.6-2.9,5.6l4.4-0.9L112.6,182.7z"/>
					<polygon class="st18" points="115.2,189.3 110.5,190.8 116.1,193 					"/>
					<polygon class="st18" points="117.3,182.8 119.6,189.7 125.2,188 123.7,184.8 					"/>
					<polygon class="st18" points="120.8,192.1 121.6,194.9 129.2,196.7 126.2,190.4 					"/>
					<polygon class="st18" points="129.2,186.3 131.8,192.7 137.5,190.5 135.7,187.7 					"/>
					<polygon class="st18" points="132.9,195 133.8,197.4 142.6,198.7 138.9,192.9 					"/>
					<polygon class="st18" points="141.3,188.2 144.6,193.8 152.8,190.8 151.9,188.6 					"/>
					<polygon class="st18" points="146.1,195.9 147.8,198.9 158,198.6 154.2,192.9 					"/>
					<polygon class="st18" points="156.8,188.4 159.6,193.1 166.1,190 164.4,187.5 					"/>
					<polygon class="st18" points="167.5,192 161,195.2 162.8,198 171.4,196.6 					"/>
					<polygon class="st18" points="169.6,187 172.9,191.2 178.4,186.9 176.5,184.9 					"/>
					<polygon class="st18" points="179.5,189.2 174.3,193.1 175.7,195.6 182.9,193.7 					"/>
					<polygon class="st18" points="186.7,181 188,182.8 184.4,188.2 180.7,183.4 					"/>
					<polygon class="st18" points="189.1,185.6 191.4,190 187,191.5 186.6,189.4 					"/>
				</g>
			</g>
		</g>
	</g>
</g>
</svg>
