<?xml version="1.0" encoding="utf-8"?>
<!-- Generator: Adobe Illustrator 22.1.0, SVG Export Plug-In . SVG Version: 6.00 Build 0)  -->
<svg version="1.1" xmlns="http://www.w3.org/2000/svg" xmlns:xlink="http://www.w3.org/1999/xlink" x="0px" y="0px"
	 viewBox="0 0 300 300" style="enable-background:new 0 0 300 300;" xml:space="preserve">
<style type="text/css">
	.st0{clip-path:url(#SVGID_2_);}
	.st1{clip-path:url(#SVGID_4_);fill:#3B9112;}
	.st2{clip-path:url(#SVGID_4_);fill:#FFFFFF;}
	.st3{clip-path:url(#SVGID_6_);fill:#BC0030;}
	.st4{clip-path:url(#SVGID_6_);fill:#192967;}
	.st5{clip-path:url(#SVGID_6_);}
	.st6{clip-path:url(#SVGID_8_);fill:#FFFFFF;}
	.st7{clip-path:url(#SVGID_10_);fill:#7B132A;}
	.st8{clip-path:url(#SVGID_10_);fill:#FFFFFF;}
	.st9{clip-path:url(#SVGID_12_);fill:#FFFFFF;}
	.st10{clip-path:url(#SVGID_12_);fill:#E53633;}
	.st11{clip-path:url(#SVGID_12_);}
	.st12{clip-path:url(#SVGID_14_);fill:#419F43;}
	.st13{clip-path:url(#SVGID_16_);fill:#FFFFFF;}
	.st14{clip-path:url(#SVGID_16_);fill:#3D9546;}
	.st15{clip-path:url(#SVGID_16_);fill:#1F189B;}
	.st16{clip-path:url(#SVGID_16_);}
	.st17{clip-path:url(#SVGID_18_);}
	.st18{clip-path:url(#SVGID_18_);fill:#FFFFFF;}
	.st19{clip-path:url(#SVGID_20_);fill:#AE0037;}
	.st20{clip-path:url(#SVGID_20_);fill:#FFFFFF;}
	.st21{clip-path:url(#SVGID_20_);fill:#192967;}
	.st22{clip-path:url(#SVGID_22_);fill:#3D9635;}
	.st23{clip-path:url(#SVGID_24_);fill:#1C2A7D;}
	.st24{clip-path:url(#SVGID_24_);}
	.st25{clip-path:url(#SVGID_26_);fill:#F6D849;}
	.st26{clip-path:url(#SVGID_26_);}
	.st27{clip-path:url(#SVGID_26_);fill:#BC0030;}
	.st28{clip-path:url(#SVGID_26_);fill:#ED00FD;}
</style>
<g id="Layer_2">
</g>
<g id="Layer_1">
	<g>
		<defs>
			<rect id="SVGID_1_" y="-0.1" width="300" height="300"/>
		</defs>
		<clipPath id="SVGID_2_">
			<use xlink:href="#SVGID_1_"  style="overflow:visible;"/>
		</clipPath>
		<g id="Layer_2_1_" class="st0">
		</g>
		<g class="st0">
			<g>
				<defs>
					<rect id="SVGID_3_" x="-46" y="-0.1" width="515" height="300.4"/>
				</defs>
				<clipPath id="SVGID_4_">
					<use xlink:href="#SVGID_3_"  style="overflow:visible;"/>
				</clipPath>
				<rect x="-46" y="-0.1" class="st1" width="515" height="300.4"/>
				<polygon class="st1" points="76.6,-0.1 -46,113.3 76.6,113.3 				"/>
				<polygon class="st2" points="75.4,-0.1 75.4,112.1 -46,112.1 -46,114.5 77.9,114.5 77.9,-0.1 				"/>
				<polygon class="st1" points="-46,186.9 76.6,300.3 76.6,186.9 				"/>
				<polygon class="st2" points="-46,185.7 -46,188.1 75.4,188.1 75.4,300.3 77.9,300.3 77.9,185.7 				"/>
				<polygon class="st1" points="150.2,186.9 150.2,300.3 469,186.9 				"/>
				<polygon class="st2" points="149,185.7 149,300.3 151.4,300.3 151.4,188.1 469,188.1 469,185.7 				"/>
				<polyline class="st1" points="150.2,-0.1 150.2,113.3 469,113.3 				"/>
				<polygon class="st2" points="469,114.5 149,114.5 149,-0.1 151.4,-0.1 151.4,112.1 469,112.1 				"/>
			</g>
		</g>
		<g class="st0">
			<g>
				<defs>
					<rect id="SVGID_5_" x="-108.8" y="-1" width="517.7" height="302"/>
				</defs>
				<clipPath id="SVGID_6_">
					<use xlink:href="#SVGID_5_"  style="overflow:visible;"/>
				</clipPath>
				<rect x="-108.8" y="-1" class="st3" width="517.7" height="302"/>
				<rect x="-108.8" y="74.5" class="st4" width="517.7" height="151"/>
				<g class="st5">
					<defs>
						<rect id="SVGID_7_" x="-108.8" y="-1" width="517.7" height="302"/>
					</defs>
					<clipPath id="SVGID_8_">
						<use xlink:href="#SVGID_7_"  style="overflow:visible;"/>
					</clipPath>
					<path class="st6" d="M150,89.6c33.4,0,60.4,27,60.4,60.4c0,33.4-27,60.4-60.4,60.4c-33.4,0-60.4-27-60.4-60.4
						C89.6,116.6,116.6,89.6,150,89.6"/>
				</g>
			</g>
		</g>
		<g class="st0">
			<g>
				<defs>
					<rect id="SVGID_9_" x="-110.8" y="-2.1" width="521.5" height="304.2"/>
				</defs>
				<clipPath id="SVGID_10_">
					<use xlink:href="#SVGID_9_"  style="overflow:visible;"/>
				</clipPath>
				<rect x="-110.8" y="-2.1" class="st7" width="521.5" height="304.2"/>
				<rect x="-110.8" y="119.6" class="st8" width="521.5" height="60.8"/>
			</g>
		</g>
		<g class="st0">
			<g>
				<defs>
					<rect id="SVGID_11_" x="-109.1" y="-1.1" width="518.2" height="302.3"/>
				</defs>
				<clipPath id="SVGID_12_">
					<use xlink:href="#SVGID_11_"  style="overflow:visible;"/>
				</clipPath>
				<rect x="-109.1" y="-1.1" class="st9" width="518.2" height="302.3"/>
				<rect x="-109.1" y="225.6" class="st10" width="518.2" height="75.6"/>
				<rect x="-109.1" y="-1.1" class="st10" width="518.2" height="75.6"/>
				<g class="st11">
					<defs>
						<rect id="SVGID_13_" x="-109.1" y="-1.1" width="518.2" height="302.3"/>
					</defs>
					<clipPath id="SVGID_14_">
						<use xlink:href="#SVGID_13_"  style="overflow:visible;"/>
					</clipPath>
					<path class="st12" d="M147.9,74.4l-2.5,4.1c-1.4,2.3-4.7,5.7-7.3,7.6c-2.7,1.9-5.9,4.7-7.1,6.3l-2.3,2.8l2.5-0.6
						c1.4-0.4,3.1-0.9,3.9-1.3c0.8-0.3,1.5-0.2,1.5,0.4c0,0,0,0,0,0.1c0,0,0,0.1,0,0.1c-0.4,1.5-4.6,4.8-8,6.2
						c-3.2,1.3-8,4.8-8.7,6.2c0,0,0,0.1,0,0.1c0,0,0,0,0,0.1c0,0,0,0,0,0.1v0v0c0,0,0,0,0,0v0c0,0,0,0,0,0.1c0,0,0,0,0,0
						c0,0,0,0,0,0c0,0,0,0,0,0c0,0,0,0,0,0c0,0,0,0,0,0c0.4,0.3,1.4,0.3,2.6,0c2.1-0.5,3-0.2,3.7,1.3c1.1,2.2,0.4,3.2-2,3.2
						c-3,0-7.2,3-7.7,5.5c-0.4,1.7-2,3.1-5.5,4.6c-5.7,2.6-13,7.5-13.5,9.1c0,0.1,0,0.1,0,0.1c0,2.2,4.8,2,11.7-0.4
						c1.6-0.5,2.2,0,3.4,2.7c1.5,3.3,1.4,3.4-1.9,7.7c-2.4,3-4.4,4.6-6.7,5.1c-4.5,0.9-5.9,1.8-11.7,7.7c-2.8,2.8-5.6,5.1-6.2,5.1
						c-0.2,0-0.4,0-0.5,0.1c0,0,0,0,0,0s0,0,0,0l0,0v0l0,0c0,0,0,0,0,0s0,0,0,0v0c0,0,0,0,0,0c0,0,0,0,0,0c0,0,0,0,0,0.1
						c0,0,0,0,0,0c0,0,0,0,0,0c0.5,0.9,3.5,2.6,5.3,2.6c1.3,0,4.3-1.4,6.8-3.2c4.4-3.1,4.6-3.1,6.3-1.4c1,1,1.8,2.9,1.8,4.3
						c0,2.1-1.1,3-6.8,5.9c-4.2,2.2-9.2,5.9-13.1,9.8c-5.2,5.2-6.7,6.2-9,5.8c-1.4-0.2-2.2-0.3-2.4-0.2c0,0,0,0,0,0c0,0,0,0,0,0
						c0,0,0,0,0,0c0,0,0,0.1,0,0.1c0,0.3,0.5,0.8,1.3,1.8c0.8,0.9,2.7,1.6,4.1,1.6c4,0,16.7-4.7,20.6-7.7c3.6-2.7,7.2-3.3,10.1-1.5
						c4.5,2.7-3,8-17.3,12.3c-5.2,1.6-9.8,3.1-10.4,3.5c0,0,0,0,0,0l0,0c0,0,0,0,0,0s0,0,0,0c-0.2,0.3,0.1,1.2,0.7,2
						c1.5,2,9,2.1,15.4,0.2c2.6-0.8,8.9-3.3,14.1-5.7c9.5-4.3,9.5-4.3,12.8-2.6c7.7,4,7,11.1-2.3,22.7c-4,5-7.6,7.3-14.1,8.9
						c-2.4,0.6-7.3,5.2-7.3,6.9c0,0.2,0,0.3,0.1,0.4h1.7c0.4-0.3,0.7-0.6,1.1-1.1c2-2.7,6.2-4.5,10.4-4.6c4.5,0,10.1-2.5,14.3-6.4
						c3.7-3.4,7.4-4.4,10.1-2.8c1.5,0.9,2.9,1,4.8,0.3c3.3-1.3,5-0.6,5,1.8c0,1.1,1.2,2.6,2.8,3.5c1.5,0.9,4.2,3,6,4.7
						c1.4,1.3,2.4,1.9,2.9,1.9c0,0,0.1,0,0.1,0c0,0,0,0,0,0c0,0,0,0,0.1,0c0,0,0,0,0,0c0,0,0.1,0,0.1,0c0,0,0,0,0,0c0,0,0,0,0,0
						s0,0,0,0l0,0c0,0,0,0,0,0c0,0,0,0,0,0c0,0,0,0,0,0c0,0,0,0,0-0.1c0,0,0,0,0-0.1c0.1-0.6-0.4-1.8-1.4-3.4
						c-0.6-1-0.9-1.9-0.8-2.4c0,0,0,0,0-0.1c0,0,0,0,0,0c0,0,0,0,0,0s0,0,0,0c0,0,0,0,0-0.1l0,0c0,0,0,0,0,0l0,0c0,0,0,0,0,0
						c0.6-0.2,3.7-0.1,7,0.3c5.9,0.7,6.6,1,10.1,5.1c1.7,2,3.1,3.2,4.3,3.8h2.4c0.5-0.2,0.9-0.6,0.9-0.9c0,0,0,0,0,0c0,0,0,0,0-0.1
						c0,0,0,0,0,0c0,0,0,0,0,0v0c0,0,0,0,0,0c-0.2-0.7-3.7-4-7.9-7.5c-9.5-8-11-10.9-11-21.9c0-6.6,0.3-8.3,1.8-10
						c2.4-2.7,3.7-2.6,9.6,0.5c4.5,2.3,5.9,2.5,16,2.3c10.9-0.2,11.2-0.2,16.7,3c3.1,1.8,6.8,4.2,8.3,5.4c3.4,2.5,6.8,2.7,7.6,0.4
						c1-2.7-5.5-8.1-17.6-14.5c-12-6.4-13.3-8.2-7.7-11.1c3.2-1.7,3.4-1.6,8.4,1.2c4,2.2,5.8,2.7,8.4,2.2l3.3-0.7l-7.2-5.9
						c-4-3.2-7.8-6.7-8.5-7.7c-2.1-2.8-6.2-4.7-10.2-4.7c-1.9,0-3.6-0.4-4.1-0.8c0,0,0,0,0-0.1c0,0,0,0,0,0c0,0,0,0,0,0
						c-1.1-2,2.3-3,11.8-3.3c12.8-0.5,14.5-2,5.7-4.8c-3.5-1.1-8.8-2.6-11.7-3.2c-3.6-0.8-5.5-1.6-6-2.6c-0.1-0.1-0.1-0.2-0.1-0.4
						c0-0.1,0-0.2,0-0.3c0-0.3,0.2-0.7,0.6-1c0.6-0.7,3.5-0.6,8.3,0.2c5.5,0.9,8.5,1.1,9,0.5c0.6-0.7-2-2.6-7.5-5.6
						c-5.1-2.8-11.5-7.4-14.4-10.2c-2.9-2.8-7.2-6.1-9.5-7.2c-3.1-1.5-4.1-2.5-3.7-3.6c0.7-2,5.6-2,8.7,0c1.3,0.8,4.6,1.5,7.4,1.4
						l5.1,0l-3.4-1.4c-3.4-1.4-12.6-7.9-13.3-9.4c0,0,0-0.1,0-0.1c0,0,0,0,0,0v0c0,0,0,0,0,0c0,0,0,0,0,0s0,0,0,0l0,0
						c0.4-0.3,2.5-0.4,5-0.3l5.1,0.3l-7.4-5.7c-5.4-4.2-8.7-6-12.5-6.8c-2.9-0.6-6.1-1.3-7.3-1.6c-3.1-0.7-8.2-6.1-10.3-10.7
						L147.9,74.4z M131.2,103.1c0.1,0,0.2,0,0.4,0c1,0,1.6,0.2,1.9,0.6c0,0,0,0,0,0c0,0,0,0,0,0c0,0,0.1,0.1,0.1,0.2c0,0,0,0,0,0.1
						c0,0,0,0.1,0,0.1c0,0,0,0,0,0.1c0,0,0,0.1,0,0.1c0,0,0,0,0,0.1c-0.2,0.7-1.3,1.8-2.4,2.7c-0.9,0.6-1.4,1-1.7,0.9c0,0,0,0-0.1,0
						c0,0,0,0,0,0c0,0,0,0,0-0.1c-0.2-0.2-0.2-0.9-0.2-2C129.1,103.7,129.5,103.2,131.2,103.1 M156,105.7
						C156,105.7,156,105.7,156,105.7c1.5,0,2.5,0.7,2.7,1.8c0.2,1.4-0.3,1.8-2.6,1.8c-1.3,0-2-0.1-2.4-0.5c-0.3-0.3-0.3-0.7-0.2-1.3
						C153.6,106.3,154.6,105.7,156,105.7 M148.7,106.3c1.3-0.1,1.8,0.6,1.8,2.2c0,1.9-0.7,2.5-4.2,3.4c-2.2,0.6-4.2,0.8-4.6,0.6
						c0,0,0,0,0,0l0,0c-1.2-1.3-0.1-3,2.8-4.6C146.4,106.9,147.8,106.3,148.7,106.3 M165.5,106.3c1.8-0.1,2.1,0.8,1.2,3.4
						c-0.3,0.9-1.6,1.6-2.9,1.6c-1.8,0-2.2-0.4-2-2.3c0.2-1.7,1-2.4,2.9-2.6C165,106.3,165.2,106.3,165.5,106.3 M137.2,111.3
						c0.1,0,0.1,0,0.2,0c2.2,0,0.8,4.2-2,6.2c-2.6,1.7-5.3,2.5-6,1.8c0,0,0,0,0,0c0-0.1-0.1-0.1-0.1-0.2c0,0,0,0,0,0c0,0,0,0,0-0.1
						c0,0,0,0,0,0c0,0,0,0,0-0.1c0,0,0-0.1,0-0.1v0C129.2,116.4,134.6,111.5,137.2,111.3 M158.3,121.1c1.1-0.1,1.7,1,1.4,3.2
						c-0.2,1.2-1.3,2-2.9,2.2c-1.2,0.2-2,0.1-2.3-0.2c0,0,0,0,0,0c0,0,0,0,0-0.1c0,0,0,0,0,0c0,0,0,0,0,0c0,0,0-0.1,0-0.1
						c-0.1-0.6,0.4-1.6,1.7-3.4C156.9,121.7,157.6,121.1,158.3,121.1 M149.9,121.5c0.1,0,0.1,0,0.1,0c2.1,0,2.5,1.9,0.5,3
						c-0.9,0.5-1.8,0.9-2,1c0,0,0,0,0,0l0,0c-0.2-0.1-1.3-0.4-2.6-0.9l-2.3-0.8l2.6-1.2C147.5,122.1,149.1,121.6,149.9,121.5
						 M167.9,123.9c1-0.1,2.1,0.1,3.2,0.6c1.9,0.8,2.3,1.5,1.9,3.6c-0.5,2.9-2.1,3.2-7.5,1.5c-2.6-0.8-2.9-1.2-2.1-3
						C164.3,125,166,124,167.9,123.9 M128,124.6c0.1,0,0.1,0,0.2,0c3.9,0,4.5,0.7,2.6,3.2c-0.6,0.8-1.8,2.1-2.7,2.8
						c-1.3,1.1-1.7,1-2.5-0.7c-1-2-1.3-3.4-0.8-4.2C125.1,124.9,126.2,124.6,128,124.6 M117.7,126.3c1.7-0.1,2.7,0.7,4,3l1.9,3.2
						l-2.8,1.1c-2.6,1-3,0.8-5.1-2.2c-1.3-1.9-1.8-3.1-1.5-3.9c0-0.1,0.1-0.2,0.1-0.2c0,0,0,0,0.1-0.1c0,0,0,0,0-0.1
						c0.5-0.5,1.4-0.7,2.9-0.9C117.5,126.4,117.6,126.3,117.7,126.3 M179.4,136c1.9-0.2,3.7,1.2,3.5,3.3c-0.4,2.7-3.3,3.4-5.7,1.5
						c-1.4-1.2-1.5-1.6-0.4-3.3C177.4,136.5,178.4,136.1,179.4,136 M144.4,141c0.1,0,0.1,0,0.2,0c0.2,0,0.3,0,0.4,0.1
						c0.1,0,0.2,0.1,0.2,0.1c0,0,0.1,0,0.1,0.1c0,0,0,0,0,0c0,0,0,0,0,0c0,0,0,0,0,0c0.3,0.4,0.4,1,0.3,1.8c-0.4,2.8-2.2,3.6-3,1.3
						C142,142.5,142.7,141.1,144.4,141 M132.7,143.1c0.8-0.1,2.1,0.4,3.4,1.5c0.9,0.7,1.3,1.4,1.2,2c0,0.1,0,0.1,0,0.1
						c0,0,0,0.1,0,0.1c0,0,0,0,0,0.1c0,0,0,0.1-0.1,0.1c0,0,0,0,0,0c0,0,0,0,0,0.1c0,0-0.1,0.1-0.1,0.1c0,0,0,0,0,0
						c-0.5,0.4-1.7,0.3-3-0.7c-1.1-0.8-2-1.9-2-2.5c0,0,0,0,0,0v0C131.9,143.5,132.2,143.2,132.7,143.1 M151.3,143.5
						c0.4,0,0.7,0.3,1.4,1c0.8,0.9,1.7,2.6,2.1,3.7c0.8,2.8-0.5,4-3,2.7c-2.7-1.4-3.4-3.6-1.8-6C150.5,144,150.9,143.6,151.3,143.5
						 M157.8,147.4c0.7-0.1,1.6,0.9,1.8,2.7c0.1,1,0,1.9-0.3,2.1c0,0,0,0,0,0c0,0,0,0,0,0c0,0,0,0,0,0s0,0,0,0h0h0h0h0
						c-1.3,0-2.1-1.2-2.1-3.3C157,147.9,157.3,147.4,157.8,147.4 M117,151.5c1.4,0,2.6,0.1,3.4,0.2c1.3,0.3,2.2,0.6,2.6,1.1
						c0.1,0.1,0.2,0.2,0.2,0.3c0,0.1,0,0.1,0,0.2c0,0.1,0,0.2,0,0.4c-0.2,0.8-1.3,1.8-3.4,2.9c-1.8,0.9-4.7,2-6.6,2.4
						c-3.1,0.6-3.6,0.4-4.9-2.4c-0.8-1.7-1.4-3.2-1.4-3.5c0,0,0,0,0,0c0,0,0,0,0,0c0,0,0,0,0,0c0,0,0,0,0,0l0,0
						C107.5,152.1,113,151.5,117,151.5 M180.2,160.7c3.7-0.2,5.6,2.3,1.7,5.4c-2.6,2-6.3,2.1-8.7,0.2c-1.7-1.4-1.6-1.5,1.5-3.6
						C176.6,161.3,178.6,160.7,180.2,160.7 M193.6,163.6c0.1,0,0.1,0,0.2,0c0.5,0,1.8,0.6,2.8,1.4c1.8,1.4,1.8,1.5-0.4,4.1
						c-1.1,1.3-2.3,2.4-2.7,2.5c0,0,0,0,0,0h0h0c0,0,0,0,0,0c-0.3-0.1-1.9-0.3-3.6-0.6c-1.8-0.3-3-1-3-1.9c0,0,0-0.1,0-0.1
						C187,167.4,191.6,163.8,193.6,163.6 M126.5,167.6c0.2,0,0.4,0,0.6,0c2.5,0,3.9,2.1,3.9,5.8c0,5.1-3.1,4.7-4.5-0.6
						C125.2,168.3,125.1,167.7,126.5,167.6 M145.7,169.1c1.5,0,5.2,0.8,5.7,1.4c0,0,0,0,0,0c0,0,0,0,0,0v0l0,0v0c0,0,0,0,0,0
						s0,0,0,0c0,0.4-1,2-2.2,3.6l-2.2,2.9l-1.1-3.8c-0.6-1.9-0.9-3.6-0.8-4c0,0,0,0,0,0c0,0,0,0,0,0v0c0,0,0,0,0,0l0,0c0,0,0,0,0,0
						h0l0,0c0,0,0,0,0,0C145.3,169.1,145.4,169.1,145.7,169.1 M136.3,170.8c0.3,0,0.7,0,1.3,0.1c1.2,0.2,2.3,1.2,2.5,2.2
						c0.2,1.3,0.1,2.2-0.2,2.7c0,0-0.1,0.1-0.1,0.1c0,0-0.1,0.1-0.1,0.1c0,0,0,0,0,0c-0.1,0-0.1,0.1-0.2,0.1c0,0-0.1,0-0.1,0
						c-0.1,0-0.1,0-0.2,0c-0.6-0.1-1.4-0.9-2.1-2.3c-0.8-1.7-1.2-2.5-1-2.9c0,0,0-0.1,0.1-0.1C136.1,170.8,136.2,170.8,136.3,170.8"
						/>
				</g>
			</g>
		</g>
		<g class="st0">
			<g>
				<defs>
					<rect id="SVGID_15_" x="-108.3" y="-0.7" width="516.6" height="301.3"/>
				</defs>
				<clipPath id="SVGID_16_">
					<use xlink:href="#SVGID_15_"  style="overflow:visible;"/>
				</clipPath>
				<rect x="-108.3" y="-0.7" class="st13" width="516.6" height="301.3"/>
				<rect x="-108.3" y="210.3" class="st14" width="516.6" height="90.4"/>
				<rect x="-108.3" y="-0.7" class="st15" width="516.6" height="90.4"/>
				<g class="st16">
					<defs>
						<rect id="SVGID_17_" x="-108.3" y="-0.7" width="516.6" height="301.3"/>
					</defs>
					<clipPath id="SVGID_18_">
						<use xlink:href="#SVGID_17_"  style="overflow:visible;"/>
					</clipPath>
					<path class="st17" d="M149.8,95.3c-1.7,0-3.4,1.9-3.4,1.9l0.1,20.3l-6.4,6.7h5.2l0,11.7l-30.7,41.4l-4.6-1.6l-7.9,16.9
						c0,0,19.6,12.3,48.1,12c31.3-0.4,48.3-12.5,48.3-12.5l-8.2-16.7l-4,1.7L155.1,136l0-12h5.2l-7.1-6.6l0-20.2
						C153.2,97.1,151.5,95.3,149.8,95.3L149.8,95.3z"/>
					<g class="st17">
						<path d="M149,204.9c-27.6,0-46.9-11.9-47.1-12l7.8-17.2l4.8,1.5l30.5-41.3v-11.5l-5,0.2l6.3-7.1l-0.2-20.2
							c0.1-0.2,1.8-2.1,3.6-2.2c1.8,0,3.6,1.8,3.6,1.9l0,20.4l7,6.5l-5.3,0.4l0.3,11.8l31.1,41l3.7-1.8l8.5,16.8
							c-0.2,0.4-17.5,12.5-48.5,12.8L149,204.9L149,204.9z M102.3,192.8c0.4,0,19.5,11.7,46.8,11.7l1.2,0
							c30.9-0.4,48-12.4,48.2-12.5l-8.3-16.4l-3.7,1.9l-31.4-41.2l-0.1-12.1l5.4-0.2l-7.2-6.3l0-20.4l0,0c-0.1,0-1.7-1.6-3.2-1.6
							c-1.6,0-3.3,1.9-3.3,1.9l0.2,20.2l-6.5,6.9l5-0.4l0.2,11.9l-30.8,41.5l-4.8-1.5L102.3,192.8L102.3,192.8L102.3,192.8z"/>
					</g>
					<g class="st17">
						<path d="M161.2,145.1h-22.6l-0.3-0.6c-0.3-0.7-7.8-16.7-6.5-28.2c1.3-11.4,7.7-18,17.7-18.1h0c11.1,0,16.9,5.6,18.6,17.6
							c1.7,11.7-6.2,28-6.5,28.7L161.2,145.1L161.2,145.1z M139.9,142.9h19.8c1.4-3.1,7.4-17,6.1-26.8c-1.6-10.9-6.5-15.7-16.1-15.7
							c-9.2,0.1-14.8,5.8-15.9,16.2C132.8,126.2,138.6,139.8,139.9,142.9L139.9,142.9z"/>
					</g>
					<path class="st18" d="M112.6,182.7c-0.4,0.5-2.9,5.6-2.9,5.6l4.4-0.9L112.6,182.7z"/>
					<polygon class="st18" points="115.2,189.3 110.5,190.8 116.1,193 					"/>
					<polygon class="st18" points="117.3,182.8 119.6,189.7 125.2,188 123.7,184.8 					"/>
					<polygon class="st18" points="120.8,192.1 121.6,194.9 129.2,196.7 126.2,190.4 					"/>
					<polygon class="st18" points="129.2,186.3 131.8,192.7 137.5,190.5 135.7,187.7 					"/>
					<polygon class="st18" points="132.9,195 133.8,197.4 142.6,198.7 138.9,192.9 					"/>
					<polygon class="st18" points="141.3,188.2 144.6,193.8 152.8,190.8 151.9,188.6 					"/>
					<polygon class="st18" points="146.1,195.9 147.8,198.9 158,198.6 154.2,192.9 					"/>
					<polygon class="st18" points="156.8,188.4 159.6,193.1 166.1,190 164.4,187.5 					"/>
					<polygon class="st18" points="167.5,192 161,195.2 162.8,198 171.4,196.6 					"/>
					<polygon class="st18" points="169.6,187 172.9,191.2 178.4,186.9 176.5,184.9 					"/>
					<polygon class="st18" points="179.5,189.2 174.3,193.1 175.7,195.6 182.9,193.7 					"/>
					<polygon class="st18" points="186.7,181 188,182.8 184.4,188.2 180.7,183.4 					"/>
					<polygon class="st18" points="189.1,185.6 191.4,190 187,191.5 186.6,189.4 					"/>
				</g>
			</g>
		</g>
		<g class="st0">
			<g>
				<defs>
					<rect id="SVGID_19_" y="-1.1" width="518" height="302.1"/>
				</defs>
				<clipPath id="SVGID_20_">
					<use xlink:href="#SVGID_19_"  style="overflow:visible;"/>
				</clipPath>
				<polygon class="st19" points="137.3,-1.1 0,163.7 0,191.2 13.7,204.9 0,218.7 0,246.1 13.7,259.9 0,273.6 0,301.1 518,301.1 
					518,273.6 504.2,259.9 518,246.1 518,218.7 504.2,204.9 518,191.2 518,163.7 504.2,150 518,136.3 518,108.8 504.2,95.1 
					518,81.3 518,53.9 504.2,40.1 518,26.4 518,-1.1 				"/>
				<path class="st20" d="M0,273.6h518v-27.5H0V273.6z M0,218.7h518v-27.5H0V218.7z M137.3,26.4L0,136.3v27.5h518v-27.5H137.3
					l-27.5-27.5H518V81.3H109.9V53.9H518V26.4H137.3z"/>
				<rect y="-1.1" class="st21" width="137.3" height="137.3"/>
				<polygon class="st20" points="68.7,26.4 55.9,65.6 79.4,73.2 				"/>
				<polygon class="st20" points="68.7,26.4 81.4,65.6 57.9,73.2 				"/>
				<polygon class="st20" points="107.9,54.9 66.6,54.9 66.6,79.6 				"/>
				<polygon class="st20" points="107.9,54.9 74.5,79.1 60,59.1 				"/>
				<polygon class="st20" points="92.9,100.9 80.1,61.7 56.6,69.4 				"/>
				<polygon class="st20" points="92.9,100.9 59.6,76.7 74.1,56.7 				"/>
				<polygon class="st20" points="44.5,100.9 77.8,76.7 63.3,56.7 				"/>
				<polygon class="st20" points="44.5,100.9 57.2,61.7 80.7,69.4 				"/>
				<polygon class="st20" points="29.5,54.9 62.8,79.1 77.4,59.1 				"/>
				<polygon class="st20" points="29.5,54.9 70.7,54.9 70.7,79.6 				"/>
			</g>
		</g>
		<g class="st0">
			<g>
				<defs>
					<rect id="SVGID_21_" x="-41.9" y="-3.4" width="527.4" height="307.6"/>
				</defs>
				<clipPath id="SVGID_22_">
					<use xlink:href="#SVGID_21_"  style="overflow:visible;"/>
				</clipPath>
				<rect x="-41.9" y="-3.4" class="st22" width="527.4" height="307.6"/>
			</g>
		</g>
		<g class="st0">
			<g>
				<defs>
					<rect id="SVGID_23_" x="-20" y="-1" width="517.8" height="302"/>
				</defs>
				<clipPath id="SVGID_24_">
					<use xlink:href="#SVGID_23_"  style="overflow:visible;"/>
				</clipPath>
				<rect x="-20" y="-1" class="st23" width="517.8" height="302"/>
				<g class="st24">
					<defs>
						<rect id="SVGID_25_" x="-20" y="-1" width="517.8" height="302"/>
					</defs>
					<clipPath id="SVGID_26_">
						<use xlink:href="#SVGID_25_"  style="overflow:visible;"/>
					</clipPath>
					<path class="st25" d="M88.9,60.5L88,92H56.1c-3.9-7.6-7.2-14.1-7.2-22.9c0-7.4,5.8-13.2,14.1-13.2
						C71.8,55.9,81.5,58.9,88.9,60.5L88.9,60.5z"/>
					<path class="st25" d="M52.7,62v18.2V62z"/>
					<g class="st26">
						<path d="M52.7,80.5c-0.2,0-0.4-0.2-0.4-0.4V62c0-0.4,0.8-0.4,0.8,0v18.2C53.1,80.4,52.9,80.5,52.7,80.5L52.7,80.5z"/>
					</g>
					<path class="st25" d="M55.3,60.1v24.2V60.1z"/>
					<g class="st26">
						<path d="M55.3,84.7c-0.2,0-0.4-0.2-0.4-0.4V60.1c0-0.4,0.8-0.4,0.8,0v24.2C55.7,84.5,55.5,84.7,55.3,84.7L55.3,84.7z"/>
					</g>
					<path class="st25" d="M57.8,58.9v28.8V58.9z"/>
					<g class="st26">
						<path d="M57.8,88c-0.2,0-0.4-0.2-0.4-0.4V58.9c0-0.4,0.8-0.4,0.8,0v28.8C58.2,87.9,58.1,88,57.8,88L57.8,88z"/>
					</g>
					<path class="st25" d="M60.4,58.3v22.6V58.3z"/>
					<g class="st26">
						<path d="M60.4,81.2c-0.2,0-0.4-0.2-0.4-0.4V58.3c0-0.4,0.8-0.4,0.8,0v22.6C60.8,81.1,60.6,81.2,60.4,81.2L60.4,81.2z"/>
					</g>
					<path class="st25" d="M63,58.2V81V58.2z"/>
					<g class="st26">
						<path d="M63,81.3c-0.2,0-0.4-0.2-0.4-0.4V58.2c0-0.4,0.8-0.4,0.8,0V81C63.4,81.2,63.2,81.3,63,81.3L63,81.3z"/>
					</g>
					<path class="st25" d="M65.5,57.4V81V57.4z"/>
					<g class="st26">
						<path d="M65.5,81.3c-0.2,0-0.4-0.2-0.4-0.4V57.4c0-0.4,0.8-0.4,0.8,0V81C65.9,81.2,65.8,81.3,65.5,81.3L65.5,81.3z"/>
					</g>
					<path class="st25" d="M68.1,57.4V81V57.4z"/>
					<g class="st26">
						<path d="M68.1,81.3c-0.2,0-0.4-0.2-0.4-0.4V57.4c0-0.4,0.8-0.4,0.8,0V81C68.5,81.2,68.3,81.3,68.1,81.3L68.1,81.3z"/>
					</g>
					<path class="st25" d="M70.7,57.6v23.6V57.6z"/>
					<g class="st26">
						<path d="M70.7,81.6c-0.2,0-0.4-0.2-0.4-0.4V57.6c0-0.4,0.8-0.4,0.8,0v23.6C71,81.4,70.9,81.6,70.7,81.6L70.7,81.6z"/>
					</g>
					<path class="st25" d="M73.2,57.8v23.6V57.8z"/>
					<g class="st26">
						<path d="M73.2,81.8c-0.2,0-0.4-0.2-0.4-0.4V57.8c0-0.4,0.8-0.4,0.8,0v23.6C73.6,81.6,73.4,81.8,73.2,81.8L73.2,81.8z"/>
					</g>
					<path class="st25" d="M75.8,59.3v23.6V59.3z"/>
					<g class="st26">
						<path d="M75.8,83.3c-0.2,0-0.4-0.2-0.4-0.4V59.3c0-0.4,0.8-0.4,0.8,0v23.6C76.2,83.1,76,83.3,75.8,83.3L75.8,83.3z"/>
					</g>
					<path class="st25" d="M78.4,59.6v26.6V59.6z"/>
					<g class="st26">
						<path d="M78.4,86.5c-0.2,0-0.4-0.2-0.4-0.4V59.6c0-0.4,0.8-0.4,0.8,0v26.6C78.7,86.4,78.6,86.5,78.4,86.5L78.4,86.5z"/>
					</g>
					<path class="st25" d="M80.9,59.6v23.6V59.6z"/>
					<g class="st26">
						<path d="M80.9,83.5c-0.2,0-0.4-0.2-0.4-0.4V59.6c0-0.4,0.8-0.4,0.8,0v23.6C81.3,83.4,81.1,83.5,80.9,83.5L80.9,83.5z"/>
					</g>
					<path class="st25" d="M83.5,59.6v23.6V59.6z"/>
					<g class="st26">
						<path d="M83.5,83.5c-0.2,0-0.4-0.2-0.4-0.4V59.6c0-0.4,0.8-0.4,0.8,0v23.6C83.9,83.4,83.7,83.5,83.5,83.5L83.5,83.5z"/>
					</g>
					<path class="st26" d="M68.8,58.3c5.4,0.9,17.3,6.5,16,14c-1.9,10.7-8.2,6.4-16.4,4.9l-6.2,2.1c-2.2,2.3-5.5,4.4-7.8,1.6h-3.7
						v14.5h40.9V60.4L68.8,58.3z"/>
					<g class="st26">
						<path d="M91.6,95.7H50.6l-0.4-14.8l4.1-0.4c2.9,2.9,6,0,7.5-1.5l6.4-2.2c1.8,0.3,3.3,0.7,4.7,1.1c2.2,0.6,4.1,1.1,5.8,1.1
							c2.2,0,4.6-0.8,5.7-6.7c0.3-1.8-0.1-3.6-1.4-5.4c-3.2-4.5-10.4-7.5-14.3-8.2c-0.2,0-0.3-0.2-0.3-0.4c0-0.2,0.2-0.3,0.4-0.3
							L91.6,60L92,95.4C92,95.6,91.8,95.7,91.6,95.7L91.6,95.7z M54,81.1l-3.4,0.1L51,95.4L91.2,95V60.4L72.7,59
							c3.9,1.4,8.5,4,10.9,7.4c1.4,1.9,1.9,4,1.5,6c-0.9,5.1-2.9,7.3-6.4,7.3c-1.8,0-3.8-0.5-6-1.1c-1.4-0.4-2.9-0.8-4.5-1.1
							l-6.1,2.1c-1,1-3.2,2.9-5.3,2.9C55.8,82.6,54.8,82.1,54,81.1L54,81.1z"/>
					</g>
					<path class="st25" d="M89.6,55.9c0,1.4-1.1,2.5-2.5,2.5c-1.4,0-2.5-1.1-2.5-2.5l0,0c0-1.4,1.1-2.5,2.5-2.5
						C88.5,53.4,89.6,54.5,89.6,55.9L89.6,55.9z"/>
					<g class="st26">
						<path d="M87.1,58.7c-1.6,0-2.9-1.3-2.9-2.9c0-1.6,1.3-2.9,2.9-2.9c1.6,0,2.9,1.3,2.9,2.9C90,57.4,88.7,58.7,87.1,58.7
							L87.1,58.7z M87.1,53.7c-1.2,0-2.1,1-2.1,2.1C85,57,86,58,87.1,58c1.2,0,2.1-0.9,2.1-2.1C89.2,54.7,88.3,53.7,87.1,53.7
							L87.1,53.7z"/>
					</g>
					<path class="st25" d="M84,54.5c0,1.4-1.1,2.5-2.5,2.5c-1.4,0-2.5-1.1-2.5-2.5l0,0c0-1.4,1.1-2.5,2.5-2.5
						C82.9,52,84,53.1,84,54.5L84,54.5z"/>
					<g class="st26">
						<path d="M81.5,57.4c-1.6,0-2.9-1.3-2.9-2.9c0-1.6,1.3-2.9,2.9-2.9c1.6,0,2.9,1.3,2.9,2.9c0,0.8-0.3,1.5-0.8,2
							C83,57.1,82.3,57.4,81.5,57.4L81.5,57.4z M81.5,52.4c-1.2,0-2.1,1-2.1,2.1c0,1.7,2.4,2.7,3.6,1.5c0.4-0.4,0.6-0.9,0.6-1.5
							C83.6,53.4,82.7,52.4,81.5,52.4L81.5,52.4z"/>
					</g>
					<path class="st25" d="M78.4,53.1c0,1.4-1.1,2.5-2.5,2.5c-1.4,0-2.5-1.1-2.5-2.5v0c0-1.4,1.1-2.5,2.5-2.5
						C77.2,50.6,78.4,51.7,78.4,53.1L78.4,53.1z"/>
					<g class="st26">
						<path d="M75.9,56L75.9,56c-1.6,0-2.9-1.3-2.9-2.9c0-1.6,1.3-2.9,2.9-2.9c1.6,0,2.9,1.3,2.9,2.9C78.7,54.7,77.5,56,75.9,56
							L75.9,56z M75.9,51c-1.2,0-2.1,0.9-2.1,2.1c0,1.2,0.9,2.1,2.1,2.1c1.2,0,2.1-0.9,2.1-2.1C78,51.9,77,51,75.9,51L75.9,51z"/>
					</g>
					<path class="st25" d="M72.7,52.1c0,1.4-1.1,2.5-2.5,2.5c-1.4,0-2.5-1.1-2.5-2.5v0c0-1.4,1.1-2.5,2.5-2.5
						C71.5,49.7,72.7,50.8,72.7,52.1L72.7,52.1z"/>
					<g class="st26">
						<path d="M70.2,55c-1.6,0-2.9-1.3-2.9-2.9c0-1.6,1.3-2.9,2.9-2.9c1.6,0,2.9,1.3,2.9,2.9C73.1,53.7,71.8,55,70.2,55L70.2,55z
							 M70.2,50c-1.2,0-2.1,1-2.1,2.1c0,1.2,0.9,2.1,2.1,2.1c1.2,0,2.1-0.9,2.1-2.1C72.3,51,71.3,50,70.2,50L70.2,50z"/>
					</g>
					<path class="st25" d="M67,51.6c0,1.4-1.1,2.5-2.5,2.5c-1.4,0-2.5-1.1-2.5-2.5l0,0c0-1.4,1.1-2.5,2.5-2.5
						C65.9,49.1,67,50.2,67,51.6L67,51.6z"/>
					<g class="st26">
						<path d="M64.5,54.4c-1.6,0-2.9-1.3-2.9-2.9c0-1.6,1.3-2.9,2.9-2.9c1.6,0,2.9,1.3,2.9,2.9C67.4,53.2,66.1,54.4,64.5,54.4
							L64.5,54.4z M64.5,49.5c-1.2,0-2.1,1-2.1,2.1c0,1.2,0.9,2.1,2.1,2.1c1.2,0,2.1-0.9,2.1-2.1C66.6,50.4,65.6,49.5,64.5,49.5
							L64.5,49.5z"/>
					</g>
					<path class="st25" d="M61.4,51.9c0,1.4-1.1,2.5-2.5,2.5c-1.4,0-2.5-1.1-2.5-2.5v0c0-1.4,1.1-2.5,2.5-2.5
						C60.3,49.4,61.4,50.5,61.4,51.9L61.4,51.9z"/>
					<g class="st26">
						<path d="M58.9,54.8c-1.6,0-2.9-1.3-2.9-2.9c0-0.8,0.3-1.5,0.8-2c1.6-1.7,4.9-0.3,4.9,2C61.8,53.5,60.5,54.8,58.9,54.8
							L58.9,54.8z M58.9,49.8c-0.6,0-1.1,0.2-1.5,0.6c-0.4,0.4-0.6,0.9-0.6,1.5c0,1.2,0.9,2.1,2.1,2.1c1.2,0,2.1-0.9,2.1-2.1
							C61,50.7,60.1,49.8,58.9,49.8L58.9,49.8z"/>
					</g>
					<path class="st25" d="M56.1,53.7c0,1.4-1.1,2.5-2.5,2.5c-1.4,0-2.5-1.1-2.5-2.5l0,0c0-1.4,1.1-2.5,2.5-2.5
						C54.9,51.2,56.1,52.3,56.1,53.7L56.1,53.7z"/>
					<g class="st26">
						<path d="M53.6,56.6c-1.6,0-2.9-1.3-2.9-2.9c0-2.3,3.2-3.7,4.9-2c0.6,0.5,0.8,1.3,0.8,2C56.5,55.3,55.2,56.6,53.6,56.6
							L53.6,56.6z M53.6,51.6c-1.2,0-2.1,0.9-2.1,2.1c0,1.2,0.9,2.1,2.1,2.1c1.2,0,2.1-0.9,2.1-2.1C55.7,52.6,54.7,51.6,53.6,51.6
							L53.6,51.6z"/>
					</g>
					<path class="st25" d="M51.6,57c0,1.4-1.1,2.5-2.5,2.5s-2.5-1.1-2.5-2.5v0c0-1.4,1.1-2.5,2.5-2.5S51.6,55.6,51.6,57L51.6,57z"/>
					<g class="st26">
						<path d="M49.1,59.9c-1.6,0-2.9-1.3-2.9-2.9c0-1.6,1.3-2.9,2.9-2.9c1.6,0,2.9,1.3,2.9,2.9C52,58.6,50.7,59.9,49.1,59.9
							L49.1,59.9z M49.1,54.9c-1.2,0-2.1,0.9-2.1,2.1c0,1.2,0.9,2.1,2.1,2.1c1.2,0,2.1-0.9,2.1-2.1C51.2,55.9,50.3,54.9,49.1,54.9
							L49.1,54.9z"/>
					</g>
					<path class="st25" d="M48.4,61.6c0,1.4-1.1,2.5-2.5,2.5c-1.4,0-2.5-1.1-2.5-2.5l0,0c0-1.4,1.1-2.5,2.5-2.5
						C47.3,59.1,48.4,60.2,48.4,61.6L48.4,61.6z"/>
					<g class="st26">
						<path d="M45.9,64.5c-1.6,0-2.9-1.3-2.9-2.9c0-0.8,0.3-1.5,0.8-2c1.6-1.7,4.9-0.3,4.9,2C48.8,63.2,47.5,64.5,45.9,64.5
							L45.9,64.5z M45.9,59.5c-0.6,0-1.1,0.2-1.5,0.6c-0.4,0.4-0.6,0.9-0.6,1.5c0,1.2,0.9,2.1,2.1,2.1c1.2,0,2.1-0.9,2.1-2.1
							C48,60.5,47.1,59.5,45.9,59.5L45.9,59.5z"/>
					</g>
					<path class="st25" d="M46.9,67c0,1.4-1.1,2.5-2.5,2.5c-1.4,0-2.5-1.1-2.5-2.5v0c0-1.4,1.1-2.5,2.5-2.5
						C45.8,64.5,46.9,65.6,46.9,67L46.9,67z"/>
					<g class="st26">
						<path d="M44.4,69.9c-1.6,0-2.9-1.3-2.9-2.9c0-1.6,1.3-2.9,2.9-2.9c1.6,0,2.9,1.3,2.9,2.9C47.3,68.6,46,69.9,44.4,69.9
							L44.4,69.9z M44.4,64.9c-1.2,0-2.1,0.9-2.1,2.1c0,1.2,0.9,2.1,2.1,2.1c1.2,0,2.1-0.9,2.1-2.1C46.5,65.9,45.5,64.9,44.4,64.9
							L44.4,64.9z"/>
					</g>
					<path class="st25" d="M46.9,72.6c0,1.4-1.1,2.5-2.5,2.5c-1.4,0-2.5-1.1-2.5-2.5l0,0c0-1.4,1.1-2.5,2.5-2.5
						C45.8,70.1,46.9,71.3,46.9,72.6L46.9,72.6z"/>
					<g class="st26">
						<path d="M44.4,75.5c-1.6,0-2.9-1.3-2.9-2.9c0-1.6,1.3-2.9,2.9-2.9c1.6,0,2.9,1.3,2.9,2.9C47.3,74.2,46,75.5,44.4,75.5
							L44.4,75.5z M44.4,70.5c-1.2,0-2.1,0.9-2.1,2.1c0,1.2,0.9,2.1,2.1,2.1c1.2,0,2.1-0.9,2.1-2.1C46.5,71.5,45.6,70.5,44.4,70.5
							L44.4,70.5z"/>
					</g>
					<path class="st25" d="M48,78.1c0,1.4-1.1,2.5-2.5,2.5c-1.4,0-2.5-1.1-2.5-2.5l0,0c0-1.4,1.1-2.5,2.5-2.5
						C46.9,75.6,48,76.7,48,78.1L48,78.1z"/>
					<g class="st26">
						<path d="M45.5,81c-1.6,0-2.9-1.3-2.9-2.9c0-1.6,1.3-2.9,2.9-2.9c1.6,0,2.9,1.3,2.9,2.9C48.4,79.7,47.1,81,45.5,81L45.5,81z
							 M45.5,76c-1.2,0-2.1,0.9-2.1,2.1c0,1.2,0.9,2.1,2.1,2.1c1.2,0,2.1-0.9,2.1-2.1C47.6,77,46.7,76,45.5,76L45.5,76z"/>
					</g>
					<path class="st25" d="M88.2,59.1L88,62.4C81.8,61.4,73,58,64.9,58c-7.5,0-13.4,3-13.4,10.6c0,7.5,3.2,14.3,7.4,21.3L54.4,92
						c-3.9-7.6-7.2-14.1-7.2-22.9c0-7.4,5.8-14.6,15.7-14.6C71.8,54.5,80.8,57.5,88.2,59.1L88.2,59.1z"/>
					<g class="st26">
						<path d="M54.4,92.4c-0.1,0-0.3-0.1-0.3-0.2c-3.7-7.2-7.2-14-7.2-23.1c0-7.3,5.6-15,16.1-15c6.8,0,13.7,1.7,19.8,3.3
							c1.9,0.5,3.8,1,5.5,1.4l0.1,3.6c0,0,0,0,0,0c-2.6,0-5.2-0.7-7.9-1.4c-4.9-1.3-10.4-2.7-15.6-2.7c-4.9,0-13,1.3-13,10.3
							c0,7.9,3.7,15.1,7.4,21.1l-4.6,2.6C54.6,92.4,54.5,92.4,54.4,92.4L54.4,92.4z M63,54.9c-10,0-15.3,7.3-15.3,14.2
							c0,8.7,3.4,15.4,7,22.4l4.1-1.9c-3.9-5.5-7.6-12.8-7.6-20.9c0-7,5-11,13.8-11c5.3,0,10.9,1.4,15.8,2.7
							c2.7,0.7,5.2,1.4,7.4,1.7l-0.2-2.9h0c-1.5,0-3.3-0.5-5.3-1C76.5,56.6,69.7,54.9,63,54.9L63,54.9z"/>
					</g>
					<path class="st25" d="M94.5,60.5L95.5,92h31.9c3.9-7.6,7.2-14.1,7.2-22.9c0-7.4-5.8-13.2-14.1-13.2
						C111.6,55.9,101.9,58.9,94.5,60.5L94.5,60.5z"/>
					<path class="st25" d="M130.8,62v18.2V62z"/>
					<g class="st26">
						<path d="M130.8,80.5c-0.2,0-0.4-0.2-0.4-0.4V62c0-0.4,0.8-0.4,0.8,0v18.2C131.1,80.4,131,80.5,130.8,80.5L130.8,80.5z"/>
					</g>
					<path class="st25" d="M128.2,60.1v24.2V60.1z"/>
					<g class="st26">
						<path d="M128.2,84.7c-0.2,0-0.4-0.2-0.4-0.4V60.1c0-0.4,0.8-0.4,0.8,0v24.2C128.6,84.5,128.4,84.7,128.2,84.7L128.2,84.7z"/>
					</g>
					<path class="st25" d="M125.6,58.9v28.8V58.9z"/>
					<g class="st26">
						<path d="M125.6,88c-0.2,0-0.4-0.2-0.4-0.4V58.9c0-0.4,0.8-0.4,0.8,0v28.8C126,87.9,125.8,88,125.6,88L125.6,88z"/>
					</g>
					<path class="st25" d="M123.1,58.3v22.6V58.3z"/>
					<g class="st26">
						<path d="M123.1,81.2c-0.2,0-0.4-0.2-0.4-0.4V58.3c0-0.4,0.8-0.4,0.8,0v22.6C123.4,81.1,123.3,81.2,123.1,81.2L123.1,81.2z"/>
					</g>
					<path class="st25" d="M120.5,58.2V81V58.2z"/>
					<g class="st26">
						<path d="M120.5,81.3c-0.2,0-0.4-0.2-0.4-0.4V58.2c0-0.4,0.8-0.4,0.8,0V81C120.9,81.2,120.7,81.3,120.5,81.3L120.5,81.3z"/>
					</g>
					<path class="st25" d="M117.9,57.4V81V57.4z"/>
					<g class="st26">
						<path d="M117.9,81.3c-0.2,0-0.4-0.2-0.4-0.4V57.4c0-0.4,0.8-0.4,0.8,0V81C118.3,81.2,118.2,81.3,117.9,81.3L117.9,81.3z"/>
					</g>
					<path class="st25" d="M115.4,57.4V81V57.4z"/>
					<g class="st26">
						<path d="M115.4,81.3c-0.2,0-0.4-0.2-0.4-0.4V57.4c0-0.4,0.8-0.4,0.8,0V81C115.8,81.2,115.6,81.3,115.4,81.3L115.4,81.3z"/>
					</g>
					<path class="st25" d="M112.8,57.6v23.6V57.6z"/>
					<g class="st26">
						<path d="M112.8,81.6c-0.2,0-0.4-0.2-0.4-0.4V57.6c0-0.4,0.8-0.4,0.8,0v23.6C113.2,81.4,113,81.6,112.8,81.6L112.8,81.6z"/>
					</g>
					<path class="st25" d="M110.2,57.8v23.6V57.8z"/>
					<g class="st26">
						<path d="M110.2,81.8c-0.2,0-0.4-0.2-0.4-0.4V57.8c0-0.4,0.8-0.4,0.8,0v23.6C110.6,81.6,110.5,81.8,110.2,81.8L110.2,81.8z"/>
					</g>
					<path class="st25" d="M107.7,59.3v23.6V59.3z"/>
					<g class="st26">
						<path d="M107.7,83.3c-0.2,0-0.4-0.2-0.4-0.4V59.3c0-0.4,0.8-0.4,0.8,0v23.6C108.1,83.1,107.9,83.3,107.7,83.3L107.7,83.3z"/>
					</g>
					<path class="st25" d="M105.1,59.6v26.6V59.6z"/>
					<g class="st26">
						<path d="M105.1,86.5c-0.2,0-0.4-0.2-0.4-0.4V59.6c0-0.4,0.8-0.4,0.8,0v26.6C105.5,86.4,105.3,86.5,105.1,86.5L105.1,86.5z"/>
					</g>
					<path class="st25" d="M102.5,59.6v23.6V59.6z"/>
					<g class="st26">
						<path d="M102.5,83.5c-0.2,0-0.4-0.2-0.4-0.4V59.6c0-0.4,0.8-0.4,0.8,0v23.6C102.9,83.4,102.8,83.5,102.5,83.5L102.5,83.5z"/>
					</g>
					<path class="st25" d="M100,59.6v23.6V59.6z"/>
					<g class="st26">
						<path d="M100,83.5c-0.2,0-0.4-0.2-0.4-0.4V59.6c0-0.4,0.8-0.4,0.8,0v23.6C100.4,83.4,100.2,83.5,100,83.5L100,83.5z"/>
					</g>
					<path class="st26" d="M114.7,58.3c-5.4,0.9-17.3,6.5-16,14c1.9,10.7,8.2,6.4,16.4,4.9l6.2,2.1c2.2,2.3,5.5,4.4,7.8,1.6h3.7
						v14.5H91.9V60.4L114.7,58.3z"/>
					<g class="st26">
						<path d="M132.8,95.7H91.9l-0.4-35.3l23.1-2.5c0.2,0,0.4,0.1,0.4,0.3c0,0.2-0.1,0.4-0.3,0.4c-3.9,0.6-11.1,3.7-14.3,8.2
							c-1.2,1.8-1.7,3.6-1.4,5.4c1.1,5.9,3.5,6.7,5.7,6.7c1.7,0,3.6-0.5,5.8-1.1c1.4-0.4,2.9-0.8,4.5-1.1l6.4,2.1
							c1.7,1.7,5.3,4.2,7.3,1.7l4-0.1l0.4,14.8C133.2,95.6,133,95.7,132.8,95.7L132.8,95.7z M110.6,59.1l-18.6,1.7l0.4,34.6
							l40.2-0.4V80.9l-3.3,0.4c-0.5,0.8-1.4,1.3-2.6,1.3c-2.2,0-4.4-1.9-5.5-3l-6.1-2c-1.4,0.3-2.9,0.7-4.3,1.1
							c-2.2,0.6-4.2,1.1-6,1.1c-3.5,0-5.5-2.3-6.4-7.3c-0.4-2,0.1-4,1.5-6C102.2,63.1,106.7,60.5,110.6,59.1L110.6,59.1z"/>
					</g>
					<path class="st25" d="M93.9,55.9c0,1.4,1.1,2.5,2.5,2.5c1.4,0,2.5-1.1,2.5-2.5l0,0c0-1.4-1.1-2.5-2.5-2.5
						C95,53.4,93.9,54.5,93.9,55.9L93.9,55.9z"/>
					<g class="st26">
						<path d="M96.3,58.7c-1.6,0-2.9-1.3-2.9-2.9c0-1.6,1.3-2.9,2.9-2.9c1.6,0,2.9,1.3,2.9,2.9C99.2,57.4,97.9,58.7,96.3,58.7
							L96.3,58.7z M96.3,53.7c-1.2,0-2.1,0.9-2.1,2.1c0,1.2,0.9,2.1,2.1,2.1c1.2,0,2.1-0.9,2.1-2.1C98.4,54.7,97.5,53.8,96.3,53.7
							L96.3,53.7z"/>
					</g>
					<path class="st25" d="M99.4,54.5c0,1.4,1.1,2.5,2.5,2.5c1.4,0,2.5-1.1,2.5-2.5l0,0c0-1.4-1.1-2.5-2.5-2.5
						C100.6,52,99.4,53.1,99.4,54.5L99.4,54.5z"/>
					<g class="st26">
						<path d="M101.9,57.4c-1.6,0-2.9-1.3-2.9-2.9c0-1.6,1.3-2.9,2.9-2.9c1.6,0,2.9,1.3,2.9,2.9C104.8,56.1,103.5,57.4,101.9,57.4
							L101.9,57.4z M101.9,52.4c-1.2,0-2.1,1-2.1,2.1c0,1.2,0.9,2.1,2.1,2.1c1.2,0,2.1-0.9,2.1-2.1C104,53.4,103.1,52.4,101.9,52.4
							L101.9,52.4z"/>
					</g>
					<path class="st25" d="M105.1,53.1c0,1.4,1.1,2.5,2.5,2.5c1.4,0,2.5-1.1,2.5-2.5v0c0-1.4-1.1-2.5-2.5-2.5
						C106.2,50.6,105.1,51.7,105.1,53.1L105.1,53.1z"/>
					<g class="st26">
						<path d="M107.6,56c-1.6,0-2.9-1.3-2.9-2.9c0-1.6,1.3-2.9,2.9-2.9c1.6,0,2.9,1.3,2.9,2.9c0,0.8-0.3,1.5-0.8,2
							C109.1,55.7,108.4,56,107.6,56L107.6,56z M107.6,51c-1.2,0-2.1,0.9-2.1,2.1c0,1.2,0.9,2.1,2.1,2.1h0c0.6,0,1.1-0.2,1.5-0.6
							c0.4-0.4,0.6-0.9,0.6-1.5C109.7,51.9,108.8,51,107.6,51L107.6,51z"/>
					</g>
					<path class="st25" d="M110.8,52.1c0,1.4,1.1,2.5,2.5,2.5c1.4,0,2.5-1.1,2.5-2.5v0c0-1.4-1.1-2.5-2.5-2.5
						C111.9,49.7,110.8,50.8,110.8,52.1L110.8,52.1z"/>
					<g class="st26">
						<path d="M113.3,55c-1.6,0-2.9-1.3-2.9-2.9c0-2.3,3.2-3.7,4.9-2c0.5,0.5,0.8,1.3,0.8,2C116.2,53.7,114.9,55,113.3,55L113.3,55z
							 M113.3,50c-1.2,0-2.1,0.9-2.1,2.1c0,1.2,0.9,2.1,2.1,2.1c1.2,0,2.1-0.9,2.1-2.1c0-0.6-0.2-1.1-0.6-1.5
							C114.4,50.3,113.9,50,113.3,50L113.3,50z"/>
					</g>
					<path class="st25" d="M116.5,51.6c0,1.4,1.1,2.5,2.5,2.5c1.4,0,2.5-1.1,2.5-2.5l0,0c0-1.4-1.1-2.5-2.5-2.5
						C117.6,49.1,116.5,50.2,116.5,51.6L116.5,51.6z"/>
					<g class="st26">
						<path d="M119,54.4c-0.8,0-1.5-0.3-2-0.9c-0.5-0.5-0.8-1.3-0.8-2c0-1.6,1.3-2.9,2.9-2.9c1.6,0,2.9,1.3,2.9,2.9
							C121.9,53.2,120.6,54.4,119,54.4L119,54.4z M119,49.5c-1.2,0-2.1,0.9-2.1,2.1c0,0.6,0.2,1.1,0.6,1.5c1.2,1.2,3.6,0.2,3.6-1.5
							C121.1,50.4,120.1,49.5,119,49.5L119,49.5z"/>
					</g>
					<path class="st25" d="M122.1,51.9c0,1.4,1.1,2.5,2.5,2.5c1.4,0,2.5-1.1,2.5-2.5v0c0-1.4-1.1-2.5-2.5-2.5
						C123.2,49.4,122.1,50.5,122.1,51.9L122.1,51.9z"/>
					<g class="st26">
						<path d="M124.6,54.8c-1.6,0-2.9-1.3-2.9-2.9c0-1.6,1.3-2.9,2.9-2.9c1.6,0,2.9,1.3,2.9,2.9C127.4,53.5,126.2,54.8,124.6,54.8
							L124.6,54.8z M124.6,49.8c-1.2,0-2.1,0.9-2.1,2.1c0,1.2,0.9,2.1,2.1,2.1c1.2,0,2.1-0.9,2.1-2.1
							C126.7,50.7,125.7,49.8,124.6,49.8L124.6,49.8z"/>
					</g>
					<path class="st25" d="M127.4,53.7c0,1.4,1.1,2.5,2.5,2.5c1.4,0,2.5-1.1,2.5-2.5l0,0c0-1.4-1.1-2.5-2.5-2.5
						C128.5,51.2,127.4,52.3,127.4,53.7L127.4,53.7z"/>
					<g class="st26">
						<path d="M129.9,56.6c-1.6,0-2.9-1.3-2.9-2.9c0-1.6,1.3-2.9,2.9-2.9c1.6,0,2.9,1.3,2.9,2.9C132.8,55.3,131.5,56.6,129.9,56.6
							L129.9,56.6z M129.9,51.6c-0.6,0-1.1,0.2-1.5,0.6c-0.4,0.4-0.6,0.9-0.6,1.5c0,1.2,0.9,2.1,2.1,2.1c1.2,0,2.1-0.9,2.1-2.1
							C132,52.6,131,51.6,129.9,51.6L129.9,51.6L129.9,51.6z"/>
					</g>
					<path class="st25" d="M131.9,57c0,1.4,1.1,2.5,2.5,2.5c1.4,0,2.5-1.1,2.5-2.5v0c0-1.4-1.1-2.5-2.5-2.5
						C133,54.5,131.9,55.6,131.9,57L131.9,57z"/>
					<g class="st26">
						<path d="M134.4,59.9c-1.6,0-2.9-1.3-2.9-2.9c0-1.6,1.3-2.9,2.9-2.9c1.6,0,2.9,1.3,2.9,2.9C137.2,58.6,136,59.9,134.4,59.9
							L134.4,59.9z M134.4,54.9c-1.2,0-2.1,0.9-2.1,2.1s0.9,2.1,2.1,2.1c1.2,0,2.1-0.9,2.1-2.1C136.5,55.9,135.5,54.9,134.4,54.9
							L134.4,54.9z"/>
					</g>
					<path class="st25" d="M135.1,61.6c0,1.4,1.1,2.5,2.5,2.5c1.4,0,2.5-1.1,2.5-2.5l0,0c0-1.4-1.1-2.5-2.5-2.5
						C136.2,59.1,135.1,60.2,135.1,61.6L135.1,61.6z"/>
					<g class="st26">
						<path d="M137.5,64.5c-1.6,0-2.9-1.3-2.9-2.9c0-1.6,1.3-2.9,2.9-2.9c1.6,0,2.9,1.3,2.9,2.9C140.4,63.2,139.1,64.5,137.5,64.5
							L137.5,64.5z M137.5,59.5c-1.2,0-2.1,0.9-2.1,2.1c0,1.2,0.9,2.1,2.1,2.1c1.2,0,2.1-0.9,2.1-2.1
							C139.7,60.5,138.7,59.5,137.5,59.5L137.5,59.5z"/>
					</g>
					<path class="st25" d="M136.6,67c0,1.4,1.1,2.5,2.5,2.5c1.4,0,2.5-1.1,2.5-2.5v0c0-1.4-1.1-2.5-2.5-2.5
						C137.7,64.5,136.6,65.6,136.6,67L136.6,67z"/>
					<g class="st26">
						<path d="M139.1,69.9c-1.6,0-2.9-1.3-2.9-2.9c0-1.6,1.3-2.9,2.9-2.9c1.6,0,2.9,1.3,2.9,2.9C142,68.6,140.7,69.9,139.1,69.9
							L139.1,69.9z M139.1,64.9c-1.2,0-2.1,0.9-2.1,2.1c0,1.2,0.9,2.1,2.1,2.1c1.2,0,2.1-0.9,2.1-2.1
							C141.2,65.9,140.2,64.9,139.1,64.9L139.1,64.9z"/>
					</g>
					<path class="st25" d="M136.5,72.6c0,1.4,1.1,2.5,2.5,2.5c1.4,0,2.5-1.1,2.5-2.5l0,0c0-1.4-1.1-2.5-2.5-2.5
						C137.7,70.1,136.5,71.3,136.5,72.6L136.5,72.6z"/>
					<g class="st26">
						<path d="M139,75.5c-1.6,0-2.9-1.3-2.9-2.9c0-1.6,1.3-2.9,2.9-2.9c1.6,0,2.9,1.3,2.9,2.9C141.9,74.2,140.6,75.5,139,75.5
							L139,75.5z M139,70.5c-1.2,0-2.1,0.9-2.1,2.1c0,1.2,0.9,2.1,2.1,2.1c1.2,0,2.1-0.9,2.1-2.1C141.1,71.5,140.2,70.5,139,70.5
							L139,70.5z"/>
					</g>
					<path class="st25" d="M135.5,78.1c0,1.4,1.1,2.5,2.5,2.5c1.4,0,2.5-1.1,2.5-2.5l0,0c0-1.4-1.1-2.5-2.5-2.5
						C136.6,75.6,135.5,76.7,135.5,78.1L135.5,78.1z"/>
					<g class="st26">
						<path d="M137.9,81c-1.6,0-2.9-1.3-2.9-2.9c0-1.6,1.3-2.9,2.9-2.9c1.6,0,2.9,1.3,2.9,2.9C140.8,79.7,139.5,81,137.9,81
							L137.9,81z M138,76c-1.2,0-2.1,0.9-2.1,2.1c0,1.2,0.9,2.1,2.1,2.1c1.2,0,2.1-0.9,2.1-2.1C140.1,77,139.1,76,138,76L138,76z"/>
					</g>
					<path class="st25" d="M95.2,59.1l0.2,3.2c6.2-0.9,15-4.4,23.1-4.4c7.6,0,13.4,3,13.4,10.6c0,7.5-3.2,14.3-7.4,21.3L129,92
						c3.9-7.6,7.2-14.1,7.2-22.9c0-7.4-5.8-14.6-15.7-14.6C111.6,54.5,102.6,57.5,95.2,59.1L95.2,59.1z"/>
					<g class="st26">
						<path d="M129,92.4c-0.1,0-0.1,0-0.2,0l-4.4-2.1c3.5-6.5,7.2-13.7,7.2-21.6c0-8.9-8.2-10.3-13-10.3c-5.2,0-10.7,1.4-15.6,2.7
							c-2.7,0.7-5.3,1.4-7.5,1.7l-0.7-3.6c2.1-0.8,3.9-1.3,5.8-1.7c6.1-1.5,13-3.3,19.8-3.3c10.5,0,16.1,7.7,16.1,15
							c0,9.1-3.5,15.9-7.2,23.1C129.3,92.3,129.2,92.4,129,92.4L129,92.4z M118.6,57.6c8.8,0,13.8,4,13.8,11
							c0,8.1-3.8,15.4-7.5,21.5l3.9,1.4c3.6-7,7-13.6,7-22.4c0-6.9-5.4-14.2-15.4-14.2c-6.7,0-13.5,1.7-19.6,3.3
							c-1.9,0.5-3.8,1-5.6,1.4l0.5,2.8c1.8-0.7,4.3-1.3,7-2C107.8,59.1,113.3,57.6,118.6,57.6L118.6,57.6z"/>
					</g>
					<rect x="-20" y="150" class="st27" width="517.8" height="151"/>
					<path class="st25" d="M91.7,25.7l-2.6,4.8l2.6,4.9l2.6-4.9L91.7,25.7z M91.7,38l-2.6,4.8l2.6,4.9l2.6-4.9L91.7,38z"/>
					<g class="st26">
						<path d="M91.7,48.1c-0.1,0-0.3-0.1-0.3-0.2L88.8,43l2.6-5.2c0.1-0.1,0.2-0.2,0.3-0.2l0,0c0.1,0,0.3,0.1,0.3,0.2l2.6,4.8
							l-2.6,5.2C92,48,91.9,48.1,91.7,48.1L91.7,48.1z M91.7,38.8L89.5,43l2.2,3.9l2.3-4.3L91.7,38.8L91.7,38.8z M91.7,35.8
							c-0.1,0-0.3-0.1-0.3-0.2l-2.6-4.8l2.6-5.2c0.1-0.1,0.2-0.2,0.3-0.2l0,0c0.1,0,0.3,0.1,0.3,0.2l2.6,4.9l-2.6,5.2
							C92,35.7,91.9,35.8,91.7,35.8L91.7,35.8z M91.7,26.5l-2.3,4.3l2.2,3.9l2.3-4.2L91.7,26.5L91.7,26.5z"/>
					</g>
					<path class="st25" d="M82.5,36.7l4.1,2.6l4.1-2.6l-4.1-2.6L82.5,36.7z M92.8,36.7l4.1,2.6l4.1-2.6l-4.1-2.6L92.8,36.7z"/>
					<g class="st26">
						<path d="M96.9,39.7c-0.1,0-0.1,0-0.2-0.1L92.6,37c-0.1-0.1-0.2-0.2-0.2-0.3c0-0.1,0.1-0.2,0.2-0.3l4.1-2.6l4.5,2.6
							c0.1,0.1,0.2,0.2,0.2,0.3c0,0.1-0.1,0.3-0.2,0.3l-4.1,2.6C97,39.7,97,39.7,96.9,39.7L96.9,39.7z M93.5,36.7l3.4,2.2l3.4-2.2
							l-3.6-2.3L93.5,36.7L93.5,36.7z M86.6,39.7c-0.1,0-0.1,0-0.2-0.1L82.3,37c-0.1-0.1-0.2-0.2-0.2-0.3c0-0.1,0.1-0.2,0.2-0.3
							l4.1-2.6l4.5,2.6c0.1,0.1,0.2,0.2,0.2,0.3c0,0.1-0.1,0.3-0.2,0.3l-4.1,2.6C86.7,39.7,86.6,39.7,86.6,39.7L86.6,39.7z
							 M83.2,36.7l3.4,2.2l3.4-2.2l-3.6-2.3L83.2,36.7L83.2,36.7z"/>
					</g>
					<path class="st25" d="M93.7,36.8c0,1.1-0.9,2-2,2c-1.1,0-2-0.9-2-2c0-1.1,0.9-2,2-2C92.8,34.8,93.7,35.7,93.7,36.8L93.7,36.8z"
						/>
					<g class="st26">
						<path d="M91.7,39.1c-1.3,0-2.3-1.1-2.3-2.3c0-1.3,1.1-2.3,2.3-2.3c1.3,0,2.4,1.1,2.4,2.3C94.1,38.1,93,39.1,91.7,39.1
							L91.7,39.1z M91.7,35.2c-0.9,0-1.6,0.7-1.6,1.6c0,1.7,3.1,1.8,3.2,0C93.3,35.9,92.6,35.2,91.7,35.2L91.7,35.2z"/>
					</g>
					<path class="st25" d="M97,49.3c0,2.9-2.4,5.3-5.3,5.3c-2.9,0-5.3-2.4-5.3-5.3c0-2.9,2.4-5.3,5.3-5.3C94.6,44.1,97,46.4,97,49.3
						L97,49.3z"/>
					<g class="st26">
						<path d="M91.7,55c-3.1,0-5.6-2.5-5.6-5.6c0-3.1,2.5-5.6,5.6-5.6c3.1,0,5.7,2.5,5.7,5.6C97.4,52.4,94.8,55,91.7,55L91.7,55z
							 M91.7,44.4c-2.7,0-4.9,2.2-4.9,4.9c0,2.7,2.2,4.9,4.9,4.9c2.7,0,4.9-2.2,4.9-4.9C96.6,46.6,94.4,44.4,91.7,44.4L91.7,44.4z"
							/>
					</g>
					<g class="st26">
						<path d="M96.8,51C96.8,51,96.8,51,96.8,51c-3.4-0.6-6.8-0.6-10.1,0c-0.2,0.1-0.4-0.1-0.4-0.3c0-0.2,0.1-0.4,0.3-0.4
							c3.4-0.6,6.9-0.6,10.3,0c0.2,0,0.4,0.2,0.3,0.4C97.2,50.9,97,51,96.8,51L96.8,51z M96.8,48.3C96.8,48.3,96.8,48.3,96.8,48.3
							c-1.3-0.2-2.5-0.3-3.7-0.4l-0.4-3.7c0-0.4,0.8-0.4,0.8,0v3.3c0.9-0.3,2.2-0.2,3.4,0c0.2,0,0.4,0.2,0.3,0.4
							C97.2,48.2,97,48.3,96.8,48.3L96.8,48.3z M86.7,48.3c-0.2,0-0.3-0.1-0.4-0.3c0-0.2,0.1-0.4,0.3-0.4c1.2-0.2,2.5-0.3,3.8-0.4
							L90,46.4l0-2.2c0-0.4,0.8-0.4,0.8,0l0,3.3C89.2,48,87.9,48.1,86.7,48.3C86.7,48.3,86.7,48.3,86.7,48.3L86.7,48.3z"/>
					</g>
					<path class="st25" d="M86.6,58.2c-0.5,8.6-1.5,17.4-4.9,23.7l5.4-2.2c1.9-7.2,2.3-16.5,2.9-20.9L86.6,58.2z M96.9,58.2
						l-3.5,0.6c0.6,4.4,1,13.7,2.9,20.9l5.4,2.2C98.4,75.6,97.4,66.8,96.9,58.2L96.9,58.2z"/>
					<g class="st26">
						<path d="M81.7,82.3c-0.1,0-0.2,0-0.3-0.1c-0.1-0.1-0.1-0.3,0-0.4c3.4-6.5,4.3-15.6,4.8-23.6l3.9,0.2c0.2,1.6,0,3.1-0.1,4.9
							c-0.4,4.7-1,11.2-2.4,16.5l-5.7,2.5C81.8,82.3,81.8,82.3,81.7,82.3L81.7,82.3z M86.5,58.6c0,7.4-0.9,16.1-4,22.6l4.5-1.8
							c1.2-5,1.8-11.5,2.2-16.2c0.2-1.8,0.3-3.3,0.4-4.5L86.5,58.6L86.5,58.6z M101.7,82.3c-0.1,0-0.1,0-0.1,0l-5.4-2.2
							c-1.6-5.5-2.2-12-2.6-16.7c-0.2-1.8-0.3-3.4-0.5-4.6l3.8-1c0.9,8.4,1.8,17.4,5.3,23.9c0.1,0.1,0,0.3-0.1,0.4
							C101.9,82.3,101.9,82.3,101.7,82.3L101.7,82.3z M96.5,58.2l-3,0.9c0.5,0.8,0.6,2.4,0.8,4.2c0.4,4.7,1,11.1,2.4,16.3l4.3,1.6
							C97.8,74.7,96.9,66,96.5,58.2L96.5,58.2z"/>
					</g>
					<path class="st25" d="M91.7,76.9c-6.5,0-11.3,3.1-11.6,10.9c-1.6-2.8-8.3-11.6-14.6-10.4c-3.7,0.7-7,5.9-6.5,11.8
						C56,80.2,47,78.8,40.4,84c5.9,4.8,8.5,19.1,13.4,25.2h37.9h37.9c4.9-6.2,7.6-20.4,13.4-25.2c-6.6-5.3-15.6-3.8-18.7,5.1
						c0.6-5.9-2.8-11.1-6.5-11.8c-6.3-1.2-13,7.6-14.6,10.4C103,79.9,98.2,76.9,91.7,76.9L91.7,76.9z"/>
					<g class="st26">
						<path d="M129.7,109.6H53.8c-2.5-2.9-4.2-7.1-6-11.6c-2.2-5.4-4.4-11.1-7.6-13.7c2.5-2.6,5.5-3.7,8.4-3.7c4.4,0,8,2.4,10.1,6.5
							c0.2-5.4,3.5-9.6,6.8-10.2c6.1-1.1,12.1,6.3,14.4,9.6c0.7-6.5,4.8-10.1,11.8-10.1c7,0,11.2,3.6,11.9,10.1
							c2.2-3.3,8.4-10.7,14.3-9.6c3.3,0.6,6.6,4.8,6.8,10.2c2.1-4.1,5.7-6.5,10.1-6.5c2.9,0,5.9,1.1,8.4,3.1
							c-3.2,3.2-5.5,8.8-7.6,14.3c-1.8,4.5-3.5,8.7-5.7,11.5C129.9,109.6,129.8,109.6,129.7,109.6L129.7,109.6z M48.6,81.4
							c-2.7,0-5.6,1-8,3c3.3,2.2,5.6,7.9,7.9,13.4c1.8,4.4,3.5,8.6,5.6,11.3l75.4-0.1c2.1-2.7,3.7-6.8,5.5-11.1
							c2.2-5.5,4.5-11.2,7.9-14c-2.4-1.3-5.2-2.4-7.9-2.4c-4.7,0-8.5,2.9-10.2,7.9c-0.1,0.2-0.3,0.3-0.4,0.2c-0.2,0-0.3-0.2-0.3-0.4
							c0.6-5.9-2.8-10.8-6.2-11.4c-5.7-1.1-12.2,6.8-14.2,10.2c-0.1,0.1-0.2,0.2-0.4,0.2c-0.2,0-0.3-0.2-0.3-0.4
							c-0.3-8.7-6.3-10.5-11.2-10.5c-4.9,0-10.9,1.8-11.2,10.5c0,0.2-0.1,0.3-0.3,0.4c-0.2,0-0.3,0-0.4-0.2
							c-1.2-2.2-7.9-11.5-14.2-10.2c-3.4,0.6-6.7,5.5-6.2,11.4c0,0.2-0.1,0.4-0.3,0.4c-0.2,0-0.4-0.1-0.4-0.2
							C57,84.3,53.2,81.4,48.6,81.4L48.6,81.4z"/>
					</g>
					<path class="st26" d="M129.6,109.2c0,2.8-16.9,5.9-37.8,5.9c-20.9,0-37.8-3.1-37.8-5.9c0-2.8,17-4.3,37.8-4.3
						C112.6,105,129.6,106.4,129.6,109.2L129.6,109.2z"/>
					<g class="st26">
						<path d="M91.7,115.5c-20.4,0-38.2-2.9-38.2-6.3c0-4.3,29.3-4.7,38.2-4.7c9,0,38.2,0.3,38.2,4.7
							C129.9,112.6,112.1,115.5,91.7,115.5L91.7,115.5z M91.7,105.3c-24.6,0-37.4,2-37.4,3.9c0,2.2,15.7,5.5,37.4,5.5
							c21.7,0,37.4-3.3,37.4-5.5C129.2,107.3,116.3,105.3,91.7,105.3L91.7,105.3z"/>
					</g>
					<path class="st25" d="M93.5,56.6c0,1-0.8,1.8-1.8,1.8c-1,0-1.8-0.8-1.8-1.8l0,0c0-1,0.8-1.8,1.8-1.8
						C92.7,54.8,93.5,55.6,93.5,56.6L93.5,56.6z"/>
					<g class="st26">
						<path d="M91.7,58.7c-1.2,0-2.1-1-2.1-2.1c0-0.6,0.2-1.1,0.6-1.5c1.2-1.2,3.7-0.3,3.7,1.5C93.9,57.8,92.9,58.7,91.7,58.7
							L91.7,58.7z M91.7,55.2c-0.4,0-0.7,0.1-1,0.4c-0.3,0.3-0.4,0.6-0.4,1c0,1.5,2.8,1.5,2.8,0C93.1,55.8,92.5,55.2,91.7,55.2
							L91.7,55.2z"/>
					</g>
					<path class="st25" d="M93.6,60.4c0,1-0.8,1.9-1.9,1.9c-1,0-1.9-0.8-1.9-1.9l0,0c0-1,0.8-1.9,1.9-1.9
						C92.8,58.5,93.6,59.4,93.6,60.4L93.6,60.4z"/>
					<g class="st26">
						<path d="M91.7,62.7c-1.2,0-2.3-1-2.3-2.3c0-1.2,1-2.3,2.3-2.3c1.2,0,2.3,1,2.3,2.3C94,61.7,93,62.7,91.7,62.7L91.7,62.7z
							 M91.7,58.9c-0.8,0-1.5,0.7-1.5,1.5c0,1.6,3,1.7,3,0C93.2,59.6,92.6,58.9,91.7,58.9L91.7,58.9z"/>
					</g>
					<path class="st25" d="M93.8,64.5c0,1.1-0.9,2.1-2.1,2.1c-1.1,0-2.1-0.9-2.1-2v0c0-1.1,0.9-2,2.1-2.1
						C92.9,62.5,93.8,63.4,93.8,64.5L93.8,64.5z"/>
					<g class="st26">
						<path d="M91.7,66.9L91.7,66.9c-1.3,0-2.4-1.1-2.4-2.4c0-1.3,1.1-2.4,2.4-2.4c1.3,0,2.4,1.1,2.4,2.4
							C94.2,65.9,93.1,66.9,91.7,66.9L91.7,66.9z M91.7,62.8c-0.9,0-1.7,0.8-1.7,1.7c0,1.9,3.3,1.8,3.3,0
							C93.4,63.6,92.6,62.8,91.7,62.8L91.7,62.8z"/>
					</g>
					<path class="st25" d="M94.1,69.1c0,1.3-1,2.3-2.3,2.3c-1.3,0-2.3-1-2.3-2.3v0c0-1.3,1-2.3,2.3-2.3C93,66.7,94.1,67.8,94.1,69.1
						L94.1,69.1z"/>
					<g class="st26">
						<path d="M91.7,71.8L91.7,71.8c-1.5,0-2.7-1.2-2.7-2.7c0-1.5,1.2-2.7,2.7-2.7c1.5,0,2.7,1.2,2.7,2.7
							C94.5,70.6,93.2,71.8,91.7,71.8L91.7,71.8z M91.7,67.1c-1.1,0-2,0.9-2,2c0,1.1,0.9,2,1.9,2c1.1,0,2-0.9,2-2
							C93.7,68,92.8,67.1,91.7,67.1L91.7,67.1z"/>
					</g>
					<path class="st25" d="M94.3,74.2c0,1.4-1.1,2.6-2.6,2.6c-1.4,0-2.6-1.2-2.6-2.6l0,0c0-1.4,1.2-2.6,2.6-2.6
						C93.1,71.6,94.3,72.8,94.3,74.2L94.3,74.2z"/>
					<g class="st26">
						<path d="M91.7,77.1c-1.6,0-2.9-1.3-2.9-3c0-1.6,1.3-3,2.9-3s3,1.3,3,3C94.7,75.8,93.4,77.1,91.7,77.1L91.7,77.1z M91.7,72
							c-1.2,0-2.2,1-2.2,2.2c0,1.2,1,2.2,2.2,2.2c1.2,0,2.2-1,2.2-2.2C93.9,73,92.9,72,91.7,72L91.7,72z"/>
					</g>
					<path class="st26" d="M90.7,79.1c-0.3,0-0.5,0.2-0.5,0.7c0.1,0.5,0.2,1.5,0.3,2.2c0.1,0.8,0.5,0.6,0.7,0c0.1-0.6,0.1-1,0.1-2
						C91.3,79.4,91,79.1,90.7,79.1L90.7,79.1z M92.8,79.1c-0.3,0-0.6,0.2-0.6,0.8c0,1.1,0,1.5,0.1,2c0.1,0.6,0.6,0.8,0.7,0
						c0.1-0.7,0.2-1.6,0.3-2.2C93.3,79.4,93,79.1,92.8,79.1L92.8,79.1z M88.9,79.4c-0.3,0-0.5,0.3-0.5,0.6c0,0.5,0.2,1.1,0.2,1.9
						c0.1,0.8,0.6,0.5,0.7,0c0.1-0.4,0.1-1.1,0.1-2c0-0.3-0.2-0.5-0.3-0.5C89,79.4,88.9,79.4,88.9,79.4L88.9,79.4z M94.5,79.4
						c-0.2,0-0.3,0.2-0.3,0.5c-0.1,0.9,0,1.5,0.1,2c0,0.4,0.6,0.8,0.7,0c0.1-0.8,0.2-1.4,0.2-1.9c0-0.3-0.2-0.5-0.5-0.6
						C94.5,79.4,94.5,79.4,94.5,79.4L94.5,79.4z M86.7,80.3c-0.2,0.1-0.5,0.3-0.4,0.7c0.1,0.6,0.3,1.3,0.3,2c0,0.5,0.5,0.4,0.5,0
						c0-0.4,0.1-1.2,0.1-2C87.2,80.4,86.9,80.2,86.7,80.3L86.7,80.3z M96.6,80.3c-0.2,0-0.3,0.2-0.3,0.7c0,0.8,0,1.6,0.1,2
						c0,0.4,0.5,0.6,0.5,0c0-0.7,0.1-1.4,0.3-2c0.1-0.3-0.1-0.6-0.4-0.7C96.7,80.3,96.7,80.3,96.6,80.3L96.6,80.3z M66.9,80.4
						c-0.3,0-0.5,0.4-0.3,0.8c0.3,0.7,0.6,1.1,0.9,1.8c0.3,0.6,0.7,0.2,0.6-0.2c-0.1-0.4-0.3-0.9-0.7-1.9
						C67.2,80.5,67,80.4,66.9,80.4L66.9,80.4z M116.6,80.4c-0.2,0-0.4,0.1-0.5,0.5c-0.4,0.9-0.6,1.4-0.7,1.9
						c-0.1,0.4,0.3,0.8,0.6,0.2c0.3-0.7,0.6-1.1,1-1.8C117.1,80.7,116.9,80.4,116.6,80.4L116.6,80.4z M68.9,80.4
						c-0.2,0.1-0.3,0.3-0.2,0.6c0.2,0.6,0.6,1.2,0.9,1.9c0.2,0.6,0.7,0.4,0.6-0.1c-0.2-0.5-0.2-0.8-0.6-1.8
						C69.4,80.5,69.1,80.3,68.9,80.4L68.9,80.4z M114.4,80.4c-0.2,0-0.4,0.2-0.5,0.6c-0.3,1-0.4,1.3-0.5,1.8
						c-0.2,0.5,0.3,0.7,0.5,0.1c0.3-0.7,0.6-1.3,0.9-1.9c0.1-0.3,0-0.6-0.2-0.6C114.5,80.4,114.5,80.4,114.4,80.4L114.4,80.4z
						 M71.4,80.9c-0.3,0-0.5,0.4-0.3,0.9c0.2,0.6,0.6,1.2,0.8,1.9c0.3,0.7,0.7,0.6,0.6,0.1c-0.1-0.4-0.2-1.2-0.6-2.3
						C71.8,81,71.6,80.9,71.4,80.9L71.4,80.9z M112.1,80.9c-0.2,0-0.4,0.1-0.6,0.6c-0.3,1.1-0.5,1.9-0.6,2.3
						c-0.1,0.4,0.3,0.6,0.6-0.1c0.3-0.7,0.6-1.3,0.8-1.9C112.5,81.3,112.3,80.9,112.1,80.9L112.1,80.9z M65.2,81.2
						c-0.3,0-0.5,0.5-0.4,0.8c0.3,0.6,0.5,0.7,0.7,1.3c0.3,0.6,0.6,0.1,0.5-0.3c-0.1-0.4-0.3-0.8-0.4-1.4
						C65.5,81.3,65.3,81.2,65.2,81.2L65.2,81.2z M118.3,81.2c-0.2,0-0.3,0.1-0.4,0.5c-0.1,0.6-0.3,1-0.4,1.4
						c-0.1,0.4,0.2,0.9,0.5,0.3c0.3-0.6,0.5-0.8,0.7-1.3C118.8,81.7,118.6,81.3,118.3,81.2L118.3,81.2z M84.6,82.6
						c-0.3,0-0.6,0.4-0.5,0.8c0.2,0.6,0.4,1.1,0.6,1.9c0.2,0.7,0.6,0.3,0.6-0.1c0-0.5-0.1-1.1-0.3-2C84.9,82.8,84.7,82.6,84.6,82.6
						L84.6,82.6z M98.9,82.6c-0.2,0-0.4,0.1-0.4,0.5c-0.2,0.9-0.3,1.6-0.3,2c0,0.4,0.4,0.8,0.6,0.1c0.2-0.8,0.4-1.3,0.6-1.9
						C99.5,83,99.2,82.6,98.9,82.6L98.9,82.6z M91.7,83.2c-0.4,0-0.4,0.5-0.4,0.9c-0.1,1.3-0.6,2.5-1,3.2c-0.4,0.6-1.1,0.5-1.8,0.1
						c-0.6-0.3-1-0.6-1.7-1.1c-0.7-0.5-1.2-0.2-0.4,0.9c2.3,3.3,4.9,6.2,4.9,11.6c0,0.7,0.1,0.9,0.4,0.9c0.3,0,0.4-0.2,0.4-0.9
						c0-5.4,2.5-8.2,4.8-11.6c0.8-1.1,0.3-1.4-0.4-0.9c-0.7,0.5-1,0.8-1.7,1.1c-0.6,0.3-1.3,0.5-1.8-0.1c-0.5-0.6-1-1.9-1-3.2
						C92.1,83.7,92.1,83.2,91.7,83.2L91.7,83.2z M74,82.4c0,0-0.1,0-0.1,0c-0.1,0-0.2,0.2-0.2,0.5c0.1,0.5,0.4,1.5,0.6,2
						c0.1,0.5,0.7,0.4,0.6-0.3c-0.1-0.6-0.1-0.8-0.3-1.6C74.5,82.7,74.2,82.4,74,82.4L74,82.4z M109.5,82.4c-0.2,0-0.5,0.3-0.6,0.7
						c-0.2,0.7-0.2,0.9-0.3,1.6c-0.1,0.6,0.4,0.7,0.6,0.3c0.1-0.5,0.5-1.5,0.6-2C109.8,82.7,109.7,82.5,109.5,82.4
						C109.6,82.4,109.5,82.4,109.5,82.4L109.5,82.4z M63.4,82.6c-0.3,0-0.5,0.4-0.2,0.9c0.3,0.6,0.9,1.3,1.1,1.7
						c0.2,0.4,0.7,0.1,0.4-0.4c-0.3-0.5-0.4-1.1-0.8-1.9C63.8,82.7,63.6,82.6,63.4,82.6L63.4,82.6z M120,82.6
						c-0.2,0-0.4,0.1-0.5,0.4c-0.4,0.8-0.5,1.4-0.8,1.9c-0.3,0.5,0.1,0.8,0.4,0.4c0.2-0.4,0.8-1.2,1.1-1.7
						C120.5,83,120.3,82.7,120,82.6L120,82.6z M47.5,84.3c-0.3,0-0.4,0.6-0.1,1c0.5,0.6,0.8,0.9,1.3,1.4c0.4,0.4,0.5-0.1,0.3-0.5
						c-0.2-0.4-0.5-0.8-0.9-1.4C47.8,84.5,47.6,84.3,47.5,84.3L47.5,84.3z M136,84.3c-0.2,0-0.4,0.1-0.6,0.5c-0.4,0.6-0.7,1-0.9,1.4
						c-0.2,0.4-0.1,0.9,0.3,0.5c0.5-0.5,0.8-0.8,1.3-1.4C136.4,84.9,136.3,84.3,136,84.3L136,84.3z M50,84.8c-0.3,0-0.4,0.2-0.2,0.7
						c0.3,0.7,0.7,1.4,1,1.9c0.3,0.5,1,0.7,0.7-0.1c-0.3-0.8-0.4-1.2-0.6-1.9C50.6,85,50.3,84.8,50,84.8L50,84.8z M133.5,84.8
						c-0.3,0-0.6,0.2-0.8,0.5c-0.3,0.7-0.3,1.1-0.6,1.9c-0.3,0.8,0.5,0.6,0.7,0.1c0.3-0.5,0.6-1.2,0.9-1.9
						C133.9,85,133.7,84.8,133.5,84.8L133.5,84.8z M45.1,85c-0.4,0-0.4,0.4-0.1,0.6c0.4,0.3,1,0.7,1.5,1.1c0.6,0.5,0.9,0,0.5-0.4
						c-0.3-0.4-0.7-0.8-1.5-1.3C45.4,85,45.2,85,45.1,85L45.1,85z M138.4,85c-0.1,0-0.3,0-0.5,0.1c-0.8,0.4-1.2,0.9-1.5,1.3
						c-0.3,0.4-0.1,0.9,0.5,0.4c0.5-0.4,1.1-0.8,1.5-1.1C138.8,85.4,138.8,85,138.4,85L138.4,85z M83.2,85.4c-0.2,0-0.4,0.3-0.3,0.6
						c0.2,0.6,0.4,1.2,0.5,1.8c0.1,0.6,0.8,0.6,0.7,0.1c-0.1-0.5-0.2-1.2-0.4-2C83.6,85.5,83.4,85.4,83.2,85.4
						C83.2,85.3,83.2,85.3,83.2,85.4L83.2,85.4z M100.2,85.4c-0.2,0-0.3,0.2-0.4,0.5c-0.2,0.8-0.3,1.5-0.4,2
						c-0.1,0.5,0.6,0.5,0.7-0.1c0.1-0.6,0.3-1.2,0.5-1.8C100.7,85.6,100.5,85.4,100.2,85.4C100.3,85.3,100.2,85.3,100.2,85.4
						L100.2,85.4z M68,84.4c-0.2,0.1-0.3,0.4-0.1,0.8c0.7,2.5,0.9,3.9,0.8,4.5c-0.1,0.6-0.5,0.7-0.9,0.5c-0.5-0.2-1-0.5-1.4-0.8
						c-0.4-0.3-0.9,0.1-0.3,0.6c3.1,2.5,5.2,5.4,6,8.8c0.2,0.7,0.6,0.8,0.5,0c-0.7-4.4-0.8-8,0.2-10.2c0.4-0.9,0-1.7-0.6-0.3
						c-0.4,0.9-1.1,1.3-1.6,0.5c-0.6-0.8-1.7-2.9-2-3.9C68.4,84.5,68.2,84.4,68,84.4C68.1,84.4,68.1,84.4,68,84.4L68,84.4z
						 M115.4,84.4c-0.1,0-0.3,0.2-0.4,0.6c-0.3,1-1.5,3.1-2,3.9c-0.5,0.8-1.2,0.4-1.6-0.5c-0.6-1.4-1-0.6-0.6,0.3
						c1,2.3,0.9,5.8,0.2,10.2c-0.1,0.8,0.3,0.7,0.5,0c0.8-3.5,2.9-6.3,6-8.8c0.6-0.5,0.2-0.8-0.3-0.6c-0.4,0.3-1,0.6-1.4,0.8
						c-0.5,0.2-0.8,0.1-0.9-0.5c-0.1-0.6,0.1-2,0.8-4.5C115.7,84.7,115.6,84.4,115.4,84.4C115.4,84.4,115.4,84.4,115.4,84.4
						L115.4,84.4z M52.7,85.6c-0.3,0-0.5,0.2-0.4,0.6c0.2,0.7,0.6,1.4,0.8,1.8c0.1,0.4,0.6,0.2,0.5-0.4c-0.1-0.6-0.1-0.9-0.2-1.6
						C53.3,85.7,53,85.6,52.7,85.6L52.7,85.6z M130.8,85.6c-0.3,0-0.6,0.2-0.7,0.5c-0.1,0.6-0.1,1-0.2,1.6c-0.1,0.6,0.4,0.8,0.5,0.4
						c0.1-0.4,0.5-1.1,0.8-1.8C131.3,85.8,131,85.6,130.8,85.6L130.8,85.6z M62.2,84.7c-0.3-0.1-0.4,0.8-0.1,1.1
						c0.4,0.5,0.9,1,1.4,1.6c0.4,0.5,0.7,0.1,0.4-0.4c-0.3-0.4-0.6-0.9-1.3-1.9C62.4,84.9,62.3,84.7,62.2,84.7L62.2,84.7z
						 M121.3,84.7c-0.1,0-0.2,0.1-0.4,0.4c-0.7,1.1-1,1.5-1.3,1.9c-0.3,0.4,0,0.9,0.4,0.4c0.5-0.6,1-1.1,1.4-1.6
						C121.7,85.5,121.6,84.6,121.3,84.7L121.3,84.7z M54.9,86.7c-0.2,0-0.4,0.1-0.3,0.5c0.1,0.6,0.3,1,0.4,1.6
						c0.1,0.5,0.5,0.4,0.5-0.1c0-0.5-0.1-1.1-0.2-1.6C55.3,86.9,55.1,86.7,54.9,86.7L54.9,86.7z M128.6,86.7c-0.2,0-0.4,0.2-0.5,0.5
						c-0.1,0.5-0.2,1.1-0.2,1.6c0,0.5,0.4,0.6,0.5,0.1c0.1-0.5,0.3-1,0.4-1.6C129,86.8,128.8,86.7,128.6,86.7L128.6,86.7z
						 M61.5,87.4c-0.3,0-0.6,0.4-0.2,0.8c0.6,0.7,1.2,1.3,1.4,1.6c0.2,0.3,0.8,0.2,0.4-0.4c-0.4-0.6-0.9-1.3-1.2-1.8
						C61.8,87.4,61.6,87.4,61.5,87.4L61.5,87.4z M121.9,87.4c-0.1,0-0.3,0.1-0.3,0.2c-0.3,0.4-0.8,1.2-1.2,1.8
						c-0.4,0.6,0.2,0.7,0.4,0.4c0.2-0.3,0.9-0.8,1.4-1.6c0.4-0.5,0.1-0.8-0.2-0.8C122,87.4,121.9,87.4,121.9,87.4L121.9,87.4z
						 M51,89.5c-0.2,0-0.3,0.2,0,0.6c0.8,1,1.6,2.6,1.6,3.3c0.1,0.7-0.3,0.7-0.6,0.7c-0.9,0-1.4-0.7-2.2-0.9c-0.8-0.2-1,0.2-0.4,0.7
						c3.1,2.2,6.1,4.7,7.4,7c0.5,0.9,1.2,1.3,0.8,0.4c-1.2-2.7-1.4-5-1.2-6.3c0.2-1.4,0.6-2.3,0.6-3.1c0-0.8-0.5-0.7-0.7,0
						c-0.1,0.5-0.4,1.2-0.5,1.4c-0.2,0.3-0.8,0.4-1.5-0.5c-0.6-0.9-2.3-2.5-2.8-2.9C51.4,89.6,51.2,89.5,51,89.5L51,89.5z
						 M132.4,89.5c-0.1,0-0.4,0.1-0.6,0.3c-0.5,0.4-2.1,2.1-2.8,2.9c-0.6,0.9-1.3,0.7-1.5,0.5c-0.2-0.3-0.4-0.9-0.5-1.4
						c-0.2-0.7-0.6-0.8-0.7,0c0,0.8,0.3,1.7,0.6,3.1c0.2,1.4,0,3.7-1.2,6.3c-0.4,0.9,0.3,0.5,0.8-0.4c1.2-2.3,4.3-4.7,7.4-7
						c0.6-0.4,0.5-0.9-0.4-0.7c-0.8,0.2-1.3,0.9-2.2,0.9c-0.3,0-0.6,0-0.6-0.7c0.1-0.7,0.9-2.2,1.6-3.3
						C132.7,89.7,132.7,89.5,132.4,89.5L132.4,89.5z"/>
					<path class="st28" d="M55.6,106l1,3.1L55.6,106z M57.6,105.4l0.9,3.1L57.6,105.4z M59.8,105.1l0.6,3.2L59.8,105.1z M61.8,104.7
						l0.6,3.2L61.8,104.7z M64.4,104.4l0.5,3.2L64.4,104.4z M67.1,104.4l0.6,3.2L67.1,104.4z M69.8,103.5l0.4,3.2L69.8,103.5z
						 M72.4,103.7l0.4,3.2L72.4,103.7z M74.8,103.4l0.4,3.2L74.8,103.4z M77.3,103.1l0.2,3.2L77.3,103.1z M79.9,103.1l0.2,3.2
						L79.9,103.1z M82.3,102.9l0.1,3.3L82.3,102.9z M84.9,102.8l0.1,3.3L84.9,102.8z M88,102.7l0.1,3.3L88,102.7z M127.9,106l-1,3.1
						L127.9,106z M125.9,105.4l-0.9,3.1L125.9,105.4z M123.7,105.1l-0.6,3.2L123.7,105.1z M121.7,104.7l-0.6,3.2L121.7,104.7z
						 M119.1,104.4l-0.5,3.2L119.1,104.4z M116.3,104.4l-0.6,3.2L116.3,104.4z M113.6,103.5l-0.4,3.2L113.6,103.5z M111.1,103.7
						l-0.4,3.2L111.1,103.7z M108.6,103.4l-0.4,3.2L108.6,103.4z M106.2,103.1l-0.2,3.2L106.2,103.1z M103.5,103.1l-0.2,3.2
						L103.5,103.1z M101.1,102.9l-0.2,3.3L101.1,102.9z M98.5,102.8l-0.1,3.3L98.5,102.8z M95.5,102.7l-0.1,3.3L95.5,102.7z
						 M91.7,102.5v3.6V102.5z"/>
					<g class="st26">
						<path d="M126.9,109.5c0,0-0.1,0-0.1,0c-0.2-0.1-0.3-0.3-0.3-0.5l1-3.1c0.1-0.2,0.2-0.3,0.5-0.3c0.2,0.1,0.3,0.3,0.2,0.5
							l-1,3.1C127.2,109.4,127.1,109.5,126.9,109.5L126.9,109.5z M56.6,109.5c-0.2,0-0.3-0.1-0.4-0.3l-1-3.1
							c-0.1-0.2,0.1-0.4,0.3-0.5c0.2-0.1,0.4,0.1,0.5,0.2l1,3.1c0.1,0.2,0,0.4-0.2,0.5C56.6,109.5,56.6,109.5,56.6,109.5L56.6,109.5
							z M125,109c0,0-0.1,0-0.1,0c-0.2-0.1-0.3-0.3-0.3-0.5l0.9-3.1c0.1-0.2,0.2-0.3,0.5-0.3c0.2,0.1,0.3,0.3,0.3,0.5l-0.9,3.1
							C125.3,108.8,125.2,109,125,109L125,109z M58.4,109c-0.2,0-0.3-0.1-0.4-0.3l-0.9-3.1c-0.1-0.2,0.1-0.4,0.3-0.5
							c0.2-0.1,0.4,0.1,0.5,0.3l0.9,3.1c0.1,0.2-0.1,0.4-0.3,0.5C58.5,109,58.5,109,58.4,109L58.4,109z M60.4,108.7
							c-0.2,0-0.3-0.1-0.4-0.3l-0.6-3.2c0-0.2,0.1-0.4,0.3-0.4c0.2,0,0.4,0.1,0.5,0.3l0.6,3.2C60.8,108.4,60.6,108.6,60.4,108.7
							C60.4,108.7,60.4,108.7,60.4,108.7L60.4,108.7z M123.1,108.7C123.1,108.7,123.1,108.7,123.1,108.7c-0.3,0-0.4-0.2-0.4-0.4
							l0.6-3.2c0-0.2,0.3-0.4,0.4-0.3c0.2,0,0.3,0.2,0.3,0.4l-0.6,3.2C123.4,108.5,123.3,108.7,123.1,108.7L123.1,108.7z M121,108.3
							C121,108.3,121,108.3,121,108.3c-0.3-0.1-0.4-0.2-0.4-0.5l0.6-3.2c0-0.2,0.2-0.3,0.4-0.3c0.2,0,0.3,0.2,0.3,0.5l-0.6,3.2
							C121.4,108.1,121.2,108.3,121,108.3L121,108.3z M62.4,108.3c-0.2,0-0.3-0.1-0.4-0.3l-0.6-3.2c0-0.2,0.1-0.4,0.3-0.5
							c0.2,0,0.4,0.1,0.4,0.3l0.6,3.2C62.8,108,62.7,108.2,62.4,108.3C62.5,108.3,62.5,108.3,62.4,108.3L62.4,108.3z M115.8,108
							C115.7,108,115.7,108,115.8,108c-0.3,0-0.4-0.2-0.4-0.4l0.6-3.2c0-0.2,0.2-0.4,0.4-0.3c0.2,0,0.3,0.2,0.3,0.4l-0.6,3.2
							C116.1,107.9,115.9,108,115.8,108L115.8,108z M67.7,108c-0.2,0-0.3-0.1-0.4-0.3l-0.6-3.2c0-0.2,0.1-0.4,0.3-0.4
							c0.2-0.1,0.4,0.1,0.4,0.3l0.6,3.2C68.1,107.8,68,108,67.7,108C67.7,108,67.7,108,67.7,108L67.7,108z M118.6,108
							C118.5,108,118.5,108,118.6,108c-0.3,0-0.4-0.2-0.4-0.4l0.5-3.2c0-0.2,0.2-0.4,0.4-0.3c0.2,0,0.4,0.2,0.3,0.4l-0.5,3.2
							C118.9,107.9,118.7,108,118.6,108L118.6,108z M64.9,108c-0.2,0-0.3-0.1-0.4-0.3l-0.5-3.2c0-0.2,0.1-0.4,0.3-0.4
							c0.2,0,0.4,0.1,0.4,0.3l0.5,3.2C65.3,107.8,65.2,108,64.9,108C65,108,64.9,108,64.9,108L64.9,108z M110.7,107.3
							C110.7,107.3,110.7,107.3,110.7,107.3c-0.3,0-0.4-0.2-0.4-0.4l0.4-3.2c0-0.2,0.2-0.4,0.4-0.3c0.2,0,0.3,0.2,0.3,0.4l-0.4,3.2
							C111,107.2,110.9,107.3,110.7,107.3L110.7,107.3z M72.8,107.3c-0.2,0-0.4-0.1-0.4-0.3l-0.4-3.2c0-0.2,0.1-0.4,0.3-0.4
							c0.3-0.1,0.4,0.1,0.4,0.3l0.4,3.2C73.2,107.1,73,107.3,72.8,107.3C72.8,107.3,72.8,107.3,72.8,107.3L72.8,107.3z M113.2,107.1
							C113.2,107.1,113.2,107.1,113.2,107.1c-0.3,0-0.4-0.2-0.4-0.4l0.4-3.2c0-0.2,0.1-0.4,0.4-0.3c0.2,0,0.4,0.2,0.3,0.4l-0.4,3.2
							C113.6,107,113.4,107.1,113.2,107.1L113.2,107.1z M70.2,107.1c-0.2,0-0.4-0.1-0.4-0.3l-0.4-3.2c0-0.2,0.1-0.4,0.3-0.4
							c0.3,0,0.4,0.1,0.4,0.3l0.4,3.2C70.6,106.9,70.5,107.1,70.2,107.1C70.3,107.1,70.3,107.1,70.2,107.1L70.2,107.1z M108.2,107
							C108.2,107,108.2,107,108.2,107c-0.3,0-0.4-0.2-0.4-0.4l0.4-3.2c0-0.2,0.1-0.4,0.4-0.3c0.2,0,0.4,0.2,0.3,0.4l-0.4,3.2
							C108.6,106.8,108.4,107,108.2,107L108.2,107z M75.2,107c-0.2,0-0.4-0.1-0.4-0.3l-0.4-3.2c0-0.2,0.1-0.4,0.3-0.4
							c0.2,0,0.4,0.1,0.4,0.3l0.4,3.2C75.6,106.7,75.5,106.9,75.2,107C75.3,107,75.3,107,75.2,107L75.2,107z M103.3,106.7
							C103.3,106.7,103.3,106.7,103.3,106.7c-0.2,0-0.4-0.2-0.4-0.4l0.2-3.3c0-0.2,0.1-0.3,0.4-0.4c0.2,0,0.4,0.2,0.4,0.4l-0.2,3.3
							C103.7,106.6,103.6,106.7,103.3,106.7L103.3,106.7z M105.9,106.7C105.9,106.7,105.9,106.7,105.9,106.7c-0.2,0-0.4-0.2-0.4-0.4
							l0.2-3.2c0-0.2,0.3-0.3,0.4-0.4c0.2,0,0.4,0.2,0.4,0.4l-0.2,3.2C106.3,106.6,106.2,106.7,105.9,106.7L105.9,106.7z
							 M77.5,106.7c-0.2,0-0.4-0.2-0.4-0.4l-0.2-3.2c0-0.2,0.1-0.4,0.4-0.4c0.4,0,0.4,0.2,0.4,0.4l0.2,3.2
							C77.9,106.5,77.8,106.7,77.5,106.7C77.5,106.7,77.5,106.7,77.5,106.7L77.5,106.7z M80.1,106.7c-0.2,0-0.4-0.2-0.4-0.4
							l-0.2-3.3c0-0.2,0.1-0.4,0.4-0.4c0.4,0,0.4,0.2,0.4,0.4l0.2,3.3C80.5,106.5,80.3,106.7,80.1,106.7
							C80.1,106.7,80.1,106.7,80.1,106.7L80.1,106.7z M101,106.6L101,106.6c-0.2,0-0.4-0.2-0.4-0.4l0.2-3.2c0-0.2,0.2-0.3,0.4-0.4
							c0.2,0,0.4,0.2,0.4,0.4l-0.2,3.2C101.4,106.4,101.2,106.6,101,106.6L101,106.6z M82.5,106.6c-0.2,0-0.4-0.2-0.4-0.4l-0.2-3.2
							c0-0.2,0.1-0.4,0.4-0.4c0.3,0.1,0.4,0.2,0.4,0.4l0.2,3.2C82.9,106.4,82.7,106.6,82.5,106.6C82.5,106.6,82.5,106.6,82.5,106.6
							L82.5,106.6z M91.7,106.4c-0.2,0-0.4-0.2-0.4-0.4v-3.6c0-0.4,0.8-0.4,0.8,0v3.6C92.1,106.3,92,106.4,91.7,106.4L91.7,106.4z
							 M98.4,106.4L98.4,106.4c-0.2,0-0.4-0.2-0.4-0.4l0.1-3.3c0-0.2,0.1-0.3,0.4-0.4c0.2,0,0.4,0.2,0.4,0.4l-0.1,3.3
							C98.8,106.2,98.6,106.4,98.4,106.4L98.4,106.4z M85.1,106.4c-0.2,0-0.4-0.2-0.4-0.4l-0.1-3.3c0-0.2,0.2-0.4,0.4-0.4
							c0.3,0.1,0.4,0.1,0.4,0.4l0.1,3.3C85.5,106.2,85.3,106.4,85.1,106.4C85.1,106.4,85.1,106.4,85.1,106.4L85.1,106.4z
							 M95.4,106.3L95.4,106.3c-0.2,0-0.4-0.2-0.4-0.4l0.1-3.3c0-0.2,0.3-0.3,0.4-0.4c0.2,0,0.4,0.2,0.4,0.4l-0.1,3.3
							C95.7,106.2,95.6,106.3,95.4,106.3L95.4,106.3z M88.1,106.3c-0.2,0-0.4-0.2-0.4-0.4l-0.1-3.3c0-0.2,0.2-0.4,0.4-0.4
							c0.2,0,0.4,0.2,0.4,0.4l0.1,3.3C88.5,106.1,88.3,106.3,88.1,106.3C88.1,106.3,88.1,106.3,88.1,106.3L88.1,106.3z"/>
					</g>
				</g>
			</g>
		</g>
	</g>
</g>
</svg>
