<?xml version="1.0" encoding="utf-8"?>
<!-- Generator: Adobe Illustrator 22.1.0, SVG Export Plug-In . SVG Version: 6.00 Build 0)  -->
<svg version="1.1" xmlns="http://www.w3.org/2000/svg" xmlns:xlink="http://www.w3.org/1999/xlink" x="0px" y="0px"
	 viewBox="0 0 300 300" style="enable-background:new 0 0 300 300;" xml:space="preserve">
<style type="text/css">
	.st0{clip-path:url(#SVGID_2_);}
	.st1{clip-path:url(#SVGID_4_);fill:#FFFFFF;}
	.st2{clip-path:url(#SVGID_4_);fill:#E8333C;}
	.st3{clip-path:url(#SVGID_4_);fill:#347F3D;}
	.st4{clip-path:url(#SVGID_6_);}
	.st5{clip-path:url(#SVGID_6_);fill:#4F9F3A;}
	.st6{clip-path:url(#SVGID_6_);fill:#BC0030;}
	.st7{clip-path:url(#SVGID_8_);fill:#BC0030;}
</style>
<g id="Layer_2">
</g>
<g id="Layer_1">
	<g>
		<defs>
			<rect id="SVGID_1_" y="-0.1" width="300" height="300"/>
		</defs>
		<clipPath id="SVGID_2_">
			<use xlink:href="#SVGID_1_"  style="overflow:visible;"/>
		</clipPath>
		<g id="Layer_2_1_" class="st0">
		</g>
		<g class="st0">
			<g>
				<defs>
					<rect id="SVGID_3_" x="-37.7" y="-0.8" width="518.2" height="302.3"/>
				</defs>
				<clipPath id="SVGID_4_">
					<use xlink:href="#SVGID_3_"  style="overflow:visible;"/>
				</clipPath>
				<rect x="-37.7" y="-0.8" class="st1" width="149.5" height="302.3"/>
				<rect x="113.4" y="-0.8" class="st2" width="367.1" height="151.2"/>
				<rect x="113.4" y="150.4" class="st3" width="367.1" height="151.1"/>
			</g>
		</g>
		<g class="st0">
			<g>
				<defs>
					<rect id="SVGID_5_" x="-108.8" y="-1" width="517.6" height="302"/>
				</defs>
				<clipPath id="SVGID_6_">
					<use xlink:href="#SVGID_5_"  style="overflow:visible;"/>
				</clipPath>
				<rect x="-108.8" y="-1" class="st4" width="517.6" height="151"/>
				<rect x="-108.8" y="150" class="st5" width="517.6" height="151"/>
				<rect x="-108.8" y="99.7" class="st6" width="517.6" height="100.6"/>
				<g class="st4">
					<defs>
						<rect id="SVGID_7_" x="-108.8" y="-1" width="517.6" height="302"/>
					</defs>
					<clipPath id="SVGID_8_">
						<use xlink:href="#SVGID_7_"  style="overflow:visible;"/>
					</clipPath>
					<path class="st7" d="M150,48.9c-28.3,0-52.3,18.1-61.2,43.3h122.4C202.3,66.9,178.3,48.9,150,48.9"/>
					<path class="st7" d="M150,11.1c-2.2,0-3,3.3-3,6.5c0,7.9,1,12,3,23.7c2.1-11.6,3-15.8,3-23.7C153,14.4,152.2,11.1,150,11.1
						 M141.1,11.5c-2.2,0.2-2.7,3.5-2.5,6.8c0.7,7.9,2,11.9,5.1,23.3c1-11.8,1.6-16,1-23.8C144.3,14.5,143.2,11.3,141.1,11.5
						 M158.9,11.5c-2.2-0.2-3.3,3-3.6,6.3c-0.7,7.9-0.1,12.1,1,23.8c3.1-11.4,4.4-15.5,5.1-23.3C161.7,15,161.1,11.7,158.9,11.5
						 M132.6,12.6c-0.1,0-0.3,0-0.4,0c-2.2,0.4-2.4,3.7-1.8,7c1.4,7.8,3,11.7,7.1,22.8c0-11.8,0.2-16-1.1-23.8
						C135.7,15.6,134.5,12.7,132.6,12.6 M167.4,12.6c-1.9,0-3.2,2.9-3.7,5.9c-1.4,7.8-1.1,12-1.1,23.8c4-11.1,5.7-15,7.1-22.8
						c0.6-3.2,0.3-6.6-1.8-7C167.7,12.7,167.6,12.6,167.4,12.6 M123.8,14.5c-0.1,0-0.3,0-0.4,0.1c-2.1,0.6-2.1,3.9-1.2,7.1
						c2,7.6,4.1,11.4,9.1,22.1c-1-11.8-1.2-16-3.2-23.6C127.3,17.2,125.7,14.4,123.8,14.5 M176.2,14.5c-1.9-0.1-3.4,2.6-4.2,5.6
						c-2,7.6-2.2,11.9-3.2,23.6c5-10.7,7-14.5,9.1-22.1c0.8-3.2,0.9-6.5-1.2-7.1C176.4,14.6,176.3,14.5,176.2,14.5 M115.7,17.2
						c-0.3,0-0.5,0-0.8,0.1c-2,0.7-1.7,4.1-0.6,7.2c2.7,7.4,5,11,10.9,21.2c-2.1-11.6-2.6-15.9-5.2-23.3
						C119,19.7,117.4,17.3,115.7,17.2 M184.4,17.2c-1.8,0.1-3.3,2.5-4.3,5.2c-2.7,7.4-3.2,11.6-5.2,23.3
						c5.9-10.2,8.2-13.8,10.9-21.2c1.1-3.1,1.4-6.4-0.6-7.2C184.9,17.2,184.6,17.2,184.4,17.2 M107.3,20.5c-0.2,0-0.5,0.1-0.7,0.2
						c-2,0.9-1.4,4.2,0,7.2c3.3,7.1,6,10.5,12.7,20.2c-3.1-11.4-3.9-15.6-7.3-22.7C110.9,22.8,109.1,20.5,107.3,20.5 M192.7,20.5
						c-1.8-0.1-3.6,2.3-4.8,4.8c-3.3,7.1-4.2,11.3-7.3,22.7c6.8-9.7,9.4-13,12.7-20.2c1.4-3,2-6.3,0-7.2
						C193.1,20.6,192.9,20.5,192.7,20.5 M99.4,24.6c-0.3,0-0.5,0.1-0.7,0.3c-1.9,1.1-1,4.3,0.7,7.2c4,6.8,6.8,9.9,14.4,19
						c-4-11.1-5.3-15.2-9.2-22C103.1,26.5,101.1,24.4,99.4,24.6 M200.2,24.6c-1.6,0.1-3.5,2.1-4.8,4.4c-3.9,6.8-5.2,10.9-9.2,22
						c7.6-9.1,10.5-12.2,14.4-19c1.6-2.8,2.5-6.1,0.7-7.2C201,24.6,200.6,24.6,200.2,24.6 M92.2,29.3c-0.4,0-0.7,0.1-1.1,0.4
						c-1.8,1.3-0.6,4.4,1.3,7.1c4.5,6.5,7.6,9.3,16,17.6c-5-10.7-6.6-14.6-11.1-21.1C95.8,31.1,93.8,29.3,92.2,29.3 M207.8,29.3
						c-1.6,0-3.6,1.8-5.2,4c-4.5,6.5-6.1,10.4-11.1,21.1c8.4-8.4,11.5-11.2,16-17.6c1.9-2.7,3.1-5.9,1.3-7.1
						C208.5,29.4,208.2,29.3,207.8,29.3 M85,34.7c-0.4,0.1-0.7,0.2-1,0.5c-1.7,1.4-0.2,4.4,1.9,7c5.1,6,8.5,8.6,17.5,16.2
						c-5.9-10.2-7.8-14-12.9-20.1C88.8,36.2,86.7,34.5,85,34.7 M214.6,34.7c-1.6,0.1-3.5,1.7-5.1,3.5c-5.1,6-7,9.8-12.9,20.1
						c9.1-7.6,12.5-10.1,17.5-16.2c2.1-2.5,3.5-5.5,1.9-7C215.6,34.8,215.1,34.6,214.6,34.7 M78.8,40.6c-0.5,0-1,0.2-1.4,0.6
						c-1.5,1.5,0.2,4.4,2.5,6.8c5.6,5.6,9.2,7.8,18.9,14.6c-6.8-9.7-9-13.3-14.6-18.9C82.4,41.9,80.4,40.5,78.8,40.6 M221.2,40.6
						c-1.6-0.1-3.6,1.3-5.4,3.1c-5.6,5.6-7.8,9.2-14.6,18.9c9.7-6.8,13.3-9,18.9-14.6c2.3-2.3,4-5.2,2.5-6.8
						C222.2,40.8,221.7,40.6,221.2,40.6 M73.1,47.1c-0.7,0-1.3,0.2-1.7,0.7c-1.4,1.7,0.5,4.4,3,6.5c6,5.1,9.8,7,20.1,12.9
						c-7.6-9.1-10.1-12.4-16.2-17.5C76.6,48.2,74.6,47.1,73.1,47.1 M226.9,47.1c-1.5,0-3.5,1.2-5.2,2.6c-6,5.1-8.6,8.5-16.2,17.5
						c10.2-5.9,14-7.8,20.1-12.9c2.5-2.1,4.5-4.8,3-6.5C228.2,47.3,227.6,47,226.9,47.1 M67.6,54c-0.7,0-1.3,0.3-1.7,0.9
						c-1.2,1.8,1,4.3,3.7,6.2c6.5,4.5,10.4,6.1,21.1,11.1c-8.4-8.4-11.2-11.5-17.6-16C71.2,54.9,69.1,53.9,67.6,54 M232,54
						c-1.5,0.1-3.3,1-5,2.2c-6.5,4.5-9.3,7.6-17.6,16c10.7-5,14.6-6.6,21.1-11.1c2.7-1.9,4.9-4.4,3.7-6.2
						C233.6,54.2,232.9,54,232,54 M63.1,61.4c-0.9,0-1.6,0.3-2,1c-1.1,1.9,1.3,4.2,4.2,5.9c6.8,3.9,10.9,5.2,22,9.2
						c-9.1-7.6-12.2-10.5-19-14.4C66.5,62.1,64.6,61.3,63.1,61.4 M236.9,61.4c-1.5,0-3.4,0.7-5.2,1.7c-6.8,3.9-9.9,6.8-19,14.4
						c11.1-4,15.2-5.3,22-9.2c2.8-1.6,5.2-4,4.2-5.9C238.5,61.7,237.8,61.4,236.9,61.4 M59.8,69.1c-1.3-0.1-2.4,0.3-2.8,1.3
						c-0.9,2,1.7,4.1,4.7,5.5c7.1,3.3,11.3,4.2,22.7,7.3c-9.7-6.8-13-9.4-20.2-12.7C62.7,69.7,61.1,69.2,59.8,69.1 M240.2,69.1
						c-1.3,0.1-2.9,0.6-4.4,1.3c-7.2,3.3-10.5,6-20.2,12.7c11.4-3,15.6-3.9,22.7-7.3c3-1.4,5.6-3.5,4.7-5.5
						C242.6,69.4,241.5,69.1,240.2,69.1 M56.2,77.2c-1.3,0-2.3,0.5-2.7,1.5c-0.7,2.1,2,3.9,5.1,5.1c7.4,2.7,11.6,3.2,23.3,5.3
						c-10.2-5.9-13.8-8.2-21.2-10.9C59.2,77.5,57.6,77.1,56.2,77.2 M243.8,77.2c-1.3,0-2.9,0.4-4.5,0.9c-7.4,2.7-11,5-21.2,10.9
						c11.7-2.1,15.9-2.6,23.3-5.3c3.1-1.1,5.8-3,5.1-5.1C246.1,77.6,245.1,77.2,243.8,77.2 M54.4,85.4c-1.8,0-3.3,0.4-3.6,1.8
						c-0.6,2.1,2.4,3.8,5.5,4.6c0.5,0.1,0.9,0.2,1.3,0.3h16.2c-6.3-3-10-4.6-15.9-6.2C56.8,85.6,55.5,85.5,54.4,85.4 M245.6,85.4
						c-1.1,0-2.3,0.2-3.5,0.5c-5.9,1.6-9.6,3.2-15.9,6.2h16.2c0.4-0.1,0.8-0.2,1.3-0.3c3.2-0.9,6.1-2.5,5.5-4.6
						C248.8,85.9,247.4,85.4,245.6,85.4"/>
				</g>
			</g>
		</g>
	</g>
</g>
</svg>
