<?xml version="1.0" encoding="utf-8"?>
<!-- Generator: Adobe Illustrator 22.1.0, SVG Export Plug-In . SVG Version: 6.00 Build 0)  -->
<svg version="1.1" xmlns="http://www.w3.org/2000/svg" xmlns:xlink="http://www.w3.org/1999/xlink" x="0px" y="0px"
	 viewBox="0 0 300 300" style="enable-background:new 0 0 300 300;" xml:space="preserve">
<style type="text/css">
	.st0{clip-path:url(#SVGID_2_);}
	.st1{clip-path:url(#SVGID_2_);fill:#C0003B;}
	.st2{clip-path:url(#SVGID_4_);fill:#C0003B;}
	.st3{clip-path:url(#SVGID_4_);fill:#347F3D;}
	.st4{clip-path:url(#SVGID_4_);}
	.st5{clip-path:url(#SVGID_6_);fill:#FFFFFF;}
	.st6{clip-path:url(#SVGID_6_);fill:#347F3D;}
	.st7{clip-path:url(#SVGID_8_);fill:#4DB63F;}
	.st8{clip-path:url(#SVGID_8_);fill:#F3D02F;}
	.st9{clip-path:url(#SVGID_8_);fill:#BC0030;}
</style>
<g id="Layer_2">
</g>
<g id="Layer_1">
	<g>
		<defs>
			<rect id="SVGID_1_" y="-0.1" width="300" height="300"/>
		</defs>
		<clipPath id="SVGID_2_">
			<use xlink:href="#SVGID_1_"  style="overflow:visible;"/>
		</clipPath>
		<g id="Layer_2_1_" class="st0">
		</g>
		<rect x="-1" y="-0.7" class="st1" width="302" height="301.4"/>
		<g class="st0">
			<g>
				<defs>
					<rect id="SVGID_3_" x="-24" y="48.5" width="348" height="203"/>
				</defs>
				<clipPath id="SVGID_4_">
					<use xlink:href="#SVGID_3_"  style="overflow:visible;"/>
				</clipPath>
				<rect x="-24" y="48.5" class="st2" width="348" height="203"/>
				<rect x="26.8" y="99.2" class="st3" width="246.5" height="101.5"/>
				<g class="st4">
					<defs>
						<rect id="SVGID_5_" x="-24" y="48.5" width="348" height="203"/>
					</defs>
					<clipPath id="SVGID_6_">
						<use xlink:href="#SVGID_5_"  style="overflow:visible;"/>
					</clipPath>
					<path class="st5" d="M162.7,116.2c18.7,0,33.8,15.1,33.8,33.8c0,18.7-15.1,33.8-33.8,33.8c-18.7,0-33.8-15.2-33.8-33.8
						C128.9,131.3,144,116.2,162.7,116.2"/>
					<path class="st6" d="M175.4,116.2c18.7,0,33.8,15.1,33.8,33.8c0,18.7-15.1,33.8-33.8,33.8c-18.7,0-33.8-15.2-33.8-33.8
						C141.5,131.3,156.7,116.2,175.4,116.2"/>
				</g>
			</g>
		</g>
		<g class="st0">
			<g>
				<defs>
					<rect id="SVGID_7_" x="-108.7" y="-0.9" width="517.4" height="301.8"/>
				</defs>
				<clipPath id="SVGID_8_">
					<use xlink:href="#SVGID_7_"  style="overflow:visible;"/>
				</clipPath>
				<rect x="-108.7" y="-0.9" class="st7" width="172.5" height="301.8"/>
				<rect x="63.8" y="-0.9" class="st8" width="172.5" height="301.8"/>
				<rect x="236.2" y="-0.9" class="st9" width="172.5" height="301.8"/>
			</g>
		</g>
	</g>
</g>
</svg>
