<?xml version="1.0" encoding="utf-8"?>
<!-- Generator: Adobe Illustrator 22.1.0, SVG Export Plug-In . SVG Version: 6.00 Build 0)  -->
<svg version="1.1" xmlns="http://www.w3.org/2000/svg" xmlns:xlink="http://www.w3.org/1999/xlink" x="0px" y="0px"
	 viewBox="0 0 300 300" style="enable-background:new 0 0 300 300;" xml:space="preserve">
<style type="text/css">
	.st0{clip-path:url(#SVGID_2_);}
	.st1{clip-path:url(#SVGID_2_);fill:#C0003B;}
	.st2{clip-path:url(#SVGID_4_);fill:#C0003B;}
	.st3{clip-path:url(#SVGID_4_);fill:#347F3D;}
	.st4{clip-path:url(#SVGID_4_);}
	.st5{clip-path:url(#SVGID_6_);fill:#FFFFFF;}
	.st6{clip-path:url(#SVGID_6_);fill:#347F3D;}
	.st7{clip-path:url(#SVGID_8_);fill:#4DB63F;}
	.st8{clip-path:url(#SVGID_8_);fill:#F3D02F;}
	.st9{clip-path:url(#SVGID_8_);fill:#BC0030;}
	.st10{clip-path:url(#SVGID_10_);fill:#BD0034;}
	.st11{clip-path:url(#SVGID_10_);fill:#FFFFFF;}
	.st12{clip-path:url(#SVGID_10_);}
	.st13{clip-path:url(#SVGID_12_);fill:#EFECEC;}
	.st14{clip-path:url(#SVGID_12_);fill:#D30038;}
	.st15{clip-path:url(#SVGID_12_);fill:#BD0034;}
	.st16{clip-path:url(#SVGID_12_);fill:#91857C;}
	.st17{clip-path:url(#SVGID_12_);fill:#CACACA;}
	.st18{clip-path:url(#SVGID_12_);fill:#CECECE;}
	.st19{clip-path:url(#SVGID_12_);}
	.st20{fill:#91857C;}
	.st21{fill:none;}
	.st22{clip-path:url(#SVGID_14_);fill:#A31E30;}
	.st23{clip-path:url(#SVGID_14_);fill:#FFFFFF;}
	.st24{clip-path:url(#SVGID_14_);fill:#3873B8;}
	.st25{clip-path:url(#SVGID_16_);fill:#22368F;}
	.st26{clip-path:url(#SVGID_16_);fill:#FFFFFF;}
	.st27{clip-path:url(#SVGID_16_);fill:#CE731E;}
	.st28{clip-path:url(#SVGID_18_);fill:#3D9635;}
	.st29{clip-path:url(#SVGID_18_);}
	.st30{clip-path:url(#SVGID_20_);fill:#F4C327;}
	.st31{clip-path:url(#SVGID_20_);fill:#3D9635;}
</style>
<g id="Layer_2">
</g>
<g id="Layer_1">
	<g>
		<defs>
			<rect id="SVGID_1_" y="-0.1" width="300" height="300"/>
		</defs>
		<clipPath id="SVGID_2_">
			<use xlink:href="#SVGID_1_"  style="overflow:visible;"/>
		</clipPath>
		<g id="Layer_2_1_" class="st0">
		</g>
		<rect x="-1" y="-0.7" class="st1" width="302" height="301.4"/>
		<g class="st0">
			<g>
				<defs>
					<rect id="SVGID_3_" x="-24" y="48.5" width="348" height="203"/>
				</defs>
				<clipPath id="SVGID_4_">
					<use xlink:href="#SVGID_3_"  style="overflow:visible;"/>
				</clipPath>
				<rect x="-24" y="48.5" class="st2" width="348" height="203"/>
				<rect x="26.8" y="99.2" class="st3" width="246.5" height="101.5"/>
				<g class="st4">
					<defs>
						<rect id="SVGID_5_" x="-24" y="48.5" width="348" height="203"/>
					</defs>
					<clipPath id="SVGID_6_">
						<use xlink:href="#SVGID_5_"  style="overflow:visible;"/>
					</clipPath>
					<path class="st5" d="M162.7,116.2c18.7,0,33.8,15.1,33.8,33.8c0,18.7-15.1,33.8-33.8,33.8c-18.7,0-33.8-15.2-33.8-33.8
						C128.9,131.3,144,116.2,162.7,116.2"/>
					<path class="st6" d="M175.4,116.2c18.7,0,33.8,15.1,33.8,33.8c0,18.7-15.1,33.8-33.8,33.8c-18.7,0-33.8-15.2-33.8-33.8
						C141.5,131.3,156.7,116.2,175.4,116.2"/>
				</g>
			</g>
		</g>
		<g class="st0">
			<g>
				<defs>
					<rect id="SVGID_7_" x="-108.7" y="-0.9" width="517.4" height="301.8"/>
				</defs>
				<clipPath id="SVGID_8_">
					<use xlink:href="#SVGID_7_"  style="overflow:visible;"/>
				</clipPath>
				<rect x="-108.7" y="-0.9" class="st7" width="172.5" height="301.8"/>
				<rect x="63.8" y="-0.9" class="st8" width="172.5" height="301.8"/>
				<rect x="236.2" y="-0.9" class="st9" width="172.5" height="301.8"/>
			</g>
		</g>
		<g class="st0">
			<g>
				<defs>
					<rect id="SVGID_9_" x="-108.9" y="-1" width="517.8" height="302"/>
				</defs>
				<clipPath id="SVGID_10_">
					<use xlink:href="#SVGID_9_"  style="overflow:visible;"/>
				</clipPath>
				<rect x="150" y="-1" class="st10" width="258.9" height="302"/>
				<rect x="-108.9" y="-1" class="st11" width="258.9" height="302"/>
				<g class="st12">
					<defs>
						<rect id="SVGID_11_" x="-108.9" y="-1" width="517.8" height="302"/>
					</defs>
					<clipPath id="SVGID_12_">
						<use xlink:href="#SVGID_11_"  style="display:none;overflow:visible;"/>
					</clipPath>
					<path class="st13" d="M71,65c0,0.5-0.5,0.9-1.2,0.9c-0.7,0-1.2-0.4-1.2-0.9c0-0.5,0.5-0.9,1.2-0.9C70.5,64.1,71,64.5,71,65
						L71,65z"/>
					<path class="st14" d="M32.7,60.7V83h22.2c0,3.7,3.7,7.4,7.4,7.4v22.2h22.2V90.4c3.7,0,7.4-3.7,7.4-7.4h22.2V60.7H92
						c0-3.7-3.7-7.4-7.4-7.4V31.1H62.3v22.2c-3.7,0-7.4,3.7-7.4,7.4H32.7z"/>
					<path class="st15" d="M33.4,61.5v20.8h22.2c0,3.7,3.7,7.4,7.4,7.4v22.2h20.8V89.6c3.7,0,7.4-3.7,7.4-7.4h22.2V61.5H91.3
						c0-3.7-3.7-7.4-7.4-7.4V31.8H63.1V54c-3.7,0-7.4,3.7-7.4,7.4H33.4z"/>
					<path class="st16" d="M34.2,62.2v19.3h22.2c0,3.7,3.7,7.4,7.4,7.4v22.2h19.3V88.9c3.7,0,7.4-3.7,7.4-7.4h22.2V62.2H90.5
						c0-3.7-3.7-7.4-7.4-7.4V32.5H63.8v22.2c-3.7,0-7.4,3.7-7.4,7.4H34.2z"/>
					<path class="st17" d="M34.9,62.9v17.8h22.2c0,3.7,3.7,7.4,7.4,7.4v22.2h17.8V88.1c3.7,0,7.4-3.7,7.4-7.4H112V62.9H89.8
						c0-3.7-3.7-7.4-7.4-7.4V33.3H64.6v22.2c-3.7,0-7.4,3.7-7.4,7.4H34.9z"/>
					<path class="st18" d="M64.7,53.7c1.3,1.3,0.2,4.5-2.4,7.1c-2.6,2.6-5.8,3.7-7.1,2.4c-1.3-1.3-0.2-4.5,2.4-7.1
						C60.3,53.4,63.4,52.4,64.7,53.7L64.7,53.7z"/>
					<path class="st16" d="M63.2,55.3c1.3,1.3,0.9,3.8-0.8,5.5c-1.7,1.7-4.2,2.1-5.5,0.8c-1.3-1.3-0.9-3.8,0.8-5.5
						S61.9,54,63.2,55.3L63.2,55.3z"/>
					<polygon class="st18" points="56.6,59.2 57.2,58.7 59.2,59.7 58.2,57.6 58.7,57.1 60.8,61.3 					"/>
					<polygon class="st18" points="59.8,56 60.3,55.5 63.4,58.7 62.9,59.2 					"/>
					<path class="st18" d="M91.6,63.1c-1.3,1.3-4.5,0.2-7.1-2.4c-2.6-2.6-3.7-5.8-2.4-7.1c1.3-1.3,4.5-0.2,7.1,2.4
						C91.9,58.7,92.9,61.8,91.6,63.1L91.6,63.1z"/>
					<path class="st16" d="M90,61.6c-1.3,1.3-3.8,0.9-5.5-0.8c-1.7-1.7-2.1-4.2-0.8-5.5c1.3-1.3,3.8-1,5.5,0.8
						C91,57.8,91.3,60.3,90,61.6L90,61.6z"/>
					<polygon class="st18" points="86.1,55 86.6,55.5 85.6,57.6 87.7,56.6 88.2,57.1 84,59.2 					"/>
					<polygon class="st18" points="89.3,58.1 89.8,58.7 86.6,61.8 86.1,61.3 					"/>
					<path class="st18" d="M82.2,90c-1.3-1.3-0.3-4.5,2.4-7.1c2.6-2.6,5.8-3.7,7.1-2.4c1.3,1.3,0.2,4.5-2.4,7.1
						C86.6,90.2,83.5,91.3,82.2,90L82.2,90z"/>
					<path class="st16" d="M83.8,88.4c-1.3-1.3-0.9-3.8,0.8-5.5c1.7-1.7,4.2-2.1,5.5-0.8c1.3,1.3,1,3.8-0.8,5.5
						C87.5,89.4,85.1,89.7,83.8,88.4L83.8,88.4z"/>
					<polygon class="st18" points="90.3,84.5 89.8,85 87.7,84 88.7,86 88.2,86.6 86.1,82.4 					"/>
					
						<rect x="84.9" y="84.1" transform="matrix(0.7024 -0.7118 0.7118 0.7024 -36.0468 86.4133)" class="st18" width="0.7" height="4.5"/>
					<path class="st18" d="M55.3,80.5c1.3-1.3,4.5-0.2,7.1,2.4c2.6,2.6,3.7,5.8,2.4,7.1c-1.3,1.3-4.5,0.2-7.1-2.4
						C55.1,85,54,81.9,55.3,80.5L55.3,80.5z"/>
					<path class="st16" d="M56.9,82.1c1.3-1.3,3.8-1,5.5,0.8c1.7,1.7,2.1,4.2,0.8,5.5c-1.3,1.3-3.8,1-5.5-0.8
						C55.9,85.9,55.6,83.4,56.9,82.1L56.9,82.1z"/>
					<polygon class="st18" points="60.8,88.7 60.3,88.2 61.3,86 59.2,87.1 58.7,86.6 62.9,84.5 					"/>
					<polygon class="st18" points="57.7,85.5 57.2,85 60.3,81.9 60.8,82.4 					"/>
					<g class="st19">
						<path class="st20" d="M73.5,87.5c-8.7,0-15.7-7-15.7-15.7c0-8.7,7-15.7,15.7-15.7c4.2,0,8.1,1.6,11.1,4.6
							c3,3,4.6,6.9,4.6,11.1c0,4.2-1.6,8.1-4.6,11.1C81.6,85.9,77.7,87.5,73.5,87.5L73.5,87.5z M73.5,56.4C65,56.4,58,63.3,58,71.8
							S65,87.3,73.5,87.3c4.1,0,8-1.6,10.9-4.5c2.9-2.9,4.5-6.8,4.5-10.9c0-4.1-1.6-8-4.5-10.9C81.5,58,77.6,56.4,73.5,56.4
							L73.5,56.4z"/>
					</g>
					<g class="st19">
						<path class="st20" d="M73.5,83.8c-6.6,0-12-5.4-12-12c0-6.6,5.4-12,12-12c6.6,0,12,5.4,12,12C85.5,78.5,80.1,83.8,73.5,83.8
							L73.5,83.8z M73.5,60.1c-6.5,0-11.7,5.3-11.7,11.7c0,6.5,5.3,11.7,11.7,11.7c6.5,0,11.7-5.3,11.7-11.7
							C85.2,65.4,79.9,60.1,73.5,60.1L73.5,60.1z"/>
					</g>
					<path class="st19" d="M68.3,84.4c0,0.3-0.1,0.5-0.4,0.6c-0.2,0.1-0.5,0.1-0.7,0c-0.2-0.1-0.4-0.4-0.4-0.6
						c0-0.3,0.1-0.5,0.4-0.6c0.2-0.1,0.5-0.1,0.7,0C68.1,83.9,68.3,84.2,68.3,84.4L68.3,84.4z"/>
					<path class="st19" d="M80.1,84.4c0,0.3-0.1,0.5-0.4,0.6c-0.2,0.1-0.5,0.1-0.7,0c-0.2-0.1-0.4-0.4-0.4-0.6
						c0-0.3,0.1-0.5,0.4-0.6c0.2-0.1,0.5-0.1,0.7,0C80,83.9,80.1,84.2,80.1,84.4L80.1,84.4z"/>
					<path class="st19" d="M73,84.4v0.8h-1c-1,0-1,0.8,0,0.8h1v0.8c0,0.8,0.9,0.9,0.9,0.1L74,86h1c1,0,1-0.8,0-0.8h-1v-0.8
						C74,83.7,73,83.7,73,84.4L73,84.4z"/>
					<path class="st16" d="M81.9,74.1c0.3-0.1,0.7,0,0.7,0s0,0.2-0.1,0.2c0.1,0.1,0.6,0,0.6,0s-0.2,0.1-0.3,0.2
						c0.2,0,0.4,0.2,0.4,0.2s-0.4,0.1-0.5,0c0.1,0.2,0.1,0.4,0.1,0.4s-0.6-0.2-0.8-0.6L81.9,74.1z"/>
					<g class="st19">
						<path class="st21" d="M81.9,74.1c0.3-0.1,0.7,0,0.7,0s0,0.2-0.1,0.2c0.1,0.1,0.6,0,0.6,0s-0.2,0.1-0.3,0.2
							c0.2,0,0.4,0.2,0.4,0.2s-0.4,0.1-0.5,0c0.1,0.2,0.1,0.4,0.1,0.4s-0.6-0.2-0.8-0.6L81.9,74.1z"/>
					</g>
					<path class="st16" d="M80.9,73.8c-0.1,0.4-1.2-0.3-1.2-0.3s0.5,0.8,1.2,0.8L80.9,73.8z"/>
					<g class="st19">
						<path class="st21" d="M80.9,73.8c-0.1,0.4-1.2-0.3-1.2-0.3s0.5,0.8,1.2,0.8L80.9,73.8z"/>
					</g>
					<polygon class="st16" points="67.4,80.7 80.1,80.7 81.1,79.9 79.4,79 76.9,78.2 75.9,77.6 74,77.7 72.5,78.6 70.4,78.8 
						69.9,79.4 68.3,79.5 65.8,79.5 69.9,80.1 66.5,79.9 					"/>
					<g class="st19">
						<path d="M80.1,80.8H67.4L66.5,80l3.5,0.1l-4.2-0.5l4.1-0.2l0.4-0.6l2.2-0.3l1.5-0.8l1.9-0.1l1,0.6l4.1,1.7L80.1,80.8
							L80.1,80.8z M66.5,80l0.9,0.6l12.6,0l1-0.8l-5.1-2.2l-1.8,0.1l-1.5,0.8l-2.2,0.3l-0.5,0.6l-1.6,0.1l-2.5,0l4.1,0.5L66.5,80
							L66.5,80z"/>
					</g>
					<path class="st16" d="M74.2,77.1c-1.6-0.9-2.1,1.2-2.7,1.8c0.9,0.2,1.6-0.7,2.4-1.1c0.6,1.6,1.5,0.6,1.5,0.6s1,1.6,2.3,0.9
						c0.4,0.3,0.7,0,0.7,0s0.5,0.1,0.6-0.1c0.2,0.1,0.5-0.2,0.5-0.2s0.5,0,0.7-0.3c0.8,0.1,1.9-1.7,1.9-1.7l0.3-0.6l0.5-0.1
						c0,0,0-0.3-0.2-0.3c0-0.2-0.2-0.3-0.4-0.2c0-0.1-0.1-0.2-0.1-0.2c-0.5,0.1-0.5,1.2-0.5,1.2s-0.8,0.6-1.1,0.7
						c0-0.6-1.1-1.5-0.9-1.9c0.2-0.4,0.9,0.6,1.5,0.5c0.6-0.2,0.9-1,1-1.6c-0.2-0.4-0.6-1.1-0.6-1.1l-0.4,0l-0.3-0.9
						c0,0-0.7,0.5-0.7,0.9c0,0.4,0.8,0.8,0.8,0.8s-0.4,0.3-0.9,0.2c0,0.4,0.5,0.3,0.7,0.4c0.1,0.3,0.4,0.5,0.4,0.5s0.2,0.5-0.3,0.4
						c-0.5,0-1.1-1.2-1.8-0.7c-0.7,0.6,0.3,1.6,0.3,1.6s-0.6,0.3-1,1.2C76.9,76.1,76,76.7,74.2,77.1L74.2,77.1z"/>
					<g class="st19">
						<path d="M77.1,79.3c-0.9,0-1.5-0.9-1.6-1c0,0.2-1.1,0.6-1.6-0.6c-0.1,0.2-0.4,0.3-0.6,0.5c-0.5,0.3-1,0.7-1.5,0.7
							c0,0,0,0,0-0.1c0.6-0.1,1-0.4,1.5-0.7c0.2-0.2,0.5-0.3,0.7-0.5c0.6,1.2,1.5,0.6,1.5,0.6c0.1,0,1.2,1.4,2.3,0.8l0,0l0.8,0
							l0.7-0.1c0.5-0.2,0.9-0.2,1-0.5c0.9,0,1.9-1.7,1.9-1.7l0.3-0.6l-0.1,0l0-0.7c-0.4-0.1-0.5,0.8-0.5,1.1c0,0.1-0.8,0.7-1.1,0.8
							c-0.1-0.3-0.3-0.7-0.6-1c-0.3-0.4-0.5-0.8-0.4-1l0.7,0.1c0.2,0.1,0.5,0.3,0.7,0.3c0.7-0.2,1-1,1.1-1.6c-0.1-0.3-0.5-0.8-0.6-1
							c0.3,0.2,0.5,0.7,0.7,1c0,0.7-0.4,1.5-1,1.7c-0.5,0-0.7-0.2-1-0.3c-0.6,0-0.4,0.4-0.1,0.7c0.3,0.4,0.5,0.7,0.5,1
							c0.2-0.2,1-0.8,1-0.8c0-0.1,0-1.1,0.5-1.3l0.5,0.5l-0.5,1.1c0,0.1-1,1.7-1.8,1.7c-0.2,0.3-0.7,0.3-0.7,0.3l-0.9,0.4l-1-0.1
							l0,0.1C77.5,79.3,77.3,79.3,77.1,79.3L77.1,79.3z M71.7,78.7c0-0.2,0.2-0.4,0.3-0.7c0.5-0.8,1.2-1.6,2.2-1l0.8-0.2
							c1.3-0.3,2.2-0.4,3.4,0.6c0.3-0.8,0.8-1.1,0.9-1.2l0,0c-0.1,0-0.6-0.5-0.6-1.1l0.7-0.6c0.3,0,0.6,0.2,0.9,0.4
							c0.2,0.2,0.4,0.3,0.5,0.3c0.2-0.3,0-0.5-0.1-0.8l0.5,0.4l-0.4,0.5c-0.2,0-0.4-0.2-0.6-0.4c-0.2-0.2-0.5-0.4-0.8-0.4L79,75.1
							c0,0.5,0.6,1,0.6,1c0,0.1-0.6,0.4-1,1.3c-1.3-0.9-2.1-0.8-3.4-0.5l-0.9,0.2c-1.2-0.6-1.7,0.3-2.1,1
							C72,78.3,71.8,78.5,71.7,78.7L71.7,78.7z M80.5,74.1l0.4-0.2c-0.2-0.1-0.8-0.4-0.8-0.8c0-0.5,0.7-1,0.8-1l0.1,0.3l-0.1-0.2
							c-0.1,0.2-0.6,0.6-0.6,0.9c0,0.3,0.5,0.6,0.7,0.7c0,0,0,0.1,0,0.1l0,0c0,0,0,0,0,0C80.8,74,80.7,74.1,80.5,74.1L80.5,74.1z"/>
					</g>
					<path class="st16" d="M71.9,74.8c0.7,0.6,0.2,1.6,0.4,1.8c0.3,0.2,0.7-0.1,0.7-0.1c0.7,0.2,1.9-0.2,1.9-0.2
						c0.5,0.3,0.3-0.1,0.6-0.1c0.3,0.7,1.3,0.6,1.3,0.6s-0.9-0.9-1.4-1.2c-0.4,0.3-1.6,0.3-1.9,0.3c-0.2,0-0.1-0.3-0.2-0.5
						c0.5-0.4,0.1-1.5-0.2-1.9C72.2,72.8,71,74,71.9,74.8L71.9,74.8z"/>
					<g class="st19">
						<path d="M76.7,76.9c-0.3,0-0.9-0.1-1.1-0.6c-0.6,0.2-1.4,0.4-2.1,0.4l-0.9,0.1l-0.4-0.7c0-0.4,0-0.9-0.3-1.3
							c-0.3-0.3-0.4-0.7-0.3-1c0.2-0.6,1-0.8,1.6-0.4c0.3,0.5,0.6,1.6,0.2,2c0.9,0.4,1.7,0.3,2,0.1c0.6,0.3,1.5,1.1,1.5,1.2
							L76.7,76.9L76.7,76.9z M75.6,76.2c0.3,0.5,0.8,0.6,1.1,0.6v0.1l0.1-0.1c-0.1,0-0.9-0.8-1.4-1C75.1,76,74.2,76,73.8,76
							l-0.5-0.6c0.4-0.4,0.1-1.5-0.2-1.8c-0.5-0.3-1.2-0.1-1.4,0.4c-0.1,0.3,0,0.6,0.3,0.9c0.4,0.4,0.4,1,0.4,1.4l0.2,0.6l0.4-0.2
							c1.1,0,1.9-0.2,1.9-0.2L75.6,76.2L75.6,76.2z"/>
					</g>
					<path class="st16" d="M67.6,73c-0.8,0.2-2.2-1.1-2.9-0.6c-0.7,0.5-0.4,1.7,0.1,2.3c0.4,0.6-0.6,0.8-0.9,1.2
						c-0.3,0.3,0.1,0.7,0.1,0.7l0.3,0.2l-0.1,0.4l0.2,0.5c0,0,0.1,0.1,0.2,0c0.1,0.1,0,0.5,0.4,0.6c-0.1-0.3,0.1-1,0.1-1
						s0.6,0,0.8-0.2c0.1-0.3-0.1-0.8-0.1-0.8h0.2c-0.2-0.1-0.3-0.5-0.3-0.5s0.8-0.3,0.8-0.9c0-0.6-1.3-1.3-0.9-1.6
						c0.5-0.4,1.5,0.9,2.3,0.3c0.8-0.6,0.3,0,0.3,0S68.4,72.8,67.6,73L67.6,73z"/>
					<g class="st19">
						<path d="M65,78.4l-0.2,0l-0.7-1.1l0-0.1l0,0.1l0.1,0l0.5,0.9c0-0.3,0.1-0.7,0.1-0.8c0.5,0,0.7-0.1,0.8-0.2
							c0.1-0.2-0.1-0.6-0.1-0.8l0-0.6c0,0,0.8-0.3,0.8-0.8c0-0.3-0.3-0.6-0.5-0.8c-0.2-0.2-0.5-0.5-0.4-0.7c0.1-0.1,0.3-0.1,0.4-0.1
							c-0.3,0.3-0.1,0.5,0.1,0.7c0.3,0.3,0.6,0.6,0.6,0.9c0,0.7-0.8,0.9-0.9,1c0.2,0.5,0.4,1.1,0.3,1.3c-0.1,0.2-0.5,0.2-0.7,0.2
							c-0.1,0.1-0.2,0.7-0.1,0.9L65,78.4L65,78.4z M64.1,76.7l-0.1,0c-0.2-0.2-0.4-0.5-0.1-0.8c0.7-0.5,1-0.6,1-0.8
							c-0.3-0.6-0.5-1.1-0.6-1.5c-0.1-0.5,0.1-0.9,0.4-1.2c0.8-0.1,1.2,0.1,1.6,0.2c0.4,0.2,0.8,0.4,1.2,0.4l0.7,0L68,73.3l-0.6-0.2
							c-0.4,0-0.8-0.2-1.2-0.4c-0.4-0.2-0.8-0.3-1.1-0.3c-0.7,0.4-0.7,0.8-0.7,1.1c0,0.4,0.2,0.8,0.5,1.2c0.1,0.6-0.2,0.8-0.5,0.9
							c-0.7,0.6-0.4,0.9-0.3,0.9L64.1,76.7L64.1,76.7z"/>
					</g>
					<path class="st16" d="M71.8,64.2c-1.1-0.5-3.3-0.5-4.6-1.1c-0.6,0-0.8,0.5-0.8,0.6c-0.6,0-1,0.9-0.9,1.1
						c-1-0.4-1.5,1.2-1.2,1.6c-0.9,0-0.8,1.2-0.9,1.5c-0.3,0.7,0.1,0.9,0.6,0.7c0.1,0.3,0,0.5-0.3,0.5c1.5,1.8,2.4-1.1,3.8-1.1
						c1.7-0.5,2.4-1.3,2.4-1.3l0.7,0.1L71.8,64.2z"/>
					<g class="st19">
						<path d="M64.8,69.7c-0.3,0-0.7-0.2-1-0.6l-0.4-0.6c-0.1-0.1-0.1-0.4,0.1-0.7c0.1-0.7,0.1-1.5,0.9-1.5c-0.2-0.1-0.2-0.5,0-0.9
							c0.2-0.5,0.5-0.8,0.9-0.7c0.2,0,0.3-0.3,0.4-0.5c0.1-0.2,0.4-0.5,0.7-0.5c0-0.1,0.3-0.6,0.9-0.6c0.7,0.3,1.7,0.5,2.6,0.7
							c0.8,0.1,1.5,0.2,2,0.4l-1.2,2.6L70,66.7c0,0-0.6,0.8-2.3,1.3c-0.5,0-1,0.4-1.4,0.8C65.8,69.3,65.4,69.7,64.8,69.7L64.8,69.7z
							 M63.6,68.4l0.6,0.1l-0.3,0.6c0.9,0.7,1.6,0.3,2.3-0.3c0.5-0.4,0.9-0.9,1.5-0.9c1.6-0.5,2.3-1.3,2.3-1.3l0.7,0.1l1.1-2.5
							c-0.4-0.1-1.2-0.2-1.9-0.4c-0.9-0.2-1.9-0.3-2.6-0.7c-0.5,0-0.7,0.4-0.7,0.6c-0.4,0-0.6,0.4-0.7,0.5l0.1,0.1l-0.3,0.5
							c-0.6-0.1-0.9,0.2-1.1,0.6c-0.1,0.4-0.2,0.7,0,0.9c-0.7,0.1-0.8,0.8-0.8,1.3L63.6,68.4L63.6,68.4L63.6,68.4z"/>
					</g>
					<path class="st16" d="M74.9,62.9c0,0.9-0.7,1.6-1.6,1.6c-0.9,0-1.6-0.7-1.6-1.6c0-0.9,0.7-1.6,1.6-1.6
						C74.2,61.3,74.9,62.1,74.9,62.9L74.9,62.9z"/>
					<g class="st19">
						<path d="M73.3,64.6c-0.9,0-1.7-0.8-1.7-1.7c0-1.9,3.4-1.9,3.4,0C74.9,63.9,74.2,64.6,73.3,64.6L73.3,64.6z M73.3,61.4
							c-0.9,0-1.5,0.7-1.5,1.6c0,1.7,3.1,1.7,3.1,0C74.8,62.1,74.1,61.4,73.3,61.4L73.3,61.4z"/>
					</g>
					<path class="st16" d="M70.4,75.7c-1-0.2-2.7-1.2-2.8-2.6c0.9-3.7,5.8-1.7,6.2-4.5C73.6,66.8,74,65,75,63.4
						c0.5-0.6,1.1-0.7,1.1-0.7s0.1,0.4,0,0.7c0.8-0.1,1.9,0.4,2.6,0.4c0.2,0.4,0.2,0.6,0.1,0.9c0,0.3-0.4,0.2-0.4,0.2
						c-0.2,0.2-0.4,0.4-0.9,0.3c-0.4,0.3-1.2,0.4-1.2,0.4s1.7,1.8,1.4,2.4c0.4,0.2,0.9,1,0.9,1s1.2-0.6,1.6-1.2
						c0.7,0,1.8,0.7,2.4,0.8c0.7,0.6,1.4,1.1,1.4,1.1s-0.8,0.5-1.2-0.2c-0.4,0-1.4-1-2.7-0.7c0,1.1-1.3,1.9-1.3,1.9s1.2-0.2,1.8,0.2
						c0.7,0.6,1.7,1.3,1.7,1.3l0.9,1.5c0,0-0.8,0.1-1.1-0.9c-0.3,0.8-0.3-0.5-1.5-1.2c-0.4,0.1-0.5,0.1-0.9-0.2
						c-0.8,0.2-1.9,0.7-3.1,0.6c-0.9,0.3-1.5,1-2.4,1.4c-0.9,0.4-1.1,0.2-1.1,0.2l-0.7,0c-0.1,0.4,0,1.1-0.4,1.2
						c0.2,0.3-0.2,1.4-0.6,1.6c0.2,0.7,0.8,0.9,1.4,1.3c0,0,0.5-0.3,0.9,0.1c0.4,0.3,0.7,1.2,0.7,1.2s-0.7,0.1-1,0
						c-0.2-0.1-0.3-0.3-0.5-0.3c-1.7-1.5-2.6-0.9-2.8-1.3C70,77.2,70.6,76.3,70.4,75.7L70.4,75.7z"/>
					<g class="st19">
						<path d="M74,79.2l-0.6-0.1c-1.7-1.3-2.4-1.4-2.9-1.4c-0.1-0.1-0.2-0.1-0.3-0.2c0.8,0.1,1.5,0.2,2.7,1.2L74,79.2l0.4-0.1
							c-0.1,0-0.3-0.6-0.6-0.9c0.4,0.5,0.6,1,0.7,1L74,79.2L74,79.2z M73.7,77.9l-0.9-0.1c-0.8-0.4-1.3-0.7-1.4-1.3
							c0.3-0.2,0.6-0.7,0.6-1.1c0,0,0,0,0,0c-0.1,0.7-0.3,1.1-0.6,1.2c0.2,0.5,0.6,0.8,1.1,1l0.7,0.1C73.4,77.7,73.6,77.8,73.7,77.9
							L73.7,77.9L73.7,77.9z M70.2,77.4c-0.1-0.2-0.1-0.4,0-0.6c0.1-0.4,0.2-0.8,0.1-1c-1-0.2-2.7-1.2-2.8-2.6
							c0.5-2,2.2-2.4,3.6-2.7c1.3-0.3,2.4-0.6,2.6-1.8c-0.1-2,0.3-3.8,1.2-5.2c0.5-0.6,1.1-0.8,1.1-0.8c0.1,0,0.1,0.2,0.1,0.4
							l-0.1-0.4l0,0.1c0,0-0.6,0.1-1,0.7c-0.9,1.4-1.3,3.1-1.2,5.1c-0.2,1.4-1.4,1.6-2.7,1.9c-1.4,0.3-3,0.7-3.5,2.6
							c0.2,1.3,1.7,2.3,2.8,2.5c0.2,0.4,0,0.8-0.1,1.2C70.3,77,70.2,77.2,70.2,77.4L70.2,77.4z M73.4,73.8l-0.5,0l0.3-0.2
							c0.4,0.1,0.7,0,1.1-0.2c0.4-0.2,0.7-0.4,1.1-0.6c0.4-0.3,0.8-0.6,1.3-0.7c1.2,0,1.9-0.2,2.5-0.4l0.7-0.2l0.9,0.2
							c0.5,0.3,0.8,0.6,1,0.9c-0.3-0.3-0.6-0.6-1-0.8l-0.8-0.2l0,0.1l-0.6,0.2c-0.6,0.2-1.3,0.4-2.1,0.4c-0.9,0.1-1.2,0.4-1.7,0.7
							c-0.3,0.2-0.7,0.5-1.1,0.7C73.9,73.7,73.6,73.8,73.4,73.8L73.4,73.8z M83,73.7c-0.3,0-0.6-0.1-0.8-0.4
							C82.6,73.6,82.9,73.7,83,73.7l-0.7-1.5l0,0c0,0-1-0.8-1.6-1.3c-0.3-0.2-0.8-0.2-1.2-0.2c0,0-0.1,0-0.1,0
							c0.6-0.1,1.1,0,1.4,0.2c0.7,0.6,1.7,1.3,1.7,1.3l0.9,1.5C83.2,73.7,83.1,73.7,83,73.7L83,73.7z M79.3,70.4
							c0.2-0.3,0.7-0.9,0.8-1.7c1.2-0.1,1.7,0.2,2.1,0.4l0.6,0.3l0-0.1l0.6,0.4l-0.8-1.2c-0.2,0-0.6-0.2-0.9-0.3
							c-0.5-0.2-1-0.4-1.4-0.4c-0.3,0.6-1.5,1.2-1.6,1.2c-0.1,0-0.6-0.8-1-1c0.2-0.5-1-1.9-1.5-2.4c0.1-0.1,0.9-0.2,1.2-0.5
							c0.6,0.1,0.8-0.1,0.9-0.3c0.4-0.4,0.4-0.6,0.2-1c-0.2,0.1-0.6-0.1-1-0.2c-0.5-0.1-0.9-0.2-1.3-0.2l0,0c0.5-0.1,1,0,1.4,0.1
							c0.4,0.1,0.7,0.2,1,0.2c0.3,0.5,0.3,0.7,0.2,1c-0.6,0.4-0.8,0.6-1.1,0.6c-0.6,0.3-1.5,0.3-1.5,0.4c0.2,0.1,1.8,1.8,1.5,2.4
							c0.3,0.1,0.8,0.8,0.9,0.9c0-0.1,1.1-0.7,1.5-1.2c0.4,0,1,0.2,1.5,0.4c0.4,0.2,0.7,0.3,1,0.3l1.4,1.1c0,0.2-1,0.5-1.3-0.1
							c-0.1,0.1-0.3-0.1-0.6-0.2c-0.4-0.2-0.9-0.5-1.5-0.5C80.3,69.5,79.7,70.1,79.3,70.4L79.3,70.4z"/>
					</g>
					<path class="st16" d="M66.3,68.9c0.1-0.1,0.7,0.1,0.7,0.1l1.1,0.7l2.3,1.5l0.8,1.2L69.8,72l-2-1.8l-1.1-0.7
						C66.7,69.5,66.2,69.1,66.3,68.9L66.3,68.9z"/>
					<g class="st19">
						<path d="M71.5,72.6L69.8,72l-3.2-2.5c-0.2-0.2-0.5-0.5-0.4-0.7c0.3,0,0.8,0.1,0.8,0.1l3.5,2.2L71.5,72.6L71.5,72.6z
							 M66.4,68.9L66.4,68.9l3.4,3l1.3,0.4l-0.7-1L66.4,68.9L66.4,68.9z"/>
					</g>
					<path class="st16" d="M80,72.7c-0.8-0.2-2.8,2.2-2.8,2.2l1.5,1.6C78.7,76.5,78.7,73.8,80,72.7L80,72.7z"/>
					<g class="st19">
						<path d="M78.8,76.7l-1.6-1.7c0.1-0.2,1.8-2.3,2.7-2.3c0,0,0,0,0,0c-0.9,0.2-2.5,2.2-2.6,2.2l1.4,1.4c0-0.5,0.2-2.2,0.9-3.2
							c-0.7,1.3-0.8,3.3-0.8,3.4V76.7L78.8,76.7z"/>
					</g>
					<path class="st16" d="M70.3,66.1c-0.4,0.6-0.5,1.7,0.1,2.1c0,0.7,0.6,2.1,1.1,2.2c0.5,0.1,2.5,0.6,3.3,0.5
						c-0.1,1.3,0.8,2.3,1.7,2.9c0,0.1,0,0.3,0.1,0.4c0.1,0.1,0.6,0.2,0.6,0.1c0.2,0.3,1.2,0.4,1.3,0.3c0.1-0.1-1.5-1.2-1.9-1.6
						c-0.3-0.6-0.9-1.8-1-2.8c-0.8-0.9-2.1-0.9-2.1-0.9l0-1.8l0.1-2.1L72.9,65c0,0,0.2-0.1,0.2-0.2c0.2,0.1,0.5-0.3,0.5-0.4
						c0.2,0.1,0.3,0.1,0.4,0c0-0.1,0.1-0.4,0.1-0.6c0.5-0.5-0.1-1.5-0.9-1.5c-0.8,0-1,1-1,1.1c0.1,0.3,0.1,0.5,0,0.6
						c-0.1,0.1-0.4,0.3-0.4,0.3s-0.5-0.2-1,0c-0.6,0.2-1.2,0.5-1.2,0.9c-0.3,0-0.7,0.4-0.8,0.7c-0.2,0-0.5,0.1-1,0.9
						c-0.9,0.4-0.9,2.2-0.9,2.2s-0.2,0.3-0.3,0.5c0,0.2,0.1,0.3,0.2,0.3c0,0.1,0.2,0.2,0.2,0.2c0,0.1,0.2,0.2,0.3,0.2
						c0,0.1,0.3,0.1,0.4,0c0-0.1,0-0.5,0-0.5c0,0,0.3,0.2,0.4,0.1c0.1-0.1,0-0.2-0.1-0.3c0-0.1-0.3-0.1-0.3-0.4
						c-0.1-0.3,0.1-0.7,0.1-0.7s0.9-0.7,1-1.4C69.7,66.9,70.1,66.3,70.3,66.1L70.3,66.1z"/>
					<g class="st19">
						<path d="M78.3,74.7c-0.3,0-0.9-0.1-1.1-0.4l0,0c0.4,0.1,0.9,0.3,1.1,0.3V74.7l0.2-0.2c0-0.1-0.7-0.6-1.1-0.9
							c-0.3-0.3-0.6-0.5-0.8-0.6c-0.1-0.2-0.9-1.6-1-2.8c-0.7-0.8-2-0.9-2.1-0.9l0-1.9l0.1-2.1l-0.7-0.3l0-0.1l1.2-1.2
							c0.2-0.2,0.2-0.4,0.1-0.7c-0.1-0.4-0.5-0.7-1-0.7l0,0c-0.3,0-0.5,0.1-0.6,0.3c-0.3,0.3-0.3,0.7-0.3,0.7l0,0l-0.4,0.9l-1-0.1
							l0,0.1c-0.5,0.2-1.2,0.5-1.2,0.8c-0.3,0.1-0.7,0.4-0.8,0.7c-0.3,0-0.6,0.3-1,0.9C67,67.1,67,68.9,67,68.9l-0.1,0.3l0-0.3
							l-0.1,0c0-0.1,0.1-1.9,0.9-2.3c0.4-0.6,0.7-0.9,1-0.9c0.1-0.3,0.5-0.6,0.8-0.6c0-0.3,0.6-0.7,1.2-0.9l1.1,0.1l0-0.1l0.3-0.7
							c0-0.1,0.1-0.5,0.3-0.8c0.2-0.2,0.5-0.4,0.8-0.4c0.6,0,1,0.4,1.1,0.8c0.1,0.3,0.1,0.6-0.2,0.8l-0.3,0.7
							c-0.2,0-0.5,0.4-0.7,0.4l0.5,0.4l-0.1,3.9c0.1-0.1,1.3,0,2.1,0.9c0.2,1.2,0.9,2.7,1,2.8c0.1,0.1,0.4,0.3,0.7,0.6
							c1,0.8,1.2,0.9,1.1,1.1L78.3,74.7L78.3,74.7z M74.2,70.9c-1.1,0-2.4-0.3-2.8-0.4c-0.5-0.1-1.1-1.5-1.1-2.2
							c-0.5-0.4-0.5-1.2-0.3-1.8c-0.2,0.3-0.5,0.5-0.9,0.5c-0.2,0.6-1.1,1.3-1.1,1.3c0,0-0.2,0.4-0.1,0.6l0.4,0.8l-0.7,0.5l-0.7-0.5
							l0.5,0.3l0.4-0.5c-0.1-0.9,0.1-1.3,0.1-1.3c0,0,0.9-0.8,1-1.4c0.7,0,1-0.4,1.2-0.7c0,0,0,0,0,0.1c0-0.1,0.1-0.1,0.1-0.2
							c0,0.1-0.1,0.2-0.2,0.3c-0.2,0.6-0.1,1.4,0.3,1.8c0.1,0.8,0.7,2.1,1.1,2.2c0.5,0.1,2,0.5,2.9,0.5c0,0,0,0,0,0.1
							C74.4,70.9,74.3,70.9,74.2,70.9L74.2,70.9z"/>
					</g>
					<path class="st16" d="M68.6,63.4c0.2-0.5,1-0.5,1-0.5s0.3-0.7,1.3-0.3c0.4-0.3,1.4,0.1,1.4,0.1s0.4-0.5,0.9-0.5
						c0.9,0.1,1.1,1,1,1.1c-0.5,0.1-1.4-0.4-2.1-0.3c-0.4,0.2-1,0.5-1.3,0.8C70.3,64,69.6,63.4,68.6,63.4L68.6,63.4z"/>
					<g class="st19">
						<path d="M70.9,64c-0.3,0-0.5-0.1-0.9-0.2c-0.4-0.2-0.8-0.3-1.3-0.3c0,0,0,0,0,0c0.5-0.1,0.9,0.1,1.3,0.2
							c0.3,0.1,0.6,0.2,0.8,0.2V64l0.1-0.1c0.1-0.2,0.5-0.4,0.9-0.6l0.7-0.2c0.3,0,0.6,0.1,0.9,0.2c0.3,0.1,0.5,0.1,0.7,0.1
							c-0.1-0.7-0.4-1-0.9-1c-0.6,0.1-0.8,0.4-0.8,0.4c-0.1,0-0.6-0.2-1.1-0.2l-1,0c-0.5,0-0.7,0.4-0.7,0.4c-0.3,0-0.8,0.1-1,0.4
							c0.1-0.5,0.7-0.5,0.9-0.5l0,0c0,0,0.5-0.7,1.4-0.3c0.8-0.1,1.4,0.1,1.4,0.1c0,0,0.3-0.5,0.8-0.5c0.6,0.1,0.9,0.4,1,0.6
							l0.1,0.6c-0.5,0.1-0.7,0-1-0.1c-0.3-0.1-0.6-0.2-0.9-0.2l-0.6,0.2c-0.3,0.2-0.7,0.4-0.9,0.6L70.9,64L70.9,64z"/>
					</g>
					<path class="st16" d="M70.6,64.3c0.2-0.1,0.8-0.4,1.2-0.1c0.4,0.4,1,0.8,1,0.8l0.7,0.3l0.3,0.2l-0.2,3.3
						c-0.7-0.7-1.3-0.8-1.8-1.6c-0.3-0.3-0.1-1.2-0.5-1.7C71,65,70.5,64.6,70.6,64.3L70.6,64.3z"/>
					<g class="st19">
						<path d="M73.7,69l-0.1-0.1c-0.3-0.3-0.5-0.4-0.8-0.6c-0.4-0.3-0.7-0.5-1-1c-0.1-0.1-0.1-0.4-0.2-0.7c0-0.3-0.1-0.7-0.3-1
							c-0.7-0.7-0.9-1-0.8-1.3c0.1-0.1,0.4-0.3,0.8-0.3c0.1,0.1,0.3,0.2,0.4,0.2c-0.7-0.1-0.9,0-1.1,0.1c0,0.2,0.2,0.4,0.5,0.7
							c0.6,0.7,0.7,1.1,0.7,1.5c0,0.3,0,0.5,0.2,0.6c0.3,0.5,0.6,0.7,1,1c0.2,0.1,0.4,0.3,0.7,0.5l0.1-1l0,1.2L73.7,69L73.7,69z"/>
					</g>
					<path class="st16" d="M72.3,65.2c0,0,0.4-0.1,0.5,0c0.1,0,0.3,0.1,0.3,0.2c0.1,0,0.2,0.1,0.2,0.2c0.1,0,0.2,0.3,0.2,0.3
						l-0.1,0.2c0,0-0.1-0.1-0.2-0.3c-0.1,0-0.3-0.1-0.3-0.2c-0.2,0-0.3-0.1-0.3-0.2C72.5,65.4,72.3,65.2,72.3,65.2L72.3,65.2z"/>
					<g class="st19">
						<path class="st21" d="M72.3,65.2c0,0,0.4-0.1,0.5,0c0.1,0,0.3,0.1,0.3,0.2c0.1,0,0.2,0.1,0.2,0.2c0.1,0,0.2,0.3,0.2,0.3
							l-0.1,0.2c0,0-0.1-0.1-0.2-0.3c-0.1,0-0.3-0.1-0.3-0.2c-0.2,0-0.3-0.1-0.3-0.2C72.5,65.4,72.3,65.2,72.3,65.2z"/>
					</g>
					<path class="st16" d="M75.5,63.1c-0.2-0.2-0.6-0.1-0.6-0.1l-1,1.7l-0.4,0.4l0,1.3l0.4,1.3l-0.1,1c0,0,0.5-0.5,0.6-0.7
						c0.1-0.3-0.2-1.1-0.2-1.1s-0.3-0.5,0.1-1.5C74.4,64.5,75.3,63.7,75.5,63.1L75.5,63.1z"/>
					<g class="st19">
						<path d="M73.6,68.9l0.2-1.2l-0.4-1.2l0-1.4l0.5-0.4l1-1.7l0.7,0.1c-0.1,0.4-0.3,0.7-0.6,1c-0.3,0.4-0.6,0.9-0.8,1.4
							c-0.3,0.9-0.1,1.4-0.1,1.4c0,0.1,0.3,0.9,0.2,1.1c-0.1,0.3-0.6,0.8-0.6,0.8L73.6,68.9L73.6,68.9z M75.4,63.1L74,64.8l-0.5,1.7
							l0.4,1.2l-0.1,0.8c0.2-0.2,0.4-0.4,0.4-0.6c0-0.2-0.1-0.8-0.2-1c0,0-0.3-0.5,0.1-1.5c0.2-0.5,0.5-1,0.8-1.4
							C75.1,63.7,75.3,63.4,75.4,63.1L75.4,63.1z"/>
					</g>
					<path class="st16" d="M78,64.6c0,0-1.6,2.2-4.1,3c-0.7,0.2-0.5-1.7-0.5-1.7l-0.2,0.1c0,0-0.4,1.8,0.6,1.8
						c2.6-0.5,4.5-3.2,4.5-3.2L78,64.6z"/>
					<g class="st19">
						<path d="M73.8,68l-0.5-0.2c-0.4-0.5-0.1-1.6-0.1-1.7c0,0.1,0.1,0.1,0.1,0.2c-0.1,0.4-0.1,1,0.1,1.4L73.8,68l0-0.1
							c1.7-0.3,3.2-1.7,3.9-2.5C77.1,66.2,75.6,67.6,73.8,68L73.8,68L73.8,68z M73.8,67.7c-0.1-0.1-0.2-0.1-0.2-0.2
							c2.7-0.7,4.3-2.9,4.3-2.9c0.1,0,0.1,0.2,0,0.4C77.2,65.6,75.8,67.1,73.8,67.7L73.8,67.7z"/>
					</g>
					<path class="st16" d="M79,77.5c0,0-0.2,0.2-0.6,0c-0.2-0.4-0.6-0.4-0.6-0.4s-0.3-0.8-0.7-0.6c-0.1-0.4-0.5-0.2-0.5-0.2
						s0-0.6-0.6-0.5c0.2-0.7-0.8-0.6-0.8-0.6s0-0.8-1.4-0.6c3.1-1.4,5.5,2.2,5.5,2.2L79,77.5z"/>
					<g class="st19">
						<path d="M78.4,77.6c-0.2-0.4-0.6-0.4-0.6-0.4c-0.1,0-0.2-0.5-0.5-0.6l-0.1,0l-0.8-0.3l-0.1,0l-0.5-0.6
							c-0.2-0.6-0.7-0.6-0.7-0.6c-0.5-0.6-0.9-0.7-1.5-0.6c3.1-1.5,5.5,2,5.5,2.1c0.1,0.1-1.8-2.4-4.1-2.4c-0.4,0-0.9,0.1-1.4,0.3
							c0.6-0.2,1-0.1,1.2,0.1c0.2,0.4,0.7,0.4,0.9,0.6l1,0.9c0.7,0.3,0.9,0.8,0.9,0.8C77.9,77.1,78.4,77.1,78.4,77.6l0.6,0
							L78.4,77.6L78.4,77.6z"/>
					</g>
					<path class="st16" d="M80.5,77.8c0,0,0.7,0.8,1.1,0.8c0.4,0,0.4-0.8,0.4-0.8s0.1,0.3,0.3,0.3c0,0.2,0.2,0.3,0.2,0.3
						s-0.6,1.5-2.5,0.1L80.5,77.8z"/>
					<g class="st19">
						<path d="M81.4,79.1c-0.4,0-0.9-0.2-1.4-0.6c0.7,0.4,1.3,0.6,1.7,0.5c0.5-0.1,0.7-0.6,0.7-0.6L82,77.9c0,0.2-0.1,0.8-0.5,0.8h0
							c-0.4,0-1-0.7-1.1-0.8l0.1-0.1c0.2,0.2,0.9,0.7,1,0.8c0.2,0,0.3-0.5,0.3-0.7l0.1,0l0,0H82c0,0,0,0,0,0.1l0.5,0.5
							c0,0-0.2,0.5-0.8,0.7C81.6,79.1,81.5,79.1,81.4,79.1L81.4,79.1z"/>
					</g>
					<path class="st16" d="M74.9,78.1l-0.3,1c0,0-0.3,0.3-0.2,0.3c0.1,0.1,0.6-0.1,0.6-0.1s0.8-0.1,1-0.3c0.2,0.4,0.5,0.4,0.5,0.4
						s0-0.2,0-0.3c0.2,0,0.3,0,0.3,0s0.1-0.3-0.1-0.4c0-0.2,0.1-0.4-0.2-0.4c-0.3,0.3-1,0.6-1.2,0.5c-0.2-0.1,0.7-0.5,0.4-1
						L74.9,78.1z"/>
					<g class="st19">
						<path d="M74.4,79.5l0.5-1.4l0.1,0l-0.3,1c0.5,0.1,1.1,0,1.3-0.1l0.5,0.4l0.2-0.6l0.2,0.4c-0.1,0.1-0.2,0.1-0.4,0.2l0.1,0
							l-0.1,0l0,0c-0.3,0-0.4-0.1-0.5-0.3c-0.2,0.3-0.9,0.4-1,0.4L74.4,79.5L74.4,79.5z"/>
					</g>
					<path class="st19" d="M59,75.7l1-0.2L59.9,75c0-0.1-0.1-0.2-0.1-0.2c-0.1,0-0.2,0-0.3,0l0-0.1l0.9-0.2l0,0.1
						c-0.1,0-0.2,0.1-0.2,0.1c0,0-0.1,0.1-0.1,0.1c0,0,0,0.1,0,0.2l0.1,0.5l0.8-0.2c0.1,0,0.2-0.1,0.3-0.1c0,0,0-0.1,0.1-0.1
						c0-0.1,0-0.1,0-0.2l0-0.1l0.1,0l0.3,1.1l-0.1,0l0-0.1c0-0.1-0.1-0.2-0.1-0.2c0,0-0.2,0-0.3,0L59.4,76c-0.1,0-0.2,0.1-0.3,0.1
						c0,0,0,0-0.1,0.1c0,0.1,0,0.1,0,0.2l0,0.1l-0.1,0l-0.5-1.9l0.6-0.2l0,0.1c-0.1,0.1-0.2,0.1-0.2,0.2c0,0.1-0.1,0.1-0.1,0.2
						c0,0.1,0,0.2,0,0.3L59,75.7z M58.3,71.1c0-0.3,0.2-0.6,0.5-0.9c0.3-0.2,0.6-0.3,1-0.3c0.4,0,0.7,0.2,1,0.4
						c0.2,0.3,0.4,0.6,0.3,1c0,0.4-0.2,0.7-0.4,0.9c-0.3,0.2-0.6,0.3-1,0.3c-0.4,0-0.8-0.2-1-0.5C58.4,71.7,58.3,71.4,58.3,71.1
						L58.3,71.1z M58.5,71.1c0,0.2,0.1,0.4,0.2,0.6c0.2,0.2,0.5,0.3,1,0.3c0.4,0,0.8-0.1,1-0.2c0.2-0.1,0.3-0.3,0.3-0.6
						c0-0.3-0.1-0.5-0.3-0.6c-0.2-0.2-0.5-0.3-0.9-0.3c-0.5,0-0.8,0-1,0.2C58.6,70.7,58.5,70.9,58.5,71.1L58.5,71.1z M62.3,66.3
						l-0.3,0.7l-1.5,0.4c0,0.1-0.1,0.1-0.1,0.2c0,0,0,0,0,0.1c0,0,0,0,0,0.1l0.7,0.3c0.2,0.1,0.3,0.1,0.3,0.1c0.1,0,0.1-0.1,0.2-0.2
						l0-0.1l0.1,0l-0.4,1.1l-0.1,0l0-0.1c0-0.1,0-0.2,0-0.3c0,0-0.1-0.1-0.3-0.1l-1.6-0.6c-0.2-0.1-0.3-0.1-0.3-0.1
						c-0.1,0-0.1,0.1-0.2,0.2l0,0.1l-0.1,0l0.3-0.9c0.1-0.3,0.2-0.4,0.3-0.6c0.1-0.1,0.2-0.2,0.3-0.2c0.1,0,0.3,0,0.4,0
						c0.1,0.1,0.3,0.2,0.3,0.3c0.1,0.1,0.1,0.3,0.1,0.6l0.9-0.2c0.2-0.1,0.4-0.1,0.4-0.2C62.1,66.5,62.2,66.4,62.3,66.3L62.3,66.3z
						 M60.4,67.5C60.4,67.5,60.4,67.5,60.4,67.5c0-0.1,0-0.1,0-0.1c0.1-0.2,0.1-0.4,0.1-0.6c-0.1-0.2-0.2-0.3-0.3-0.3
						c-0.2-0.1-0.3-0.1-0.4,0c-0.1,0.1-0.2,0.2-0.3,0.3c0,0.1-0.1,0.2-0.1,0.3L60.4,67.5z M66.1,58.7l0.5,0.7l-0.1,0
						c-0.2-0.1-0.3-0.2-0.5-0.3c-0.2,0-0.4,0-0.6,0.1c-0.3,0.2-0.4,0.4-0.4,0.8c0,0.3,0.1,0.5,0.2,0.8c0.1,0.2,0.3,0.4,0.5,0.5
						c0.2,0.1,0.4,0.2,0.6,0.2c0.2,0,0.4-0.1,0.5-0.1c0.1-0.1,0.1-0.1,0.2-0.2c0.1-0.1,0.1-0.2,0.2-0.2l-0.4-0.6
						c-0.1-0.1-0.1-0.2-0.2-0.2c0,0-0.1,0-0.1,0c-0.1,0-0.1,0-0.2,0.1l0-0.1l0.9-0.6l0,0.1l0,0c-0.1,0.1-0.1,0.1-0.1,0.2
						c0,0.1,0.1,0.1,0.1,0.3l0.4,0.7c-0.1,0.1-0.2,0.3-0.3,0.4c-0.1,0.1-0.2,0.2-0.4,0.3c-0.4,0.3-0.9,0.4-1.3,0.2
						c-0.3-0.1-0.5-0.3-0.7-0.6c-0.1-0.2-0.2-0.4-0.2-0.7c0-0.3,0-0.6,0.1-0.8c0.1-0.2,0.3-0.4,0.5-0.5c0.1-0.1,0.2-0.1,0.2-0.1
						c0.1,0,0.2-0.1,0.3-0.1c0.1,0,0.1,0,0.1,0c0,0,0,0,0-0.1C66,58.8,66,58.8,66.1,58.7L66.1,58.7z M70.4,59l-1,0.3l-0.1,0.5
						c0,0.1,0,0.2,0,0.2c0,0,0,0.1,0.1,0.1c0,0,0.1,0,0.3,0l0,0.1l-0.8,0.2l0-0.1c0.1,0,0.2-0.1,0.2-0.1c0-0.1,0.1-0.2,0.1-0.4
						l0.4-2.4l0.1,0l1.5,1.9c0.1,0.1,0.2,0.3,0.3,0.3c0.1,0,0.2,0,0.3,0l0,0.1l-1,0.3l0-0.1c0.1,0,0.2-0.1,0.2-0.1c0,0,0-0.1,0-0.1
						c0-0.1-0.1-0.1-0.1-0.2L70.4,59z M70.3,58.9l-0.7-0.9l-0.2,1.2L70.3,58.9z M75,58.9L75,58.9l-0.2,0.7l-2.1-0.1v-0.1l0.1,0
						c0.1,0,0.2,0,0.2-0.1c0,0,0-0.1,0-0.3l0.1-1.7c0-0.2,0-0.3,0-0.3c-0.1-0.1-0.1-0.1-0.2-0.1h-0.1l0-0.1l1.2,0V57
						c-0.1,0-0.2,0-0.3,0c-0.1,0-0.1,0.1-0.1,0.1c0,0,0,0.1,0,0.3l-0.1,1.7c0,0.1,0,0.2,0,0.2c0,0,0,0,0.1,0.1c0,0,0.1,0,0.3,0
						l0.2,0c0.2,0,0.4,0,0.4,0c0.1,0,0.2-0.1,0.2-0.2C74.9,59.1,74.9,59,75,58.9L75,58.9z M78.6,59.8L78.6,59.8l-0.4,0.7l-2-0.7
						l0-0.1l0.1,0c0.1,0,0.2,0,0.3,0c0,0,0.1-0.1,0.1-0.3l0.5-1.6c0.1-0.2,0.1-0.3,0.1-0.3c0-0.1-0.1-0.1-0.2-0.1l-0.1,0l0-0.1
						l1.1,0.4l0,0.1c-0.1,0-0.2-0.1-0.3,0c-0.1,0-0.1,0-0.1,0.1c0,0-0.1,0.1-0.1,0.3l-0.5,1.6c0,0.1-0.1,0.2,0,0.2c0,0,0,0.1,0,0.1
						c0,0,0.1,0.1,0.3,0.1l0.2,0.1c0.2,0.1,0.3,0.1,0.4,0.1c0.1,0,0.2,0,0.3-0.1C78.3,60,78.4,60,78.6,59.8L78.6,59.8z M81.4,61.3
						l-0.8-0.6L80.2,61C80.1,61,80,61.1,80,61.1c0,0,0,0.1,0,0.1c0,0,0.1,0.1,0.2,0.2l0,0.1L79.4,61l0.1-0.1
						c0.1,0.1,0.2,0.1,0.2,0.1c0.1,0,0.2-0.1,0.4-0.2l2-1.2l0.1,0L81.7,62c0,0.2-0.1,0.3,0,0.4c0,0.1,0.1,0.1,0.2,0.2l0,0.1L80.9,62
						l0-0.1c0.1,0.1,0.2,0.1,0.2,0.1c0,0,0.1,0,0.1-0.1c0,0,0.1-0.1,0.1-0.3L81.4,61.3z M81.5,61.2l0.3-1.1l-1,0.6L81.5,61.2z
						 M84.6,61.8l0.4,0.6l-0.6,2.5l1.2-0.9c0.1-0.1,0.2-0.2,0.2-0.2c0-0.1,0-0.2-0.1-0.2l-0.1-0.1l0.1,0l0.6,0.7l-0.1,0l-0.1-0.1
						c-0.1-0.1-0.1-0.1-0.2-0.1c0,0-0.1,0-0.3,0.1l-1.8,1.3l0-0.1l0.7-2.7l-1.3,1c-0.1,0.1-0.2,0.2-0.2,0.2c0,0.1,0,0.1,0.1,0.2
						l0.1,0.1l-0.1,0l-0.5-0.7l0,0l0.1,0.1c0.1,0.1,0.1,0.1,0.2,0.1c0.1,0,0.1,0,0.3-0.1l1.5-1.1c0-0.1,0-0.2,0-0.3c0,0,0-0.1,0-0.2
						C84.6,61.9,84.6,61.9,84.6,61.8L84.6,61.8z M88,68l-0.6,0.2l0-0.1c0.1,0,0.2-0.1,0.2-0.1c0.1-0.1,0.1-0.1,0.1-0.2
						c0-0.1,0-0.2,0-0.3l-0.1-0.4l-1.9,0.7c-0.2,0.1-0.2,0.1-0.3,0.2c0,0.1,0,0.1,0,0.2l0,0.1l-0.1,0l-0.4-1.1l0.1,0l0,0.1
						c0,0.1,0.1,0.2,0.2,0.2c0,0,0.1,0,0.3-0.1l1.9-0.7l-0.1-0.3c0-0.1-0.1-0.2-0.1-0.2c0-0.1-0.1-0.1-0.2-0.1c-0.1,0-0.2,0-0.3,0
						l0-0.1l0.6-0.2L88,68z M85.9,72.7l0-0.7l1.2-1c0-0.1,0-0.1,0-0.2c0,0,0,0,0-0.1c0,0,0,0,0-0.1l-0.8,0c-0.2,0-0.3,0-0.3,0.1
						c-0.1,0-0.1,0.1-0.1,0.2l0,0.1h-0.1L85.7,70l0.1,0v0.1c0,0.1,0,0.2,0.1,0.2c0,0,0.1,0,0.3,0l1.7-0.1c0.2,0,0.3,0,0.3-0.1
						c0.1-0.1,0.1-0.1,0.1-0.2l0-0.1h0.1l0,1c0,0.3,0,0.5,0,0.6c0,0.1-0.1,0.3-0.2,0.4C88.1,71.9,88,72,87.8,72
						c-0.2,0-0.3,0-0.4-0.1c-0.1-0.1-0.2-0.3-0.3-0.5L86.4,72c-0.2,0.1-0.3,0.2-0.3,0.3C86,72.4,86,72.5,85.9,72.7L85.9,72.7z
						 M87.1,70.7C87.1,70.7,87.1,70.8,87.1,70.7c0,0.1,0,0.1,0,0.1c0,0.3,0.1,0.4,0.2,0.6c0.1,0.1,0.3,0.2,0.4,0.2
						c0.2,0,0.3-0.1,0.4-0.2c0.1-0.1,0.1-0.3,0.1-0.4c0-0.1,0-0.2,0-0.3L87.1,70.7z M87.9,76.2l-0.2,0.9l-0.1,0l0,0c0,0,0-0.1,0-0.2
						c0-0.1,0-0.1-0.1-0.2c0-0.1-0.1-0.2-0.2-0.3l-0.8-0.9l-0.6-0.2c-0.2,0-0.3,0-0.3,0c-0.1,0-0.1,0.1-0.1,0.2l0,0.1l-0.1,0
						l0.3-1.1l0.1,0l0,0.1c0,0.1,0,0.2,0,0.3c0,0,0.1,0.1,0.3,0.1l0.6,0.2l1.3-0.4c0.1-0.1,0.2-0.1,0.3-0.1c0,0,0.1-0.1,0.2-0.2
						c0,0,0-0.1,0-0.1l0.1,0l-0.3,1.1l-0.1,0l0-0.1c0-0.1,0-0.1,0-0.2c0-0.1-0.1-0.1-0.1-0.1c0,0-0.1,0-0.3,0l-1,0.3l0.7,0.7
						c0.1,0.1,0.2,0.2,0.2,0.2c0,0,0.1,0,0.1,0c0,0,0.1,0,0.1-0.1C87.8,76.3,87.8,76.3,87.9,76.2L87.9,76.2z"/>
				</g>
			</g>
		</g>
		<g class="st0">
			<g>
				<defs>
					<rect id="SVGID_13_" x="-109.1" y="-1.1" width="518.2" height="302.3"/>
				</defs>
				<clipPath id="SVGID_14_">
					<use xlink:href="#SVGID_13_"  style="overflow:visible;"/>
				</clipPath>
				<rect x="-109.1" y="210.5" class="st22" width="518.2" height="90.7"/>
				<rect x="-109.1" y="89.5" class="st23" width="518.2" height="120.9"/>
				<rect x="-109.1" y="-1.1" class="st24" width="518.2" height="90.7"/>
				<path class="st22" d="M99.6,127.7l3.9,3.9l19.6,19.6l-19.6,19.6l-3.9,3.8l3.9,3.9l3.8,3.8l3.9,3.9l3.8-3.9l15.7-15.7l-3.8-3.8
					l-15.7,15.7l-3.9-3.9l19.6-19.6l19.2,19.2l-19.6,19.6l-3.8-3.9l15.7-15.7l-3.8-3.8l-15.7,15.7L115,190l3.9,3.9l3.9,3.8l3.8,3.9
					l3.9-3.9l19.6-19.6l23.4,23.4l3.8-3.9l7.7-7.7l-3.9-3.8l-15.7-15.7l-3.8,3.8l15.7,15.7l-3.8,3.9l-19.6-19.6l19.2-19.2l19.6,19.6
					l-3.9,3.9l-15.7-15.7l-3.8,3.8l15.7,15.7l3.8,3.9l11.6-11.6l-3.9-3.8L177,151.1l23.4-23.4l-3.9-3.8l-7.7-7.7L185,120l-14.2,14.2
					l-1.5,1.6l3.8,3.9l15.7-15.7l3.9,3.8l-19.6,19.6L153.9,128l19.6-19.6l3.8,3.9L161.6,128l3.8,3.9l1.6-1.6l14.2-14.2l3.8-3.8
					l-11.5-11.6L150,124.2l-23.4-23.4L115,112.3l3.9,3.8l13.2,13.2l2.5,2.5l3.8-3.9l-15.7-15.7l3.8-3.9l19.6,19.6l-19.2,19.3
					l-19.6-19.6l3.9-3.8l15.7,15.7l3.8-3.9l-2.5-2.5L115,120l-3.8-3.9L99.6,127.7z M130.7,151.1l19.3-19.3l19.3,19.3L150,170.4
					L130.7,151.1z M138.4,151.1l11.6,11.6l11.6-11.6L150,139.6L138.4,151.1z"/>
			</g>
		</g>
		<g class="st0">
			<g>
				<defs>
					<rect id="SVGID_15_" x="-28.9" y="-1.6" width="517" height="301.6"/>
				</defs>
				<clipPath id="SVGID_16_">
					<use xlink:href="#SVGID_15_"  style="overflow:visible;"/>
				</clipPath>
				<rect x="-28.9" y="-1.6" class="st25" width="517" height="301.6"/>
				<polygon class="st26" points="81.2,202 77.4,137.8 63.9,173.2 69.9,135.8 47.8,166.5 63.3,132 33.9,155.8 57.8,126.5 23.3,142 
					53.9,119.8 16.6,125.8 51.9,112.4 -12.2,108.5 51.9,104.7 16.6,91.2 53.9,97.2 23.3,75 57.8,90.5 33.9,61.2 63.3,85.1 
					47.8,50.5 69.9,81.2 63.9,43.8 77.4,79.2 81.2,15 85.1,79.2 98.6,43.8 92.6,81.2 114.7,50.5 99.2,85.1 128.6,61.2 104.7,90.5 
					139.2,75 108.6,97.2 145.9,91.2 110.5,104.7 174.7,108.5 110.5,112.4 145.9,125.8 108.6,119.8 139.2,142 104.7,126.5 
					128.6,155.8 99.2,132 114.7,166.5 92.6,135.8 98.6,173.2 85.1,137.8 				"/>
				<polygon class="st26" points="-28.9,285.5 -28.9,295.2 488.2,121.4 488.2,3.2 				"/>
				<polygon class="st27" points="-28.9,285.5 -28.9,290.3 488.2,62.3 488.2,3.2 				"/>
			</g>
		</g>
		<g class="st0">
			<g>
				<defs>
					<rect id="SVGID_17_" x="-109.5" y="-1.4" width="519" height="302.7"/>
				</defs>
				<clipPath id="SVGID_18_">
					<use xlink:href="#SVGID_17_"  style="overflow:visible;"/>
				</clipPath>
				<rect x="-109.5" y="-1.4" class="st28" width="519" height="302.7"/>
				<g class="st29">
					<defs>
						<rect id="SVGID_19_" x="-109.5" y="-1.4" width="519" height="302.7"/>
					</defs>
					<clipPath id="SVGID_20_">
						<use xlink:href="#SVGID_19_"  style="overflow:visible;"/>
					</clipPath>
					<path class="st30" d="M150,14.4c54,0,97.8,43.8,97.8,97.8c0,54-43.8,97.8-97.8,97.8c-54,0-97.8-43.8-97.8-97.8
						C52.2,58.2,96,14.4,150,14.4"/>
					<path class="st31" d="M55.4,86.9c0,52.3,42.4,94.6,94.6,94.6c52.2,0,94.6-42.4,94.6-94.6V11.2H55.4"/>
					<polygon class="st30" points="150,49.1 138.3,85.1 156.3,90.9 					"/>
					<polygon class="st30" points="150,49.1 161.7,85.1 143.7,90.9 					"/>
					<polygon class="st30" points="186,75.2 148.2,75.2 148.2,94.2 					"/>
					<polygon class="st30" points="186,75.2 155.4,97.5 144.3,82.2 					"/>
					<polygon class="st30" points="114,75.2 144.6,97.5 155.7,82.2 					"/>
					<polygon class="st30" points="114,75.2 151.8,75.2 151.8,94.2 					"/>
					<polygon class="st30" points="172.2,117.5 160.5,81.5 142.5,87.4 					"/>
					<polygon class="st30" points="172.2,117.5 141.6,95.3 152.7,80 					"/>
					<polygon class="st30" points="127.8,117.5 158.4,95.3 147.3,80 					"/>
					<polygon class="st30" points="127.8,117.5 139.5,81.5 157.5,87.4 					"/>
				</g>
			</g>
		</g>
	</g>
</g>
</svg>
