<?xml version="1.0" encoding="utf-8"?>
<!-- Generator: Adobe Illustrator 22.1.0, SVG Export Plug-In . SVG Version: 6.00 Build 0)  -->
<svg version="1.1" xmlns="http://www.w3.org/2000/svg" xmlns:xlink="http://www.w3.org/1999/xlink" x="0px" y="0px"
	 viewBox="0 0 300 300" style="enable-background:new 0 0 300 300;" xml:space="preserve">
<style type="text/css">
	.st0{clip-path:url(#SVGID_2_);}
	.st1{clip-path:url(#SVGID_2_);fill:#120065;}
	.st2{clip-path:url(#SVGID_4_);fill:#120065;}
	.st3{clip-path:url(#SVGID_4_);}
	.st4{clip-path:url(#SVGID_6_);fill:#FFFFFF;}
	.st5{clip-path:url(#SVGID_6_);fill:#48A0B9;}
	.st6{clip-path:url(#SVGID_6_);}
	.st7{clip-path:url(#SVGID_6_);fill:#973C1A;}
	.st8{clip-path:url(#SVGID_6_);fill:#F09727;}
	.st9{fill:#F7DF29;}
	.st10{clip-path:url(#SVGID_6_);fill:#BA0019;}
	.st11{clip-path:url(#SVGID_6_);fill:#348128;}
	.st12{clip-path:url(#SVGID_6_);fill:#F9DFCE;}
	.st13{clip-path:url(#SVGID_6_);fill:#7C0211;}
	.st14{fill:none;}
	.st15{clip-path:url(#SVGID_8_);fill:#C0001A;}
	.st16{clip-path:url(#SVGID_8_);fill:#FFFFFF;}
	.st17{clip-path:url(#SVGID_8_);fill:#2C00FC;}
	.st18{clip-path:url(#SVGID_8_);}
	.st19{fill:#FFFFFF;}
	.st20{clip-path:url(#SVGID_10_);fill:#C0001A;}
	.st21{clip-path:url(#SVGID_10_);fill:#FFFFFF;}
	.st22{clip-path:url(#SVGID_10_);fill:#2C00FC;}
	.st23{clip-path:url(#SVGID_10_);}
</style>
<g id="Layer_2">
</g>
<g id="Layer_1">
	<g>
		<defs>
			<rect id="SVGID_1_" y="-0.1" width="300" height="300"/>
		</defs>
		<clipPath id="SVGID_2_">
			<use xlink:href="#SVGID_1_"  style="overflow:visible;"/>
		</clipPath>
		<g id="Layer_2_1_" class="st0">
		</g>
		<rect x="-1" y="-0.7" class="st1" width="302" height="301.4"/>
		<g class="st0">
			<g>
				<defs>
					<rect id="SVGID_3_" y="-0.3" width="330.5" height="192.8"/>
				</defs>
				<clipPath id="SVGID_4_">
					<use xlink:href="#SVGID_3_"  style="overflow:visible;"/>
				</clipPath>
				<rect y="-0.3" class="st2" width="330.5" height="192.8"/>
				<g class="st3">
					<defs>
						<rect id="SVGID_5_" y="-0.3" width="330.5" height="192.8"/>
					</defs>
					<clipPath id="SVGID_6_">
						<use xlink:href="#SVGID_5_"  style="overflow:visible;"/>
					</clipPath>
					<path class="st4" d="M215.3,54.6h71.9l-0.1,51.1c0.6,20.6-12.2,33.3-35.8,39.1c-16.7-4.2-36.1-12.8-36.1-38.5L215.3,54.6z"/>
					<path class="st5" d="M216.9,56.1h68.7l-0.1,49c0.6,19.7-11.7,31.9-34.2,37.4c-16-4-34.5-12.2-34.5-36.9L216.9,56.1z"/>
					<g class="st6">
						<path d="M251.3,142.6L251.3,142.6c-14.8-3.7-34.5-11.5-34.6-37l0.1-49.6l68.8-0.1l0,49.1C286.2,124.3,274.6,137,251.3,142.6
							L251.3,142.6L251.3,142.6z M285.5,56.1l-68.6,0.1l0,49.5c0,25.3,19.6,33.1,34.4,36.8c23.2-5.7,34.7-18.2,34.1-37.3L285.5,56.1
							L285.5,56.1z"/>
					</g>
					<path class="st7" d="M285.1,110.9c-2.5,18.8-17,27-33.8,31.4c-14.9-4-30.8-10.3-33.9-31.3L285.1,110.9z"/>
					<polygon class="st6" points="235.2,65.2 248.6,65.3 248.5,59.1 253.4,59.1 253.4,65.3 266.8,65.3 266.8,70 253.4,70.1 
						253.3,126.6 248.6,126.6 248.5,70 235.2,70.1 					"/>
					<path class="st8" d="M237.8,113.3L250,126c4.2-4.6,1.3-22-4.3-25.2c-0.7,2.1-1.8,4.5-3,5.3c-2.7,1.8-9.1,3.9-7,5.3
						c0.5-0.7,1.8-1.3,2.4,0.2c0.7,2.4-2.7,2.6-2.7,2.6s-2.2-0.3-2.6-2.5c-0.4-2.2,3.2-4.2,3.5-4.4c0.3-0.1,5-1.4,5.8-5.6
						c1-4.1,2-3.5,2.2-3.6c6.2,0.6,10.2,11.7,10.4,19.4c0.2,7.8-3.2,12.9-3.8,13.3c-0.6,0.3-14.7-16.7-14.7-16.7L237.8,113.3z"/>
					<g class="st6">
						<path d="M251.1,130.8c-0.9,0-13.3-15-14.7-16.8l0.1-0.1c-0.6,0.2-1,0.2-1.1,0.2c0,0-2.3-0.3-2.6-2.5c-0.4-2.4,3.5-4.5,3.6-4.5
							c2-0.6,5.1-2.1,5.8-5.5c0.9-3.6,1.8-3.6,2.1-3.6c6.4,0.6,10.5,11.8,10.7,19.5C255.2,125.3,251.8,130.5,251.1,130.8
							L251.1,130.8L251.1,130.8z M237.6,113.5c-0.2,0.1-0.4,0.3-0.6,0.4l-0.5,0.3c5.5,6.5,13.9,16.5,14.6,16.6
							c0.6-0.4,4-5.5,3.7-13.2c-0.2-7.7-4.3-18.7-10.4-19.4c-0.9,0-1.6,1.2-2.1,3.5c-0.7,3.4-3.9,5-5.8,5.6c-0.1,0.1-4,2.1-3.6,4.3
							c0.4,2.1,2.5,2.4,2.5,2.4c0,0,0.7,0,1.4-0.3l0.8-0.4c0.5-0.4,0.6-1,0.4-1.7c-0.5-1.2-1.8-0.8-2.3-0.2
							c-0.4-0.2-0.6-0.4-0.6-0.7c0-0.9,2.1-1.9,4.2-3c1.2-0.6,2.4-1.2,3.2-1.7c1.2-0.8,2.3-3.2,3-5.3c2.8,1.5,5.1,6.4,6,12.5
							c0.7,4.5,0.7,10.3-1.6,12.8l-12.2-12.5l12.2,12.4c1.8-2.1,2.4-6.9,1.5-12.7c-0.9-6.1-3.2-10.9-5.8-12.4
							c-0.6,2-1.7,4.5-2.9,5.3c-0.8,0.6-2,1.2-3.2,1.8c-2,1-4.1,2-4.1,2.8c0,0.2,0.1,0.4,0.4,0.6c0.3-0.6,1.6-1.8,2.4,0.2
							c0.2,0.8,0.1,1.4-0.5,1.9l0,0l0,0l0,0c0,0,0,0,0,0L237.6,113.5L237.6,113.5z"/>
					</g>
					<g class="st6">
						<polygon points="246.8,124.3 246.6,101.5 246.8,101.5 246.8,124.3 						"/>
					</g>
					<g class="st6">
						<path d="M245.5,122.7c-0.2,0-0.2-20.8-0.2-20.8h0.2C245.4,101.9,245.5,122.7,245.5,122.7L245.5,122.7z"/>
					</g>
					<g class="st6">
						<polygon points="244,121.4 243.7,104.9 243.9,104.9 244,121.4 						"/>
					</g>
					<g class="st6">
						<polygon points="242.8,119.7 242.5,106.1 242.7,106.1 242.8,119.7 						"/>
					</g>
					<g class="st6">
						<polygon points="241.4,118.2 241.2,106.7 241.4,106.7 241.4,118.2 						"/>
					</g>
					<g class="st6">
						<polygon points="240,116.7 239.8,107.6 240,107.6 240,116.7 						"/>
					</g>
					<g class="st6">
						<polygon points="238.8,115.3 238.6,108.3 238.8,108.3 238.8,115.3 						"/>
					</g>
					<g class="st6">
						<path class="st9" d="M250.3,129.1l-12.8-14.3c0-0.1,0-0.1,0-0.2c0.1-0.1,0.1,0,0.2,0L250.3,129.1L250.3,129.1z"/>
					</g>
					<g class="st6">
						<path class="st9" d="M251.2,128.6c0,0-0.1,0-0.1,0c-0.1-0.1-0.2-0.2-0.1-0.3c5.2-10.1-0.4-22.4-0.4-22.6
							c-0.1-0.1,0-0.3,0.1-0.3c0.1-0.1,0.3,0,0.3,0.1c0.1,0.1,5.7,12.7,0.4,23C251.4,128.6,251.3,128.6,251.2,128.6L251.2,128.6z"/>
					</g>
					<g class="st6">
						<path class="st9" d="M236.1,112.3C236.1,112.3,236,112.3,236.1,112.3c-0.2-0.1-0.3-0.2-0.2-0.3c0-0.1,0.3-0.8,0.8-0.9
							c0,0,0.5,0.1,0.6,0.1c0.1,0.1,0.1,0.3,0,0.4c-0.1,0.1-0.3,0.1-0.4,0c-0.3,0-0.5,0.3-0.5,0.6
							C236.3,112.3,236.2,112.3,236.1,112.3L236.1,112.3z"/>
					</g>
					<g class="st6">
						<path class="st9" d="M234.1,112.5c-0.1,0-0.1,0-0.2-0.1c-0.3-0.3-0.5-0.7-0.5-1.2c0-1.2,1.4-2.5,1.5-2.5
							c0.1-0.1,0.3-0.1,0.4,0c0.1,0.1,0.1,0.3,0,0.4c0,0-1.3,1.1-1.3,2.2c0,0.3,0.1,0.6,0.3,0.8c0.1,0.1,0.1,0.3,0,0.4
							C234.2,112.4,234.1,112.5,234.1,112.5L234.1,112.5z"/>
					</g>
					<path class="st4" d="M0-0.3v9.4l149.1,74.6h18.8v-9.4L18.8-0.3H0z M167.9-0.3v9.4L18.8,83.6H0v-9.4L149.1-0.3H167.9z"/>
					<path class="st4" d="M70,83.6h28v-84H70V83.6z M0,55.6h167.9v-28H0V55.6z"/>
					<path class="st10" d="M0,50h167.9V33.3H0V50z M75.6,83.6h16.8v-84H75.6V83.6z"/>
					<path class="st10" d="M0,83.6l56-28h12.5l-56,28H0z M0-0.3l56,28H43.4L0,5.9V-0.3z M99.4,27.7l56-28h12.5l-56,28H99.4z
						 M167.9,83.6l-56-28h12.5l43.4,21.7V83.6z"/>
					<path class="st11" d="M253.5,77.1c0.8-0.7,1.3-1.2,1.8-1.1c0.5,0.1,1.2,0,1.8-0.1c0.5-0.2,3.1-0.5,4.2-0.1
						c0.4,0,0.8,0.3,1.6,0.9c0.7,0.6,1.8,1.7,1.5,4.7c-0.4,3-0.2,4.3-0.4,6c-0.3,3-0.9,5.4-2.1,5.2c1.6,2.8,1.8,5.2,2.8,7.2
						c1,1.9,1.7,5.9,1.3,10.2c-0.4,4.3-1.5,13.9,1.9,20.3c-0.6,0.4-1.9,0-3.2-1.3c-1.2-1.3-1.7-1.2-2.7-0.5
						c-3.1,2.3-5.9,5.2-10.2,2.3c-1-0.7-1.3-1.4-0.6-3.4c1.8-4.9,2.6-11.7,2.4-14.8V77.1z"/>
					<g class="st6">
						<path d="M255.1,132.1c-1.2,0-2.3-0.4-3.5-1.2c-0.9-0.6-1.4-1.4-0.6-3.5c1.8-4.9,2.6-11.6,2.4-14.8V77.1
							c0.9-0.8,1.3-1.2,1.8-1.2c1,0.1,1.4,0,1.9-0.1c0.6-0.2,3.4-0.4,4.3-0.1c0.4,0.1,1,0.3,1.6,0.9c0.6,0.5,1.9,1.6,1.5,4.8
							c-0.2,1.9-0.3,3.1-0.3,4.1c0,0.6,0,1.2-0.1,1.9c-0.2,2.4-0.8,5.3-2.1,5.3c0.9,1.5,1.3,2.9,1.7,4.2c0.3,1,0.6,2,1.1,2.8
							c1.2,2.1,1.7,6.2,1.3,10.2l-0.1,0.7c-0.5,4.7-1.3,13.5,1.9,19.6c-0.6,0.8-1.9,0.3-3.3-1.2c-1.2-1.3-1.7-1.2-2.6-0.5l-0.8,0.6
							C259.3,130.7,257.4,132.1,255.1,132.1L255.1,132.1z M255.2,76.1c-0.5,0-0.9,0.3-1.5,0.9l-0.2,35.7c0.3,3.2-0.6,10-2.4,14.9
							c-0.7,2-0.4,2.7,0.5,3.3c3.4,2.3,6.4,0.5,9.3-1.7l0.8-0.6c1-0.7,1.6-0.9,2.9,0.5c1,1.1,2.5,1.7,3,1.3c-3.3-6-2.4-14.8-2-19.6
							l0.1-0.7c0.4-4.6-0.3-8.4-1.3-10.1c-0.5-0.9-0.8-1.8-1.1-2.8c-0.4-1.3-0.8-2.8-1.8-4.4c1.1-0.1,1.8-2,2.1-5.3
							c0.1-0.6,0.1-1.2,0.1-1.9c0-1,0.1-2.3,0.3-4.1c0.4-3.1-0.9-4.2-1.4-4.7c-0.6-0.5-1.1-0.8-1.6-0.8c-1-0.3-3.7,0-4.2,0.1
							C256.6,76.1,255.8,76.2,255.2,76.1C255.3,76.1,255.3,76.1,255.2,76.1L255.2,76.1z"/>
					</g>
					<path class="st12" d="M256.4,74.1c0.2,0.7,0.3,1.6,0,2.4c-0.4,0.8-0.4,1.8,0.2,2.9c1-1.4,2.3-1.1,3.1-1.9
						c0.8-0.8,1-1.6,1.6-1.7c-0.6-0.5-1.5-1.1-1.3-2.6c0.2-1.5,2.3-2.8,0.4-5.1c-1.2-1.5-3.1-1.1-3.9-0.5c-0.4,0.3-0.7,0.7-0.8,0.9
						c-0.1,0.3,0,0.9-0.3,1.2c-0.2,0.2-0.5,0.5-0.7,0.7c-0.2,0.1-0.3,0.3-0.1,0.5c0.1,0.1,0.2,0.1,0.4,0.2c-0.1,0.2-0.2,0.4-0.3,0.5
						c-0.1,0.1-0.1,0.2,0.1,0.3c-0.1,0.5,0.1,0.5-0.1,0.9c-0.2,0.3-0.4,0.7,0.2,1C255.1,73.9,255.9,74.1,256.4,74.1L256.4,74.1z"/>
					<g class="st6">
						<path d="M256.5,79.6l-0.1-0.1c-0.5-1-0.6-2-0.2-3c0.3-0.8,0.2-1.6,0.1-2.2c0.4,0.7,0.4,1.5,0.1,2.2c-0.4,0.9-0.4,1.8,0.1,2.8
							c0.6-0.7,1.3-1,1.9-1.2c0.5-0.2,0.9-0.3,1.2-0.6c0.3-0.3,0.6-0.7,0.7-0.9c0.2-0.3,0.4-0.6,0.6-0.7c-0.1,0.3-0.3,0.5-0.5,0.8
							c-0.2,0.3-0.4,0.6-0.8,1c-0.4,0.3-0.8,0.5-1.3,0.7c-0.7,0.2-1.3,0.5-1.9,1.2L256.5,79.6L256.5,79.6z M261.1,75.6
							c-0.8-0.5-1.4-1.1-1.2-2.4c0.1-0.5,0.3-0.9,0.6-1.4c0.6-1,1.1-2.1-0.2-3.6c-1.6-1.9-3.1-0.9-3.7-0.5c-0.4,0.3-0.7,0.7-0.8,0.9
							c0,0.1-0.1,0.2-0.1,0.4c0,0.3,0,0.6-0.2,0.8c-0.2,0.3-0.5,0.5-0.7,0.7l-0.1,0.4l-0.3-0.2c0-0.1,0.1-0.2,0.2-0.3
							c0.3-0.2,0.5-0.4,0.7-0.7c0.2-0.2,0.2-0.5,0.2-0.7c0-0.2,0-0.3,0.1-0.5c0.1-0.3,0.5-0.7,0.8-1c0.6-0.5,2.3-1.5,4,0.5
							c1.4,1.7,0.7,2.8,0.2,3.8c-0.3,0.5-0.5,0.9-0.6,1.4C259.8,74.5,260.5,75.1,261.1,75.6C261.1,75.6,261.1,75.6,261.1,75.6
							L261.1,75.6z M256,74.1c-0.5,0-1-0.1-1.2-0.2c-0.3-0.1-0.4-0.3-0.5-0.5c-0.1-0.2,0.1-0.5,0.2-0.6c0-0.5,0-0.7,0.1-0.9
							c0.1-0.5,0.1-0.7,0.2-0.8l-0.2-0.2l0.3,0.2c-0.1,0.1-0.2,0.3-0.3,0.5c0,0.5,0,0.7,0.1,0.8c0,0.1,0.1,0.3-0.1,0.5
							c-0.1,0.2-0.2,0.4-0.2,0.6c0,0.1,0.2,0.3,0.4,0.4c0.1,0.1,0.8,0.2,1.3,0.2c0,0,0,0.1,0.1,0.1C256.2,74.1,256.1,74.1,256,74.1
							L256,74.1z"/>
					</g>
					<path class="st12" d="M248.5,82.1c-1.1,0.3-2.9-0.2-4.3,0c-0.6,0.1-1.1-0.3-1-0.9c0.1-0.6,0.2-1.5,0-2.4
						c-0.2-1.3,0.4-3.2,1.3-5.2c0.9-2,1.3-3.1,1.3-4.1c0-0.6,0.1-1.3,0.6-1.7c0.4-0.3,0.5-0.5,0.7-0.7c0.3-0.5,0.7-0.6,0.7-0.3
						c0,0.2,0,0.3-0.2,0.6c0.4-0.3,1-0.7,1.1-0.8c0.1-0.1,0.9-0.6,0.9-0.1c0.3-0.1,0.5-0.1,0.5,0c0.1,0.2,0,0.2-0.1,0.3
						c0.2,0,0.4,0.3,0,0.6c0.2-0.1,0.4,0.3,0.1,0.6c-0.4,0.3-0.8,0.6-1,0.8c-0.1,0.3-1.1,1-1.5,1.2c-0.4,0.2-0.4,0.4-0.4,0.9
						c0,6.2-0.7,5.7-0.7,7.2c0,0.4-0.1,0.8,0.3,0.6c0.4-0.1,1-0.3,1.6-0.3V82.1z"/>
					<g class="st6">
						<path d="M247.6,82.3c-0.4,0-0.9,0-1.3-0.1c-0.7-0.1-1.4-0.1-2.1-0.1c-0.5,0-0.8-0.1-0.9-0.3c-0.1-0.2-0.2-0.4-0.2-0.7
							c0.1-0.6,0.1-1.5,0-2.4c-0.2-1.4,0.6-3.4,1.3-5.2c0.9-2.1,1.3-3.2,1.3-4.1c0-0.7,0.1-1.4,0.7-1.8c0.3-0.2,0.4-0.4,0.5-0.6
							c0.3-0.5,0.5-0.7,0.7-0.7c0.2,0.3,0.2,0.5,0.1,0.7c0.2-0.2,0.5-0.4,0.7-0.6c0.4-0.3,0.7-0.5,1-0.5l0.5,0.1
							c0.3,0.3,0.3,0.5,0.2,0.6l-0.1-0.3l-0.1,0.1l-0.4-0.1c-0.2-0.1-0.5,0-0.8,0.2c-0.5,0.3-0.9,0.5-1.1,0.8c0-0.4,0.1-0.5,0.1-0.6
							c-0.2-0.1-0.4,0-0.6,0.4c-0.2,0.3-0.3,0.5-0.7,0.8c-0.5,0.3-0.6,1-0.6,1.6c0,0.9-0.4,2-1.3,4.1c-0.8,1.8-1.5,3.7-1.3,5.1
							c0.1,0.8,0,1.8,0,2.4c0,0.2,0,0.4,0.1,0.5c0.1,0.2,0.4,0.2,0.6,0.2c1.1-0.1,1.5,0,2.2,0c0.9,0.1,1.7,0.1,2.2,0l-0.1-3.4
							c-0.5,0.1-1,0.2-1.4,0.4l-0.4,0c-0.1-0.1-0.1-0.3-0.1-0.5c0-0.7,0.1-1,0.2-1.3c0.2-0.7,0.6-1.9,0.6-6c0-0.6,0-0.8,0.5-1
							c0.4-0.2,1.3-0.9,1.4-1.1c0.1-0.2,0.3-0.3,0.6-0.5c0.1-0.1,0.3-0.2,0.4-0.3c0.2-0.1,0.2-0.3,0.2-0.4c0,0,0,0,0,0
							c0.2,0.2,0.1,0.4-0.1,0.5c-0.1,0.1-0.3,0.2-0.4,0.3c-0.2,0.2-0.4,0.3-0.5,0.5c-0.1,0.3-1.1,1-1.5,1.2
							c-0.3,0.1-0.4,0.3-0.4,0.9c0,4.2-0.3,5.3-0.6,6.1c-0.1,0.4-0.2,0.6-0.2,1.1l0,0.6c0.7-0.1,1.2-0.3,1.8-0.3l0.1,3.6
							C248.3,82.3,248,82.3,247.6,82.3L247.6,82.3z"/>
					</g>
					<path class="st12" d="M248.8,95.5c1.8-0.9,3.9-1.2,5-1.5c1.1-0.3,2.8-1.1,3.7-1.6c0.8-0.5,1.5-1.1,2-1.2c0.5-0.2,1-0.5,1.3-1.1
						c1.6-3.1,2.4-5.5,2.4-7.7c0-1.4-0.4-3-1.7-1.9c-1.3,1.1-2.7,3.1-3.1,4.6c-0.6,2.3-1,2.7-1.2,3.2c-0.1,0.4-0.6,0.4-1.1,0.6
						c-2.4,0.5-2.9,0.9-4.7,2.2c-1.8,1.3-3.7,2.5-5,3.2c-1.3,0.7-1.5,0.8-1.8,1.4c-0.3,0.6-0.5,1-0.8,1.3c-0.2,0.3-0.3,0.6-0.3,0.9
						c0,0.3-0.1,1.5-0.1,1.9c0,0.4,0.1,0.5,0.2,0.5c0.2,0,0.4-0.1,0.5-0.5c-0.1,0.5,0.6,0.3,0.6,0c0,0.5,0.7,0.2,0.7-0.3
						c0,0.3,0.5,0.1,0.6-0.1c0.1-0.4,0.2-0.8,0.4-1.2c0.2-0.5,0.5-1.1,0.9-1.4C247.9,96.5,247.7,96,248.8,95.5L248.8,95.5z"/>
					<g class="st6">
						<path d="M243.7,100.4L243.7,100.4c-0.4,0-0.4-0.3-0.4-0.6l0-0.5c0-0.5,0.1-1.2,0.1-1.4c-0.1-0.4,0-0.7,0.3-1
							c0.2-0.2,0.5-0.7,0.8-1.3c0.3-0.5,0.5-0.7,1.5-1.2l0.4-0.2c0.8-0.5,3-1.7,5-3.2c1.8-1.3,2.3-1.7,4.7-2.2
							c0.7-0.1,1-0.2,1.1-0.5c0-0.1,0.1-0.3,0.2-0.5c0.2-0.4,0.6-1.1,1-2.7c0.4-1.4,1.8-3.5,3.1-4.6c1.5-1.2,1.9,1,1.9,1.9
							c0,2.1-0.8,4.4-2.4,7.7c-0.4,0.7-1,1-1.4,1.1c-0.3,0.1-0.6,0.3-0.9,0.5c-0.3,0.2-0.7,0.5-1.1,0.7c-1.1,0.6-2.7,1.3-3.7,1.6
							l-0.8,0.2c-1.2,0.3-2.7,0.6-4.2,1.3c-0.6,0.3-0.8,0.6-1,0.9c-0.1,0.2-0.2,0.3-0.4,0.5c-0.4,0.3-0.6,0.8-0.8,1.2
							c-0.2,0.4-0.3,0.7-0.4,1.1c-0.1,0.4-0.4,0.6-0.6,0.6l0,0c-0.1,0.1-0.4,0.4-0.7,0.4l-0.3-0.4c0.1,0.3-0.1,0.4-0.3,0.4l-0.3-0.4
							c0.4,0.2,0.6,0.1,0.6,0c0.5,0.2,0.7,0,0.7-0.3l0.7-0.1l-0.1,0c0.2-0.6,0.3-0.9,0.4-1.2c0.3-0.6,0.6-1.1,1-1.4
							c0.2-0.1,0.3-0.3,0.4-0.4c0.2-0.3,0.3-0.6,1-0.9c1.4-0.7,3-1.1,4.2-1.3l0.8-0.2c1-0.3,2.6-1,3.6-1.6c0.4-0.2,0.7-0.4,1.1-0.7
							c0.4-0.3,0.7-0.5,1-0.6c0.3-0.1,0.9-0.4,1.3-1c1.7-3.3,2.4-5.6,2.4-7.6c0-0.7-0.2-2.9-1.6-1.8c-1.3,1.1-2.7,3.1-3,4.6
							c-0.4,1.6-0.8,2.3-1,2.8c-0.1,0.2-0.2,0.3-0.2,0.4c-0.1,0.4-0.5,0.5-0.9,0.6c-2.6,0.6-3.2,0.9-5,2.3c-2,1.5-4.2,2.8-5,3.2
							l-0.4,0.2c-0.9,0.5-1.2,0.6-1.4,1.1c-0.3,0.6-0.6,1.1-0.8,1.3c-0.2,0.2-0.3,0.5-0.2,0.8c0,0.2,0,0.9-0.1,1.4l0,0.5
							c0,0.4,0.1,0.4,0.2,0.4l0,0c0.2,0,0.3-0.3,0.3-0.5C244.1,100.3,243.8,100.4,243.7,100.4L243.7,100.4z"/>
					</g>
					<path class="st12" d="M261.8,128.5c0.1,0.4,0.4,0.9,0.4,1.3c0.1,0.3-0.1,0.4-0.1,0.6c-0.4,0.9-0.9,2.3-0.9,3.1
						c0,0.4-0.3,0.9-0.5,1.1c-0.2,0.3-0.1,0.5,0.3,0.8c0.2,0.1,0.7,0,0.8-0.3c0.2,0.2,0.6,0.1,0.7-0.2c0.2,0.2,0.5,0.1,0.7-0.2
						c0.2,0.1,0.4-0.1,0.5-0.3c0.3,0.1,0.6,0,0.6-0.6c0-0.1,0.1-0.3,0.2-0.4c0.1-0.1,0.1-0.4,0.1-0.6c0-0.2,0.1-0.7,0.3-1
						c0.2-0.3,0.5-0.9,0.4-1.4c-0.1-0.5-0.3-0.4-0.5-1.1c-0.4-0.5-1-1.1-1.7-1.2C262.4,128,262.1,128.4,261.8,128.5L261.8,128.5z"/>
					<g class="st6">
						<path d="M261.1,135.5l-0.2-0.1c-0.4-0.3-0.5-0.6-0.3-0.9c0.2-0.4,0.5-0.8,0.5-1.1c0.1-0.7,0.5-2.2,1-3.1l0.1-0.5
							c0-0.1-0.1-0.3-0.2-0.5c-0.1-0.2-0.2-0.5-0.2-0.7c0.4-0.4,0.7-0.6,1.2-0.6c0.7,0.1,1.3,0.7,1.8,1.2c0.1,0.4,0.2,0.6,0.3,0.7
							c0.1,0.1,0.2,0.2,0.2,0.5c0.1,0.6-0.2,1.1-0.4,1.4c-0.2,0.3-0.3,0.8-0.3,0.9c0,0.2,0,0.5-0.1,0.7c-0.1,0.1-0.1,0.3-0.1,0.4
							c0,0.5-0.3,0.7-0.5,0.7c-0.2,0.1-0.4,0.3-0.6,0.3c-0.2,0.2-0.4,0.3-0.6,0.3c-0.3,0.1-0.5,0.2-0.7,0.2
							C261.8,135.3,261.4,135.5,261.1,135.5L261.1,135.5z M263,128.1c-0.5,0-0.8,0.2-1,0.4c-0.1,0.3,0,0.5,0.1,0.7
							c0.1,0.2,0.2,0.4,0.2,0.6c0.1,0.3,0,0.4-0.1,0.5c-0.5,1-0.9,2.4-1,3.1c0,0.4-0.3,0.7-0.4,1c-0.2,0.4-0.2,0.6,0.2,0.8l0.1,0
							c0.2,0,0.5-0.1,0.5-0.3c0.5,0,0.7-0.1,0.7-0.2c0.4,0.1,0.6-0.1,0.7-0.2c0.3,0,0.5-0.2,0.5-0.3c0.6,0,0.6-0.2,0.6-0.5
							c0-0.1,0.1-0.3,0.2-0.5c0.1-0.1,0.1-0.3,0.1-0.6c0-0.2,0.1-0.7,0.3-1c0.2-0.3,0.5-0.8,0.4-1.3c-0.1-0.2-0.1-0.3-0.2-0.4
							c-0.1-0.1-0.2-0.3-0.3-0.7C264.2,128.8,263.6,128.1,263,128.1C263,128.1,263,128.1,263,128.1L263,128.1z"/>
					</g>
					<path class="st12" d="M250.4,132c0.6,0.6,1.8,0.6,2.7-0.4c-0.3-0.1-1-0.5-1.3-0.7C251.3,131.4,250.8,131.9,250.4,132L250.4,132
						z"/>
					<g class="st6">
						<path d="M251.4,132.5c-0.4,0-0.9-0.1-1.1-0.4c0.4-0.3,0.9-0.8,1.4-1.2c0.4,0.2,1.1,0.6,1.4,0.7
							C252.7,132.2,252.1,132.5,251.4,132.5L251.4,132.5z M251.7,131c-0.3,0.4-0.8,1-1.3,1.1c0.3,0.1,0.6,0.2,1,0.2l0,0
							c0.6,0,1.2-0.3,1.6-0.7C252.7,131.6,252,131.2,251.7,131L251.7,131z"/>
					</g>
					<path class="st13" d="M256.1,67.9c0.2-1.4,1.2-1.4,1.9-1.3c0.3,0.1,0.9,0.1,1.5,0c1.2-0.3,2.1,0.1,2,1.2
						c0.3,0.2,0.7,0.8,0.6,1.3c-0.1,0.5,0,0.7,0.5,0.7c0.4,0.1,1.4,0.6,0.8,1.4c0.6,0.4,1.1,1.3,0.7,1.9c-0.3,0.6-1.3,0.7-1.7,0.2
						c-0.5,0.2-1.2,0.2-1.6-0.2c-0.3,0.4-1.1,0.3-1.2,0c-0.1-0.3-0.4-0.5-0.7-0.6c-0.3-0.1-0.3-1,0.1-1.1c-0.1-0.3,0-0.6,0.1-0.7
						c0.1-0.1,0-0.4-0.3-0.6c-0.3-0.2-0.5-1.1-0.2-1.5c-0.5,0.2-1.6-0.3-1.8-0.6C256.6,67.6,256.3,67.6,256.1,67.9L256.1,67.9z"/>
					<g class="st6">
						<path d="M263.1,73.8c-0.4,0-0.7-0.2-0.8-0.4c-0.3,0.3-1,0.4-1.6-0.2c-0.1,0.4-1.1,0.3-1.2,0c-0.1-0.3-0.3-0.5-0.6-0.5
							c-0.2-0.1-0.3-0.4-0.3-0.6c0-0.3,0.2-0.6,0.4-0.6c-0.1-0.2-0.1-0.5,0-0.7c0-0.2-0.1-0.4-0.2-0.5c-0.3-0.2-0.5-0.8-0.4-1.3
							c0.1,0.5,0.3,1,0.5,1.2c0.2,0.2,0.3,0.3,0.3,0.5c-0.2,0.3-0.2,0.6-0.1,0.9c-0.3,0.1-0.4,0.4-0.4,0.6c0,0.2,0.1,0.4,0.2,0.5
							c0.3,0.1,0.6,0.3,0.7,0.6c0.1,0.3,0.8,0.3,1.1,0c0.7,0.5,1.2,0.4,1.6,0.2c0.6,0.5,1.4,0.4,1.7-0.1c0.3-0.6-0.1-1.5-0.7-1.8
							c0.2-0.3,0.2-0.6,0.1-0.8c-0.1-0.3-0.6-0.6-0.9-0.6c-0.5-0.1-0.6-0.4-0.6-0.8c0-0.4-0.3-1-0.6-1.2c0-0.5-0.1-0.8-0.3-1
							c-0.3-0.4-0.9-0.4-1.6-0.2c-0.6,0.1-1.4,0.1-1.6,0c-1-0.2-1.6,0.1-1.8,1.1l-0.2,0c0.2-1.1,0.8-1.6,2-1.3c0.1,0,0.9,0.1,1.5,0
							c0.8-0.2,1.4-0.1,1.8,0.3c0.2,0.2,0.3,0.6,0.3,1c0.3,0.2,0.7,0.8,0.6,1.3c-0.1,0.5,0,0.6,0.4,0.7c0.3,0,0.8,0.3,1,0.7
							c0.1,0.2,0.1,0.5-0.2,0.8c0.6,0.3,1.1,1.2,0.8,1.9C263.9,73.5,263.5,73.8,263.1,73.8L263.1,73.8z M258.1,68.5
							c-0.6,0-1.2-0.3-1.4-0.6c-0.1-0.1-0.2-0.2-0.3-0.2l-0.1,0c0.3-0.1,0.4,0,0.5,0.1c0.2,0.3,1,0.6,1.5,0.6c0,0,0,0,0,0
							C258.3,68.5,258.2,68.5,258.1,68.5L258.1,68.5z"/>
					</g>
					<g class="st6">
						<path d="M256.4,74.2l0-0.2c0.4,0,0.6-0.2,0.8-0.3c0.2-0.1,0.5-0.2,0.8-0.2c-0.3,0.1-0.5,0.3-0.7,0.4
							C257,74,256.8,74.1,256.4,74.2L256.4,74.2z"/>
					</g>
					<g class="st6">
						<path class="st14" d="M254.7,71.9c0.1,0,0.1,0.1,0.2,0.1c0.2,0.1,0.3,0.1,0.5,0.1L254.7,71.9z"/>
					</g>
					<g class="st6">
						<path class="st14" d="M254.9,71.1c0.1,0,0.2,0.1,0.3,0.2L254.9,71.1z"/>
					</g>
					<g class="st6">
						<path d="M259.4,68.1c-0.2,0-0.5-0.1-0.6-0.2c-0.5-0.5-1.1-0.8-1.6-0.6c-0.2,0.1-0.4,0.2-0.4,0.3l0,0.3l-0.1-0.4
							c0.1-0.2,0.3-0.4,0.5-0.5c0.6-0.2,1.2,0.1,1.8,0.6c0.2,0.2,0.8,0.2,1,0.2C259.8,68,259.6,68.1,259.4,68.1L259.4,68.1z"/>
					</g>
					<g class="st6">
						<path d="M262.8,71.5C262.8,71.5,262.8,71.5,262.8,71.5c-0.5-0.1-0.9-0.5-1.3-1.3c-0.2-0.4-0.4-0.5-0.6-0.5
							c-0.2-0.1-0.4-0.2-0.6-0.5c-0.3-0.8-1.5-0.5-1.7-0.5l0-0.2c0.7-0.2,1.6-0.1,1.9,0.6c0.1,0.3,0.3,0.4,0.5,0.4
							c0.2,0.1,0.5,0.2,0.7,0.6c0.4,0.8,0.8,1.2,1.1,1.2c0.2,0,0.3,0,0.5-0.2C263.2,71.4,263,71.5,262.8,71.5L262.8,71.5z"/>
					</g>
					<g class="st6">
						<path d="M260.7,73.1c-0.2-0.3-0.3-0.8-0.2-1.2c-0.3-0.2-0.1-0.9,0-1.2c0,0.3-0.1,0.9,0.1,1.1c-0.1,0.4,0,0.9,0.1,1.1
							L260.7,73.1L260.7,73.1z"/>
					</g>
					<g class="st6">
						<path class="st14" d="M259,71.4c0,0.2,0.3,0.7,0.8,0.8L259,71.4z"/>
					</g>
					<g class="st6">
						<path class="st14" d="M262.3,73.3c-0.3-0.4-0.3-0.7-0.2-1.1L262.3,73.3z"/>
					</g>
					<g class="st6">
						<path d="M260.9,71c-0.6,0-0.9-0.4-1-0.6c-0.4-0.1-0.6-0.7-0.6-1l0.2,0c0,0.3,0.2,0.8,0.5,0.9c0.1,0.2,0.6,0.8,1.3,0.7
							C261.1,71,261,71,260.9,71L260.9,71z"/>
					</g>
					<g class="st6">
						<path d="M261.4,67.9c-0.5-0.4-1.1-0.8-1.8-0.9c0.8-0.1,1.4,0.4,1.9,0.7L261.4,67.9L261.4,67.9z"/>
					</g>
					<g class="st6">
						<path d="M255.3,89.2c1.2-1.3,0.7-3.8,0.4-5.6c-0.3-1.7,0-3.1,0.8-4.2l0.1,0.1c-0.8,1.1-1.1,2.4-0.8,4
							C256.1,85.4,256.6,88,255.3,89.2L255.3,89.2z"/>
					</g>
					<g class="st6">
						<path d="M257.3,93.5c-0.4,0-0.9-0.1-1.3-0.3c0.9,0.3,2,0.2,2.7-0.3c0.7-0.5,2.1-0.6,3-0.3l0,0.2c-0.9-0.2-2.2-0.2-2.9,0.3
							C258.4,93.3,257.8,93.5,257.3,93.5L257.3,93.5z"/>
					</g>
					<g class="st6">
						<path d="M258.6,100.6c-0.4-1.4-0.3-2.9-0.2-4.2c0-0.6,0.1-1.1,0.1-1.6c0-1.5,0.4-2.1,1.2-2.3l0,0.2c-0.7,0.1-1.1,0.5-1.1,2.1
							c0,0.5,0,1-0.1,1.6C258.5,97.7,258.5,99.1,258.6,100.6L258.6,100.6z"/>
					</g>
					<g class="st6">
						<path d="M257.4,94.8c-0.3-1.4,0.3-1.5,0.7-1.6l0.2,0.1l-0.1,0C257.8,93.4,257.4,93.5,257.4,94.8L257.4,94.8z"/>
					</g>
					<g class="st6">
						<path d="M255.7,94.8l-0.2,0c0-0.7,0.2-1.3,0.5-1.5c0.1-0.1,0.3-0.1,0.5-0.1l-0.4,0.2C255.9,93.6,255.7,94.2,255.7,94.8
							L255.7,94.8z"/>
					</g>
					<g class="st6">
						<path d="M264.9,115.5c-0.5-1-0.5-2.9-0.6-5.1c-0.1-3-0.2-6.8-1-9.6c-0.1-0.5-0.3-0.9-0.4-1.3c-0.4-1.1-0.7-2-0.9-3.7
							c-0.2-2.1-0.5-2.8-0.9-3c0.3,0.4,0.4,1.1,0.4,2.2h-0.2c0-1.2-0.1-1.9-0.4-2.2c-0.1-0.1-0.2-0.1-0.3-0.2c0,0-0.1,0-0.1,0
							c0.2-0.1,0.3-0.1,0.5,0c0.6,0.1,1,0.7,1.2,3.2c0.2,1.7,0.5,2.6,0.9,3.7c0.1,0.4,0.3,0.8,0.4,1.3c0.9,2.8,1,6.6,1,9.6
							C264.6,112.5,264.6,114.4,264.9,115.5L264.9,115.5z"/>
					</g>
					<g class="st6">
						<path d="M263.9,122.8c-0.3-1.1-1-2.8-1.9-4.9c-0.6-1.5-1.3-3.1-2-5c2.6-8.1,1.6-13.1,0.2-17.3l0.2-0.1
							c1.4,4.2,2.4,9.2-0.2,17.3c0.7,1.8,1.4,3.5,2,5C263,120,263.7,121.6,263.9,122.8L263.9,122.8z"/>
					</g>
					<g class="st6">
						<path d="M255.5,106.1l-0.2,0c0.1-0.3,0-0.6,0-0.9c-0.1-0.6-0.4-1.5,0.2-3.8c0.4-1.5,0.4-2.4,0.2-2.9c0.4,0.4,0.3,1.4-0.1,2.9
							c-0.6,2.3-0.4,3.1-0.2,3.7C255.6,105.4,255.6,105.7,255.5,106.1L255.5,106.1z"/>
					</g>
					<g class="st6">
						<path d="M256.3,107.2c0.3-1.2,0-2.7-0.3-4c-0.2-1-0.4-2-0.3-2.7l0.2,0c-0.1,0.7,0,1.6,0.3,2.6
							C256.4,104.4,256.7,106,256.3,107.2L256.3,107.2z"/>
					</g>
					<g class="st6">
						<path d="M258.8,130.9c0.5-0.5,0.5-1.6,0.5-2.4c0-0.2,0-0.5,0-0.6c0.2-4.3-1.3-7.5-3.7-12.4l-0.4-0.7c-0.5-0.9-0.8-1.5-0.7-2.6
							c0-0.8,0-1.7-0.1-2.5c-0.1-0.7-0.1-1.4-0.1-2h0.2c0,0.6,0.1,1.3,0.1,2c0.1,0.9,0.2,1.8,0.1,2.5c-0.1,1.1,0.3,1.7,0.7,2.5
							l0.4,0.7c2.4,4.9,3.9,8.1,3.7,12.5c0,0.2,0,0.4,0,0.6C259.5,129.4,259.6,130.5,258.8,130.9L258.8,130.9z"/>
					</g>
					<g class="st6">
						<path d="M254.4,132.1C254.4,132.1,254.4,132.1,254.4,132.1l0-0.2c0.1,0,0.4-0.1,0.7-0.8c0.3-0.7,1.3-5,0.9-8
							c0.6,3-0.4,7.4-0.7,8.1C255,131.8,254.8,132.1,254.4,132.1L254.4,132.1z"/>
					</g>
					<g class="st6">
						<path d="M256.1,130.8c0.5-1.6,0.4-3.5,0.3-4.3l0.2,0C256.7,127.3,256.8,129.3,256.1,130.8L256.1,130.8z"/>
					</g>
					<g class="st6">
						<path d="M258.2,128.7c0.2-1.4,0.1-3.2-0.2-5l0.2,0C258.5,125.5,258.5,127.4,258.2,128.7L258.2,128.7z"/>
					</g>
					<g class="st6">
						<path d="M257.1,131.8c0.4-0.3,0.2-1.6,0.2-2.4l-0.1-0.6l0.2,0l0.1,0.6C257.5,130.4,257.6,131.6,257.1,131.8L257.1,131.8z"/>
					</g>
					<g class="st6">
						<path d="M264.3,128.6c-0.8-0.5-1.4-2.4-2.1-4.4c-0.6-1.8-1.2-3.7-2-4.8l0.1-0.1c0.7,1.1,1.3,3,2,4.8
							C263,126.1,263.6,128,264.3,128.6L264.3,128.6z"/>
					</g>
					<g class="st6">
						<path d="M261.5,127.7L261.5,127.7c0-0.7-0.1-1.5-0.4-1.9c0.5,0.3,0.5,1.1,0.6,1.8L261.5,127.7L261.5,127.7z"/>
					</g>
					<g class="st6">
						<path class="st14" d="M245.5,99.5c0-0.5-0.1-0.9,0.4-1.6L245.5,99.5z"/>
					</g>
					<g class="st6">
						<path d="M244.7,99.8l-0.1-0.3c0.1-1.3,0.1-1.5,0.5-1.9c-0.3,0.5-0.3,0.6-0.3,1.9L244.7,99.8L244.7,99.8z"/>
					</g>
					<g class="st6">
						<path d="M244.2,99.8H244v-0.7c0-0.6,0-1,0.3-1.6c-0.2,0.6-0.2,0.9-0.2,1.6L244.2,99.8L244.2,99.8z"/>
					</g>
					<g class="st6">
						<path class="st14" d="M249.7,66.5c-0.2,0.1-1.2,0.9-1.6,1.2L249.7,66.5z"/>
					</g>
					<g class="st6">
						<path d="M248.4,68.2l0.3-0.4c0.9-0.7,1.2-1,1.4-1l0,0.2c-0.1,0-0.6,0.4-1.3,1L248.4,68.2L248.4,68.2z"/>
					</g>
					<g class="st6">
						<path d="M248.7,68.7c0.1-0.3,0.4-0.5,0.6-0.7c0.3-0.3,0.6-0.5,0.8-0.6l0.1,0.1c-0.2,0.1-0.4,0.3-0.7,0.5
							C249.2,68.3,249,68.5,248.7,68.7L248.7,68.7z"/>
					</g>
					<g class="st6">
						<path class="st14" d="M247.7,67.4c-0.2,0.1-0.4,0.4-0.6,0.5L247.7,67.4z"/>
					</g>
					<g class="st6">
						<path class="st14" d="M261.7,135c-0.1-0.1-0.1-0.5,0.1-0.9L261.7,135z"/>
					</g>
					<g class="st6">
						<path class="st14" d="M262.5,134.8c-0.1-0.1,0-0.6,0.1-0.9L262.5,134.8z"/>
					</g>
					<g class="st6">
						<path class="st14" d="M263.2,134.6c-0.1-0.1-0.2-0.3,0-0.7L263.2,134.6z"/>
					</g>
					<g class="st6">
						<path class="st14" d="M263.7,134.3c-0.1,0-0.1-0.2,0-0.6L263.7,134.3z"/>
					</g>
					<path class="st6" d="M255.8,69.1c0.3,0.4,0.6,0.3,0.6,0.6c0.1,0.3,0.1,0.3,0.1,0.3c0.1,0.1-0.1,0.1-0.2,0c-0.1,0-0.3,0-0.5,0
						c-0.1,0-0.3-0.2-0.2-0.2c0.1,0,0.1-0.1,0.1-0.1c0-0.1,0.1-0.2,0.1-0.2c0,0,0,0,0-0.1C255.7,69.3,255.7,69.1,255.8,69.1
						L255.8,69.1z"/>
					<path class="st6" d="M255.9,68.8c0.3,0,0.9,0.2,1.2,0.6c0.2,0.3,0,0.2-0.1,0.2c-0.1,0-0.4-0.1-0.5-0.2
						c-0.1-0.2-0.5-0.3-0.7-0.4C255.8,68.9,255.7,68.8,255.9,68.8L255.9,68.8z"/>
				</g>
			</g>
		</g>
		<g class="st0">
			<g>
				<defs>
					<rect id="SVGID_7_" x="-111.1" y="-2.3" width="522.2" height="304.6"/>
				</defs>
				<clipPath id="SVGID_8_">
					<use xlink:href="#SVGID_7_"  style="overflow:visible;"/>
				</clipPath>
				<rect x="-111.1" y="-2.3" class="st15" width="522.2" height="76.2"/>
				<rect x="-111.1" y="73.8" class="st16" width="522.2" height="152.3"/>
				<rect x="-111.1" y="226.2" class="st17" width="522.2" height="76.2"/>
				<polygon class="st15" points="131.7,95.2 204.8,168.3 95.2,168.3 168.3,95.2 168.3,204.8 95.2,131.7 204.8,131.7 131.7,204.8 
									"/>
				<path class="st18" d="M127.2,127.2l45.7,45.7L127.2,127.2z M127.2,172.8l45.7-45.7L127.2,172.8z"/>
				<g class="st18">
					<polygon class="st19" points="171.2,174.5 150,153.2 128.8,174.5 125.5,171.2 146.8,150 125.5,128.8 128.8,125.5 150,146.8 
						171.2,125.5 174.5,128.8 153.2,150 174.5,171.2 171.2,174.5 					"/>
				</g>
			</g>
		</g>
		<g class="st0">
			<g>
				<defs>
					<rect id="SVGID_9_" x="-107.1" y="0" width="514.3" height="300"/>
				</defs>
				<clipPath id="SVGID_10_">
					<use xlink:href="#SVGID_9_"  style="overflow:visible;"/>
				</clipPath>
				<rect x="-107.1" y="0" class="st20" width="514.3" height="75"/>
				<rect x="-107.1" y="75" class="st21" width="514.3" height="150"/>
				<rect x="-107.1" y="225" class="st22" width="514.3" height="75"/>
				<polygon class="st20" points="132,96 204,168 96,168 114,150 168,96 168,204 96,132 204,132 132,204 				"/>
				<path class="st23" d="M127.5,127.5l45,45L127.5,127.5z M127.5,172.5l45-45L127.5,172.5z"/>
				<g class="st23">
					<polygon class="st19" points="170.9,174.1 150,153.2 129.1,174.1 125.9,170.9 146.8,150 125.9,129.1 129.1,125.9 150,146.8 
						170.9,125.9 174.1,129.1 153.2,150 174.1,170.9 170.9,174.1 					"/>
				</g>
			</g>
		</g>
	</g>
</g>
</svg>
