<?xml version="1.0" encoding="utf-8"?>
<!-- Generator: Adobe Illustrator 22.1.0, SVG Export Plug-In . SVG Version: 6.00 Build 0)  -->
<svg version="1.1" xmlns="http://www.w3.org/2000/svg" xmlns:xlink="http://www.w3.org/1999/xlink" x="0px" y="0px"
	 viewBox="0 0 300 300" style="enable-background:new 0 0 300 300;" xml:space="preserve">
<style type="text/css">
	.st0{clip-path:url(#SVGID_2_);}
	.st1{clip-path:url(#SVGID_2_);fill:#120065;}
	.st2{clip-path:url(#SVGID_4_);fill:#120065;}
	.st3{clip-path:url(#SVGID_4_);}
	.st4{clip-path:url(#SVGID_6_);fill:#FFFFFF;}
	.st5{clip-path:url(#SVGID_6_);fill:#48A0B9;}
	.st6{clip-path:url(#SVGID_6_);}
	.st7{clip-path:url(#SVGID_6_);fill:#973C1A;}
	.st8{clip-path:url(#SVGID_6_);fill:#F09727;}
	.st9{fill:#F7DF29;}
	.st10{clip-path:url(#SVGID_6_);fill:#BA0019;}
	.st11{clip-path:url(#SVGID_6_);fill:#348128;}
	.st12{clip-path:url(#SVGID_6_);fill:#F9DFCE;}
	.st13{clip-path:url(#SVGID_6_);fill:#7C0211;}
	.st14{fill:none;}
	.st15{clip-path:url(#SVGID_8_);fill:#C0001A;}
	.st16{clip-path:url(#SVGID_8_);fill:#FFFFFF;}
	.st17{clip-path:url(#SVGID_8_);fill:#2C00FC;}
	.st18{clip-path:url(#SVGID_8_);}
	.st19{fill:#FFFFFF;}
	.st20{clip-path:url(#SVGID_10_);fill:#C0001A;}
	.st21{clip-path:url(#SVGID_10_);fill:#FFFFFF;}
	.st22{clip-path:url(#SVGID_10_);fill:#2C00FC;}
	.st23{clip-path:url(#SVGID_10_);}
	.st24{clip-path:url(#SVGID_12_);fill:#B01F35;}
	.st25{clip-path:url(#SVGID_12_);fill:#296437;}
	.st26{clip-path:url(#SVGID_14_);}
	.st27{clip-path:url(#SVGID_14_);fill:#FFFFFF;}
	.st28{clip-path:url(#SVGID_14_);fill:#317267;}
	.st29{clip-path:url(#SVGID_14_);fill:#F5E129;}
	.st30{clip-path:url(#SVGID_14_);fill:#C0003B;}
	.st31{clip-path:url(#SVGID_16_);fill:#FFFFFF;}
	.st32{clip-path:url(#SVGID_16_);}
	.st33{clip-path:url(#SVGID_18_);fill:#C8242A;}
	.st34{clip-path:url(#SVGID_18_);fill:#323F9D;}
	.st35{clip-path:url(#SVGID_18_);}
	.st36{clip-path:url(#SVGID_20_);fill-rule:evenodd;clip-rule:evenodd;fill:#FFFFFF;}
	.st37{clip-path:url(#SVGID_20_);}
	.st38{fill:#323F9D;}
	.st39{clip-path:url(#SVGID_22_);fill:#EA0020;}
	.st40{clip-path:url(#SVGID_22_);fill:#2500D2;}
	.st41{clip-path:url(#SVGID_22_);fill:#F2AF26;}
	.st42{clip-path:url(#SVGID_22_);fill:#FFFFFF;}
	.st43{clip-path:url(#SVGID_24_);fill:#1F357E;}
	.st44{clip-path:url(#SVGID_24_);fill:#3D9546;}
	.st45{clip-path:url(#SVGID_24_);}
	.st46{clip-path:url(#SVGID_26_);}
	.st47{fill:#C0003B;}
	.st48{clip-path:url(#SVGID_24_);fill:#F5CD28;}
	.st49{clip-path:url(#SVGID_28_);fill:#1F357E;}
	.st50{clip-path:url(#SVGID_28_);fill:#F5CD28;}
	.st51{clip-path:url(#SVGID_30_);fill:#1C2A7D;}
	.st52{clip-path:url(#SVGID_30_);fill:#FFFFFF;}
	.st53{clip-path:url(#SVGID_30_);fill:#F4C533;}
</style>
<g id="Layer_2">
</g>
<g id="Layer_1">
	<g>
		<defs>
			<rect id="SVGID_1_" y="-0.1" width="300" height="300"/>
		</defs>
		<clipPath id="SVGID_2_">
			<use xlink:href="#SVGID_1_"  style="overflow:visible;"/>
		</clipPath>
		<g id="Layer_2_1_" class="st0">
		</g>
		<rect x="-1" y="-0.7" class="st1" width="302" height="301.4"/>
		<g class="st0">
			<g>
				<defs>
					<rect id="SVGID_3_" y="-0.3" width="330.5" height="192.8"/>
				</defs>
				<clipPath id="SVGID_4_">
					<use xlink:href="#SVGID_3_"  style="overflow:visible;"/>
				</clipPath>
				<rect y="-0.3" class="st2" width="330.5" height="192.8"/>
				<g class="st3">
					<defs>
						<rect id="SVGID_5_" y="-0.3" width="330.5" height="192.8"/>
					</defs>
					<clipPath id="SVGID_6_">
						<use xlink:href="#SVGID_5_"  style="overflow:visible;"/>
					</clipPath>
					<path class="st4" d="M215.3,54.6h71.9l-0.1,51.1c0.6,20.6-12.2,33.3-35.8,39.1c-16.7-4.2-36.1-12.8-36.1-38.5L215.3,54.6z"/>
					<path class="st5" d="M216.9,56.1h68.7l-0.1,49c0.6,19.7-11.7,31.9-34.2,37.4c-16-4-34.5-12.2-34.5-36.9L216.9,56.1z"/>
					<g class="st6">
						<path d="M251.3,142.6L251.3,142.6c-14.8-3.7-34.5-11.5-34.6-37l0.1-49.6l68.8-0.1l0,49.1C286.2,124.3,274.6,137,251.3,142.6
							L251.3,142.6L251.3,142.6z M285.5,56.1l-68.6,0.1l0,49.5c0,25.3,19.6,33.1,34.4,36.8c23.2-5.7,34.7-18.2,34.1-37.3L285.5,56.1
							L285.5,56.1z"/>
					</g>
					<path class="st7" d="M285.1,110.9c-2.5,18.8-17,27-33.8,31.4c-14.9-4-30.8-10.3-33.9-31.3L285.1,110.9z"/>
					<polygon class="st6" points="235.2,65.2 248.6,65.3 248.5,59.1 253.4,59.1 253.4,65.3 266.8,65.3 266.8,70 253.4,70.1 
						253.3,126.6 248.6,126.6 248.5,70 235.2,70.1 					"/>
					<path class="st8" d="M237.8,113.3L250,126c4.2-4.6,1.3-22-4.3-25.2c-0.7,2.1-1.8,4.5-3,5.3c-2.7,1.8-9.1,3.9-7,5.3
						c0.5-0.7,1.8-1.3,2.4,0.2c0.7,2.4-2.7,2.6-2.7,2.6s-2.2-0.3-2.6-2.5c-0.4-2.2,3.2-4.2,3.5-4.4c0.3-0.1,5-1.4,5.8-5.6
						c1-4.1,2-3.5,2.2-3.6c6.2,0.6,10.2,11.7,10.4,19.4c0.2,7.8-3.2,12.9-3.8,13.3c-0.6,0.3-14.7-16.7-14.7-16.7L237.8,113.3z"/>
					<g class="st6">
						<path d="M251.1,130.8c-0.9,0-13.3-15-14.7-16.8l0.1-0.1c-0.6,0.2-1,0.2-1.1,0.2c0,0-2.3-0.3-2.6-2.5c-0.4-2.4,3.5-4.5,3.6-4.5
							c2-0.6,5.1-2.1,5.8-5.5c0.9-3.6,1.8-3.6,2.1-3.6c6.4,0.6,10.5,11.8,10.7,19.5C255.2,125.3,251.8,130.5,251.1,130.8
							L251.1,130.8L251.1,130.8z M237.6,113.5c-0.2,0.1-0.4,0.3-0.6,0.4l-0.5,0.3c5.5,6.5,13.9,16.5,14.6,16.6
							c0.6-0.4,4-5.5,3.7-13.2c-0.2-7.7-4.3-18.7-10.4-19.4c-0.9,0-1.6,1.2-2.1,3.5c-0.7,3.4-3.9,5-5.8,5.6c-0.1,0.1-4,2.1-3.6,4.3
							c0.4,2.1,2.5,2.4,2.5,2.4c0,0,0.7,0,1.4-0.3l0.8-0.4c0.5-0.4,0.6-1,0.4-1.7c-0.5-1.2-1.8-0.8-2.3-0.2
							c-0.4-0.2-0.6-0.4-0.6-0.7c0-0.9,2.1-1.9,4.2-3c1.2-0.6,2.4-1.2,3.2-1.7c1.2-0.8,2.3-3.2,3-5.3c2.8,1.5,5.1,6.4,6,12.5
							c0.7,4.5,0.7,10.3-1.6,12.8l-12.2-12.5l12.2,12.4c1.8-2.1,2.4-6.9,1.5-12.7c-0.9-6.1-3.2-10.9-5.8-12.4
							c-0.6,2-1.7,4.5-2.9,5.3c-0.8,0.6-2,1.2-3.2,1.8c-2,1-4.1,2-4.1,2.8c0,0.2,0.1,0.4,0.4,0.6c0.3-0.6,1.6-1.8,2.4,0.2
							c0.2,0.8,0.1,1.4-0.5,1.9l0,0l0,0l0,0c0,0,0,0,0,0L237.6,113.5L237.6,113.5z"/>
					</g>
					<g class="st6">
						<polygon points="246.8,124.3 246.6,101.5 246.8,101.5 246.8,124.3 						"/>
					</g>
					<g class="st6">
						<path d="M245.5,122.7c-0.2,0-0.2-20.8-0.2-20.8h0.2C245.4,101.9,245.5,122.7,245.5,122.7L245.5,122.7z"/>
					</g>
					<g class="st6">
						<polygon points="244,121.4 243.7,104.9 243.9,104.9 244,121.4 						"/>
					</g>
					<g class="st6">
						<polygon points="242.8,119.7 242.5,106.1 242.7,106.1 242.8,119.7 						"/>
					</g>
					<g class="st6">
						<polygon points="241.4,118.2 241.2,106.7 241.4,106.7 241.4,118.2 						"/>
					</g>
					<g class="st6">
						<polygon points="240,116.7 239.8,107.6 240,107.6 240,116.7 						"/>
					</g>
					<g class="st6">
						<polygon points="238.8,115.3 238.6,108.3 238.8,108.3 238.8,115.3 						"/>
					</g>
					<g class="st6">
						<path class="st9" d="M250.3,129.1l-12.8-14.3c0-0.1,0-0.1,0-0.2c0.1-0.1,0.1,0,0.2,0L250.3,129.1L250.3,129.1z"/>
					</g>
					<g class="st6">
						<path class="st9" d="M251.2,128.6c0,0-0.1,0-0.1,0c-0.1-0.1-0.2-0.2-0.1-0.3c5.2-10.1-0.4-22.4-0.4-22.6
							c-0.1-0.1,0-0.3,0.1-0.3c0.1-0.1,0.3,0,0.3,0.1c0.1,0.1,5.7,12.7,0.4,23C251.4,128.6,251.3,128.6,251.2,128.6L251.2,128.6z"/>
					</g>
					<g class="st6">
						<path class="st9" d="M236.1,112.3C236.1,112.3,236,112.3,236.1,112.3c-0.2-0.1-0.3-0.2-0.2-0.3c0-0.1,0.3-0.8,0.8-0.9
							c0,0,0.5,0.1,0.6,0.1c0.1,0.1,0.1,0.3,0,0.4c-0.1,0.1-0.3,0.1-0.4,0c-0.3,0-0.5,0.3-0.5,0.6
							C236.3,112.3,236.2,112.3,236.1,112.3L236.1,112.3z"/>
					</g>
					<g class="st6">
						<path class="st9" d="M234.1,112.5c-0.1,0-0.1,0-0.2-0.1c-0.3-0.3-0.5-0.7-0.5-1.2c0-1.2,1.4-2.5,1.5-2.5
							c0.1-0.1,0.3-0.1,0.4,0c0.1,0.1,0.1,0.3,0,0.4c0,0-1.3,1.1-1.3,2.2c0,0.3,0.1,0.6,0.3,0.8c0.1,0.1,0.1,0.3,0,0.4
							C234.2,112.4,234.1,112.5,234.1,112.5L234.1,112.5z"/>
					</g>
					<path class="st4" d="M0-0.3v9.4l149.1,74.6h18.8v-9.4L18.8-0.3H0z M167.9-0.3v9.4L18.8,83.6H0v-9.4L149.1-0.3H167.9z"/>
					<path class="st4" d="M70,83.6h28v-84H70V83.6z M0,55.6h167.9v-28H0V55.6z"/>
					<path class="st10" d="M0,50h167.9V33.3H0V50z M75.6,83.6h16.8v-84H75.6V83.6z"/>
					<path class="st10" d="M0,83.6l56-28h12.5l-56,28H0z M0-0.3l56,28H43.4L0,5.9V-0.3z M99.4,27.7l56-28h12.5l-56,28H99.4z
						 M167.9,83.6l-56-28h12.5l43.4,21.7V83.6z"/>
					<path class="st11" d="M253.5,77.1c0.8-0.7,1.3-1.2,1.8-1.1c0.5,0.1,1.2,0,1.8-0.1c0.5-0.2,3.1-0.5,4.2-0.1
						c0.4,0,0.8,0.3,1.6,0.9c0.7,0.6,1.8,1.7,1.5,4.7c-0.4,3-0.2,4.3-0.4,6c-0.3,3-0.9,5.4-2.1,5.2c1.6,2.8,1.8,5.2,2.8,7.2
						c1,1.9,1.7,5.9,1.3,10.2c-0.4,4.3-1.5,13.9,1.9,20.3c-0.6,0.4-1.9,0-3.2-1.3c-1.2-1.3-1.7-1.2-2.7-0.5
						c-3.1,2.3-5.9,5.2-10.2,2.3c-1-0.7-1.3-1.4-0.6-3.4c1.8-4.9,2.6-11.7,2.4-14.8V77.1z"/>
					<g class="st6">
						<path d="M255.1,132.1c-1.2,0-2.3-0.4-3.5-1.2c-0.9-0.6-1.4-1.4-0.6-3.5c1.8-4.9,2.6-11.6,2.4-14.8V77.1
							c0.9-0.8,1.3-1.2,1.8-1.2c1,0.1,1.4,0,1.9-0.1c0.6-0.2,3.4-0.4,4.3-0.1c0.4,0.1,1,0.3,1.6,0.9c0.6,0.5,1.9,1.6,1.5,4.8
							c-0.2,1.9-0.3,3.1-0.3,4.1c0,0.6,0,1.2-0.1,1.9c-0.2,2.4-0.8,5.3-2.1,5.3c0.9,1.5,1.3,2.9,1.7,4.2c0.3,1,0.6,2,1.1,2.8
							c1.2,2.1,1.7,6.2,1.3,10.2l-0.1,0.7c-0.5,4.7-1.3,13.5,1.9,19.6c-0.6,0.8-1.9,0.3-3.3-1.2c-1.2-1.3-1.7-1.2-2.6-0.5l-0.8,0.6
							C259.3,130.7,257.4,132.1,255.1,132.1L255.1,132.1z M255.2,76.1c-0.5,0-0.9,0.3-1.5,0.9l-0.2,35.7c0.3,3.2-0.6,10-2.4,14.9
							c-0.7,2-0.4,2.7,0.5,3.3c3.4,2.3,6.4,0.5,9.3-1.7l0.8-0.6c1-0.7,1.6-0.9,2.9,0.5c1,1.1,2.5,1.7,3,1.3c-3.3-6-2.4-14.8-2-19.6
							l0.1-0.7c0.4-4.6-0.3-8.4-1.3-10.1c-0.5-0.9-0.8-1.8-1.1-2.8c-0.4-1.3-0.8-2.8-1.8-4.4c1.1-0.1,1.8-2,2.1-5.3
							c0.1-0.6,0.1-1.2,0.1-1.9c0-1,0.1-2.3,0.3-4.1c0.4-3.1-0.9-4.2-1.4-4.7c-0.6-0.5-1.1-0.8-1.6-0.8c-1-0.3-3.7,0-4.2,0.1
							C256.6,76.1,255.8,76.2,255.2,76.1C255.3,76.1,255.3,76.1,255.2,76.1L255.2,76.1z"/>
					</g>
					<path class="st12" d="M256.4,74.1c0.2,0.7,0.3,1.6,0,2.4c-0.4,0.8-0.4,1.8,0.2,2.9c1-1.4,2.3-1.1,3.1-1.9
						c0.8-0.8,1-1.6,1.6-1.7c-0.6-0.5-1.5-1.1-1.3-2.6c0.2-1.5,2.3-2.8,0.4-5.1c-1.2-1.5-3.1-1.1-3.9-0.5c-0.4,0.3-0.7,0.7-0.8,0.9
						c-0.1,0.3,0,0.9-0.3,1.2c-0.2,0.2-0.5,0.5-0.7,0.7c-0.2,0.1-0.3,0.3-0.1,0.5c0.1,0.1,0.2,0.1,0.4,0.2c-0.1,0.2-0.2,0.4-0.3,0.5
						c-0.1,0.1-0.1,0.2,0.1,0.3c-0.1,0.5,0.1,0.5-0.1,0.9c-0.2,0.3-0.4,0.7,0.2,1C255.1,73.9,255.9,74.1,256.4,74.1L256.4,74.1z"/>
					<g class="st6">
						<path d="M256.5,79.6l-0.1-0.1c-0.5-1-0.6-2-0.2-3c0.3-0.8,0.2-1.6,0.1-2.2c0.4,0.7,0.4,1.5,0.1,2.2c-0.4,0.9-0.4,1.8,0.1,2.8
							c0.6-0.7,1.3-1,1.9-1.2c0.5-0.2,0.9-0.3,1.2-0.6c0.3-0.3,0.6-0.7,0.7-0.9c0.2-0.3,0.4-0.6,0.6-0.7c-0.1,0.3-0.3,0.5-0.5,0.8
							c-0.2,0.3-0.4,0.6-0.8,1c-0.4,0.3-0.8,0.5-1.3,0.7c-0.7,0.2-1.3,0.5-1.9,1.2L256.5,79.6L256.5,79.6z M261.1,75.6
							c-0.8-0.5-1.4-1.1-1.2-2.4c0.1-0.5,0.3-0.9,0.6-1.4c0.6-1,1.1-2.1-0.2-3.6c-1.6-1.9-3.1-0.9-3.7-0.5c-0.4,0.3-0.7,0.7-0.8,0.9
							c0,0.1-0.1,0.2-0.1,0.4c0,0.3,0,0.6-0.2,0.8c-0.2,0.3-0.5,0.5-0.7,0.7l-0.1,0.4l-0.3-0.2c0-0.1,0.1-0.2,0.2-0.3
							c0.3-0.2,0.5-0.4,0.7-0.7c0.2-0.2,0.2-0.5,0.2-0.7c0-0.2,0-0.3,0.1-0.5c0.1-0.3,0.5-0.7,0.8-1c0.6-0.5,2.3-1.5,4,0.5
							c1.4,1.7,0.7,2.8,0.2,3.8c-0.3,0.5-0.5,0.9-0.6,1.4C259.8,74.5,260.5,75.1,261.1,75.6C261.1,75.6,261.1,75.6,261.1,75.6
							L261.1,75.6z M256,74.1c-0.5,0-1-0.1-1.2-0.2c-0.3-0.1-0.4-0.3-0.5-0.5c-0.1-0.2,0.1-0.5,0.2-0.6c0-0.5,0-0.7,0.1-0.9
							c0.1-0.5,0.1-0.7,0.2-0.8l-0.2-0.2l0.3,0.2c-0.1,0.1-0.2,0.3-0.3,0.5c0,0.5,0,0.7,0.1,0.8c0,0.1,0.1,0.3-0.1,0.5
							c-0.1,0.2-0.2,0.4-0.2,0.6c0,0.1,0.2,0.3,0.4,0.4c0.1,0.1,0.8,0.2,1.3,0.2c0,0,0,0.1,0.1,0.1C256.2,74.1,256.1,74.1,256,74.1
							L256,74.1z"/>
					</g>
					<path class="st12" d="M248.5,82.1c-1.1,0.3-2.9-0.2-4.3,0c-0.6,0.1-1.1-0.3-1-0.9c0.1-0.6,0.2-1.5,0-2.4
						c-0.2-1.3,0.4-3.2,1.3-5.2c0.9-2,1.3-3.1,1.3-4.1c0-0.6,0.1-1.3,0.6-1.7c0.4-0.3,0.5-0.5,0.7-0.7c0.3-0.5,0.7-0.6,0.7-0.3
						c0,0.2,0,0.3-0.2,0.6c0.4-0.3,1-0.7,1.1-0.8c0.1-0.1,0.9-0.6,0.9-0.1c0.3-0.1,0.5-0.1,0.5,0c0.1,0.2,0,0.2-0.1,0.3
						c0.2,0,0.4,0.3,0,0.6c0.2-0.1,0.4,0.3,0.1,0.6c-0.4,0.3-0.8,0.6-1,0.8c-0.1,0.3-1.1,1-1.5,1.2c-0.4,0.2-0.4,0.4-0.4,0.9
						c0,6.2-0.7,5.7-0.7,7.2c0,0.4-0.1,0.8,0.3,0.6c0.4-0.1,1-0.3,1.6-0.3V82.1z"/>
					<g class="st6">
						<path d="M247.6,82.3c-0.4,0-0.9,0-1.3-0.1c-0.7-0.1-1.4-0.1-2.1-0.1c-0.5,0-0.8-0.1-0.9-0.3c-0.1-0.2-0.2-0.4-0.2-0.7
							c0.1-0.6,0.1-1.5,0-2.4c-0.2-1.4,0.6-3.4,1.3-5.2c0.9-2.1,1.3-3.2,1.3-4.1c0-0.7,0.1-1.4,0.7-1.8c0.3-0.2,0.4-0.4,0.5-0.6
							c0.3-0.5,0.5-0.7,0.7-0.7c0.2,0.3,0.2,0.5,0.1,0.7c0.2-0.2,0.5-0.4,0.7-0.6c0.4-0.3,0.7-0.5,1-0.5l0.5,0.1
							c0.3,0.3,0.3,0.5,0.2,0.6l-0.1-0.3l-0.1,0.1l-0.4-0.1c-0.2-0.1-0.5,0-0.8,0.2c-0.5,0.3-0.9,0.5-1.1,0.8c0-0.4,0.1-0.5,0.1-0.6
							c-0.2-0.1-0.4,0-0.6,0.4c-0.2,0.3-0.3,0.5-0.7,0.8c-0.5,0.3-0.6,1-0.6,1.6c0,0.9-0.4,2-1.3,4.1c-0.8,1.8-1.5,3.7-1.3,5.1
							c0.1,0.8,0,1.8,0,2.4c0,0.2,0,0.4,0.1,0.5c0.1,0.2,0.4,0.2,0.6,0.2c1.1-0.1,1.5,0,2.2,0c0.9,0.1,1.7,0.1,2.2,0l-0.1-3.4
							c-0.5,0.1-1,0.2-1.4,0.4l-0.4,0c-0.1-0.1-0.1-0.3-0.1-0.5c0-0.7,0.1-1,0.2-1.3c0.2-0.7,0.6-1.9,0.6-6c0-0.6,0-0.8,0.5-1
							c0.4-0.2,1.3-0.9,1.4-1.1c0.1-0.2,0.3-0.3,0.6-0.5c0.1-0.1,0.3-0.2,0.4-0.3c0.2-0.1,0.2-0.3,0.2-0.4c0,0,0,0,0,0
							c0.2,0.2,0.1,0.4-0.1,0.5c-0.1,0.1-0.3,0.2-0.4,0.3c-0.2,0.2-0.4,0.3-0.5,0.5c-0.1,0.3-1.1,1-1.5,1.2
							c-0.3,0.1-0.4,0.3-0.4,0.9c0,4.2-0.3,5.3-0.6,6.1c-0.1,0.4-0.2,0.6-0.2,1.1l0,0.6c0.7-0.1,1.2-0.3,1.8-0.3l0.1,3.6
							C248.3,82.3,248,82.3,247.6,82.3L247.6,82.3z"/>
					</g>
					<path class="st12" d="M248.8,95.5c1.8-0.9,3.9-1.2,5-1.5c1.1-0.3,2.8-1.1,3.7-1.6c0.8-0.5,1.5-1.1,2-1.2c0.5-0.2,1-0.5,1.3-1.1
						c1.6-3.1,2.4-5.5,2.4-7.7c0-1.4-0.4-3-1.7-1.9c-1.3,1.1-2.7,3.1-3.1,4.6c-0.6,2.3-1,2.7-1.2,3.2c-0.1,0.4-0.6,0.4-1.1,0.6
						c-2.4,0.5-2.9,0.9-4.7,2.2c-1.8,1.3-3.7,2.5-5,3.2c-1.3,0.7-1.5,0.8-1.8,1.4c-0.3,0.6-0.5,1-0.8,1.3c-0.2,0.3-0.3,0.6-0.3,0.9
						c0,0.3-0.1,1.5-0.1,1.9c0,0.4,0.1,0.5,0.2,0.5c0.2,0,0.4-0.1,0.5-0.5c-0.1,0.5,0.6,0.3,0.6,0c0,0.5,0.7,0.2,0.7-0.3
						c0,0.3,0.5,0.1,0.6-0.1c0.1-0.4,0.2-0.8,0.4-1.2c0.2-0.5,0.5-1.1,0.9-1.4C247.9,96.5,247.7,96,248.8,95.5L248.8,95.5z"/>
					<g class="st6">
						<path d="M243.7,100.4L243.7,100.4c-0.4,0-0.4-0.3-0.4-0.6l0-0.5c0-0.5,0.1-1.2,0.1-1.4c-0.1-0.4,0-0.7,0.3-1
							c0.2-0.2,0.5-0.7,0.8-1.3c0.3-0.5,0.5-0.7,1.5-1.2l0.4-0.2c0.8-0.5,3-1.7,5-3.2c1.8-1.3,2.3-1.7,4.7-2.2
							c0.7-0.1,1-0.2,1.1-0.5c0-0.1,0.1-0.3,0.2-0.5c0.2-0.4,0.6-1.1,1-2.7c0.4-1.4,1.8-3.5,3.1-4.6c1.5-1.2,1.9,1,1.9,1.9
							c0,2.1-0.8,4.4-2.4,7.7c-0.4,0.7-1,1-1.4,1.1c-0.3,0.1-0.6,0.3-0.9,0.5c-0.3,0.2-0.7,0.5-1.1,0.7c-1.1,0.6-2.7,1.3-3.7,1.6
							l-0.8,0.2c-1.2,0.3-2.7,0.6-4.2,1.3c-0.6,0.3-0.8,0.6-1,0.9c-0.1,0.2-0.2,0.3-0.4,0.5c-0.4,0.3-0.6,0.8-0.8,1.2
							c-0.2,0.4-0.3,0.7-0.4,1.1c-0.1,0.4-0.4,0.6-0.6,0.6l0,0c-0.1,0.1-0.4,0.4-0.7,0.4l-0.3-0.4c0.1,0.3-0.1,0.4-0.3,0.4l-0.3-0.4
							c0.4,0.2,0.6,0.1,0.6,0c0.5,0.2,0.7,0,0.7-0.3l0.7-0.1l-0.1,0c0.2-0.6,0.3-0.9,0.4-1.2c0.3-0.6,0.6-1.1,1-1.4
							c0.2-0.1,0.3-0.3,0.4-0.4c0.2-0.3,0.3-0.6,1-0.9c1.4-0.7,3-1.1,4.2-1.3l0.8-0.2c1-0.3,2.6-1,3.6-1.6c0.4-0.2,0.7-0.4,1.1-0.7
							c0.4-0.3,0.7-0.5,1-0.6c0.3-0.1,0.9-0.4,1.3-1c1.7-3.3,2.4-5.6,2.4-7.6c0-0.7-0.2-2.9-1.6-1.8c-1.3,1.1-2.7,3.1-3,4.6
							c-0.4,1.6-0.8,2.3-1,2.8c-0.1,0.2-0.2,0.3-0.2,0.4c-0.1,0.4-0.5,0.5-0.9,0.6c-2.6,0.6-3.2,0.9-5,2.3c-2,1.5-4.2,2.8-5,3.2
							l-0.4,0.2c-0.9,0.5-1.2,0.6-1.4,1.1c-0.3,0.6-0.6,1.1-0.8,1.3c-0.2,0.2-0.3,0.5-0.2,0.8c0,0.2,0,0.9-0.1,1.4l0,0.5
							c0,0.4,0.1,0.4,0.2,0.4l0,0c0.2,0,0.3-0.3,0.3-0.5C244.1,100.3,243.8,100.4,243.7,100.4L243.7,100.4z"/>
					</g>
					<path class="st12" d="M261.8,128.5c0.1,0.4,0.4,0.9,0.4,1.3c0.1,0.3-0.1,0.4-0.1,0.6c-0.4,0.9-0.9,2.3-0.9,3.1
						c0,0.4-0.3,0.9-0.5,1.1c-0.2,0.3-0.1,0.5,0.3,0.8c0.2,0.1,0.7,0,0.8-0.3c0.2,0.2,0.6,0.1,0.7-0.2c0.2,0.2,0.5,0.1,0.7-0.2
						c0.2,0.1,0.4-0.1,0.5-0.3c0.3,0.1,0.6,0,0.6-0.6c0-0.1,0.1-0.3,0.2-0.4c0.1-0.1,0.1-0.4,0.1-0.6c0-0.2,0.1-0.7,0.3-1
						c0.2-0.3,0.5-0.9,0.4-1.4c-0.1-0.5-0.3-0.4-0.5-1.1c-0.4-0.5-1-1.1-1.7-1.2C262.4,128,262.1,128.4,261.8,128.5L261.8,128.5z"/>
					<g class="st6">
						<path d="M261.1,135.5l-0.2-0.1c-0.4-0.3-0.5-0.6-0.3-0.9c0.2-0.4,0.5-0.8,0.5-1.1c0.1-0.7,0.5-2.2,1-3.1l0.1-0.5
							c0-0.1-0.1-0.3-0.2-0.5c-0.1-0.2-0.2-0.5-0.2-0.7c0.4-0.4,0.7-0.6,1.2-0.6c0.7,0.1,1.3,0.7,1.8,1.2c0.1,0.4,0.2,0.6,0.3,0.7
							c0.1,0.1,0.2,0.2,0.2,0.5c0.1,0.6-0.2,1.1-0.4,1.4c-0.2,0.3-0.3,0.8-0.3,0.9c0,0.2,0,0.5-0.1,0.7c-0.1,0.1-0.1,0.3-0.1,0.4
							c0,0.5-0.3,0.7-0.5,0.7c-0.2,0.1-0.4,0.3-0.6,0.3c-0.2,0.2-0.4,0.3-0.6,0.3c-0.3,0.1-0.5,0.2-0.7,0.2
							C261.8,135.3,261.4,135.5,261.1,135.5L261.1,135.5z M263,128.1c-0.5,0-0.8,0.2-1,0.4c-0.1,0.3,0,0.5,0.1,0.7
							c0.1,0.2,0.2,0.4,0.2,0.6c0.1,0.3,0,0.4-0.1,0.5c-0.5,1-0.9,2.4-1,3.1c0,0.4-0.3,0.7-0.4,1c-0.2,0.4-0.2,0.6,0.2,0.8l0.1,0
							c0.2,0,0.5-0.1,0.5-0.3c0.5,0,0.7-0.1,0.7-0.2c0.4,0.1,0.6-0.1,0.7-0.2c0.3,0,0.5-0.2,0.5-0.3c0.6,0,0.6-0.2,0.6-0.5
							c0-0.1,0.1-0.3,0.2-0.5c0.1-0.1,0.1-0.3,0.1-0.6c0-0.2,0.1-0.7,0.3-1c0.2-0.3,0.5-0.8,0.4-1.3c-0.1-0.2-0.1-0.3-0.2-0.4
							c-0.1-0.1-0.2-0.3-0.3-0.7C264.2,128.8,263.6,128.1,263,128.1C263,128.1,263,128.1,263,128.1L263,128.1z"/>
					</g>
					<path class="st12" d="M250.4,132c0.6,0.6,1.8,0.6,2.7-0.4c-0.3-0.1-1-0.5-1.3-0.7C251.3,131.4,250.8,131.9,250.4,132L250.4,132
						z"/>
					<g class="st6">
						<path d="M251.4,132.5c-0.4,0-0.9-0.1-1.1-0.4c0.4-0.3,0.9-0.8,1.4-1.2c0.4,0.2,1.1,0.6,1.4,0.7
							C252.7,132.2,252.1,132.5,251.4,132.5L251.4,132.5z M251.7,131c-0.3,0.4-0.8,1-1.3,1.1c0.3,0.1,0.6,0.2,1,0.2l0,0
							c0.6,0,1.2-0.3,1.6-0.7C252.7,131.6,252,131.2,251.7,131L251.7,131z"/>
					</g>
					<path class="st13" d="M256.1,67.9c0.2-1.4,1.2-1.4,1.9-1.3c0.3,0.1,0.9,0.1,1.5,0c1.2-0.3,2.1,0.1,2,1.2
						c0.3,0.2,0.7,0.8,0.6,1.3c-0.1,0.5,0,0.7,0.5,0.7c0.4,0.1,1.4,0.6,0.8,1.4c0.6,0.4,1.1,1.3,0.7,1.9c-0.3,0.6-1.3,0.7-1.7,0.2
						c-0.5,0.2-1.2,0.2-1.6-0.2c-0.3,0.4-1.1,0.3-1.2,0c-0.1-0.3-0.4-0.5-0.7-0.6c-0.3-0.1-0.3-1,0.1-1.1c-0.1-0.3,0-0.6,0.1-0.7
						c0.1-0.1,0-0.4-0.3-0.6c-0.3-0.2-0.5-1.1-0.2-1.5c-0.5,0.2-1.6-0.3-1.8-0.6C256.6,67.6,256.3,67.6,256.1,67.9L256.1,67.9z"/>
					<g class="st6">
						<path d="M263.1,73.8c-0.4,0-0.7-0.2-0.8-0.4c-0.3,0.3-1,0.4-1.6-0.2c-0.1,0.4-1.1,0.3-1.2,0c-0.1-0.3-0.3-0.5-0.6-0.5
							c-0.2-0.1-0.3-0.4-0.3-0.6c0-0.3,0.2-0.6,0.4-0.6c-0.1-0.2-0.1-0.5,0-0.7c0-0.2-0.1-0.4-0.2-0.5c-0.3-0.2-0.5-0.8-0.4-1.3
							c0.1,0.5,0.3,1,0.5,1.2c0.2,0.2,0.3,0.3,0.3,0.5c-0.2,0.3-0.2,0.6-0.1,0.9c-0.3,0.1-0.4,0.4-0.4,0.6c0,0.2,0.1,0.4,0.2,0.5
							c0.3,0.1,0.6,0.3,0.7,0.6c0.1,0.3,0.8,0.3,1.1,0c0.7,0.5,1.2,0.4,1.6,0.2c0.6,0.5,1.4,0.4,1.7-0.1c0.3-0.6-0.1-1.5-0.7-1.8
							c0.2-0.3,0.2-0.6,0.1-0.8c-0.1-0.3-0.6-0.6-0.9-0.6c-0.5-0.1-0.6-0.4-0.6-0.8c0-0.4-0.3-1-0.6-1.2c0-0.5-0.1-0.8-0.3-1
							c-0.3-0.4-0.9-0.4-1.6-0.2c-0.6,0.1-1.4,0.1-1.6,0c-1-0.2-1.6,0.1-1.8,1.1l-0.2,0c0.2-1.1,0.8-1.6,2-1.3c0.1,0,0.9,0.1,1.5,0
							c0.8-0.2,1.4-0.1,1.8,0.3c0.2,0.2,0.3,0.6,0.3,1c0.3,0.2,0.7,0.8,0.6,1.3c-0.1,0.5,0,0.6,0.4,0.7c0.3,0,0.8,0.3,1,0.7
							c0.1,0.2,0.1,0.5-0.2,0.8c0.6,0.3,1.1,1.2,0.8,1.9C263.9,73.5,263.5,73.8,263.1,73.8L263.1,73.8z M258.1,68.5
							c-0.6,0-1.2-0.3-1.4-0.6c-0.1-0.1-0.2-0.2-0.3-0.2l-0.1,0c0.3-0.1,0.4,0,0.5,0.1c0.2,0.3,1,0.6,1.5,0.6c0,0,0,0,0,0
							C258.3,68.5,258.2,68.5,258.1,68.5L258.1,68.5z"/>
					</g>
					<g class="st6">
						<path d="M256.4,74.2l0-0.2c0.4,0,0.6-0.2,0.8-0.3c0.2-0.1,0.5-0.2,0.8-0.2c-0.3,0.1-0.5,0.3-0.7,0.4
							C257,74,256.8,74.1,256.4,74.2L256.4,74.2z"/>
					</g>
					<g class="st6">
						<path class="st14" d="M254.7,71.9c0.1,0,0.1,0.1,0.2,0.1c0.2,0.1,0.3,0.1,0.5,0.1L254.7,71.9z"/>
					</g>
					<g class="st6">
						<path class="st14" d="M254.9,71.1c0.1,0,0.2,0.1,0.3,0.2L254.9,71.1z"/>
					</g>
					<g class="st6">
						<path d="M259.4,68.1c-0.2,0-0.5-0.1-0.6-0.2c-0.5-0.5-1.1-0.8-1.6-0.6c-0.2,0.1-0.4,0.2-0.4,0.3l0,0.3l-0.1-0.4
							c0.1-0.2,0.3-0.4,0.5-0.5c0.6-0.2,1.2,0.1,1.8,0.6c0.2,0.2,0.8,0.2,1,0.2C259.8,68,259.6,68.1,259.4,68.1L259.4,68.1z"/>
					</g>
					<g class="st6">
						<path d="M262.8,71.5C262.8,71.5,262.8,71.5,262.8,71.5c-0.5-0.1-0.9-0.5-1.3-1.3c-0.2-0.4-0.4-0.5-0.6-0.5
							c-0.2-0.1-0.4-0.2-0.6-0.5c-0.3-0.8-1.5-0.5-1.7-0.5l0-0.2c0.7-0.2,1.6-0.1,1.9,0.6c0.1,0.3,0.3,0.4,0.5,0.4
							c0.2,0.1,0.5,0.2,0.7,0.6c0.4,0.8,0.8,1.2,1.1,1.2c0.2,0,0.3,0,0.5-0.2C263.2,71.4,263,71.5,262.8,71.5L262.8,71.5z"/>
					</g>
					<g class="st6">
						<path d="M260.7,73.1c-0.2-0.3-0.3-0.8-0.2-1.2c-0.3-0.2-0.1-0.9,0-1.2c0,0.3-0.1,0.9,0.1,1.1c-0.1,0.4,0,0.9,0.1,1.1
							L260.7,73.1L260.7,73.1z"/>
					</g>
					<g class="st6">
						<path class="st14" d="M259,71.4c0,0.2,0.3,0.7,0.8,0.8L259,71.4z"/>
					</g>
					<g class="st6">
						<path class="st14" d="M262.3,73.3c-0.3-0.4-0.3-0.7-0.2-1.1L262.3,73.3z"/>
					</g>
					<g class="st6">
						<path d="M260.9,71c-0.6,0-0.9-0.4-1-0.6c-0.4-0.1-0.6-0.7-0.6-1l0.2,0c0,0.3,0.2,0.8,0.5,0.9c0.1,0.2,0.6,0.8,1.3,0.7
							C261.1,71,261,71,260.9,71L260.9,71z"/>
					</g>
					<g class="st6">
						<path d="M261.4,67.9c-0.5-0.4-1.1-0.8-1.8-0.9c0.8-0.1,1.4,0.4,1.9,0.7L261.4,67.9L261.4,67.9z"/>
					</g>
					<g class="st6">
						<path d="M255.3,89.2c1.2-1.3,0.7-3.8,0.4-5.6c-0.3-1.7,0-3.1,0.8-4.2l0.1,0.1c-0.8,1.1-1.1,2.4-0.8,4
							C256.1,85.4,256.6,88,255.3,89.2L255.3,89.2z"/>
					</g>
					<g class="st6">
						<path d="M257.3,93.5c-0.4,0-0.9-0.1-1.3-0.3c0.9,0.3,2,0.2,2.7-0.3c0.7-0.5,2.1-0.6,3-0.3l0,0.2c-0.9-0.2-2.2-0.2-2.9,0.3
							C258.4,93.3,257.8,93.5,257.3,93.5L257.3,93.5z"/>
					</g>
					<g class="st6">
						<path d="M258.6,100.6c-0.4-1.4-0.3-2.9-0.2-4.2c0-0.6,0.1-1.1,0.1-1.6c0-1.5,0.4-2.1,1.2-2.3l0,0.2c-0.7,0.1-1.1,0.5-1.1,2.1
							c0,0.5,0,1-0.1,1.6C258.5,97.7,258.5,99.1,258.6,100.6L258.6,100.6z"/>
					</g>
					<g class="st6">
						<path d="M257.4,94.8c-0.3-1.4,0.3-1.5,0.7-1.6l0.2,0.1l-0.1,0C257.8,93.4,257.4,93.5,257.4,94.8L257.4,94.8z"/>
					</g>
					<g class="st6">
						<path d="M255.7,94.8l-0.2,0c0-0.7,0.2-1.3,0.5-1.5c0.1-0.1,0.3-0.1,0.5-0.1l-0.4,0.2C255.9,93.6,255.7,94.2,255.7,94.8
							L255.7,94.8z"/>
					</g>
					<g class="st6">
						<path d="M264.9,115.5c-0.5-1-0.5-2.9-0.6-5.1c-0.1-3-0.2-6.8-1-9.6c-0.1-0.5-0.3-0.9-0.4-1.3c-0.4-1.1-0.7-2-0.9-3.7
							c-0.2-2.1-0.5-2.8-0.9-3c0.3,0.4,0.4,1.1,0.4,2.2h-0.2c0-1.2-0.1-1.9-0.4-2.2c-0.1-0.1-0.2-0.1-0.3-0.2c0,0-0.1,0-0.1,0
							c0.2-0.1,0.3-0.1,0.5,0c0.6,0.1,1,0.7,1.2,3.2c0.2,1.7,0.5,2.6,0.9,3.7c0.1,0.4,0.3,0.8,0.4,1.3c0.9,2.8,1,6.6,1,9.6
							C264.6,112.5,264.6,114.4,264.9,115.5L264.9,115.5z"/>
					</g>
					<g class="st6">
						<path d="M263.9,122.8c-0.3-1.1-1-2.8-1.9-4.9c-0.6-1.5-1.3-3.1-2-5c2.6-8.1,1.6-13.1,0.2-17.3l0.2-0.1
							c1.4,4.2,2.4,9.2-0.2,17.3c0.7,1.8,1.4,3.5,2,5C263,120,263.7,121.6,263.9,122.8L263.9,122.8z"/>
					</g>
					<g class="st6">
						<path d="M255.5,106.1l-0.2,0c0.1-0.3,0-0.6,0-0.9c-0.1-0.6-0.4-1.5,0.2-3.8c0.4-1.5,0.4-2.4,0.2-2.9c0.4,0.4,0.3,1.4-0.1,2.9
							c-0.6,2.3-0.4,3.1-0.2,3.7C255.6,105.4,255.6,105.7,255.5,106.1L255.5,106.1z"/>
					</g>
					<g class="st6">
						<path d="M256.3,107.2c0.3-1.2,0-2.7-0.3-4c-0.2-1-0.4-2-0.3-2.7l0.2,0c-0.1,0.7,0,1.6,0.3,2.6
							C256.4,104.4,256.7,106,256.3,107.2L256.3,107.2z"/>
					</g>
					<g class="st6">
						<path d="M258.8,130.9c0.5-0.5,0.5-1.6,0.5-2.4c0-0.2,0-0.5,0-0.6c0.2-4.3-1.3-7.5-3.7-12.4l-0.4-0.7c-0.5-0.9-0.8-1.5-0.7-2.6
							c0-0.8,0-1.7-0.1-2.5c-0.1-0.7-0.1-1.4-0.1-2h0.2c0,0.6,0.1,1.3,0.1,2c0.1,0.9,0.2,1.8,0.1,2.5c-0.1,1.1,0.3,1.7,0.7,2.5
							l0.4,0.7c2.4,4.9,3.9,8.1,3.7,12.5c0,0.2,0,0.4,0,0.6C259.5,129.4,259.6,130.5,258.8,130.9L258.8,130.9z"/>
					</g>
					<g class="st6">
						<path d="M254.4,132.1C254.4,132.1,254.4,132.1,254.4,132.1l0-0.2c0.1,0,0.4-0.1,0.7-0.8c0.3-0.7,1.3-5,0.9-8
							c0.6,3-0.4,7.4-0.7,8.1C255,131.8,254.8,132.1,254.4,132.1L254.4,132.1z"/>
					</g>
					<g class="st6">
						<path d="M256.1,130.8c0.5-1.6,0.4-3.5,0.3-4.3l0.2,0C256.7,127.3,256.8,129.3,256.1,130.8L256.1,130.8z"/>
					</g>
					<g class="st6">
						<path d="M258.2,128.7c0.2-1.4,0.1-3.2-0.2-5l0.2,0C258.5,125.5,258.5,127.4,258.2,128.7L258.2,128.7z"/>
					</g>
					<g class="st6">
						<path d="M257.1,131.8c0.4-0.3,0.2-1.6,0.2-2.4l-0.1-0.6l0.2,0l0.1,0.6C257.5,130.4,257.6,131.6,257.1,131.8L257.1,131.8z"/>
					</g>
					<g class="st6">
						<path d="M264.3,128.6c-0.8-0.5-1.4-2.4-2.1-4.4c-0.6-1.8-1.2-3.7-2-4.8l0.1-0.1c0.7,1.1,1.3,3,2,4.8
							C263,126.1,263.6,128,264.3,128.6L264.3,128.6z"/>
					</g>
					<g class="st6">
						<path d="M261.5,127.7L261.5,127.7c0-0.7-0.1-1.5-0.4-1.9c0.5,0.3,0.5,1.1,0.6,1.8L261.5,127.7L261.5,127.7z"/>
					</g>
					<g class="st6">
						<path class="st14" d="M245.5,99.5c0-0.5-0.1-0.9,0.4-1.6L245.5,99.5z"/>
					</g>
					<g class="st6">
						<path d="M244.7,99.8l-0.1-0.3c0.1-1.3,0.1-1.5,0.5-1.9c-0.3,0.5-0.3,0.6-0.3,1.9L244.7,99.8L244.7,99.8z"/>
					</g>
					<g class="st6">
						<path d="M244.2,99.8H244v-0.7c0-0.6,0-1,0.3-1.6c-0.2,0.6-0.2,0.9-0.2,1.6L244.2,99.8L244.2,99.8z"/>
					</g>
					<g class="st6">
						<path class="st14" d="M249.7,66.5c-0.2,0.1-1.2,0.9-1.6,1.2L249.7,66.5z"/>
					</g>
					<g class="st6">
						<path d="M248.4,68.2l0.3-0.4c0.9-0.7,1.2-1,1.4-1l0,0.2c-0.1,0-0.6,0.4-1.3,1L248.4,68.2L248.4,68.2z"/>
					</g>
					<g class="st6">
						<path d="M248.7,68.7c0.1-0.3,0.4-0.5,0.6-0.7c0.3-0.3,0.6-0.5,0.8-0.6l0.1,0.1c-0.2,0.1-0.4,0.3-0.7,0.5
							C249.2,68.3,249,68.5,248.7,68.7L248.7,68.7z"/>
					</g>
					<g class="st6">
						<path class="st14" d="M247.7,67.4c-0.2,0.1-0.4,0.4-0.6,0.5L247.7,67.4z"/>
					</g>
					<g class="st6">
						<path class="st14" d="M261.7,135c-0.1-0.1-0.1-0.5,0.1-0.9L261.7,135z"/>
					</g>
					<g class="st6">
						<path class="st14" d="M262.5,134.8c-0.1-0.1,0-0.6,0.1-0.9L262.5,134.8z"/>
					</g>
					<g class="st6">
						<path class="st14" d="M263.2,134.6c-0.1-0.1-0.2-0.3,0-0.7L263.2,134.6z"/>
					</g>
					<g class="st6">
						<path class="st14" d="M263.7,134.3c-0.1,0-0.1-0.2,0-0.6L263.7,134.3z"/>
					</g>
					<path class="st6" d="M255.8,69.1c0.3,0.4,0.6,0.3,0.6,0.6c0.1,0.3,0.1,0.3,0.1,0.3c0.1,0.1-0.1,0.1-0.2,0c-0.1,0-0.3,0-0.5,0
						c-0.1,0-0.3-0.2-0.2-0.2c0.1,0,0.1-0.1,0.1-0.1c0-0.1,0.1-0.2,0.1-0.2c0,0,0,0,0-0.1C255.7,69.3,255.7,69.1,255.8,69.1
						L255.8,69.1z"/>
					<path class="st6" d="M255.9,68.8c0.3,0,0.9,0.2,1.2,0.6c0.2,0.3,0,0.2-0.1,0.2c-0.1,0-0.4-0.1-0.5-0.2
						c-0.1-0.2-0.5-0.3-0.7-0.4C255.8,68.9,255.7,68.8,255.9,68.8L255.9,68.8z"/>
				</g>
			</g>
		</g>
		<g class="st0">
			<g>
				<defs>
					<rect id="SVGID_7_" x="-111.1" y="-2.3" width="522.2" height="304.6"/>
				</defs>
				<clipPath id="SVGID_8_">
					<use xlink:href="#SVGID_7_"  style="overflow:visible;"/>
				</clipPath>
				<rect x="-111.1" y="-2.3" class="st15" width="522.2" height="76.2"/>
				<rect x="-111.1" y="73.8" class="st16" width="522.2" height="152.3"/>
				<rect x="-111.1" y="226.2" class="st17" width="522.2" height="76.2"/>
				<polygon class="st15" points="131.7,95.2 204.8,168.3 95.2,168.3 168.3,95.2 168.3,204.8 95.2,131.7 204.8,131.7 131.7,204.8 
									"/>
				<path class="st18" d="M127.2,127.2l45.7,45.7L127.2,127.2z M127.2,172.8l45.7-45.7L127.2,172.8z"/>
				<g class="st18">
					<polygon class="st19" points="171.2,174.5 150,153.2 128.8,174.5 125.5,171.2 146.8,150 125.5,128.8 128.8,125.5 150,146.8 
						171.2,125.5 174.5,128.8 153.2,150 174.5,171.2 171.2,174.5 					"/>
				</g>
			</g>
		</g>
		<g class="st0">
			<g>
				<defs>
					<rect id="SVGID_9_" x="-107.1" y="0" width="514.3" height="300"/>
				</defs>
				<clipPath id="SVGID_10_">
					<use xlink:href="#SVGID_9_"  style="overflow:visible;"/>
				</clipPath>
				<rect x="-107.1" y="0" class="st20" width="514.3" height="75"/>
				<rect x="-107.1" y="75" class="st21" width="514.3" height="150"/>
				<rect x="-107.1" y="225" class="st22" width="514.3" height="75"/>
				<polygon class="st20" points="132,96 204,168 96,168 114,150 168,96 168,204 96,132 204,132 132,204 				"/>
				<path class="st23" d="M127.5,127.5l45,45L127.5,127.5z M127.5,172.5l45-45L127.5,172.5z"/>
				<g class="st23">
					<polygon class="st19" points="170.9,174.1 150,153.2 129.1,174.1 125.9,170.9 146.8,150 125.9,129.1 129.1,125.9 150,146.8 
						170.9,125.9 174.1,129.1 153.2,150 174.1,170.9 170.9,174.1 					"/>
				</g>
			</g>
		</g>
		<g class="st0">
			<g>
				<defs>
					<rect id="SVGID_11_" x="-107.1" y="-0.1" width="514.4" height="300.1"/>
				</defs>
				<clipPath id="SVGID_12_">
					<use xlink:href="#SVGID_11_"  style="overflow:visible;"/>
				</clipPath>
				<rect x="-107.1" y="-0.1" class="st24" width="514.4" height="300.1"/>
				<polygon class="st25" points="129.6,125.9 63.4,126 138.8,183.5 150.1,174.9 104.4,140 125.3,139.9 				"/>
				<polygon class="st25" points="170.6,125.9 150.1,59.7 121.3,152.9 132.6,161.5 150.1,105.1 156.6,125.9 				"/>
				<polygon class="st25" points="183.2,166.9 236.8,125.9 143.6,125.9 139.3,139.9 195.8,139.9 178.9,152.9 				"/>
				<polygon class="st25" points="150.1,192.2 203.7,233.1 174.9,139.9 160.9,139.9 178.4,196.4 161.4,183.6 				"/>
				<polygon class="st25" points="116.9,166.9 96.5,233.1 171.9,175.5 167.6,161.5 121.9,196.5 128.3,175.5 				"/>
			</g>
		</g>
		<g class="st0">
			<g>
				<defs>
					<rect id="SVGID_13_" y="-0.5" width="515.2" height="300.5"/>
				</defs>
				<clipPath id="SVGID_14_">
					<use xlink:href="#SVGID_13_"  style="overflow:visible;"/>
				</clipPath>
				<rect y="-0.5" class="st26" width="515.2" height="300.5"/>
				<rect y="-0.5" class="st27" width="515.2" height="103.3"/>
				<rect y="-0.5" class="st28" width="515.2" height="93.9"/>
				<rect y="196.6" class="st27" width="515.2" height="103.4"/>
				<rect y="206.1" class="st29" width="515.2" height="93.9"/>
				<polygon class="st30" points="0,-0.5 0,300 197.2,149.8 				"/>
				<polygon class="st29" points="102.4,206.1 65.7,179.3 29.1,206.1 43.3,163 6.5,136.5 51.9,136.6 65.7,93.4 79.6,136.7 
					125,136.5 88.2,163 				"/>
				<g class="st26">
					<defs>
						<rect id="SVGID_15_" y="-0.5" width="515.2" height="300.5"/>
					</defs>
					<clipPath id="SVGID_16_">
						<use xlink:href="#SVGID_15_"  style="overflow:visible;"/>
					</clipPath>
					<path class="st31" d="M33.9,176h26.4c2.1,2.4,6.9,3.3,11.4,0c8.3-4.5,24.3,0,24.3,0l3.1-3.4l-7.7-25.2l-2.8-3
						c0,0-5.9-3.5-17.1-2.4c-11.2,1.2-15.2-0.4-15.2-0.4s-9.8,1.2-12.6,2.6c-0.3,0.2-3.1,3.2-3.1,3.2L33.9,176z"/>
					<g class="st32">
						<path d="M65.6,178.5L65.6,178.5c-2.2,0-4.2-0.8-5.5-2.3l-26.2,0.1l6.4-28.9c0.1-0.1,3-3.1,3.3-3.3c2.8-1.4,12.4-2.6,12.8-2.6
							c0.2,0,4.2,1.5,15.2,0.4c11.2-1.2,17.1,2.3,17.3,2.4l2.8,3l7.8,25.3l-3.2,3.7c-0.3,0.2-7.5-1.9-14.6-1.9c-4.1,0-7.4,0.7-9.8,2
							C69.9,177.7,67.7,178.5,65.6,178.5L65.6,178.5z M60.3,175.7c1.4,1.4,3.3,2.2,5.3,2.2l0,0c2,0,4.1-0.7,5.9-2.1
							c2.5-1.4,5.9-2.1,10.1-2.1c7.2,0,14.4,2,14.4,2l2.8-3.3l-7.8-24.9l-2.7-2.8l0,0c0,0-6-3.4-16.9-2.3
							c-11.2,1.2-15.2-0.4-15.3-0.4c0.1,0-9.7,1.2-12.3,2.5c-0.2,0.2-3.1,3.1-3.1,3.1l-6.6,28.4L60.3,175.7L60.3,175.7z"/>
					</g>
					<g class="st32">
						<path d="M65.4,178.5c-1.9,0-3.7-0.7-5.5-2c0.5-1,2.4-2.9,5.8-4.7c-10-4-26.3-2-26.5-2c-0.2,0.1-0.3-0.1-0.4-0.3
							c0-0.2,0.1-0.3,0.3-0.3c0.8-0.1,17-2.1,27.1,2.4c5-2.3,13-4.1,24.4-2.6c0.2,0,0.3,0.2,0.3,0.4c0,0.2-0.2,0.3-0.4,0.3
							c-11.3-1.6-18.9,0.2-23.7,2.3c2,1,3.8,2.3,5.1,3.9C69.7,177.6,67.5,178.5,65.4,178.5L65.4,178.5z M66.5,172.1
							c-4.3,2-6,4.2-6.1,4.3c3.6,2.3,7,2.2,11.2-0.6C70.3,174.2,68.6,173,66.5,172.1L66.5,172.1z"/>
					</g>
					<g class="st32">
						<polygon points="66.3,172.1 66,144.3 66.5,144.3 66.3,172.1 						"/>
					</g>
					<g class="st32">
						<polygon points="93.7,166.7 88.4,144.8 88.9,144.7 93.7,166.7 						"/>
					</g>
					<g class="st32">
						<path d="M41.4,156.1C41.4,156.1,41.4,156.1,41.4,156.1c-0.2-0.1-0.3-0.2-0.3-0.4l2.6-11.4c0-0.2,0.2-0.3,0.4-0.2
							c0.2,0,0.3,0.2,0.2,0.4l-2.6,11.4C41.7,156,41.6,156.1,41.4,156.1L41.4,156.1z"/>
					</g>
					<path class="st32" d="M16.8,179l6.2,7.3c0.7,0.4,1.4,0.4,2,0l9.2-11l3.9-4.8c0.6-0.7,0.8-1.5,0.7-2.2l7.4-6.6
						c0.6,0,1,0.1,1.6,0.1c-0.7-0.2-1.2-0.5-0.7-1.3l1.7-1.3l1.3,1.7c0,0-1.8,2.4-2,2.4h-2l-3.9,3.5l1.7,1.5l2.5,7l3.1-2.2l-2-7.2
						l4.4-4.8l-1.7-2.6l1.1-1.5c0,0,15.3,9.6,21.2,7c0.2,0.1,0.4-6.9,0.4-6.9s-15.8-1.7-16.2-4.8c-0.4-3.1,3.5-3.5,3.5-3.5l-1.7-2.4
						l0.4-1.3l2.8,3.5l6.3-5.3l36.8,41.9c2-0.8,2.4-1.3,2.6-3.3c-0.1,0-36.1-41.4-36.1-41.4l2.8-2.9c0.5-0.6,0.7-0.9,0.7-1.8
						l4.2-3.7c1.3,0.4,2.1,1.2,2.8,2.2l11.6-9.9c0.3,0.3,1.2,0.6,1.9,0.3l19.2-18.5l-21,14.8l-0.7-0.5c0-0.6,0.8-0.8,0-1.8
						c-0.8-1-2,0.9-2.2,0.9c-0.2,0-3-1-3.7-2.3l-0.2,3.4l-5.3,5l-4.1-0.2l-5.9,5.7l-0.7,2.2l0.9,1.9c0,0-3.1,2.8-3.1,2.6
						c0-0.2-0.6-0.8-0.7-0.9l2.7-2.4l0.4-1.7l-0.9-1.4c-0.3,0.2-3.7,3.8-3.9,3.4c-0.3-0.3-9.9-11.2-9.9-11.2l0.6-2l-6.3-6.8
						c-2.3-0.8-5.9-0.9-6.6,4.1c-0.6,1.2-5.3,0.2-5.3,0.2l-2.6,0.6l-14.5,20.6l8.1,9.8l16.6-21l0.5-5.9L50,127
						c1.2,0.2,2.3,0.2,3.3-0.4l9.8,11l-1.6,1.6c0.6,0.6,0.9,1,1.5,1.6c0.6-0.4,1.1-0.8,1.6-1.2c0.2,0.2,0.5,0.7,0.7,1
						c-0.8,0.4-1.4,1.1-2.2,1.5c-1.3-0.9-2.6-1.9-2.5-3.6l-5.5,4.6l-0.2,0.9l-16.4,13.6l-1.5,0.2l-0.4,4.2l10.7-8.8v-1.3l1.1,0.9
						l8.3-6.6c0,0,0.5,0.7,0.4,0.7c-0.2,0-7.4,6.6-7.4,6.6l-0.2,0.7l-1.3,1.1l-0.7-0.5l-9.9,8.8H36l-5.5,5.5
						c-1.4,0.1-2.7,0.3-3.9,1.1L16.8,179z"/>
					<g class="st32">
						<path d="M24,187c-0.4,0-0.8-0.1-1.2-0.4l-6.3-7.3l9.9-9.2c1.3-0.9,2.5-1,4-1.2l5.3-5.4l1.7-0.1l9.7-8.7l1.1,0.5l1-1.7
							c5.6-5.2,7-6.5,7.5-6.8h0c-0.2,0-0.3-0.2-0.4-0.3l-7.8,6.7l-1.5-0.9l0.5,1.1l-10.8,9.1l-0.1-4.5l1.7-0.5l16.2-13.6l0.1-0.7
							l5.6-4.8c0.4,1.8,1.6,2.8,2.9,3.6c0.1-0.2,0.4-0.5,0.8-0.7c0.4-0.3,0.7-0.5,1.2-0.8l-0.5-0.1l-1.5,0.9l-1.9-1.7l1.6-2
							L53,126.9c-0.4,0.6-1.8,0.6-3.1,0.5l-3.7-4l0.1,5.7l-16.6,21.1l-8.6-9.7l14.5-21l2.8-0.7c0.2,0,2,0.4,3.5,0.4
							c1.3,0,1.6-0.3,1.6-0.4c0.8-5.8,5.4-4.8,7-4.2l6.4,6.9l-0.5,2.3h0c0.2,0,9.6,10.6,9.9,10.9c0.1-0.2,1.9-1.9,2.6-2.7
							c0.4-0.4,0.8-0.7,0.8-0.8l1,1l0.4-1.1l6-5.8l4.3,0.1l5.1-4.9l0.1-3.2c1.1,1,3.7,1.9,4,2c0.4-0.6,1-1.2,1.6-1.2
							c0.1,0,0.7,0.3,0.8,0.4c0.6,0.8,0.4,1.3,0.2,1.7l0.5,0.7l20.6-14.8c0.1-0.1,0.3-0.1,0.4,0.1c0.1,0.1,0.1,0.3,0,0.4l-19.2,18.5
							c-0.8,0.5-1.9,0.2-2.3-0.3l-11.2,9.9c-1.2-1.1-2-1.8-3.1-2.1l-3.9,3.6c0.1,0.8-0.1,1.1-0.7,1.8l-2.8,3l0,0
							c0.4,0,35.8,40.6,36.1,41c-0.1,2.4-0.6,3-2.7,3.8l-37.2-42l-5.8,5.4l-3.2-3.5l0.2,1.2l1.6,2.1c-0.2,0.5-2.1,0.7-3,1.8
							c-0.4,0.5-0.6,1.1-0.5,1.8c0.2,2.1,9.9,3.9,15.9,4.5c0.1,7.5,0,7.5-0.4,7.5c-0.6,0.3-1.4,0.4-2.4,0.4
							c-6.9,0-18.4-7.2-18.9-7.5l-0.7,1.4l1.7,2.2l-4.5,5.2l2.1,6.9l-3.2,2.5l-3-7.1l-1.6-1.4l3.9-4L48,163c0.1-0.1,1-1.2,1.8-2.3
							l-1.3-1.3l-1.2,1.3c-0.1,0.5,0,0.6,0.6,0.8c0.2,0,0.3,0.2,0.2,0.4c0,0.2-0.2,0.2-0.3,0.3l-1.6-0.1l-7.2,6.5
							c0.1,0.4,0,1.3-0.7,2.2l-13.1,15.8C24.8,186.8,24.4,187,24,187L24,187z M47.3,155.1l-9.5,8.8L36,164l-5.3,5.4
							c-1.7,0.2-2.8,0.4-3.9,1.1l-9.8,8.7l6.2,6.8c0.4,0.3,1,0.3,1.6-0.1l13-15.7c0.6-0.7,0.7-1.5,0.7-2l7.5-6.8h0.6c0,0,0,0,0-0.1
							c-0.1-0.3,0-0.7,0.3-1.1l1.7-1.3l1.7,1.7c-1.9,2.9-2.1,2.9-2.3,2.9h-2l-3.7,3.4l1.7,1l2.6,7.1l2.7-2.3l-2.1-6.8l4.5-5.1
							l-1.7-2.2l1.1-1.8l0,0c0.5,0,12.3,7.4,19,7.4c0.9,0,1.7-0.1,2.3-0.4c0-0.2,0.1-4.2,0.2-6.6c-1.3,0.2-15.8-1.5-16.2-4.8
							c-0.1-0.9,0.1-1.7,0.6-2.3c1.1-1.3,3.1-1.5,3.2-1.5l-1.9-1.9l0.3-1.5l3.3,3.4l5.8-5.4l37.2,42c1.6-0.9,1.9-1.3,2-3.1
							c-0.2-0.1-2.9-3.2-36-41.2l2.8-3.4c0.5-0.6,0.7-0.8,0.7-1.6l4.3-3.9c1.5,0.4,2.4,1.1,3.2,2.3l11.2-9.9c0.6,0.2,1,0.3,1.4,0.3
							l16.4-15.5l-17.3,12.2l-1.1-0.5c-0.1-0.1,0-0.8,0.1-0.9c0.1-0.3,0.2-0.4-0.2-1c-0.7-0.2-1.1,0.4-1.4,0.7
							c-0.1,0.1-0.4,0.4-0.5,0.4c-0.3,0-3.3-1.1-3.9-2.5l0.4,3.3l-5.4,5.2l-4.3-0.1l-5.7,5.6l-0.6,2.1l0.8,1.6c-3.1,3-3.3,3-3.4,3
							c-0.4-0.4-0.6-0.7-0.7-0.8c0-0.1-0.3-0.6-0.2-0.7l2.7-2.4l0.1-0.9l-0.6-1.5c-0.1,0.1-0.2,0.3-0.4,0.5
							c-2.2,2.2-2.9,2.8-3.3,2.8c-0.6-0.5-10.2-11.4-10.2-11.4l0.5-2.3l-6.2-6.5c-0.4-0.1-1.2-0.3-2.1-0.3c-2.3,0-3.6,1.4-4,4.2
							c-0.3,0.6-1,0.8-2.2,0.8c-1.6,0-3.4-0.4-3.5-0.4l-2.5,0.6l-14.3,20.5l8.1,9.4l16.1-21l0.4-5.8l4,3.7c0.2,0,0.6,0,1,0
							c0.8,0,1.4-0.1,1.9-0.4l10.2,11l-1.7,2l0.8,0.4l0.7,0.8l0.4-0.7l0.8-0.6c0.1-0.1,0.6,0.4,0.7,0.5l0.4,0.5
							c-0.5,0.7-0.8,0.9-1.2,1.2c-0.4,0.3-0.7,0.5-1.1,0.8c-1.7-0.9-3-2.1-2.9-3.9l-5,4.9l-0.1,0.7l-16.5,13.8l-1.6,0.3l-0.1,3.9
							l10.2-9.1l-0.1-1l1.6,0.7l7.9-6.6c1,0.8,0.9,1,0.9,1.1c-0.5,0.4-4.7,4.2-7.5,6.7l-0.1,0.6l-1.4,1.3L47.3,155.1L47.3,155.1z
							 M70.8,134.4l-0.1,0.4l-2.8,2.6c0.5,0.2,0.7,0.4,0.8,0.6c0-0.5,1.4-1.6,2.6-2.7L70.8,134.4L70.8,134.4z"/>
					</g>
				</g>
			</g>
		</g>
		<g class="st0">
			<g>
				<defs>
					<rect id="SVGID_17_" x="-38.4" y="-0.5" width="515.1" height="300.5"/>
				</defs>
				<clipPath id="SVGID_18_">
					<use xlink:href="#SVGID_17_"  style="overflow:visible;"/>
				</clipPath>
				<rect x="-38.4" y="-0.5" class="st33" width="515.1" height="300.5"/>
				<rect x="-38.4" y="-0.5" class="st34" width="234.2" height="149.1"/>
				<g class="st35">
					<defs>
						<rect id="SVGID_19_" x="-38.4" y="-0.5" width="515.1" height="300.5"/>
					</defs>
					<clipPath id="SVGID_20_">
						<use xlink:href="#SVGID_19_"  style="overflow:visible;"/>
					</clipPath>
					<path class="st36" d="M98.1,74.8c0,10.7-8.8,19.4-19.6,19.4c-10.9,0-19.6-8.7-19.6-19.4c0-10.7,8.8-19.4,19.6-19.4
						C89.3,55.4,98.1,64.1,98.1,74.8L98.1,74.8z M36.9,70.5l2.3-9l6.3,2.6l3.5-7.2l-5.5-3.5l5.5-7.5l5.2,5.2l5.8-5.2l-3.5-5.8
						l8.4-4.3l2,7.2l7.8-2.3L73.8,34l9-0.3l-0.6,6.9l8.1,2.6l2-7.2l8.1,4l-3.8,6.1l6.3,4.9l4.9-5.2l5.5,6.9l-5.8,4.1l3.7,7.2
						l6.4-2.3l2,9l-6.7,0.6l-0.3,8.1l6.6,0.6l-2,9.3l-6.7-2.9l-2.9,7.5l5.5,3.5l-5.5,7.2l-4.6-5.2l-6.4,5.2l3.8,6.1l-8.4,4l-2.3-7
						l-7.8,2l0.9,6.9l-9.2,0.3l0.9-6.9l-7.5-2l-2.6,6.7l-7.8-4l3.7-5.8l-6.6-4.9l-4.9,4.9L43.2,98l6.1-4.3l-3.8-7L39.5,89l-2.6-9
						l7.2-0.6v-8.1L36.9,70.5z"/>
					<polygon class="st36" points="85,29.1 78.7,24.8 72.4,29.1 74.7,21.9 68.6,17.4 76.2,17.2 78.8,10.2 81.3,17.2 88.9,17.4 
						82.8,21.9 					"/>
					<polygon class="st36" points="84.1,137.9 77.9,133.6 71.6,137.9 73.8,130.7 67.7,126.2 75.4,126.1 77.9,119 80.4,126.1 
						88.1,126.3 81.9,130.8 					"/>
					<polygon class="st36" points="110.4,34.3 104.1,30 97.8,34.3 100.1,27.1 94,22.6 101.6,22.4 104.2,15.4 106.7,22.5 114.3,22.6 
						108.2,27.1 					"/>
					<polygon class="st36" points="109.5,133.3 103.3,129 97,133.3 99.2,126.1 93.1,121.6 100.8,121.4 103.3,114.4 105.8,121.4 
						113.5,121.6 107.3,126.1 					"/>
					<polygon class="st36" points="60.7,34.3 54.5,30 48.2,34.3 50.4,27.1 44.3,22.6 52,22.4 54.5,15.4 57,22.5 64.7,22.6 
						58.5,27.1 					"/>
					<polygon class="st36" points="59.9,132.1 53.6,127.8 47.3,132.1 49.5,124.9 43.4,120.4 51.1,120.3 53.6,113.2 56.1,120.3 
						63.8,120.5 57.7,125 					"/>
					<polygon class="st36" points="41.1,48.2 34.8,43.9 28.5,48.2 30.8,41 24.7,36.5 32.3,36.3 34.9,29.3 37.4,36.3 45,36.5 
						38.9,41 					"/>
					<polygon class="st36" points="41.1,115.3 34.8,111.1 28.5,115.3 30.8,108.2 24.7,103.6 32.3,103.5 34.9,96.4 37.4,103.5 
						45,103.7 38.9,108.2 					"/>
					<polygon class="st36" points="31.3,69 25,64.7 18.7,69 20.9,61.8 14.9,57.3 22.5,57.2 25,50.1 27.5,57.2 35.2,57.4 29.1,61.9 
											"/>
					<polygon class="st36" points="31.3,92.2 25,87.9 18.7,92.2 20.9,85 14.9,80.5 22.5,80.3 25,73.3 27.5,80.3 35.2,80.5 29.1,85 
											"/>
					<polygon class="st36" points="114.1,49.4 120.3,45.1 126.6,49.3 124.4,42.2 130.5,37.6 122.8,37.5 120.3,30.4 117.8,37.5 
						110.1,37.7 116.3,42.2 					"/>
					<polygon class="st36" points="115.8,116.5 122.1,112.2 128.4,116.5 126.1,109.3 132.2,104.8 124.6,104.6 122,97.6 119.5,104.7 
						111.9,104.8 118,109.3 					"/>
					<polygon class="st36" points="124.5,70.8 130.7,66.5 137,70.7 134.8,63.6 140.9,59 133.2,58.9 130.7,51.8 128.2,58.9 
						120.5,59.1 126.7,63.6 					"/>
					<polygon class="st36" points="126.2,93.4 132.5,89.1 138.8,93.3 136.5,86.2 142.6,81.6 135,81.5 132.4,74.4 129.9,81.5 
						122.3,81.7 128.4,86.2 					"/>
					<path class="st36" d="M106.1,55.5c4,13.9,1.2,21.4,0.2,21.6c-1.3-0.6-1.4-14.8-7.1-18.4c-5.4-3.3-2.2-6.5-0.7-7.8
						C99.9,50.3,104.4,49.7,106.1,55.5L106.1,55.5z"/>
					<g class="st37">
						<path class="st38" d="M106.2,77.3L106.2,77.3c-0.6-0.3-0.9-1.5-1.4-4.4c-0.8-4.6-2.1-11.7-5.9-14c-1.9-1.2-3-2.5-3.1-3.9
							c-0.1-1.4,0.7-2.8,2.4-4.3c0.4-0.2,1.1-0.4,2.2-0.4c1.6,0,4.6,0.7,5.9,5.2c3.2,11.3,2.1,19.1,0.6,21.3
							C106.8,77.1,106.5,77.3,106.2,77.3L106.2,77.3L106.2,77.3z M100.5,50.8c-1,0-1.8,0.3-2,0.4c-1.5,1.3-2.2,2.6-2.1,3.8
							c0.1,1.3,1.1,2.4,2.9,3.5c3.9,2.5,5.2,9.6,6.1,14.4c0.3,1.7,0.7,3.6,1,3.9c0.1,0,0.2-0.1,0.3-0.3c0.9-1.5,2.8-8.5-0.7-20.8
							C104.7,51.4,102,50.8,100.5,50.8L100.5,50.8z"/>
					</g>
					<path class="st36" d="M91.1,73.6c-10.1,23-6.2,38.5-10.1,38.4c-4,0-5-14.3,2.3-38.2c9.2-30.1,21-27.6,22.4-19.2
						C98,58.3,96.9,59.2,91.1,73.6L91.1,73.6z"/>
					<g class="st37">
						<path class="st38" d="M81.1,112.3L81.1,112.3L81.1,112.3c-0.7,0-1.3-0.3-1.8-1c-2.6-3.5-2.5-16.8,3.8-37.6
							c4.8-15.6,11.2-24.9,17.2-24.9c2.9,0,5.1,2.3,5.7,5.8c-7.8,3.9-8.9,4.8-14.7,19.2c-5.9,13.4-7,24.4-7.7,31
							C83.2,109.6,82.9,112.3,81.1,112.3L81.1,112.3z M100.3,49.3c-2.2,0-9.7,1.8-16.7,24.6c-6,19.7-6.5,33.6-3.9,37.1
							c0.4,0.5,0.8,0.8,1.3,0.8h0.1c1.3,0,1.6-2.7,2-7.1c0.7-6.6,1.8-17.7,7.7-31.2c5.9-14.5,6.9-15.4,14.8-19.2
							C105,51.4,102.9,49.3,100.3,49.3L100.3,49.3z"/>
					</g>
					<path class="st36" d="M104.1,81.3c1.6,14.8-3.3,21.3-4.6,21.1c-1.5-1,4.1-10.2-4.5-20.3c-4.9-5.7,0.4-3.6,2.4-4.4
						C99.4,77.6,103.4,75,104.1,81.3L104.1,81.3z"/>
					<g class="st37">
						<path class="st38" d="M99.6,102.6L99.6,102.6c-0.8-0.4-0.6-1.4-0.3-3c0.6-3.6,1.7-10.2-4.4-17.4c-1.7-2-2.3-3.2-2-3.9
							c0.3-0.7,1.3-0.7,2.4-0.7c1.1,0,1.7,0,2.1-0.2c0.4,0,0.8-0.2,1.3-0.3c0.7-0.2,1.5-0.4,2.2-0.4c1.9,0,3,1.4,3.4,4.4
							c1.6,14.5-2.9,20-3.5,20.6C100.5,102.2,100,102.6,99.6,102.6L99.6,102.6z M95.6,78.2c-1.3,0-2.1,0-2.3,0.4
							c-0.1,0.3,0.1,1.2,1.9,3.3c6.2,7.3,5.1,14.1,4.5,17.8c-0.2,1.1-0.4,2.1-0.1,2.4c0.2,0,0.5-0.2,0.9-0.7c1.8-2,4.6-8.6,3.3-20.2
							c-0.4-3.5-1.8-3.9-2.9-3.9c-0.7,0-1.4,0.2-2.1,0.4c-0.5,0.1-0.9,0.3-1.3,0.3C97.1,78.2,96.4,78.2,95.6,78.2L95.6,78.2
							C95.7,78.2,95.7,78.2,95.6,78.2L95.6,78.2z"/>
					</g>
					<path class="st36" d="M87.6,95.9c-3.9,9-5.6,19.9-10.2,18.5c-4.7-1.2-0.2-16.6,5.8-27.2c7.5-13.1,20.8-16.4,20.6-7
						C94.6,81.7,90.6,88.7,87.6,95.9L87.6,95.9z"/>
					<g class="st37">
						<path class="st38" d="M78.2,114.8c-0.3,0-0.5,0-0.8-0.1c-0.8-0.2-1.3-0.7-1.7-1.6c-1.9-4.4,2.3-17.1,7.4-26
							c6.2-10.9,16.3-14.7,19.7-11.1c1,1,1.4,2.4,1.4,4.3C94.8,82,90.8,88.8,87.8,96c-1.1,2.6-2.1,5.3-2.9,7.9
							C82.8,110,81.2,114.8,78.2,114.8L78.2,114.8z M99.1,75.1c-4.3,0-11.1,4.2-15.7,12.2c-4.9,8.7-9.1,21.3-7.3,25.6
							c0.3,0.7,0.8,1.1,1.4,1.3c3.1,0.9,4.8-4.3,6.9-10.4c0.9-2.6,1.8-5.3,3-7.9c3-7.4,7.1-14.4,16.4-15.8c-0.2-1.5-0.6-2.8-1.4-3.7
							C101.6,75.5,100.5,75.1,99.1,75.1L99.1,75.1z"/>
					</g>
					<path class="st36" d="M53.8,72c-3.9,16.9-3.1,27.3-2,27c1.4,0.2,1-16.1,7.8-22.8c6.3-6.4,2.8-5.1,1.3-7.5
						C58,67.6,55.8,64.1,53.8,72L53.8,72z"/>
					<g class="st37">
						<path class="st38" d="M51.8,99.3l-0.4-0.2c-1.1-1.4-1.3-11.9,2.2-27.1c1.4-5.7,3.4-5.7,5.9-4.3c0.5,0.3,1,0.6,1.6,0.8
							c0.5,0.7,1,1,1.4,1.4c0.5,0.4,1,0.7,1.1,1.3c0.1,0.8-0.5,2-3.7,5.2c-4.5,4.4-5.8,13-6.6,18.2C52.7,98.1,52.5,99.3,51.8,99.3
							L51.8,99.3L51.8,99.3L51.8,99.3z M57,67.3c-0.7,0-1.8,0.5-2.9,4.8c-3.8,16.7-3,26-2.3,26.7c0.4-0.3,0.7-2.3,1-4.2
							c0.8-5.2,2.1-14,6.7-18.5c2.5-2.6,3.6-4,3.5-4.8c0-0.4-0.3-0.6-0.8-1c-0.4-0.3-1-0.7-1.4-1.4c-0.5-0.1-1-0.4-1.5-0.8
							C58.4,67.7,57.6,67.3,57,67.3L57,67.3z"/>
					</g>
					<path class="st36" d="M69.3,90.3c4.7,11.4,7.7,25.4,11.5,23.5c4-1.7-2.4-21.1-8.9-34.9c-5.5-10.8-9.6-12.2-15.7-11.8
						C63.4,69.9,65.7,81,69.3,90.3L69.3,90.3z"/>
					<g class="st37">
						<path class="st38" d="M80.2,114.2L80.2,114.2c-2.6,0-4.7-6.1-7.4-13.8c-1.1-3.3-2.3-6.8-3.7-10.1c-0.8-1.9-1.4-3.9-2.1-5.9
							c-2.7-7.7-5.2-15-10.8-17.2c0.6-0.5,1.1-0.5,1.6-0.5c5.4,0,9.2,1.9,14.4,12c5.2,11.1,11.7,29,9.8,34c-0.2,0.6-0.6,1-1.1,1.2
							C80.7,114.1,80.4,114.2,80.2,114.2L80.2,114.2z M57.8,67.3c-0.5,0-1,0-1.5,0c5.8,1.8,8.4,9.2,11.1,17c0.7,2,1.4,4,2.1,5.9
							c1.4,3.3,2.6,6.8,3.7,10.1c2.4,6.9,4.6,13.4,6.9,13.4l0,0c0.2,0,0.4,0,0.6-0.1c0.4-0.1,0.6-0.5,0.8-0.9
							c1.7-4.4-3.8-20.8-9.8-33.6C66.7,69.2,63,67.3,57.8,67.3L57.8,67.3z"/>
					</g>
					<path class="st36" d="M70.1,83.9c3.5,14.5,5,31.9,9,30.1c4.2-1.6-0.1-26-5.2-43.5c-4.4-13.9-11.1-13.7-17.3-14.1
						C66.6,61.4,67.5,72.2,70.1,83.9L70.1,83.9z"/>
					<g class="st37">
						<path class="st38" d="M78.6,114.4c-2.8,0-4.2-7.8-6.1-17.7c-0.8-4.1-1.6-8.6-2.6-12.8c-0.4-1.6-0.7-3.2-1-4.8
							c-2-9.8-3.8-18.3-12.2-22.5l0.9-0.4c5.9,0.4,12.5,0.7,16.7,14.2c4.8,16.7,9.7,42.1,5,43.9L78.6,114.4L78.6,114.4z M56.7,56.7
							c8.8,3.8,10.6,12.4,12.6,22.4c0.3,1.6,0.7,3.2,1,4.8c1,4.2,1.8,8.6,2.6,12.8c1.7,8.9,3.3,17.3,5.6,17.3v0.3l0.5-0.4
							c3.8-1.4,0.2-23.9-5.3-43.3c-4.1-13.1-10.3-13.5-16.3-13.9L56.7,56.7L56.7,56.7z"/>
					</g>
					<path class="st36" d="M55.7,57.1c-9.1,7.5-9,22.6-7.3,22.8c1.8,0.3,2.8-11.9,8.3-16.5c5.9-4.7,6.7-2.1,13.4-1.6
						C68.3,57.8,63.1,50.7,55.7,57.1L55.7,57.1z"/>
					<g class="st37">
						<path class="st38" d="M48.4,80.1l-0.1,0c-0.3-0.1-0.6-0.4-0.8-1.1c-1.1-3.8,0.4-15.9,8-22.1c2-1.7,4-2.6,6-2.6
							c4,0,7.2,3.8,8.8,7.4c-2.2,0.2-3.6-0.1-4.8-0.4c-2.8-0.6-4.1-1.4-8.7,2.3c-3.2,2.7-4.9,8.1-6.1,12
							C49.9,78.4,49.3,80.1,48.4,80.1L48.4,80.1z M61.5,54.7c-1.8,0-3.8,0.9-5.7,2.5c-7.9,6.5-8.7,18.7-7.8,21.6
							c0.2,0.6,0.3,0.7,0.4,0.7h0c0.5,0,1.2-2.2,1.8-4.3c1.2-4,2.9-9.4,6.3-12.2c3.9-3.1,5.9-3.1,9.1-2.4c1.2,0.3,2.6,0.6,4.5,0.7
							C69.3,60.6,66.4,54.7,61.5,54.7L61.5,54.7z"/>
					</g>
					<path class="st36" d="M75,42.1c1.2,2.4,1.1,4.9-0.4,5.6c-1.5,0.6-3.6-0.8-4.9-3.2c-1.2-2.4-1.1-4.9,0.4-5.6
						C71.6,38.2,73.8,39.7,75,42.1L75,42.1z"/>
					<g class="st37">
						<path class="st38" d="M73.8,48.1c-1.5,0-3.3-1.4-4.3-3.5c-0.8-1.6-1.1-3.4-0.6-4.6c0.2-0.6,0.6-1.1,1.1-1.4
							c1.6-0.7,3.9,0.8,5.2,3.3c0.8,1.6,1.1,3.3,0.6,4.6c-0.2,0.6-0.6,1.1-1.1,1.4C74.5,48,74.2,48.1,73.8,48.1L73.8,48.1z M70.9,39
							c-0.2,0-0.5,0-0.7,0.1c-0.4,0.2-0.7,0.6-0.9,1.1c-0.4,1.1-0.1,2.7,0.6,4.2c1.1,2.2,3.2,3.7,4.5,3.1c0.4-0.2,0.7-0.5,0.9-1.1
							c0.4-1.1,0.1-2.7-0.6-4.2C73.8,40.3,72.2,39,70.9,39L70.9,39z"/>
					</g>
					<path class="st36" d="M75,48.8c1,2.5,0.6,5-0.9,5.5c-1.5,0.5-3.5-1.1-4.5-3.6c-1-2.5-0.6-5,0.9-5.5C72,44.6,74,46.2,75,48.8
						L75,48.8z"/>
					<g class="st37">
						<path class="st38" d="M73.5,54.6c-1.6,0-3.3-1.6-4.2-3.9c-0.7-1.7-0.8-3.4-0.2-4.6c0.3-0.6,0.7-1,1.3-1.2l0.7-0.1
							c1.6,0,3.3,1.6,4.2,3.9c0.7,1.7,0.8,3.4,0.2,4.6c-0.3,0.6-0.7,1-1.3,1.2L73.5,54.6L73.5,54.6z M71.1,45.3
							c-0.9,0.2-1.3,0.6-1.5,1c-0.5,1-0.4,2.7,0.2,4.2c0.8,2.1,2.4,3.6,3.7,3.6v0.3l0.5-0.3c0.4-0.1,0.8-0.5,1-1
							c0.5-1,0.4-2.7-0.2-4.2C74,46.8,72.4,45.3,71.1,45.3L71.1,45.3z"/>
					</g>
					<path class="st36" d="M79.7,47.6c0.3,2.7-0.7,5-2.3,5.1c-1.6,0.1-3.2-1.9-3.5-4.6c-0.4-2.7,0.7-5,2.2-5.1
						C77.8,42.9,79.4,44.9,79.7,47.6L79.7,47.6z"/>
					<g class="st37">
						<path class="st38" d="M77.3,53c-1.7,0-3.3-2.1-3.6-4.9c-0.2-1.8,0.1-3.5,0.9-4.5c0.4-0.5,1-0.8,1.5-0.9l0,0
							c1.8,0,3.4,2.1,3.8,4.9c0.2,1.8-0.1,3.5-0.9,4.5c-0.4,0.5-1,0.8-1.5,0.9L77.3,53L77.3,53z M76.4,43.2c-0.6,0-1,0.3-1.3,0.7
							c-0.7,0.9-1,2.5-0.8,4.2c0.3,2.4,1.7,4.4,3.1,4.4v0.3l0.1-0.3c0.4,0,0.8-0.3,1.2-0.7c0.7-0.9,1-2.5,0.8-4.1
							C79.2,45.2,77.8,43.2,76.4,43.2L76.4,43.2z"/>
					</g>
					<path class="st36" d="M76.5,55.2c0.5,2.7-0.3,5-1.9,5.3c-1.6,0.2-3.3-1.7-3.8-4.4c-0.5-2.7,0.3-5,1.9-5.3
						C74.2,50.6,75.9,52.6,76.5,55.2L76.5,55.2z"/>
					<g class="st37">
						<path class="st38" d="M74.3,60.8c-1.6,0-3.3-2-3.8-4.6c-0.4-1.8-0.1-3.5,0.6-4.6c0.4-0.6,0.9-0.9,1.5-1c2-0.1,3.6,1.9,4.1,4.6
							c0.4,1.8,0.1,3.5-0.6,4.6c-0.4,0.6-0.9,0.9-1.5,1L74.3,60.8L74.3,60.8z M72.9,51.1c-0.7,0.1-1.1,0.4-1.4,0.8
							c-0.7,0.9-0.9,2.5-0.5,4.2c0.5,2.4,1.9,4.2,3.3,4.2v0.3l0.2-0.3c0.4-0.1,0.8-0.4,1.1-0.8c0.7-1,0.9-2.6,0.5-4.2
							C75.7,52.9,74.3,51.1,72.9,51.1L72.9,51.1z"/>
					</g>
					<path class="st36" d="M76.5,61.3c0.5,2.7-0.3,5-1.9,5.3c-1.6,0.2-3.3-1.7-3.8-4.4c-0.5-2.7,0.3-5,1.9-5.3
						C74.2,56.7,75.9,58.6,76.5,61.3L76.5,61.3z"/>
					<g class="st37">
						<path class="st38" d="M74.3,66.9c-1.6,0-3.3-2-3.8-4.6c-0.4-1.8-0.1-3.5,0.6-4.6c0.4-0.6,0.9-0.9,1.5-1c0,0,0,0,0,0
							c1.9,0,3.5,2,4.1,4.6c0.4,1.8,0.1,3.5-0.6,4.6c-0.4,0.6-0.9,0.9-1.5,1L74.3,66.9L74.3,66.9z M72.9,57.1
							c-0.7,0.1-1.1,0.4-1.4,0.8c-0.7,0.9-0.9,2.5-0.5,4.2c0.5,2.4,1.9,4.2,3.3,4.2v0.2l0.2-0.3c0.4-0.1,0.8-0.3,1.1-0.8
							c0.7-0.9,0.9-2.6,0.5-4.2C75.7,59,74.3,57.1,72.9,57.1L72.9,57.1z"/>
					</g>
					<path class="st36" d="M81.3,55c-0.1,2.7-1.5,4.8-3.1,4.6c-1.6-0.2-2.7-2.5-2.6-5.2c0.1-2.7,1.5-4.8,3.1-4.6
						C80.3,49.9,81.4,52.2,81.3,55L81.3,55z"/>
					<g class="st37">
						<path class="st38" d="M78.3,59.9l-0.2,0c-1.7-0.2-3-2.6-2.8-5.5c0.1-2.7,1.5-4.9,3.2-4.9c1.9,0.2,3.2,2.6,3,5.5
							C81.4,57.7,80,59.9,78.3,59.9L78.3,59.9z M78.7,50c-1.5,0-2.7,2-2.9,4.4c-0.1,2.6,0.9,4.8,2.4,4.9l0.1,0.3v-0.3
							c1.4,0,2.6-2,2.7-4.4C81.2,52.4,80.1,50.2,78.7,50L78.7,50L78.7,50z"/>
					</g>
					<path class="st36" d="M81.3,61.1c-0.1,2.7-1.5,4.8-3.1,4.6c-1.6-0.2-2.7-2.5-2.6-5.2c0.1-2.7,1.5-4.8,3.1-4.6
						C80.3,56,81.4,58.3,81.3,61.1L81.3,61.1z"/>
					<g class="st37">
						<path class="st38" d="M78.3,66l-0.2,0c-1.7-0.2-3-2.6-2.8-5.5c0.1-2.7,1.5-4.9,3.2-4.9c1.9,0.2,3.2,2.6,3,5.5
							C81.4,63.8,80,66,78.3,66L78.3,66z M78.7,56.1c-1.5,0-2.7,2-2.9,4.4c-0.1,2.6,0.9,4.8,2.4,4.9l0.1,0.3v-0.2
							c1.4,0,2.6-2,2.7-4.4C81.2,58.4,80.1,56.2,78.7,56.1L78.7,56.1L78.7,56.1z"/>
					</g>
					<path class="st36" d="M73.3,68.3c0,2.7-1.3,4.9-2.9,4.8c-1.6-0.1-2.9-2.4-2.9-5.1c0-2.7,1.3-4.9,2.9-4.8
						C72,63.3,73.3,65.6,73.3,68.3L73.3,68.3z"/>
					<g class="st37">
						<path class="st38" d="M70.4,73.4L70.4,73.4c-1.8-0.1-3.2-2.5-3.2-5.3c0-2.8,1.4-5,3.1-5c1.8,0.1,3.2,2.5,3.2,5.3
							C73.5,71.1,72.1,73.4,70.4,73.4L70.4,73.4z M70.4,63.5c-1.5,0-2.6,2-2.6,4.5c0,2.5,1.2,4.8,2.6,4.8l0.1,0.3v-0.2
							c1.4,0,2.6-2,2.6-4.5C73,65.8,71.8,63.6,70.4,63.5L70.4,63.5L70.4,63.5z"/>
					</g>
					<path class="st36" d="M77.6,68.3c0,2.7-1.3,4.9-2.9,4.8c-1.6-0.1-2.9-2.3-2.9-5.1c0-2.7,1.3-4.9,2.9-4.8
						C76.3,63.3,77.6,65.6,77.6,68.3L77.6,68.3z"/>
					<g class="st37">
						<path class="st38" d="M74.8,73.4h-0.1c-1.7-0.1-3.1-2.4-3.1-5.3c0-2.8,1.4-5,3.1-5c1.8,0.1,3.2,2.5,3.2,5.3
							C77.8,71.1,76.5,73.4,74.8,73.4L74.8,73.4z M74.7,63.5c-1.5,0-2.6,2-2.6,4.5c0,2.6,1.2,4.8,2.6,4.8l0.1,0.2v-0.2
							c1.4,0,2.6-2,2.6-4.5C77.3,65.8,76.1,63.6,74.7,63.5L74.7,63.5L74.7,63.5z"/>
					</g>
					<path class="st36" d="M82.4,69.1c-0.7,2.6-2.5,4.4-4,3.9c-1.5-0.5-2.2-3-1.5-5.6c0.7-2.6,2.5-4.4,4-3.9
						C82.4,63.9,83.1,66.4,82.4,69.1L82.4,69.1z"/>
					<g class="st37">
						<path class="st38" d="M78.9,73.3l-0.6-0.1c-1.6-0.5-2.4-3.2-1.7-5.9c0.6-2.4,2.2-4.2,3.7-4.2c2.3,0.6,3,3.2,2.3,6
							C82,71.5,80.4,73.3,78.9,73.3L78.9,73.3z M80.7,63.7c-1.7,0-3,1.6-3.6,3.7c-0.7,2.5,0,4.9,1.3,5.3l0.4,0.1
							c1.3,0,2.7-1.6,3.3-3.8c0.7-2.5,0.1-4.9-1.3-5.3C80.8,63.7,80.7,63.7,80.7,63.7L80.7,63.7z"/>
					</g>
					<path class="st36" d="M73,75c0,2.7-1.3,4.9-2.9,4.8c-1.6-0.1-2.9-2.3-2.9-5.1c0-2.7,1.3-4.9,2.9-4.8C71.7,70,73,72.2,73,75
						L73,75z"/>
					<g class="st37">
						<path class="st38" d="M70.2,80h-0.1c-1.7-0.1-3.1-2.4-3.1-5.3c0-2.8,1.4-5,3.1-5c1.9,0.1,3.2,2.4,3.2,5.3
							C73.2,77.8,71.9,80,70.2,80L70.2,80z M70.1,70.1c-1.5,0-2.6,2-2.6,4.5c0,2.6,1.2,4.8,2.6,4.8l0.1,0.3v-0.2
							c1.4,0,2.6-2,2.6-4.5C72.7,72.4,71.6,70.2,70.1,70.1L70.1,70.1L70.1,70.1z"/>
					</g>
					<path class="st36" d="M77.3,73.2c0,2.7-1.3,4.9-2.9,4.8c-1.6-0.1-2.9-2.3-2.9-5.1c0-2.7,1.3-4.9,2.9-4.8
						C76,68.2,77.3,70.5,77.3,73.2L77.3,73.2z"/>
					<g class="st37">
						<path class="st38" d="M74.5,78.3L74.5,78.3c-1.8-0.1-3.2-2.4-3.2-5.3c0-2.8,1.4-5,3.1-5c1.8,0.1,3.2,2.5,3.2,5.3
							C77.5,76.1,76.2,78.3,74.5,78.3L74.5,78.3z M74.4,68.4c-1.5,0-2.6,2-2.6,4.5c0,2.6,1.2,4.7,2.6,4.8l0.1,0.3v-0.2
							c1.4,0,2.6-2,2.6-4.5C77.1,70.7,75.9,68.5,74.4,68.4L74.4,68.4L74.4,68.4z"/>
					</g>
					<path class="st36" d="M82.1,75.1c-0.7,2.6-2.5,4.4-4,3.9c-1.5-0.5-2.2-3-1.5-5.6c0.7-2.6,2.5-4.4,4-3.9
						C82.1,70,82.8,72.5,82.1,75.1L82.1,75.1z"/>
					<g class="st37">
						<path class="st38" d="M78.6,79.4L78,79.3c-1.7-0.5-2.4-3.2-1.7-5.9c0.6-2.4,2.2-4.2,3.7-4.2c2.3,0.6,3,3.2,2.3,6
							C81.7,77.6,80.1,79.4,78.6,79.4L78.6,79.4z M80.4,69.7c-1.7,0-3,1.6-3.6,3.7c-0.7,2.5,0,4.9,1.3,5.3l0.4,0.1
							c1.3,0,2.7-1.6,3.2-3.8c0.7-2.5,0.1-4.9-1.3-5.3C80.5,69.7,80.4,69.7,80.4,69.7L80.4,69.7z"/>
					</g>
					<path class="st36" d="M82.7,109.1c0.4,3.4-0.9,6.3-3,6.5c-2.1,0.1-4.1-2.5-4.5-5.9c-0.4-3.4,0.9-6.3,3-6.5
						C80.3,103.1,82.3,105.7,82.7,109.1L82.7,109.1z"/>
					<g class="st37">
						<path class="st38" d="M79.6,115.9c-2.2,0-4.2-2.7-4.6-6.2c-0.3-2.3,0.2-4.4,1.2-5.6c0.5-0.7,1.2-1,2-1.1c0,0,0,0,0,0
							c2.3,0,4.3,2.7,4.7,6.1c0.3,2.3-0.2,4.4-1.2,5.7c-0.6,0.7-1.2,1.1-2,1.1L79.6,115.9L79.6,115.9z M78.4,103.5
							c-0.8,0.1-1.3,0.4-1.8,0.9c-0.9,1.1-1.4,3.2-1.1,5.3c0.4,3.1,2.2,5.7,4.1,5.7v0.3l0.1-0.3c0.6,0,1.2-0.4,1.6-0.9
							c0.9-1.1,1.4-3.2,1.1-5.3C82.1,106,80.3,103.5,78.4,103.5L78.4,103.5z"/>
					</g>
					<path class="st36" d="M70.9,81.6c0,2.7-1.3,4.9-2.9,4.8c-1.6-0.1-2.9-2.3-2.9-5.1c0-2.7,1.3-4.9,2.9-4.8
						C69.7,76.6,71,78.9,70.9,81.6L70.9,81.6z"/>
					<g class="st37">
						<path class="st38" d="M68.1,86.7L68.1,86.7c-1.8-0.1-3.2-2.4-3.2-5.3c0-2.8,1.4-5,3.1-5c1.8,0.1,3.2,2.5,3.2,5.3
							C71.2,84.5,69.8,86.7,68.1,86.7L68.1,86.7z M68.1,76.8c-1.5,0-2.6,2-2.6,4.5c0,2.6,1.2,4.7,2.6,4.8l0.1,0.3v-0.2
							c1.4,0,2.6-2,2.6-4.5C70.7,79.1,69.5,76.9,68.1,76.8L68.1,76.8L68.1,76.8z"/>
					</g>
					<path class="st36" d="M76.1,80.2c0,2.7-1.3,4.9-2.9,4.8c-1.6-0.1-2.9-2.3-2.9-5.1c0-2.7,1.3-4.9,2.9-4.8
						C74.9,75.2,76.2,77.5,76.1,80.2L76.1,80.2z"/>
					<g class="st37">
						<path class="st38" d="M73.3,85.2L73.3,85.2c-1.8-0.1-3.2-2.5-3.2-5.3c0-2.8,1.4-5,3.1-5c1.8,0.1,3.2,2.4,3.2,5.3
							C76.4,83,75,85.2,73.3,85.2L73.3,85.2z M73.3,75.4c-1.5,0-2.6,2-2.6,4.5c0,2.6,1.2,4.8,2.6,4.8l0.1,0.3v-0.2
							c1.4,0,2.6-2,2.6-4.5C75.9,77.6,74.7,75.5,73.3,75.4L73.3,75.4L73.3,75.4z"/>
					</g>
					<path class="st36" d="M80.1,81.8c-0.7,2.6-2.5,4.4-4,3.9c-1.5-0.5-2.2-3-1.5-5.6c0.7-2.6,2.5-4.4,4-3.9
						C80.1,76.6,80.8,79.2,80.1,81.8L80.1,81.8z"/>
					<g class="st37">
						<path class="st38" d="M76.6,86L76,85.9c-1.6-0.5-2.4-3.2-1.7-5.9c0.6-2.4,2.2-4.2,3.7-4.2c2.3,0.6,3,3.2,2.3,6
							C79.7,84.3,78.1,86,76.6,86L76.6,86z M78.4,76.4c-1.7,0-3,1.6-3.6,3.7c-0.7,2.5,0,4.9,1.3,5.3l0.4,0.1c1.3,0,2.7-1.6,3.3-3.8
							c0.7-2.5,0-4.9-1.3-5.3C78.5,76.4,78.4,76.4,78.4,76.4L78.4,76.4z"/>
					</g>
					<path class="st36" d="M73.2,88c-0.4,2.7-2,4.6-3.6,4.3c-1.6-0.3-2.5-2.8-2.1-5.5c0.4-2.7,2-4.6,3.6-4.3
						C72.7,82.9,73.6,85.3,73.2,88L73.2,88z"/>
					<g class="st37">
						<path class="st38" d="M69.9,92.6l-0.4,0c-1.7-0.4-2.7-2.9-2.3-5.7c0.4-2.6,1.9-4.5,3.5-4.5c2.1,0.4,3.1,3,2.6,5.8
							C73,90.6,71.5,92.6,69.9,92.6L69.9,92.6z M71.1,82.8c-1.6,0-2.9,1.8-3.3,4.1c-0.4,2.5,0.4,4.9,1.9,5.2l0.3,0
							c1.3,0,2.6-1.8,3-4.1C73.4,85.4,72.5,83.1,71.1,82.8C71.1,82.8,71.1,82.8,71.1,82.8L71.1,82.8z"/>
					</g>
					<path class="st36" d="M77.5,88.7c-0.4,2.7-2,4.6-3.6,4.3c-1.6-0.3-2.5-2.8-2.1-5.5c0.4-2.7,2-4.6,3.6-4.3
						C77,83.5,77.9,86,77.5,88.7L77.5,88.7z"/>
					<g class="st37">
						<path class="st38" d="M74.2,93.2l-0.4,0c-1.7-0.4-2.7-2.9-2.3-5.7c0.4-2.6,1.9-4.5,3.5-4.5c2.1,0.4,3.1,3,2.6,5.8
							C77.3,91.3,75.8,93.2,74.2,93.2L74.2,93.2z M75.3,83.5c-1.6,0-2.9,1.8-3.3,4.1c-0.4,2.5,0.4,4.9,1.9,5.2l0.3,0
							c1.3,0,2.6-1.8,3-4.1C77.6,86.1,76.8,83.8,75.3,83.5C75.4,83.5,75.3,83.5,75.3,83.5L75.3,83.5z"/>
					</g>
					<path class="st36" d="M82.2,89.5c-1.1,2.5-3.1,3.9-4.6,3.3c-1.4-0.7-1.7-3.3-0.6-5.8c1.1-2.5,3.1-4,4.5-3.3
						C83,84.5,83.3,87.1,82.2,89.5L82.2,89.5z"/>
					<g class="st37">
						<path class="st38" d="M78.4,93.2c-0.3,0-0.6-0.1-0.9-0.2c-1.5-0.8-1.9-3.5-0.7-6.1c1.1-2.6,3.3-4.2,4.9-3.4
							c1.5,0.8,1.9,3.5,0.8,6.1C81.5,91.8,79.9,93.2,78.4,93.2L78.4,93.2z M80.8,83.8c-1.2,0-2.7,1.3-3.5,3.3
							c-1,2.3-0.8,4.8,0.5,5.5c1.2,0.6,3.2-0.8,4.2-3.1c1-2.3,0.8-4.8-0.5-5.5C81.2,83.9,81,83.8,80.8,83.8L80.8,83.8z"/>
					</g>
					<path class="st36" d="M78.1,102.4c0.3,2.7-0.7,5-2.3,5.1c-1.6,0.1-3.1-2-3.5-4.7c-0.3-2.7,0.7-5,2.3-5.1
						C76.3,97.6,77.8,99.7,78.1,102.4L78.1,102.4z"/>
					<g class="st37">
						<path class="st38" d="M75.7,107.8c-1.7,0-3.3-2.2-3.6-4.9c-0.2-1.8,0.1-3.5,1-4.5c0.4-0.5,1-0.8,1.5-0.9h0
							c1.8,0,3.4,2.1,3.7,4.9c0.2,1.8-0.2,3.5-1,4.5c-0.4,0.5-1,0.8-1.5,0.9L75.7,107.8L75.7,107.8z M74.8,98c-0.6,0-1,0.3-1.3,0.7
							c-0.7,0.9-1.1,2.5-0.9,4.1c0.3,2.5,1.7,4.5,3.1,4.5v0.3l0.1-0.3c0.4,0,0.8-0.3,1.2-0.7c0.7-0.9,1.1-2.5,0.9-4.1
							C77.6,100,76.2,98,74.8,98L74.8,98z"/>
					</g>
					<path class="st36" d="M86,103.6c-0.8,2.6-2.7,4.2-4.2,3.7c-1.5-0.6-2-3.1-1.2-5.7c0.8-2.6,2.7-4.2,4.2-3.7
						C86.4,98.5,86.9,101.1,86,103.6L86,103.6z"/>
					<g class="st37">
						<path class="st38" d="M82.4,107.7l-0.7-0.1c-1.6-0.6-2.2-3.3-1.3-6c0.8-2.3,2.3-4,3.9-4l0.7,0.1c1.6,0.6,2.2,3.3,1.3,6
							C85.5,106,83.9,107.7,82.4,107.7L82.4,107.7z M84.6,98.2c-1.7,0-3.1,1.5-3.7,3.5c-0.8,2.5-0.3,4.9,1,5.4l0.5,0.1
							c1.3,0,2.7-1.5,3.4-3.6c0.8-2.5,0.3-4.9-1-5.4C84.7,98.2,84.7,98.2,84.6,98.2L84.6,98.2z"/>
					</g>
					<path class="st36" d="M82.2,101.9c0,2.7-1.3,4.9-2.9,4.8c-1.6-0.1-2.9-2.3-2.9-5.1c0-2.7,1.3-4.9,2.9-4.8
						C80.9,96.9,82.2,99.2,82.2,101.9L82.2,101.9z"/>
					<g class="st37">
						<path class="st38" d="M79.4,106.9L79.4,106.9c-1.8-0.1-3.2-2.4-3.2-5.3c0-2.8,1.3-5.1,3-5.1c1.8,0.1,3.2,2.4,3.2,5.3
							C82.4,104.7,81.1,106.9,79.4,106.9L79.4,106.9z M79.3,97.1c-1.5,0-2.6,2-2.6,4.5c0,2.6,1.2,4.7,2.6,4.8l0.1,0.3v-0.2
							c1.4,0,2.6-2,2.6-4.5C81.9,99.3,80.8,97.1,79.3,97.1L79.3,97.1L79.3,97.1z"/>
					</g>
					<path class="st36" d="M76.4,94.9c0,2.7-1.3,4.9-2.9,4.8c-1.6-0.1-2.9-2.4-2.9-5.1c0-2.7,1.3-4.9,2.9-4.8
						C75.1,89.9,76.4,92.2,76.4,94.9L76.4,94.9z"/>
					<g class="st37">
						<path class="st38" d="M73.6,100L73.6,100c-1.8-0.1-3.2-2.5-3.2-5.3c0-2.8,1.3-5,3.1-5c1.8,0.1,3.2,2.4,3.2,5.3
							C76.7,97.8,75.3,100,73.6,100L73.6,100z M73.5,90.1c-1.5,0-2.6,2-2.6,4.5c0,2.5,1.2,4.8,2.6,4.8l0.1,0.3v-0.2
							c1.4,0,2.6-2,2.6-4.6C76.2,92.4,75,90.2,73.5,90.1L73.5,90.1L73.5,90.1z"/>
					</g>
					<path class="st36" d="M80.7,94.9c0,2.7-1.3,4.9-2.9,4.8c-1.6-0.1-2.9-2.4-2.9-5.1c0-2.7,1.3-4.9,2.9-4.8
						C79.5,89.9,80.7,92.2,80.7,94.9L80.7,94.9z"/>
					<g class="st37">
						<path class="st38" d="M77.9,100L77.9,100c-1.8-0.1-3.2-2.5-3.2-5.3c0-2.8,1.4-5,3.1-5c1.8,0.1,3.2,2.4,3.2,5.3
							C81,97.8,79.7,100,77.9,100L77.9,100z M77.9,90.1c-1.5,0-2.6,2-2.6,4.5c0,2.5,1.2,4.8,2.6,4.8l0.1,0.3v-0.2
							c1.4,0,2.6-2,2.6-4.6C80.5,92.4,79.3,90.2,77.9,90.1L77.9,90.1L77.9,90.1z"/>
					</g>
					<path class="st36" d="M84.4,89c-0.7,2.6-2.5,4.4-4,3.9c-1.5-0.5-2.2-3-1.5-5.6c0.7-2.6,2.5-4.4,4-3.9
						C84.4,83.8,85.1,86.4,84.4,89L84.4,89z"/>
					<g class="st37">
						<path class="st38" d="M80.9,93.2l-0.6-0.1c-1.7-0.5-2.4-3.1-1.7-5.9c0.6-2.4,2.2-4.2,3.7-4.2c2.2,0.6,3,3.3,2.3,6
							C84,91.5,82.4,93.2,80.9,93.2L80.9,93.2z M82.7,83.6c-1.7,0-3,1.6-3.6,3.8c-0.7,2.5,0,4.9,1.3,5.3l0.4,0.1
							c1.3,0,2.7-1.6,3.2-3.8C84.8,86.5,84.2,84,82.7,83.6C82.8,83.6,82.7,83.6,82.7,83.6L82.7,83.6z"/>
					</g>
					<path class="st36" d="M85.5,95.1c-0.7,2.6-2.5,4.4-4,3.9c-1.5-0.5-2.2-3-1.5-5.6c0.7-2.6,2.5-4.4,4-3.9
						C85.5,89.9,86.2,92.4,85.5,95.1L85.5,95.1z"/>
					<g class="st37">
						<path class="st38" d="M82,99.3l-0.6-0.1c-1.7-0.5-2.4-3.1-1.7-5.9c0.6-2.4,2.2-4.2,3.7-4.2c2.3,0.6,3,3.2,2.3,6
							C85.1,97.6,83.6,99.3,82,99.3L82,99.3z M83.8,89.7c-1.7,0-3,1.6-3.6,3.7c-0.7,2.5-0.1,4.9,1.4,5.3l0.4,0.1
							c1.3,0,2.7-1.6,3.2-3.8C85.9,92.5,85.3,90.1,83.8,89.7C83.9,89.7,83.9,89.7,83.8,89.7L83.8,89.7z"/>
					</g>
					<path class="st36" d="M89,96.2c-0.7,2.6-2.5,4.4-4,3.9c-1.5-0.5-2.2-3-1.5-5.6c0.7-2.6,2.5-4.4,4-3.9
						C89,91.1,89.7,93.6,89,96.2L89,96.2z"/>
					<g class="st37">
						<path class="st38" d="M85.5,100.5l-0.6-0.1c-1.7-0.5-2.4-3.2-1.7-5.9c0.6-2.4,2.2-4.2,3.7-4.2c2.3,0.6,3,3.2,2.3,6
							C88.6,98.7,87,100.5,85.5,100.5L85.5,100.5z M87.3,90.9c-1.7,0-3,1.6-3.6,3.7c-0.6,2.5,0,4.9,1.3,5.3l0.4,0.1
							c1.3,0,2.7-1.6,3.3-3.8C89.4,93.7,88.8,91.3,87.3,90.9C87.4,90.9,87.3,90.9,87.3,90.9L87.3,90.9z"/>
					</g>
					<path class="st36" d="M87,82c-0.7,2.6-2.5,4.4-4,3.9c-1.5-0.5-2.2-3-1.5-5.6c0.7-2.6,2.5-4.4,4-3.9C87,76.9,87.7,79.4,87,82
						L87,82z"/>
					<g class="st37">
						<path class="st38" d="M83.5,86.3l-0.6-0.1c-1.7-0.5-2.4-3.1-1.7-5.9c0.6-2.4,2.2-4.2,3.7-4.2c2.3,0.6,3,3.2,2.3,6
							C86.6,84.5,85,86.3,83.5,86.3L83.5,86.3z M85.3,76.7c-1.7,0-3,1.6-3.6,3.7c-0.7,2.5,0,4.9,1.3,5.3l0.4,0.1
							c1.3,0,2.7-1.6,3.2-3.8C87.4,79.5,86.8,77.1,85.3,76.7C85.3,76.7,85.3,76.7,85.3,76.7L85.3,76.7z"/>
					</g>
					<path class="st36" d="M91.7,54.5c-0.1,2.7-1.4,4.8-3,4.7c-1.6-0.1-2.8-2.4-2.7-5.1c0.1-2.7,1.4-4.8,3-4.7
						C90.6,49.5,91.8,51.8,91.7,54.5L91.7,54.5z"/>
					<g class="st37">
						<path class="st38" d="M88.8,59.5l-0.1,0c-1.8-0.1-3.1-2.5-3-5.4c0.1-2.8,1.4-5,3.1-5c1.9,0.1,3.2,2.5,3.1,5.4
							C91.9,57.3,90.5,59.5,88.8,59.5L88.8,59.5z M88.9,49.6c-1.5,0-2.7,2-2.7,4.5c-0.1,2.6,1.1,4.8,2.5,4.9l0.1,0.3V59
							c1.4,0,2.6-2,2.6-4.5C91.5,51.9,90.4,49.7,88.9,49.6L88.9,49.6L88.9,49.6z"/>
					</g>
					<path class="st36" d="M88.4,88.4c-0.7,2.6-2.5,4.4-4,3.9c-1.5-0.5-2.2-3-1.5-5.6c0.7-2.6,2.5-4.4,4-3.9
						C88.4,83.3,89.1,85.8,88.4,88.4L88.4,88.4z"/>
					<g class="st37">
						<path class="st38" d="M84.9,92.7l-0.6-0.1c-1.6-0.5-2.4-3.1-1.7-5.9c0.6-2.4,2.2-4.2,3.7-4.2c2.2,0.6,3,3.2,2.3,6
							C88,90.9,86.5,92.7,84.9,92.7L84.9,92.7z M86.7,83c-1.7,0-3,1.6-3.6,3.7c-0.6,2.5,0,4.9,1.3,5.3l0.4,0.1
							c1.3,0,2.7-1.6,3.2-3.8C88.8,85.9,88.2,83.5,86.7,83C86.8,83,86.8,83,86.7,83L86.7,83z"/>
					</g>
					<path class="st36" d="M91.9,89.3c-0.7,2.6-2.5,4.4-4,3.9c-1.5-0.5-2.2-3-1.5-5.6c0.7-2.6,2.5-4.4,4-3.9
						C91.9,84.1,92.6,86.6,91.9,89.3L91.9,89.3z"/>
					<g class="st37">
						<path class="st38" d="M88.4,93.5l-0.6-0.1c-1.7-0.5-2.4-3.1-1.7-5.9c0.6-2.4,2.2-4.2,3.7-4.2c2.2,0.6,3,3.2,2.3,6
							C91.5,91.8,89.9,93.5,88.4,93.5L88.4,93.5z M90.2,83.9c-1.7,0-3,1.6-3.6,3.8c-0.7,2.5,0,4.9,1.3,5.3l0.4,0.1
							c1.3,0,2.7-1.6,3.3-3.8C92.3,86.7,91.7,84.3,90.2,83.9C90.3,83.9,90.2,83.9,90.2,83.9L90.2,83.9z"/>
					</g>
					<path class="st36" d="M88.8,60.6c-0.1,2.7-1.4,4.8-3,4.7c-1.6-0.1-2.8-2.4-2.7-5.1c0.1-2.7,1.4-4.8,3-4.7
						C87.7,55.5,88.9,57.8,88.8,60.6L88.8,60.6z"/>
					<g class="st37">
						<path class="st38" d="M85.9,65.5h-0.1c-1.7-0.1-3-2.5-3-5.4c0.1-2.8,1.5-5,3.1-5c1.9,0.1,3.2,2.5,3.1,5.4
							C89,63.4,87.6,65.5,85.9,65.5L85.9,65.5z M86.1,55.7c-1.5,0-2.7,2-2.7,4.5c-0.1,2.6,1.1,4.8,2.5,4.9l0.1,0.3V65
							c1.4,0,2.6-2,2.6-4.5C88.6,58,87.5,55.8,86.1,55.7L86.1,55.7L86.1,55.7z"/>
					</g>
					<path class="st36" d="M93.7,60.7c-0.2,2.7-1.7,4.8-3.2,4.6c-1.6-0.2-2.7-2.6-2.5-5.3c0.2-2.7,1.7-4.8,3.2-4.6
						C92.8,55.6,93.9,58,93.7,60.7L93.7,60.7z"/>
					<g class="st37">
						<path class="st38" d="M90.7,65.5l-0.2,0c-1.7-0.2-2.9-2.7-2.7-5.5c0.2-2.7,1.6-4.8,3.3-4.8c1.9,0.2,3.2,2.7,3,5.6
							C93.8,63.4,92.3,65.5,90.7,65.5L90.7,65.5z M91.2,55.7c-1.5,0-2.8,1.9-2.9,4.3c-0.2,2.5,0.9,4.8,2.3,5h0.2
							c1.4,0,2.6-1.9,2.8-4.3C93.7,58.1,92.6,55.9,91.2,55.7L91.2,55.7L91.2,55.7z"/>
					</g>
					<path class="st36" d="M88.2,66.1c-0.1,2.7-1.4,4.8-3,4.7c-1.6-0.1-2.8-2.4-2.7-5.1c0.1-2.7,1.4-4.8,3-4.7
						C87.1,61,88.3,63.3,88.2,66.1L88.2,66.1z"/>
					<g class="st37">
						<path class="st38" d="M85.4,71l-0.2,0c-1.7-0.1-3-2.5-3-5.4c0.1-2.8,1.4-5,3.1-5c1.9,0.1,3.2,2.5,3.1,5.4
							C88.4,68.8,87,71,85.4,71L85.4,71z M85.5,61.2c-1.5,0-2.7,2-2.7,4.5c-0.1,2.6,1.1,4.8,2.5,4.9l0.1,0.3v-0.3
							c1.4,0,2.6-2,2.6-4.5C88.1,63.5,86.9,61.3,85.5,61.2L85.5,61.2L85.5,61.2z"/>
					</g>
					<path class="st36" d="M93.1,66.8c-0.2,2.7-1.6,4.8-3.2,4.6c-1.6-0.2-2.7-2.5-2.5-5.3c0.2-2.7,1.6-4.8,3.2-4.6
						C92.2,61.7,93.3,64.1,93.1,66.8L93.1,66.8z"/>
					<g class="st37">
						<path class="st38" d="M90.1,71.6l-0.2,0c-1.7-0.2-2.9-2.7-2.7-5.5c0.2-2.8,1.6-4.8,3.3-4.8c1.9,0.2,3.2,2.7,3,5.5
							C93.2,69.5,91.8,71.6,90.1,71.6L90.1,71.6z M90.6,61.8c-1.5,0-2.7,1.9-2.9,4.3c-0.2,2.5,0.8,4.8,2.3,5h0.2
							c1.4,0,2.6-1.9,2.8-4.3C93.1,64.2,92,61.9,90.6,61.8C90.6,61.8,90.6,61.8,90.6,61.8L90.6,61.8z"/>
					</g>
					<path class="st36" d="M88.8,73.3c-0.1,2.7-1.4,4.8-3,4.7c-1.6-0.1-2.8-2.4-2.7-5.1c0.1-2.7,1.4-4.8,3-4.7
						C87.7,68.3,88.9,70.6,88.8,73.3L88.8,73.3z"/>
					<g class="st37">
						<path class="st38" d="M85.9,78.3h-0.1c-1.7-0.1-3-2.5-3-5.4c0.1-2.8,1.5-5,3.1-5c1.9,0.1,3.2,2.5,3.1,5.4
							C89,76.1,87.6,78.3,85.9,78.3L85.9,78.3z M86.1,68.4c-1.5,0-2.7,2-2.7,4.5c-0.1,2.6,1.1,4.8,2.5,4.9l0.1,0.3v-0.3
							c1.4,0,2.6-2,2.6-4.5C88.6,70.7,87.5,68.5,86.1,68.4L86.1,68.4L86.1,68.4z"/>
					</g>
					<path class="st36" d="M91,80.9c-0.7,2.6-2.5,4.4-4,3.9c-1.5-0.5-2.2-3-1.5-5.6c0.7-2.6,2.5-4.4,4-3.9
						C91,75.7,91.7,78.3,91,80.9L91,80.9z"/>
					<g class="st37">
						<path class="st38" d="M87.5,85.1L86.9,85c-1.7-0.5-2.4-3.1-1.7-5.9c0.6-2.4,2.2-4.2,3.8-4.2c2.2,0.6,3,3.2,2.3,6
							C90.6,83.4,89.1,85.1,87.5,85.1L87.5,85.1z M89.3,75.5c-1.7,0-3,1.6-3.6,3.8c-0.7,2.5-0.1,4.9,1.3,5.3l0.4,0.1
							c1.3,0,2.7-1.6,3.2-3.8C91.4,78.3,90.8,75.9,89.3,75.5C89.4,75.5,89.4,75.5,89.3,75.5L89.3,75.5z"/>
					</g>
					<path class="st36" d="M94.8,82c-0.7,2.6-2.5,4.4-4,3.9c-1.5-0.5-2.2-3-1.5-5.6c0.7-2.6,2.5-4.4,4-3.9
						C94.8,76.9,95.5,79.4,94.8,82L94.8,82z"/>
					<g class="st37">
						<path class="st38" d="M91.3,86.3l-0.6-0.1c-1.7-0.5-2.4-3.1-1.7-5.9c0.6-2.4,2.2-4.2,3.7-4.2c2.3,0.6,3,3.2,2.3,6
							C94.4,84.5,92.8,86.3,91.3,86.3L91.3,86.3z M93.1,76.7c-1.7,0-3,1.6-3.6,3.7c-0.7,2.5,0,4.9,1.4,5.3l0.4,0.1
							c1.3,0,2.7-1.6,3.2-3.8C95.2,79.5,94.6,77.1,93.1,76.7C93.1,76.7,93.1,76.7,93.1,76.7L93.1,76.7z"/>
					</g>
					<path class="st36" d="M94.3,73.4c-0.2,2.7-1.6,4.8-3.2,4.6c-1.6-0.2-2.7-2.5-2.5-5.3c0.2-2.7,1.7-4.8,3.2-4.6
						C93.4,68.4,94.5,70.7,94.3,73.4L94.3,73.4z"/>
					<g class="st37">
						<path class="st38" d="M91.3,78.3l-0.2,0c-1.7-0.2-2.9-2.7-2.7-5.5c0.2-2.7,1.6-4.8,3.3-4.8c1.9,0.2,3.2,2.7,2.9,5.5
							C94.3,76.2,92.9,78.3,91.3,78.3L91.3,78.3z M91.8,68.4c-1.5,0-2.8,1.9-2.9,4.3c-0.2,2.5,0.8,4.8,2.3,5h0.2
							c1.4,0,2.6-1.9,2.8-4.3C94.2,70.9,93.2,68.6,91.8,68.4C91.8,68.4,91.8,68.4,91.8,68.4L91.8,68.4z"/>
					</g>
				</g>
			</g>
		</g>
		<g class="st0">
			<g>
				<defs>
					<rect id="SVGID_21_" x="-214.3" width="514.3" height="300"/>
				</defs>
				<clipPath id="SVGID_22_">
					<use xlink:href="#SVGID_21_"  style="overflow:visible;"/>
				</clipPath>
				<rect x="-214.3" class="st39" width="514.3" height="100"/>
				<rect x="-214.3" y="100" class="st40" width="514.3" height="100"/>
				<rect x="-214.3" y="200" class="st41" width="514.3" height="100"/>
				<polygon class="st42" points="211.1,0 211.1,33.3 166.7,33.3 166.7,66.7 122.2,66.7 122.2,100 77.8,100 77.8,133.3 33.3,133.3 
					33.3,166.7 77.8,166.7 77.8,200 122.2,200 122.2,233.3 166.7,233.3 166.7,266.7 211.1,266.7 211.1,300 300,300 300,266.7 
					255.6,266.7 255.6,233.3 211.1,233.3 211.1,200 166.7,200 166.7,166.7 122.2,166.7 122.2,133.3 166.7,133.3 166.7,100 
					211.1,100 211.1,66.7 255.6,66.7 255.6,33.3 300,33.3 300,0 				"/>
			</g>
		</g>
		<g class="st0">
			<g>
				<defs>
					<rect id="SVGID_23_" x="-107.8" y="-0.4" width="515.5" height="300.7"/>
				</defs>
				<clipPath id="SVGID_24_">
					<use xlink:href="#SVGID_23_"  style="display:none;overflow:visible;"/>
				</clipPath>
				<polygon class="st43" points="-107.8,-0.4 -107.8,300.4 407.8,-0.4 				"/>
				<polygon class="st44" points="407.8,-0.4 -107.8,300.4 407.8,300.4 				"/>
				<g class="st45">
					<defs>
						<rect id="SVGID_25_" x="-107.8" y="-0.4" width="515.5" height="300.7"/>
					</defs>
					<clipPath id="SVGID_26_">
						<use xlink:href="#SVGID_25_"  style="overflow:visible;"/>
					</clipPath>
					<g class="st46">
						<polygon class="st19" points="-80.8,346.6 -134.8,254.1 380.8,-46.6 434.8,45.9 -80.8,346.6 						"/>
					</g>
					<g class="st46">
						<polygon class="st47" points="-87.5,335.1 -128,265.7 387.5,-35.1 428,34.4 -87.5,335.1 						"/>
					</g>
				</g>
				<polygon class="st48" points="114.4,97.4 92.3,93.6 96.1,115.7 78.8,101.4 71,122.5 63.2,101.4 46,115.7 49.8,93.6 27.6,97.4 
					42,80.1 20.9,72.3 42,64.6 27.6,47.3 49.8,51.1 46,28.9 63.2,43.3 71,22.2 78.8,43.3 96.1,28.9 92.3,51.1 114.4,47.3 
					100.1,64.6 121.2,72.3 100.1,80.1 				"/>
				<g class="st45">
					<defs>
						<rect id="SVGID_27_" x="-107.8" y="-0.4" width="515.5" height="300.7"/>
					</defs>
					<clipPath id="SVGID_28_">
						<use xlink:href="#SVGID_27_"  style="overflow:visible;"/>
					</clipPath>
					<path class="st49" d="M101.1,72.3c0,16.6-13.5,30.1-30.1,30.1C54.4,102.4,41,88.9,41,72.3C41,55.7,54.4,42.3,71,42.3
						C87.6,42.3,101.1,55.7,101.1,72.3"/>
					<path class="st50" d="M96.1,72.3c0,13.9-11.2,25.1-25.1,25.1C57.2,97.4,46,86.2,46,72.3C46,58.5,57.2,47.3,71,47.3
						C84.9,47.3,96.1,58.5,96.1,72.3"/>
				</g>
			</g>
		</g>
		<g class="st0">
			<g>
				<defs>
					<rect id="SVGID_29_" x="-37" y="-0.2" width="515" height="300.4"/>
				</defs>
				<clipPath id="SVGID_30_">
					<use xlink:href="#SVGID_29_"  style="overflow:visible;"/>
				</clipPath>
				<rect x="-37" y="-0.2" class="st51" width="515" height="300.4"/>
				<polygon class="st52" points="94.3,262.7 87.8,236.8 69.2,255.9 76.6,230.3 50.9,237.6 70.1,219.1 44.2,212.6 70.1,206.1 
					50.9,187.6 76.6,194.9 69.2,169.2 87.8,188.4 94.3,162.5 100.8,188.4 119.3,169.2 112,194.9 137.7,187.6 118.5,206.1 
					144.3,212.6 118.5,219.1 137.7,237.6 112,230.3 119.3,255.9 100.8,236.8 				"/>
				<rect x="-37" y="137.5" class="st53" width="515" height="25"/>
			</g>
		</g>
	</g>
</g>
</svg>
