<?xml version="1.0" encoding="utf-8"?>
<!-- Generator: Adobe Illustrator 22.1.0, SVG Export Plug-In . SVG Version: 6.00 Build 0)  -->
<svg version="1.1" xmlns="http://www.w3.org/2000/svg" xmlns:xlink="http://www.w3.org/1999/xlink" x="0px" y="0px"
	 viewBox="0 0 300 300" style="enable-background:new 0 0 300 300;" xml:space="preserve">
<style type="text/css">
	.st0{clip-path:url(#SVGID_2_);}
	.st1{display:none;clip-path:url(#SVGID_2_);fill:#120065;}
	.st2{clip-path:url(#SVGID_4_);fill:#22368F;}
	.st3{clip-path:url(#SVGID_4_);fill:#BC0030;}
	.st4{clip-path:url(#SVGID_4_);}
	.st5{clip-path:url(#SVGID_6_);fill:#FFFFFF;}
	.st6{clip-path:url(#SVGID_8_);fill:#FFFFFF;}
	.st7{clip-path:url(#SVGID_8_);fill:#C9002B;}
	.st8{clip-path:url(#SVGID_8_);fill:#2B0095;}
	.st9{clip-path:url(#SVGID_10_);fill:#314588;}
	.st10{clip-path:url(#SVGID_10_);fill:#FFFFFF;}
	.st11{clip-path:url(#SVGID_10_);fill:#9F1330;}
</style>
<g id="Layer_2">
</g>
<g id="Layer_1">
	<g>
		<defs>
			<rect id="SVGID_1_" y="-0.1" width="300" height="300"/>
		</defs>
		<clipPath id="SVGID_2_">
			<use xlink:href="#SVGID_1_"  style="overflow:visible;"/>
		</clipPath>
		<g id="Layer_2_1_" class="st0">
		</g>
		<rect x="-1" y="-0.7" class="st1" width="302" height="301.4"/>
		<g class="st0">
			<g>
				<defs>
					<rect id="SVGID_3_" x="29.5" y="-0.1" width="241.1" height="300.1"/>
				</defs>
				<clipPath id="SVGID_4_">
					<use xlink:href="#SVGID_3_"  style="overflow:visible;"/>
				</clipPath>
				<path class="st2" d="M40.8,20.5L228.5,138H83.8l150.7,150.7H40.8V20.5z M29.5-0.1V300H262L111.3,149.4H268L29.5-0.1z"/>
				<polygon class="st3" points="35.1,10.2 35.1,294.4 248.3,294.4 97.6,143.7 248.3,143.7 				"/>
				<g class="st4">
					<defs>
						<rect id="SVGID_5_" x="29.5" y="-0.1" width="241.1" height="300.1"/>
					</defs>
					<clipPath id="SVGID_6_">
						<use xlink:href="#SVGID_5_"  style="overflow:visible;"/>
					</clipPath>
					<path class="st5" d="M88.4,136.1c23.4,0,42.4-19,42.4-42.4c-3.7,9.4-10.5,17.3-19.1,22.4l-3.6-2.7l7.2-5.3l-8.6-2.2
						c0,0,0,0,0,0l4.6-7.7l-8.8,1.3l1.3-8.8L96,95.1c0,0,0,0,0,0l-2.2-8.7l-5.4,7.1l-5.3-7.1l-2.2,8.7l0,0l-7.7-4.6l1.3,8.8
						l-8.8-1.3l4.6,7.7c0,0,0,0,0,0l-8.7,2.2l7.2,5.3l-3.6,2.7c-8.6-5.1-15.3-13-19.1-22.4C46,117.1,65,136.1,88.4,136.1"/>
					<polygon class="st5" points="116.4,226.5 116.4,226.5 134,219 116.4,211.5 116.4,211.5 127.9,196.2 108.9,198.6 111.2,179.5 
						95.9,191.1 95.9,191.1 88.4,173.4 80.9,191.1 80.9,191.1 65.6,179.5 68,198.6 48.9,196.2 60.5,211.5 60.5,211.5 42.8,219 
						60.5,226.5 60.5,226.5 48.9,241.8 68,239.5 68,239.5 68,239.5 65.6,258.5 80.9,247 80.9,247 88.4,264.6 95.9,247 95.9,247 
						111.2,258.5 108.9,239.5 127.9,241.8 					"/>
				</g>
			</g>
		</g>
		<g class="st0">
			<g>
				<defs>
					<rect id="SVGID_7_" x="-107" y="0.1" width="514" height="299.8"/>
				</defs>
				<clipPath id="SVGID_8_">
					<use xlink:href="#SVGID_7_"  style="overflow:visible;"/>
				</clipPath>
				<rect x="-107" y="0.1" class="st6" width="514" height="299.8"/>
				<rect x="100" y="0.1" class="st7" width="99.9" height="299.8"/>
				<rect x="-107" y="100" class="st8" width="514" height="99.9"/>
				<polygon class="st6" points="150,105.4 146.1,117.3 152.1,119.2 				"/>
				<polygon class="st6" points="150,105.4 153.9,117.3 147.9,119.2 				"/>
				<polygon class="st6" points="161.9,114 149.4,114 149.4,120.3 				"/>
				<polygon class="st6" points="161.9,114 151.8,121.4 148.1,116.3 				"/>
				<polygon class="st6" points="138.1,114 148.2,121.4 151.9,116.3 				"/>
				<polygon class="st6" points="138.1,114 150.6,114 150.6,120.3 				"/>
				<polygon class="st6" points="157.3,128 153.5,116.1 147.5,118 				"/>
				<polygon class="st6" points="157.3,128 147.2,120.6 150.9,115.6 				"/>
				<polygon class="st6" points="142.7,128 152.8,120.6 149.1,115.6 				"/>
				<polygon class="st6" points="142.7,128 146.5,116.1 152.5,118 				"/>
				<polygon class="st6" points="216.6,133 212.8,144.9 218.7,146.8 				"/>
				<polygon class="st6" points="216.6,133 220.5,144.9 214.6,146.8 				"/>
				<polygon class="st6" points="228.5,141.6 216,141.6 216,147.9 				"/>
				<polygon class="st6" points="228.5,141.6 218.4,149 214.7,143.9 				"/>
				<polygon class="st6" points="204.7,141.6 214.8,149 218.5,143.9 				"/>
				<polygon class="st6" points="204.7,141.6 217.2,141.6 217.2,147.9 				"/>
				<polygon class="st6" points="224,155.6 220.1,143.7 214.2,145.6 				"/>
				<polygon class="st6" points="224,155.6 213.9,148.3 217.5,143.2 				"/>
				<polygon class="st6" points="209.3,155.6 219.4,148.3 215.7,143.2 				"/>
				<polygon class="st6" points="209.3,155.6 213.1,143.7 219.1,145.6 				"/>
				<polygon class="st6" points="177.6,172 173.7,183.9 179.7,185.8 				"/>
				<polygon class="st6" points="177.6,172 181.5,183.9 175.5,185.8 				"/>
				<polygon class="st6" points="189.5,180.7 177,180.7 177,186.9 				"/>
				<polygon class="st6" points="189.5,180.7 179.4,188 175.7,182.9 				"/>
				<polygon class="st6" points="165.7,180.7 175.8,188 179.5,182.9 				"/>
				<polygon class="st6" points="165.7,180.7 178.2,180.7 178.2,186.9 				"/>
				<polygon class="st6" points="184.9,194.6 181.1,182.7 175.1,184.7 				"/>
				<polygon class="st6" points="184.9,194.6 174.8,187.3 178.5,182.2 				"/>
				<polygon class="st6" points="170.3,194.6 180.4,187.3 176.7,182.2 				"/>
				<polygon class="st6" points="170.3,194.6 174.1,182.7 180.1,184.7 				"/>
				<polygon class="st6" points="83.4,133 87.2,144.9 81.3,146.8 				"/>
				<polygon class="st6" points="83.4,133 79.5,144.9 85.5,146.8 				"/>
				<polygon class="st6" points="71.5,141.6 84,141.6 84,147.9 				"/>
				<polygon class="st6" points="71.5,141.6 81.6,149 85.3,143.9 				"/>
				<polygon class="st6" points="95.3,141.6 85.2,149 81.5,143.9 				"/>
				<polygon class="st6" points="95.3,141.6 82.8,141.6 82.8,147.9 				"/>
				<polygon class="st6" points="76,155.6 79.9,143.7 85.8,145.6 				"/>
				<polygon class="st6" points="76,155.6 86.1,148.3 82.5,143.2 				"/>
				<polygon class="st6" points="90.7,155.6 80.6,148.3 84.3,143.2 				"/>
				<polygon class="st6" points="90.7,155.6 86.9,143.7 80.9,145.6 				"/>
				<polygon class="st6" points="122.4,172 126.3,183.9 120.3,185.8 				"/>
				<polygon class="st6" points="122.4,172 118.5,183.9 124.5,185.8 				"/>
				<polygon class="st6" points="110.5,180.7 123,180.7 123,186.9 				"/>
				<polygon class="st6" points="110.5,180.7 120.6,188 124.3,182.9 				"/>
				<polygon class="st6" points="134.3,180.7 124.2,188 120.5,182.9 				"/>
				<polygon class="st6" points="134.3,180.7 121.8,180.7 121.8,186.9 				"/>
				<polygon class="st6" points="115.1,194.6 118.9,182.7 124.9,184.7 				"/>
				<polygon class="st6" points="115.1,194.6 125.2,187.3 121.5,182.2 				"/>
				<polygon class="st6" points="129.7,194.6 119.6,187.3 123.3,182.2 				"/>
				<polygon class="st6" points="129.7,194.6 125.9,182.7 120,184.7 				"/>
			</g>
		</g>
		<g class="st0">
			<g>
				<defs>
					<rect id="SVGID_9_" x="-106.8" y="0.2" width="513.5" height="299.6"/>
				</defs>
				<clipPath id="SVGID_10_">
					<use xlink:href="#SVGID_9_"  style="overflow:visible;"/>
				</clipPath>
				<rect x="-106.8" y="0.2" class="st9" width="513.5" height="299.6"/>
				<rect x="-106.8" y="0.2" class="st10" width="513.5" height="199.7"/>
				<rect x="-106.8" y="0.2" class="st11" width="513.5" height="99.9"/>
			</g>
		</g>
	</g>
</g>
</svg>
