<?xml version="1.0" encoding="utf-8"?>
<!-- Generator: Adobe Illustrator 22.1.0, SVG Export Plug-In . SVG Version: 6.00 Build 0)  -->
<svg version="1.1" xmlns="http://www.w3.org/2000/svg" xmlns:xlink="http://www.w3.org/1999/xlink" x="0px" y="0px"
	 viewBox="0 0 300 300" style="enable-background:new 0 0 300 300;" xml:space="preserve">
<style type="text/css">
	.st0{clip-path:url(#SVGID_2_);}
	.st1{clip-path:url(#SVGID_2_);fill:#1A237B;}
	.st2{clip-path:url(#SVGID_4_);fill:#1A237B;}
	.st3{clip-path:url(#SVGID_4_);fill:#FFFFFF;}
	.st4{clip-path:url(#SVGID_4_);fill:#BD0034;}
</style>
<g id="Layer_2">
</g>
<g id="Layer_1">
	<g>
		<defs>
			<rect id="SVGID_1_" y="-0.1" width="300" height="300"/>
		</defs>
		<clipPath id="SVGID_2_">
			<use xlink:href="#SVGID_1_"  style="overflow:visible;"/>
		</clipPath>
		<g id="Layer_2_1_" class="st0">
		</g>
		<rect x="-1" y="-0.7" class="st1" width="302" height="301.4"/>
		<g class="st0">
			<g>
				<defs>
					<rect id="SVGID_3_" x="-53.1" y="-0.1" width="421.2" height="245.7"/>
				</defs>
				<clipPath id="SVGID_4_">
					<use xlink:href="#SVGID_3_"  style="overflow:visible;"/>
				</clipPath>
				<polygon class="st2" points="157.6,-0.1 157.6,7.7 157.6,10.4 157.6,11.6 110.9,35 157.6,35 157.6,42 157.6,52.5 157.6,63.1 
					157.6,70.1 110.9,70.1 157.6,93.5 157.6,97.4 157.6,105.3 157.6,105.9 143.2,105.9 137.9,105.9 135.4,105.9 69.8,73.1 
					69.8,105.9 62.8,105.9 52.2,105.9 41.7,105.9 34.7,105.9 34.7,73.1 -30.9,105.9 -38.8,105.9 -53.1,105.9 -53.1,245.6 
					368.1,245.6 368.1,-0.1 				"/>
				<polygon class="st2" points="-53.1,70.1 -53.1,93.4 -6.4,70.1 				"/>
				<polygon class="st2" points="69.8,-0.1 69.8,32 134,-0.1 				"/>
				<polygon class="st2" points="34.7,-0.1 -29.5,-0.1 34.7,32 				"/>
				<polygon class="st2" points="-53.1,35 -6.4,35 -53.1,11.7 				"/>
				<polygon class="st3" points="157.5,-0.1 87.3,35 71.6,35 141.8,-0.1 134,-0.1 69.8,32 69.8,-0.1 62.8,-0.1 62.8,35.5 62.8,39.4 
					62.8,42 73.3,42 89,42 94.4,42 96.8,42 157.6,42 157.6,35 110.9,35 157.6,11.6 157.6,10.4 157.6,7.7 157.6,-0.1 				"/>
				<polygon class="st3" points="34.7,-0.1 34.7,32 -29.5,-0.1 -53.1,-0.1 17.1,35 1.4,35 -53.1,7.8 -53.1,11.7 -6.4,35 -53.1,35 
					-53.1,42 7.6,42 15.5,42 31.2,42 41.7,42 41.7,39.4 41.7,36.8 41.7,35.5 41.7,-0.1 				"/>
				<polygon class="st3" points="89,63.1 73.3,63.1 62.8,63.1 62.8,65.7 62.8,68.3 62.8,69.6 62.8,105.9 69.8,105.9 69.8,73.1 
					135.4,105.9 137.9,105.9 143.2,105.9 157.6,105.9 157.6,105.3 87.3,70.1 103,70.1 157.6,97.4 157.6,93.5 110.9,70.1 157.6,70.1 
					157.6,63.1 96.8,63.1 				"/>
				<polygon class="st3" points="31.2,63.1 15.5,63.1 10.1,63.1 7.6,63.1 -53.1,63.1 -53.1,70.1 -6.4,70.1 -53.1,93.4 -53.1,105.2 
					17.1,70.1 32.8,70.1 -38.8,105.9 -30.9,105.9 34.7,73.1 34.7,105.9 41.7,105.9 41.7,69.6 41.7,65.7 41.7,63.1 				"/>
				<polygon class="st4" points="17.1,70.1 -53.1,105.2 -53.1,105.9 -38.8,105.9 32.8,70.1 				"/>
				<polygon class="st4" points="-53.1,7.8 1.4,35 17.1,35 -53.1,-0.1 				"/>
				<polygon class="st4" points="157.5,-0.1 141.8,-0.1 71.6,35 87.3,35 				"/>
				<polygon class="st4" points="87.3,70.1 157.6,105.3 157.6,97.4 103,70.1 				"/>
				<polygon class="st4" points="41.7,-0.1 41.7,35.5 41.7,36.8 41.7,39.4 41.7,42 31.2,42 15.5,42 7.6,42 -53.1,42 -53.1,63.1 
					7.6,63.1 10.1,63.1 15.5,63.1 31.2,63.1 41.7,63.1 41.7,65.7 41.7,69.6 41.7,105.9 52.2,105.9 62.8,105.9 62.8,69.6 62.8,68.3 
					62.8,65.7 62.8,63.1 73.3,63.1 89,63.1 96.8,63.1 157.6,63.1 157.6,52.5 157.6,42 96.8,42 94.4,42 89,42 73.3,42 62.8,42 
					62.8,39.4 62.8,35.5 62.8,-0.1 				"/>
				<polygon class="st3" points="239.3,71.6 250.8,71.6 254.3,60.7 257.8,71.6 269.3,71.6 260,78.3 263.6,89.2 254.3,82.5 245,89.2 
					248.6,78.3 				"/>
				<polygon class="st4" points="244.4,73.3 252,73.3 254.3,66.1 256.6,73.3 264.2,73.3 258.1,77.7 260.4,84.9 254.3,80.5 
					248.2,84.9 250.5,77.7 				"/>
				<polygon class="st3" points="193.5,117.7 205,117.7 208.5,106.8 212,117.7 223.5,117.7 214.2,124.4 217.8,135.3 208.5,128.5 
					199.3,135.3 202.8,124.4 				"/>
				<polygon class="st4" points="198.6,119.3 206.2,119.3 208.5,112.1 210.9,119.3 218.4,119.3 212.3,123.8 214.6,131 208.5,126.5 
					202.4,131 204.7,123.8 				"/>
				<polygon class="st3" points="280.2,106.2 290.4,106.2 293.5,96.6 296.7,106.2 306.9,106.2 298.6,112.2 301.8,121.9 293.5,115.9 
					285.3,121.9 288.5,112.2 				"/>
				<polygon class="st4" points="284.7,107.7 291.5,107.7 293.5,101.3 295.6,107.7 302.4,107.7 296.9,111.7 299,118.1 293.5,114.1 
					288.1,118.1 290.2,111.7 				"/>
				<polygon class="st3" points="237.7,189.9 250.4,189.9 254.3,177.8 258.2,189.9 270.9,189.9 260.7,197.4 264.6,209.5 
					254.3,202.1 244,209.5 248,197.4 				"/>
				<polygon class="st4" points="243.3,191.8 251.7,191.8 254.3,183.8 256.9,191.8 265.3,191.8 258.5,196.7 261.1,204.8 
					254.3,199.8 247.5,204.8 250.1,196.7 				"/>
			</g>
		</g>
	</g>
</g>
</svg>
