<?xml version="1.0" encoding="utf-8"?>
<!-- Generator: Adobe Illustrator 22.1.0, SVG Export Plug-In . SVG Version: 6.00 Build 0)  -->
<svg version="1.1" xmlns="http://www.w3.org/2000/svg" xmlns:xlink="http://www.w3.org/1999/xlink" x="0px" y="0px"
	 viewBox="0 0 300 300" style="enable-background:new 0 0 300 300;" xml:space="preserve">
<style type="text/css">
	.st0{clip-path:url(#SVGID_2_);}
	.st1{clip-path:url(#SVGID_2_);fill:#1A237B;}
	.st2{clip-path:url(#SVGID_4_);fill:#1A237B;}
	.st3{clip-path:url(#SVGID_4_);fill:#FFFFFF;}
	.st4{clip-path:url(#SVGID_4_);fill:#BD0034;}
	.st5{clip-path:url(#SVGID_6_);fill:#3564C2;}
	.st6{clip-path:url(#SVGID_6_);fill:#FFFFFF;}
	.st7{clip-path:url(#SVGID_6_);fill:#F5CD28;}
	.st8{clip-path:url(#SVGID_6_);fill:#95D4FD;}
	.st9{clip-path:url(#SVGID_6_);}
	.st10{clip-path:url(#SVGID_8_);}
	.st11{fill:#95D4FD;}
	.st12{fill:none;}
	.st13{fill:#FFFFFF;}
	.st14{clip-path:url(#SVGID_8_);fill:#95D4FD;}
	.st15{clip-path:url(#SVGID_8_);fill:#487BA2;}
	.st16{clip-path:url(#SVGID_8_);fill:#C0003B;}
	.st17{clip-path:url(#SVGID_8_);fill:#5B7133;}
	.st18{clip-path:url(#SVGID_8_);fill:#263732;}
	.st19{clip-path:url(#SVGID_8_);fill:#93C438;}
	.st20{clip-path:url(#SVGID_8_);fill:#B0008A;}
	.st21{clip-path:url(#SVGID_8_);fill:#F3CD2D;}
	.st22{clip-path:url(#SVGID_8_);fill:#6091BE;}
	.st23{clip-path:url(#SVGID_8_);fill:#2F4791;}
	.st24{clip-path:url(#SVGID_8_);fill:#FFFFFF;}
	.st25{clip-path:url(#SVGID_10_);fill:#FFFFFF;}
	.st26{clip-path:url(#SVGID_10_);fill:#CF4E20;}
	.st27{clip-path:url(#SVGID_10_);}
	.st28{clip-path:url(#SVGID_12_);fill:#CF4E20;}
	.st29{clip-path:url(#SVGID_12_);fill:#4AB132;}
	.st30{clip-path:url(#SVGID_14_);fill:#388752;}
	.st31{clip-path:url(#SVGID_14_);fill:#FFFFFF;}
	.st32{clip-path:url(#SVGID_16_);fill:#F3D02F;}
	.st33{clip-path:url(#SVGID_16_);fill:#192967;}
	.st34{clip-path:url(#SVGID_16_);fill:#FFFFFF;}
	.st35{clip-path:url(#SVGID_16_);fill:#BC0030;}
	.st36{clip-path:url(#SVGID_16_);}
	.st37{clip-path:url(#SVGID_18_);fill:#192967;}
	.st38{clip-path:url(#SVGID_18_);fill:#F3D02F;}
	.st39{clip-path:url(#SVGID_20_);fill:#FFFFFF;}
	.st40{clip-path:url(#SVGID_20_);}
	.st41{clip-path:url(#SVGID_22_);fill:#337B40;}
	.st42{clip-path:url(#SVGID_22_);}
	.st43{fill:#3B8310;}
</style>
<g id="Layer_2">
</g>
<g id="Layer_1">
	<g>
		<defs>
			<rect id="SVGID_1_" y="-0.1" width="300" height="300"/>
		</defs>
		<clipPath id="SVGID_2_">
			<use xlink:href="#SVGID_1_"  style="overflow:visible;"/>
		</clipPath>
		<g id="Layer_2_1_" class="st0">
		</g>
		<rect x="-1" y="-0.7" class="st1" width="302" height="301.4"/>
		<g class="st0">
			<g>
				<defs>
					<rect id="SVGID_3_" x="-53.1" y="-0.1" width="421.2" height="245.7"/>
				</defs>
				<clipPath id="SVGID_4_">
					<use xlink:href="#SVGID_3_"  style="overflow:visible;"/>
				</clipPath>
				<polygon class="st2" points="157.6,-0.1 157.6,7.7 157.6,10.4 157.6,11.6 110.9,35 157.6,35 157.6,42 157.6,52.5 157.6,63.1 
					157.6,70.1 110.9,70.1 157.6,93.5 157.6,97.4 157.6,105.3 157.6,105.9 143.2,105.9 137.9,105.9 135.4,105.9 69.8,73.1 
					69.8,105.9 62.8,105.9 52.2,105.9 41.7,105.9 34.7,105.9 34.7,73.1 -30.9,105.9 -38.8,105.9 -53.1,105.9 -53.1,245.6 
					368.1,245.6 368.1,-0.1 				"/>
				<polygon class="st2" points="-53.1,70.1 -53.1,93.4 -6.4,70.1 				"/>
				<polygon class="st2" points="69.8,-0.1 69.8,32 134,-0.1 				"/>
				<polygon class="st2" points="34.7,-0.1 -29.5,-0.1 34.7,32 				"/>
				<polygon class="st2" points="-53.1,35 -6.4,35 -53.1,11.7 				"/>
				<polygon class="st3" points="157.5,-0.1 87.3,35 71.6,35 141.8,-0.1 134,-0.1 69.8,32 69.8,-0.1 62.8,-0.1 62.8,35.5 62.8,39.4 
					62.8,42 73.3,42 89,42 94.4,42 96.8,42 157.6,42 157.6,35 110.9,35 157.6,11.6 157.6,10.4 157.6,7.7 157.6,-0.1 				"/>
				<polygon class="st3" points="34.7,-0.1 34.7,32 -29.5,-0.1 -53.1,-0.1 17.1,35 1.4,35 -53.1,7.8 -53.1,11.7 -6.4,35 -53.1,35 
					-53.1,42 7.6,42 15.5,42 31.2,42 41.7,42 41.7,39.4 41.7,36.8 41.7,35.5 41.7,-0.1 				"/>
				<polygon class="st3" points="89,63.1 73.3,63.1 62.8,63.1 62.8,65.7 62.8,68.3 62.8,69.6 62.8,105.9 69.8,105.9 69.8,73.1 
					135.4,105.9 137.9,105.9 143.2,105.9 157.6,105.9 157.6,105.3 87.3,70.1 103,70.1 157.6,97.4 157.6,93.5 110.9,70.1 157.6,70.1 
					157.6,63.1 96.8,63.1 				"/>
				<polygon class="st3" points="31.2,63.1 15.5,63.1 10.1,63.1 7.6,63.1 -53.1,63.1 -53.1,70.1 -6.4,70.1 -53.1,93.4 -53.1,105.2 
					17.1,70.1 32.8,70.1 -38.8,105.9 -30.9,105.9 34.7,73.1 34.7,105.9 41.7,105.9 41.7,69.6 41.7,65.7 41.7,63.1 				"/>
				<polygon class="st4" points="17.1,70.1 -53.1,105.2 -53.1,105.9 -38.8,105.9 32.8,70.1 				"/>
				<polygon class="st4" points="-53.1,7.8 1.4,35 17.1,35 -53.1,-0.1 				"/>
				<polygon class="st4" points="157.5,-0.1 141.8,-0.1 71.6,35 87.3,35 				"/>
				<polygon class="st4" points="87.3,70.1 157.6,105.3 157.6,97.4 103,70.1 				"/>
				<polygon class="st4" points="41.7,-0.1 41.7,35.5 41.7,36.8 41.7,39.4 41.7,42 31.2,42 15.5,42 7.6,42 -53.1,42 -53.1,63.1 
					7.6,63.1 10.1,63.1 15.5,63.1 31.2,63.1 41.7,63.1 41.7,65.7 41.7,69.6 41.7,105.9 52.2,105.9 62.8,105.9 62.8,69.6 62.8,68.3 
					62.8,65.7 62.8,63.1 73.3,63.1 89,63.1 96.8,63.1 157.6,63.1 157.6,52.5 157.6,42 96.8,42 94.4,42 89,42 73.3,42 62.8,42 
					62.8,39.4 62.8,35.5 62.8,-0.1 				"/>
				<polygon class="st3" points="239.3,71.6 250.8,71.6 254.3,60.7 257.8,71.6 269.3,71.6 260,78.3 263.6,89.2 254.3,82.5 245,89.2 
					248.6,78.3 				"/>
				<polygon class="st4" points="244.4,73.3 252,73.3 254.3,66.1 256.6,73.3 264.2,73.3 258.1,77.7 260.4,84.9 254.3,80.5 
					248.2,84.9 250.5,77.7 				"/>
				<polygon class="st3" points="193.5,117.7 205,117.7 208.5,106.8 212,117.7 223.5,117.7 214.2,124.4 217.8,135.3 208.5,128.5 
					199.3,135.3 202.8,124.4 				"/>
				<polygon class="st4" points="198.6,119.3 206.2,119.3 208.5,112.1 210.9,119.3 218.4,119.3 212.3,123.8 214.6,131 208.5,126.5 
					202.4,131 204.7,123.8 				"/>
				<polygon class="st3" points="280.2,106.2 290.4,106.2 293.5,96.6 296.7,106.2 306.9,106.2 298.6,112.2 301.8,121.9 293.5,115.9 
					285.3,121.9 288.5,112.2 				"/>
				<polygon class="st4" points="284.7,107.7 291.5,107.7 293.5,101.3 295.6,107.7 302.4,107.7 296.9,111.7 299,118.1 293.5,114.1 
					288.1,118.1 290.2,111.7 				"/>
				<polygon class="st3" points="237.7,189.9 250.4,189.9 254.3,177.8 258.2,189.9 270.9,189.9 260.7,197.4 264.6,209.5 
					254.3,202.1 244,209.5 248,197.4 				"/>
				<polygon class="st4" points="243.3,191.8 251.7,191.8 254.3,183.8 256.9,191.8 265.3,191.8 258.5,196.7 261.1,204.8 
					254.3,199.8 247.5,204.8 250.1,196.7 				"/>
			</g>
		</g>
		<g class="st0">
			<g>
				<defs>
					<rect id="SVGID_5_" x="-108.5" y="-0.8" width="517" height="301.6"/>
				</defs>
				<clipPath id="SVGID_6_">
					<use xlink:href="#SVGID_5_"  style="overflow:visible;"/>
				</clipPath>
				<rect x="-108.5" y="200.3" class="st5" width="517" height="100.5"/>
				<rect x="-108.5" y="-0.8" class="st5" width="517" height="100.5"/>
				<rect x="-108.5" y="99.7" class="st6" width="517" height="100.5"/>
				<polygon class="st7" points="119.7,167.5 150,115 180.3,167.5 				"/>
				<polygon class="st8" points="122.7,165.8 150,118.4 177.3,165.8 				"/>
				<g class="st9">
					<defs>
						<rect id="SVGID_7_" x="-108.5" y="-0.8" width="517" height="301.6"/>
					</defs>
					<clipPath id="SVGID_8_">
						<use xlink:href="#SVGID_7_"  style="overflow:visible;"/>
					</clipPath>
					<g class="st10">
						<path class="st11" d="M128.1,161.4c-0.4,0-0.8-0.1-1.1-0.1l-0.8-0.2l-0.1-0.5l1,0.3c0.8,0.1,1.6,0.3,2.5,0.3
							C129.1,161.3,128.6,161.4,128.1,161.4L128.1,161.4z"/>
					</g>
					<g class="st10">
						<path class="st11" d="M125.5,164.8l-0.6-0.4c0.3-0.1,0.6-0.5,1-0.9c0.7-0.2,1.1-0.1,1.5,0c0.3,0.1,0.6,0.1,0.9,0.2
							c0.5,0.3,1.4,0.3,1.9,0l0.8-0.1l-0.6,0.5c-0.5,0.3-1.6,0.4-2.3,0c-0.3,0-0.6-0.1-0.9-0.1c-0.4-0.1-0.6-0.2-1.1-0.1
							C125.9,164.2,125.7,164.6,125.5,164.8L125.5,164.8z"/>
					</g>
					<g class="st10">
						<path class="st11" d="M130.9,165.3c-0.8-0.1-1.3-0.1-2.1-0.1l-0.8-0.2l0,0.2c-0.5,0-0.8,0-0.9,0l-0.1,0v-0.3
							c0.4-0.2,0.8-0.2,1-0.2l0.8,0C129.6,164.7,130.3,164.7,130.9,165.3L130.9,165.3z"/>
					</g>
					<g class="st10">
						<path class="st11" d="M138.5,161.2c-1.1,0-1.4-0.4-1.6-1.4c-0.4-0.1-1.2-0.1-1.7,0.2l-0.8,0l-0.2-0.5h0.9
							c0.5-0.3,1.5-0.3,2.1,0c0.4,1.2,0.6,1.3,1.4,1.3c0-0.2,0.4-0.4,0.8-0.5l0.7,0.2c-0.7,0.4-1.1,0.5-1.2,0.7
							C138.6,161.2,138.5,161.2,138.5,161.2L138.5,161.2z"/>
					</g>
					<g class="st10">
						<polygon class="st12" points="134.7,161.5 134.9,161.5 135.6,161.5 137.2,161.5 						"/>
					</g>
					<g class="st10">
						<path class="st11" d="M136.7,164l-0.6-0.4c0.3-0.1,0.6-0.5,1-0.9c0.8-0.6,1.3-0.9,2.4-0.6c1,0.7,1.2,1,2,1
							c0.5,0,0.8-0.1,1.1-0.1c0.3,0,0.5-0.1,0.8-0.1c-0.3,0.5-0.5,0.6-0.7,0.6c-0.4,0.1-0.7,0.1-1.3,0.1c-0.9-0.1-1.3-0.4-1.8-0.8
							c-1.2-0.5-1.5-0.3-2.2,0.2C137.1,163.4,136.8,163.8,136.7,164L136.7,164z"/>
					</g>
					<g class="st10">
						<path class="st11" d="M142.2,165.7c-0.8,0-1.4-0.3-2-0.5l-0.7-0.3c-0.2,0.2-0.5,0.3-0.6,0.4l-0.2-0.4h0.2
							c0-0.2,0.2-0.3,0.6-0.5l0.9,0.3c0.6,0.2,1.1,0.5,1.8,0.5c0.2,0,0.4-0.1,0.7-0.1c0.3-0.1,0.6-0.1,1-0.1
							c-0.3,0.5-0.6,0.6-0.8,0.6C142.7,165.6,142.5,165.7,142.2,165.7L142.2,165.7z"/>
					</g>
					<g class="st10">
						<path class="st11" d="M148.8,160.2c-0.8-0.3-1.6-0.3-2.4-0.3h-0.9l-0.2-0.5h0.9c1.1,0,1.9,0,2.6,0.3l2.5,0L148.8,160.2
							L148.8,160.2z"/>
					</g>
					<g class="st10">
						<path class="st11" d="M149.9,163.4c-0.9-0.1-1.3-0.4-1.8-0.7l-0.5-0.4c-0.5-0.5-1.3-0.6-2-0.7c-0.3,0.2-0.5,0.3-0.7,0.4
							l-0.2-0.4h0.2c0-0.1,0.2-0.3,0.6-0.5c1,0.1,1.9,0.2,2.5,0.8l0.5,0.3c0.5,0.3,0.8,0.6,1.6,0.7c0.7-0.3,0.9-0.4,1.2-0.5
							l-0.4,0.7C150.5,163.2,150.3,163.3,149.9,163.4L149.9,163.4z"/>
					</g>
					<g class="st10">
						<path class="st11" d="M151.1,164.6c-0.7,0-1.3-0.1-1.9-0.2c-0.7-0.4-1.5,0-1.8,0.2l-0.3-0.4c0.4-0.3,1.5-0.8,2.3-0.3
							c0.7,0.2,1.4,0.2,2.2,0.2c0.3-0.1,0.6-0.2,0.9-0.4c0.4-0.2,0.9-0.4,1.1-0.6l0.1,0h0.6l-0.5,0.5c-0.1,0.2-0.6,0.4-1.1,0.6
							c-0.3,0.1-0.6,0.3-0.8,0.4C151.7,164.6,151.4,164.6,151.1,164.6L151.1,164.6z"/>
					</g>
					<g class="st10">
						<path class="st11" d="M157.8,161.5c-0.8-0.3-2-0.3-2.5-0.3L155,161l0.2-0.3c0.6,0,1.9-0.1,2.6,0.3c0.5-0.1,0.9-0.5,1.3-1
							l0.4-0.5c0.9-0.1,1.5-0.1,2.1,0.2c-0.7,0.2-1.3,0.2-1.9,0.2C159.1,160.9,158.6,161.4,157.8,161.5L157.8,161.5z"/>
					</g>
					<g class="st10">
						<path class="st11" d="M158.5,164.4l-0.1-0.5c0,0,0.8-0.2,1.3-0.3c0.5-0.7,1-0.3,1.3-0.1c0.2,0.1,0.4,0.3,0.6,0.3
							c0.7-0.3,1.2-0.9,1.5-1.7c0.1,1-0.4,1.8-1.5,2.2c-0.5-0.1-0.7-0.3-0.9-0.4c-0.3-0.3-0.4-0.3-0.8,0.1
							C159.2,164.2,158.5,164.4,158.5,164.4L158.5,164.4z"/>
					</g>
					<g class="st10">
						<path class="st11" d="M160.7,162.4l-0.2-0.3h0.2c-0.1-0.2,0.2-0.4,0.6-0.7l0.5-0.4c0.3-0.3,0.6-0.6,1.3-0.7
							c0.4-0.6,1-0.1,1.3,0.2c-0.7,0-0.9,0-1.1,0.2c-0.7,0.1-0.9,0.3-1.2,0.6c-0.1,0.1-0.3,0.3-0.5,0.5
							C161.1,162.1,160.9,162.3,160.7,162.4L160.7,162.4z"/>
					</g>
					<g class="st10">
						<path class="st11" d="M164.6,164.4l-0.5-0.1c0-0.2,0.4-1.4,0.6-1.9c0.6-0.4,1-0.6,1.4-0.5c0.3,0.1,0.6,0.4,0.9,1
							c0.2,0,0.5,0.2,0.8,0.4c0.3,0.2,0.7,0.4,1,0.5c-0.6,0.3-0.9,0.1-1.3-0.1c-0.3-0.2-0.6-0.4-0.9-0.5c-0.4-0.6-0.6-0.8-0.7-0.9
							c-0.2,0-0.5,0.1-0.9,0.3C164.9,163.1,164.6,164.2,164.6,164.4L164.6,164.4z"/>
					</g>
					<g class="st10">
						<path class="st11" d="M169.1,161.5c-0.7-1.1-0.9-1.7-1.5-1.9c0,0.4-0.2,0.9-0.3,1.1l-0.6-0.3c0.3-0.2,0.4-0.6,0.8-1.2
							c1.2,0.1,1.5,0.8,1.8,1.6c0.8,0.1,1.3,0.1,1.7-0.3C170.7,161.5,170,161.5,169.1,161.5L169.1,161.5z"/>
					</g>
					<g class="st10">
						<path class="st11" d="M174.8,164c-0.8-0.1-1.1-0.4-1.3-0.6c-0.3-0.2-0.5-0.4-0.8-0.6c-0.4-0.2-0.7-0.1-1.1,0.9l-0.5-0.2
							c0.3-0.6,0.7-1.4,1.2-1.4l0.6,0.4c0.4,0.1,0.6,0.3,0.9,0.6c0.2,0.2,0.5,0.4,0.8,0.6c-0.2-0.4,0.1-0.5,0.6-0.5
							C175,163.7,174.9,163.7,174.8,164L174.8,164z"/>
					</g>
					<g class="st10">
						<path class="st11" d="M155.4,164.8l-0.2-0.4h0.2c0-0.2,0.2-0.3,0.6-0.5c0.8-0.7,1.1-0.9,1.6-1.7c0.6-0.1,1,0,1.3,0
							c0.4,0.1,0.8,0.1,1.3,0.1c-0.5,0.5-0.9,0.4-1.4,0.4c-0.3,0-0.7-0.1-1-0.1c-0.3,0.8-0.6,1.1-1.3,1.6
							C155.8,164.6,155.6,164.7,155.4,164.8L155.4,164.8z"/>
					</g>
					<g class="st10">
						<path class="st11" d="M132,161.6l-0.5,0c0-0.3,0.3-0.5,1.2-1c0.3-0.4,0.7-0.2,1-0.1l0.5,0.6c-0.3,0-0.5-0.1-0.7-0.1l0,0
							L133,161C132.3,161.4,132,161.5,132,161.6L132,161.6z"/>
					</g>
					<g class="st10">
						<path class="st11" d="M134.8,164.1c-0.2,0-0.4-0.1-0.6-0.2c-0.2-0.1-0.5-0.3-0.8-0.3c-0.2,0.2-0.5,0.3-0.7,0.4l-0.2-0.4h0.2
							c0-0.1,0.2-0.3,0.6-0.5c0.5,0,0.8,0.2,1.1,0.4c0.3,0.2,0.5,0.3,0.9,0.4C135.2,164.1,135,164.1,134.8,164.1L134.8,164.1z"/>
					</g>
					<g class="st10">
						<polygon class="st13" points="150.1,155 149.9,118.9 150.1,118.9 150.1,155 						"/>
					</g>
					<g class="st10">
						<polygon class="st13" points="137,141.3 137,141 163,141 137,141.3 						"/>
					</g>
					<g class="st10">
						<polygon class="st13" points="169.6,152.4 140.4,135.8 140.5,135.6 169.6,152.4 						"/>
					</g>
					<g class="st10">
						<polygon class="st13" points="130.5,152.7 159.8,135.4 160,135.7 130.5,152.7 						"/>
					</g>
					<g class="st10">
						<polygon class="st13" points="144.2,151.6 144,151.4 155,132.3 144.2,151.6 						"/>
					</g>
					<g class="st10">
						<polygon class="st13" points="157,153 144.5,131.8 144.7,131.7 157,153 						"/>
					</g>
					<path class="st14" d="M154,141.2c0,2.2-1.8,4-4,4c-2.2,0-4-1.8-4-4c0-2.2,1.8-4,4-4C152.2,137.1,154,138.9,154,141.2L154,141.2
						z"/>
					<path class="st15" d="M172.4,157.2l-13.5,0.2c0,0,0.1,2,1,2.1c0.9,0.1,12.1-0.1,12.6,0.8c0.5,0.9-10.9,1.4-10.9,1.4
						s10-0.1,10.6,0.7c0.5,0.8-5.5,0.9-5.1,1c0.5,0.1,7.1-0.1,7.7,0.6c0.6,0.8-3,1.2-3,1.2s5.5,0.5,5.6,0.5
						C176,163.4,172.4,157.2,172.4,157.2L172.4,157.2z"/>
					<path class="st16" d="M148,138.5c-0.4,0.3,1,0.5,0.9,1.4c-0.1,0.7-0.9,1.6-1.2,2.2c-0.3,0.6,1.6,2.9,3.3,1.6
						c1.8-1.2,1.6-3.5,1-3.9C150.5,139,149.6,137.6,148,138.5L148,138.5z"/>
					<g class="st10">
						<path d="M150.5,143.7c-0.1-0.2-0.7-0.8-1.2-1.1c-0.4-0.3-1.1-0.5-1.3-0.3c0,0,0,0.2-0.1,0.2c0,0-0.1,0.2-0.1,0.1
							c0,0,0-0.4,0.1-0.5c0.3-0.3,1.2,0.1,1.5,0.3C149.8,142.7,150.6,143.3,150.5,143.7L150.5,143.7z"/>
					</g>
					<path class="st17" d="M138.4,146.7c1.6-0.4,2,1.5,2.6,1.8c0.5,0.3,1.9,0.5,2.2,0.7c0.4,0.2,1.7,1.1,1.7,1.1s0.6-1.6,1.3-1.8
						c0.7-0.2,3.8,2,3.8,2s0.4-2,1.2-1.7c0.8,0.3,4.9,3.4,4.9,3.4s0.2-1.1,1.1-1.4c0.9-0.3,3.9,1.6,3.9,1.6s0.3-1.5,1-1.5
						c1.8,0,7.6,6.3,8.9,6.4c0.6,0.1-2.1,0.9-2.1,0.9s0.5,0.4,0.2,0.8c-0.3,0.4-8.3,0-8.3,0s0.2,0.5,0.1,0.7c-0.2,0.3-35,0.5-35,0.5
						C129.1,154.6,135.5,147.4,138.4,146.7L138.4,146.7z"/>
					<path class="st18" d="M152.1,159.9c1.2-0.3,0.4-3.7-6.3-8.8c10.5,7.3,3.8,8.3,14.6,8.6C158.5,159.8,152.1,159.9,152.1,159.9
						L152.1,159.9z"/>
					<path class="st18" d="M150.4,150.9c0,0,10,7.7,10.4,8.1c0.5,0,2.1,0.1,2.1,0.1S161.5,158.9,150.4,150.9L150.4,150.9z"/>
					<path class="st18" d="M156.3,152.4c0,0,8.4,6.6,7,6.6c-1.4,0,4.6,0.2,5.6-0.1C163.6,158.6,164.7,158.4,156.3,152.4L156.3,152.4
						z"/>
					<path class="st18" d="M161.4,152.6l7.4,5.5c0,0,1.1-0.3,1.7-0.6C168.4,157.9,168,156.9,161.4,152.6L161.4,152.6z"/>
					<path class="st19" d="M139.7,147.4c0.6,0.4,0.7,1.1,1.1,1.3c0.4,0.2,3.8,1.8,5.7,3.8c1.9,2,4.8,4.5,3.7,4.8c-1,0.3-2-0.8-2-0.8
						s1.4,2.3-0.5,2.5c-1.9,0.2-6.5-6.9-6.5-6.9s2.2,6.4-0.6,6.1c-2.9-0.3-2.6-4.8-2.6-4.8s-0.8,2.2-1.3,2.1c-0.6-0.1,0-2.8,0-2.8
						s-3.3,5.5-4.6,4.9C130.9,157,137.2,147,139.7,147.4L139.7,147.4z"/>
					<path class="st19" d="M146.5,149.3c-0.1-0.5,0.4-0.4,1.4,0.2c1,0.5,9.3,6.9,9.1,7.5C156.8,157.7,147,152.4,146.5,149.3
						L146.5,149.3z"/>
					<path class="st19" d="M152.6,150.4c-0.6-0.1,6.5,7.1,8.2,6.7C162.5,156.6,153.1,150.5,152.6,150.4L152.6,150.4z"/>
					<path class="st19" d="M157.6,151c-0.8-0.1,7,6.9,8.6,6.6C167.9,157.2,158.8,151.1,157.6,151L157.6,151z"/>
					<path class="st19" d="M162.1,151.4c-0.9,0.1,5.8,5.3,6.6,5.2C169.6,156.6,164.1,151.1,162.1,151.4L162.1,151.4z"/>
					<path class="st20" d="M139.2,137.2c0,0,4.1-4.8,10.8-4.8c6.7,0,10.8,4.8,10.8,4.8l-1.6-2.9c0,0-3.3-3.4-9.2-3.4
						c-5.8,0-9.1,3.3-9.1,3.3L139.2,137.2z"/>
					<path class="st16" d="M158.1,132.5c0,0-2.9-2.5-8.1-2.5c-5.2,0-8.1,2.5-8.1,2.5l-1.4,2.3c0,0,3.1-3.6,9.5-3.6
						c6.3,0,9.5,3.6,9.5,3.6L158.1,132.5z"/>
					<path class="st21" d="M157.1,130.5c0,0-2.7-2-7.1-2c-4.5,0-6.8,1.8-6.8,1.8l-1.4,2.5c0,0,2.7-2.6,8.3-2.6
						c5.6,0,8.3,2.6,8.3,2.6L157.1,130.5z"/>
					<path class="st19" d="M155.9,128.6l1.3,2.2c0,0-2.6-2-7.1-2c-4.5,0-7.2,2.1-7.2,2.1l1.3-2.2c0,0,1.8-1.3,5.9-1.3
						C154.1,127.3,155.9,128.6,155.9,128.6L155.9,128.6z"/>
					<path class="st22" d="M155,127.1l1.1,1.9c0,0-2.6-1.3-6.1-1.3c-3.5,0-6.2,1.6-6.2,1.6l1-1.8c0,0,1.8-1.1,5.2-1.1
						C153.4,126.4,155,127.1,155,127.1L155,127.1z"/>
					<path class="st23" d="M154.4,126.1l0.9,1.5c0,0-1.6-1.1-5.3-1.1c-3.6,0-5.3,1.1-5.3,1.1l0.9-1.6c0,0,1.6-0.6,4.4-0.6
						C152.8,125.5,154.4,126.1,154.4,126.1L154.4,126.1z"/>
					<path class="st24" d="M143.4,160.7l13.6,0.1c0,0-2.4,0.3-2.3,0.6c0.1,0.3,4.8,0.4,4.8,0.4s-2.9,0.2-3,0.5
						c-0.1,0.3,1.4,0.4,1.4,0.4s-2.7,0.3-2.7,0.5c0,0.3,3.4,0.4,3.1,0.4c-0.3,0-4.5,0.1-4.5,0.4c0,0.3,3,1.1,3,1.1l-17.9,0.3
						c0,0,2.8-0.4,2.8-1c0-0.6-2-0.7-2-0.7s7.3,0.1,7.6-0.2c0.3-0.4-1.5-0.6-1.5-0.6s2.9,0.2,3.1-0.2c0.2-0.3-3.9-0.9-3.9-0.9
						s2.4,0.1,2.7-0.3C148.2,161.2,143.4,160.7,143.4,160.7L143.4,160.7z"/>
					<path class="st15" d="M140.8,161c0,0-13.4,0.4-14.6,1.2c-1.2,0.8,7.5,1.5,7.5,1.5s-8.9,0.1-9.6,0.9c-0.7,0.8,5.3,0.7,5.3,0.7
						l-6.7,0.5l3.2-5.5L140.8,161z"/>
					<path class="st21" d="M110.9,161.9c0.1,0.5-0.1,1-0.6,1.1c-0.5,0.1-0.9-0.1-1.1-0.6c-0.1-0.5,0.1-1,0.6-1.1
						C110.2,161.2,110.7,161.4,110.9,161.9L110.9,161.9z"/>
					<g class="st10">
						<path class="st12" d="M110.9,161.9c0.1,0.5-0.1,1-0.6,1.1c-0.5,0.1-0.9-0.1-1.1-0.6c-0.1-0.5,0.1-1,0.6-1.1
							C110.2,161.2,110.7,161.4,110.9,161.9z"/>
					</g>
					<path class="st21" d="M112.3,170.5c-0.5,0.5-0.9,0.8-0.6,1.6l-0.3,0.1l-1.4-3.1l0.3-0.1c0.3,0.5,0.5,0.6,0.7,0.5
						c0.2-0.1,0.3-0.2,0.5-0.3l0.9-0.8l-1-2.2l-0.6,0.1c-0.3,0-0.6,0.1-0.8,0.2c-0.4,0.2-0.4,0.7-0.3,1.1l-0.3,0.1l-1.1-2.3l0.3-0.1
						c0.6,0.7,1.1,0.7,2,0.6l5.3-0.5l1,1.1L112.3,170.5z M115,165.8l-3.3,0.3l0.9,1.9L115,165.8z"/>
					<g class="st10">
						<path d="M111.4,172.2l-1.4-3.1c0.2,0.1,0.3,0.1,0.4,0.2L111.4,172.2l0.3-0.2c-0.4-0.7,0-1,0.5-1.5l4.5-4.2l-1-1l-5.9,0.5
							c-0.3,0-0.6,0-0.9-0.2c0.4,0.1,0.6,0.2,0.9,0.2l5.9-0.5l1,1.1l-4.4,4.2c-0.6,0.5-0.9,0.8-0.6,1.5L111.4,172.2L111.4,172.2
							L111.4,172.2L111.4,172.2z M110.8,169.6c-0.1,0-0.2-0.1-0.4-0.2C110.6,169.4,110.7,169.5,110.8,169.6l1.5-1.3l-1.1-2.2
							l-0.6,0.1c-0.3,0-0.6,0.1-0.8,0.2c-0.5,0.2-0.3,0.8-0.2,1l-0.3-0.4c0.1-0.4,0.2-0.6,0.5-0.7c0.2-0.1,0.5-0.1,0.7-0.2l0.8-0.1
							l1.1,2.3L110.8,169.6L110.8,169.6z"/>
					</g>
					<path class="st21" d="M117.1,178.1c-0.5,0.4-0.6,0.7-0.2,1.3l-0.3,0.2l-2-2.8l0.3-0.2c0.4,0.6,0.7,0.6,1.3,0.2l4-3l0,0l-6.3,2
						l-0.2-0.3l3.6-5.4v0l-3.1,2.3c-1.2,0.9-1.3,1.1-0.9,1.9l-0.3,0.2l-1.4-2l0.2-0.2c0.6,0.6,0.8,0.6,2-0.3l3-2.2
						c0.6-0.4,0.5-0.8,0.2-1.3l0.2-0.2l1.7,2.3l-2.6,3.9l4.5-1.4l1.6,2.2l-0.3,0.2c-0.4-0.5-0.7-0.7-1.3-0.2L117.1,178.1z"/>
					<g class="st10">
						<path d="M116.6,179.6l-2-2.8c0.2,0,0.3,0.1,0.4,0.1L116.6,179.6l0.3-0.3c-0.4-0.5-0.4-0.9,0.2-1.3l3.7-2.8
							c0.5-0.4,0.7-0.3,1.1-0.1c-0.2-0.1-0.3-0.1-0.4-0.1l-4.3,3c-0.5,0.4-0.5,0.7-0.2,1.2L116.6,179.6L116.6,179.6z M115.5,177.1
							c-0.2,0-0.3-0.1-0.4-0.2C115.3,176.9,115.4,177,115.5,177.1l4.3-3.2l-3.7,2.9C115.9,177,115.7,177.1,115.5,177.1L115.5,177.1z
							 M113.9,175.8l0.2-0.4l6-1.6l0,0L113.9,175.8L113.9,175.8z M122.3,175.3c-0.2,0-0.3,0-0.4-0.1l-1.3-2.1l-4.4,1.4l2.6-4
							l-0.3-0.3l0.3,0.3l-2.6,3.9l4.4-1.4L122.3,175.3L122.3,175.3z M113.2,174.2l-0.4-0.4c0-0.5,0.3-0.8,1.2-1.5l3.1-2.3l0,0
							l-3.1,2.4C112.9,173.3,112.8,173.5,113.2,174.2L113.2,174.2z M112.5,172.7c-0.2,0-0.3-0.1-0.5-0.2c0.6,0.1,0.7,0.2,1.8-0.6
							l3-2.2c0.6-0.4,0.5-0.7,0.2-1.2l0.4,0.4c0,0.3-0.1,0.6-0.5,0.9l-3,2.2C113.2,172.5,112.8,172.7,112.5,172.7L112.5,172.7z"/>
					</g>
					<path class="st21" d="M118.2,180.6c0.5,0.5,0.8,0.5,1.3,0l3.1-3.5c0.4-0.5,0.4-0.8-0.1-1.3l0.2-0.2l4.3,3.9l-0.7,1.7l-0.3-0.1
						c0.1-1.1-0.2-2.3-1-3c-0.6-0.6-0.8-0.4-1.3,0.2l-1.2,1.4l0.1,0.1c0.7,0.6,1.1,0.8,2,0.3l0.3,0.3l-1.8,2.1l-0.3-0.3
						c0.5-0.9,0.2-1.4-0.5-2L122,180l-1.3,1.5c-0.4,0.4-0.6,0.7-0.1,1.2c0.9,0.8,2.1,1,3.2,0.9l0.1,0.3l-1.7,0.9l-4.3-3.9
						L118.2,180.6z"/>
					<g class="st10">
						<path d="M122.3,184.8L122.3,184.8l-4.3-3.9c0.2,0,0.3,0,0.4,0l3.9,3.8l0.4-0.2L122.3,184.8L122.3,184.8z M123.7,183.7
							c-0.2,0-0.3,0-0.5,0c-0.7,0-1.8-0.2-2.6-0.9c-0.3-0.3-0.2-0.9,0.1-1.3l1.3-1.5c0.6,0.5,0.9,0.9,0.9,1.4
							c-0.1-0.5-0.4-0.8-0.8-1.2l-1.4,1.4c-0.2,0.3-0.3,0.9-0.1,1.1c1.1,1,2.3,1,3.2,0.9L123.7,183.7L123.7,183.7z M118.8,181
							c-0.1,0-0.3,0-0.4-0.1c0.5,0,0.6,0.1,1-0.3l3.1-3.5c0.2-0.2,0.3-0.4,0.3-0.6c0-0.2-0.1-0.4-0.4-0.6l0.4,0.3
							c0,0.1,0.1,0.2,0.1,0.3c0,0.2-0.1,0.4-0.3,0.7l-3.1,3.5C119.3,180.9,119.1,181,118.8,181L118.8,181z M125.9,179.8
							c-0.3-0.7-0.6-1.3-1-1.7c-0.6-0.6-0.8-0.4-1.2,0.2l-0.5,0.6l0.4-0.6c0.5-0.6,0.7-0.8,1.4-0.2
							C125.4,178.5,125.7,179.1,125.9,179.8L125.9,179.8z"/>
					</g>
					<path class="st21" d="M129.2,187.4c0,0.8-0.1,1.4,0.6,1.9l-0.2,0.3l-2-1.3c0-0.3,0-0.6,0.1-0.9l0.1-1.3
						c0.2-1.4-0.1-1.7-0.4-1.9l-1.1,1.8c-0.4,0.6-0.3,0.9,0.3,1.3l-0.2,0.3l-2.9-1.8l0.2-0.3c0.6,0.4,0.9,0.3,1.2-0.3l2.4-4
						c0.4-0.6,0.3-0.9-0.3-1.2l0.2-0.3l3.5,2.2c1.2,0.8,1.5,1.9,1,2.8c-0.6,0.9-1.6,0.8-2.5,0.5c0.1,0.3,0.1,0.7,0.1,1.1
						L129.2,187.4z M127.8,183.9c1.3,0.8,2,0.7,2.6-0.2c0.5-0.8,0.2-1.4-0.6-2c-0.5-0.3-0.7-0.1-1,0.3l-1.1,1.8L127.8,183.9z"/>
					<g class="st10">
						<path d="M129.6,189.6l-2-1.3c0-0.3,0-0.6,0-0.8l0.2-1.5c0.2-1.3-0.1-1.6-0.4-1.8l-1.1,1.8c-0.3,0.6-0.3,0.8,0.3,1.2l-0.5-0.2
							c-0.1-0.3-0.1-0.6,0.1-1l1.1-1.8c0.4,0.2,0.7,0.5,0.5,1.9l-0.1,1.3c0,0.4-0.1,0.6-0.1,0.9L129.6,189.6l0.2-0.3
							c-0.7-0.4-0.6-1.2-0.6-1.9l0.1-1.2c0-0.4,0-0.8-0.1-1c1.2,0.3,2,0.2,2.5-0.5c0.5-0.9,0.2-2-1-2.7l-0.8-0.5l0.8,0.4
							c1.2,0.7,1.6,1.9,1,2.8c-0.5,0.8-1.5,0.9-2.5,0.5c0.2,0.2,0.2,0.6,0.1,0.9l-0.1,1.3c0,0.7-0.1,1.4,0.6,1.9L129.6,189.6
							L129.6,189.6z M124.3,185.8c-0.1,0-0.2,0-0.4-0.1C124.1,185.7,124.2,185.7,124.3,185.8c0.2-0.1,0.4-0.2,0.6-0.6l2.5-4
							c0.3-0.5,0.3-0.8-0.3-1.2l0.5,0.3c0.1,0.3,0.1,0.6-0.1,1l-2.5,4C124.8,185.6,124.6,185.8,124.3,185.8L124.3,185.8z
							 M129.3,184.5L129.3,184.5c-0.4,0-0.9-0.2-1.5-0.6l0,0C128.5,184.3,128.9,184.4,129.3,184.5L129.3,184.5
							c0.4-0.1,0.8-0.3,1.1-0.8c0.5-0.8,0.3-1.3-0.6-1.9l-0.4-0.2c-0.2,0-0.3,0.2-0.5,0.5l-0.4,0.7l0.4-0.8c0.2-0.3,0.3-0.5,0.6-0.5
							l0.5,0.2c0.9,0.6,1.2,1.2,0.7,2C130.1,184.3,129.7,184.5,129.3,184.5L129.3,184.5z"/>
					</g>
					<path class="st21" d="M133.2,184.7c0.3-0.6,0.1-0.9-0.5-1.2l0.1-0.3l3.1,1.4l-0.1,0.3c-0.6-0.3-0.9-0.2-1.2,0.4l-1.9,4.2
						c-0.3,0.6-0.1,0.9,0.5,1.2l-0.1,0.3l-3.1-1.4l0.1-0.3c0.6,0.3,0.9,0.2,1.2-0.4L133.2,184.7z"/>
					<g class="st10">
						<path d="M133.1,191.1l-3.1-1.4l0.1-0.1l3,1.4l0.1-0.2c-0.6-0.3-0.8-0.6-0.5-1.2l1.9-4.2c0.2-0.4,0.4-0.6,0.7-0.6l0.5-0.1
							l-0.5,0.2c-0.3,0-0.4,0.2-0.6,0.6l-1.9,4.3c-0.3,0.6-0.2,0.8,0.4,1.1L133.1,191.1L133.1,191.1z M130.2,189.6l0.5-0.1
							c0.3,0,0.4-0.2,0.6-0.5l1.9-4.3c0.3-0.6,0.2-0.9-0.5-1.1l0.6,0.2c0.2,0.3,0.2,0.6,0,1l-1.9,4.2c-0.2,0.4-0.4,0.6-0.7,0.6l0,0
							L130.2,189.6L130.2,189.6z"/>
					</g>
					<path class="st21" d="M140.9,188.4h-0.4c-0.1-1-0.6-2.2-1.6-2.6c-1.4-0.4-2.3,1.2-2.6,2.3c-0.7,2.2,0.1,3.5,1.1,3.8
						c0.9,0.3,1.7-0.1,2.4-0.7l0.2,0.3c-1,0.9-2.1,1.4-3.4,0.9c-1.8-0.6-2.6-2.5-2-4.3c0.6-1.9,2.5-3.4,4.4-2.8
						c0.3,0.1,0.6,0.3,0.8,0.4c0.2,0.1,0.4,0.3,0.6,0.3c0.2,0.1,0.5,0,0.7,0l0.1,0L140.9,188.4z"/>
					<g class="st10">
						<path d="M137.5,192.7c-0.3,0-0.6,0-1-0.2c-1.8-0.6-2.7-2.5-2.1-4.4c0.7-2.1,2.6-3.4,4.4-2.8c0.3,0.1,0.6,0.3,0.8,0.4l0.5,0.4
							l0,0l0.7,0l-0.7,0.1l-0.6-0.4c-0.2-0.1-0.4-0.3-0.8-0.4c-1.8-0.6-3.7,0.7-4.3,2.7c-0.6,1.8,0.3,3.7,2,4.3
							c0.8,0.3,1.6,0.2,2.4-0.2C138.5,192.5,138,192.7,137.5,192.7L137.5,192.7z M136.3,191.1c-0.5-0.7-0.5-1.7-0.1-3
							c0.2-0.6,0.9-2.4,2.2-2.4c0.2,0,0.3,0.1,0.5,0.2c0,0-0.1,0-0.1,0c-1.6,0-2.3,1.7-2.5,2.3C135.9,189.4,136,190.4,136.3,191.1
							L136.3,191.1z"/>
					</g>
					<path class="st21" d="M145.7,192.7c0.1,0.7,0.1,1.2,1,1.4l0,0.3l-3.3-0.5l0.1-0.3c0.6,0.1,0.8,0,0.8-0.3c0-0.2,0-0.4,0-0.6
						l-0.2-1.2l-2.4-0.4l-0.3,0.6c-0.1,0.2-0.3,0.5-0.3,0.8c-0.1,0.5,0.3,0.8,0.7,0.8l-0.1,0.3l-2.5-0.4l0-0.3
						c0.9-0.1,1.2-0.5,1.6-1.3l2.6-4.7l1.5-0.2L145.7,192.7z M143.4,187.8l-1.6,2.9l2.1,0.3L143.4,187.8z"/>
					<g class="st10">
						<path d="M146.6,194.5l-3.3-0.5l0.8-0.6c-0.1,0.3-0.2,0.4-0.4,0.4L146.6,194.5l0-0.4c-0.8-0.1-0.9-0.6-1-1.2l-0.9-6.2l-1.4,0.3
							l-2.6,4.6c-0.3,0.5-0.5,0.9-0.9,1.1c0.4-0.3,0.6-0.7,0.8-1.2l2.6-4.7l1.5-0.2l0.9,6c0.1,0.8,0.2,1.2,0.9,1.4L146.6,194.5
							L146.6,194.5z M141.7,193.3l-0.4,0c-0.2-0.2-0.4-0.5-0.4-0.8c0-0.3,0.2-0.6,0.3-0.8l0.3-0.6l2.4,0.4l0.2,1.2
							c0,0.2,0,0.4,0,0.6h0l-0.2-1.7l-2.4-0.4l-0.3,0.5c-0.1,0.2-0.3,0.5-0.3,0.8C140.9,193,141.5,193.2,141.7,193.3L141.7,193.3z"
							/>
					</g>
					<path class="st21" d="M155.5,189l-0.4,0.2c-0.5-0.9-1.3-1.9-2.4-1.8c-1.5,0.1-1.7,2-1.6,3.1c0.1,2.3,1.3,3.2,2.4,3.2
						c0.9,0,1.5-0.8,2-1.5l0.3,0.2c-0.6,1.2-1.4,2-2.8,2.1c-1.9,0.1-3.3-1.4-3.5-3.3c-0.1-2,1.1-4,3.1-4.2c0.3,0,0.6,0,0.9,0.1
						c0.2,0.1,0.4,0.1,0.6,0.1c0.3,0,0.5-0.1,0.7-0.3l0.1-0.1L155.5,189z"/>
					<g class="st10">
						<path d="M152.7,194.5c-1.8,0-3.2-1.4-3.3-3.3c-0.1-1.9,1-4.1,3.1-4.2c0.5-0.1,0.7,0.1,0.9,0.1l0.6,0.1c0.2,0,0.4-0.1,0.6-0.2
							l0,0.1c-0.2,0.2-0.4,0.3-0.6,0.3l-0.7-0.1c-0.2-0.1-0.4-0.1-0.7-0.1c-2.2,0.1-3.3,2.2-3.2,4.1
							C149.6,193,151,194.4,152.7,194.5L152.7,194.5l0.2-0.1c0.7,0,1.4-0.3,1.9-0.8c-0.5,0.6-1.1,0.8-1.9,0.9L152.7,194.5
							L152.7,194.5z M153.5,193.7c-1.1,0-2.3-0.8-2.4-3.2c-0.1-1.5,0.3-3.1,1.6-3.1h0c0.8,0,1.4,0.4,1.8,0.8c-0.5-0.4-1-0.8-1.7-0.8
							c-1.7,0.1-1.7,2.6-1.7,3.1c0.1,2.3,1.3,3.1,2.3,3.1c1,0,1.6-0.8,2-1.5c0,0.2-0.1,0.4-0.2,0.6
							C154.8,193.2,154.3,193.7,153.5,193.7C153.5,193.7,153.5,193.7,153.5,193.7L153.5,193.7z"/>
					</g>
					<path class="st21" d="M156.9,193.6c0.7-0.2,0.9-0.4,0.7-1.1l-1-4.5c-0.1-0.7-0.4-0.8-1.1-0.7l-0.1-0.3l5.6-1.3l1,1.6l-0.3,0.2
						c-0.8-0.7-1.9-1.1-3-0.9c-0.8,0.2-0.8,0.5-0.6,1.2l0.4,1.8l0.2,0c0.9-0.2,1.3-0.5,1.4-1.5l0.4-0.1l0.6,2.7l-0.4,0.1
						c-0.5-0.9-1-1-1.9-0.8l-0.2,0.1l0.4,2c0.1,0.5,0.3,0.9,0.9,0.7c1.2-0.3,2-1.2,2.6-2.2l0.3,0.1l-0.3,1.9l-5.6,1.3L156.9,193.6z"
						/>
					<g class="st10">
						<path d="M156.9,194l-0.1-0.4c0.4-0.1,0.6-0.2,0.7-0.4c0.1-0.2,0.1-0.4,0-0.7l-1-4.5c-0.1-0.5-0.3-0.7-0.6-0.7l0.2-0.1
							c0.3,0.1,0.4,0.4,0.5,0.7l1,4.5c0.1,0.3,0.1,0.6,0,0.8c-0.1,0.2-0.3,0.3-0.7,0.4l0.1,0.2l5.7-1.6l0,0.4L156.9,194L156.9,194z
							 M159.9,192.9c-0.7,0-0.8-0.4-0.9-0.8l-0.5-2c1.5-0.5,1.4-0.2,1.8,0.2c-0.5-0.3-0.8-0.3-1.6-0.2l0.3,2
							c0.1,0.5,0.2,0.8,0.6,0.8c1.3-0.3,2.2-1.1,2.8-2.2l0,0.4c-0.7,0.9-1.6,1.6-2.5,1.8C160,192.9,159.9,192.9,159.9,192.9
							L159.9,192.9z M158.3,188.5l-0.3-0.7c-0.2-0.7-0.2-1,0.6-1.2c0.9-0.1,1.5,0.1,2.1,0.3c-0.5-0.2-1-0.3-1.5-0.3
							c-1.4,0.2-1.3,0.5-1.2,1.2L158.3,188.5L158.3,188.5z"/>
					</g>
					<path class="st21" d="M168.9,187.8l-1.3-3c-0.3-0.8-0.6-1.2-1.5-0.8l-0.1-0.3l2.3-1l0.1,0.3c-0.8,0.5-0.7,0.9-0.4,1.7l2.1,4.9
						l-0.8,0.4l-5.7-3.5l1.5,3.4c0.4,1,0.6,1.1,1.6,0.9l0.1,0.3l-2.5,1.1l-0.1-0.3c0.8-0.5,0.8-0.8,0.5-1.7l-1.8-4.1
						c-0.4-0.2-0.8-0.3-1.3-0.2l-0.1-0.3l2.2-1L168.9,187.8z"/>
					<g class="st10">
						<path d="M164.4,192.2l-0.2-0.3c0.8-0.6,0.8-0.9,0.5-1.7l-1.8-4.1c-0.2-0.1-0.5-0.2-0.9-0.2l-0.3-0.2c0.7,0.1,1,0.2,1.2,0.4
							l1.8,4.1c0.4,0.8,0.3,1.2-0.5,1.7l0.1,0.2l0.5-0.2L164.4,192.2L164.4,192.2z M166.5,190.8c-0.1,0-0.2,0-0.3,0
							c-0.5,0-0.7-0.3-1-1l-1.5-3.4l5.8,3.4l0.8-0.4l-2.2-4.9c-0.2-0.5-0.4-0.9-0.1-1.2c-0.1,0.4,0,0.7,0.2,1.2l2.1,4.9l-0.8,0.4
							l-5.8-3.5l1.5,3.4c0.4,1,0.5,1.1,1.6,0.9L166.5,190.8L166.5,190.8z M168.9,187.8l-5.1-3.1l-2.1,1l-0.1,0l2.2-1L168.9,187.8
							l-1.4-2.9c-0.2-0.6-0.4-0.9-0.9-0.9l-0.3-0.1l0.3,0c0.5,0,0.7,0.4,1,1L168.9,187.8L168.9,187.8z"/>
					</g>
					<path class="st21" d="M173.4,179.1l1.5,1.3l-0.2,0.3c-0.8-0.3-2-0.6-2.8-0.1l3.1,4.5c0.4,0.6,0.7,0.6,1.3,0.2l0.2,0.3l-2.8,2
						l-0.2-0.3c0.6-0.4,0.6-0.7,0.3-1.3l-3.1-4.5c-0.7,0.6-0.9,1.7-0.9,2.6l-0.4,0.1l-0.7-1.9L173.4,179.1z"/>
					<g class="st10">
						<path d="M173.6,187.6l-0.2-0.3c0.6-0.4,0.6-0.7,0.3-1.3l-3.1-4.5c-0.7,0.7-0.8,1.8-0.8,2.6l-0.2-0.4c0.2-0.8,0.4-1.7,1.1-2.3
							l3.1,4.6c0.4,0.6,0.3,0.9-0.3,1.3l0.1,0.2l0.6-0.4L173.6,187.6L173.6,187.6z M175.6,185.6c-0.2,0-0.4-0.2-0.7-0.5l-3.1-4.5
							c0.5-0.4,1.3-0.4,2.2-0.2c-1,0-1.6-0.1-2.1,0.2l3.1,4.5c0.4,0.6,0.6,0.6,1.2,0.2l-0.4,0.3
							C175.8,185.6,175.7,185.6,175.6,185.6L175.6,185.6z M168.8,182.6l-0.1-0.2l4.7-3.3l1.6,1.3c-0.2,0-0.3,0-0.4,0.1l-1.1-1.3
							l-4.7,3.3L168.8,182.6L168.8,182.6z"/>
					</g>
					<path class="st21" d="M181.6,178.7c0.7,0.2,1.4,0.4,2-0.1l0.2,0.2l-1.7,1.7c-0.3-0.1-0.6-0.2-0.9-0.3l-1.2-0.5
						c-1.3-0.5-1.6-0.3-1.9,0l1.5,1.5c0.5,0.5,0.8,0.5,1.3,0l0.2,0.2l-2.4,2.4l-0.2-0.2c0.5-0.5,0.5-0.8,0-1.3l-3.2-3.3
						c-0.5-0.5-0.8-0.5-1.3,0l-0.2-0.2l2.9-2.9c1-1,2.2-1.1,2.9-0.3c0.7,0.8,0.4,1.8-0.1,2.6c0.4-0.1,0.7,0.1,1,0.2L181.6,178.7z
						 M177.9,179.3c1.1-1.1,1.1-1.8,0.4-2.6c-0.7-0.7-1.3-0.6-2,0.2c-0.5,0.4-0.3,0.6,0.1,1l1.4,1.5L177.9,179.3z"/>
					<g class="st10">
						<path d="M178.7,184l-0.2-0.3c0.5-0.5,0.5-0.8,0-1.3l-3.2-3.3c-0.5-0.5-0.7-0.5-1.2,0l0.3-0.4c0.4-0.1,0.6-0.1,1,0.3l3.2,3.3
							c0.5,0.5,0.5,0.8,0,1.3l0.2,0.2l0.5-0.5L178.7,184L178.7,184z M180.2,181.7c-0.2,0-0.4-0.1-0.7-0.4l-1.5-1.5
							c0.3-0.5,0.8-0.5,1.9-0.1l2.1,0.8l0,0l0.4-0.4l-0.3,0.5l-2.1-0.8c-1.1-0.4-1.5-0.4-1.8,0l1.5,1.5c0.5,0.5,0.7,0.5,1.2,0
							l-0.3,0.4C180.4,181.6,180.3,181.7,180.2,181.7L180.2,181.7z M178,179.3L178,179.3c1.1-1.3,0.9-1.9,0.3-2.6
							c-0.6-0.6-1.2-0.6-2,0.2c-0.4,0.4-0.3,0.6,0.1,1l0.6,0.6l-0.7-0.5c-0.4-0.4-0.6-0.6-0.1-1.1c0.8-0.8,1.4-0.9,2.1-0.2
							C179.2,177.5,179,178.2,178,179.3L178,179.3z M182.7,179c-0.4,0-0.7-0.1-1.1-0.2l-1.1-0.4c-0.3-0.1-0.5-0.2-0.8-0.2
							c0-0.1,0.1,0,0.2,0c0.3,0,0.5,0.1,0.7,0.1l1.1,0.4c0.7,0.2,1.4,0.3,1.9-0.1l-0.2,0.3C183.1,178.9,182.9,179,182.7,179
							L182.7,179z M179.8,177.6c0.2-0.6,0.3-1.4-0.3-2c-0.7-0.7-1.9-0.6-2.8,0.3l-0.7,0.7l0.6-0.7c1-1,2.2-1.1,3-0.3
							C180.3,176.2,180.1,177,179.8,177.6L179.8,177.6z"/>
					</g>
					<path class="st21" d="M186.5,172.4c0.7,0.2,1.1,0.4,1.7-0.3l0.3,0.2l-1.9,2.8l-0.3-0.2c0.3-0.5,0.3-0.7,0.1-0.9
						c-0.1-0.1-0.3-0.2-0.5-0.2l-1.1-0.4l-1.4,2l0.4,0.5c0.1,0.2,0.3,0.5,0.5,0.6c0.4,0.3,0.8,0,1.1-0.3l0.3,0.2l-1.5,2.1l-0.3-0.2
						c0.3-0.9,0-1.3-0.4-2l-3-4.5l0.4-1.4L186.5,172.4z M181.1,172.3l1.8,2.7l1.2-1.7L181.1,172.3z"/>
					<g class="st10">
						<path d="M184,178.6l-0.3-0.2c0.3-0.9,0-1.3-0.4-2l-3-4.5l0.5-1.4l5.8,1.9c0.9,0.3,1.2,0.3,1.6-0.2l-0.2,0.4
							c-0.4,0.2-0.8,0.1-1.3,0l-5.8-1.9l-0.4,1.4l3,4.4c0.5,0.8,0.8,1.2,0.4,2.1L184,178.6l0.3-0.6L184,178.6L184,178.6z
							 M184.5,176.8c-0.6-0.3-0.8-0.5-0.9-0.8l-0.4-0.5l1.4-2l1.2,0.4c0.2,0.1,0.4,0.2,0.5,0.3l-1.6-0.6l-1.4,2l0.4,0.5
							c0.2,0.2,0.3,0.5,0.5,0.6c0.5,0.1,0.8,0,1-0.3l-0.2,0.3C184.8,176.7,184.7,176.8,184.5,176.8L184.5,176.8z M183,175l-2-2.9
							l3.2,1.1L183,175L183,175z"/>
					</g>
					<path class="st21" d="M188.3,171.7c0.3-0.6,0.2-0.9-0.4-1.2l-4.1-2.1c-0.6-0.3-0.9-0.2-1.2,0.4l-0.3-0.1l1.5-3.1l0.3,0.1
						c-0.3,0.6-0.2,0.9,0.4,1.2l4.1,2.1c0.5,0.3,0.7,0.4,1-0.3c0.5-1.1,0.3-2.3-0.2-3.4l0.2-0.2l1.4,1.4l-2.6,5.2L188.3,171.7z"/>
					<g class="st10">
						<path d="M188.6,171.9l-0.3-0.2c0.3-0.7,0.2-1-0.4-1.2l-4.1-2.1c-0.7-0.1-0.9,0-1.1,0.4l0.2-0.5c0.2-0.1,0.3-0.2,0.5-0.2
							l4.7,2.2c0.6,0.3,0.7,0.6,0.4,1.3L188.6,171.9l2.5-5.3l-0.3-0.2l0.3,0.2L188.6,171.9L188.6,171.9z M189.2,169.3l-4.7-2.3
							c-0.4-0.2-0.6-0.4-0.6-0.8c0.1,0.3,0.3,0.5,0.6,0.7l4.1,2.1c0.7,0.2,0.8,0.1,1-0.3c0.4-0.9,0.4-2-0.2-3.3l0.3,0.2
							c0.4,1.3,0.4,2.3-0.1,3.2C189.5,169.2,189.4,169.3,189.2,169.3L189.2,169.3z"/>
					</g>
					<path class="st21" d="M189,161.9c0.1-0.5,0.6-0.7,1.1-0.6c0.5,0.1,0.7,0.6,0.6,1.1c-0.1,0.5-0.6,0.7-1.1,0.6
						C189.1,162.9,188.8,162.4,189,161.9L189,161.9z"/>
					<g class="st10">
						<path d="M189.8,163.1l-0.3,0c-0.5-0.2-0.8-0.7-0.6-1.2c0.1-0.4,0.5-0.6,0.9-0.6c0.8,0.2,1,0.7,0.9,1.2
							C190.6,162.9,190.2,163.1,189.8,163.1L189.8,163.1z"/>
					</g>
					<path class="st21" d="M110.9,153.2c0.6-0.5,1.1-0.9,1.1-1.7l0.3,0l0.4,2.4c-0.2,0.2-0.5,0.4-0.7,0.5l-1.1,0.7
						c-1.1,0.8-1.2,1.2-1.1,1.6l2.1-0.3c0.7-0.1,0.8-0.4,0.7-1.1l0.3,0l0.5,3.4l-0.3,0c-0.1-0.7-0.4-0.9-1-0.8l-4.6,0.7
						c-0.7,0.1-0.8,0.4-0.7,1.1l-0.3,0l-0.6-4.1c-0.2-1.4,0.4-2.4,1.4-2.6c1-0.2,1.7,0.7,2,1.6c0.2-0.3,0.5-0.5,0.8-0.7L110.9,153.2
						z M109.2,156.6c-0.2-1.6-0.8-2-1.8-1.8c-1,0.1-1.2,0.8-1.1,1.8c0.1,0.6,0.3,0.6,0.9,0.5l2-0.3L109.2,156.6z"/>
					<g class="st10">
						<path d="M106.4,159.7l-0.6-4.1c-0.2-1.4,0.4-2.4,1.4-2.6c1.2-0.2,1.8,1,2,1.6c0.1-0.3,0.4-0.5,0.7-0.7l1-0.7
							c0.6-0.5,1.1-0.9,1-1.7l0.2,0.5c-0.2,0.6-0.7,0.9-1.1,1.3l-0.9,0.7c-0.3,0.2-0.6,0.4-0.7,0.7c-0.3-0.6-0.8-1.6-1.8-1.6
							c-1.3,0.2-1.8,1.2-1.6,2.5L106.4,159.7l0.4-0.1c-0.1-0.3-0.1-0.6,0.1-0.8c0.1-0.2,0.3-0.3,0.7-0.3l4.6-0.7
							c0.4-0.1,0.8,0.1,0.9,0.3c-0.2-0.2-0.3-0.2-0.6-0.2l-4.8,0.8c-0.3,0-0.5,0.1-0.6,0.3c-0.1,0.1-0.1,0.4-0.1,0.7L106.4,159.7
							L106.4,159.7z M107.1,157.1c-0.6,0-0.7-0.2-0.7-0.6c-0.1-0.6,0-1.1,0.2-1.4c0.2-0.2,0.5-0.4,0.9-0.5l0.4,0
							c0.8,0,1.3,0.6,1.5,1.9l0,0c-0.3-1.3-0.7-1.8-1.4-1.8v0l-0.4,0.1c-0.4,0.1-0.7,0.2-0.9,0.4c-0.2,0.3-0.3,0.7-0.2,1.3
							c0.1,0.4,0.2,0.5,0.5,0.5l1.3-0.2l-0.9,0.2C107.2,157.1,107.1,157.1,107.1,157.1L107.1,157.1z M109.7,156.7
							c-0.1-0.5-0.1-0.9,1.1-1.6l1.1-0.8c0.4-0.3,0.6-0.4,0.7-0.5l-0.1-0.4l0.1,0.4c-0.2,0.2-0.4,0.3-0.6,0.4l-1.3,0.9
							C109.8,155.9,109.7,156.3,109.7,156.7l2.1-0.4c0.6-0.1,0.8-0.4,0.7-1l0.2,0.6c-0.1,0.3-0.4,0.5-0.8,0.5L109.7,156.7
							L109.7,156.7z"/>
					</g>
					<path class="st21" d="M112,151.1c0-0.7-0.2-0.9-0.8-1l-4.6-0.2c-0.7,0-0.9,0.2-0.9,0.9l-0.3,0l0.2-5.8l1.8-0.5l0.1,0.3
						c-0.9,0.6-1.6,1.6-1.6,2.7c0,0.9,0.3,0.9,1,0.9l1.9,0.1l0-0.2c0-1-0.1-1.4-1.1-1.8l0-0.4l2.8,0.1l0,0.4c-1,0.2-1.2,0.7-1.2,1.7
						l0,0.2l2,0.1c0.6,0,0.9,0,1-0.7c0-1.2-0.6-2.3-1.4-3.1l0.1-0.3l1.7,0.8l-0.2,5.8L112,151.1z"/>
					<g class="st10">
						<path d="M112.4,151.2l-0.4,0c0-0.7-0.2-1-0.8-1l-4.6-0.2c-0.4,0-0.8,0.2-0.9,0.9l0-0.6c0.2-0.2,0.4-0.3,0.8-0.3l4.7,0.2
							c0.7,0,0.9,0.3,0.9,1L112.4,151.2l0.1-5.9l-0.3-0.1l0.3,0.1L112.4,151.2L112.4,151.2z M111.3,148.6l-2.1-0.1
							c0-0.8,0.1-1.3,0.5-1.6c-0.3,0.4-0.4,0.8-0.4,1.3l2,0.2c0,0,0,0,0,0c0.6,0,0.9-0.1,0.9-0.7c0.1-1.4-0.9-2.5-1.4-3l0.4,0.1
							c0.5,0.7,1.2,1.7,1.1,2.9C112.1,148.5,111.7,148.6,111.3,148.6L111.3,148.6z M106.8,148.4c-0.7,0-1,0-1-0.9
							c0-0.6,0.3-1.3,0.8-1.9c-0.4,0.7-0.6,1.3-0.7,1.9C105.9,148.3,106.1,148.3,106.8,148.4l0.7-0.1L106.8,148.4L106.8,148.4z"/>
					</g>
					<path class="st21" d="M110,141.1l2,0.4c0.6,0.1,0.9,0,1.1-0.7l0.3,0.1l-0.7,3.4l-0.3-0.1c0.2-0.7,0-1-0.7-1.1l-4.5-1
						c-0.6-0.1-0.9,0-1.1,0.7l-0.3-0.1l0.7-3.4c0.5-2.1,1.5-2.7,2.4-2.5c1.7,0.4,1.5,2.1,1.2,3.5L110,141.1z M109.7,141l0.1-0.6
						c0.3-1.1,0-1.7-1.1-2c-1-0.2-1.6,0.2-1.8,1.1c-0.2,0.8,0.1,0.8,0.8,1L109.7,141z"/>
					<g class="st10">
						<path d="M112.7,144.3l-0.4-0.1c0-0.4,0-0.6-0.1-0.8c-0.1-0.1-0.3-0.2-0.6-0.3l-4.5-1c-0.7,0-0.9,0.1-1,0.7l0.1-0.5
							c0.2-0.2,0.4-0.3,0.6-0.3l4.9,1.1c0.3,0.1,0.5,0.2,0.7,0.3c0.1,0.2,0.1,0.4,0,0.8L112.7,144.3l0.1-0.8L112.7,144.3
							L112.7,144.3z M112.4,141.6L112.4,141.6l-2.3-0.5l0.1-0.9c0.3-1.5,0.4-3-1.2-3.4c-1.3,0-2,0.9-2.4,2.5l-0.2,0.8l0.1-0.8
							c0.4-1.6,1.1-2.6,2.1-2.6c2.1,0.4,2,2,1.6,3.6l-0.2,0.8l1.9,0.4c0.7,0,0.9-0.2,1-0.7l-0.1,0.6
							C112.8,141.5,112.6,141.6,112.4,141.6L112.4,141.6z M107.6,140.6c-0.6-0.1-1-0.2-0.8-1c0.2-0.8,0.6-1.2,1.3-1.2l0.5,0.1
							c1.1,0.3,1.4,0.9,1.2,2h-0.1c0.2-1.3-0.2-1.7-1.1-2l-0.5-0.1c-0.7,0-1.1,0.4-1.3,1.1C106.8,140.3,107,140.4,107.6,140.6l0.3,0
							L107.6,140.6L107.6,140.6z"/>
					</g>
					<path class="st21" d="M112.5,135.2c1.6,0.7,2.3,0.4,2.7-0.6c0.5-1.3-0.1-2-1.4-2.6l-3.1-1.3c-0.6-0.3-0.9-0.1-1.2,0.5l-0.3-0.1
						l0.9-2.2l0.3,0.1c-0.3,0.6-0.2,0.9,0.5,1.2l3.2,1.3c1.5,0.6,2.1,1.7,1.4,3.4c-0.7,1.8-1.9,2.3-3.2,1.8l-3.4-1.4
						c-0.6-0.3-0.9-0.1-1.2,0.5l-0.3-0.1l1.3-3.2l0.3,0.1c-0.3,0.6-0.2,0.9,0.5,1.2L112.5,135.2z"/>
					<g class="st10">
						<path d="M113.2,137c-0.3,0-0.6-0.1-1-0.2l-3.4-1.4c-0.7-0.1-0.9,0.1-1.1,0.5l0.1-0.5c0.2-0.1,0.3-0.2,0.5-0.2l3.9,1.5
							c1.4,0.6,2.5,0,3.2-1.7c0.4-0.9,0.4-1.5,0.2-2.1c-0.2-0.5-0.7-0.9-1.5-1.3l-3.2-1.3c-0.3-0.1-0.5-0.3-0.6-0.5
							c0-0.1-0.1-0.3,0-0.4c0.1,0.2,0.1,0.3,0.1,0.4c0.1,0.2,0.2,0.3,0.5,0.4l3.2,1.3c0.8,0.3,1.3,0.8,1.6,1.3
							c0.3,0.6,0.2,1.3-0.2,2.2C114.9,136.3,114.1,137,113.2,137L113.2,137z M113.9,135.6L113.9,135.6c-0.4,0-0.8-0.1-1.4-0.4
							l-3.1-1.3c-0.4-0.2-0.6-0.4-0.6-0.7c0.1,0.3,0.3,0.5,0.7,0.6l3.1,1.3C113.1,135.4,113.6,135.5,113.9,135.6L113.9,135.6
							c0.6-0.1,0.9-0.4,1.2-1c0.5-1.2,0-1.9-1.4-2.5l-3.1-1.3c-0.8-0.1-0.9,0-1.1,0.5l0.1-0.5c0.2-0.1,0.3-0.2,0.5-0.2l3.6,1.4
							c1.5,0.6,1.9,1.4,1.4,2.6C114.9,135.3,114.5,135.6,113.9,135.6L113.9,135.6z"/>
					</g>
					<path class="st21" d="M116.4,132l-0.3-0.2c0.4-0.6,0.3-0.9-0.3-1.3l-3.9-2.5c-0.6-0.4-0.9-0.3-1.2,0.3l-0.3-0.2l1.9-3
						c1.3-2.1,2.2-2.1,3-1.7c0.8,0.5,0.7,1.6,0.4,2.4l0,0c0.7-0.8,1.7-1.5,2.8-0.8c0.9,0.6,1.1,1.7,0.1,3.3L116.4,132z M114.7,127.3
						c0.6-1,0.6-1.7-0.2-2.2c-0.9-0.5-1.4-0.2-1.9,0.6c-0.1,0.2-0.3,0.5-0.2,0.7c0.1,0.2,0.2,0.3,0.4,0.4l1.7,1.1L114.7,127.3z
						 M116.5,129c0.7,0.4,1,0.7,1.5-0.2c0.5-0.8,0.5-1.6-0.6-2.3c-0.7-0.5-1.4-0.6-2.4,0.9l-0.3,0.5L116.5,129z"/>
					<g class="st10">
						<path d="M116.4,132.1l-0.3-0.2c0.4-0.6,0.3-0.9-0.3-1.3l-3.9-2.5c-0.8-0.2-1,0-1.2,0.3l0.2-0.5c0.2-0.1,0.3-0.1,0.4-0.1
							l0.6,0.2l3.9,2.5c0.6,0.4,0.7,0.7,0.3,1.3L116.4,132.1l2.1-3.6c0.9-1.5,0.9-2.6-0.1-3.2c-1-0.6-2,0.1-2.7,0.8c0,0,0,0,0-0.1
							c0.6-0.8,1.7-1.5,2.7-0.8c1,0.7,1.1,1.9,0.2,3.4L116.4,132.1L116.4,132.1z M117.3,129.5c-0.2,0-0.5-0.2-0.8-0.4l-1.8-1.1
							c1.2-2.1,1.7-2.1,2.7-1.5c1.2,0.8,1,1.7,0.6,2.4C117.8,129.3,117.6,129.5,117.3,129.5L117.3,129.5z M116.6,126.3
							c-0.5,0-1,0.4-1.5,1.2l1.4,1.5c0.8,0.5,1,0.6,1.5-0.2c0.6-0.9,0.4-1.7-0.5-2.3C117.1,126.4,116.9,126.3,116.6,126.3
							L116.6,126.3z M114.7,127.3L114.7,127.3c0.5-1.2,0.4-1.8-0.3-2.2c-0.8-0.5-1.3-0.3-1.9,0.5c-0.1,0.1-0.2,0.3-0.2,0.4
							c0-0.2,0-0.4,0.1-0.5c0.6-0.9,1.2-1.1,2-0.6C115.3,125.5,115.4,126.2,114.7,127.3L114.7,127.3z M112,125.9l0.3-0.7
							c1.1-1.8,2-2.3,3-1.7c0.9,0.6,0.6,1.8,0.4,2.4c0.1-0.6,0.4-1.8-0.5-2.3c-0.9-0.6-1.8,0-2.9,1.7L112,125.9L112,125.9z"/>
					</g>
					<path class="st21" d="M120,125.8c0.5-0.5,0.5-0.8,0-1.3l-3.4-3.1c-0.5-0.4-0.8-0.4-1.3,0.1l-0.2-0.2l2.3-2.6l0.2,0.2
						c-0.5,0.5-0.5,0.8,0,1.3l3.4,3.1c0.4,0.4,0.6,0.5,1.1,0c0.8-0.9,0.9-2.2,0.7-3.3l0.2-0.1l1,1.7l-3.9,4.3L120,125.8z"/>
					<g class="st10">
						<path d="M120.3,126.1l-0.3-0.3c0.2-0.3,0.3-0.5,0.3-0.7c0-0.2-0.1-0.4-0.4-0.6l-3.4-3.1c-0.5-0.4-0.8-0.4-1.2,0.1l0.3-0.4
							c0.4-0.2,0.6-0.1,1,0.2l3.4,3.1c0.3,0.2,0.4,0.4,0.4,0.6c0,0.2-0.1,0.4-0.4,0.7L120.3,126.1l3.8-4.4l-0.2-0.3l0.3,0.3
							L120.3,126.1L120.3,126.1z M121.6,123.7c-0.2,0-0.4-0.1-0.6-0.4l-3.4-3.1c-0.3-0.3-0.5-0.6-0.4-0.9c0,0.3,0.1,0.5,0.4,0.8
							l3.4,3.1C121.3,123.5,121.5,123.6,121.6,123.7c1.2-1.1,1.4-2.2,1.2-3.7l0.2,0.3c0,1.3-0.3,2.3-0.9,3
							C122,123.6,121.8,123.7,121.6,123.7L121.6,123.7z"/>
					</g>
					<path class="st21" d="M121.7,116.2c-0.4-0.5-0.7-0.5-1.3-0.1l-0.2-0.3l2.6-2.2l0.2,0.2c-0.5,0.4-0.6,0.8-0.1,1.3l2.9,3.6
						c0.4,0.5,0.8,0.5,1.3,0.1l0.2,0.2l-2.6,2.2l-0.2-0.2c0.5-0.4,0.6-0.8,0.1-1.3L121.7,116.2z"/>
					<g class="st10">
						<path d="M124.7,121.4l-0.2-0.3c0.5-0.5,0.6-0.8,0.1-1.3l-2.9-3.6c-0.4-0.5-0.7-0.5-1.2-0.1l0.3-0.4c0.4-0.1,0.6,0,0.9,0.4
							l3,3.6c0.4,0.5,0.4,0.9-0.1,1.3l0.1,0.2l0.6-0.5L124.7,121.4L124.7,121.4z M126.5,119.2c-0.2,0-0.4-0.1-0.7-0.4l-2.9-3.6
							c-0.3-0.4-0.4-0.6-0.2-0.9c0,0.3,0.1,0.5,0.3,0.8l2.9,3.6c0.4,0.5,0.7,0.5,1.2,0.1l-0.3,0.4
							C126.6,119.2,126.5,119.2,126.5,119.2L126.5,119.2z"/>
					</g>
					<path class="st21" d="M129.9,111.3l-0.3,0.3c-0.8-0.6-2-1-3-0.4c-1.2,0.8-0.5,2.5,0.1,3.5c1.2,2,2.7,2.2,3.6,1.6
						c0.8-0.5,1-1.4,1-2.3l0.3,0c0.1,1.4-0.3,2.5-1.5,3.2c-1.6,1-3.6,0.4-4.6-1.2c-1.1-1.7-1-4.1,0.7-5.1c0.3-0.2,0.6-0.3,0.8-0.3
						c0.2-0.1,0.5-0.1,0.6-0.2c0.2-0.1,0.3-0.4,0.5-0.6l0.1-0.1L129.9,111.3z"/>
					<g class="st10">
						<path d="M128.5,117.9c-1.2,0-2.3-0.7-2.9-1.7c-1-1.6-1-4.1,0.7-5.2c0.3-0.2,0.6-0.3,0.8-0.3l0.6-0.2c0.2-0.1,0.3-0.3,0.4-0.5
							l0.1,0c-0.1,0.3-0.3,0.4-0.4,0.5l-0.6,0.2c-0.2,0.1-0.5,0.1-0.8,0.3c-1.7,1.1-1.7,3.5-0.7,5.1c1,1.6,3,2.1,4.5,1.2
							c0.6-0.4,1.1-0.9,1.3-1.6c-0.1,0.7-0.6,1.3-1.2,1.7C129.7,117.7,129.1,117.9,128.5,117.9L128.5,117.9z M129.4,116.7
							c-0.6,0-1.7-0.3-2.7-1.9c-0.8-1.2-1.2-2.8-0.1-3.6c0.7-0.4,1.7-0.3,2.3,0c-0.8-0.2-1.7-0.3-2.3,0.1c-1.4,0.9-0.2,3,0.1,3.4
							c1.7,2.7,2.8,2,3.6,1.6c0.8-0.5,0.9-1.4,1-2.2c0.1,0.2,0.1,0.4,0.1,0.6c-0.2,0.7-0.4,1.3-1.1,1.7
							C130.1,116.6,129.7,116.7,129.4,116.7L129.4,116.7z"/>
					</g>
					<path class="st21" d="M137.7,111.8c0.5,0.6,0.7,1,1.5,0.7l0.1,0.3l-3.1,1.3l-0.1-0.3c0.6-0.3,0.7-0.4,0.5-0.7
						c-0.1-0.2-0.2-0.3-0.3-0.5l-0.8-0.9l-2.3,0.9l0,0.6c0,0.3,0,0.6,0.1,0.8c0.2,0.5,0.7,0.5,1.1,0.3l0.1,0.3l-2.4,1l-0.1-0.3
						c0.7-0.6,0.7-1.1,0.7-1.9l-0.1-5.4l1.1-1L137.7,111.8z M133.2,108.8l0.1,3.3l1.9-0.8L133.2,108.8z"/>
					<g class="st10">
						<path d="M132.3,115.7l-0.1-0.3c0.7-0.6,0.7-1.2,0.7-2l-0.1-5.4l1.1-1l3.9,4.7c0.4,0.5,0.6,0.8,1,0.8l0.3,0.2
							c-0.8-0.1-1-0.4-1.3-0.8l-3.9-4.8l-1,1l0.2,5.3c0,0.8,0,1.4-0.7,2l0.1,0.2l2.4-1c-0.8-0.1-1.1-0.2-1.2-0.6
							c-0.1-0.3-0.1-0.6-0.1-0.8l0-0.7l2.3-1l0.8,0.9c0.1,0.2,0.2,0.4,0.2,0.5l-1.1-1.4l-2.2,1l0.1,0.6c0,0.3,0,0.6,0.1,0.8
							c0.1,0.3,0.4,0.4,0.6,0.4l0,0l0.6,0.3L132.3,115.7L132.3,115.7z M133.3,112.2l-0.2-3.5l2.1,2.6L133.3,112.2L133.3,112.2z"/>
					</g>
					<path class="st21" d="M142.1,111.8c0.7-0.1,0.9-0.3,0.8-1l-0.5-4.6c-0.1-0.7-0.3-0.9-1-0.8l0-0.3l3.3-0.4
						c0.6-0.1,1.1-0.1,1.6,0.1c1.3,0.4,2.3,1.4,2.5,3.1c0.2,1.6-0.6,2.8-1.7,3.4c-0.5,0.3-1,0.4-1.6,0.4l-3.3,0.4L142.1,111.8z
						 M144.5,110.5c0.1,0.7,0.1,0.9,0.9,0.8c1.2-0.1,2-0.9,1.7-3.5c-0.3-2.4-1.2-2.9-2.5-2.7c-0.7,0.1-0.7,0.4-0.6,1L144.5,110.5z"
						/>
					<g class="st10">
						<path d="M142.1,112.1l0-0.4c0.7-0.1,0.9-0.4,0.8-1l-0.5-4.6c-0.1-0.6-0.2-0.8-0.7-0.8l0.3-0.1c0.3,0.2,0.4,0.4,0.5,0.8
							l0.5,4.6c0.1,0.7-0.1,1-0.9,1L142.1,112.1L142.1,112.1l3.4-0.5c0.7-0.1,1.2-0.2,1.6-0.4c1.2-0.6,1.8-2,1.7-3.4
							c-0.2-1.6-1.1-2.7-2.5-3.1c-0.5-0.1-1-0.1-1.6-0.1l-0.7,0.1l0.7-0.2c0.6-0.1,1.2-0.1,1.7,0.1c1.4,0.4,2.3,1.6,2.5,3.1
							c0.2,1.5-0.5,2.8-1.8,3.5c-0.4,0.2-0.9,0.4-1.6,0.4L142.1,112.1L142.1,112.1z M145.4,111.4c-0.8,0-0.8-0.3-0.9-0.9L144,106
							c-0.1-0.6-0.1-0.9,0.7-1l0.4,0c1.3,0,1.9,0.9,2.2,2.8c0.3,2.3-0.3,3.4-1.7,3.6C145.4,111.4,145.4,111.4,145.4,111.4
							L145.4,111.4z M145.1,105l-0.4,0.1c-0.7,0.1-0.7,0.3-0.6,0.9l0.5,4.5c0.1,0.6,0.1,0.8,0.6,0.8c1.3-0.1,2.3-0.6,2-3.5
							C146.9,105.9,146.3,105.1,145.1,105L145.1,105L145.1,105z"/>
					</g>
					<path class="st21" d="M149.3,111c0.7,0,0.9-0.2,1-0.8l0.3-4.7c0-0.7-0.2-0.9-0.9-0.9l0-0.3l5.8,0.4l0.5,1.8l-0.3,0.1
						c-0.6-0.9-1.5-1.7-2.6-1.8c-0.8,0-0.9,0.2-0.9,1l-0.1,1.9l0.2,0c1,0.1,1.4-0.1,1.8-1l0.4,0l-0.2,2.8l-0.4,0
						c-0.2-1-0.7-1.2-1.6-1.3l-0.2,0l-0.1,2c0,0.6,0,0.9,0.7,1c1.2,0.1,2.3-0.5,3.1-1.3l0.3,0.1l-0.8,1.7l-5.8-0.4L149.3,111z"/>
					<g class="st10">
						<path d="M155.1,111.8L155.1,111.8l-5.8-0.4c0.2-0.1,0.3-0.2,0.5-0.3l5.3,0.6l0.2-0.4L155.1,111.8L155.1,111.8z M152.8,111.2
							c-0.9-0.1-1-0.5-0.9-1l0.1-2c0.8,0,1.3,0.1,1.6,0.5c-0.4-0.3-0.8-0.4-1.3-0.4l-0.3,2c0,0.6,0,0.9,0.6,0.9c0,0,0,0,0,0
							c1.2,0,2.2-0.5,3-1.3l-0.1,0.4C154.6,110.8,153.7,111.2,152.8,111.2L152.8,111.2z M149.9,111c0.3-0.2,0.4-0.4,0.4-0.8l0.3-4.7
							c0-0.6-0.2-0.9-0.8-0.9h0.6c0.2,0.2,0.3,0.5,0.3,0.9l-0.3,4.7C150.3,110.7,150.2,110.9,149.9,111L149.9,111z M152.2,106.1
							l-0.1-0.3c0-0.7,0.1-1,0.8-1c0.7,0,1.4,0.3,2,0.8c-0.6-0.4-1.2-0.7-1.8-0.7c0,0,0,0,0,0c-0.8,0-0.8,0.2-0.9,0.9L152.2,106.1
							L152.2,106.1z"/>
					</g>
					<path class="st21" d="M164.6,112.1l1-3.1c0.3-0.8,0.3-1.2-0.5-1.6l0.1-0.3l2.4,0.8l-0.1,0.3c-0.9-0.1-1.1,0.2-1.4,1l-1.7,5.1
						l-0.8-0.3l-1.9-6.5l-1.2,3.5c-0.3,1-0.3,1.2,0.6,1.7l-0.1,0.3l-2.6-0.9l0.1-0.3c0.9,0.2,1.2-0.1,1.4-0.9l1.4-4.2
						c-0.1-0.4-0.4-0.8-0.8-1l0.1-0.3l2.3,0.8L164.6,112.1z"/>
					<g class="st10">
						<path d="M164.5,114.3l-0.9-0.3l-1.9-6.5l-1.1,3.5c-0.3,1-0.3,1.2,0.6,1.7l-0.5-0.1c-0.4-0.5-0.4-0.8-0.1-1.6l1.2-3.5l2,6.5
							l0.8,0.2l1.7-5.1c0.2-0.6,0.4-1,0.9-1c-0.5,0.3-0.6,0.6-0.8,1.1L164.5,114.3L164.5,114.3z M160.1,112.6l-1.6-0.3l0,0l0.6-0.3
							c0.5,0,0.7-0.2,0.9-0.9l1.4-4.2c-0.1-0.4-0.4-0.7-0.8-0.9l0.4,0.1c0.2,0.3,0.4,0.6,0.5,0.9L160,111c-0.2,0.7-0.4,1-1,1
							L160.1,112.6L160.1,112.6z M164.7,112.1l-1.7-5.8l-0.4-0.1l0.5,0.1L164.7,112.1l0.9-3.1c0.3-0.8,0.3-1.2-0.5-1.6l0.5,0.1
							c0.4,0.5,0.3,0.9,0.1,1.5L164.7,112.1L164.7,112.1z"/>
					</g>
					<path class="st21" d="M168.7,109.9c0.3-0.6,0.2-0.9-0.4-1.2l0.1-0.3l3.1,1.6l-0.1,0.3c-0.6-0.3-0.9-0.2-1.2,0.4l-2.1,4.2
						c-0.3,0.6-0.2,0.9,0.4,1.2l-0.1,0.3l-3.1-1.6l0.1-0.3c0.6,0.3,0.9,0.2,1.2-0.4L168.7,109.9z"/>
					<g class="st10">
						<path d="M168.3,116.3l-3.1-1.6l0.4-0.1l2.6,1.6l0.1-0.2c-0.6-0.3-0.8-0.6-0.4-1.2l2.1-4.2c0.2-0.4,0.4-0.6,0.7-0.6l0.2,0
							l-0.2,0c-0.2,0-0.4,0.2-0.6,0.5l-2.1,4.2c-0.3,0.6-0.2,0.9,0.4,1.2L168.3,116.3L168.3,116.3z M166,114.6l-0.2,0L166,114.6
							L166,114.6c0.2-0.1,0.4-0.2,0.6-0.6l2.1-4.2c0.3-0.6,0.2-0.8-0.4-1.2l0.5,0.2c0.2,0.3,0.2,0.6,0,1l-2.1,4.2
							C166.5,114.5,166.3,114.6,166,114.6L166,114.6z"/>
					</g>
					<path class="st21" d="M176.4,115.6l-0.4-0.1c0.2-1,0.1-2.3-0.8-2.9c-1.2-0.8-2.5,0.5-3.1,1.5c-1.3,1.9-0.9,3.4,0,4
						c0.8,0.5,1.6,0.3,2.5,0l0.1,0.3c-1.2,0.6-2.4,0.7-3.5-0.1c-1.6-1.1-1.8-3.2-0.8-4.7c1.1-1.7,3.3-2.5,4.9-1.4
						c0.3,0.2,0.5,0.4,0.6,0.6c0.2,0.2,0.3,0.4,0.4,0.5c0.2,0.1,0.5,0.2,0.7,0.2l0.1,0L176.4,115.6z"/>
					<g class="st10">
						<path d="M172.8,118.8c-0.6,0-1.2-0.2-1.7-0.6c-1.5-1-1.9-3.1-0.8-4.8c1.2-1.8,3.5-2.4,5-1.4c0.3,0.2,0.5,0.4,0.6,0.6l0.4,0.5
							c0.2,0.1,0.4,0.2,0.7,0.2l0,0c-0.2-0.1-0.5,0-0.7-0.2l-0.4-0.5l0,0c-0.2-0.2-0.3-0.4-0.6-0.6c-1.5-1-3.7-0.3-4.9,1.4
							c-1.1,1.6-0.7,3.6,0.8,4.7c0.8,0.6,1.7,0.7,2.7,0.4C173.5,118.8,173.1,118.8,172.8,118.8L172.8,118.8z M173.1,118.4
							c-0.4,0-0.8-0.1-1.1-0.4c-0.9-0.6-1.3-2.1,0-4.1c0.7-1.1,2.1-2.2,3.2-1.5c0.6,0.4,0.9,1.2,0.9,1.8c-0.1-0.7-0.4-1.4-1-1.8
							c-1-0.7-2.4,0.4-3.1,1.5c-1.3,1.9-0.9,3.3,0,3.9c0.7,0.5,1.7,0.3,2.4,0c-0.1,0.1-0.2,0.2-0.2,0.3
							C173.8,118.3,173.5,118.4,173.1,118.4L173.1,118.4z"/>
					</g>
					<path class="st21" d="M179.1,123c-0.3,0.7-0.6,1.1,0,1.7l-0.2,0.2l-2.4-2.4l0.2-0.2c0.5,0.4,0.6,0.4,0.8,0.2
						c0.1-0.1,0.2-0.3,0.3-0.5l0.5-1.1l-1.7-1.7l-0.6,0.3c-0.2,0.1-0.5,0.3-0.7,0.5c-0.4,0.4-0.2,0.8,0.1,1.1l-0.2,0.2l-1.8-1.8
						l0.2-0.2c0.8,0.5,1.3,0.2,2.1-0.1l4.8-2.3l1.3,0.7L179.1,123z M180,117.6l-3,1.4l1.5,1.5L180,117.6z"/>
					<g class="st10">
						<path d="M178.8,124.9l-2.4-2.4c0.2,0,0.3,0,0.4,0L178.8,124.9l0.2-0.3c-0.6-0.5-0.4-1-0.1-1.6l2.8-5.5l-1.3-0.6l-4.8,2.3
							c-0.7,0.3-1.2,0.5-1.8,0.3c0.2,0,0.4,0,0.6,0c0.4,0,0.7-0.2,1.2-0.4l4.8-2.3l1.3,0.7l-2.7,5.5c-0.4,0.7-0.6,1.1,0,1.6
							L178.8,124.9L178.8,124.9L178.8,124.9L178.8,124.9z M177.2,122.7c-0.1,0-0.2,0-0.4-0.1C177.1,122.6,177.2,122.6,177.2,122.7
							l1.1-1.7l-1.7-1.7l-0.5,0.3c-0.3,0.1-0.5,0.3-0.7,0.4c-0.4,0.4,0,0.9,0.1,1.1l-0.4-0.3c-0.1-0.3-0.1-0.6,0.2-0.8
							c0.2-0.2,0.4-0.3,0.6-0.4l0.6-0.3l1.8,1.7L177.2,122.7L177.2,122.7z"/>
					</g>
					<path class="st21" d="M183.6,129c-0.3,0.7-0.6,1.3-0.2,2l-0.3,0.2l-1.3-2c0.1-0.3,0.3-0.5,0.4-0.8l0.7-1.2
						c0.7-1.2,0.6-1.6,0.4-1.9l-1.8,1.2c-0.6,0.4-0.6,0.7-0.2,1.3l-0.3,0.2l-1.9-2.8l0.3-0.2c0.4,0.6,0.7,0.7,1.2,0.3l3.8-2.6
						c0.5-0.4,0.6-0.7,0.2-1.3l0.3-0.2l2.3,3.4c0.8,1.2,0.7,2.4-0.2,2.9c-0.9,0.6-1.8,0.1-2.5-0.6c0,0.4-0.2,0.7-0.4,1L183.6,129z
						 M183.7,125.3c0.9,1.3,1.6,1.4,2.4,0.8c0.8-0.5,0.8-1.2,0.2-2.1c-0.4-0.5-0.6-0.4-1-0.1l-1.7,1.2L183.7,125.3z"/>
					<g class="st10">
						<path d="M183,131.2l-1.3-2c0.1-0.2,0.2-0.4,0.3-0.6l0.8-1.4c0.7-1.1,0.6-1.5,0.4-1.8l-1.7,1.2c-0.5,0.4-0.6,0.7-0.2,1.2
							l-0.4-0.4c0-0.4,0.1-0.6,0.5-0.9l1.8-1.2c0.3,0.4,0.4,0.8-0.3,2l-0.7,1.2c-0.2,0.4-0.4,0.6-0.4,0.8L183,131.2l0.3-0.2
							c-0.4-0.7-0.1-1.3,0.2-2l0.6-1c0.2-0.4,0.4-0.7,0.4-1c0.9,0.8,1.8,1,2.5,0.5c0.9-0.6,0.9-1.7,0.2-2.9l-0.5-0.8l0.6,0.7
							c0.8,1.2,0.7,2.4-0.2,3c-0.7,0.5-1.7,0.3-2.5-0.6c0.1,0.3-0.1,0.6-0.2,0.9l-0.6,1.1c-0.3,0.6-0.6,1.2-0.2,1.9L183,131.2
							L183,131.2z M185.2,126.5c-0.5,0-1-0.4-1.6-1.2l0,0c1,1.3,1.5,1.4,2.4,0.8c0.7-0.5,0.8-1.1,0.2-2l-0.4-0.4l-1.2,0.8l1.2-0.8
							l0.5,0.4c0.6,0.9,0.6,1.6-0.2,2.1C185.8,126.4,185.5,126.5,185.2,126.5L185.2,126.5z M180,125.6c-0.2,0-0.3-0.1-0.5-0.2
							C179.7,125.4,179.8,125.5,180,125.6l4.4-3c0.3-0.2,0.4-0.3,0.4-0.5c0-0.2,0-0.4-0.3-0.7l0.3,0.4c0,0.1,0,0.2,0,0.3
							c0,0.2-0.2,0.4-0.5,0.6l-3.8,2.6C180.3,125.5,180.1,125.6,180,125.6L180,125.6z"/>
					</g>
					<path class="st21" d="M187.1,136.9c-0.6,0.5-1,0.7-0.7,1.6l-0.3,0.1l-1.3-3.1l0.3-0.1c0.3,0.6,0.4,0.6,0.7,0.5
						c0.2-0.1,0.3-0.2,0.5-0.3l0.9-0.8l-0.9-2.3l-0.6,0c-0.3,0-0.6,0-0.8,0.1c-0.4,0.2-0.5,0.7-0.3,1.1l-0.3,0.1l-1-2.4l0.3-0.1
						c0.6,0.7,1.1,0.7,1.9,0.7l5.3-0.2l0.9,1.1L187.1,136.9z M190,132.4l-3.3,0.1l0.8,2L190,132.4z"/>
					<g class="st10">
						<path d="M186.1,138.6l-1.3-3.1c0.2,0.1,0.3,0.1,0.4,0.2L186.1,138.6l0.3-0.2c-0.3-0.7,0-1,0.6-1.5l4.7-4l-1-1.1l-5.3,0.2
							c-0.8,0-1.1,0-1.5-0.3c0.4,0.1,0.7,0.2,1.1,0.2l5.7-0.2l1,1.2l-4.6,3.9c-0.6,0.5-0.9,0.8-0.7,1.5L186.1,138.6L186.1,138.6z
							 M185.6,135.9c-0.1,0-0.3-0.1-0.4-0.2C185.4,135.8,185.5,135.8,185.6,135.9l1.5-1.2l-0.9-2.2l-0.6,0c-0.4,0-0.6,0-0.8,0.1
							c-0.5,0.2-0.4,0.8-0.3,1l-0.2-0.4c0.1-0.4,0.2-0.6,0.5-0.7c0.2-0.1,0.5-0.1,0.7-0.1l0.8,0l1,2.3L185.6,135.9L185.6,135.9z"/>
					</g>
					<path class="st21" d="M192.3,143.6l-0.2-0.3c1-1.1,1.5-1.8,1.3-2.7c-0.2-0.9-1.2-1.7-3.6-1.2c-2.4,0.5-3.1,1.4-2.9,2.4
						c0.2,1,1,1,1.9,0.9c0.8-0.2,0.8-0.4,0.7-1.1l0.4-0.1l0.6,3.2l-0.4,0.1c-0.2-0.8-0.5-0.8-1.2-0.7l-1.4,0.3
						c-0.1-0.7-0.2-0.7-0.5-1.3c-0.3-0.5-0.5-0.9-0.6-1.4c-0.4-2,0.7-3.6,2.7-4c1.9-0.4,4.1,0.6,4.5,2.6c0.1,0.3,0,0.5,0,0.8
						c0,0.2-0.1,0.4,0,0.6c0,0.2,0.3,0.6,0.4,0.7L192.3,143.6z"/>
					<g class="st10">
						<path d="M190.1,144.9c-0.2-0.5-0.3-0.7-0.7-0.7l-1.9,0.4c-0.2-0.7-0.2-0.7-0.5-1.2c-0.3-0.6-0.5-1-0.6-1.5
							c-0.2-1-0.1-1.9,0.4-2.6c0.5-0.7,1.3-1.2,2.3-1.4c1.8-0.4,4.1,0.4,4.6,2.7c0.1,0.2,0,0.5,0,0.7l0,0.7c0,0.2,0.2,0.5,0.4,0.7
							l-1.9,1.1c0.1-0.2,0.2-0.3,0.2-0.5l1.6-0.6c-0.2-0.1-0.4-0.4-0.4-0.7l0-0.6c0-0.3,0-0.5,0-0.8c-0.4-2.2-2.7-3-4.5-2.6
							c-1,0.2-1.8,0.7-2.2,1.4c-0.5,0.7-0.6,1.6-0.4,2.5c0.1,0.5,0.3,0.9,0.6,1.4c0.3,0.6,0.3,0.7,0.5,1.3l1.3-0.3
							C189.8,144.1,190,144.3,190.1,144.9l0.4-0.1l-0.1-0.3l0.1,0.3L190.1,144.9L190.1,144.9z M188.1,142.9c-0.7,0-1.1-0.3-1.2-1
							c-0.2-1.2,0.7-2.1,2.9-2.5c2.7-0.6,3.6,0.7,3.6,1.2c0.1,0.5,0,1-0.4,1.6c0.3-0.6,0.4-1,0.3-1.5c-0.1-0.5-0.9-1.7-3.6-1.2
							c-2.1,0.4-3.1,1.2-2.8,2.4c0.2,0.8,0.9,1,1.8,0.8c0.8-0.2,0.8-0.4,0.7-1.1l0.2,0.6c-0.1,0.3-0.3,0.5-0.8,0.6
							C188.5,142.9,188.3,142.9,188.1,142.9L188.1,142.9z"/>
					</g>
					<path class="st21" d="M189.8,147.4c-1.7,0-2.2,0.6-2.2,1.6c0,1.4,0.9,1.8,2.3,1.8l3.4-0.1c0.7,0,0.9-0.3,0.9-1h0.3l0,2.4
						l-0.3,0c0-0.7-0.2-0.9-0.9-0.9l-3.4,0.1c-1.7,0-2.6-0.7-2.6-2.6c0-1.9,0.8-2.9,2.3-2.9l3.6-0.1c0.7,0,0.9-0.3,0.9-1h0.3
						l0.1,3.5l-0.3,0c0-0.7-0.2-0.9-0.9-0.9L189.8,147.4z"/>
					<g class="st10">
						<path d="M194.2,152.2c0-0.7-0.2-0.9-0.8-0.9l-3.5,0.1l0,0c-1.8,0-2.6-0.8-2.6-2.6c0-1,0.2-1.8,0.7-2.3
							c0.4-0.4,0.9-0.6,1.6-0.6l3.6-0.1c0.6,0,0.8-0.2,0.8-0.9l0.1,0.6c-0.2,0.3-0.4,0.4-0.9,0.4l-3.6,0.1c-0.7,0-1.2,0.2-1.6,0.6
							c-0.5,0.5-0.7,1.3-0.7,2.3c0,1.7,0.8,2.5,2.4,2.5l3.5-0.1l0,0C194,151.2,194.2,151.5,194.2,152.2l0.4-0.1l0-0.3l0.1,0.3
							L194.2,152.2L194.2,152.2L194.2,152.2L194.2,152.2z M189.9,150.9c-1.6,0-2.3-0.6-2.3-1.8c0-0.5,0.1-0.9,0.4-1.1
							c0.4-0.4,0.9-0.5,1.9-0.5l3.4-0.1l0,0c0.5,0,0.7,0.1,0.9,0.4c-0.2-0.2-0.4-0.3-0.8-0.3l-3.4,0.1c-0.9,0-1.5,0.2-1.8,0.5
							c-0.2,0.2-0.3,0.6-0.3,1.1c0,1.2,0.7,1.8,2.1,1.8l3.5-0.1c0.6,0,0.8-0.2,0.8-0.9l0.1,0.5c-0.2,0.3-0.4,0.5-0.9,0.5
							L189.9,150.9L189.9,150.9L189.9,150.9z"/>
					</g>
					<path class="st21" d="M188,158.4c-0.7,0.1-1.2,0.1-1.4,1l-0.3,0l0.5-3.4l0.3,0c-0.1,0.6,0,0.8,0.3,0.8c0.2,0,0.4,0,0.6,0
						l1.2-0.2l0.4-2.4l-0.6-0.3c-0.2-0.1-0.5-0.3-0.8-0.3c-0.5-0.1-0.7,0.3-0.8,0.7l-0.3,0l0.4-2.5l0.3,0c0.1,0.9,0.5,1.2,1.3,1.6
						l4.6,2.7l0.2,1.5L188,158.4z M192.9,156.1l-2.8-1.6l-0.3,2.1L192.9,156.1z"/>
					<g class="st10">
						<path d="M186.7,159.4l-0.4-0.1l0.5-3.4c0.1,0.2,0.1,0.3,0.2,0.4l-0.7,2.9L186.7,159.4L186.7,159.4c0.1-0.9,0.6-1,1.2-1.1
							l6-0.9l-0.3-1.4l-4.6-2.7c-0.5-0.3-0.9-0.5-1.1-0.9c0.3,0.4,0.7,0.6,1.2,0.9l4.6,2.7l0.2,1.5l-6,0.9
							C187.3,158.5,186.8,158.6,186.7,159.4L186.7,159.4L186.7,159.4z M188.1,156.9c-0.2,0-0.4,0-0.6-0.1l1.7-0.2l0.4-2.4l-0.5-0.3
							c-0.3-0.1-0.5-0.3-0.7-0.3c-0.6,0.1-0.7,0.5-0.8,0.7v-0.4c0.2-0.2,0.4-0.4,0.7-0.4c0.4,0,0.6,0.2,0.9,0.3l0.6,0.3l-0.4,2.5
							L188.1,156.9L188.1,156.9z"/>
					</g>
				</g>
			</g>
		</g>
		<g class="st0">
			<g>
				<defs>
					<rect id="SVGID_9_" x="-107.1" y="0" width="514.3" height="300"/>
				</defs>
				<clipPath id="SVGID_10_">
					<use xlink:href="#SVGID_9_"  style="overflow:visible;"/>
				</clipPath>
				<rect x="-107.1" y="0" class="st25" width="514.3" height="300"/>
				<rect x="-107.1" y="0" class="st26" width="514.3" height="100"/>
				<g class="st27">
					<defs>
						<rect id="SVGID_11_" x="-107.1" y="0" width="514.3" height="300"/>
					</defs>
					<clipPath id="SVGID_12_">
						<use xlink:href="#SVGID_11_"  style="overflow:visible;"/>
					</clipPath>
					<path class="st28" d="M150,107.5c23.5,0,42.5,19,42.5,42.5s-19,42.5-42.5,42.5c-23.5,0-42.5-19-42.5-42.5
						S126.5,107.5,150,107.5"/>
					<rect x="-107.1" y="200" class="st29" width="514.3" height="100"/>
				</g>
			</g>
		</g>
		<g class="st0">
			<g>
				<defs>
					<rect id="SVGID_13_" x="-107.2" y="0" width="514.3" height="300"/>
				</defs>
				<clipPath id="SVGID_14_">
					<use xlink:href="#SVGID_13_"  style="overflow:visible;"/>
				</clipPath>
				<rect x="-107.2" y="0" class="st30" width="514.3" height="300"/>
				<rect x="64.3" y="0" class="st31" width="171.4" height="300"/>
			</g>
		</g>
		<g class="st0">
			<g>
				<defs>
					<rect id="SVGID_15_" x="-35.8" y="-1" width="517.6" height="302"/>
				</defs>
				<clipPath id="SVGID_16_">
					<use xlink:href="#SVGID_15_"  style="overflow:visible;"/>
				</clipPath>
				<rect x="-35.8" y="-1" class="st32" width="517.6" height="302"/>
				<rect x="-35.8" y="-1" class="st33" width="258.8" height="129.4"/>
				<polygon class="st34" points="194.1,-1 -35.8,114 -35.8,128.4 -6.9,128.4 223,13.5 223,-1 				"/>
				<polygon class="st34" points="-35.8,-1 -35.8,13.5 194.1,128.4 223,128.4 223,114 -6.9,-1 				"/>
				<rect x="72" y="-1" class="st34" width="43.2" height="129.4"/>
				<rect x="-35.8" y="42.2" class="st34" width="258.8" height="43.1"/>
				<rect x="-35.8" y="50.8" class="st35" width="258.8" height="25.9"/>
				<rect x="80.6" y="-1" class="st35" width="25.9" height="129.4"/>
				<polygon class="st35" points="50.4,85.3 -35.8,128.4 -16.5,128.4 69.7,85.3 				"/>
				<polygon class="st35" points="117.4,42.2 136.7,42.2 223,-1 203.7,-1 				"/>
				<polygon class="st35" points="223,128.4 223,118.8 156,85.3 136.7,85.3 				"/>
				<polygon class="st35" points="-35.8,-1 -35.8,8.7 31.2,42.2 50.4,42.2 				"/>
				<g class="st36">
					<defs>
						<rect id="SVGID_17_" x="-35.8" y="-1" width="517.6" height="302"/>
					</defs>
					<clipPath id="SVGID_18_">
						<use xlink:href="#SVGID_17_"  style="overflow:visible;"/>
					</clipPath>
					<path class="st37" d="M115.2,63.7c0-11.9-9.7-21.6-21.6-21.6S72,51.8,72,63.7c0,11.9,9.7,21.6,21.6,21.6S115.2,75.6,115.2,63.7
						"/>
					<polygon class="st38" points="73.1,57.1 88.7,57.1 93.6,42.2 98.4,57.1 114.1,57.1 101.4,66.3 106.3,81.2 93.6,72 80.9,81.2 
						85.7,66.3 					"/>
					<polygon class="st38" points="81.3,104.1 90.7,104.1 93.6,95.2 96.5,104.1 105.9,104.1 98.3,109.6 101.2,118.6 93.6,113 
						86,118.6 88.9,109.6 					"/>
					<polygon class="st38" points="81.3,17.8 90.7,17.8 93.6,8.9 96.5,17.8 105.9,17.8 98.3,23.4 101.2,32.3 93.6,26.8 86,32.3 
						88.9,23.4 					"/>
					<polygon class="st38" points="5.8,61 15.2,61 18.1,52 21,61 30.4,61 22.8,66.5 25.7,75.4 18.1,69.9 10.5,75.4 13.4,66.5 					
						"/>
					<polygon class="st38" points="156.8,61 166.2,61 169.1,52 172,61 181.4,61 173.8,66.5 176.7,75.4 169.1,69.9 161.5,75.4 
						164.4,66.5 					"/>
				</g>
			</g>
		</g>
		<g class="st0">
			<g>
				<defs>
					<rect id="SVGID_19_" x="-108.6" y="-0.8" width="517.1" height="301.7"/>
				</defs>
				<clipPath id="SVGID_20_">
					<use xlink:href="#SVGID_19_"  style="overflow:visible;"/>
				</clipPath>
				<rect x="48.8" y="-0.8" class="st39" width="202.4" height="301.7"/>
				<g class="st40">
					<defs>
						<rect id="SVGID_21_" x="-108.6" y="-0.8" width="517.1" height="301.7"/>
					</defs>
					<clipPath id="SVGID_22_">
						<use xlink:href="#SVGID_21_"  style="overflow:visible;"/>
					</clipPath>
					<path class="st41" d="M149.9,32.4c-0.5,4.9-0.9,9.8-1.4,14.7c-1.6,0.2-3.3,0.5-5,0.7c0,0,3.4,1.9,4,3.9
						c0.1,0.3,0.1,0.6-0.1,0.8c0,0.1-0.1,0.1-0.2,0.2c-1,0.8-3.9,0.4-3.9,0.4s3.9,3.3,4.2,4.5c0,0,0,0,0,0.1c0,0,0,0.1,0,0.1
						c0,0,0,0.1,0,0.1c0,0.1-0.1,0.1-0.1,0.2c-0.9,0.8-5.2,1.1-5.2,1.1s4.8,3.5,5.1,5.4c0.3,1.8,0,2.8,0,3
						c-0.3-0.3-8.1-6.8-13.1-4.9c-0.3,0.1-0.4,0.3-0.5,0.4c0,0.1,0,0.1,0,0.2c0.4,1.1,7.4,2.2,12.3,6.5c-0.1,1.1-14-3.4-14.5-0.6
						c0.4,0.8,15,2.9,16,4.8c-5.4,0.2-16.4-1.2-16,0.6c-1.1,2,10.4,0.9,15.3,2.6c1.4,1.6,1.3,3-1.2,3.1c-4.7-2.3-15.1-3.9-15.2-1v0
						l0,0c0,0,0,0,0,0c0,0,0,0,0.1,0c1.2,0.6,10.9,0.3,14.6,2.7c-5.2,1.2-22.8-2.4-22.9-0.6c0.5,0.8,3.3,4.4,8.1,4.2
						c4.8-0.1,15.9,2,16.7,3.4c0,0,0,0.1,0,0.1c-0.3,1-14.6-3.2-20.1-0.6c-5.7,2.7,16.4,1.1,20,4.4c3.6,3.3-7.2-0.3-7.2-0.3
						s-15-2.1-17.2-1c-2.3,1.1-4.8,3.4-4.8,3.4s1.5,3,3,2.4c0.2-0.1,0.4-0.1,0.5-0.1h0l0,0c0,0,0,0,0,0l0,0l0,0c0,0,0,0,0,0.1
						c0,0.4-1,1.7-1,1.7s21,5.1,25.7,9.6c4.6,4.5-26.7-7.1-26.7-7.1s-12.6,4.7,0.7,5c-1.5,2.2,0.6,3.5,0.8,3.6
						c0,0,22.2,4.7,24.5,8.3c2.2,3.6-15.2-3.5-19.1-5.4c-3.8-1.9-14.2,1-14.8,1.9c0,0,0,0,0,0v0v0v0v0l0,0v0c0,0,0,0,0,0
						c0,0,0,0,0,0c0.7,0.7,5.3,1.7,5.5,3v0c0,0.1,0,0.2,0,0.2c-0.6,1.1-6.2,1.6-6.4,2.7c0,0,0,0,0,0.1c0,1.2,28.1,7.1,35.6,13.4
						c7.5,6.3-22.1-7.5-22.1-7.5s1.6,2.3,0,2.9c-1.7,0.6-7.5-8.4-17.1-2.9c-1.8,2.3,8.4,4.1,11,4.4c-0.9,2.3-1.6,3,2,5.3
						c0.4,0.2,0.6,0.4,0.7,0.5l0,0c0,0,0,0,0,0v0v0h0h0c-0.5-0.1-7-3.4-7.7-3.5h0h0c0,0.3,0.8,3.9,0.8,3.9
						c-3.3-2.7-7.3-3.5-11.1-0.8c0,0.2,0,2.8,3.7,4.3c-2.1,4.4,2.4,3,9.6,7.1c-10.7-2.8-11.6,2.4-3.9,3.6c7.7,1.2,28.7,1.9,33.6,8.4
						c1,1.4,1.3,2,1.1,2.3c-0.8,0.8-8.4-4.7-9.5-5c0,0,0,0,0,0c0,0,0,0,0,0c0,0,0,0,0,0.1c-0.3,0.6-0.5,3.2-0.5,3.2
						c-3.2-1.8-6.1-3.5-10-4.3c-0.3,0.6-0.2,1.5-0.5,2.1c-3.5-2.5-6.5-4.3-11.6-4.5c-0.2,0.8-0.4,1.6-0.6,2.4c0,0-4.2-5.2-12.5,0
						c-4.6,3.3,17.4,1.2,21,5.1c3.6,3.9,0.7,4.5,0.7,4.5c-3-1.1-6-2.2-9-3.3c0,0-10.7-2-13.7,0.4c-3,2.4,43.8,8.2,45.2,14.7
						c0.9,3.5-11-3.7-21.3-6.7c-0.4,1.1-0.8,2.3-1.2,3.4c-0.2-0.2-4.2-4.1-8.7-4.8c0,0,0,0,0,0v0c0,0.5,0.9,4,0.9,4
						s-11.5-5.4-17.4-2.5c-5.9,2.8,20.4,4.3,22.8,7c0.3,0.3,0.4,0.5,0.4,0.7c0,0,0,0.1,0,0.1c-0.6,0.8-8.4-2.3-9.2-0.7
						c-0.9,1.8-13.7-3.3-13.5-0.9c0.1,2.4,1.8,3.7,1.8,3.7s26.6,2.6,27.5,5.7c0.9,3.1-14.7-1.8-14.7-1.8s-1.5,2.2-0.3,3.3
						c0,0.1,0.1,0.1,0.1,0.1v0c0,0,0,0,0,0c-0.5-0.2-9-5.7-8.2-1.5c-3.3-1.3-11.9-5.4-10.7-2.2c1.2,3.1,23.5,7.5,24.1,7.6
						c-0.6,0-10,0.8-9.6,3.3c-12.6-7.7-12.6-3.1-12.3-2.7v0c-0.7-0.1-16.2-4-3.9,2.7c6.6,3.6,8.2,5,8.3,5.5c0,0,0,0,0,0.1
						c0,0,0,0,0,0c0,0,0,0,0,0l0,0c0,0,0,0,0,0s0,0,0,0l0,0c0,0,0,0,0,0c-0.3,0.2-0.9,0.1-1.1,0.1h0l0,0c0,0,0,0,0,0
						c0.2,0.3,1.1,2.9,1.1,3.4c0,0,0,0,0,0v0h0c0,0,0,0,0,0h0h0c-0.5-0.1-8.7-4.5-11.5-4.8c-2.8-0.3-16.4,3.7-2,10
						c14.4,6.3,23.3-1.5,31.2-0.6c8,0.9,11.7,2.2,11,4.8c-0.8,2.6-8.1-8.4-15.9,1.1c-8.8-1.8-14.8-2.8-10.3,3.7
						c-14.4-5.4-23.2,1.7-5.1,4.5c17.9,0.5,28.8-4.4,28.8-4.4s3,5.6,7.4,1.7c4.1-3.7,4.5,1,4.6,1.5c0,0,0,0,0,0v0h0
						c0.3-0.1,4.2-1.8,4.2-1.8h1.1v36c4.9,0,9.7,0.1,14.5,0.1c0,0-4.7-31.4-2.1-35.6c2.5-4.1,4.8-3.6,5-3.6c0,0,9.5,2.8,10.5,2.4
						l0,0c0,0,0,0,0,0c0,0,0,0,0.1,0c0,0,0,0,0,0c0.8-0.7,0-3.5,4.8-3c1.5-0.5,0.9-2.9,1.9-3.5c0,0,0.1,0,0.1,0c0,0,0.1,0,0.1,0
						c0.1,0,0.1,0,0.2,0c1.5-0.2,30.5,8.1,36.8,0.3c-1.6-4.3-7.4-0.3-8.9-0.1c-1.3,0-7.1-2.7-10.4,0c-3-2.3-16.6-3.8-16.6-3.8
						c-1.8-1.8,32.6,0.9,34.5-0.4c4-4.1-7.5-3.6-9.3-2.3c-3.2-2-7.2-1.8-9.7-0.5c-1.2-2.8-12.3-1.6-18.5-2.4c-2-1.2-1.6-1.8-0.3-2.6
						c13,0.6,25.8,2.2,38.9,1.7c3.5-4.6-4.4-6.3-9.3-2.4c-2.9-4.7-8.7-0.1-12.6-0.6c-3.9-0.5-2.1-5.3,2.8-4.5
						c5,0.7,13.8-0.3,15.5-2.6c1.6-2.2-1-4.5-9.2-2.4c-2.8-2.7-8.8,0-11.7,0.9c-3.8-2.1-12.6-0.3-15.6,0.4
						c-2.9-1.8,15.5-4.8,15.5-4.8c7.1-0.1,11.1-1.3,13.4-2c10.7-5.7-0.2-6.4-5.8-2.2c-3.5-2.7-6.8,0.2-10,1.3c-3,1-8.4,1.7-9.1,1.4
						c0,0,0,0,0,0l0,0l0,0v0v0c0,0,0,0,0,0c0.4-0.7,8.5-5.7,8.5-5.7s10.5-0.8,12.6-1.1c1.3-0.2,5.8-2.3,5.8-3.1c0-0.5-1.9-0.4-7.6,1
						c-5.1,0.5-8.1,0.2-10,0.3c-3.1-0.3-4.5-0.7-4.7-0.9c0,0,0,0,0,0c0,0,0-0.1,0-0.2c0,0,0,0,0,0c0.8-0.6,5.7-1.1,5.7-1.1
						s15.2-1.4,16.2-2.2l0,0c0,0,0,0,0,0l0,0c0.3-6.2-12.9-3.3-13.2-3.3c0-4.4-11.9-0.1-12.4,0h0c-0.5-0.3-0.7-0.6-0.8-0.9
						c0-0.1,0-0.2,0-0.3c0.3-0.9,2.1-1.6,2.1-1.6c3.3-0.8,8.2-1,9.5-2.1c0,0,9.3-0.1,10.4-2.6c-2.3-6.3-19.7,1.1-22,2.2
						c-0.5,0-0.8-0.1-0.9-0.3c-0.8-1.1,3-4.8,3.1-4.9l0,0c0.6-0.2,14.5-0.9,21.1-9.9c0.5-5.6-7.9,3.1-7.9,3.1
						c-0.6-7.2-9.2,0.5-14.1,1.1c-5,0.6-5.1-2.2-1.6-2.7c3.4-0.4,7.3-0.2,9.3-5.4c1.9-5.2,7.8,0.3,8.9-1.6c1-1.9-1.9-3.5-2.1-3.6
						c0,0,4.3-4.5-2.7-4.4c-7,0.1-16-0.9-16.2-0.9c0.4-0.2,7.6-2.8,14.2-2.7c6.9,0.2,3.1-4.9-3.5-4.9c-6.6,0-10-2.3-10-2.3
						c3.7-1.4,7.5-2.8,11.2-4.2c-0.2-1-0.5-2.1-0.7-3.1c0,0,6.6-5.3-2.7-4.1c-9.3,1.2-10.4,1.4-10.4,1.4s-18.3,2.8-18.8,2.8h0
						c-0.2,0-2-0.6-2.3-1.3c0,0,0,0,0-0.1c0,0,0-0.1,0-0.1c0,0,0-0.1,0-0.1c0.1-0.4,0.6-0.8,2.1-1.1c4.8-1.2,21.8-4.6,24.3-3.8
						c0.3,0.1,0.6,0.1,0.7,0c1-0.9-2.2-6.4-10-7.2c-9-0.9-14.5,2.2-14.5,2.2s-5.9-2.1-0.5-3.9c5.4-1.8,14,0.6,14,0.6
						s9.6-2.9,1.7-4.1c-8-1.2-10.5,1.1-14.1,1.2c-1.5-1.8,12.5-2.2,13.4-3.7c-1.5-2.7-10.1,0-15.2,0c-2.2-0.9-2.3-2.4,0.1-3.3
						c5.2-0.2,10,0.1,15.2-0.1c-0.2-2.7,0-6-0.1-8.8c-6.5-1.2-14.2,0.9-17.9,0.7c1-3,15.1-3.8,16.7-4.6c3.2-4.1-13.5-0.1-13.9,0
						c-3-0.4-2.8-2.3-0.9-3.4c4.3-0.5,14.1,0.6,13.4-2.3c-0.6-2.8-6.8-1.3-9.3-0.7c-2.5,0.6-6.3,0.1-6.3,0.1
						c-1.6-2.2,14.7-1.3,14.6-3c-0.2-1.9-10.4-0.6-13.8-0.4c-2.7-1.8,12.5-3.1,13.2-3.3c0,0,0,0,0,0c0.6-5-10.5,0-12.6,0
						c-0.4,0-0.6-0.1-0.8-0.2c0,0-0.1-0.1-0.1-0.1c-0.7-0.8-0.1-2.8-0.1-2.8s3.9-1.8,4.2-2.2l0,0v0c0,0,0,0,0,0l0,0c0,0,0,0,0,0
						c-0.5-0.4-3.2-1.3-3.5-1.3h0l0,0c0,0,0,0,0,0l0,0c-0.2-0.4,0-3.4,0-3.4s3.1-2.3,3.3-3.3c0,0,0,0,0,0c0,0,0,0,0,0v0c0,0,0,0,0,0
						v0c0,0,0,0,0,0v0c0,0,0,0,0,0c0,0,0,0,0,0c0,0,0,0,0,0l0,0c0,0,0,0,0,0l0,0c-0.8-0.4-4.1,0.8-4.1,0.8v-3c0,0,2.9-0.3,3.2-1.7
						c0-0.1,0-0.2,0-0.2c0,0,0-0.1,0-0.1c0-0.1,0-0.1-0.1-0.2l0,0c-0.6-0.8-3.3-1-3.3-1C150.8,42.9,150.4,37.7,149.9,32.4
						L149.9,32.4z M147.2,83.9v2.1c0,0-3.4-0.2-4-0.7c0,0,0,0,0,0l0,0c0,0,0,0,0,0l0,0c0,0,0,0,0,0v0l0,0c0,0,0,0,0,0v0c0,0,0,0,0,0
						v0c0,0,0,0,0,0l0,0c0,0,0,0,0,0c0,0,0,0,0,0l0,0c0,0,0,0,0.1-0.1C144.4,84,146.7,84,147.2,83.9
						C147.1,83.9,147.1,83.9,147.2,83.9L147.2,83.9L147.2,83.9L147.2,83.9L147.2,83.9z M151.9,86.6c0.1,0,6.7,0.1,7.3,0.9l0,0
						c0,0,0,0,0,0c0,0,0,0,0,0c0,0,0,0,0,0c0,0,0,0,0,0c-0.5,1.1-7.2,1.7-7.2,1.7L151.9,86.6z M151.6,90.7L151.6,90.7L151.6,90.7
						c0.4,0.1,3.1,0.2,3.5,0.7l0,0c0,0,0,0,0,0l0,0v0v0v0v0c0,0,0,0,0,0l0,0v0c0,0,0,0,0,0c0,0,0,0,0,0c0,0,0,0,0,0
						c-0.6,0.7-3.1,0.9-3.2,0.9h0v0c0,0,0,0,0,0C151.7,92.2,151.6,90.7,151.6,90.7L151.6,90.7z M131.5,96.1
						c2.2-0.1,6.4,0.4,14.4,2.6c0,0.2,0.2,2.2,0.1,2.6c0,0,0,0,0,0v0c0,0,0,0,0,0c-0.1-0.1-14.6-4.2-15.9-4.2c0,0-0.1,0-0.1,0
						c0,0-0.1,0-0.1,0c0,0-0.1,0-0.1,0c0,0,0,0,0,0l0,0c-0.1,0-0.1-0.1-0.1-0.1c0,0,0,0,0,0l0,0c0,0,0,0,0,0l0,0c0,0,0,0,0,0v0
						c0,0,0,0,0,0c0,0,0,0,0-0.1c0,0,0-0.1,0.1-0.1C129.9,96.4,130.4,96.2,131.5,96.1L131.5,96.1z M139,102.3
						c2.3-0.1,7.8,1.2,8.1,1.2c0,0.4,0.2,2.5,0,2.9c0,0,0,0,0,0l0,0c0,0,0,0,0,0c0,0,0,0,0,0s0,0,0,0h0h0c-0.5-0.1-8.6-2.7-8.9-3.8
						c0,0,0,0,0-0.1c0,0,0-0.1,0-0.1l0,0c0,0,0,0,0,0C138.3,102.4,138.6,102.3,139,102.3L139,102.3z M161.7,108
						c2.2,0,3.8,0.1,3.2,0.8c-1.6,1.8-12.4,3.3-12.4,3.3l-0.2-3.3C152.4,108.8,158,108.1,161.7,108L161.7,108z M130.6,118.4
						c1.8-0.1,6.2,0.9,15.7,5l0.1,2.4c0,0-16.2-4.9-16.8-5.7C129.3,119.6,128.8,118.5,130.6,118.4L130.6,118.4z M162.3,121.9
						c0.5,0,0.9,0,1,0.1l0,0c0,0,0,0,0,0.1c0,0,0,0,0,0c0,0.1-0.1,0.2-0.2,0.3c-1.5,1.7-9.6,3.4-9.6,3.4v-2.2h0
						C154,123.6,159.9,122,162.3,121.9L162.3,121.9z M126.8,122.2c2.4-0.1,7.9,1.2,20.1,6.9c0,0.1,0.1,2.1,0.1,2.3h0
						c-0.7-0.2-22-7.7-22-7.7C124.9,123.6,124.6,122.3,126.8,122.2L126.8,122.2z M167.4,131.6c0.6,0,1,0,1.1,0.2c0,0,0,0,0,0.1
						c0,0.1-0.1,0.1-0.2,0.2c-1.9,1.8-14.3,3.9-14.7,3.9h0c0,0,0,0,0,0c0,0,0,0,0,0l0,0c0,0,0,0,0,0s0,0,0,0c-0.1-0.4,0.2-1.8,0.2-2
						v0h0l0,0c0,0,0,0,0,0C154.6,133.8,164.1,131.7,167.4,131.6L167.4,131.6z M131.1,137c3.7-0.2,14.8,4.9,15.3,5.1h0
						c-0.1,0.2-0.1,2.1-0.1,2.4c0,0,0,0,0,0h0c-0.3-0.2-15.5-6.5-16.2-6C129.7,137.5,130.2,137.1,131.1,137L131.1,137z M163.9,138.4
						c0.8,0,1.3,0,1.5,0.1c0,0,0,0,0,0.1v0v0c0,0,0,0,0,0l0,0c0,0,0,0,0,0.1c-1.1,1-11.6,3.1-11.6,3.1s0-1.9,0-2.1
						C154,139.5,160.8,138.5,163.9,138.4L163.9,138.4z M163.1,145.1c0.7,0,1.3,0,1.4,0.2l0,0c0,0,0,0,0,0l0,0l0,0c0,0,0,0,0,0l0,0
						c0,0,0,0,0,0c0,0,0,0,0,0c-1.1,1-10,2.9-10,2.9s-0.3-2.1-0.3-2.2C154.4,146.1,160.3,145.2,163.1,145.1L163.1,145.1z
						 M125.5,145.6c2.2-0.1,7.5,0.7,20.6,5.5l0.4,2.6c0,0-21.9-7-22.5-7.3c0,0,0,0,0,0c0,0,0,0,0-0.1c0-0.1,0-0.2,0.1-0.3
						C124.3,145.9,124.7,145.7,125.5,145.6L125.5,145.6z M154.3,151.2c0.3,0,3.9,0.2,4.6,0.8l0,0l0,0c0,0,0,0,0,0l0,0c0,0,0,0,0,0
						c0,0,0,0,0,0v0v0c0,0,0,0,0,0v0c0,0,0,0,0,0v0c0,0,0,0,0,0c-0.6,0.9-4.4,1.2-4.4,1.2S154.4,151.8,154.3,151.2L154.3,151.2z
						 M163.2,156.2c0.9,0,1.5,0.1,1.6,0.3c0.1,0.2-0.1,0.4-0.5,0.8c-3.1,2.6-10,3.1-10,3.1v-2.8h0
						C154.8,157.5,160.4,156.3,163.2,156.2L163.2,156.2z M171.9,158.9c1.1,0,1.6,0.1,1.7,0.4c0,0,0,0.1,0,0.1c0,0,0,0.1,0,0.1
						c0,0.3-0.4,0.7-0.7,1c-1.1,1-18.1,6.4-18.1,6.4s-0.1-3.6-0.1-3.9C164.8,160,169.7,159,171.9,158.9L171.9,158.9z M160.9,169
						c1.1,0,1.9,0,2.2,0.3c0,0,0,0,0,0.1c0,0,0,0,0,0c0,0,0,0,0,0c0,0,0,0.1,0,0.1c0,0,0,0.1-0.1,0.2c-1.5,1.4-8.5,1.6-8.5,1.6v-1.8
						C155.9,169.5,158.8,169.1,160.9,169L160.9,169z M168,171.9c0.3,0,0.5,0,0.6,0.1c0,0,0,0,0,0c0,0.1-0.1,0.2-0.3,0.4
						c-2.8,2-13.5,4.1-13.5,4.1s0.1-1.4,0.2-1.7C155.3,174.8,165.4,172,168,171.9L168,171.9z M174,174.2c1.3,0,2.2,0.2,2.8,0.6h0v0
						v0c0,0,0,0,0,0c-0.1,0.4-0.8,2.2-3.7,3c-3.5-0.3-18.3,4.1-18.6,4.1h0c0,0,0,0,0,0c0-0.3,0.2-1.8,0.2-1.8
						C159.8,177.1,169,174.2,174,174.2L174,174.2z M136,182.8C136.1,182.8,136.1,182.8,136,182.8c6.5,0.7,8.9,3.1,9.6,4.1
						c-1.3,2.2-11.4-2.8-10.3-3.9C135.4,182.8,135.6,182.8,136,182.8L136,182.8z M172.7,183.2c0.3,0,0.5,0,0.7,0.1
						c0.1,0,0.1,0.1,0.2,0.2c0.1,0.1,0.1,0.2,0.1,0.4c-0.7,1-4.1,0.6-4.3,0.6C169.5,184.4,171.5,183.2,172.7,183.2L172.7,183.2z
						 M159,190.2c0.5,0,0.9,0,1.1,0.2c0,0,0.1,0,0.1,0.1c0,0,0,0,0,0c0,0,0,0,0,0.1c0,0,0,0,0,0c0,0.1,0,0.3-0.1,0.5
						c-1,1.9-5.4,1.2-5.4,1.2v-1.3h0C155.1,190.9,157.5,190.2,159,190.2L159,190.2z M133.1,195.1c1.4-0.1,2.5,0.8,3.8,1.5
						c2.8-0.6,8.4,0.4,8.4,0.4v2.5l0,0c0,0,0,0,0,0c-0.5,0.1-7.2-0.2-8.7-1.1c-1.2,0-4.6-1.8-4.9-2.7c0,0,0,0,0,0c0,0,0,0,0-0.1v0
						c0,0,0,0,0,0v0c0,0,0,0,0,0v0C132.2,195.3,132.7,195.1,133.1,195.1L133.1,195.1z M162.2,196.4c1,0,1.5,0.3,0.7,1.4
						c-2.3,3.2-8.1,1.9-8.1,1.9l-0.2-2C156.5,197.8,160.3,196.5,162.2,196.4L162.2,196.4z M140.3,202.9c2.4-0.1,4.9,0.8,4.9,0.8
						c0.1,0.1,1.3,2.5,0.2,3.3c0,0-0.1,0.1-0.1,0.1c-1.3,0.7-7.6-0.5-8-3.1C138.1,203.2,139.2,202.9,140.3,202.9L140.3,202.9z
						 M115.9,204.1c2.2-0.1,4.6,1.2,4.9,1.3h0c0,0.1-0.1,2.4-0.1,2.4s-4.3-1.2-5.6-3.6C115.4,204.2,115.6,204.1,115.9,204.1
						L115.9,204.1z M157.1,204.4c2.4,0,5.3,0.6,5.7,1.4c0.1,0.2,0.1,0.4-0.1,0.5c-1.2,1.4-8,0.1-8,0.1v-1.8
						C155.4,204.5,156.2,204.4,157.1,204.4L157.1,204.4z"/>
					<g class="st42">
						<path class="st43" d="M158.1,257.4L158.1,257.4l-14.5-0.1l-0.3-36.3l-0.7,0.3l0,0c0.1,0-3.8,1.7-4.1,1.8l-0.5-0.6
							c-0.3-1.8-1.5-3.3-4-1c-1.1,1-2.2,1.5-3.3,1.5c-2.7,0-4.4-3-4.6-3.2c0,0.3-11.1,5.1-28.5,4.5c-6.8-1.1-10.7-2.9-10.5-4.8
							c0.1-1.4,2.4-2.3,5.8-2.3c2.1,0,5.5,0.4,9.9,2c-1.8-1.6-2.3-3-1.8-3.9c0.9-1.7,5.3-1.1,12,0.2c1.9-2.6,4.3-3.9,6.9-3.9
							c2.6,0,4.9,1.4,6.6,2.3c0.8,0.5,1.5,0.9,1.9,0.9c0.3-0.7,0.3-1.1,0-1.5c-0.9-1.4-4.3-2.3-10.5-3c-2.8-0.3-5.7,0.4-8.8,1.3
							c-6.2,1.6-14.5,2.8-22.5-0.7c-4.9-2.1-7.1-4.2-6.7-6.3c0.6-2.8,6.2-4.4,8.4-4.4c2.6,0.2,7.7,2.8,10.4,4.1
							c0.8,0.4,1.4,0.7,1.5,0.7c-0.3-0.2-1.2-2.6-1.4-3l0.4-0.5l0,0l0.9,0.2l-0.2-0.2c0-0.2-0.7-1.2-8.1-5.2
							c-4.6-2.5-5.1-3.3-4.9-3.9c0.1-0.6,1-0.6,1.6-0.6c1.9,0,5.4,0.8,6.9,1.1l0.1,0.1c0-0.2,0-0.5,0.2-0.7c0.2-0.4,0.8-1,2.1-1
							c2.1,0,5.6,1.4,10.2,4.2c0-0.1,0.1-0.3,0.2-0.5c1.1-1.4,4.9-2.1,7.5-2.4c-5.7-1.2-21.2-4.7-22.3-7.4c-0.2-0.5-0.2-0.9,0-1.2
							c0.8-1.2,5.8,0.8,9.3,2.3l1.8,0.7c-0.6-0.3-0.5-0.8-0.2-1.2c1.1-1.3,5.7,1.1,7.7,2.3c0.2,0.1,0.4,0.2,0.5,0.3
							c-1.5-0.9,0-3.1,0.1-3.2c0.3,0.1,9.4,2.7,13.2,2.7c1.1,0,1.4-0.2,1.4-0.3c-0.6-2.4-17-4.8-27.2-5.8c-0.2-0.1-2-1.5-2.1-4
							c0-0.1,0.1-0.5,0.2-0.6c0.7-0.8,3.6-0.2,6.9,0.6c3,0.7,6.2,1.1,6.4,0.7c0.5-1,3.3-0.5,5.9,0.1c1.2,0.3,2.4,0.6,3,0.6
							c-1-1.4-6.8-2.4-11.9-3.3c-7.2-1.2-11.6-2-11.8-3.4c-0.1-0.7,0.8-1.1,1-1.2c1.2-0.6,2.6-0.9,4.4-0.9c5.7,0,12.6,3.1,13.2,3.4
							c-0.6-0.3-1.3-3.2-1.3-3.7c5,0.3,9.1,4.3,9.3,4.5l0.7-3.3c4.5,1,8.8,2.9,12.6,4.5c3.7,1.6,6.9,3,8.3,3l0.4-0.5
							c-0.7-3.6-17.6-7.2-29.9-9.9c-11-2.4-15.2-3.4-15.4-4.5c0-0.1,0.2-0.5,0.3-0.6c1-0.8,3-1.3,6-1.3c3.8,0,7.9,0.7,8,0.8l9,3.3
							c0,0,0.5-0.2,0.6-0.7c0.1-0.4,0.1-1.4-1.7-3.3c-1.7-1.9-8.2-2.3-13.4-2.7c-5.3-0.4-8-0.6-8.3-1.6c-0.2-0.6,0.5-1.1,0.7-1.3
							c2.5-1.6,4.9-2.4,7.1-2.4c3.8,0,5.7,2.3,5.8,2.4l-0.3-1.1l0.3-1.2c5.5,0,8.7,1.9,11.9,4.2c-0.1-0.2-0.1-0.4,0-0.6
							c0.1-0.4,0.1-0.8,0.3-1.1c4.3,0.6,7.3,2.4,10.3,4.1c-0.3-0.4-0.1-2.4,0.2-3c0.9-0.2,2,0.5,3.9,1.6c2.1,1.3,4.9,3.1,5.8,3.1
							c0,0-0.1-0.4-1.1-1.8c-3.9-5.1-18-6.6-27.4-7.6c-2.4-0.2-4.5-0.5-6-0.7c-3.2-0.5-5.4-1.9-5.3-3.3c0.1-1.5,2.9-2.2,6.9-1.5
							c-1.7-0.8-3.1-1.3-4.3-1.7c-1.9-0.6-3.2-1.1-3.6-2.1c-0.3-0.6-0.1-1.5,0.4-2.6c-3.9-1.3-3.8-4.2-3.8-4.2
							c3.8-3.1,7.9-2.5,11.6,0.5c-0.7-0.6-1.2-3.3-1.2-3.6c0.8-0.3,2.2,0.4,4.5,1.6c0.3,0.1,0.6,0.3,0.9,0.4
							c-1.4-1.3-1.2-2.2-0.5-3.8l0.2-0.6c-1.3,0.3-10.1-1.1-11.1-3.3c-0.1-0.3-0.2-0.7,0.2-1.2c2.2-1.3,4.4-1.9,6.5-1.9
							c3.9,0,6.8,2.1,8.8,3.6c0.8,0.6,1.6,1.1,1.9,1.1c0.3-0.1,0.5-0.3,0.5-0.5c0.2-0.6-0.4-1.6-0.6-1.9c-0.1-0.1-0.1-0.3,0-0.4
							c0.1-0.1,0.2-0.2,0.4-0.1c0.2,0.1,19.6,9.1,22.7,9.1c0.2,0.1,0-0.2-1-1.1c-4.8-4.1-18.3-7.9-27.2-10.5
							c-7.4-2.2-8.5-2.5-8.5-3.1c0.2-0.8,1.4-1.2,3.4-1.7c1.2-0.3,2.9-0.8,3.1-1.2c-0.1-0.6-2-1.4-3.2-1.8c-1.2-0.4-1.9-0.7-2.2-1
							c0-0.1-0.1-0.6-0.1-0.6c0.6-0.9,7.1-2.6,11.5-2.6c1.6,0,2.9,0.2,3.8,0.7c3.3,1.6,14.9,6.4,18.2,6.4l0.7-0.7l-0.3,0.2
							c-1.7-2.7-16.6-6.5-24.3-8.1c-0.4-0.2-1.3-0.8-1.5-1.9c-0.1-0.7,0-1.4,0.5-2.2c-5.2,0.4-6.1-0.5-6.2-1.2
							c-0.3-1.6,4.2-3.4,5.6-3.9c0.5,0.1,22.2,8.1,26.5,8.1c-4.5-4.9-25.2-10-25.4-10c0.3-1.1,0.8-1.8,0.8-2l-0.7,0.3
							c-1.5,0-2.7-2.4-2.9-2.7c0.2-0.5,2.7-2.8,5-3.9c0.5-0.2,1.4-0.3,2.8-0.3c5,0,14.5,1.3,14.6,1.3c0.1,0,5.1,1.7,7.1,1.7
							c0.5,0,0.5-0.3-0.1-0.8c-1.7-1.6-8.1-2-13.3-2.3c-5.6-0.4-7.6-0.6-7.7-1.4c-0.1-0.5,0.5-0.9,1.1-1.2
							c3.1-1.5,10.7-0.6,15.6,0.2c1.8,0.3,3.3,0.5,4,0.5c-0.3-1-10.4-3.1-15.6-3.1l-0.8,0c-5.3,0-8-4.4-8.1-4.4c0-0.9,1.1-1,2.3-1
							c1.8,0,4.6,0.3,7.7,0.6c5,0.5,11,1,13.2,0.5c-2.5-1-7.7-1.4-11.2-1.7c-2-0.2-3.1-0.2-3.5-0.5c-0.3-1.2,0.4-2.2,3.7-2.2
							c3.5,0,8.7,1.2,11.7,2.6c0.8-0.1,1.4-0.4,1.6-0.8c0.2-0.4-0.1-1.1-0.8-1.9c-2-0.7-5.5-0.8-8.7-1c-3.9-0.2-6.2-0.4-6.7-1.2
							c-0.1-0.1,0-0.7,0-0.8c0.5-0.9,1.8-1.1,4.3-1.1c1.6,0,3.5,0.1,5.5,0.2c1.9,0.1,3.8,0.2,5.4,0.2l1.2,0
							c-0.8-0.6-6.8-1.9-10.7-2.7c-4.2-0.9-5.4-1.2-5.6-1.6c0.2-1.4,2.1-1.4,2.7-1.4c2.1,0,5.1,0.6,7.6,1.1c1.8,0.4,3.3,0.6,4,0.6
							c-2.7-2.2-6.5-3.6-9.1-4.6c-2-0.8-2.9-1.1-3.1-1.6c0.1-0.6,0.3-0.8,0.6-1c5-1.9,13.1,4.7,13.4,5c-0.4-0.6-0.4-1.6-0.5-2.7
							c-0.2-1.5-3.7-4.2-5-5.2c1.8-0.7,4.6-1,5.2-1.6c-0.1-0.9-2.6-3.2-4-4.4c0.3-0.6,0.9-0.5,1.7-0.5c1.1,0,1.9-0.2,2.2-0.4
							c-0.4-2.4-3.7-4.3-3.7-4.3l2.6-1l2.5-0.4l1.1-14.4c0-0.2,0.1-0.3,0.3-0.3l0,0c0.2,0,0.3,0.1,0.3,0.3l1.5,15.8
							c0-0.3,2.5-0.1,3.2,0.8c0,0,0.2,0.8,0.2,0.8c-0.3,1.5-3.1,1.9-3.4,1.9l0.3,2.5c0.2-0.4,2.2-1,3.3-1c0,0,0.6,0.1,0.6,0.1
							l0.3,0.5c-0.2,1.2-2.9,3.2-3.4,3.6c0,1.1,0,2.8,0,3c0.2-0.1,3,0.8,3.5,1.2c-0.1,1-2.7,2.2-4.2,2.9c0,0.3-0.3,1.7,0.2,2.3
							c0.7,0.6,1.7,0.1,3.8-0.5c3.5-1,8.1-2.2,9.4-0.7c0.4,0.4,0.5,1,0.5,1.8c-0.4,0.4-1.2,0.4-2.3,0.6c-7.3,0.9-11,1.6-11.2,2.3
							c0.7,0.1,1.6,0,2.7-0.1c2.1-0.2,4.7-0.4,6.9-0.4c3,0,4.4,0.4,4.5,1.3c-0.7,1.2-3.2,1.4-7.3,1.6c-2.8,0.2-7.1,0.5-7.4,1.1
							c0.3,0,4.2,0.3,6-0.2c1.4-0.3,4-0.9,6.1-0.9c2.1,0,3.4,0.6,3.6,1.9c0.1,0.4,0,0.8-0.2,1.2c-1,1.3-4.9,1.3-8.7,1.4
							c-1.8,0-3.5,0-4.7,0.2c-0.7,0.5-1.2,1.1-1.1,1.7c0.1,0.6,0.8,1,2,1.1c9.4-2.1,13.9-2.4,14.5-1c0.2,0.4,0.1,0.9-0.4,1.5
							c-0.6,0.4-2,0.6-4.5,0.9c-4.3,0.6-11.5,1.7-12.1,3.6c1.4-0.4,3.1-0.6,4.9-0.8c4-0.5,9-1,12.7-0.3c0.3,1.7,0.3,3.1,0.3,4.6
							c0,1.5,0,3.1,0.1,4.5c-1.8,0.4-3.2,0.4-4.6,0.4l-6.8,0c-1.3,0-2.7,0-4.1,0.1c-0.9,0.4-1.5,0.8-1.5,1.3c0,0.5,0.5,1,1.5,1.4
							c1.5,0,3.6-0.3,5.7-0.6c4.5-0.7,8.7-1,9.6,0.8c-0.5,1.1-2.9,1.5-6.8,2.1c-2.4,0.4-6.5,1-6.7,1.6c1-0.1,2-0.4,3.2-0.7
							c2.4-0.6,5.4-1.4,10.7-0.6c2.3,0.4,3.4,0.8,3.4,1.6c0.1,1.4-3.8,2.7-5,3.1c-0.3,0-9.6-2.1-13.9-0.6c-1.8,0.6-2.1,1.1-2.1,1.4
							c0,0.7,1.7,1.6,2.5,1.9c-0.1-0.1,5.5-3.2,14.5-2.3c6.2,0.6,9.7,4.2,10.4,6.3c0.2,0.6,0.2,1.1-0.1,1.4l-0.9-0.2l-0.1,0.3
							c-0.2,0-0.5-0.1-1.3-0.1c-4.7,0-18.3,2.8-22.9,3.9c-1.7,0.4-1.8,0.8-1.8,0.9c0.3,0.6,1.8,1.2,2.1,1.2c0.3,0,12.4-1.9,18.7-2.8
							c0,0,1.1-0.2,10.4-1.4c3.4-0.4,4.9-0.1,5.3,0.9c0.5,1.4-2,3.5-2.3,3.7l0.8,2.8l-11.2,4.5c0.9,0.1,4.2,1.7,9.7,1.7
							c4.2,0,7.5,2,7.5,3.8c0,0.6-0.4,1-1,1.4c-0.6,0.3-1.5,0.5-2.7,0.5l-0.8,0c-4.9,0-9.9,1.5-12.3,2.2c2.6,0.3,8.3,0.8,13.3,0.8
							l1.4,0c0,0,0,0,0,0c2.5,0,3.8,0.5,4.2,1.4c0.6,1.3-0.9,3-1.2,3.4c0.4-0.1,1.9,0.8,2.2,2c0.2,0.5,0.1,1.1-0.2,1.6
							c-0.5,0.8-1.7,0.6-3.2,0.1c-2.2-0.7-4.7-1-5.6,1.5c-1.8,4.8-5.2,5.2-8.3,5.5l-1.2,0.1c-1.4,0.2-2.1,0.8-2.1,1.2
							c0,0.5,1.2,1.1,3.6,0.8c1.6-0.2,3.6-1.1,5.5-2c2.3-1.1,4.4-2.1,6.1-2.1c1.8,0,2.7,1.1,2.9,3.4c-0.1-0.8,6-6.6,7.6-4.9
							c0.3,0.4,0.5,1,0.4,1.8c-2.8,3.9-8.7,8.7-20.9,10.1c-1.5,1-3.9,3.8-3.5,4.5c0.1,0.1,0.4,0.2,0.6,0.2c2-1,11-4.8,16.9-4.8
							c2.9,0,4.8,0.9,5.4,2.7c-1.2,2.8-9.7,3-10.7,3c-0.7,0.6-2.9,1-5.4,1.4c-1.4,0.2-2.8,0.4-4,0.7c-0.6,0.2-1.7,0.8-1.9,1.4
							c0,0.4,0.2,0.7,0.6,0.9c-0.1,0,0.2-0.1,0.6-0.3c2.6-0.8,9.8-2.6,11.5-0.9c0.4,0.4,0.5,0.8,0.5,1.4c2.7-0.9,4.9-1,6.2-1
							c3,0,5,0.6,6.1,1.7c0.6,0.7,0.9,1.6,0.9,2.6c-1.2,1.1-14,2.3-16.5,2.6c-1.8,0.2-4.9,0.6-5.5,1c0.2-0.2,1,0.3,4.5,0.7
							c0.5,0,1.1-0.1,1.9-0.1l1.7,0c1.7,0,3.7,0,6.4-0.3c3.3-0.8,5.6-1.3,6.8-1.3c0.3,0,1.1,0,1.1,0.6c0,1.2-5,3.3-6.1,3.4
							c-2.1,0.3-12.2,1-12.6,1.1c-2.9,1.8-7.9,5-8.3,5.5c2-0.3,6.3-1,8.8-1.8c0.7-0.3,1.5-0.6,2.3-1c2.6-1.2,5.6-2.2,8-0.3
							c2.2-1.9,5.7-2.8,7.8-2.8c1.5,0,2.4,0.4,2.6,1.1c0.3,1.1-1.3,2.6-4.7,4.4c-2.9,0.8-6.8,1.9-13.5,2c-8.3,1.3-15.4,3.2-15.5,4.1
							c2-0.4,12.3-2.3,15.8-0.3l1.1-0.5c3.3-1.1,8.5-2.5,10.7-0.4c4.5-1.5,8.7-1.1,9.5,0.6c0.3,0.7,0.2,1.4-0.3,2.2
							c-1.8,2.4-10.8,3.4-15.8,2.7c-2.7-0.4-4.5,1-4.6,2.3c0,0.8,0.6,1.4,1.8,1.6c1.7,0,3-0.3,4.4-0.7c3.4-0.9,6.8-1.3,8.4,1.5
							c2.4-2.8,8.8-2.9,10-0.5c0.3,0.7,0.5,1.8-0.7,3.3c-2.1,0.2-4,0.3-5.9,0.3c-6.8,0-13.7-0.5-20.4-1c-4.3-0.3-8.6-0.6-12.9-0.8
							c-0.4,0.3-0.8,0.6-0.8,0.8c0,0.2,0.1,0.5,1.2,1.2c1.9,0.2,4.6,0.3,7.2,0.3c5.5,0.1,10.7,0.2,11.5,2.2c1.7-1.8,6.6-1.5,9.5,0.3
							c0.5-0.7,3.1-1,5.3-1c1.6,0,4.4,0.2,5,1.5c0.3,0.6,0,1.4-0.9,2.2c-0.4,0.3-1.2,0.5-5.3,0.5c-3.3,0-7.8-0.1-12.2-0.3
							c-4.4-0.1-8.9-0.3-12.1-0.3c-4,0-4.7,0.2-4.8,0.3c0.4-0.3,13.6,1.2,16.6,3.5c1.3-1.8,6.1-1.1,8.6-0.4c0.7,0.2,1.3,0.4,1.6,0.4
							c0.3,0,0.9-0.3,1.6-0.6c1.2-0.5,3-1.3,4.5-1.3c1.5,0,2.6,0.8,3.1,2.2c-1.9,2.6-5.9,3.8-11.8,3.8c-7.8,0-17-2-22-3
							c-1.6-0.4-2.9-0.6-3.2-0.6c-0.6,0.2-0.7,0.8-0.8,1.3c-0.2,0.8-0.4,1.9-1.4,2.2c-0.5,0-0.8,0-1,0c-2.5,0-2.9,1.1-3.1,2
							c-0.1,0.4-0.2,0.8-0.5,1c0,0-0.7,0.2-0.7,0.2c-2.1,0-9.9-2.4-10.2-2.4c-0.9,0-2.7,0.3-4.6,3.4c-2.5,4.1,2.1,35,2.1,35.3
							c0,0.1,0,0.2-0.1,0.3C158.3,257.4,158.2,257.4,158.1,257.4L158.1,257.4z M143.5,220.6l0.3,36.3l13.8-0.2
							c-0.5-3.7-4.5-31.4-2-35.4c2.1-3.4,4.1-3.8,4.9-3.8c0.5,0.1,8.5,2.5,10.5,2.5c0.4-0.2,0.5-0.5,0.6-0.8
							c0.3-1.1,0.8-2.8,4.7-2.4c0.5-0.2,0.7-1,0.8-1.7c0.1-0.7,0.3-1.4,0.8-1.7l0.6-0.2c0.4,0,1.4,0.2,3.4,0.6c5,1.1,14.2,3,21.9,3
							c5.7,0,9.5-1.1,11.2-3.2c-0.5-0.9-1.3-1.5-2.6-1.5c-1.4,0-3,0.7-4.2,1.2c-0.8,0.3-1.4,0.6-1.8,0.6c-0.4,0.1-1-0.2-1.8-0.4
							c-2.4-0.7-6.4-1.3-8.4,0.3c-3.3-2.2-16.7-3.7-16.9-3.7c-0.1,0-0.2-0.2-0.3-0.2c-0.1-0.1-0.1-0.3-0.1-0.4
							c0.1-0.4,0.7-0.7,5.4-0.7c3.3,0,7.7,0.1,12.2,0.3c4.5,0.1,8.9,0.3,12.2,0.3c3.9,0,4.7-0.2,4.9-0.3c0.4-0.4,0.9-1,0.7-1.5
							c-0.3-0.7-2-1.2-4.4-1.2c-2.2,0-4.6,0.4-5.2,0.9c-3.4-1.7-7.2-1.8-9.7-0.4c-1.2-1.8-6.6-1.9-11.4-2c-2.6,0-5.3-0.1-7.3-0.4
							c-1.2-0.7-1.7-1.2-1.7-1.8c0-0.6,0.7-1.1,1.3-1.4c4.5,0.1,8.8,0.4,13.1,0.8c8.5,0.6,17.2,1.2,25.9,0.9
							c0.5-0.9,0.8-1.8,0.4-2.5c-1-2-6.5-1.8-9.5,0.6c-2.4-2.6-5-2.2-8.2-1.3c-1.4,0.4-2.8,0.8-4.1,0.8c-2.5-0.2-3.1-1.4-3-2.3
							c0.1-1.7,2.1-3.3,5.3-2.9c4.8,0.7,13.6-0.3,15.2-2.4c0.3-0.4,0.6-1,0.3-1.5c-0.7-1.4-4.3-1.6-9.1-0.4
							c-2.7-2.1-7.2-0.7-10.3,0.4l-1.4,0.5c-1.4-0.7-3.1-1-5.4-1c-4.2,0-8.9,1.1-10.3,1.4c-0.1,0-0.4-0.2-0.5-0.3
							c-0.1-0.1-0.3-0.4-0.3-0.5c0.4-1.9,12.4-4,16-4.6c6.6-0.1,10.5-1.2,12.8-1.8c4.9-2.5,4.8-3.6,4.8-3.8c-0.3-1.1-6.1-0.8-9.8,2
							c-3.2-1.7-5.3-0.8-7.7,0.3c-0.8,0.4-1.6,0.7-2.3,1c-2.6,0.9-6.9,1.5-8.6,1.5c-0.5,0-0.6,0-0.7-0.1c0.3-1.3,7.1-5.5,8.4-6.3
							c0.3-0.1,10.7-0.8,12.7-1.1c1.4-0.2,5.3-2.2,5.5-2.8c-1.6,0.1-3.9,0.5-7.2,1.3c-2.7,0.2-4.8,0.3-6.5,0.3h-1.7
							c-0.7,0-1.3,0-1.9,0c-4.5-0.5-4.8-0.9-5-1.1c0-0.1,0-0.6,0-0.6c0.9-0.7,5.2-1.2,6-1.2c5.8-0.5,15.3-1.6,16-2.1
							c0-0.7-0.3-1.4-0.8-1.9c-1-1-2.9-1.5-5.7-1.5c-1.3,0-3.4,0.1-6.3,0.7c-0.5-0.7-0.7-1-0.9-1.3c-1.4-1.4-8.5,0.3-10.9,1.1
							c-0.5,0.1-0.8,0.2-0.9,0.2c-0.8-0.4-1.1-0.8-1.2-1.2c0.4-1.5,2.1-2.2,2.3-2.3c1.3-0.3,2.7-0.5,4.1-0.7
							c2.2-0.3,4.6-0.7,5.3-1.3c2.7-0.1,9.5-0.6,10.3-2.4c-0.6-1.3-2.2-2-4.8-2c-5.8,0-14.7,3.7-16.8,4.7c-0.7,0-1.1-0.1-1.3-0.4
							c-1-1.4,3.1-5.3,3.2-5.4c0,0,0.7-0.2,0.8-0.2c12-1.4,17.7-6,20.4-9.7c0-0.7-0.1-1-0.3-1.2c0,0-0.1,0-0.1,0
							c-2.1,0-5.7,3.4-7,4.8c-0.8-2.7-1.9-3-2.8-3c-1.5,0-3.7,1-5.8,2c-2,0.9-4,1.9-5.7,2.1c-3.2,0.4-4.3-0.6-4.4-1.4
							c-0.1-0.8,0.8-1.7,2.7-1.9l1.3-0.1c3.2-0.3,6.1-0.6,7.8-5.1c0.6-1.7,1.7-2.5,3.3-2.5c1,0,2.1,0.4,3.1,0.7
							c0.7,0.2,1.4,0.4,1.9,0.4c0.7-0.6,0.8-1,0.7-1.3c-0.3-0.9-1.5-1.8-2.1-2.1c0.4-1,1.5-2.4,1.1-3.3c-0.3-0.7-1.4-1-3.3-1l-1.8,0
							c-6.8,0-14.8-0.9-14.8-0.9c-0.1,0-0.3-0.1-0.3-0.3c0-0.1,0.1-0.3,0.2-0.3c0.3-0.1,7.1-2.7,13.8-2.7l0.8,0
							c1.1,0,1.9-0.1,2.4-0.4c0.4-0.2,0.6-0.5,0.6-0.8c0-1.3-2.9-3.1-6.8-3.1c-6.6,0-10.1-2.2-10.2-2.3l3.4-1.8l7.9-3l-0.5-1
							l-0.4-1.7c1.1-1.1,2.5-2.6,2.2-3.3c-0.2-0.6-1.7-0.9-4.6-0.5c-9.3,1.2-10.3,1.3-10.4,1.4c-0.7,0.1-18.3,2.8-18.8,2.8
							c-0.1,0-2.2-0.5-2.7-1.5c0-1,0.8-1.5,2.2-1.9c5.2-1.3,21.9-4.7,24.5-3.7c0.4,0,0.5-0.2,0.4-0.7c-0.5-1.6-3.7-5.3-9.8-5.9
							c-8.8-0.9-14.3,2.2-14.4,2.2c-0.6-0.1-3.2-1.1-3.2-2.5c0-0.8,0.8-1.5,2.5-2c4.6-1.5,14.1,0.6,14.1,0.6
							c2.1-0.7,4.4-1.8,4.4-2.4c0-0.1-0.2-0.6-2.9-1c-5.2-0.8-8.1-0.1-10.5,0.6c-1.2,0.3-2.3,0.6-3.6,0.6c0,0-0.2-0.2-0.3-0.3
							c-0.1-0.1-0.1-0.4-0.1-0.5c0.4-0.9,3-1.3,7.2-2c2.5-0.4,6-0.9,6.3-1.4c-0.7-0.7-4.8-0.7-9-0.1c-2.1,0.3-4.2,0.6-5.9,0.6
							c-1.3-0.5-2-1.2-2-2c0-0.5,0.4-1.3,2-1.9c1.5-0.1,2.8-0.1,4.2-0.1l6.8,0c1.4,0,2.8,0,4.2-0.1c-0.4-1.1-0.4-2.6-0.4-4.2
							c0-1.5,0-2.9-0.1-4.3c-1.2,0-2.7-0.1-4.2-0.1c-2.8,0-5.6,0.3-8,0.6c-1.9,0.2-3.5,0.4-4.8,0.4c-0.1,0-0.4-0.1-0.5-0.1
							c-0.1-0.1-0.3-0.2-0.3-0.3c0.7-2.1,6.3-3.1,12.6-4c2-0.3,3.8-0.6,4.2-0.8c0.2-0.3,0.3-0.6,0.2-0.7c-0.1-0.1-0.4-0.5-2.2-0.5
							c-2.3,0-6.1,0.6-11.3,1.7c-2.5-0.2-3-1.1-3.1-1.6c-0.2-0.8,0.4-1.7,1.5-2.4c1.4-0.2,3.1-0.2,4.9-0.2c3.3,0,7.4,0,8.2-1.1
							c0.1-0.2,0.2-0.4,0.1-0.6c-0.2-0.9-1.2-1.4-3-1.4c-2,0-4.6,0.6-5.9,0.9c-2,0.5-6.4,0.2-6.4,0.2c-0.1,0-0.2-0.3-0.3-0.4
							c-0.1-0.1-0.1-0.4-0.1-0.5c0.4-0.9,3.3-1.2,8-1.5c2.5-0.2,6.4-0.4,6.7-0.9c0-0.1-0.4-0.7-3.8-0.7c-2.1,0-4.7,0.2-6.8,0.4
							c-1.1,0.1-2.1,0.2-2.8,0.2l0,0c-0.1,0-0.4-0.3-0.4-0.4c-0.1-0.1-0.2-0.4-0.2-0.5c0.3-1.2,4.5-1.9,11.8-2.8
							c1.1-0.1,1.8-0.2,2-0.3c-0.1-0.3-0.2-0.7-0.5-1c-1.1-1.2-5.5-0.1-8.7,0.9c-2.5,0.8-3.7,1-4.3,0.5c-1-1.1-0.4-3-0.3-3.3
							c2-1,4-2,4.2-2.3l0,0c-0.4,0-3-0.9-3.3-0.9c-0.5-0.7-0.4-2.9-0.3-3.8c1.4-1.2,3.2-2.8,3.3-3.3c0,0,0,0,0,0
							c-1.4,0-3.7,0.8-3.8,0.8l-0.4-3.3c1-0.4,3-0.8,3.2-1.7c-0.5-0.8-2.2-1.1-3.1-1.1l-1.5-12.6l-1,11.3l-4.8,1
							c1,0.2,3.4,1.8,3.9,3.5c0.2,0.5,0,0.9-0.1,1.1c-0.7,0.6-1.6,0.8-2.9,0.8c-0.5,0-1,0-1.3-0.1c1.1,0.4,4,3,4.3,4.1
							c0,0.1-0.2,0.6-0.2,0.7c-0.9,0.9-4.5,1.1-5.3,1.2c1,0.1,5,3.1,5.3,5c0.2,1.2,0.2,2.2,0,3.1c-0.8,0-6.6-5-11.4-5
							c-0.7,0-1.3,0.1-1.9,0.3c-0.2,0.4,1.2,1,2.4,1.4c2.6,1,6.5,2.4,9.6,5.1c0.1,0.1-0.1,0.3-0.2,0.5c0,0.1-0.4,0.3-0.6,0.3
							c-0.8,0-2.3-0.3-4.2-0.7c-2.4-0.5-5.5-1.1-7.5-1.1c-0.9,0-2,0.1-2.1,0.7c0.2,0,2.8,0.6,5.1,1.1c5.8,1.3,10.2,2.3,10.9,3.5
							l-1.5,0.5c-1.6,0-3.5-0.1-5.5-0.2c-1.9-0.1-3.8-0.2-5.4-0.2c-2.8,0-3.5,0.3-3.7,0.5c0.2,1,3.5,1.1,6.1,1.3
							c3.2,0.2,6.8,0.3,9,1.1c1,1.1,1.3,2,1,2.6c-0.3,0.7-1,1-2.3,1.1c-5-2.3-14.9-3.4-14.9-1.4c0.3,0,1.7,0.1,3.2,0.2
							c3.5,0.3,8.8,0.7,11.4,2.4c-0.9,0.8-1.9,0.8-3.2,0.8c-2.9,0-6.9-0.4-10.3-0.8c-3-0.3-5.8-0.6-7.6-0.6c-1.4,0-1.6,0.2-1.7,0.2
							c0.1,0,2.7,3.9,7.5,3.9l0.8,0c5,0,15.6,2,16.5,3.6c-0.1,0.8-0.6,0.8-0.9,0.8c-0.8,0-2.3-0.2-4.1-0.5
							c-4.8-0.8-12.3-1.6-15.2-0.3c-0.7,0.3-0.8,0.5-0.8,0.5c0.3,0.4,4.1,0.6,7.1,0.8c5.5,0.4,11.8,0.8,13.7,2.5
							c0.7,0.6,0.9,1.1,0.8,1.5c-0.2,0.5-0.9,0.5-1.1,0.5c-2,0-7-1.7-7.2-1.7c0,0-9.6-1.3-14.5-1.3c-1.6,0-2.3,0.1-2.5,0.3
							c-2.2,1-4.7,3.4-4.7,3.4c0.4,0.3,1.4,1.9,2.4,1.9L121,97c0,0,0.5,0.4,0.5,0.4c0,0.5-0.8,1.6-1.1,2c0.8-0.4,21,4.6,25.6,9.2
							c0.3,0.3,0.7,0.7,0.5,1.2c-0.2,0.4-0.7,0.4-1.1,0.4c-4.4,0-25.6-7.8-26.5-8.1c-2.4,1-5.1,2.4-4.9,3.2c0,0.2,0.6,1,5.8,1.1
							c-0.1,1.1-0.3,1.6-0.2,2.2c0.2,0.8,0.9,1.4,1.1,1.5c0.8,0.1,22.3,4.7,24.6,8.4c0.3,0.4,0.3,0.8,0.2,1.1
							c-0.2,0.3-0.5,0.4-1.2,0.4c-3.5,0-15.4-4.9-18.5-6.4c-0.8-0.4-1.9-0.6-3.5-0.6c-4.6,0-10.5,1.8-11,2.4c0.2,0,1.1,0.4,2,0.7
							c1.7,0.7,3.5,1.3,3.6,2.3c-0.4,1.1-1.6,1.4-3.6,2c-1,0.3-2.8,0.7-2.9,1.1c0.3,0.3,4,1.3,8,2.5c9,2.6,22.5,6.5,27.5,10.6
							c1.3,1.1,1.4,1.5,1.3,1.8c0,0.1-0.6,0.4-0.7,0.4c-2.9,0-18.1-6.9-22-8.8c0.2,0.5,0.4,1.1,0.2,1.6c-0.1,0.3-0.3,0.7-0.9,0.9
							c-0.9,0-1.6-0.5-2.6-1.2c-1.9-1.4-4.7-3.4-8.4-3.4c-2,0-4,0.6-6,1.8c0.7,2,7.9,3.5,10.8,3.8l0,1c-0.7,1.8-1,2.4,2.1,4.3
							c0.5,0.3,0.7,0.4,0.8,0.5c0,0.2,0,0.6-0.2,0.6c-0.4,0-1.5-0.6-3.9-1.7c-1.6-0.8-3.6-1.8-3.9-1.8c0.4,0.1,1.1,3.5,1.1,3.5
							c-4.5-2.3-7.9-2.8-11.2-0.4c0.1,0,0.2,2.3,3.7,3.8c-0.3,1.4-0.4,2.1-0.2,2.5c0.3,0.7,1.5,1.1,3.2,1.7c1.7,0.6,4,1.3,6.6,2.8
							c0.1,0.1,0.2,0.3,0.1,0.4c-0.1,0.1-0.2,0.2-0.4,0.2c-5-1.3-8.5-0.6-8.6,0.4c0,0.7,1.4,2,4.8,2.6c1.5,0.2,3.6,0.5,6,0.7
							c9.5,1,23.8,2.5,27.9,7.8c1.2,1.5,1.5,2.3,1.1,2.7c-1.4,0.1-3.6-1.1-6.6-3c-1.4-0.9-2.9-1.8-3.3-1.9c0.1,0.3-0.1,2-0.2,3
							c-3.6-1.5-6.5-3.2-10.4-4c0.2,0.1,0.2,0.4,0.1,0.8c-0.1,0.4-0.1,0.8-0.3,1.1c-3.7-2.2-6.7-4.1-11.9-4.3l0,1l-0.3,1.2
							c-0.6,0-2.4-2.1-5.9-2.1c-2.1,0-4.3,0.8-6.7,2.3c-0.4,0.3-0.5,0.5-0.5,0.5c0.2,0.7,4.4,1,7.7,1.2c5.6,0.4,11.9,0.8,13.8,2.9
							c1.5,1.7,2.1,3,1.8,3.9c-0.3,0.9-1.2,1.1-1.3,1.1l-9.2-3.3l0,0c0,0-4.1-0.7-7.8-0.7c-2.7,0-4.6,0.4-5.5,1.1
							c0.4,0.8,8.1,2.5,14.9,4c16.7,3.6,29.6,6.7,30.4,10.4c0.1,0.4,0.1,0.7-0.1,1c-0.8,1-4.3-0.4-9.5-2.7c-3.8-1.6-8-3.4-12.1-4.7
							l-0.8,3.2h0c-0.6,0-4.6-3.9-9-4.6c0.4,0,0.9,2.3,1.3,3.7c-0.6,0.3-7.6-3-13.4-3c-1.6,0-3,0.3-4.1,0.8
							c-0.6,0.3-0.7,0.5-0.7,0.5c0.1,1,6.6,2.1,11.3,2.8c5.7,1,11.2,1.9,12.3,3.2c0.3,0.4,0.5,0.7,0.4,0.9c-0.1,0.1-0.8,0.5-0.9,0.5
							c-0.7,0-1.8-0.3-3.2-0.6c-2.2-0.5-5-1-5.2-0.5c-0.3,0.5-1,0.6-1.5,0.6c-1.3,0-3.5-0.5-5.6-1c-3.1-0.7-6.2-0.9-6.3-0.8
							c0.1,2.3,1.6,3.6,1.6,3.6c2.6,0.2,26.6,2.6,27.6,5.9c0,0.1-0.1,0.8-0.1,0.9c-0.3,0.4-0.9,0.6-2,0.6c-3.8,0-12.1-2.6-13-2.8
							c0.1,0.2-0.9,2-0.1,2.7c0,0.2,0.1,0.7-0.1,0.7c-0.2,0-0.5-0.2-0.9-0.5c-1.6-0.9-6.2-3.3-6.9-2.4c-0.1,0.2-0.2,0.5-0.1,1
							l-2.2-0.4c-2.6-1.1-6.3-2.7-7.9-2.7l-0.5,0.7c1,2.6,20.3,6.8,23.9,7.4c0.2,0,0.3,0.2,0.3,0.3c0,0.2-0.1,0.3-0.3,0.3
							c-2.9,0.2-8.1,1-9.1,2.4c0,0.1-0.1,0.5-0.2,0.6c-0.1,0.1-0.3,0.4-0.4,0.3c-8.9-5.4-11-4.9-11.7-3.8c-0.2,0.3-0.2,0.6-0.1,0.7
							c-0.4,0.5-0.7,0.4-1.1,0.3c-1.4-0.3-4.8-1-6.6-1c-0.8,0-0.9,0.1-0.9,0.2c0,0.1,0.1,0.7,4.6,3.2c8.4,4.5,8.4,5.4,8.4,5.8
							c-0.1,0.1-0.3,0.5-0.4,0.5c0,0.1-0.3,0.1-0.6,0.1c0.1,0.2,1,2.6,0.9,3.1c-0.6,0.3-1.2,0-2.1-0.4c-2.5-1.2-7.8-3.8-9.8-4
							c0,0,0,0,0,0c-2.4,0-7.6,1.5-8.1,3.9c-0.4,1.7,1.8,3.6,6.3,5.6c7.8,3.4,15.9,2.3,22,0.7c3.2-0.8,6.2-1.6,9.1-1.3
							c6.6,0.8,9.9,1.8,11,3.3c0.4,0.6,0.5,1.2,0.3,1.9c-0.3,1-1.3,0.6-3-0.4c-1.6-0.9-3.8-2.3-6.2-2.3c-2.4,0-4.6,1.2-6.8,3.8
							c-6.5-1-11-1.7-11.6-0.4c-0.4,0.7,0.1,1.9,1.4,3.8c-4.7-1.1-8-1.5-10.1-1.5c-3.3,0-5.1,0.9-5.1,1.7c-0.1,0.9,1.9,2.8,9.9,4.1
							c0.9,0,1.8,0,2.6,0c16,0,25.9-4.3,26-4.4c0.4,0.2,2,3,4.4,3c0.9,0,1.9-0.4,2.9-1.3c1.1-1,2.1-1.5,2.9-1.5
							c1.7,0,2.1,2.1,2.2,2.9c0,0,3.8-1.7,3.8-1.7L143.5,220.6L143.5,220.6z M120.8,207.9c-1.1,0-4.7-1.2-6-3.5
							c0.5-0.5,0.8-0.6,1.1-0.6c0,0,0.3,0,0.3,0c0.9,0,2.5,0.2,4.6,1.3c0.3,0.4,0.2,2.8,0.2,2.8C121,207.9,120.9,207.9,120.8,207.9
							L120.8,207.9z M116.2,204.1l-0.3,0.3c-0.3,0-0.5,0.1-0.8,0.1c1.3,1.6,4.7,2.7,5.5,2.9c-0.2-0.4-0.1-2-0.1-2.1
							c-1.6-0.6-3.1-1-4.3-1V204.1L116.2,204.1z M144.1,207.6c-2.3,0-6.8-1.2-7.1-3.6c0.8-1,1.9-1.4,3.3-1.5l0.4,0
							c2.3,0,4.6,0.8,4.7,0.9c0.4,0.6,1.5,3,0.3,3.9C145.2,207.5,144.7,207.6,144.1,207.6L144.1,207.6z M140.7,202.9l-0.4,0.3
							c-1.2,0.1-2.2,0.4-2.8,1c0.4,1.9,6.6,3.1,7.6,2.6c0.8-0.6,0.2-2.2-0.2-2.9c-0.1,0-2.2-0.7-4.3-0.7V202.9L140.7,202.9z
							 M159.9,207.3c-2.3,0-5.1-0.5-5.2-0.6l-0.3-2.1c0.8-0.5,1.6-0.6,2.7-0.6h0.1c2.1,0,5.4,0.5,6,1.5c0.1,0.1,0,0.8-0.1,0.9
							C162.6,207.1,161.6,207.3,159.9,207.3L159.9,207.3z M155.4,206.4c0.7,0,2.8,0.3,4.6,0.3c1.8,0,2.4-0.4,2.6-0.6
							c-0.2-0.7-2.7-1.4-5.3-1.4v-0.3l-0.1,0.3c-0.9,0-1.7,0.1-2.2,0.3l0.2,1.4C155.1,206.4,155.2,206.4,155.4,206.4L155.4,206.4z
							 M157.4,200.3c-1.5,0-2.7-0.3-2.8-0.3l-0.5-2.3c0-0.1,0-0.2,0.1-0.3c0.1-0.1,0.2-0.1,0.2-0.1l0,0.3l0.2-0.3
							c1.1,0,2.7-0.4,4.2-0.7c1.3-0.3,2.5-0.6,3.3-0.6c0.4,0,1.1,0,1.3,0.5c0.2,0.5-0.1,1.1-0.4,1.5
							C161.8,199.9,159.3,200.3,157.4,200.3L157.4,200.3z M155.3,199.5c0.4,0,1.2,0.1,2.2,0.1l0,0c1.7,0,4-0.4,5.1-2
							c0.5-0.6,0.4-0.8,0.4-0.8l-0.6-0.4l-0.2,0.3c-0.8,0-2,0.3-3.2,0.6c-1.5,0.3-3,0.7-4.2,0.7l0.2,1.5
							C155.1,199.5,155.1,199.5,155.3,199.5L155.3,199.5z M144.8,200c-1.4,0-6.9-0.3-8.4-1.2c-1.1-0.1-4.7-1.8-5-2.9
							c0.6-0.8,1.2-1,1.7-1l0.1,0c1.2,0,2.2,0.6,3.2,1.2l0.6,0.4c0.4-0.2,1.2-0.2,2-0.2c2.8,0,6.3,0.6,6.4,0.6l0.3,2.8
							C145.6,199.7,144.9,200,144.8,200L144.8,200z M133.2,195.1l-0.1,0.3c-0.4,0-0.8,0.1-1.2,0.4c0.4,0.6,3.6,2.3,4.7,2.3
							c1.3,0.8,6.3,1.1,8.2,1.1l0.1-2.2c-0.2,0.2-3.4-0.4-6-0.4c-0.8,0-1.5,0.1-2.1,0.2l-0.9-0.4c-0.9-0.6-1.9-1.1-2.8-1.1V195.1
							L133.2,195.1z M156.6,192.6c-1,0-1.8-0.1-1.8-0.1l-0.3-1.7c0-0.3,0.1-0.3,1.2-0.5c0.9-0.2,2.3-0.5,3.4-0.5
							c0.7,0,1,0.1,1.3,0.2c0.4,0.6,0.3,0.8,0.2,1.1C159.8,192.4,158,192.6,156.6,192.6L156.6,192.6z M155.1,191.2v0.9
							c0.2-0.1,0.8,0,1.4,0c1,0,2.8-0.1,3.4-1.1c0-0.3-0.2-0.4-0.7-0.4c-1.2,0-2.6,0.4-3.5,0.5C155.5,191.1,155.3,191.1,155.1,191.2
							L155.1,191.2z M144.2,187.7c-2.9,0-8.7-2.9-9.3-4.3c0-0.1,0-0.6,0.1-0.7c0.2-0.2,0.5-0.3,1-0.3c0,0,0,0,0,0h0.1
							c6.8,0.7,9.2,3.4,9.8,4.2C145.6,187.5,145,187.7,144.2,187.7L144.2,187.7z M136,182.8l0,0.3c-0.4,0-0.6,0.1-0.6,0.1
							c0.1,0.7,5.8,3.9,8.7,3.9c0.4,0,0.9-0.1,1.1-0.4c-0.5-0.4-2.7-2.9-9.2-3.6L136,182.8L136,182.8z M171.2,184.9
							c-0.9,0-1.6-0.1-1.8-0.1c-0.1,0-0.3-0.1-0.3-0.3c0-0.1,0-0.3,0.2-0.3c1.1-0.6,2.5-1.3,3.5-1.3c0.1,0,0.8,0.2,0.9,0.2
							c0,0.1,0.4,0.8,0.4,0.8C173.6,184.6,172.7,184.9,171.2,184.9L171.2,184.9z M170.6,184.3c0.2,0,0.4,0,0.6,0
							c1.7,0,2.1-0.4,2.2-0.5l0-0.4l-0.6,0.2v-0.3l-0.1,0.3C172.1,183.5,171.2,183.9,170.6,184.3
							C170.5,184.3,170.5,184.3,170.6,184.3L170.6,184.3z M154.7,182.2c-0.1,0-0.2,0-0.2,0c-0.1-0.1-0.3-0.1-0.3-0.2
							c0-0.3,0.2-1.8,0.2-1.8c5.3-3.4,14.6-6.2,19.6-6.2h0.1c1.3,0,2.3,0.2,2.8,0.6c0.1,0.8-0.8,2.8-3.8,3.6l0,0
							c-2.9,0-9.2,1.4-18.2,4C154.9,182.2,154.8,182.2,154.7,182.2L154.7,182.2z M154.9,180.4c0.1,0.1-0.1,1.3-0.1,1.5
							c9.2-3,15.5-4.4,17.9-4.4c2.9-0.7,3.7-2.3,3.7-2.7c-0.3-0.1-1.2-0.3-2.3-0.3v-0.3l-0.1,0.3
							C169.2,174.5,159.9,177.4,154.9,180.4L154.9,180.4z M154.9,176.9c-0.4-0.3-0.2-1.8-0.2-2.1c0.4-0.3,1.1-0.5,2.2-0.7
							c3.2-0.8,9.2-2.4,11.1-2.4c0,0,0.8,0.2,0.9,0.4c0,0.1-0.4,0.7-0.4,0.8C165.6,174.8,155.3,176.8,154.9,176.9L154.9,176.9z
							 M168,172.3c-1.9,0.1-8,1.6-11,2.4c-1.7,0.4-1.9,0.5-2,0.5c0.2,0.1,0.2,1.2,0.1,1.4C155.4,176.1,165.2,174.1,168,172.3
							L168,172.3z M154.6,171.7l-0.3-2.1c0.9-0.3,1.8-0.4,2.9-0.5c1.3-0.1,2.7-0.3,3.8-0.3c0,0,0.6,0,0.6,0c1.3,0,1.6,0.2,1.8,0.4
							c0,0.1,0.1,0.6,0.1,0.6C161.8,171.4,155.3,171.6,154.6,171.7L154.6,171.7z M161.5,169l-0.6,0.3c-1.1,0-2.5,0.2-3.7,0.3
							c-1.1,0.1-2,0.2-2.6,0.2l0.3,1.5c1.6-0.4,6.8-0.8,8-1.9l0,0c-0.1,0-0.3-0.1-1.3-0.1V169L161.5,169z M155,167.2
							c-0.4-1.2-0.5-3.9-0.5-4.3c8.9-2.9,14.7-4.3,17.4-4.3c0,0,0.3,0,0.3,0c0.9,0,1.5,0.2,1.7,0.6c0.1,0.8-0.2,1.1-0.7,1.6
							C172.2,161.7,156.8,166.6,155,167.2L155,167.2z M172.2,158.9l-0.3,0.3c-2.7,0.1-8.4,1.5-17,4.1c0.2,0.1,0.3,3.6,0.3,3.6
							c6.4-2.4,16.8-5.9,17.5-6.6c0.5-0.5,0.5-0.7,0.6-0.8c0,0-0.2-0.3-1.2-0.3V158.9L172.2,158.9z M154.4,160.7l-0.3-3.2
							c0-0.2,0.1-0.3,0.3-0.3l0.8-0.1c1.8-0.3,5.8-1.1,8.1-1.2c1.3-0.1,1.7,0.1,1.9,0.5c0.2,0.4-0.2,0.8-0.6,1.2
							C161.4,160.2,154.7,160.7,154.4,160.7L154.4,160.7z M154.7,157.8v2.5c0.3-0.3,6.5-0.9,9.4-3.3c0.4-0.4,0.2-0.5-0.7-0.5
							c-2.5,0.1-6.6,0.8-8.3,1.2L154.7,157.8L154.7,157.8z M146.6,154.1c0,0-0.1,0-0.1,0c0,0-21.9-7.1-22.5-7.3c0-0.1-0.1-0.8,0-0.9
							c0.3-0.3,0.8-0.5,1.6-0.6c0,0,0,0,0,0c3.7,0,10.7,1.9,20.7,5.5l0.6,2.8c0,0.1,0,0.2-0.1,0.3
							C146.7,154,146.6,154.1,146.6,154.1L146.6,154.1z M125.9,146c-1.2,0-1.4,0.2-1.5,0.4c0.3,0.1,18.4,5.9,21.7,6.9l-0.4-2
							C133.5,146.9,128.2,146,125.9,146L125.9,146z M154.6,153.8c-0.3-0.3-0.5-2-0.6-2.5c0-0.1,0-0.2,0.1-0.3
							c0.1-0.1,0.2-0.1,0.3-0.1l0,0.3l0.5-0.3c1.9,0.1,3.8,0.3,4.3,0.8c0,0,0.2,0.6,0.2,0.6C158.7,153.4,155.3,153.8,154.6,153.8
							L154.6,153.8z M154.7,151.5c0.1,0.7,0.2,1.9,0.2,1.9c1.2-0.4,3.5-0.8,3.8-1.3C158.4,152,157.1,151.8,154.7,151.5L154.7,151.5
							L154.7,151.5z M154.4,148.6c-0.4-0.3-0.6-2.5-0.6-2.5c0.4-0.3,0.8-0.4,1.5-0.5c1.9-0.3,5.8-0.8,7.8-0.9c0,0,0.4,0,0.4,0
							c0.9,0,1.2,0.1,1.3,0.3l-0.3,0.4l0.2,0.3C163.4,146.7,155.3,148.4,154.4,148.6L154.4,148.6z M154.2,146.4
							c0.3,0.1,0.5,1.8,0.5,1.8c2.9-0.9,7.8-2.1,9.2-2.9c-0.1,0-0.3,0-0.4,0v-0.3l-0.3,0.3c-2,0.1-5.8,0.6-7.8,0.9
							C154.8,146.4,154.4,146.4,154.2,146.4L154.2,146.4z M146.7,144.5c-1.2-0.1-14.9-5.7-16.4-5.7v-0.3l0,0.3
							c-0.7-0.7-0.7-1.2-0.4-1.5c0.2-0.4,0.6-0.5,1.3-0.6l0,0c3.5,0,11.4,3.4,14.3,4.6c0.6,0.3,1,0.4,1.1,0.5c0.2,0.5,0.2,1,0.2,1.5
							C146.8,143.8,146.7,144.4,146.7,144.5L146.7,144.5z M130.4,138.2c1.9,0.1,13.7,5,15.8,5.9c-0.1-0.2-0.1-0.4-0.1-0.7
							c0-0.6,0-0.9,0-1.2c-0.1,0.1-0.5-0.1-1-0.3c-2.9-1.3-10.7-4.6-13.8-4.6c-0.6,0-0.9,0.1-1,0.3
							C130.3,137.8,130.3,138,130.4,138.2L130.4,138.2z M153.8,142l-0.4-2.5c0.6-0.4,7.4-1.4,10.5-1.5c0,0,0.5,0,0.5,0
							c0.8,0,1,0.1,1.2,0.1c0,0.1,0.2,0.6,0.1,0.6C164.5,139.9,154.9,141.8,153.8,142L153.8,142z M164.4,138.4l-0.5,0.3
							c-3.1,0.1-9.8,1.1-10.1,1.2l0.3,1.8c3.3-1,8.8-2.3,10.6-3c-0.1,0-0.2,0-0.3,0V138.4L164.4,138.4z M153.7,136.3l0-0.3l-0.1,0.3
							c0,0-0.1-0.1-0.2-0.1c-0.2-0.6-0.1-1.4,0-2.2c0.1-0.1,0.5-0.5,0.6-0.4c0.1-0.1,1.4-0.3,3-0.7c3.2-0.6,8.1-1.6,10.3-1.7
							c0.9,0.1,1.3,0.1,1.4,0.3c0,0.1-0.1,0.7-0.2,0.7C166.5,134.2,153.8,136.3,153.7,136.3L153.7,136.3z M167.7,131.6l-0.3,0.3
							c-2.2,0.1-7,1-10.2,1.7c-1.8,0.3-3.1,0.6-3.3,0.6c0.1,0.7,0,1.2,0,1.5c1.3-0.2,12.5-2.2,14.2-3.8L167.7,131.6L167.7,131.6z
							 M147.3,131.5c-1.2,0-22.5-7.5-22.5-7.5c-0.2-0.3-0.4-0.8,0-1.3c0.4-0.5,1-0.7,2-0.8c0,0,0.4,0,0.4,0c3.4,0,10.1,2.3,19.9,7
							C147.3,131,147.3,131.4,147.3,131.5L147.3,131.5L147.3,131.5z M127.2,122.2l-0.3,0.3c-0.7,0-1.2,0.2-1.5,0.5
							c-0.3,0.3,19.6,7.3,21.6,8c-0.3-0.2-0.3-1.2-0.3-1.6c-11.9-5.7-17.2-6.9-19.5-6.9V122.2L127.2,122.2z M153.7,126.1l-0.4-2.5
							c0-0.2,0.1-0.3,0.3-0.3c0.1,0,0.7-0.1,1.5-0.3c2-0.5,5.5-1.3,7.2-1.4c0.7,0,1.1,0.1,1.2,0.2c0,0.1-0.1,0.8-0.1,0.8
							C161.9,124.4,154,126.1,153.7,126.1L153.7,126.1z M153.9,123.9v1.9c1.8-0.8,7.9-2.3,9-3.6c-2.3,0.1-5.7,0.9-7.7,1.4
							C154.7,123.7,154.2,123.8,153.9,123.9L153.9,123.9z M146.4,126C146.3,126,146.3,126,146.4,126c-3.9-1.2-16.5-5-17-5.9
							c-0.2-0.3-0.5-0.9-0.2-1.4c0.2-0.4,0.7-0.7,1.5-0.7h0c2.8,0,8,1.7,15.9,5l0.3,2.7c0,0.1,0,0.2-0.1,0.3
							C146.5,126,146.4,126,146.4,126L146.4,126z M130.8,118.7c-0.7,0-1.1,0.2-1.2,0.4c-0.1,0.2,0,0.5,0.2,0.8
							c0.6,0.6,10.1,3.6,16.2,5.5l0-1.9C136.5,119.5,132.5,118.7,130.8,118.7L130.8,118.7z M152.5,112.5l-0.6-3.6
							c0.3-0.4,5.9-1.1,9.8-1.2l0.6,0c2.3,0,2.8,0.3,2.9,0.7c0.1,0.1-0.1,0.6-0.2,0.7C163.5,110.9,153.6,112.3,152.5,112.5
							L152.5,112.5z M162.3,108.3l-0.6,0c-3.8,0.1-9.4,0.8-9.4,0.8l0.5,3c2.6-0.7,10.6-2.1,11.8-3.5
							C164.6,108.6,164.3,108.3,162.3,108.3L162.3,108.3z M147.3,106.6c-1.1,0-9.2-2.5-9.6-3.8c0.4-0.7,0.8-0.8,1.3-0.8
							c0,0,0.2,0,0.2,0c1.6,0,4.4,0.5,6.2,0.9c0.9,0.2,1.5,0.3,1.6,0.3c0.1,0,0.2,0.3,0.3,0.3c0.1,0.1,0.1,0.4,0.1,0.5
							C147.6,105.4,147.6,106.2,147.3,106.6C147.3,106.6,147.3,106.6,147.3,106.6L147.3,106.6z M139.2,102.3l-0.2,0.3
							c-0.4,0-0.6,0.1-0.7,0.1c0.4,0.7,7.5,3.1,8.7,3.4c-0.1-0.2-0.2-1.6-0.2-2.1c0.1-0.2-0.6-0.4-1.5-0.5c-1.8-0.4-4.6-0.9-6.1-0.9
							V102.3L139.2,102.3z M146.3,101.4c-1.3,0-14.9-3.8-16.2-3.8v-0.3l0,0.3c0,0-0.6-0.1-0.6-0.2c0-0.1-0.3-0.5-0.2-0.6
							c0.5-0.7,1.2-0.9,2.2-0.9c0,0,0,0,0.1,0c3.5,0,8.3,0.9,14.5,2.6c0.1,0,0.3,0.6,0.3,0.7C146.4,100.4,146.4,101.2,146.3,101.4
							C146.3,101.4,146.3,101.4,146.3,101.4L146.3,101.4z M132.1,96.5c-1.8,0.1-2.1,0.4-2.2,0.4l0.2,0c1.6,0,14.8,3.8,15.9,4.2
							c-0.3-0.2-0.4-1.4-0.4-1.8C138,96.9,134,96.5,132.1,96.5L132.1,96.5z M151.8,92.8c-0.4-0.5-0.5-1.5-0.6-2.1
							c0-0.1,0-0.2,0.1-0.2c0.1-0.1,0.1-0.1,0.2-0.1h0c0.2,0,0.5,0.1,0.9,0.1c1.7,0.2,2.6,0.3,2.9,0.7c0,0.2-0.1,0.7-0.3,0.7
							C154.6,92.7,151.9,92.8,151.8,92.8L151.8,92.8z M151.9,91.1c0.1,0.6,0.1,1.1,0.2,1.2c0.1-0.2,2.3-0.4,2.7-0.9
							c-0.2-0.1-1.8-0.2-2.4-0.3C152.2,91.1,152.1,91.1,151.9,91.1L151.9,91.1z M152.1,89.8l-0.5-3.2c0-0.1,0-0.2,0.1-0.2
							c0.1-0.1,0.1-0.1,0.2-0.1c0.3,0,6.9,0,7.6,1.1C159,89,153.7,89.6,152.1,89.8L152.1,89.8z M152.3,86.9l0.1,2.5
							c2.8-0.6,6.3-1.3,6.5-1.8C158.6,87.2,154.6,87,152.3,86.9L152.3,86.9z M146.1,86.1c-1.2,0-2.7-0.2-3.2-0.6
							c0-0.1-0.2-0.7-0.1-0.7c1.1-0.8,2.6-1,3.5-1.1c0.3,0,0.5-0.1,0.6-0.1l0.1,0.3l-0.1-0.2l0.1,0.4c0.1,0,0.1,0.1,0.1,0.1
							c0,0,0,0-0.1,0l0.4,1.7C147.2,86,146.7,86.1,146.1,86.1L146.1,86.1z M146.9,84.3c-0.1,0-0.3,0-0.5,0c-0.8,0.1-2.2,0.2-3,0.8
							c0.3,0.2,2.4,0.5,3.7,0.6L146.9,84.3L146.9,84.3z"/>
					</g>
					<rect x="-108.6" y="-0.8" class="st41" width="157.4" height="301.7"/>
					<rect x="251.2" y="-0.8" class="st41" width="157.4" height="301.7"/>
				</g>
			</g>
		</g>
	</g>
</g>
</svg>
