<?xml version="1.0" encoding="utf-8"?>
<!-- Generator: Adobe Illustrator 22.1.0, SVG Export Plug-In . SVG Version: 6.00 Build 0)  -->
<svg version="1.1" xmlns="http://www.w3.org/2000/svg" xmlns:xlink="http://www.w3.org/1999/xlink" x="0px" y="0px"
	 viewBox="0 0 300 300" style="enable-background:new 0 0 300 300;" xml:space="preserve">
<style type="text/css">
	.st0{clip-path:url(#SVGID_2_);}
	.st1{clip-path:url(#SVGID_2_);fill:#1A237B;}
	.st2{clip-path:url(#SVGID_4_);fill:#FFFFFF;}
	.st3{clip-path:url(#SVGID_4_);}
	.st4{clip-path:url(#SVGID_4_);fill:#1A237B;}
	.st5{clip-path:url(#SVGID_4_);fill:#BD0034;}
	.st6{clip-path:url(#SVGID_8_);fill:#F0E030;}
	.st7{clip-path:url(#SVGID_8_);}
	.st8{clip-path:url(#SVGID_8_);fill:#437428;}
	.st9{clip-path:url(#SVGID_8_);fill:#406E3D;}
	.st10{clip-path:url(#SVGID_8_);fill:#376BC3;}
	.st11{clip-path:url(#SVGID_8_);fill:#FFFFFF;}
	.st12{clip-path:url(#SVGID_8_);fill:#E3E3E3;}
	.st13{clip-path:url(#SVGID_8_);fill:#91857C;}
	.st14{clip-path:url(#SVGID_8_);fill:#BD0034;}
</style>
<g id="Layer_2">
</g>
<g id="Layer_1">
	<g>
		<defs>
			<rect id="SVGID_1_" y="-0.1" width="300" height="300"/>
		</defs>
		<clipPath id="SVGID_2_">
			<use xlink:href="#SVGID_1_"  style="overflow:visible;"/>
		</clipPath>
		<g id="Layer_2_1_" class="st0">
		</g>
		<rect x="-1" y="-0.7" class="st1" width="302" height="301.4"/>
		<g class="st0">
			<g>
				<defs>
					<rect id="SVGID_3_" width="324.7" height="189.4"/>
				</defs>
				<clipPath id="SVGID_4_">
					<use xlink:href="#SVGID_3_"  style="overflow:visible;"/>
				</clipPath>
				<path class="st2" d="M189.4,104.8L189.4,104.8L189.4,104.8z"/>
				<g class="st3">
					<defs>
						<rect id="SVGID_5_" width="324.7" height="189.4"/>
					</defs>
					<clipPath id="SVGID_6_">
						<use xlink:href="#SVGID_5_"  style="overflow:visible;"/>
					</clipPath>
				</g>
				<polygon class="st4" points="162.3,0 162.3,6.1 162.3,8.1 162.3,9.1 126.4,27.1 162.3,27.1 162.3,32.5 162.3,40.6 162.3,48.7 
					162.3,54.1 126.4,54.1 162.3,72.1 162.3,75.1 162.3,81.2 162.3,83.2 154.3,83.2 150.2,83.2 148.2,83.2 94.7,56.4 94.7,83.2 
					89.3,83.2 81.2,83.2 73.1,83.2 67.6,83.2 67.6,56.4 14.1,83.2 8,83.2 0,83.2 0,189.4 324.7,189.4 324.7,0 				"/>
				<polygon class="st4" points="0,54.1 0,72.1 36,54.1 				"/>
				<polygon class="st4" points="0,27.1 36,27.1 0,9.1 				"/>
				<polygon class="st4" points="67.6,0 18.2,0 67.6,24.7 				"/>
				<polygon class="st4" points="94.7,0 94.7,24.7 144.2,0 				"/>
				<polygon class="st2" points="36,54.1 0,72.1 0,73.1 37.9,54.1 				"/>
				<polygon class="st2" points="120.3,54.1 162.3,75.1 162.3,72.1 126.4,54.1 				"/>
				<polygon class="st2" points="0,9.1 36,27.1 42,27.1 0,6.1 				"/>
				<polygon class="st2" points="67.6,54.1 66.2,54.1 8,83.2 14.1,83.2 67.6,56.4 				"/>
				<polygon class="st2" points="67.6,24.7 18.2,0 16.2,0 67.6,25.7 				"/>
				<polygon class="st2" points="124.5,27.1 126.4,27.1 162.3,9.1 162.3,8.1 				"/>
				<polygon class="st2" points="94.7,55.5 94.7,56.4 148.2,83.2 150.2,83.2 				"/>
				<polygon class="st2" points="94.7,27.1 96.1,27.1 150.2,0 144.2,0 94.7,24.7 				"/>
				<polygon class="st5" points="54.1,54.1 0,81.2 0,83.2 8,83.2 66.2,54.1 				"/>
				<polygon class="st5" points="108.2,54.1 162.3,81.2 162.3,75.1 120.3,54.1 				"/>
				<polygon class="st5" points="0,6.1 42,27.1 54.1,27.1 0,0 				"/>
				<polygon class="st5" points="108.2,27.1 162.3,0 150.2,0 96.1,27.1 				"/>
				<polygon class="st2" points="96.1,54.1 94.7,54.1 94.7,55.5 150.2,83.2 154.3,83.2 				"/>
				<polygon class="st2" points="66.2,27.1 67.6,27.1 67.6,25.7 16.2,0 12.1,0 				"/>
				<polygon class="st2" points="124.5,27.1 162.3,8.1 162.3,6.1 120.3,27.1 				"/>
				<polygon class="st2" points="37.9,54.1 0,73.1 0,75.1 42,54.1 				"/>
				<polygon class="st2" points="0,0 0,0 54.1,27.1 66.2,27.1 12.1,0 				"/>
				<polygon class="st2" points="162.3,6.1 162.3,0 108.2,27.1 120.3,27.1 				"/>
				<polygon class="st2" points="42,54.1 0,75.1 0,81.2 54.1,54.1 				"/>
				<polygon class="st2" points="154.3,83.2 162.3,83.2 162.3,81.2 108.2,54.1 96.1,54.1 				"/>
				<polygon class="st2" points="115.6,32.5 162.3,32.5 162.3,27.1 126.4,27.1 				"/>
				<polygon class="st2" points="73.1,27.5 73.1,0 67.6,0 67.6,24.7 				"/>
				<polygon class="st2" points="73.1,53.7 67.6,56.4 67.6,83.2 73.1,83.2 				"/>
				<polygon class="st2" points="89.3,53.7 89.3,83.2 94.7,83.2 94.7,56.4 				"/>
				<polygon class="st2" points="0,27.1 0,32.5 46.8,32.5 36,27.1 				"/>
				<polygon class="st2" points="0,48.7 0,54.1 36,54.1 46.8,48.7 				"/>
				<polygon class="st2" points="89.3,27.5 94.7,24.7 94.7,0 89.3,0 				"/>
				<polygon class="st2" points="126.4,54.1 162.3,54.1 162.3,48.7 115.6,48.7 				"/>
				<polygon class="st2" points="73.1,27.5 67.6,24.7 67.6,25.7 73.1,28.4 				"/>
				<polygon class="st2" points="96.1,27.1 94.7,27.1 94.7,24.7 89.3,27.5 89.3,30.5 				"/>
				<polygon class="st2" points="120.3,54.1 126.4,54.1 115.6,48.7 109.5,48.7 				"/>
				<polygon class="st2" points="115.6,32.5 126.4,27.1 124.5,27.1 113.6,32.5 				"/>
				<polygon class="st2" points="42,27.1 36,27.1 46.8,32.5 52.8,32.5 				"/>
				<polygon class="st2" points="46.8,48.7 36,54.1 37.9,54.1 48.7,48.7 				"/>
				<polygon class="st2" points="66.2,54.1 67.6,54.1 67.6,56.4 73.1,53.7 73.1,50.7 				"/>
				<polygon class="st2" points="89.3,53.7 94.7,56.4 94.7,55.5 89.3,52.8 				"/>
				<polygon class="st2" points="97.4,48.7 108.2,54.1 120.3,54.1 109.5,48.7 				"/>
				<polygon class="st2" points="64.9,32.5 54.1,27.1 42,27.1 52.8,32.5 				"/>
				<polygon class="st2" points="73.1,48.7 64.9,48.7 54.1,54.1 66.2,54.1 73.1,50.7 				"/>
				<polygon class="st2" points="89.3,32.5 97.4,32.5 108.2,27.1 96.1,27.1 89.3,30.5 				"/>
				<polygon class="st2" points="73.1,28.4 67.6,25.7 67.6,27.1 66.2,27.1 73.1,30.5 				"/>
				<polygon class="st2" points="48.7,48.7 37.9,54.1 42,54.1 52.8,48.7 				"/>
				<polygon class="st2" points="96.1,54.1 89.3,50.7 89.3,52.8 94.7,55.5 94.7,54.1 				"/>
				<polygon class="st2" points="109.5,32.5 113.6,32.5 124.5,27.1 120.3,27.1 				"/>
				<polygon class="st2" points="89.3,48.7 89.3,50.7 96.1,54.1 108.2,54.1 97.4,48.7 				"/>
				<polygon class="st2" points="73.1,32.5 73.1,30.5 66.2,27.1 54.1,27.1 64.9,32.5 				"/>
				<polygon class="st2" points="64.9,48.7 52.8,48.7 42,54.1 54.1,54.1 				"/>
				<polygon class="st2" points="109.5,32.5 120.3,27.1 108.2,27.1 97.4,32.5 				"/>
				<polygon class="st5" points="89.3,27.5 89.3,0 81.2,0 81.2,31.5 				"/>
				<polygon class="st5" points="0,40.6 0,48.7 46.8,48.7 63,40.6 				"/>
				<polygon class="st5" points="115.6,48.7 162.3,48.7 162.3,40.6 99.3,40.6 				"/>
				<polygon class="st5" points="0,32.5 0,40.6 63,40.6 46.8,32.5 				"/>
				<polygon class="st5" points="81.2,49.7 73.1,53.7 73.1,83.2 81.2,83.2 				"/>
				<polygon class="st5" points="81.2,31.5 81.2,0 73.1,0 73.1,27.5 				"/>
				<polygon class="st5" points="81.2,83.2 89.3,83.2 89.3,53.7 81.2,49.7 				"/>
				<polygon class="st5" points="99.3,40.6 162.3,40.6 162.3,32.5 115.6,32.5 				"/>
				<polygon class="st5" points="81.2,48.7 81.2,49.7 89.3,53.7 89.3,52.8 				"/>
				<polygon class="st5" points="81.2,49.7 81.2,48.7 79.1,47.7 73.1,50.7 73.1,53.7 				"/>
				<polygon class="st5" points="69.1,40.6 52.8,32.5 46.8,32.5 63,40.6 64.9,40.6 				"/>
				<polygon class="st5" points="81.2,32.5 81.2,31.5 73.1,27.5 73.1,28.4 				"/>
				<polygon class="st5" points="93.3,40.6 109.5,48.7 115.6,48.7 99.3,40.6 97.4,40.6 				"/>
				<polygon class="st5" points="64.9,40.6 63,40.6 46.8,48.7 48.7,48.7 				"/>
				<polygon class="st5" points="81.2,32.5 83.2,33.5 89.3,30.5 89.3,27.5 81.2,31.5 				"/>
				<polygon class="st5" points="97.4,40.6 99.3,40.6 115.6,32.5 113.6,32.5 				"/>
				<polygon class="st5" points="97.4,48.7 109.5,48.7 93.3,40.6 81.2,40.6 				"/>
				<polygon class="st5" points="97.4,32.5 89.3,32.5 89.3,30.5 83.2,33.5 89.3,36.5 				"/>
				<polygon class="st5" points="64.9,48.7 73.1,48.7 73.1,50.7 79.1,47.7 73.1,44.6 				"/>
				<polygon class="st5" points="64.9,32.5 52.8,32.5 69.1,40.6 81.2,40.6 				"/>
				<polygon class="st5" points="81.2,46.6 79.1,47.7 81.2,48.7 				"/>
				<polygon class="st5" points="81.2,48.7 89.3,52.8 89.3,50.7 81.2,46.6 				"/>
				<polygon class="st5" points="69.1,40.6 64.9,40.6 67,41.6 				"/>
				<polygon class="st5" points="81.2,34.5 81.2,32.5 73.1,28.4 73.1,30.5 				"/>
				<polygon class="st5" points="83.2,33.5 81.2,32.5 81.2,34.5 				"/>
				<polygon class="st5" points="64.9,40.6 48.7,48.7 52.8,48.7 67,41.6 				"/>
				<polygon class="st5" points="93.3,40.6 97.4,40.6 95.3,39.6 				"/>
				<polygon class="st5" points="97.4,40.6 113.6,32.5 109.5,32.5 95.3,39.6 				"/>
				<polygon class="st5" points="95.3,39.6 109.5,32.5 97.4,32.5 89.3,36.5 				"/>
				<polygon class="st5" points="81.2,46.6 81.2,40.6 73.1,44.6 79.1,47.7 				"/>
				<polygon class="st5" points="67,41.6 52.8,48.7 64.9,48.7 73.1,44.6 				"/>
				<polygon class="st5" points="97.4,48.7 81.2,40.6 81.2,46.6 89.3,50.7 89.3,48.7 				"/>
				<polygon class="st5" points="73.1,44.6 81.2,40.6 69.1,40.6 67,41.6 				"/>
				<polygon class="st5" points="89.3,36.5 81.2,40.6 93.3,40.6 95.3,39.6 				"/>
				<polygon class="st5" points="81.2,40.6 89.3,36.5 83.2,33.5 81.2,34.5 				"/>
				<polygon class="st5" points="81.2,34.5 81.2,34.5 73.1,30.5 73.1,32.5 64.9,32.5 81.2,40.6 				"/>
				<g class="st3">
					<defs>
						<rect id="SVGID_7_" width="324.7" height="189.4"/>
					</defs>
					<clipPath id="SVGID_8_">
						<use xlink:href="#SVGID_7_"  style="overflow:visible;"/>
					</clipPath>
					<path class="st6" d="M216.6,96.2c-3.5,2.9-6.8,7.2-7.6,11.1c-2.3,10.9-5.3,13.3-10,11c0,5.9,5.1,6.3,7.4,2.9
						c0,5.5,2,10.2,6.5,14.3c1.9,1.7,2.2,0.5,1.3-1.4c-0.9-1.9-0.9-8-2.7-11.5c2.9,2.1,7.1,0.9,6.8-4.8c-3.7,2.2-7.4,2.1-7.7-3.1
						C210.2,108.7,212.5,100,216.6,96.2"/>
					<path class="st7" d="M214.4,136.4c-0.3,0-0.8-0.3-1.5-0.9c-4.3-3.9-6.4-8.5-6.5-14.1c-0.9,1.2-2.2,2-3.6,2
						c-1.8,0-3.8-1.3-3.8-5.1v-0.1l0.1,0.1c1.1,0.5,2,0.8,2.9,0.8l0,0c3.1,0,5.3-3.6,7-11.7c0.9-4.2,4.5-8.5,7.6-11.1l0.1,0.1
						c-4.1,3.8-6.5,12.6-6,18.5c0.2,2.8,1.4,4.3,3.6,4.3c1.2,0,2.6-0.5,4-1.3l0.1-0.1l0,0.1c0.1,2-0.3,3.6-1.3,4.7
						c-0.7,0.7-1.7,1.2-2.7,1.2c-0.9,0-1.8-0.3-2.6-0.8c1,2.1,1.4,4.9,1.7,7.3c0.3,1.7,0.5,3.2,0.8,4c0.5,1,0.6,1.7,0.4,2.1
						C214.7,136.3,214.5,136.4,214.4,136.4 M206.5,120.9v0.3c0,5.7,2.1,10.3,6.5,14.2c0.7,0.7,1.1,0.8,1.4,0.8c0.1,0,0.2,0,0.3-0.1
						c0.2-0.3,0-1-0.4-1.9c-0.4-0.8-0.6-2.3-0.8-4c-0.4-2.4-0.8-5.4-1.9-7.5l-0.2-0.3l0.3,0.2c0.8,0.6,1.8,0.9,2.8,0.9
						c1,0,1.9-0.4,2.6-1.1c0.9-1,1.3-2.5,1.2-4.4c-1.5,0.8-2.9,1.3-4,1.3c-1.6,0-3.5-0.8-3.7-4.5c-0.4-5.3,1.4-13,4.8-17.3
						c-2.7,2.6-5.5,6.3-6.2,9.8c-1.7,8.2-3.9,11.9-7.1,11.9l0,0c-0.9,0-1.8-0.3-2.8-0.8c0,3.6,2,4.8,3.6,4.8c1.4,0,2.7-0.8,3.6-2.1
						L206.5,120.9z"/>
					<path class="st6" d="M212.3,52.8c0.3-2.2-0.2-4.4-1.8-5.8c-3.1-2.7-6-1.8-8.3,0.4c-3.3-1.8-5.1,4.6-8.9,3.5
						c0.6,2.1,1.6,3,3.5,2.2c-2,1.8,0,4-2.3,6.1c4.2,1.4,6.5-1,6.3-5c1.6,1.4,4.1,1.3,5.5-0.3c-2.3-0.7-2.3-2.7-1.4-4.5
						C206.3,46.8,212.6,46.9,212.3,52.8"/>
					<path class="st7" d="M196.7,59.8c-0.7,0-1.4-0.1-2.2-0.4l-0.1,0l0.1-0.1c1.2-1.1,1.2-2.2,1.3-3.3c0-0.9,0.1-1.8,0.8-2.6
						c-1.6,0.5-2.6-0.3-3.3-2.4l0-0.1l0.1,0c0.3,0.1,0.6,0.1,0.8,0.1l0,0c1.4,0,2.5-1.1,3.6-2.1c1-1,2-1.9,3.2-1.9
						c0.4,0,0.8,0.1,1.2,0.3c1.4-1.3,2.9-2,4.4-2c1.4,0,2.7,0.6,4,1.7c1.4,1.3,2.1,3.4,1.8,5.8l-0.2,0c0.1-1.6-0.3-2.9-1.1-3.8
						c-0.7-0.8-1.8-1.2-2.9-1.2c-1.4,0-2.7,0.7-3.2,1.7c-0.6,1.2-0.7,2.2-0.4,3c0.3,0.6,0.8,1.1,1.7,1.4l0.1,0l-0.1,0.1
						c-0.7,0.8-1.7,1.3-2.9,1.3l0,0c-0.9,0-1.9-0.3-2.6-0.9c0,1.8-0.4,3.3-1.3,4.2C198.9,59.4,197.9,59.8,196.7,59.8 M194.6,59.3
						c2.1,0.6,3.8,0.4,4.8-0.7c0.9-0.9,1.3-2.4,1.2-4.3l0-0.2l0.1,0.1c0.7,0.6,1.7,1,2.6,1c1,0,2-0.4,2.7-1.2
						c-0.8-0.3-1.4-0.8-1.7-1.4c-0.3-0.8-0.2-2,0.4-3.2c0.5-1.1,1.8-1.7,3.3-1.7c1.2,0,2.3,0.5,3,1.3c0.5,0.5,0.8,1.2,1,2
						c-0.2-1.6-0.8-2.9-1.8-3.8c-1.2-1.1-2.5-1.6-3.9-1.6c-1.5,0-3,0.7-4.3,2l0,0l-0.1,0c-0.4-0.2-0.8-0.3-1.1-0.3
						c-1.1,0-2.1,0.9-3.1,1.8c-1.1,1-2.3,2.1-3.7,2.1l0,0c-0.2,0-0.5,0-0.7-0.1c0.5,1.6,1.2,2.3,2.2,2.3c0.3,0,0.7-0.1,1.1-0.2
						l0.4-0.2l-0.3,0.3c-0.9,0.8-1,1.8-1,2.7C195.8,57,195.8,58.2,194.6,59.3"/>
					<path class="st8" d="M222,84.1c-4.8,2.5-13.5,1.4-14.3-4.8c-0.8-6.2,5.2-9,6.8-9.8c2.5-1.3,4.5,1,3.7,3.6
						c2.8-1,3.4-4.2,2.1-6.1c3.7,0.3,7.1-2.5,8.6-6.5c-1.3,1.2-4.8,0.4-7.7,0.2c0.9-1,0.9-2.9,0.6-3.9c-3.1,3.1-7.5,1.7-13.3,10.8
						c0.9-3.2,2.6-9.5,3.6-13.6c0.1-0.4,0.2-0.8,0.2-1.2c0.4-5.9-6-6-7.3-3.3c1.5,1.7,0.7,3.6,0.2,6.6c-0.6,3.5-2,11.6-3.1,14.3
						c-0.4-4.2-3.1-4.5-3.7-6.6c-0.8,0.5-1.3,2-1.1,3c-1-1.1-4.4,0.3-5.7-1.4c-1.4,2.7,0.8,5.4,3.1,6.6c-1.3,0.1-1.6,1.7-3.1,1.7
						c1.9,2.2,3.9,3.1,6.2,3.3c2.3,0.2,4,1,5.4,3.8C205.4,85.3,214,88.2,222,84.1"/>
					<path class="st7" d="M214,86.2L214,86.2c-4.9,0-9.4-2.2-10.9-5.3c-1.2-2.5-2.8-3.6-5.3-3.8c-2.5-0.2-4.4-1.2-6.3-3.4l-0.1-0.1
						h0.2c0.7,0,1.1-0.4,1.6-0.8c0.3-0.3,0.7-0.7,1.2-0.8c-2.4-1.3-4.1-4-2.9-6.6l0.1-0.1l0.1,0.1c0.6,0.8,1.8,0.8,2.9,0.8h0.7
						c0.8,0,1.5,0,2,0.3c-0.1-1,0.3-2.3,1.1-2.8l0.1-0.1l0,0.1c0.2,0.8,0.7,1.3,1.3,1.9c1,0.9,2,2,2.3,4.4c1-2.6,2.1-8.9,2.8-12.8
						L205,56c0.1-0.5,0.2-1,0.3-1.4c0.4-2.2,0.8-3.7-0.4-5.1l0,0l0,0c0.5-1.1,1.8-1.7,3.3-1.7c1.2,0,2.3,0.4,3,1.3
						c0.9,0.9,1.3,2.3,1.2,3.9c0,0.4-0.1,0.8-0.2,1.3c-0.9,4-2.5,9.8-3.5,13.1c3.7-5.6,6.9-7,9.4-8.1c1.4-0.6,2.6-1.2,3.6-2.2
						l0.1-0.1l0,0.1c0.3,1,0.3,2.8-0.5,3.9c0.7,0,1.3,0.1,2,0.2c1,0.1,2.1,0.2,3.1,0.2c1.2,0,2-0.2,2.4-0.6l0.2-0.2l-0.1,0.3
						c-1.5,4-4.9,6.7-8.5,6.5c0.6,1,0.8,2.3,0.4,3.4c-0.4,1.3-1.3,2.2-2.6,2.7l-0.1,0.1l0-0.2c0.3-1.1,0.2-2.2-0.4-2.9
						c-0.7-1-2-1.2-3.2-0.6l-0.2,0.1c-1.8,0.9-7.4,3.7-6.6,9.7c0.6,4.4,5,6,8.7,6c1.8,0,3.6-0.4,5-1c0.2-0.1,0.3-0.2,0.5-0.2
						l0.1,0.1c-0.2,0.1-0.3,0.2-0.5,0.3C219.1,85.6,216.6,86.2,214,86.2 M191.7,73.7c1.8,2,3.6,3,6,3.2c2.6,0.2,4.2,1.3,5.5,3.9
						c1.5,3.1,6,5.2,10.8,5.2c1.8,0,3.5-0.3,5.2-0.8c-0.9,0.2-1.8,0.3-2.7,0.3c-3.7,0-8.3-1.6-8.9-6.1c-0.8-6.1,4.9-8.9,6.7-9.8
						l0.2-0.1c1.3-0.7,2.7-0.4,3.4,0.6c0.6,0.8,0.7,1.8,0.4,2.9c1.1-0.5,2-1.4,2.4-2.5c0.4-1.2,0.2-2.5-0.5-3.4l-0.1-0.1l0.2,0
						c3.5,0.3,6.8-2.3,8.4-6.2c-0.5,0.3-1.2,0.5-2.3,0.5c-0.9,0-2-0.1-3.1-0.2c-0.7-0.1-1.5-0.2-2.2-0.2l-0.2,0l0.1-0.1
						c0.8-0.9,0.9-2.7,0.6-3.7c-1,1-2.2,1.6-3.6,2.2c-2.6,1.2-5.8,2.6-9.6,8.5l-0.3,0.5l0.2-0.5c0.9-3.1,2.6-9.4,3.6-13.6
						c0.1-0.4,0.2-0.8,0.2-1.2c0.1-1.6-0.3-2.9-1.1-3.8c-0.7-0.8-1.8-1.2-2.9-1.2c-1.4,0-2.6,0.6-3.1,1.6c1.2,1.4,0.9,3,0.4,5.2
						c-0.1,0.5-0.2,0.9-0.3,1.4l-0.2,1.2c-0.7,4-1.9,10.7-2.9,13.1l-0.1,0.3l0-0.3c-0.2-2.6-1.3-3.6-2.3-4.6
						c-0.6-0.6-1.1-1.1-1.4-1.9c-0.7,0.6-1.1,1.9-1,2.8l0,0.3l-0.2-0.2c-0.4-0.4-1.2-0.4-2-0.4h-0.7c-1.1,0-2.3-0.1-2.9-0.8
						c-1.1,2.5,0.7,5.1,3.1,6.4l0.3,0.1l-0.3,0c-0.6,0-1,0.4-1.4,0.8C192.8,73.3,192.4,73.7,191.7,73.7"/>
					<path class="st6" d="M233.9,78.7c-2.7,7.5-10.1,12.8-13.4,13.6c-5.7,1.4-17.2,7-20.3,9.9c-0.5-0.1-0.9-0.3-1.3-0.5
						c-1.5-1.1-2.8-4.6-0.1-7.6c8.5-7.9,17.5-4.5,23.2-9.9c-4.8,2.5-13.5,1.4-14.3-4.8c5.1,1.4,14.4,1.4,21.8-6.5
						C230.5,74,233.4,77.4,233.9,78.7"/>
					<path class="st7" d="M200.2,102.2L200.2,102.2c-0.6-0.1-1-0.3-1.3-0.5c-0.9-0.6-1.5-1.9-1.7-3.2c-0.1-1.1,0.1-2.8,1.6-4.5
						c4.7-4.4,9.5-5.3,13.8-6.1c3.3-0.7,6.5-1.3,9-3.4c-1.5,0.7-3.2,1-5.1,1c-3.7,0-8.3-1.6-8.9-6.1l0-0.1l0.1,0
						c1.2,0.3,3.1,0.7,5.5,0.7c4.3,0,10.7-1.2,16.2-7.1l0.1-0.1l0.1,0.1c1,1.1,3.9,4.5,4.4,5.8l0,0l0,0
						c-2.7,7.6-10.1,12.8-13.5,13.6C214.9,93.7,203.3,99.3,200.2,102.2L200.2,102.2z M222.5,83.8l-0.4,0.4c-2.6,2.5-5.9,3.1-9.5,3.8
						c-4.3,0.8-9.1,1.8-13.8,6.1c-1.5,1.6-1.6,3.3-1.5,4.4c0.1,1.3,0.8,2.5,1.6,3.1c0.3,0.2,0.7,0.4,1.2,0.5
						c3.1-2.9,14.7-8.5,20.3-9.9c3.3-0.8,10.6-6,13.3-13.5c-0.6-1.2-3.3-4.5-4.3-5.6c-5.5,5.9-11.9,7.1-16.3,7.1
						c-2.3,0-4.2-0.4-5.4-0.7c0.6,4.3,5.1,5.8,8.7,5.8c2,0,4-0.4,5.5-1.2L222.5,83.8z"/>
					<path class="st8" d="M216.6,96.2c-4.3,3.6-6.5,12.5-6,18.6c0.1,1.7,0.6,2.8,1.3,3.5c0.3-3.4,2.7-12.3,8.8-16.2
						c5.1-3.3,13.1-10.8,16.1-19.4c-0.5-1.5-1.4-2.6-3.1-3.7C230.7,87.1,222.8,91,216.6,96.2"/>
					<path class="st7" d="M212,118.4l-0.1-0.1c-0.8-0.7-1.2-1.9-1.3-3.6c-0.5-6.1,1.7-15,6.1-18.6c1.6-1.3,3.2-2.6,4.9-3.8
						c4.9-3.6,9.9-7.3,12.1-13.4l0-0.1l0.1,0.1c1.7,1.1,2.6,2.2,3.2,3.7l0,0l0,0c-3.2,9.1-11.6,16.5-16.1,19.4
						c-6.3,4.1-8.5,13.3-8.7,16.1L212,118.4z M233.7,79.1c-2.2,6-7.3,9.7-12.1,13.3c-1.6,1.2-3.3,2.5-4.9,3.8
						c-4.2,3.5-6.5,12.4-6,18.5c0.1,1.5,0.5,2.6,1.2,3.3c0.3-3.1,2.6-12,8.8-16.1c4.5-2.9,12.9-10.3,16.1-19.3
						C236.2,81.2,235.3,80.2,233.7,79.1"/>
					<path class="st9" d="M231.2,75.2c-1.5,2.3-5,5.4-8.3,6.7c0.7-0.8,0.9-1.8,1-2.7c-4.2,1.6-12.7,1.4-16.1,0.2
						c5.1,1.4,14.4,1.4,21.8-6.5C230.2,73.7,230.9,74.4,231.2,75.2"/>
					<path class="st7" d="M222.6,82.1l0.2-0.2c0.6-0.6,0.9-1.5,1-2.5c-2,0.7-5,1.1-8.3,1.1c-3.2,0-6.1-0.4-7.8-1l0-0.2
						c1.2,0.3,3.1,0.7,5.5,0.7c4.3,0,10.7-1.2,16.2-7.1l0.1-0.1l0.1,0.1c0.7,0.7,1.3,1.5,1.7,2.3l0,0l0,0c-1.5,2.3-5,5.5-8.4,6.7
						L222.6,82.1z M223.9,79.1l0,0.1c-0.1,1-0.3,1.9-0.8,2.5c3.2-1.3,6.5-4.3,8-6.5c-0.3-0.7-1-1.5-1.6-2.2
						c-5.5,5.9-11.9,7.1-16.2,7.1c-0.5,0-1.1,0-1.5-0.1c1.2,0.1,2.4,0.2,3.7,0.2c3.4,0,6.4-0.4,8.3-1.2L223.9,79.1z"/>
					<path class="st8" d="M198.8,94c-6.9,6.4-2.3,12.1,0.4,13.3c-0.7,4.5,3.5,4,3.4,7.7c1.7-1,2.2-3.6,1.9-5.7
						c2.2,2.3,7.6-0.3,8.8,4.1c0.7-4.8-3-9.5-7.6-9.1c1.9-1.7,0.8-4.5-1-5.2c-0.4,3.5-4.3,3.5-5.8,2.4
						C197.4,100.5,196.1,97,198.8,94"/>
					<path class="st7" d="M202.5,115.2v-0.1c0-1.7-0.8-2.5-1.7-3.3c-1-1-2.1-1.9-1.7-4.3c-1.3-0.7-3.4-2.6-3.9-5.4
						c-0.3-1.9,0.1-4.8,3.6-8.1l0.1,0.1c-1.5,1.6-1.7,3.3-1.5,4.4c0.1,1.3,0.8,2.5,1.6,3.1c0.5,0.4,1.4,0.6,2.2,0.6
						c0.7,0,3.2-0.2,3.5-3l0-0.1l0.1,0c1,0.4,1.8,1.4,2,2.5c0.2,1-0.1,1.9-0.8,2.7c2-0.1,4,0.8,5.5,2.5c1.6,1.8,2.3,4.4,2,6.7
						l-0.1,0.4l-0.1-0.4c-0.7-2.5-2.8-2.6-4.9-2.8c-1.4-0.1-2.8-0.2-3.8-1.1c0.2,2.1-0.3,4.6-2,5.5L202.5,115.2z M198,95
						c-2.1,2.3-3,4.7-2.7,7c0.4,2.8,2.6,4.7,3.9,5.3l0.1,0l0,0.1c-0.4,2.4,0.6,3.3,1.7,4.3c0.9,0.8,1.8,1.6,1.8,3.3
						c1.6-1,2-3.5,1.7-5.5l0-0.3l0.2,0.2c0.9,1,2.3,1.1,3.8,1.2c2,0.2,4.1,0.3,4.9,2.6c0.2-2.2-0.5-4.5-2-6.3
						c-1.5-1.7-3.5-2.6-5.6-2.4l-0.2,0l0.2-0.2c0.8-0.7,1.1-1.6,0.9-2.7c-0.2-1-0.9-2-1.8-2.4c-0.3,2.2-2.1,3-3.6,3
						c-0.9,0-1.8-0.2-2.3-0.6c-0.9-0.6-1.5-1.9-1.7-3.2C197.1,97.6,197.2,96.3,198,95"/>
					<path class="st6" d="M213.7,135c-0.8,0.4-0.7,1.4-0.2,2c0.9,1.3-0.7,4.1,2.4,4.7c0.9,0.2,1.6-0.4,1.9-1.4
						c0.9-2.8-2.1-3.2-2.3-4.5C215.2,134.5,214.3,134.6,213.7,135"/>
					<path class="st7" d="M216.2,141.9L216.2,141.9c-0.1,0-0.2,0-0.3,0c-2-0.4-2.1-1.8-2.1-3c0-0.7,0-1.3-0.3-1.7
						c-0.3-0.4-0.4-0.9-0.3-1.3c0.1-0.3,0.3-0.6,0.6-0.8c0.3-0.2,0.6-0.3,0.8-0.3c0.4,0,0.9,0.2,1.1,1.2c0.1,0.5,0.5,0.8,1,1.2
						c0.9,0.7,1.9,1.5,1.3,3.4C217.6,141.3,216.9,141.9,216.2,141.9 M214.5,134.8c-0.2,0-0.5,0.1-0.7,0.2c-0.3,0.2-0.5,0.4-0.5,0.7
						c-0.1,0.4,0,0.9,0.3,1.2c0.3,0.5,0.4,1.1,0.4,1.8c0,1.2,0.1,2.5,2,2.9c0.8,0.2,1.5-0.3,1.8-1.3c0.6-1.8-0.4-2.5-1.3-3.2
						c-0.5-0.4-1-0.8-1.1-1.3C215.3,135.2,214.9,134.8,214.5,134.8"/>
					<path class="st6" d="M216.3,140.3c-1,0.5-1.9,1.1-1.5,4.4c0.2,1.3,0.1,4.6-1.1,4.6c0.7,0.4,2.2,0.7,2.9-0.1
						c0.6,1,2,0.7,2.5-0.5c0.7,0.6,1.7-0.4,1.7-1.3c0.6,0.4,1.9-0.2,1.6-2.1c0.8,0.3,1.8-0.3,2.1-0.8c-1.1-0.2-4-1.8-4.6-3
						C219.2,140.4,217.4,139.8,216.3,140.3"/>
					<path class="st7" d="M217.6,149.9c-0.4,0-0.8-0.2-1-0.6c-0.7,0.7-2.1,0.4-2.9,0l-0.3-0.1l0.3,0c0.2,0,0.3-0.1,0.4-0.2
						c0.7-0.8,0.7-3.2,0.6-4.3c-0.4-3.3,0.5-4,1.5-4.5c1.2-0.6,3,0.1,3.7,1.3c0.7,1.2,3.5,2.7,4.6,2.9l0.1,0l-0.1,0.1
						c-0.4,0.5-1.3,1-2.1,0.8c0.2,1.3-0.4,1.9-0.7,2c-0.3,0.2-0.7,0.2-0.9,0.1c-0.1,0.5-0.4,1.1-0.9,1.3c-0.3,0.1-0.6,0.1-0.9,0
						C218.8,149.4,218.3,149.9,217.6,149.9C217.7,149.9,217.6,149.9,217.6,149.9 M216.6,149.1L216.6,149.1c0.3,0.5,0.6,0.7,1.1,0.6
						c0.5,0,1-0.4,1.3-1c-0.5-0.4-1.4-1.7-1.6-2.8l0.2,0c0.2,1.1,1,2.3,1.5,2.7l0.1,0c0.3,0.2,0.6,0.2,0.8,0.1
						c0.4-0.2,0.8-0.7,0.8-1.2c-0.7-0.4-2.2-2.3-2.5-3.6l0.2,0c0.3,1.2,1.7,3,2.3,3.4v0l0.1,0.1c0.3,0.2,0.6,0.1,0.9-0.1
						c0.2-0.2,0.8-0.7,0.6-1.9c-0.8-0.2-3-1.7-4-3.2l0.1-0.1c0.9,1.5,2.9,2.9,3.8,3.1v0l0.1,0c0.7,0.2,1.6-0.2,2-0.6
						c-1.2-0.3-3.9-1.8-4.6-3c-0.6-1.2-2.3-1.8-3.5-1.2h0c-1,0.5-1.8,1.1-1.4,4.3c0.1,1.1,0.1,3.6-0.6,4.4c-0.1,0.1-0.2,0.2-0.3,0.2
						c0.7,0.3,2,0.5,2.5-0.1c-0.3-0.5-0.4-2.4-0.2-3.5l0.2,0C216.3,146.8,216.3,148.6,216.6,149.1 M217.8,61.3l-0.1-0.1
						c0.7-0.4,1.7-0.5,3.4-0.4l0,0.2C219.5,60.8,218.5,60.9,217.8,61.3 M200.7,49.3l-0.1-0.1c0.5-0.7,1-1.3,1.5-1.9l0.1,0.1
						C201.7,48,201.2,48.6,200.7,49.3"/>
					<path class="st6" d="M263.9,94.1c11.1,9.3,11.8,16.7,10.1,21c-0.9-4-5.5-10.3-10.3-12L263.9,94.1z"/>
					<path class="st7" d="M273.9,115.4l-0.1-0.3c-0.9-4.2-5.6-10.3-10.2-11.9l-0.1,0v-0.1l0.2-9.2l0.1,0.1
						c12.1,10.1,11.5,17.5,10.1,21.1L273.9,115.4z M263.8,103.1c4.5,1.6,9.1,7.5,10.2,11.8c1.3-3.6,1.5-10.8-10-20.5L263.8,103.1z"
						/>
					<path class="st8" d="M244.1,88.9h20.5v24.3c0,20.7-11.5,32.9-23.2,39.4c-11.7-6.5-23.2-18.7-23.2-39.4V88.9h14.4
						c0,1.3,0.1,3.1,1.6,5C237.6,93.6,241.4,91.1,244.1,88.9"/>
					<path class="st7" d="M241.4,152.7L241.4,152.7c-6.7-3.7-12.1-8.6-16.1-14.4c-4.8-7.1-7.2-15.6-7.2-25.1V88.8h14.6v0.1
						c0,1.6,0.2,3.2,1.6,5c3.6-0.4,7.7-3.3,9.8-5l0,0h20.6v24.4c0,9.5-2.4,17.9-7.2,25.1C253.5,144.1,248.1,149,241.4,152.7
						L241.4,152.7z M218.2,89v24.2c0,23,14.5,34.5,23.1,39.3c8.7-4.8,23.1-16.3,23.1-39.3V89h-20.4c-2.1,1.7-6.2,4.7-9.9,5l0,0l0,0
						c-1.5-2-1.6-4-1.6-5H218.2z"/>
					<path class="st10" d="M264.6,88.9v24.3c0,6.3-1.1,11.7-2.8,16.5l-20.4-37.4L221,129.7c-1.8-4.8-2.8-10.3-2.8-16.5V88.9H264.6z"
						/>
					<path class="st7" d="M261.8,129.9l-20.4-37.4L221,129.9l-0.1-0.2c-1.9-5-2.8-10.6-2.8-16.5V88.8h46.6v24.4
						c0,5.9-1,11.5-2.8,16.5L261.8,129.9z M218.2,89v24.2c0,5.8,0.9,11.3,2.8,16.3l20.4-37.4l0.1,0.1l20.3,37.2
						c1.8-5,2.8-10.5,2.8-16.3V89H218.2z"/>
					<path class="st6" d="M262.4,127.9c-0.4,1.1-1,2.9-1.5,4l-19.5-36.2l-19.5,36.2c-0.5-1.1-1.2-2.9-1.5-4l21-38.9L262.4,127.9z"/>
					<path class="st7" d="M260.9,132.1l-0.1-0.1l-19.4-36.1l-19.5,36.2l-0.1-0.1c-0.5-1.1-1.1-2.8-1.5-4l0,0l0,0l21.1-39.1
						l21.1,39.1l0,0c-0.4,1.2-1,2.9-1.5,4L260.9,132.1z M220.5,127.9c0.4,1.1,1,2.8,1.4,3.8l19.5-36.2l19.5,36.2
						c0.5-1.1,1.1-2.7,1.4-3.8l-20.9-38.8L220.5,127.9z"/>
					<path class="st6" d="M250.6,141.2c0.5,0.3,1.5,0.8,2,1c1.1-2.2,1.3-5.2,0.9-7.9c-1.2,3-5.1,2.9-6.2,4.7
						c0.7,0.3,1.3,0.8,1.8,1.2c-1.4,1.4-4.5,3.6-6.3,4.2V125c0-1.4-0.5-2.5-0.5-3.6v-4c0-0.9-0.2-2.2-1-2.2c-0.8,0-1,1.3-1,2.2v4
						c0,1.1-0.5,2.4-0.5,3.6v19.3c-1-2.9-4.9-1.9-6.7-4.8c0.7-0.2,1.4-0.2,2.2-0.1c-1.3-4.6-5-5-5.8-6.3c0,1.9-0.8,6.3,0.5,8.2
						c0.3-0.3,0.7-0.7,1.2-1c1.5,3.3,8.4,3.3,10,8.8C242.7,147.1,247.4,144.8,250.6,141.2"/>
					<path class="st7" d="M241.4,149.3l0-0.2c-0.9-3.1-3.6-4.5-6-5.7c-1.7-0.9-3.3-1.7-4-3.1c-0.5,0.3-0.9,0.6-1.1,0.9l-0.1,0.1
						l-0.1-0.1c-1-1.4-0.7-4.3-0.6-6.5c0.1-0.7,0.1-1.3,0.1-1.8v-0.3l0.1,0.3c0.2,0.4,0.8,0.8,1.5,1.2c1.4,0.9,3.4,2,4.3,5.1l0,0.1
						l-0.1,0c-0.6-0.1-1.3-0.1-2,0.1c0.9,1.3,2.2,1.8,3.4,2.2c1.3,0.4,2.4,0.9,3,2.1V125c0-0.6,0.1-1.2,0.2-1.9
						c0.1-0.6,0.2-1.2,0.2-1.7v-4c0-0.7,0.1-2.3,1.1-2.3c1,0,1.1,1.6,1.1,2.3v4c0,0.5,0.1,1.1,0.2,1.6c0.1,0.6,0.2,1.3,0.2,2v19.2
						c1.8-0.6,4.8-2.8,6.1-4c-0.5-0.4-1.1-0.8-1.7-1.1l-0.1,0l0-0.1c0.5-0.8,1.5-1.2,2.5-1.7c1.4-0.6,3-1.3,3.7-3l0.1-0.3l0,0.3
						c0.4,3.1,0.1,6-0.9,8l0,0.1l-0.1,0c-0.4-0.2-1.3-0.6-1.9-0.9l0,0c-1.7,1.8-3.7,3.2-5.4,4.5c-1.7,1.2-3.2,2.3-3.8,3.3
						L241.4,149.3z M231.4,140.2L231.4,140.2c0.7,1.5,2.3,2.3,4,3.2c2.3,1.2,5,2.5,6,5.6c0.7-1,2.1-2,3.7-3.2
						c1.8-1.3,3.8-2.8,5.4-4.5l0,0l0.1,0.1c0.5,0.3,1.4,0.7,1.8,0.9c0.9-1.9,1.2-4.6,0.9-7.5c-0.7,1.5-2.3,2.2-3.6,2.8
						c-1,0.4-1.9,0.8-2.4,1.5c0.6,0.3,1.2,0.7,1.7,1.1l0.1,0.1l-0.1,0.1c-1.3,1.3-4.5,3.6-6.3,4.2l-0.1,0V125c0-0.7-0.1-1.3-0.2-2
						c-0.1-0.6-0.2-1.1-0.2-1.6v-4c0-0.5-0.1-2.1-0.9-2.1c-0.8,0-0.9,1.6-0.9,2.1v4c0,0.6-0.1,1.2-0.2,1.8c-0.1,0.6-0.2,1.2-0.2,1.8
						v19.8l-0.2-0.4c-0.5-1.4-1.8-1.9-3.1-2.4c-1.3-0.5-2.7-1-3.6-2.4l-0.1-0.1l0.1,0c0.7-0.2,1.4-0.2,2.1-0.1
						c-0.9-3-2.8-4.1-4.2-4.9c-0.6-0.4-1.1-0.7-1.4-1c0,0.4-0.1,0.9-0.1,1.5c-0.2,2.1-0.4,4.8,0.5,6.3
						C230.4,140.8,230.8,140.5,231.4,140.2L231.4,140.2z"/>
					<path class="st6" d="M241.4,125.2c1.5,0,6.4-0.5,8.1-0.5c0.5,0,0.8-0.7,0.8-1.5c0-0.8-0.4-1.5-0.8-1.5c-1.8,0-6.6-0.5-8.1-0.5
						c-1.5,0-6.4,0.5-8.1,0.5c-0.5,0-0.8,0.7-0.8,1.5c0,0.8,0.4,1.5,0.8,1.5C235,124.7,239.9,125.2,241.4,125.2"/>
					<path class="st7" d="M241.4,125.3c-0.7,0-2.2-0.1-3.8-0.2c-1.7-0.1-3.4-0.3-4.3-0.3c-0.5,0-0.9-0.7-0.9-1.6
						c0-0.9,0.4-1.6,0.9-1.6c0.9,0,2.6-0.1,4.3-0.3c1.6-0.1,3.1-0.2,3.8-0.2c0.7,0,2.2,0.1,3.8,0.2c1.7,0.1,3.4,0.3,4.3,0.3
						c0.5,0,0.9,0.7,0.9,1.6c0,0.9-0.4,1.6-0.9,1.6c-0.9,0-2.6,0.1-4.3,0.3C243.6,125.2,242.1,125.3,241.4,125.3 M241.4,121.2
						c-0.7,0-2.2,0.1-3.8,0.2c-1.7,0.1-3.4,0.3-4.3,0.3c-0.4,0-0.8,0.7-0.8,1.4c0,0.8,0.3,1.4,0.8,1.4c0.9,0,2.6,0.1,4.3,0.3
						c1.6,0.1,3.1,0.2,3.8,0.2c0.7,0,2.2-0.1,3.8-0.2c1.7-0.1,3.4-0.3,4.3-0.3c0.4,0,0.7-0.7,0.7-1.4c0-0.8-0.3-1.4-0.7-1.4
						c-0.9,0-2.6-0.1-4.3-0.3C243.6,121.3,242.1,121.2,241.4,121.2"/>
					<path class="st6" d="M240.4,117.3c-0.3-0.3-0.8-0.4-1.2-0.4c-1,0-1.8,0.8-1.8,1.7c0,0.9,0.8,1.7,1.8,1.7c1,0,1.8-0.8,1.8-1.7
						c0-0.7,1-0.7,1,0c0,1.5-1.3,2.6-2.9,2.6c-1.6,0-2.9-1.2-2.9-2.6c0-1.5,1.3-2.6,2.9-2.6c0.5,0,0.9,0.1,1.3,0.3
						C240.5,116.4,240.4,116.9,240.4,117.3"/>
					<path class="st7" d="M239.2,121.3c-1.6,0-3-1.2-3-2.7c0-1.5,1.3-2.7,3-2.7c0.5,0,0.9,0.1,1.4,0.3l0.1,0l0,0.1
						c0,0.3-0.1,0.6-0.1,1v0.2l-0.1-0.1c-0.3-0.3-0.7-0.4-1.2-0.4c-1,0-1.8,0.7-1.8,1.6c0,0.9,0.8,1.6,1.8,1.6c1,0,1.8-0.7,1.8-1.6
						c0-0.8,1.2-0.8,1.2,0C242.2,120,240.8,121.3,239.2,121.3 M239.2,116c-1.6,0-2.8,1.1-2.8,2.6c0,1.4,1.3,2.6,2.8,2.6
						c1.6,0,2.8-1.2,2.8-2.6c0-0.6-0.9-0.6-0.9,0c0,1-0.9,1.8-1.9,1.8c-1.1,0-1.9-0.8-1.9-1.8c0-1,0.9-1.8,1.9-1.8
						c0.4,0,0.8,0.1,1.1,0.3c0-0.3,0.1-0.6,0.1-0.9v0C240,116.1,239.6,116,239.2,116"/>
					<path class="st6" d="M233.2,124.7c0.5,0,0.8-0.7,0.8-1.5c0-0.8-0.4-1.5-0.8-1.5"/>
					<path class="st7" d="M233.2,124.8v-0.2c0.4,0,0.7-0.7,0.7-1.4c0-0.8-0.3-1.4-0.7-1.4v-0.2c0.5,0,0.9,0.7,0.9,1.6
						C234.2,124.1,233.7,124.8,233.2,124.8"/>
					<path class="st6" d="M233.9,124.7c0.5,0,0.8-0.7,0.8-1.5c0-0.8-0.4-1.5-0.8-1.5"/>
					<path class="st7" d="M233.9,124.8v-0.2c0.4,0,0.7-0.7,0.7-1.4c0-0.8-0.3-1.4-0.7-1.4v-0.2c0.5,0,0.9,0.7,0.9,1.6
						C234.8,124.1,234.4,124.8,233.9,124.8"/>
					<path class="st6" d="M238.4,125c0.5,0,1-0.8,1-1.8c0-1-0.4-1.8-1-1.8"/>
					<path class="st7" d="M238.4,125.1v-0.2c0.5,0,0.9-0.8,0.9-1.8c0-1-0.4-1.8-0.9-1.8v-0.2c0.6,0,1.1,0.8,1.1,1.9
						C239.4,124.2,239,125.1,238.4,125.1"/>
					<path class="st6" d="M239.4,125.1c0.6,0,1-0.9,1-1.9c0-1.1-0.5-1.9-1-1.9"/>
					<path class="st7" d="M239.4,125.2V125c0.5,0,1-0.8,1-1.8c0-1-0.4-1.8-1-1.8v-0.2c0.6,0,1.1,0.9,1.1,2
						C240.5,124.3,240,125.2,239.4,125.2"/>
					<path class="st6" d="M242.8,125.1c0.6,0,1.1-0.9,1.1-1.9c0-1.1-0.5-2-1.1-2"/>
					<path class="st7" d="M242.8,125.2V125c0.5,0,1-0.8,1-1.9c0-1-0.4-1.9-1-1.9v-0.2c0.6,0,1.1,0.9,1.1,2
						C244,124.3,243.5,125.2,242.8,125.2"/>
					<path class="st6" d="M243.9,125c0.6,0,1-0.8,1-1.9c0-1-0.5-1.9-1-1.9"/>
					<path class="st7" d="M243.9,125.1V125c0.5,0,1-0.8,1-1.8c0-1-0.4-1.8-1-1.8v-0.2c0.6,0,1.1,0.9,1.1,2
						C245.1,124.3,244.6,125.1,243.9,125.1"/>
					<path class="st6" d="M248.8,124.7c0.5,0,0.8-0.7,0.8-1.6c0-0.9-0.4-1.6-0.8-1.6"/>
					<path class="st7" d="M248.8,124.8v-0.2c0.4,0,0.8-0.7,0.8-1.5c0-0.8-0.4-1.5-0.8-1.5v-0.2c0.5,0,0.9,0.7,0.9,1.6
						C249.7,124.1,249.3,124.8,248.8,124.8"/>
					<path class="st6" d="M231.4,140.3c0.6-0.3,1.2-0.6,1.9-0.8"/>
					<path class="st7" d="M231.4,140.4l-0.1-0.1c0.6-0.4,1.3-0.7,1.9-0.8l0,0.2C232.6,139.7,232,140,231.4,140.4"/>
					<path class="st6" d="M249.7,140.5c-0.2-0.1-0.3-0.2-0.5-0.4"/>
					<path class="st7" d="M249.6,140.5l-0.1-0.1c-0.1-0.1-0.3-0.2-0.4-0.3l0.1-0.1c0.1,0.1,0.3,0.2,0.4,0.3l0.1,0.1L249.6,140.5z"/>
					<path class="st6" d="M250.6,141.2c1.3-1.4,2.3-2.9,2.9-4.6"/>
					<path class="st7" d="M250.7,141.3l-0.1-0.1c1.4-1.5,2.3-3,2.9-4.6l0.1,0.1C253.1,138.2,252.1,139.8,250.7,141.3"/>
					<path class="st11" d="M237.3,106.1c0-0.4,0.4-0.6,0.8-0.9c0.5-0.4,0.7-0.6,1.2-0.6h5.9c0.4,0,0.5,0.1,0.5,0.5v8
						c0,0.4-0.1,0.5-0.5,0.5h-7.9V106.1"/>
					<path class="st7" d="M245.1,113.7h-7.9V106c0-0.4,0.3-0.6,0.6-0.8c0.1,0,0.1-0.1,0.2-0.1l0.1-0.1c0.4-0.3,0.7-0.5,1.1-0.5h5.9
						c0.5,0,0.6,0.1,0.6,0.6v8C245.7,113.6,245.6,113.7,245.1,113.7 M237.3,113.6h7.8c0.4,0,0.5-0.1,0.5-0.4v-8
						c0-0.4-0.1-0.4-0.5-0.4h-5.9c-0.4,0-0.6,0.1-1,0.5l-0.1,0.1c-0.1,0-0.1,0.1-0.2,0.1c-0.3,0.2-0.6,0.4-0.6,0.7V113.6z"/>
					<path class="st12" d="M243.7,114.3c0.8,0,0.6,0,1.2-0.6c0.6-0.6,0.5-0.5,0.5-1v-7.3c0-0.4-0.1-0.5-0.5-0.5h-5.5
						c-0.4,0-0.6,0.2-1.1,0.5c-0.4,0.3-0.7,0.5-0.7,0.9v8H243.7z"/>
					<path class="st7" d="M243.7,114.4h-6.2v-8.1c0-0.4,0.3-0.6,0.6-0.8c0.1,0,0.1-0.1,0.2-0.1l0.1-0.1c0.4-0.3,0.6-0.5,1-0.5h5.5
						c0.4,0,0.6,0.1,0.6,0.6v7.5c0,0.4,0,0.5-0.5,1c-0.1,0.1-0.2,0.2-0.2,0.2C244.4,114.4,244.3,114.4,243.7,114.4 M237.7,114.3h6
						c0.6,0,0.6,0,0.9-0.3c0.1-0.1,0.1-0.1,0.2-0.2c0.5-0.5,0.5-0.5,0.5-0.9v-0.1v-7.3c0-0.3,0-0.4-0.4-0.4h-5.5
						c-0.4,0-0.5,0.1-0.9,0.4l-0.1,0.1c-0.1,0-0.1,0.1-0.2,0.1c-0.3,0.2-0.5,0.4-0.5,0.7V114.3z"/>
					<path class="st11" d="M244.2,114.2c0,0.4-0.1,0.5-0.5,0.5h-5.9c-0.4,0-0.5-0.1-0.5-0.5v-8c0-0.4,0.1-0.5,0.5-0.5h5.9
						c0.4,0,0.5,0.1,0.5,0.5V114.2z"/>
					<path class="st7" d="M243.7,114.8h-5.9c-0.5,0-0.6-0.1-0.6-0.6v-8c0-0.5,0.1-0.6,0.6-0.6h5.9c0.5,0,0.6,0.1,0.6,0.6v8
						C244.3,114.6,244.2,114.8,243.7,114.8 M237.8,105.7c-0.4,0-0.5,0.1-0.5,0.4v8c0,0.4,0.1,0.4,0.5,0.4h5.9c0.4,0,0.5-0.1,0.5-0.4
						v-8c0-0.4-0.1-0.4-0.5-0.4H237.8z"/>
					<path class="st13" d="M255.7,84.2c1.2,1.3,1.5,3,0.9,4.7h-1.7c0.7-2.2,0.3-4.2-2.8-4.5c-4.6-0.4-9.9,8.5-17.9,9.5
						c-2.3-2.8-2.2-8.1,0.8-10.6c-1.5-4.4-4.8-9.3-7-11.4c-1.5-0.2-3.2-0.4-4.3-0.3c1.2-2.5,4.5-5.2,7.2-6.3
						c0.4-0.6,0.9-1.2,1.4-1.8c0.3-3.5,16.7-1.8,20.2,0.3C252.5,67.8,254,80.7,255.7,84.2"/>
					<path class="st7" d="M234.2,94L234.2,94c-2.5-3-2.2-8.3,0.7-10.7c-1.5-4.4-4.7-9.2-7-11.3c-1.5-0.2-3.1-0.4-4.2-0.3l-0.1,0
						l0.1-0.1c1.2-2.6,4.6-5.2,7.2-6.3c0.4-0.5,0.8-1.1,1.3-1.8c0.2-1.8,4.3-2.1,6.8-2.1c5.2,0,11.5,1.1,13.6,2.3l0,0v0
						c0,3.8,1.5,16.8,3.2,20.3c1.2,1.3,1.5,3.1,0.9,4.8l0,0.1h-1.9l0-0.1c0.3-0.9,0.5-2.2-0.1-3.1c-0.5-0.7-1.3-1.1-2.6-1.3
						c-2.1-0.2-4.4,1.6-7,3.7C242,90.7,238.5,93.5,234.2,94L234.2,94z M224.3,71.5c1.1,0,2.4,0.1,3.6,0.3l0,0c2.2,2.1,5.5,7,7,11.4
						l0,0.1l0,0c-2.8,2.4-3.2,7.6-0.8,10.5c4.2-0.6,7.7-3.3,10.7-5.8c2.7-2.1,5-4,7.2-3.8c1.3,0.1,2.2,0.6,2.7,1.3
						c0.5,0.8,0.6,1.9,0.2,3.2h1.6c0.6-1.6,0.2-3.3-0.9-4.6c-1.7-3.5-3.3-16.4-3.3-20.3c-2-1.2-8.3-2.3-13.4-2.3
						c-4.1,0-6.6,0.7-6.7,1.9l0,0c-0.5,0.7-1,1.2-1.3,1.8l0,0c-2.5,1-5.9,3.6-7.1,6.1C223.9,71.5,224.1,71.5,224.3,71.5"/>
					<path class="st7" d="M235.7,86.6c-0.4-6-2.8-10.9-6.2-14.3c1.6,0.5,4.9,0.5,7.2-1.2c3-2,10.7-5.4,13.5-4
						c0.2,0.5,0.4,1.6,0.2,2.3c-0.7-1.8-8.1,1-10.3,1.8c-2,0.9-2.9,2.2-2.2,5c-1.2-1-0.8-1.9-2-2.6c0.5,1.2,0.9,3.3,1,5
						c-0.5-1.2-1.3-3.8-3-5.4c1.5,3,2.9,10.1,2.2,13.9c1.2,0,3.9-1.2,5-2c-0.9,1.4-3.7,2.3-5.4,2.7c-0.8,0.9-1.3,3.4-1.3,4.7
						C234.4,90.9,234.9,86.8,235.7,86.6"/>
					<path class="st7" d="M255.7,84.2c-1.5-1.7-4.3-2.6-7.8-1.6c0.5-0.3,1.7-0.7,2.7-0.9c-0.1-0.9-1-5-1.1-6l1-0.4
						c0.5,2.4,1.1,5.2,1.5,6.3c0.3,0.1,1,0.2,1.7,0.5c-0.3-0.9-1.8-7.7-1.8-8.5l1.4-0.7C253.8,76.7,254.7,82.1,255.7,84.2"/>
					<path class="st13" d="M254.9,88.9c0.7-2.2,0.3-4.2-2.8-4.5c-2.4-0.2-4.9,2.1-8,4.5H254.9z"/>
					<path class="st7" d="M254.9,89h-11.1l0.2-0.1c0.3-0.3,0.7-0.5,1-0.8c2.7-2.1,4.9-3.9,7.1-3.7c1.3,0.1,2.2,0.6,2.7,1.3
						C255.4,86.5,255.4,87.6,254.9,89L254.9,89z M244.3,88.8h10.5c0.3-0.9,0.5-2.1-0.1-3.1c-0.5-0.7-1.3-1.1-2.6-1.3
						c-2.1-0.2-4.3,1.6-7,3.7C244.9,88.4,244.6,88.6,244.3,88.8"/>
					<path class="st13" d="M235,69.5c-1.4,0.2-4.4-0.1-5.9-0.6c0.1-0.4,0.3-0.8,0.5-1.3c-0.9,0.6-2.7,1.9-3.4,2.7
						C228.3,70.8,232.7,71,235,69.5"/>
					<path class="st7" d="M235.7,87.4c0-1.1-0.3-2.5-0.9-4l0.1-0.1c0.5,1.5,0.8,2.9,0.9,4.1H235.7z M231.7,72.6
						c-0.9,0-1.7-0.1-2.2-0.3c-0.5-0.1-1-0.2-1.6-0.3l0-0.2c0.6,0.1,1.1,0.2,1.6,0.3c1.7,0.5,5,0.4,7.1-1.2c0.2-0.2,0.5-0.3,0.8-0.6
						c2.7-2,8.3-6.2,14.6-6.7l0,0.2c-6.2,0.5-11.8,4.6-14.5,6.6c-0.3,0.2-0.5,0.4-0.8,0.6C235.2,72.2,233.3,72.6,231.7,72.6
						 M229.7,70.8c-0.5,0-1.1,0-1.6-0.1c-0.7-0.1-1.3-0.1-1.8-0.2c0,0,0,0,0,0c0,0-0.1,0-0.1,0c0,0-0.1,0-0.1,0l-0.1,0l0.1-0.1
						c0.5-0.6,1.6-1.5,3.4-2.7c0.3-0.7,0.7-1.4,1.3-2.3l0.1,0.1c-0.5,0.7-0.9,1.4-1.2,2l0,0l-0.1,0.3c-0.2,0.5-0.3,0.8-0.4,1.2
						c1.5,0.4,4.4,0.7,5.8,0.6c5.4-3.7,10.5-5.6,15.3-5.9l0,0.2c-4.8,0.3-9.8,2.2-15.2,5.9l0,0l0,0c0,0,0,0,0,0
						C233.7,70.5,231.6,70.8,229.7,70.8 M226.3,70.3c2.2,0.4,6.2,0.6,8.4-0.7c-1.5,0.1-4.2-0.2-5.6-0.6l-0.1,0l0-0.1c0,0,0,0,0,0
						c0.1-0.3,0.2-0.7,0.3-1C228.6,68.4,227,69.5,226.3,70.3"/>
					<path class="st8" d="M263.9,94.1c7.6,5.2,13.1,10.3,14.8,18.4c1.6,8.1,4.7,10.3,8.5,8.1c-0.9,4.7-5.6,5.2-9.5,1.6
						c0.4,5.4-1.8,11.9-7.4,14.2c-0.4-3.2,1.8-5.8,1.2-8.5c-0.3-1.2-0.4-3.9,1.2-5.1c-3,1-7.7-0.9-8.1-5.3c3.4,1.6,7.8,1.9,9.5-2.4
						C275.7,110.8,275,103.4,263.9,94.1"/>
					<path class="st7" d="M270.1,136.5l0-0.1c-0.2-1.6,0.3-3,0.7-4.4c0.4-1.4,0.8-2.7,0.5-4c-0.2-0.9-0.4-3.5,0.9-5
						c-0.4,0.1-0.9,0.2-1.4,0.2c-2.9,0-6.1-2-6.5-5.6l0-0.1l0.1,0.1c1.5,0.7,3,1.1,4.4,1.1c1.7,0,3.9-0.6,5.1-3.5
						c1.4-3.5,1.9-10.8-10.1-20.9l0.1-0.1c8,5.5,13.2,10.5,14.8,18.4c1.2,5.9,3.1,8.8,5.8,8.8c0.8,0,1.6-0.3,2.5-0.8l0.2-0.1l0,0.2
						c-0.5,2.5-2.1,4-4.4,4l0,0c-1.7,0-3.5-0.8-5.1-2.2C278,127.8,275.8,134.2,270.1,136.5L270.1,136.5z M272.9,122.6l-0.3,0.3
						c-1.4,1.2-1.4,3.7-1.1,5c0.3,1.4-0.1,2.7-0.5,4.1c-0.4,1.3-0.8,2.7-0.7,4.3c5.5-2.4,7.6-8.8,7.2-14.1l0-0.2l0.1,0.1
						c1.6,1.5,3.5,2.3,5.1,2.3l0,0c2.2,0,3.7-1.4,4.2-3.7c-0.9,0.5-1.7,0.7-2.5,0.7c-2.8,0-4.8-3-6-8.9c-1.5-7.4-6.2-12.3-13.4-17.4
						c10.8,9.6,10.2,16.6,8.9,20c-1.2,3-3.5,3.6-5.2,3.6c-1.3,0-2.8-0.4-4.3-1c0.4,3.5,3.6,5.4,6.3,5.4c0.6,0,1.1-0.1,1.6-0.3
						L272.9,122.6z"/>
					<path class="st8" d="M273.4,52c2.3-6.1,8.5-5.5,10.5-2.9c6-3.4,6.8,4.3,12,2.8c-0.1,1.4-1.8,2.8-3.7,2.7c2,1.8-0.8,4.5,3.4,6.1
						c-3.6,1.8-8.6-0.1-10-5c-1.2,2.3-5.4,2.3-7.1,0.5c3.7-1,3.4-4.4,1.4-5.8C277.8,49,274.1,49.6,273.4,52"/>
					<path class="st7" d="M292.8,61.5c-2.8,0-6-1.7-7.1-5.6c-0.6,1-2,1.7-3.6,1.7c-1.5,0-2.8-0.5-3.6-1.4l-0.1-0.1l0.1,0
						c2.1-0.6,2.6-1.9,2.8-2.6c0.2-1.1-0.4-2.4-1.4-3c-0.7-0.5-1.6-0.7-2.6-0.7c-1.6,0-3,0.7-3.5,1.8c-0.1,0.2-0.2,0.3-0.2,0.5
						l-0.1-0.1c0.1-0.2,0.1-0.4,0.2-0.5c1.2-2.7,3.4-4.3,6-4.3c1.7,0,3.4,0.7,4.4,1.9c1-0.6,2-0.9,2.8-0.9c1.6,0,2.8,1,4,2
						c1.1,0.9,2.3,1.9,3.8,1.9c0.4,0,0.8-0.1,1.3-0.2l0.1,0v0.1c-0.1,1.5-1.8,2.8-3.6,2.8c0.7,0.7,0.7,1.6,0.7,2.4
						c0,1.3,0.1,2.6,2.5,3.6l0.2,0.1l-0.2,0.1C294.8,61.3,293.8,61.5,292.8,61.5 M285.7,55.5l0.1,0.2c1.1,3.9,4.3,5.6,7,5.6
						c0.9,0,1.9-0.2,2.7-0.6c-2.4-1-2.4-2.3-2.5-3.6c0-0.9,0-1.7-0.8-2.4l-0.2-0.2l0.2,0c1.8,0.1,3.4-1.1,3.6-2.5
						c-0.4,0.1-0.8,0.2-1.2,0.2c-1.6,0-2.8-1-3.9-2c-1.1-0.9-2.3-1.9-3.9-1.9c-0.9,0-1.8,0.3-2.8,0.9l-0.1,0l0-0.1
						c-0.9-1.1-2.5-1.9-4.3-1.9c-2.3,0-4.3,1.2-5.5,3.4c0.7-0.7,1.9-1.1,3.2-1.1c1,0,1.9,0.3,2.7,0.7c1.1,0.7,1.7,2,1.5,3.2
						c-0.2,1.2-1.2,2.2-2.8,2.7c0.8,0.8,2,1.2,3.4,1.2c1.6,0,3-0.7,3.5-1.8L285.7,55.5z"/>
					<path class="st8" d="M255.2,65.5c1.7,5.4,5.2,10.5,8.9,13.9c4.3,4,10.8,3,14.5-0.8c0.1,7.5-7.7,8.1-12.1,5.8
						c-1.9-1-3.5-0.5-1.6,1.2c2.8,2.5,8.9,4.4,16.1,5.9c12.6,2.7,8.1,12.7,4.4,12.6c1.1,0,1.9-1.1,0.4-2.5
						c-10.9-9.8-33.2-6-32.8-27.9c-2.3,5.8-12,3.5-7.5-3.3c1.4,1.2,4,1.3,4.7-0.5c0.6-1.4,0.2-3.8-2.3-5.9c0.4,0,1.3,0,1.2-1
						c0.1,0.6,0.7,1.5,2.1,1.2c0.4,0.6,0.8,1.1,1.4,0.8c0.1,0,0.4-0.2,0.3-0.9C253,65.2,254.4,65.6,255.2,65.5"/>
					<path class="st7" d="M285.4,104.1L285.4,104.1l0-0.2c0.5,0,0.9-0.3,1.1-0.7c0.2-0.5-0.1-1.1-0.7-1.7c-3.7-3.4-8.9-5.1-13.9-6.9
						c-9.4-3.2-19-6.6-19-20.7c-1.1,2.2-3.1,3-4.7,3c-1.6,0-2.9-0.7-3.5-1.8c-0.7-1.3-0.4-3,0.8-4.9l0-0.1l0.1,0.1
						c0.6,0.5,1.5,0.8,2.4,0.8c1.1,0,1.9-0.5,2.2-1.3c0.6-1.5,0.1-3.8-2.3-5.8l-0.2-0.1l0.3,0c0.3,0,0.7,0,0.9-0.3
						c0.1-0.1,0.2-0.4,0.1-0.6l0.2,0c0,0.2,0.3,1.2,1.5,1.2c0.2,0,0.3,0,0.5-0.1l0.1,0l0,0c0.5,0.8,0.9,1,1.3,0.8
						c0.2-0.1,0.3-0.3,0.3-0.6c0-0.1,0-0.1,0-0.2l0.2,0c0,0.1,0,0.1,0,0.2c0.2,0.9,1.3,1.3,2,1.3l0,0c0.1,0,0.1,0,0.2,0l0.1,0l0,0.1
						c1.6,5.1,4.8,10.1,8.9,13.9c1.8,1.6,4.1,2.5,6.5,2.5c2.9,0,5.8-1.2,7.8-3.3l0.1-0.1v0.2c0,2.1-0.6,3.9-1.8,5.1
						c-1.3,1.3-3.2,2-5.3,2c-1.7,0-3.6-0.5-5-1.2c-0.6-0.3-1.2-0.5-1.7-0.5c-0.3,0-0.5,0.1-0.6,0.3c-0.1,0.3,0.2,0.8,0.8,1.3
						c2.5,2.2,7.6,4.1,16.1,5.9c8.3,1.8,8.5,6.6,8.3,8C289.1,101.9,287.3,104.1,285.4,104.1 M253.1,73.2l0,0.4
						c-0.2,14.4,9,17.6,18.9,21c5,1.7,10.2,3.5,13.9,6.9c1,0.9,0.9,1.5,0.8,1.8c-0.1,0.2-0.2,0.3-0.3,0.4c1.4-0.6,2.7-2.4,2.9-4.4
						c0.2-1.8-0.2-6.2-8.2-7.9c-8.5-1.8-13.7-3.7-16.1-6c-0.8-0.8-0.9-1.2-0.8-1.5c0.1-0.2,0.4-0.4,0.8-0.4c0.5,0,1.1,0.2,1.8,0.5
						c1.4,0.8,3.2,1.2,4.9,1.2c2.1,0,4-0.7,5.2-1.9c1.2-1.2,1.7-2.8,1.8-4.8c-2,2-4.9,3.2-7.8,3.2c-2.5,0-4.8-0.9-6.6-2.6
						c-4.1-3.7-7.3-8.8-8.9-13.9c0,0-0.1,0-0.1,0c-0.6,0-1.6-0.3-2-1.1c-0.1,0.2-0.2,0.3-0.4,0.4c-0.1,0-0.2,0.1-0.3,0.1
						c-0.5,0-0.8-0.4-1.1-0.9c-0.2,0-0.3,0.1-0.5,0.1c-0.8,0-1.3-0.4-1.5-0.9c0,0.1-0.1,0.2-0.2,0.3c-0.2,0.3-0.6,0.3-0.9,0.3
						c2.3,2,2.8,4.4,2.2,5.9c-0.4,0.9-1.2,1.4-2.4,1.4c-0.8,0-1.7-0.3-2.4-0.8c-1.2,1.8-1.4,3.4-0.8,4.7c0.6,1.1,1.9,1.8,3.4,1.8
						c1.7,0,3.8-0.9,4.8-3.2L253.1,73.2z"/>
					<path class="st6" d="M266.5,84.3c5.2,3.4,11.1,3.4,16.6-2.9c1.7-2,4.4-3.7,6.3-3.9c1.9-0.2,1.8-2,3.2-2.3
						c-0.9-0.3-1.3-1.4-2.6-1.2c3.4-1.2,2.4-3.9,4.1-5.2c-1.4,0.5-3.5-1.5-5.4,1c0.5-1.2-0.2-2.6-0.7-3.1c0.2,1.3-2.7,1.6-3.2,5
						c-0.3,1.9-1.4,1.8-1.5-1.2c-0.1-2.2-1.2-8.2-2.4-11.2c-1.3-3.1-1.5-7.3,0.2-7.9c-0.3-0.4-0.6-0.8-1.1-1.1
						c-2.1-1.4-5.8-0.8-6.5,1.6c-2.3,6.1,4.2,9.6,3.7,16.3c-1-4.9-9-6.2-8.9-11.1c-2.6,1.2-2.2,3.3-1.3,5c-1.6-2.5-5.3,1.6-8.5-1.8
						c-0.4,4.5,3.6,6.2,6.8,6.4c-1.6,2.9,0.5,5.3,2.7,6.1c0.1-5,10.4-3,10.5,5.7C278.6,86,270.7,86.7,266.5,84.3"/>
					<path class="st7" d="M273.4,86.7c-2.3,0-4.6-0.8-7-2.3l0.1-0.1c1.4,0.8,3.2,1.2,4.9,1.2c2.2,0,4.1-0.7,5.3-2
						c1.2-1.2,1.7-2.8,1.7-4.8c-0.1-5.7-4.4-8.3-7.3-8.3c-1.8,0-3,1-3,2.6l0,0.1l-0.1,0c-1.1-0.4-2.5-1.4-3.1-2.9
						c-0.4-1-0.3-2.1,0.3-3.2c-1.2-0.1-3.9-0.5-5.6-2.4c-0.9-1.1-1.4-2.5-1.2-4.1l0-0.2l0.1,0.1c0.9,1,1.9,1.4,3.1,1.4
						c0.7,0,1.4-0.1,2-0.3c0.6-0.1,1.1-0.2,1.6-0.2c0.5,0,0.9,0.1,1.3,0.4c-0.4-0.8-0.6-1.8-0.3-2.7c0.3-0.8,0.9-1.4,1.9-1.9
						l0.1-0.1l0,0.1c0,2.5,2,4,4.3,5.6c1.9,1.4,3.9,2.8,4.5,4.9c0.1-2.8-1.1-5-2.2-7.2c-1.4-2.7-2.8-5.3-1.5-8.6
						c0.4-1.5,2-2.4,3.9-2.4c1,0,1.9,0.3,2.7,0.7c0.4,0.3,0.8,0.7,1.1,1.1l0,0.1l-0.1,0c-0.3,0.1-0.6,0.4-0.8,0.9
						c-0.6,1.4-0.3,4.4,0.7,6.9c1.3,3,2.3,9.1,2.4,11.3c0.1,1.6,0.5,2.4,0.8,2.4c0.2,0,0.5-0.4,0.6-1.2c0.3-2,1.4-3,2.3-3.7
						c0.6-0.5,1-0.8,0.9-1.4l0-0.3l0.2,0.2c0.4,0.5,1.1,1.6,0.8,2.8c0.6-0.7,1.3-1,2.2-1c0.5,0,1,0.1,1.4,0.2
						c0.6,0.1,1.2,0.2,1.6,0.1l0.5-0.2l-0.4,0.3c-0.6,0.5-0.9,1.2-1.1,2c-0.4,1.1-0.8,2.3-2.5,3.1c0.6,0.1,1,0.4,1.3,0.7
						c0.3,0.2,0.5,0.4,0.8,0.5l0.3,0.1l-0.3,0.1c-0.6,0.2-0.9,0.6-1.3,1c-0.4,0.6-0.9,1.2-2,1.3c-1.8,0.2-4.5,1.8-6.2,3.8
						C280.1,84.9,276.9,86.7,273.4,86.7 M267.7,85c1.9,1,3.8,1.6,5.7,1.6c3.4,0,6.6-1.7,9.6-5.1c1.8-2,4.5-3.7,6.4-3.9
						c1-0.1,1.4-0.7,1.9-1.2c0.3-0.4,0.6-0.8,1.2-1c-0.3-0.1-0.5-0.3-0.7-0.5c-0.4-0.4-0.9-0.7-1.7-0.6l-0.7,0.1l0.6-0.2
						c2-0.7,2.4-1.9,2.8-3.1c0.2-0.7,0.5-1.3,0.9-1.8c-0.4,0-0.9-0.1-1.3-0.2c-0.4-0.1-0.9-0.2-1.4-0.2c-0.9,0-1.7,0.4-2.3,1.3
						l-0.4,0.5l0.3-0.6c0.4-1,0-2.2-0.5-2.8c-0.1,0.5-0.5,0.8-1,1.3c-0.8,0.7-1.9,1.6-2.2,3.6c-0.1,0.8-0.4,1.4-0.8,1.4
						c-0.5,0-0.8-1-0.9-2.5c-0.1-2.2-1.2-8.2-2.4-11.2c-1-2.5-1.3-5.6-0.7-7.1c0.2-0.4,0.5-0.7,0.8-0.9c-0.3-0.4-0.6-0.7-1-1
						c-0.7-0.5-1.6-0.7-2.6-0.7c-1.4,0-3.3,0.6-3.8,2.3c-1.3,3.3,0.1,5.8,1.5,8.5c1.2,2.3,2.5,4.7,2.2,7.8l0,0.6l-0.1-0.6
						c-0.5-2.3-2.6-3.9-4.6-5.3c-2.2-1.6-4.3-3.1-4.3-5.6c-0.9,0.4-1.5,1-1.7,1.7c-0.4,1.1,0.1,2.3,0.6,3.1l-0.1,0.1
						c-0.4-0.6-0.9-0.8-1.6-0.8c-0.5,0-1,0.1-1.6,0.2c-0.7,0.1-1.3,0.3-2,0.3c-1.2,0-2.2-0.4-3.1-1.3c-0.1,1.5,0.3,2.8,1.2,3.8
						c1.7,1.9,4.5,2.3,5.6,2.3l0.1,0l-0.1,0.1c-0.6,1.1-0.7,2.1-0.3,3.2c0.5,1.4,1.8,2.4,2.9,2.8c0.1-1.6,1.3-2.7,3.2-2.7
						c3,0,7.4,2.7,7.5,8.5c0,2.1-0.6,3.7-1.8,5c-1.3,1.3-3.2,2-5.5,2C270.2,85.6,268.9,85.4,267.7,85"/>
					<path class="st6" d="M281,91.4c12.6,2.7,8.1,12.7,4.4,12.6c-2.3-0.1-4.6-2-4.7-3.7c-2.7,1.4-2,4.3,0.1,5.4
						c-5.7-0.7-8.1,3.1-8.2,7.2c1-1.9,4.2-2,5.4-1.6c1.2,0.4,4.2,0.6,5.4-0.7c-1,0.9,0.6,2.8-0.8,4.4c4.7-0.2,6.8-4.6,6-6.5
						C294.7,102.8,293.5,93.7,281,91.4"/>
					<path class="st7" d="M282.4,115l0.1-0.1c0.7-0.8,0.6-1.8,0.5-2.6c-0.1-0.5-0.1-0.9,0-1.3c-0.9,0.6-2.1,0.7-2.8,0.7
						c-0.8,0-1.7-0.1-2.2-0.3c-0.3-0.1-0.8-0.2-1.4-0.2c-1.4,0-3.2,0.5-3.9,1.8l-0.2,0.3l0-0.3c0.1-3.5,2-7.3,7-7.3
						c0.3,0,0.6,0,0.9,0c-1-0.6-1.6-1.7-1.6-2.7c0-1.1,0.6-2,1.8-2.6l0.1-0.1l0,0.1c0.1,1.6,2.3,3.6,4.7,3.7h0
						c1.7,0,3.5-2.2,3.7-4.6c0.2-1.8-0.2-6.2-8.2-7.9l0-0.2c5.9,1.1,9.8,3.8,10.9,7.6c0.9,3.2-0.3,6.7-3.3,9.4
						c0.4,0.9,0.1,2.4-0.7,3.6c-1.2,1.8-3.1,2.9-5.4,3L282.4,115z M283.3,110.5l0.1,0.1c0,0-0.1,0.1-0.1,0.1
						c-0.3,0.4-0.2,0.9-0.1,1.5c0.1,0.8,0.3,1.7-0.4,2.6c2.1-0.1,4-1.2,5.1-2.9c0.8-1.2,1-2.6,0.7-3.5l0-0.1l0,0
						c3-2.7,4.2-6.2,3.3-9.3c-0.9-3-3.6-5.4-7.7-6.7c5.3,2.2,5.4,5.9,5.3,7.1c-0.3,2.5-2.1,4.7-3.9,4.7h0c-2.4-0.1-4.6-2-4.8-3.7
						c-1,0.6-1.6,1.4-1.6,2.4c0,1.1,0.7,2.2,1.8,2.8l0.4,0.2l-0.4,0c-0.4-0.1-0.9-0.1-1.3-0.1c-4.7,0-6.6,3.5-6.8,6.9
						c0.8-1.2,2.5-1.6,3.9-1.6c0.5,0,1.1,0.1,1.4,0.2c0.4,0.1,1.2,0.3,2.2,0.3c0.8,0,2.2-0.1,3-0.9
						C283.2,110.5,283.2,110.5,283.3,110.5"/>
					<path class="st6" d="M271.4,134.2c0.8,0.5,0.7,1.6,0.2,2.3c-1.1,1.4,0.6,4.6-2.9,5.2c-1,0.2-1.8-0.5-2.1-1.6
						c-0.9-3.2,2.4-3.4,2.8-4.9C269.8,133.6,270.7,133.8,271.4,134.2"/>
					<path class="st7" d="M268.4,141.7c-0.9,0-1.6-0.6-1.9-1.7c-0.6-2.1,0.6-3,1.6-3.7c0.5-0.4,1.1-0.8,1.2-1.3
						c0.2-1,0.8-1.2,1.2-1.2c0.3,0,0.6,0.1,1,0.3c0.3,0.2,0.5,0.5,0.6,0.9c0.1,0.5-0.1,1-0.4,1.5c-0.4,0.5-0.4,1.2-0.5,1.9
						c-0.1,1.4-0.2,2.9-2.5,3.3C268.6,141.7,268.5,141.7,268.4,141.7 M270.5,134c-0.5,0-0.8,0.4-1,1.1c-0.1,0.6-0.7,1-1.3,1.4
						c-1,0.7-2.1,1.5-1.6,3.5c0.3,1.2,1.1,1.7,2,1.6c2.2-0.3,2.2-1.8,2.3-3.1c0-0.8,0.1-1.5,0.5-2c0.3-0.4,0.5-0.9,0.4-1.4
						c-0.1-0.3-0.2-0.6-0.5-0.8C271.1,134.1,270.8,134,270.5,134"/>
					<path class="st6" d="M268.3,140c1.1,0.6,2.1,1.3,1.5,4.9c-0.3,1.5-0.3,5.1,1,5.2c-0.8,0.4-2.5,0.7-3.2-0.2
						c-0.7,1.1-2.2,0.7-2.8-0.7c-0.8,0.6-1.9-0.5-1.9-1.5c-0.7,0.4-2.1-0.3-1.7-2.4c-0.9,0.3-1.9-0.4-2.3-1c1.3-0.2,4.5-1.8,5.3-3.1
						C265,139.9,267,139.4,268.3,140"/>
					<path class="st7" d="M266.4,150.7c-0.1,0-0.1,0-0.1,0c-0.7-0.1-1.3-0.6-1.6-1.3c-0.3,0.2-0.6,0.2-1,0c-0.5-0.3-0.9-0.9-0.9-1.5
						c-0.3,0.1-0.7,0.1-1.1-0.2c-0.3-0.2-0.9-0.8-0.6-2.3c-0.9,0.2-1.9-0.4-2.3-1l-0.1-0.1l0.1,0c1.2-0.2,4.4-1.7,5.3-3.1
						c0.8-1.3,2.8-2,4.2-1.3c1.1,0.6,2.1,1.4,1.5,5c-0.2,1.2-0.3,3.9,0.4,4.8c0.1,0.2,0.3,0.3,0.5,0.3l0.3,0l-0.3,0.1
						c-0.9,0.4-2.5,0.7-3.2-0.2C267.3,150.5,266.9,150.7,266.4,150.7 M264.9,149.3c0.3,0.7,0.8,1.2,1.4,1.2c0.5,0.1,0.9-0.2,1.2-0.6
						l0-0.1c0.3-0.6,0.5-2.6,0.3-3.8l0.2,0c0.2,1.3,0,3.3-0.4,3.9c0.6,0.8,2,0.6,2.9,0.2c-0.1-0.1-0.3-0.2-0.4-0.3
						c-0.8-1-0.7-3.7-0.5-5c0.6-3.5-0.3-4.3-1.4-4.8c-1.3-0.6-3.2-0.1-4,1.2c-0.8,1.3-3.9,2.8-5.2,3.1c0.4,0.5,1.4,1.1,2.2,0.8
						l0.1,0v0c1-0.3,3.3-1.8,4.4-3.4l0.1,0.1c-1.1,1.7-3.6,3.2-4.6,3.4c-0.3,1.4,0.3,2,0.6,2.2c0.3,0.2,0.7,0.3,1,0.1l0.1-0.1v0
						c0.8-0.4,2.4-2.4,2.8-3.7l0.2,0c-0.4,1.4-2.2,3.5-2.9,3.9c0,0.5,0.4,1.2,0.9,1.4c0.2,0.1,0.5,0.2,0.9-0.1l0.1,0
						c0.6-0.4,1.6-1.8,1.8-3l0.2,0C266.5,147.4,265.4,148.8,264.9,149.3"/>
					<path class="st6" d="M253,73.6c-0.1,9.2,3.7,13.9,9,16.9c-2-1.2-1.1-5.2-3.8-6.5c0.6,0,1.6,0.9,3.2,0.5c-0.8-1.7-2-4.3-5-4.7
						c0.8-0.1,2.4,0.2,3.5-0.2C258.4,77.3,254.4,78.4,253,73.6"/>
					<path class="st7" d="M261.9,90.6c-6.4-3.7-9.2-8.9-9-17l0-0.5l0.2,0.5c0.8,2.9,2.7,3.6,4.3,4.2c1.1,0.4,2.1,0.8,2.7,1.7
						l0.1,0.1l-0.1,0c-0.6,0.2-1.3,0.2-1.8,0.2c-0.3,0-0.5,0-0.7,0c-0.1,0-0.2,0-0.3,0c2.5,0.7,3.7,3.2,4.3,4.6l0,0.1l-0.1,0
						c-0.3,0.1-0.5,0.1-0.8,0.1c-0.7,0-1.2-0.2-1.7-0.4c-0.1,0-0.2-0.1-0.4-0.1c1.2,0.8,1.5,2.2,1.9,3.5c0.3,1.2,0.6,2.3,1.5,2.8
						L261.9,90.6z M253.1,74.1c0,7.5,2.6,12.4,8.3,16c-0.5-0.6-0.7-1.5-1-2.4c-0.4-1.4-0.8-2.9-2.2-3.6l-0.3-0.1l0.3,0
						c0.2,0,0.5,0.1,0.8,0.2c0.4,0.2,1,0.4,1.6,0.4c0.2,0,0.4,0,0.6-0.1c-0.7-1.5-1.9-4.2-4.8-4.5l-0.7-0.1l0.7-0.1c0.2,0,0.6,0,1,0
						c0.2,0,0.5,0,0.7,0c0.5,0,1.1,0,1.6-0.2c-0.6-0.8-1.5-1.2-2.5-1.6C255.7,77.4,254,76.7,253.1,74.1"/>
					<path class="st6" d="M252,64.8c-0.3-0.1-0.6-0.4-0.9-0.9c-1.4,0.3-2-0.6-2.1-1.2c0.1,1-0.8,1-1.2,1c2.5,2.1,2.9,4.5,2.3,5.9
						c-0.7,1.8-3.2,1.7-4.7,0.5c-0.2,3.8,4.8,5.1,6.6,0.3c0,0.8,1,0.7,1.3,1.8C254.7,70.3,253.7,67.3,252,64.8"/>
					<path class="st7" d="M248.4,73.8c-0.8,0-1.6-0.3-2.1-0.9c-0.6-0.6-0.9-1.6-0.9-2.6l0-0.2l0.1,0.1c0.6,0.5,1.5,0.8,2.4,0.8
						c1.1,0,1.9-0.5,2.2-1.3c0.6-1.5,0.1-3.9-2.3-5.8l-0.2-0.1l0.3,0c0.3,0,0.7,0,0.9-0.3c0.1-0.2,0.2-0.4,0.1-0.6l0.2,0
						c0,0.2,0.3,1.2,1.5,1.2c0.2,0,0.3,0,0.5-0.1l0.1,0l0,0c0.3,0.5,0.6,0.7,0.8,0.8l0,0c2,2.9,2.5,5.8,1.4,7.6l-0.1,0.2l0-0.2
						c-0.1-0.5-0.5-0.8-0.7-1c-0.2-0.2-0.4-0.3-0.5-0.6C251.3,72.7,250,73.8,248.4,73.8 M245.6,70.4c0,0.9,0.3,1.7,0.8,2.3
						c0.5,0.6,1.2,0.9,2,0.9c1.5,0,2.8-1.1,3.6-3.1l0.2-0.4v0.4c0,0.4,0.2,0.5,0.5,0.7c0.3,0.2,0.6,0.4,0.7,0.9
						c1-1.8,0.4-4.5-1.4-7.2c-0.3-0.1-0.5-0.4-0.9-0.8c-0.2,0-0.3,0.1-0.5,0.1c-0.8,0-1.3-0.4-1.5-0.9c0,0.1-0.1,0.2-0.2,0.3
						c-0.2,0.3-0.6,0.3-0.9,0.3c2.3,2,2.8,4.4,2.2,5.9c-0.4,0.9-1.2,1.4-2.4,1.4C247.1,71.2,246.3,70.9,245.6,70.4"/>
					<path class="st8" d="M244.1,46.6c-2.2-2.1-3.3-5.5-3.2-7.5c0.1-2,0.9-4.1,3.8-3.2c-0.9,0-0.3,1.8-1.2,2
						c0.8,0.3,1.8-0.4,1.9-0.8c0.2,0.6,1.4,0.5,1.4,1.2c0.5-0.4,0-2.1-0.7-2.5c0.5-0.3,0.8-1.7,0.5-2.3c-0.4,0.1-1.1,0.7-1.3,1.6
						c0.2-0.7,0-2.5-1.3-2.8c-0.4,0.5-0.5,1.7,0,2.4c-1.2-0.3-2.9,0.5-3.3,1.5c0.1-1.2,0.3-2.9,1-4c0.2-0.4-0.4-1-0.8-0.1
						c-0.9-1.7-3.2-2.6-4.3-1.8c-1,0.9-2.4-0.4-3.3,0.9c-0.9,1.4-3.8,1.5-3.6,2.9c0.1,0.9-0.1,2.2-0.5,2.7c-1,1.2,0.5,2,0.8,3.1
						c-0.2-3.4,5.3-10.1,10.7-7.5c-0.5,0.9-0.9,2.6-1.1,4.6c-0.2,3.1,0.2,7.4,3.2,9.9L244.1,46.6z"/>
					<path class="st7" d="M242.9,47L242.9,47c-3.3-2.8-3.4-7.5-3.3-10c0.1-1.9,0.5-3.7,1-4.6c-0.8-0.4-1.6-0.5-2.4-0.5
						c-2.6,0-4.6,1.7-5.6,2.7c-1.6,1.7-2.6,3.8-2.5,5.2l0,0.8l-0.2-0.8c-0.1-0.3-0.3-0.6-0.5-1c-0.5-0.7-0.9-1.3-0.2-2.2
						c0.4-0.5,0.6-1.7,0.5-2.6c-0.1-0.9,0.8-1.3,1.8-1.7c0.7-0.3,1.5-0.7,1.9-1.3c0.4-0.6,0.9-0.7,1.3-0.7c0.2,0,0.3,0,0.5,0
						c0.2,0,0.3,0,0.5,0c0.3,0,0.7,0,1-0.3c0.3-0.2,0.6-0.3,1.1-0.3c1.2,0,2.6,0.9,3.2,2c0.2-0.3,0.4-0.3,0.5-0.3
						c0.2,0,0.3,0.1,0.4,0.2c0.1,0.1,0.1,0.3,0,0.4c-0.7,1-0.9,2.5-0.9,3.6c0.5-0.7,1.6-1.3,2.7-1.3c0.1,0,0.2,0,0.3,0
						c-0.4-0.7-0.3-1.8,0.1-2.3l0,0l0,0c1,0.2,1.4,1.3,1.4,2.2c0.3-0.5,0.7-0.9,1.1-1l0.1,0l0,0.1c0.2,0.6,0,2-0.5,2.4
						c0.4,0.3,0.8,1.1,0.8,1.8c0,0.3,0,0.6-0.2,0.8l-0.1,0.1l0-0.1c0-0.3-0.4-0.4-0.7-0.6c-0.3-0.1-0.5-0.2-0.7-0.4
						c-0.2,0.3-0.9,0.7-1.5,0.7c-0.2,0-0.3,0-0.4-0.1l-0.3-0.1l0.3-0.1c0.4-0.1,0.5-0.5,0.6-1c0.1-0.4,0.1-0.7,0.4-0.9
						c-0.3-0.1-0.6-0.1-0.9-0.1c-2,0-2.4,2.1-2.5,3.4c-0.1,1.8,0.9,5.3,3.2,7.5l0.1,0.1L242.9,47z M238.3,31.7
						c0.9,0,1.8,0.2,2.6,0.6l0.1,0l0,0.1c-0.5,0.9-0.9,2.7-1.1,4.6c-0.2,2.5,0,7.1,3.1,9.8l1-0.3c-2.3-2.2-3.2-5.7-3.1-7.5
						c0.1-1.3,0.5-3.5,2.6-3.5c0.4,0,0.8,0.1,1.3,0.2l0.5,0.2h-0.5c-0.4,0-0.4,0.3-0.5,0.8c-0.1,0.4-0.1,0.8-0.4,1
						c0.7,0.1,1.5-0.5,1.6-0.8l0.1-0.3l0.1,0.3c0.1,0.3,0.4,0.4,0.7,0.5c0.3,0.1,0.6,0.2,0.7,0.5c0-0.1,0.1-0.3,0-0.5
						c-0.1-0.6-0.4-1.5-0.8-1.7l-0.1-0.1l0.1-0.1c0.4-0.2,0.7-1.5,0.5-2.2c-0.4,0.1-0.9,0.6-1.1,1.3c0,0.1,0,0.2-0.1,0.3l-0.2,0
						c0-0.1,0-0.2,0.1-0.3c0.1-0.7-0.2-2.2-1.2-2.4c-0.3,0.5-0.4,1.6,0.1,2.2l0.1,0.2l-0.2-0.1c-0.2,0-0.3-0.1-0.5-0.1
						c-1.1,0-2.4,0.7-2.7,1.5l-0.2,0.5l0-0.5c0.1-1,0.2-2.8,1-4c0.1-0.1,0.1-0.2,0-0.3c-0.1-0.1-0.1-0.2-0.2-0.2
						c-0.2,0-0.3,0.1-0.5,0.4l-0.1,0.1L241,32c-0.7-1.3-2.1-2-3.1-2c-0.4,0-0.7,0.1-1,0.3c-0.4,0.3-0.8,0.3-1.1,0.3
						c-0.2,0-0.3,0-0.5,0c-0.2,0-0.3,0-0.5,0c-0.4,0-0.9,0.1-1.2,0.6c-0.4,0.6-1.2,1-1.9,1.3c-0.9,0.4-1.7,0.8-1.7,1.5
						c0.1,0.9-0.1,2.2-0.6,2.7c-0.6,0.7-0.2,1.3,0.2,2c0.1,0.2,0.3,0.4,0.4,0.6c0.1-1.5,1.1-3.4,2.5-4.9
						C233.6,33.4,235.6,31.7,238.3,31.7"/>
					<path class="st14" d="M245.7,35.9c0-0.8,1.4-1.9,3.3-1.8c2.3,0,4,2.1,5.9,1.9c1.8-0.2,0.9,0.8,0.5,1.1
						c-0.4,0.3-0.6,0.7-0.5,1.2c0.1,0.5-0.1,0.8-0.8,0.4c-1.6-1-3.2,0.4-5.4-0.4C246.9,37.5,245.8,37.1,245.7,35.9"/>
					<path class="st7" d="M254.7,38.8c-0.2,0-0.4-0.1-0.6-0.2c-0.4-0.3-0.8-0.4-1.4-0.4c-0.4,0-0.8,0.1-1.2,0.1
						c-0.4,0.1-0.9,0.1-1.4,0.1c-0.5,0-1-0.1-1.5-0.3l-0.1,0c-1.8-0.7-2.9-1.1-2.9-2.3c0-0.3,0.1-0.6,0.4-0.9c0.5-0.5,1.5-1,2.9-1h0
						c1.2,0,2.2,0.5,3.1,1c0.9,0.5,1.8,1,2.7,0.9c0.7-0.1,1.1,0,1.2,0.3c0.1,0.3-0.4,0.8-0.6,1c-0.2,0.2-0.6,0.5-0.4,1.1
						c0.1,0.2,0,0.4,0,0.5C254.9,38.7,254.8,38.8,254.7,38.8 M252.7,38.1c0.6,0,1,0.1,1.4,0.4c0.3,0.2,0.4,0.2,0.5,0.2
						c0.1,0,0.1,0,0.2-0.1c0.1-0.1,0.1-0.2,0-0.4c-0.1-0.5,0-0.9,0.5-1.3c0.2-0.2,0.6-0.5,0.5-0.8c-0.1-0.2-0.4-0.2-1-0.2
						c-0.9,0.1-1.8-0.4-2.8-0.9c-1-0.5-1.9-1-3.1-1h0c-1.3,0-2.3,0.5-2.8,1c-0.2,0.3-0.4,0.5-0.4,0.8c0,1.1,1,1.5,2.8,2.2l0.1,0
						c0.4,0.2,0.9,0.2,1.4,0.2c0.5,0,0.9-0.1,1.3-0.1C251.9,38.1,252.3,38.1,252.7,38.1"/>
					<path class="st13" d="M236.5,57.1c-0.9-2.8-4.3-5.9-6-6.7l-0.1-1.5c0.9-0.4,3.1-2.1,4.1-3c6.7,3.2,15.9-1.3,20.2-6.1l1.6,1
						l-0.8,1.1l-0.9-0.4c-1,1.3-4.9,4.9-6.1,5.7c1.6,0.4,3.7,0.7,4.3,0.6c3.8-2.7,6.8-5.1,8.2-5.3l1.2,1.6l-1.1,0.8l-0.9-0.5
						c-4,3.3-8.6,10.6-10.4,15.5C247.3,59.2,238.3,59.6,236.5,57.1"/>
					<path class="st7" d="M249.9,59.8L249.9,59.8c-0.8-0.2-2-0.3-3.5-0.3c-3.7-0.2-8.7-0.6-10-2.4l0,0c-0.9-2.9-4.4-5.9-5.9-6.6l0,0
						l-0.1-1.6l0.1,0c0.9-0.4,3-2,4-3l0,0l0,0c7,3.4,16.1-1.6,20.1-6.1l0-0.1l1.8,1.1l-0.9,1.2l-0.9-0.4c-1,1.2-4.6,4.6-5.9,5.5
						c1.5,0.4,3.5,0.6,4.1,0.6c0.8-0.6,1.6-1.2,2.4-1.7c2.6-1.9,4.7-3.4,5.8-3.6l0,0l1.3,1.7l-1.2,0.8l-0.9-0.5
						c-3.2,2.6-6.7,7.8-9,12.2c0,0,0,0,0,0.1h0C250.7,57.8,250.3,58.8,249.9,59.8L249.9,59.8z M236.6,57.1c1.3,1.7,6.3,2,9.9,2.3
						c1.4,0.1,2.6,0.2,3.4,0.3c0.4-1,0.8-2,1.4-3.1c0-0.1,0-0.1,0-0.2c-0.3-0.5-2.1-1-3.7-1.3c-1.5-0.2-7.8-0.7-10.6-0.6l0-0.2
						c2.9-0.1,9.2,0.4,10.7,0.6c1.2,0.2,3.4,0.7,3.8,1.3c0,0,0,0,0,0c2.2-4.4,5.8-9.5,8.9-12.1l0,0l0.9,0.5l1-0.7l-1.1-1.5
						c-1.1,0.2-3.1,1.7-5.7,3.5c-0.8,0.6-1.6,1.1-2.4,1.7l0,0c-3.7,2.6-10.1,2.8-13.9,0.2c-1.7,1.2-2.6,4.8-2,8.1l-0.2,0
						c-0.6-3.3,0.4-7.1,2.1-8.3l0,0l0,0c3.7,2.5,9.9,2.4,13.6-0.1c-0.8,0-2.6-0.3-4.1-0.6l-0.2,0h0c-0.5-0.1-0.9-0.3-1.2-0.4
						c-0.8,0.7-2.7,1.3-4.8,1.3v-0.2c2.1-0.1,4-0.6,4.8-1.3l0,0l0.1,0c0.3,0.2,0.8,0.3,1.3,0.5c1.2-0.8,5-4.4,6-5.6l0-0.1l0.9,0.4
						l0.7-1l-1.5-0.9c-4,4.5-13.1,9.5-20.2,6.1c-1,1-3.1,2.6-4,3l0.1,1.4C232.2,51.1,235.6,54.1,236.6,57.1 M238.2,54l-0.9-0.9
						l0.9-0.9l0.9,0.9L238.2,54z M237.5,53l0.7,0.7l0.7-0.7l-0.7-0.7L237.5,53z"/>
					<path class="st8" d="M240.1,37.1c-1-1.4-3.9-1.9-4.5,0c-0.3,0.9-0.7,1.8-1.3,2.2c-0.7,0.4-0.5,1.6-0.2,2.2
						c0.7,1.3,0.1,2.6,1.5,3.4c0-1,1.5-2.1,2.8-2.4c1.3-0.3,3.3-1.4,3.6-2.7C242.2,38.5,242.6,37.4,240.1,37.1"/>
					<path class="st7" d="M235.6,45l-0.1-0.1c-0.9-0.5-1-1.2-1.1-2c-0.1-0.5-0.1-1-0.4-1.5c-0.3-0.5-0.5-1.8,0.3-2.3
						c0.5-0.3,1-1,1.3-2.1c0.3-0.9,1-1.4,2-1.4c1,0,2.1,0.5,2.6,1.3c1,0.1,1.6,0.3,1.8,0.7c0.3,0.5,0.2,1.1,0.1,1.7
						c0,0.1,0,0.2-0.1,0.3c-0.3,1.3-2.3,2.5-3.6,2.8c-1.3,0.3-2.8,1.3-2.8,2.3V45z M237.5,35.9c-0.9,0-1.6,0.4-1.9,1.2
						c-0.4,1.1-0.8,1.9-1.4,2.2c-0.6,0.4-0.5,1.5-0.2,2c0.3,0.5,0.4,1,0.4,1.5c0.1,0.7,0.2,1.3,0.9,1.8c0.1-1,1.6-2.1,2.9-2.3
						c1.3-0.3,3.2-1.4,3.5-2.7c0-0.1,0-0.2,0.1-0.3c0.1-0.6,0.3-1.2,0-1.6c-0.3-0.4-0.8-0.6-1.8-0.7h0l0,0
						C239.5,36.4,238.5,35.9,237.5,35.9"/>
					<path class="st13" d="M233.6,50.1h0.4l0,2.5c0.1,0,0.2,0.1,0.2,0.1l2.1-1.2l0.2,0.3l-2.1,1.2c0,0.1,0,0.2,0,0.2l2.1,1.2
						l-0.2,0.3l-2.1-1.2c-0.1,0-0.1,0.1-0.2,0.1v2.5h-0.4l0-2.5c-0.1,0-0.2-0.1-0.2-0.1l-2.1,1.2l-0.2-0.3l2.1-1.2
						c0-0.1,0-0.2,0-0.2l-2.1-1.2l0.2-0.3l2.1,1.2c0.1-0.1,0.1-0.1,0.2-0.1L233.6,50.1z"/>
					<path class="st7" d="M234.1,56.2h-0.5l0-2.5c0,0-0.1,0-0.1-0.1l-2.1,1.2l-0.3-0.5l2.1-1.2c0-0.1,0-0.1,0-0.2l-2.1-1.2l0.3-0.4
						l2.2,1.2c0,0,0.1-0.1,0.1-0.1V50h0.5l0,2.5c0,0,0.1,0,0.1,0.1l2.1-1.2l0.3,0.4l-2.2,1.2c0,0.1,0,0.1,0,0.2l2.1,1.2l-0.3,0.5
						l-2.2-1.2c0,0-0.1,0.1-0.1,0.1V56.2z M233.7,56h0.2l0-2.4l0.1,0c0.1,0,0.1-0.1,0.2-0.1l0,0l2.1,1.2l0.1-0.2l-2.1-1.2l0-0.1
						c0-0.1,0-0.2,0-0.2l0-0.1l2.1-1.2l-0.1-0.2l-2.1,1.2l0,0c-0.1,0-0.1-0.1-0.2-0.1l-0.1,0l0-2.4h-0.2v2.4l-0.1,0
						c-0.1,0-0.1,0.1-0.2,0.1l0,0l-2.1-1.2l-0.1,0.2l2.1,1.2l0,0.1c0,0.1,0,0.1,0,0.2l0,0.1l-2.1,1.2l0.1,0.2l2.1-1.2l0,0
						c0.1,0,0.1,0.1,0.2,0.1l0.1,0L233.7,56z"/>
					<path class="st13" d="M236.9,56.1c-0.8,0.8-1.8,1.3-3,1.3c-2.4,0-4.3-1.9-4.3-4.3c0-2.4,1.9-4.3,4.3-4.3c1.4,0,2.6,0.7,3.4,1.7
						c-0.2,0.5-0.5,1.7-0.5,2.3c-0.1-1.5-1.4-2.6-2.9-2.6c-1.6,0-2.9,1.3-2.9,2.9c0,1.6,1.3,2.9,2.9,2.9c1.4,0,2.5-0.9,2.9-2.2
						C236.7,54.4,236.7,55.6,236.9,56.1"/>
					<path class="st7" d="M233.8,57.4c-2.4,0-4.3-2-4.3-4.3s2-4.3,4.3-4.3c1.4,0,2.6,0.6,3.5,1.7l0,0l0,0c-0.2,0.5-0.5,1.7-0.5,2.3
						l-0.2,0c-0.1-1.4-1.4-2.5-2.8-2.5c-1.6,0-2.8,1.3-2.8,2.8c0,1.6,1.3,2.8,2.8,2.8c1.3,0,2.4-0.9,2.8-2.1l0.2-0.6v0.6
						c0,1.1,0.1,1.9,0.2,2.2l0,0.1l0,0C236.1,57,235,57.4,233.8,57.4 M233.8,48.9c-2.3,0-4.2,1.9-4.2,4.2c0,2.3,1.9,4.2,4.2,4.2
						c1.1,0,2.2-0.4,2.9-1.2c-0.1-0.4-0.2-1.2-0.2-1.8c-0.5,1.1-1.6,1.8-2.8,1.8c-1.6,0-3-1.3-3-3c0-1.6,1.3-3,3-3
						c1.4,0,2.5,0.9,2.9,2.2c0.1-0.6,0.3-1.3,0.4-1.7C236.3,49.5,235.1,48.9,233.8,48.9"/>
					<path class="st8" d="M232,60.2c-0.3-0.3-0.8-1.2-0.7-1.8c0.4,0,1.2,0.2,1.5,0.6c0-0.5-0.2-1.4-0.1-1.9c0.5,0.2,1.5,0.8,1.9,1.4
						c-0.1-0.4-0.3-1.6-0.1-2.3c0.5,0.3,1.4,1.2,1.6,1.8c0-0.9,0.4-2.4,0.6-2.7c0.4,0.4,1,0.8,1.4,1.3c0.1-0.7,0.4-1.6,1-1.8
						c0.4,0.5,1,1.5,1.2,2.7c0.4-0.1,0.9-0.8,1.2-1.2c0.2,0.4,0.4,1,0.3,1.8c0.5-0.4,1.1-1.1,1.2-1.6c0.4,0.3,1,0.9,1.2,1.7
						c-0.1-0.6,0-1.6-0.2-2.2c0.7,0.4,1.2,1,1.4,1.7c0.2-0.6,0.6-1.8,0.9-2c0.4,0.7,0.7,1.6,0.7,2.3c0.2-0.5,0.6-1.3,0.9-1.4
						c0.3,0.5,0.3,1.6,0.2,2.2c0.3-0.5,0.9-1,1.3-1.2c0,0.3,0.1,0.8,0,1.2c0.4-0.2,1.1-1.4,1.3-2.1c0.6,0.3,1.3,1.4,1.3,1.9
						c0.4-0.2,1.4-1,1.6-1.4c0,0.3,0.1,1.2,0,1.8c0.3-0.3,0.5-0.8,0.7-1c0.2,0.4,0,1.5-0.1,2.1c0.4-0.4,1-0.6,1.4-0.6
						c0,0.8-0.5,2.1-1,3.1C250.2,61.1,241.1,60.7,232,60.2"/>
					<path class="st7" d="M254.5,62.4L254.5,62.4c-4.2-1.2-12.6-1.6-21.4-2.1l-1.1-0.1l0,0c-0.3-0.3-0.8-1.2-0.7-1.9l0-0.1l0.1,0
						c0.4,0,1,0.2,1.4,0.5c0-0.1,0-0.1,0-0.2c-0.1-0.5-0.2-1.2-0.1-1.5l0-0.1l0.1,0c0.4,0.1,1.2,0.6,1.7,1.2c-0.1-0.5-0.2-1.4,0-2
						l0-0.1l0.1,0.1c0.5,0.3,1.2,0.9,1.5,1.5c0.1-0.9,0.4-2.1,0.6-2.5l0.1-0.1l0.1,0.1c0.2,0.1,0.3,0.3,0.5,0.5
						c0.3,0.2,0.6,0.4,0.8,0.7c0.1-0.7,0.5-1.5,1-1.7l0,0l0,0c0.4,0.4,1,1.4,1.2,2.6c0.4-0.2,0.8-0.7,1-1.1l0.1-0.1l0.1,0.1
						c0.1,0.2,0.4,0.8,0.4,1.6c0.6-0.5,0.9-1,1-1.4l0-0.1l0.1,0.1c0.3,0.2,0.7,0.7,1,1.2c0-0.1,0-0.2,0-0.3c0-0.5-0.1-1-0.2-1.4
						l-0.1-0.2l0.2,0.1c0.6,0.3,1.1,0.9,1.3,1.4c0.2-0.6,0.6-1.5,0.9-1.8l0.1-0.1l0,0.1c0.3,0.6,0.6,1.3,0.7,2
						c0.2-0.5,0.5-1,0.8-1.2l0.1,0l0,0.1c0.3,0.5,0.3,1.3,0.2,1.9c0.3-0.4,0.8-0.8,1.1-1l0.1-0.1l0,0.1c0,0.2,0.1,0.7,0,1
						c0.4-0.4,0.9-1.4,1.1-1.9l0-0.1l0.1,0c0.6,0.3,1.2,1.3,1.3,1.9c0.5-0.2,1.2-0.9,1.5-1.4l0.2-0.3v0.3c0,0.1,0,0.2,0,0.3
						c0,0.3,0.1,0.8,0,1.2c0.1-0.2,0.3-0.4,0.4-0.6c0-0.1,0.1-0.1,0.1-0.2l0.1-0.1l0.1,0.1c0.2,0.4,0.1,1.3-0.1,1.9
						c0.4-0.3,0.9-0.5,1.2-0.5h0.1l0,0.1C255.6,60.2,254.8,61.9,254.5,62.4L254.5,62.4z M232.1,60.1l1.1,0.1
						c8.8,0.5,17.1,0.9,21.3,2.1c0.3-0.5,1-2,0.9-2.9c-0.3,0-0.8,0.2-1.2,0.6L254,60l0.1-0.3c0.1-0.5,0.3-1.4,0.2-1.9c0,0,0,0,0,0
						c-0.2,0.3-0.4,0.6-0.6,0.9l-0.2,0.2l0.1-0.3c0.1-0.5,0.1-1.1,0.1-1.5c0,0,0-0.1,0-0.1c-0.4,0.5-1.1,1.1-1.5,1.3l-0.1,0l0-0.1
						c0-0.5-0.6-1.5-1.2-1.8c-0.2,0.6-0.9,1.8-1.3,2l-0.2,0.1l0-0.2c0.1-0.3,0.1-0.8,0-1.1c-0.3,0.2-0.9,0.7-1.1,1.1l-0.2,0.3
						l0.1-0.3c0.1-0.5,0.1-1.5-0.1-2c-0.3,0.2-0.6,0.8-0.8,1.2l-0.3,0.5l0-0.4c0-0.7-0.3-1.5-0.6-2.2c-0.3,0.3-0.7,1.3-0.8,1.9
						l-0.1,0.3l-0.1-0.3c-0.1-0.6-0.5-1.1-1.2-1.5c0.1,0.3,0.1,0.8,0.1,1.2c0,0.3,0,0.6,0.1,0.8l-0.2,0c-0.2-0.7-0.7-1.3-1.1-1.6
						c-0.2,0.5-0.8,1.1-1.2,1.5l-0.2,0.2l0-0.2c0.1-0.7-0.1-1.3-0.2-1.6c-0.3,0.4-0.8,1-1.1,1.1l-0.1,0l0-0.1
						c-0.1-1.2-0.8-2.2-1.1-2.6c-0.5,0.2-0.8,1-0.9,1.7l0,0.2l-0.1-0.2c-0.2-0.3-0.6-0.6-0.9-0.8c-0.2-0.1-0.3-0.3-0.5-0.4
						c-0.3,0.4-0.5,1.8-0.6,2.6l0,0.5l-0.1-0.4c-0.2-0.5-1-1.3-1.5-1.7c-0.2,0.8,0.1,2.1,0.1,2.2l0.1,0.5l-0.3-0.5
						c-0.3-0.6-1.3-1.2-1.8-1.4c0,0.3,0,0.9,0.1,1.4c0,0.2,0,0.3,0.1,0.4l0,0.2l-0.2-0.2c-0.3-0.3-1-0.6-1.4-0.6h0
						C231.4,59,231.8,59.8,232.1,60.1"/>
					<path class="st6" d="M247.1,36.3c0-0.3,0.7-1.1,2-1.1c1.6,0,3.1,1.2,4.3,1.1c1.3-0.1,0.6,0.3,0.4,0.4c-0.3,0.1-0.4,0.3-0.3,0.5
						c0.1,0.2-0.1,0.3-0.6,0.1c-1.1-0.4-2.3,0.2-3.8-0.2C247.9,37,247.1,36.8,247.1,36.3"/>
					<path class="st6" d="M233.4,62.9c-1.4,1.6-2.7,1.4-3,0.3c-0.3-1,0.7-1.5,0.4-2.4c-0.4-0.9,0.6-1.3,1-0.9
						c0.4,0.4,1.9-0.9,2.5,0.4c0.6,1.3,1.1,2.3,0.8,2.8C234.8,63.7,233.7,63.4,233.4,62.9"/>
					<path class="st7" d="M231.5,64.1c-0.6,0-1-0.3-1.1-0.9c-0.1-0.5,0.1-0.9,0.2-1.3c0.2-0.4,0.3-0.7,0.1-1.1
						c-0.1-0.3-0.1-0.6,0-0.8c0.1-0.2,0.4-0.3,0.6-0.3c0.2,0,0.4,0.1,0.5,0.2c0.1,0.1,0.4,0,0.7-0.1c0.3-0.1,0.5-0.1,0.8-0.1
						c0.5,0,0.8,0.2,1,0.7l0.1,0.3c0.6,1.2,1,2.1,0.6,2.6c-0.1,0.2-0.4,0.3-0.7,0.3c-0.4,0-0.9-0.2-1.1-0.5
						C232.8,63.7,232.1,64.1,231.5,64.1 M231.4,59.8c-0.2,0-0.4,0.1-0.5,0.3c-0.1,0.1-0.2,0.3,0,0.7c0.2,0.5,0,0.9-0.1,1.2
						c-0.2,0.3-0.3,0.7-0.2,1.2c0.1,0.5,0.5,0.8,1,0.8c0.6,0,1.2-0.4,1.8-1.1l0.1-0.1l0.1,0.1c0.2,0.3,0.6,0.5,1,0.5
						c0.3,0,0.5-0.1,0.6-0.3c0.3-0.5-0.1-1.3-0.6-2.5l-0.1-0.3c-0.2-0.4-0.5-0.6-0.8-0.6c-0.3,0-0.5,0.1-0.8,0.1
						c-0.4,0.1-0.7,0.2-0.9,0C231.7,59.8,231.6,59.8,231.4,59.8"/>
					<path class="st6" d="M239.2,60.4c-0.3-0.6,1.2-1.7,1.9-0.9c0.7,0.8,1.9-0.9,2.5,0.4c0.6,1.3,0.8,2,1.2,2.7
						c0.3,0.7-1.7,1.1-2.3,0.5c0.1,0.4-1.8,0.8-2.2-0.5C239.9,62,239.6,61.2,239.2,60.4"/>
					<path class="st7" d="M241.5,63.5c-0.7,0-1.2-0.3-1.5-0.9c-0.1-0.2-0.2-0.5-0.3-0.7c-0.2-0.5-0.4-1-0.6-1.5
						c-0.1-0.2,0-0.4,0.1-0.6c0.2-0.3,0.7-0.7,1.2-0.7c0.3,0,0.5,0.1,0.7,0.3c0.1,0.1,0.3,0.2,0.4,0.2c0.2,0,0.4-0.1,0.6-0.2
						c0.2-0.1,0.5-0.2,0.7-0.2c0.3,0,0.6,0.2,0.7,0.5c0.4,0.8,0.6,1.4,0.9,1.9c0.1,0.3,0.2,0.5,0.3,0.7c0.1,0.1,0.1,0.3,0,0.4
						c-0.2,0.3-0.9,0.5-1.4,0.5c-0.4,0-0.7-0.1-1-0.3c0,0,0,0,0,0C242.3,63.4,241.9,63.5,241.5,63.5 M240.5,59.3
						c-0.4,0-0.9,0.3-1.1,0.6c-0.1,0.2-0.1,0.3-0.1,0.5c0.2,0.5,0.4,1,0.6,1.5c0.1,0.2,0.2,0.5,0.3,0.7c0.3,0.7,1.1,0.8,1.3,0.8
						c0.4,0,0.7-0.1,0.7-0.2c0,0,0-0.1,0-0.1l-0.1-0.3l0.2,0.2c0.2,0.2,0.5,0.3,1,0.3c0.5,0,1.1-0.2,1.2-0.4c0.1-0.1,0.1-0.2,0-0.3
						c-0.1-0.2-0.2-0.5-0.3-0.7c-0.2-0.5-0.4-1.1-0.8-1.9c-0.2-0.4-0.4-0.5-0.6-0.5c-0.2,0-0.4,0.1-0.6,0.2
						c-0.2,0.1-0.5,0.2-0.7,0.2c-0.2,0-0.4-0.1-0.6-0.3C240.9,59.4,240.7,59.3,240.5,59.3"/>
					<path class="st6" d="M248.6,61.2c-0.3-0.6,1.3-1.5,2.2-0.4c0.2-0.5,1.8-0.6,2,0.8c0.1,1.4,0.2,2.2,0.2,2.7c0,0.5-1,1-1.7-0.3
						c-1.3,0.3-1.9-0.5-2.1-1.3C248.9,61.9,248.8,61.6,248.6,61.2"/>
					<path class="st7" d="M252.3,64.9c-0.3,0-0.7-0.1-1.2-0.9c-1.1,0.2-1.9-0.3-2.1-1.3c-0.2-0.8-0.3-1.2-0.5-1.5
						c-0.1-0.1-0.1-0.3,0-0.5c0.2-0.3,0.7-0.5,1.1-0.5c0.4,0,0.8,0.2,1.1,0.5c0.1-0.2,0.4-0.3,0.7-0.3c0.6,0,1.2,0.3,1.3,1.2
						c0.1,0.8,0.1,1.4,0.1,1.9c0,0.3,0,0.6,0.1,0.8c0,0.1,0,0.3-0.1,0.4C252.7,64.9,252.5,64.9,252.3,64.9 M251.2,63.9L251.2,63.9
						c0.3,0.6,0.7,0.9,1.1,0.9c0.2,0,0.3-0.1,0.4-0.2c0.1-0.1,0.1-0.2,0.1-0.3c0-0.2,0-0.5-0.1-0.8c0-0.5-0.1-1.1-0.1-1.9
						c-0.1-0.8-0.6-1.1-1.1-1.1c-0.3,0-0.6,0.1-0.7,0.3l-0.1,0.1l-0.1-0.1c-0.3-0.4-0.7-0.5-1-0.5c-0.5,0-0.9,0.2-1,0.5
						c-0.1,0.1-0.1,0.2,0,0.3c0.2,0.4,0.3,0.8,0.5,1.6c0.1,0.4,0.4,1.3,1.5,1.3C250.8,64,251,63.9,251.2,63.9L251.2,63.9z"/>
					<path class="st8" d="M234.3,60.3c-0.2-0.5,1.2-1.4,2.1-0.7c0.9,0.7,2.2-0.6,2.7,0.6c1.1,2.4,1.2,2.6,0.8,3.1
						c-0.3,0.5-1.8,0.3-2.1-0.4c-0.1,0.4-1.3,0.4-2,0C235.1,62.6,234.6,61.1,234.3,60.3"/>
					<path class="st7" d="M239.2,63.7c-0.5,0-1.1-0.2-1.4-0.5c-0.1,0.2-0.4,0.2-0.7,0.2c-0.4,0-0.9-0.1-1.3-0.3
						c-0.7-0.4-1.2-1.8-1.6-2.7l0-0.1c0-0.1,0-0.2,0.1-0.4c0.2-0.3,0.7-0.6,1.3-0.6c0.3,0,0.6,0.1,0.8,0.3c0.2,0.1,0.4,0.2,0.7,0.2
						c0.2,0,0.4,0,0.6-0.1c0.2,0,0.4-0.1,0.6-0.1c0.4,0,0.7,0.2,0.9,0.6c1.1,2.5,1.2,2.7,0.8,3.2C239.9,63.6,239.6,63.7,239.2,63.7
						 M237.8,62.7l0.1,0.2c0.2,0.4,0.8,0.6,1.3,0.6c0.3,0,0.6-0.1,0.7-0.2c0.3-0.4,0.3-0.6-0.8-3c-0.2-0.4-0.4-0.5-0.8-0.5
						c-0.2,0-0.4,0-0.6,0.1c-0.2,0-0.4,0.1-0.6,0.1c-0.3,0-0.5-0.1-0.8-0.2c-0.2-0.2-0.4-0.2-0.7-0.2c-0.5,0-1,0.3-1.2,0.6
						c0,0.1-0.1,0.2,0,0.2l0,0.1c0.3,0.8,0.8,2.2,1.5,2.6c0.3,0.2,0.8,0.3,1.2,0.3c0.4,0,0.6-0.1,0.6-0.2L237.8,62.7z"/>
					<path class="st8" d="M243.8,60.4c-0.3-0.7,1.8-1.3,2.7-0.1c0.5-0.4,1.5-0.4,2.1,0.9c0.6,1.3,0.7,2.1,0.3,2.4
						c-0.3,0.2-1.4,0.4-1.8-0.2c-0.5,0.3-2,0-2.4-0.8C244.4,61.7,244.1,61,243.8,60.4"/>
					<path class="st7" d="M248,63.9c-0.4,0-0.7-0.1-0.9-0.4c-0.1,0.1-0.3,0.1-0.6,0.1c-0.7,0-1.6-0.3-1.9-1
						c-0.3-0.9-0.6-1.6-0.9-2.2c-0.1-0.1,0-0.3,0-0.4c0.2-0.3,0.7-0.5,1.2-0.5c0.6,0,1.2,0.2,1.5,0.7c0.2-0.1,0.4-0.2,0.7-0.2
						c0.6,0,1.1,0.4,1.5,1.2c0.6,1.4,0.7,2.1,0.2,2.5C248.7,63.8,248.3,63.9,248,63.9 M247.1,63.3L247.1,63.3
						c0.2,0.4,0.6,0.4,0.9,0.4c0.3,0,0.7-0.1,0.8-0.2c0.4-0.3,0.3-1-0.3-2.3c-0.3-0.7-0.8-1.1-1.3-1.1c-0.2,0-0.5,0.1-0.6,0.2
						l-0.1,0.1l-0.1-0.1c-0.3-0.4-0.8-0.7-1.4-0.7c-0.5,0-1,0.2-1.1,0.4c-0.1,0.1-0.1,0.2,0,0.3c0.3,0.6,0.6,1.3,0.9,2.2
						c0.2,0.6,1.1,0.9,1.7,0.9C246.7,63.4,246.9,63.4,247.1,63.3L247.1,63.3z"/>
					<path class="st8" d="M252.7,61.7c0-0.6,1.1-0.9,1.5,0c0.4,0.9,1.8,0.1,1.9,1.6c0,0.3-0.2,1.4-0.6,2c-0.4,0.5-2.5,0-2.7-1.2
						C252.8,63,252.7,62.3,252.7,61.7"/>
					<path class="st7" d="M255,65.6c-0.2,0-0.4,0-0.7-0.1c-0.6-0.2-1.4-0.6-1.4-1.3c0-0.1,0-0.2,0-0.3l0,0c0-0.4-0.4-0.6-0.8-0.9
						c-0.5-0.3-1.1-0.7-1.1-1.5h0.2c0,0.7,0.5,1,1,1.3c0.3,0.2,0.5,0.3,0.7,0.5c-0.1-0.7-0.1-1.2-0.1-1.7c0-0.3,0.2-0.6,0.5-0.6
						c0.4-0.1,0.9,0,1.2,0.6c0,0,0,0,0,0.1c0.2,0.3,0.5,0.4,0.8,0.4c0.5,0.1,1,0.2,1.1,1.2c0,0.3-0.1,1.4-0.6,2
						C255.5,65.5,255.3,65.6,255,65.6 M253.4,61.2c-0.1,0-0.1,0-0.2,0c-0.2,0.1-0.4,0.2-0.4,0.5l0,0c0,0.6,0.1,1.3,0.2,2.4
						c0.1,0.6,0.8,1,1.3,1.2c0.5,0.1,1,0.1,1.2-0.1c0.4-0.5,0.6-1.6,0.6-1.9c-0.1-0.8-0.5-0.9-1-1c-0.2,0-0.4-0.1-0.6-0.2
						c0.1,0.2,0.1,0.5,0.1,0.8l-0.2,0c0-0.5-0.1-0.8-0.2-1.1c0,0,0,0,0-0.1C254,61.4,253.7,61.2,253.4,61.2 M251.1,64
						c-0.4-0.7-0.9-1.3-1.4-1.5l0.1-0.1c0.5,0.2,1,0.9,1.4,1.6L251.1,64z M247,63.4l-0.1-0.2c-0.2-0.4-0.4-0.7-0.5-1l0.2,0
						c0.1,0.3,0.3,0.6,0.5,0.9l0.1,0.2L247,63.4z M242.3,63.1c-0.4-0.3-0.8-0.7-1.1-1.2l0.1-0.1c0.2,0.4,0.7,0.9,1,1.1L242.3,63.1z
						 M237.7,63c-0.3-0.4-0.7-1-0.8-1.5l0.2,0c0.1,0.5,0.5,1.1,0.8,1.5L237.7,63z M244.7,63c-0.5-0.1-1.1-0.8-1.2-1
						c-0.3-0.3-0.8-1.1-1.5-1.1l0-0.2c0.8,0.1,1.4,0.8,1.6,1.2c0.3,0.4,0.8,0.9,1.1,1L244.7,63z M233.4,62.9l-0.1-0.1
						c-0.3-0.4-0.7-0.9-1.1-0.9l0,0c-0.2,0-0.5,0.2-0.7,0.5l-0.1-0.1c0.3-0.4,0.5-0.5,0.8-0.5l0,0c0.5,0,0.9,0.6,1.2,1l0.1,0.1
						L233.4,62.9z M247,61.4c-0.2-0.4-0.4-0.7-0.6-1l0.1-0.1c0.3,0.4,0.5,0.7,0.6,1.1L247,61.4z"/>
				</g>
			</g>
		</g>
	</g>
</g>
</svg>
