<?xml version="1.0" encoding="utf-8"?>
<!-- Generator: Adobe Illustrator 22.1.0, SVG Export Plug-In . SVG Version: 6.00 Build 0)  -->
<svg version="1.1" xmlns="http://www.w3.org/2000/svg" xmlns:xlink="http://www.w3.org/1999/xlink" x="0px" y="0px"
	 viewBox="0 0 300 300" style="enable-background:new 0 0 300 300;" xml:space="preserve">
<style type="text/css">
	.st0{clip-path:url(#SVGID_2_);}
	.st1{clip-path:url(#SVGID_2_);fill:#120065;}
	.st2{display:none;clip-path:url(#SVGID_2_);fill:#C9002B;}
	.st3{clip-path:url(#SVGID_4_);fill:#120065;}
	.st4{clip-path:url(#SVGID_4_);fill:#FFFFFF;}
	.st5{clip-path:url(#SVGID_4_);fill:#BC0030;}
	.st6{clip-path:url(#SVGID_4_);}
	.st7{clip-path:url(#SVGID_6_);fill:#99C2FD;}
	.st8{clip-path:url(#SVGID_6_);}
	.st9{fill:#FFFFFF;}
	.st10{clip-path:url(#SVGID_6_);fill:#4968C5;}
	.st11{clip-path:url(#SVGID_6_);fill:#58340C;}
	.st12{clip-path:url(#SVGID_6_);fill:#FCFF2C;}
	.st13{clip-path:url(#SVGID_6_);fill:#C0601C;}
	.st14{clip-path:url(#SVGID_6_);fill:#4BB917;}
	.st15{clip-path:url(#SVGID_6_);fill:#59DA62;}
	.st16{clip-path:url(#SVGID_6_);fill:#FFFFFF;}
	.st17{clip-path:url(#SVGID_6_);fill:#DB0037;}
	.st18{clip-path:url(#SVGID_8_);fill:#419E4B;}
	.st19{clip-path:url(#SVGID_8_);fill:#BC0030;}
	.st20{clip-path:url(#SVGID_8_);fill:#F3D02F;}
	.st21{clip-path:url(#SVGID_8_);}
	.st22{clip-path:url(#SVGID_8_);fill:#FFFFFF;}
	.st23{clip-path:url(#SVGID_10_);fill:#7ECCFC;}
	.st24{clip-path:url(#SVGID_10_);fill:#FFFFFF;}
	.st25{clip-path:url(#SVGID_10_);}
	.st26{clip-path:url(#SVGID_10_);fill:#F3D02F;}
	.st27{clip-path:url(#SVGID_12_);fill:#FFFFFF;}
	.st28{clip-path:url(#SVGID_12_);}
	.st29{clip-path:url(#SVGID_14_);fill:#FCFF2C;}
	.st30{clip-path:url(#SVGID_14_);}
	.st31{clip-path:url(#SVGID_14_);fill:#EA0020;}
	.st32{clip-path:url(#SVGID_14_);fill:#8FCDDE;}
	.st33{clip-path:url(#SVGID_14_);fill:#FFFFFF;}
	.st34{clip-path:url(#SVGID_14_);fill:#C9002B;}
	.st35{clip-path:url(#SVGID_14_);fill:#150079;}
	.st36{clip-path:url(#SVGID_14_);fill:#7D7D7D;}
	.st37{clip-path:url(#SVGID_14_);fill:#479DC1;}
	.st38{clip-path:url(#SVGID_14_);fill:#B06F61;}
	.st39{clip-path:url(#SVGID_14_);fill:#38873B;}
</style>
<g id="Layer_2">
</g>
<g id="Layer_1">
	<g>
		<defs>
			<rect id="SVGID_1_" y="-0.1" width="300" height="300"/>
		</defs>
		<clipPath id="SVGID_2_">
			<use xlink:href="#SVGID_1_"  style="overflow:visible;"/>
		</clipPath>
		<g id="Layer_2_1_" class="st0">
		</g>
		<rect x="-1" y="-0.7" class="st1" width="302" height="301.4"/>
		<rect x="-8" y="-7" class="st2" width="327" height="69.5"/>
		<g class="st0">
			<g>
				<defs>
					<rect id="SVGID_3_" width="347" height="202.4"/>
				</defs>
				<clipPath id="SVGID_4_">
					<use xlink:href="#SVGID_3_"  style="overflow:visible;"/>
				</clipPath>
				<rect class="st3" width="347" height="202.4"/>
				<polygon class="st4" points="152.1,0 100.9,25.5 100.9,0 72.1,0 72.1,25.5 20.9,0 0,0 0,10.5 36.6,28.9 0,28.9 0,57.8 
					36.6,57.8 0,76.2 0,86.7 20.9,86.7 72.1,61.2 72.1,86.7 100.9,86.7 100.9,61.2 152.1,86.7 173.3,86.7 173.3,76.2 136.5,57.8 
					173.3,57.8 173.3,28.9 136.5,28.9 173.3,10.5 173.3,0 				"/>
				<polygon class="st5" points="159.6,0 101.8,28.9 115.6,28.9 173.3,0 				"/>
				<polygon class="st5" points="173.3,86.7 115.6,57.8 129.5,57.8 173.3,79.8 				"/>
				<polygon class="st5" points="0,6.9 44,28.9 57.9,28.9 0,0 				"/>
				<polygon class="st5" points="57.8,57.8 0,86.7 13.8,86.7 71.7,57.8 				"/>
				<polygon class="st5" points="78.3,0 78.3,34.9 0,34.9 0,51.8 78.3,51.8 78.3,86.7 95.2,86.7 95.2,51.8 173.3,51.8 173.3,34.9 
					95.2,34.9 95.2,0 				"/>
				<g class="st6">
					<defs>
						<rect id="SVGID_5_" width="347" height="202.4"/>
					</defs>
					<clipPath id="SVGID_6_">
						<use xlink:href="#SVGID_5_"  style="overflow:visible;"/>
					</clipPath>
					<path class="st7" d="M288.9,85.2c-0.1,19.7-3.2,40.9-28.6,51c-25.5-10.1-28.6-31.3-28.6-51H288.9z"/>
					<g class="st8">
						<path class="st9" d="M260.3,136.8l-0.2-0.1c-25.4-10.1-29-30.7-29-51.5l0-0.6h58.5l0,0.6c-0.1,20.8-3.6,41.5-29,51.5
							L260.3,136.8L260.3,136.8z M232.2,85.8c0.1,20.1,3.7,40,28,49.7c24.3-9.7,27.9-29.6,28-49.7H232.2L232.2,85.8z"/>
					</g>
					<path class="st10" d="M260.3,136.2c11.5-4.6,18.5-11.4,22.7-19.4c-0.6,0-1.9,0-2.5-0.1c-0.6,0-24.4-2.4-27.2-3.5
						c-2.4-0.9-11.8,0.8-16.2,2.3C241.1,124,248.1,131.4,260.3,136.2L260.3,136.2z"/>
					<path class="st11" d="M242.4,124c0.4-0.1,1.1-0.1,1.4,0c0.3,0.1,0.4,0.1,0.5-0.3c0.1-0.4,0.4-0.3,0.6-0.1
						c0.2,0.2,0.8,0.1,1-0.2c0.2-0.3,0.3-0.3,0.5-0.1c0.2,0.2,0.3,0.2,0.5,0.1c0.2-0.1,0.6-0.3,0.8-0.7c0.2-0.3,0.5-0.5,0.6-0.3
						c0.2,0.2,0.3,0.3,0.5,0.2c0.2,0,0.3,0.2,0.3,0.5c0,0.3,0.1,0.3,0.6-0.1c0.5,0.5,0.6,0.3,0.6-0.2c0-0.5-0.1-2.3-0.3-2.6
						c-0.2-0.3-0.4-1-0.4-1.5c-0.1-1.1-0.1-1.1-1.4-1.8c0-0.4-0.1-0.5-1-0.5c0-0.1-0.1-0.5-0.3-0.7c-0.2-0.2-0.2-0.2-0.1-0.7
						c0.4,0,0.8,0,1-0.3c0.2-0.3,0.9-0.3,1.4-0.1c0.4,0.2,1,0.2,1.8,0.1c0.3-0.3,0.8-0.5,1.4-0.8c0.6-0.3,0.7-0.4,0.8-0.9
						c0.1-1.1-0.3-2.4-0.6-3c-0.3-0.6-0.4-1.3-0.8-2.3c-0.5-1-0.5-1.3-1-1.9c-0.1-0.2-0.3-0.3-0.3-0.7c0-0.3-0.2-0.8-0.5-1.2
						c-0.9-0.9-1.3-3.7-1.7-5.7c-0.2-1.2-0.1-4-0.6-4.4c-0.8-0.7-1.3-0.6-1.8-0.8c-0.4-0.6-0.6-1.7-1-2.7c-0.6,0.1-1,0.7-1.4,0.9
						c-0.4,0.2-0.5,0.2-0.5,0.8c0,0.6-0.3,1.3-0.9,2.2c-0.6,0.9-1.5,0.6-2.3,1.9c-1.7-2.1-1.8-2.7-1.9-3.3c-0.1-0.6-0.4-0.7-1.4-1.6
						c0-0.3-0.1-1.3,0-1.8c-0.7-0.6-1.2-0.5-1.6-0.1c-0.3,0.4-0.6,1.1-1.1,1.4c-0.3,0.4-1.3,1.4-2.1,2.6
						C232.6,104.5,235.1,115.3,242.4,124L242.4,124z"/>
					<path class="st12" d="M288.9,85.2c0-7.4-0.4-14.6-0.2-20.9c-9.5-4.3-22-5.1-28.4-5.1c-6.4,0-18.9,0.9-28.4,5.1
						c0.2,6.3-0.2,13.5-0.2,20.9H288.9z"/>
					<g class="st8">
						<path class="st9" d="M289.5,85.8H231l0-0.6c0-3.2,0.1-6.4,0.1-9.5c0.1-4.1,0.2-7.9,0.1-11.4l0-0.4l0.4-0.2
							c10.8-4.8,24.7-5.2,28.7-5.2c4,0,17.9,0.4,28.7,5.2l0.4,0.2l0,0.4c-0.1,3.6,0,7.4,0.1,11.4c0.1,3.1,0.1,6.3,0.1,9.5
							L289.5,85.8L289.5,85.8z M232.2,84.6h56.1c0-3-0.1-6-0.1-8.8c-0.1-3.9-0.2-7.6-0.1-11.1c-10.5-4.6-23.9-4.9-27.8-4.9
							c-3.9,0-17.3,0.4-27.8,4.9c0.1,3.5,0,7.2-0.1,11.1C232.3,78.6,232.2,81.6,232.2,84.6L232.2,84.6z"/>
					</g>
					<path class="st13" d="M233.2,93.8c0.3,0.5,0.9,1.4,0.9,1.8c0.2-0.5,0.4-0.7,0.4-0.9c0-0.3,0.4-0.8,0.3-1.1
						c-0.1-0.3-0.2-0.5,0.1-0.3c0.3,0.2,0.3,0.6,0.2,1.2c-0.2,1.5-0.8,1.9-0.9,2.9c0.9,2.2,0.2,3,1.2,5.1c0.2,0.1,0.6-0.1,0.7,0
						c0.5-0.4,0.9-0.2,1.7-0.1c0.7,0.2,1.2,0.7,1.2,1.2c0,0.5,0,0.6,0.2,0.9c0.2,0.3,0.5,0.7,0.4,1c-0.1,0.3,0.1,0.5,0.2,0.7
						c0.1,0.2,0,0.5-0.1,0.7c-0.1,0.2-0.1,0.5,0.3,1c0.4,0.5,1.3,2.4,1.3,3.6c0,1.2,0.1,1.7,0.5,1.9c0.5,0.2,0.6,0.4,0.6,0.9
						c-0.1,0.5,0.2,3.1,0.3,3.5c0.1,0.4,0.2,0.3,0.4,0.5c0.2,0.2,0.3,0.5,0.9,0.5c0.6,0,1.2-0.1,1.6,0c0.6,0.8,0.9,1.8,1,2.5
						c0.1,0.7,0.1,1.6,0.3,1.6c0.2,0,0.4,0,0.4-0.8c-0.1-0.8-0.1-0.9-0.4-1.3c-0.3-0.4-0.4-0.6-0.3-0.8c0.2-0.3,0.2-0.7,0.1-1
						c-0.1-0.3-0.2-0.8,0.4-0.2c0.5,0.6,0.7,0.8,0.8,1c0.2,0.2,0.2,0.6,0.2,1c0,0.4,0,0.5,0.3,0.3c0.2-0.2,0.5,0.1,0.4,0.5
						c-0.1,0.4,0,0.7,0.4,0.8c0.4,0.1,0.5,0.2,0.6,0.5c0.1,0.3,0.4,0.4,0.4-0.2s-0.2-1.8-0.4-2.1c-0.2-0.4-0.3-1.2-0.3-1.7
						c0-0.5-0.1-0.6-0.3-0.7c-0.2-0.1-0.4-0.3-0.4-0.5c0-0.2-0.2-0.3-0.4-0.3c-0.1,0-0.3-0.1-0.3-0.3c-0.1-0.2-0.2-0.2-0.3-0.2
						c-0.2,0-0.4,0.1-0.5-0.2c-0.1-0.3-0.2-0.6-0.4-0.8c-0.2-0.2-0.3-0.3-0.3-1c0-0.7,0-0.8-0.3-1.1c-0.2-0.3-0.6-0.9-0.7-1.2
						c-0.2-0.3-0.3-0.6-0.3,0c0,0.6,0,0.9,0.4,1.1c0.4,0.2,0.5,0.2,0.3,0.5c-0.2,0.3,0,0.5,0.1,0.8c0.1,0.2,0.2,0.4,0,0.7
						c-0.2,0.2-0.4,0.2-0.4-0.2c0-0.3-0.1-0.8-0.2-1c-0.2-0.3-0.3-0.5-0.5-0.3c-0.2,0.2-0.3,0-0.2-0.2c0.1-0.1,0.1-0.2,0-0.3
						c-0.1-0.1-0.1-0.2,0-0.4c0.2-0.2,0.2-0.3,0.1-0.7c-0.1-0.4-0.8-2.6-1.1-3.1c-0.3-0.5-0.3-0.9,0.1-0.4c0.4,0.5,0.8,0.9,0.8,1.3
						c0,0.4,0.1,0.7,0.3,0.8c0.1,0.2,0.2,0.1,0.3-0.2c0.1-0.3,0.3-0.2-0.1-0.9c-0.4-0.7-1.3-1.8-1.6-3.7c-0.3-2-0.4-3.3-0.7-3.8
						c-0.3-0.5-0.4-0.7-0.4-1.2c0-0.5,0-1-0.2-1.4c-0.2-0.4-0.4-0.4-0.4,0.1c0,0.6,0,1.8,0.2,2c0.2,0.2,0.1,0.8,0,1.1
						c0,0.3-0.5,0.6,0.5,1.2c0.4,0.3,0.3,0.6,0.3,0.8c-0.1,0.2-0.1,0.2-0.4-0.2c-0.2-0.3-0.4-0.6-0.7-0.8c-0.2-0.2-0.3-0.3-0.2-0.8
						c0-0.4,0.1-0.8,0-0.9c-0.1-0.2-0.2,0-0.3,0.2c-0.1,0.3-0.1,0.9-0.3,1.1c-0.1,0.2-0.2,0.1-0.3-0.3c-0.1-0.4,0-1,0.2-1.8
						c0.2-0.7,0.4-1.5,0.2-2.4c-0.2-0.9-0.1-1.2-0.8-2c-0.7-0.8-1.5-1.5-1.9-2.5c-0.3-1-0.4-1.8-0.8-2.3c-0.4-0.4-0.9-1-1.3-1.2
						v-1.4c0-0.3-0.2-0.6-0.6-0.5c-0.4,0.1-0.7,0.4-0.9,0.9c-0.3,0.5-0.4,0.3-0.8,1.1C233.7,92.5,233.2,92.9,233.2,93.8L233.2,93.8z
						"/>
					<path class="st13" d="M235.4,102.9c0.2,0.2,0.5,0.3,0.9,0.1c0.4-0.2,0.8-0.7,1.3-0.2c0.5,0.5,0.8,1.4,0.8,2.1
						c0,0.7,0,2,0.8,2.7c0.8,0.7,1.2,1.5,1.2,2.4c0,0.9,0.4,2.4,0.5,2.7c0.1,0.4,0.3,0.8,0.6,1.1c0.3,0.3,0.4,1,0.5,1.7
						c0,0.8-0.1,1.3,0,1.7c0.1,0.4,0,0.7-0.3,0.5c-0.3-0.2-0.4-0.3-0.5-0.6c-0.2-0.3-0.3-0.3-0.2,0.2c0.2,0.5,0.6,0.9,1,0.9
						s0.5,0.1,0.8,0.3c0.2,0.3,0.3,0.4,0.7,0.4c0.4,0,0.5,0,0.9,0.1c0.4,0.1,0.4,0.1,0.6,0c0.2-0.1,0.4,0.1,0.6,0.5
						c0.2,0.4,0.5,1.5,0.5,1.8s0,0.6,0.2,0.9c0.2,0.3,0.2,0.6-0.1,0.4c-0.3-0.2-0.3-0.1-0.4-0.1c-0.2,0-0.3-0.1-0.6-0.2
						c-0.2-0.2-0.1-0.1-0.3-0.5c-0.3-0.4-0.4-0.5-0.4-0.2s0,0.6-0.2,0.5c-0.2-0.2-0.3-0.2-0.4,0c-0.2,0.2-0.2,0.3-0.4,0
						c-0.2-0.3-0.4-0.3-0.6-0.4c-0.2-0.1-0.2-0.1-0.3-0.3c-0.1-0.3-0.4-0.3-0.6-0.3c-0.3,0-0.4-0.1-0.4-0.3c0-0.2-0.2-0.3-0.3-0.4
						c-0.1-0.1-0.1-0.3-0.1-0.5c0-0.2-0.2-0.1-0.3-0.2c-0.1-0.1-0.2,0-0.2-0.3s-0.1-0.4-0.2-0.6c-0.1-0.2,0-0.4,0.1-0.7
						c0.1-0.3,0-0.4-0.2-0.6c-0.2-0.2,0-0.4-0.5-0.9c-0.5-0.4-0.8-0.1-0.9-1.1c-0.2-1-0.5-3.2-0.8-3.5c-0.3-0.3-0.5-0.6-0.7-0.7
						c-0.3-0.1-0.5,0-0.5-0.6c0-0.6-0.2-1.3-0.6-1.7c-0.4-0.4-0.5-0.5-0.7-0.7c-0.2-0.2-0.2-0.4,0-1c0.3-0.5,0.2-1.3,0.1-1.6
						c0-0.3-0.1-0.8-0.1-1.2c0.1-0.4,0-0.8-0.1-1.1C235.4,103.2,235.3,103.1,235.4,102.9L235.4,102.9z"/>
					<path class="st13" d="M243,94c-0.4,0.5-0.9,1-1.5,1.4c-0.6,0.4-1.3,0.8-0.9,1.5c0.4,0.7,0.8,0.8,0.8,1.3c0.1,0.5,0.2,1,0.6,1.1
						c0.4,0.1,0.6,0,0.6,0.9c0,0.9,0,1.2,0.4,1.5c0.4,0.3,0.3,0.7,0.5,1.5c0.2,0.8,0.2,2.5,0.7,3.7c0.5,1.2,1.6,3.4,1.5,3.8
						c-0.1,0.5-0.3,0.8,0.2,1.3c0.5,0.5,0.8,1.3,0.9,1.8c0,0.5,0.1,0.6,0.6,0.5c0.5-0.2,0.8-0.3,0.9-0.5c0.2-0.2,0.5-0.2,1,0.1
						c0.5,0.3,1.2,0.5,1.6,0.3c0.4-0.3,0.6-0.6,1-0.6c0.6-0.4,0.8-1.3,0.9-1.5c0.1-0.3,0-0.3-0.2-0.5c-0.3-0.3-0.1-0.7-0.2-1.1
						c0-0.4-0.2-1-0.7-2c-0.5-0.9-0.8-2-1.1-2.3c-0.3-0.3-0.5-1-0.5-1.3c0-0.3-0.4-0.6-0.7-0.9c-0.3-0.3-0.5-0.6-0.8-2.1
						c-0.3-1.5-0.5-2.5-0.5-2.8s0-0.3-0.3-0.4c-0.3-0.1-0.4-0.5-0.3-0.7c0.1-0.2-0.1-0.4-0.2-0.7c-0.1-0.3,0-0.7,0.2-1
						c0.2-0.3,0.1-1,0-1.5c-0.2-0.6-0.3-1.1-1-1.2c-0.7-0.1-0.8-0.3-1-0.8c-0.3-0.5-0.5-1.5-0.6-1.7c-0.1-0.2-0.2-0.3-0.7,0.2
						c-0.5,0.4-0.7,0.6-0.7,1.3c0,0.5,0.1,0.7,0.3,1c0.2,0.3,0.2,0.4,0.3,1.2c0.1,0.8,0.8,2-0.1,2.8c-0.9,0.7-0.8,0.9-0.7,1.4
						c0,0.5-0.2,0.8-0.4,0.1c-0.2-0.7,0-1.1,0.5-1.5c0.5-0.3,1-0.7,0.6-1.2c-0.3-0.5-0.5-1.5-0.5-2C243.3,93.8,243.3,93.7,243,94
						L243,94z"/>
					<path class="st14" d="M235.5,104.7c0,0.3,0.1,0.7,0.1,1c0,0.3,0.1,1.1-0.1,1.6c-0.2,0.5-0.2,0.8,0,1c0,0,0,0,0,0
						c0.5-0.2,0.6-0.7,0.4-1c-0.1-0.3-0.1-0.6,0.1-0.9c0.2-0.3,0.2-0.5,0-0.7c-0.1-0.2-0.1-0.2,0-0.8
						C236.2,104.4,235.8,104.4,235.5,104.7L235.5,104.7z"/>
					<path class="st14" d="M240.9,112.8c-0.1-0.4-0.4-1.8-0.5-2.7c0-0.9-0.4-1.7-1.2-2.4c-0.6-0.6-0.7-1.5-0.8-2.2
						c-0.5-0.3-0.7-0.2-0.6,0.4c0,0.6,0.6,0.8,0.5,1.7c-0.1,0.8-0.1,0.6,0.3,1c0.4,0.4,0.5,0.8,0.3,0.9c-0.2,0.2-0.2,0.5,0.1,0.6
						c0.3,0.1,0.3,0.4,0.3,0.7c0,0.3,0.2,0.4,0.4,0.6c0.2,0.2,0.2,0.7,0,1c-0.2,0.3-0.2,0.8,0.1,0.5c0.3-0.3,0.4,0,0.6,0.4
						c0.2,0.3,0.4,0.2,0.6,0.1C241,113.1,240.9,112.9,240.9,112.8L240.9,112.8z"/>
					<path class="st14" d="M244.9,120.1c-0.2,0.4-0.4,0.3-0.6,0.1c-0.2-0.2-0.4-0.2-0.3-0.5c0.1-0.3,0.1-0.4-0.2-0.6
						c0,0-0.1,0-0.1-0.1c-0.1,0-0.2,0-0.3,0c-0.4,0-0.5-0.1-0.7-0.4c-0.1-0.1-0.1-0.1-0.2-0.1c0,0.1,0,0.1,0,0.2
						c0,0.3,0,0.3-0.4,0.4c-0.3,0.1-0.3-0.3-0.3-0.6c0-0.1,0-0.1-0.1-0.2c-0.4-0.1-0.8-0.5-0.9-0.9c-0.2-0.5,0-0.5,0.2-0.2
						c0.2,0.3,0.2,0.4,0.5,0.6c0.3,0.2,0.4-0.1,0.3-0.5c0-0.1,0-0.3,0-0.4c-0.1-0.1-0.2-0.2-0.3-0.3c-0.5-0.2-0.4-0.3-0.3-0.7
						c0-0.4-0.1-0.4-0.4-0.2c-0.3,0.2-0.3,0-0.3-0.7s-0.4-0.6-0.5-0.2c-0.1,0.4-0.2,0.2-0.4-0.5c-0.2-0.6-0.4-0.8-0.5-0.2
						c0,0.5-0.2,0.6-0.5,0.3c0.1,0.4,0.1,0.7,0.2,1c0.2,1,0.4,0.7,0.9,1.1c0.5,0.4,0.3,0.7,0.5,0.9c0.2,0.2,0.2,0.4,0.2,0.6
						c-0.1,0.2-0.2,0.5-0.1,0.7c0.1,0.2,0.2,0.3,0.2,0.6s0.1,0.3,0.2,0.3c0.1,0,0.2,0,0.3,0c0.1-0.1,0.2-0.2,0.2-0.3
						c0.4-0.4,0.9,0,1.1,0.5c0.2,0.5,0.4,0.6,0.7,0.2c0.3-0.4,0.2-0.3,0.5,0c0.3,0.3,0.4,0.3,0.4,0.3s0.3-0.1,0.5,0.1
						c0.2,0.2,0.3,0.2,0.7-0.4C245.7,119.5,245.1,119.7,244.9,120.1L244.9,120.1z"/>
					<path class="st14" d="M246.1,102.9c0.1-0.9,0-1.8,0.4-2.2c0.4-0.3,0.8-1,0.8,0.4c0,1.4-0.1,1.3-0.4,1.7c-0.3,0.3-0.5,0.4-0.2,1
						c0.3,0.5,0.3,0.6,0.3,1.4c0,0.8,0,1.2,0.3,1.6c0.3,0.4,0.4,0.5,0.5,0.9c0.1,0.5,0.4,1.1,0.7,1.4c0.4,0.3,0.8,1.3,0.8,2
						c0,0.7,0.6,0.8,1.2,1.3c0.5,0.5-0.1,0.8-0.5,0.6c-0.4-0.2-0.2,0-0.5,0.3c-0.3,0.3-0.3,0.3-0.5-0.2c-0.2-0.5-0.9-0.8-1.2-1
						c-0.3-0.1-0.6-0.7-0.9-1.2c-0.3-0.5-0.8-0.8-1.2-0.8c0.1,0.3,0.2,0.6,0.2,0.8c-0.1,0.5-0.3,0.8,0.2,1.3
						c0.5,0.5,0.8,1.3,0.9,1.8c0,0.5,0.1,0.6,0.6,0.5c0.5-0.2,0.8-0.3,0.9-0.5c0.2-0.2,0.5-0.2,1,0.1c0.5,0.3,1.2,0.5,1.6,0.3
						c0.4-0.3,0.6-0.6,1-0.6c0.6-0.4,0.8-1.3,0.9-1.5c0.1-0.3,0-0.3-0.2-0.5c-0.3-0.3-0.1-0.7-0.2-1.1c0-0.4-0.2-1-0.7-2
						c-0.5-0.9-0.8-2-1.1-2.3c-0.3-0.3-0.5-1-0.5-1.3c0-0.3-0.4-0.6-0.7-0.9c-0.3-0.3-0.5-0.6-0.8-2.1c-0.2-1.1-0.4-2-0.5-2.5
						c-0.3,0.5-0.5,0.6-0.6,0.3c-0.1-0.4-0.3-0.6-0.5-0.3c-0.2,0.3-0.2-0.2-0.2-0.4c0-0.2,0-0.3-0.3-0.3c-0.2,0,0-0.3-0.1-1
						s-0.2-0.7-0.3,0c-0.1,0.8-0.5,1.2-0.3,1.4c0.2,0.2,0.1,0.5-0.1,1c-0.2,0.5-0.1,0.8,0,1.1c0.1,0.3-0.1,1-0.2,1.5
						C245.5,103.3,245.9,103.8,246.1,102.9L246.1,102.9z"/>
					<path class="st14" d="M238.4,95.4c-0.3,0-0.5,0.3-0.4,1.2c0.1,0.6-0.3,0.5-0.5,0.2c-0.2-0.3-0.3-0.9-0.6-1.5
						c-0.3-0.5-0.2,0.4-0.2,0.9c0,0.5,0.3,0.5,0.6,0.9c0.3,0.4,0,0.6-0.3,0.6c-0.3,0-0.2,0.7-0.1,1.1c0.1,0.5-0.1,0.5-0.3,0.2
						c-0.3-0.4-0.1-1,0-1.7c0-0.7,0.1-0.5-0.4-0.7c-0.5-0.2-0.4-0.2-0.2-0.7c0.2-0.4,0.3-0.6,0.1-0.8c-0.2-0.2-0.2-0.3,0.2-0.4
						c0.3,0,0.2-0.3,0.5-0.4c0.3-0.1,0.4,0,0.5-0.5c0-0.5,0.2-0.7,0.5-0.6C238,94,238.2,95.1,238.4,95.4L238.4,95.4z"/>
					<path class="st14" d="M242.6,100.3c0,0.9,0,1.2,0.4,1.5c0.4,0.3,0.3,0.7,0.5,1.5c0.2,0.8,0.2,2.5,0.7,3.7
						c0.2,0.4,0.4,0.8,0.6,1.3c0.3-0.2,0.5-0.6,0.6-0.8c0.1-0.3-0.3-0.9-0.5-1.4c-0.3-0.5,0-0.7,0.3-1.3c0.3-0.6,0-0.7-0.5-0.8
						c-0.5-0.2-0.5-0.6-0.7-1.3c-0.3-0.7-0.2-1,0-1.3c0.2-0.4,0-0.7-0.3-0.8c-0.3-0.1-0.3-0.3-0.1-0.8c0.1-0.4,0.2-0.5-0.3-0.4
						c-0.4,0.1-0.5,0.2-0.6,0.3C242.6,99.9,242.6,100.1,242.6,100.3L242.6,100.3z"/>
					<path class="st11" d="M247.4,102.1c0,0.5,0,0.8-0.2,0.9c-0.1,0.2,0,0.4,0.1,0.7c0.1,0.3,0.2,0.6,0.1,1c-0.1,0.5,0.1,0.8,0.3,1
						c0.3,0.1,0.4,0,0.3,0.6c-0.1,0.6,0.3,1.2,0.5,1.5c0.3,0.3,0.5,0.7,0.5,0.9c0,0.3,0.2,0.5,0.5,0.6c0.3,0.1,0.3,0.2,0.3,0.3
						c0,0.2,0.1,0.2,0.5,0.3c0.3,0.1,0.6,0.3,1,0.8c0.4,0.5,0.9,0.7,0.8,0.2c-0.1-0.5,0-0.8-0.5-1.1c-0.5-0.3-0.9-1.5-1.1-2.3
						c-0.2-0.8-0.9-2-1.3-2.2c0-0.6,0-0.9-0.3-1.2c-0.4-0.3-0.5-0.7-0.5-1c0-0.3-0.2-0.7-0.4-0.8c-0.2-0.1-0.3-0.3-0.3-0.5
						C247.8,101.6,247.5,101.6,247.4,102.1L247.4,102.1z"/>
					<path class="st15" d="M245.2,124.5c0.8-0.1,2.8-0.7,3-0.8c0.5,0.3,1.4,0.8,1.8,0.8c-0.7,0.2-1.2,0.1-1.4-0.1
						c0.1,0.2,0.4,0.6,0.5,0.6c-0.7,0-1.5-0.2-1.7-0.4C246.8,124.8,245.8,124.8,245.2,124.5L245.2,124.5z"/>
					<path class="st15" d="M246.6,125.4c0.3,0.1,1.6,0.3,1.8,0.3c-0.4,0.4-0.1,0.7,0.7,0.7c-0.4,0-0.7,0.2-0.5,0.2
						c0.6,0.1,2.4-0.3,2.7-0.5C250.7,126.8,247.8,127.5,246.6,125.4L246.6,125.4z"/>
					<path class="st15" d="M247.8,127.3c0.4-0.2,1.2-0.1,1.7,0.1C249,127.6,248,127.6,247.8,127.3L247.8,127.3z"/>
					<path class="st8" d="M249.1,127.3c0.6-0.1,2.5,0.3,3.1-0.1c-0.2,0.6-1.4,0.7-1.8,0.5c-0.4-0.1-0.8-0.3-1-0.3
						C249.6,127.4,249.3,127.4,249.1,127.3L249.1,127.3z"/>
					<path class="st15" d="M249.8,128.2c0.5,0.1,2.2-0.1,2.8-0.3c0.6,0.2,1.7,0.5,1.9,0.5c-0.5,0.3-1.5,0.1-1.9,0
						C251.6,128.6,250.9,128.7,249.8,128.2L249.8,128.2z"/>
					<path class="st15" d="M250.6,128.5c0.7,0.2,1.3,0,2-0.2c0.2,0.1,0.7,0.2,1.2,0.2c0.3,0.2,0.7,0.4,1.1,0.5c-0.4,0.2-2,0-2.3-0.2
						c-0.8,0-2.1,0.2-2.5,0.5C250.1,129,250.3,128.7,250.6,128.5L250.6,128.5z"/>
					<path class="st8" d="M249.8,124.9c0.5,0.2,2.5,0.1,3.5-0.4c0.4-0.2,0.6,0.1,0.2,0.3c-1.6,0.6-2.9,0.8-3.9,0.3
						C249.2,124.9,249.2,124.7,249.8,124.9L249.8,124.9z"/>
					<path class="st15" d="M259.4,122.3c-2.4,1.1-4,1.5-7.4,0.4c-0.3-0.1-0.5,0-0.2,0.2c0.4,0.2,2.2,0.7,2.6,0.7
						c0.4,0,0.3,0.2,0,0.3s-0.3,0.3,0,0.1c0.4-0.1,2.4-0.2,3.2,0.2c0.4,0.2,0.4,0.2,0.4,0c0-0.1,0.2-0.2,0.4-0.3
						c0.3,0,0.4-0.1,0.2-0.2c-0.2-0.1-0.2-0.1-0.1-0.2c0.2-0.1,0.2-0.2-0.1-0.2c-0.2,0-0.4-0.1-0.2-0.2c0.2-0.1,0.5-0.2,0.8-0.2
						C259.3,122.9,259.2,122.4,259.4,122.3L259.4,122.3z"/>
					<path class="st8" d="M255.4,122.5c1.4,0.1,3.9-0.5,5.3-1.8c0.5,0.3,1.1,0.6,1.5,0.7c0.3,0.1,0.7,0.4,0.1,0.4
						c-0.5,0-1.3-0.2-1.6-0.4c-1.8,1.1-3.9,1.5-5.2,1.3C255,122.7,254.9,122.5,255.4,122.5L255.4,122.5z"/>
					<path class="st15" d="M251.3,115c0.5,0.3,1.3,0.9,2.4,0.8c0.5,0.4,1.4,0.8,1.7,0.9c-0.7,0.3-1.5,0.6-1.7,0.8
						c-0.3-0.3-0.7-0.3-0.9-0.4c-0.3,0.3-0.3,0.4-0.1,0.5c0.2,0.1,1.8,0.4,2.2,0.3c0.4-0.1,0.5,0.2,0.2,0.3c-0.8,0.3-2.5,0-3.1-0.9
						c-0.6-0.9-1-1.3-2.6-0.4c-0.2-0.4-0.2-0.5-0.5-0.5c-0.3,0-0.8-0.4-0.4-0.4C249,116,250.3,115.8,251.3,115L251.3,115z"/>
					<path class="st15" d="M251.7,117.1c-0.3,0.1-1,0.5-1.3,0.5c-0.3,0-0.7,0.4-0.3,0.4c0.5,0,1.1-0.5,1.4-0.6
						C252,117.4,252,117,251.7,117.1L251.7,117.1z"/>
					<path class="st15" d="M253.2,118.6c-0.2,0-1,0.2-1.2,0.2c-0.2,0-0.4,0-0.4,0.2c0,0.2,0.1,0.3-0.3,0.2c-0.3,0-0.6,0.1-0.7,0.2
						c-0.1,0.1-0.1,0.2,0.2,0.2c0.3,0,0.5,0.1,0.9-0.1c0.4-0.2,0.7-0.4,1.1-0.5C253.2,119.1,253.6,118.6,253.2,118.6L253.2,118.6z"
						/>
					<path class="st8" d="M252.1,119.6c0.3,0.2,2,0.8,2.6,0.8c0.6,0,0.5,0.3,0,0.3c-1,0.2-2.1-0.2-2.9-0.8
						C251.4,119.5,251.8,119.4,252.1,119.6L252.1,119.6z"/>
					<path class="st15" d="M260.1,120.4c-1.3,0.4-2.6,0.3-3.1,0.1c-0.5-0.1-1-0.2-0.7,0.2c0.4,0.3,1.5,0.6,2.2,0.4
						c-2.3,0.5-2.9,0.5-3.5,0.4c-0.6-0.1-1.7-0.1-2.1,0c-0.3,0-0.8,0-1-0.1c-0.2-0.1-0.3-0.4,0.3-0.3c0.6,0.1,0.7-0.1,0.2-0.1
						c-0.5-0.1-1.3,0.1-0.5,0.6c0.7,0.5,2.3,0,3.3,0.3c1,0.3,3.1,0.5,5.1-1.1C260.3,120.5,260.5,120.3,260.1,120.4L260.1,120.4z"/>
					<path class="st15" d="M253.7,118.5c0,0.2,0,0.3,0,0.4c0,0.1,0,0.3,0.2,0.1c0.2-0.2,0.3-0.3,0.5-0.2c0.2,0.1,0.7,0.1,1,0.1
						c0.2,0,0.3-0.1,0-0.2c-0.4-0.1-0.7-0.2-0.9-0.2c-0.2,0-0.4,0-0.6-0.1C253.7,118.3,253.7,118.4,253.7,118.5L253.7,118.5z"/>
					<path class="st15" d="M257.1,119.1c-0.3,0-0.7-0.2-1-0.3c-0.3-0.1-0.6-0.1-0.3,0.2c0.3,0.4,1.4,0.6,1.8,0.4
						c0.4-0.2,0.2-0.4,0.6-0.1c0.4,0.3,0.8,0.4,1.1,0.4c0.3,0,0.4,0,0.1-0.2c-0.3-0.2-0.5-0.2-0.5-0.4c0-0.2-0.1-0.3,0.2-0.2
						c0.3,0.1,0.6,0.3,0.9,0.1c0.2-0.1,0.7-0.4,1.1-0.4l0.1-0.2c-0.6,0-0.9,0.1-1.1,0.2c-0.2,0.1-0.4,0.1-0.7,0
						c-0.3,0-0.7-0.1-0.8-0.2c-0.1-0.1-0.1-0.1,0.2-0.2c0.2-0.1,0.3-0.2,0-0.2c-0.3,0.1-1.3,0-1.8-0.1c-0.5-0.2-0.7-0.2-0.9-0.1
						c-0.2,0.1-0.2,0.3,0.1,0.3c0.3,0,1,0.1,1.2,0.3c0.2,0.2,0.2,0.2-0.1,0.1C257,118.7,256.6,118.8,257.1,119.1L257.1,119.1z"/>
					<path class="st15" d="M261.1,118.6l-0.1,0.2c0.6,0,2,0.1,2.4,0.4c0.4-0.3,0.4-0.5,0.7-0.4c0.3,0.1,0.7,0.2,0.9,0.1
						c0.2-0.1,0.3-0.1,0.5,0c0.2,0,0.6,0,0.8-0.2c0.2-0.1,0.7-0.3,1-0.3c0.3,0,0.6-0.1,0.1-0.1c-0.5-0.1-1.3,0.1-1.6,0.2
						c-0.3,0.1-1.1,0.2-1.5,0.2c-0.5,0-1.1,0.2-1.6,0.1C262.2,118.5,261.5,118.6,261.1,118.6L261.1,118.6z"/>
					<path class="st8" d="M268.4,118.3c-0.9,0.7-2.1,0.9-3.4,0.9c-0.4,0-0.3,0.1,0.1,0.2c1.4,0.1,3-0.4,3.6-0.9
						C268.8,118.3,268.7,118,268.4,118.3L268.4,118.3z"/>
					<path class="st15" d="M262,119.9c0.4,0,1.8,0.4,2.3,0.5c0.3,0,0.4-0.1,0.4-0.2c-0.1-0.1-0.1-0.3,0.5-0.2c0.6,0,2.1,0,2.3,0
						c0.2-0.1,0.7-0.5,0.9-0.5c-0.6,0-2.9,0.2-3.2,0.1c-0.3,0-0.5,0-0.6,0.1c-0.2,0.1-0.3,0.2-0.5,0.1c-0.2-0.1-0.7-0.2-0.9-0.1
						C262.9,119.8,262.4,119.7,262,119.9L262,119.9z"/>
					<path class="st15" d="M267.5,120c0.2-0.1,0.7-0.5,0.9-0.5c0.4,0,0.9,0.1,1.1,0.2c0.2,0,0.4,0,0.3-0.2c-0.2-0.2,0-0.5,0.6-0.4
						c0.6,0.1,1,0.2,1.6,0.1c0.6-0.1,0.9,0.4,2.1-0.1c-0.1,0.5,0.1,0.5,0.4,0.4c0.2-0.1,0.5-0.1,0.8,0.2c0.4,0.3,2.7,0.3,3.2,0.2
						c0.5-0.1,0.8,0.2,0.4,0.3c-0.4,0.1-0.5,0.3-0.4,0.4c0.1,0.1,0.2,0.3-0.3,0.2c-0.5-0.1-0.6,0.1-0.8,0.3c-0.3,0.2-0.3,0.3-1,0.1
						c-0.7-0.1-0.8,0-1.2,0c-0.4,0.1-0.5,0.1-0.8-0.1c-0.4-0.1-1.2-0.3-1.7-0.1c-0.5,0.2-0.9,0.3-1.3,0.2c-0.4-0.1-0.5-0.1-0.2-0.4
						c0.3-0.3,0.4-0.2,0.9-0.3c0.5-0.1,0.9-0.2,0.6-0.4c-0.4-0.2-0.5-0.2-1,0.1c-0.5,0.3-0.7,0.4-1.3,0.1c-0.6-0.3-0.8-0.3-1.2-0.2
						C268.6,120.4,268,120.2,267.5,120L267.5,120z"/>
					<path class="st15" d="M269.4,120.9c-0.7,0.1-0.9-0.4-1.7-0.3c-0.3,0-0.7,0.3-0.1,0.3c0.6,0,1.2,0.3,1.8,0.2
						C269.9,121.1,269.7,120.9,269.4,120.9L269.4,120.9z"/>
					<path class="st15" d="M268.5,121.5c0.4-0.1,1.2,0.1,1.5,0.1c0.3-0.1,0.6,0.1,0.3,0.3c-0.4,0.1-1.2-0.2-1.6-0.1
						C268.4,121.8,268,121.6,268.5,121.5L268.5,121.5z"/>
					<path class="st15" d="M261,123.5c0.5,0,2.4-0.1,3.1-1.6c0.1-0.1,0.1-0.2,0.4,0c0.2,0.2,1.1,0.7,2.7,0.8c0.5,0,0.9,0.3,0,0.2
						c-0.9-0.1-2.3-0.3-2.8-0.6c-0.8,1.3-2.3,1.4-3.4,1.4C260.4,123.6,260.6,123.5,261,123.5L261,123.5z"/>
					<path class="st15" d="M265.1,121.3c-0.3,0.3-1.1,0.9-1.5,1c-0.4,0-1.6-0.1-1.9-0.2c-0.3-0.1-0.7-0.1-0.2,0.2
						c0.4,0.3,1.5,0.5,1.9,0.4c0.4-0.1,0.9-0.2,1.2,0c0.3,0.2,0.9,0.6,1.3,0.5c0.4-0.1,1.1-0.1,1.3,0c0.2,0.1,0.6,0.4,0,0.3
						c-0.6-0.2-1.1,0-1.4-0.2c0.3,0.4,1,1.1,1.6,1.1c0.1,0,0.2,0.3-0.1,0.4c0.3,0.1,1,0.2,1.3-0.1c-0.1,0.1,0,0.2,0.1,0.3
						c0.2,0.1,0.3,0.2,0.1,0.2c-0.3,0-0.9,0.1-1.1,0c0.6,0.4,2.2,1,3.8,0.7c0.3-0.1,0.5-0.2,0-0.2c-1,0-1.1,0-1.3-0.1
						c-0.2-0.1-0.2-0.2,0.1-0.3c0.3-0.1,1-0.2,1.4-0.2c0.3,0,0.6-0.1,0-0.1c-0.6,0-1.4,0-1.7-0.1c-0.3-0.1-0.6-0.3-0.2-0.5
						c0.3-0.2,0.7-0.2,0.8-0.4c-1,0-2.3-0.6-1.6-1.1c0.2-0.1,0.1-0.1-0.2-0.2c-0.3,0-1-0.3-1.4-0.4c-0.3-0.2-0.1-0.3,0.2-0.4
						C267.1,122.3,265.9,122,265.1,121.3L265.1,121.3z"/>
					<path class="st15" d="M274.3,121.3c-0.6,0.4-1.6,0.6-2.1,0.6c-0.5,0-0.5,0.2-0.2,0.2c0.4,0,0.7,0.1,0.9,0c0.2,0,0.3-0.1,0.5,0
						c0.2,0.1,0.7,0.2,1.2,0c0.4-0.1,1.2-0.2,1.5-0.2c0.3,0,0.6,0,0-0.1c-0.6-0.2-1.6,0-1.8,0c-0.2,0.1-0.9,0-0.5-0.1
						c0.4-0.1,0.6-0.3,0.8-0.4C274.4,121.4,274.4,121.3,274.3,121.3L274.3,121.3z"/>
					<path class="st15" d="M274,122.5c-0.5,0.4-1.2,0.7-1.9,0.7c0.7,0.2,1.2,0.9,1.6,0.9c-0.2,0.1-0.5,0.3-0.7,0.3
						c0.4,0.1,1.1,0,1.7-0.3c0.9,0.3,2.2,0.1,2.6-0.3c-0.6,0-1.3-0.2-1.7-0.5c0.3,0,0.6-0.2,0.7-0.4
						C275.5,123.2,274.3,122.8,274,122.5L274,122.5z"/>
					<path class="st15" d="M273,124.5c0.3,0,0.5-0.2,0.7-0.3c-0.5,0.2-2.8-0.2-3.4-0.8c-0.7-0.6-0.7-0.1-0.2,0.3
						C270.5,124.1,271.3,124.7,273,124.5L273,124.5z"/>
					<path class="st15" d="M274.6,125.9c-0.3,0.2-1.6,0.3-2.1,0.2c-0.4-0.1-0.6,0-0.5,0.1c0.1,0.2,0.2,0.3-0.2,0.3
						c-0.4,0-1,0-1.3,0.1c-0.3,0.1-0.6,0.3,0,0.2c0.6-0.1,1.1-0.2,1.5-0.1c0.4,0.1,1.9,0.1,2.2,0c0.3-0.1,0.1-0.1,0-0.1
						c-0.1,0-0.2-0.1,0-0.2C274.4,126.4,274.6,126.1,274.6,125.9L274.6,125.9z"/>
					<path class="st15" d="M261.6,124.1c-0.6,0.3-2.4,0.8-2.9,0.8c-0.6,0.3-1.1,0.4-1.4,0.4c0.2,0.2,1.1,0.4,1.4,0.3
						c-0.2,0.2-0.6,0.4-0.8,0.5c0.5-0.1,1.1,0.1,1.3,0.1c-0.7,0.4-1.6,0.5-2,0.4c0.2,0.2,0.4,0.4,0.7,0.4c-0.6,0.2-1.3,0.2-1.7,0
						c0.2,0.3,0.3,0.5,0.5,0.5c-0.5,0.1-1.1,0.2-1.7-0.2c0.4,0.5,1.3,0.7,2.7,0.6c1.3-0.2,2.5-0.8,2.8-1c-0.6,0.1-1.3,0.1-1.7,0
						c0.7-0.2,2.4-0.9,2.7-1.2c-0.3,0-0.6-0.1-0.8-0.2c0.4,0.1,2-0.1,2.4-0.3c-0.6-0.1-0.9-0.5-1.1-0.7c2,0.6,4.2,0.4,5.2,0.2
						c0.3-0.1,0.3-0.4-0.2-0.3c-0.9,0.1-2.6-0.2-3-0.4c0.4,0.3,0.9,0.5,1.3,0.6C264.4,124.9,263.3,125,261.6,124.1L261.6,124.1z"/>
					<path class="st15" d="M257.8,126.1c0.2-0.1,0.6-0.3,0.8-0.5c-0.3,0.1-1.2-0.1-1.4-0.3c0.3,0,0.8-0.2,1.4-0.4
						c-1.1,0-1.9,0-2.3-0.3c-0.4-0.2-1.2-0.2-1.4-0.1c-0.3,0.1-0.2,0.5,1,0.4c-0.5,0.3-1.8,0.5-2.3,0.3c0.1,0.4,0.2,0.8,0.1,1
						c0.7,0.4,2.4,0.8,3.2,0.8c-0.7-0.3-1.2-0.6-0.5-0.7C257,126.4,257.3,126.3,257.8,126.1L257.8,126.1z"/>
					<path class="st8" d="M255.9,128.2c1.5-0.1,3.5-0.2,5.1-1.5c0.4-0.3,0.7-0.2,0.3,0.1c-0.8,0.8-2.9,1.8-4.9,1.8
						C255.5,128.6,255.2,128.2,255.9,128.2L255.9,128.2z"/>
					<path class="st15" d="M267.1,125.7c-0.4,0.1-1.4,0.3-1.7,0.3c-0.3,0-0.8-0.1-1,0.1c-0.2,0.2-0.3,0.3,0.1,0.3c0.3,0,0.8,0.1,1,0
						c-0.3,0.2-0.5,0.4-0.5,0.5c0.5-0.1,1.4,0.1,1.7,0.2c-0.2,0.1-0.4,0-0.6-0.1c0.8,0.9,3.3,0.9,3.8,0.7c-0.2,0.1-0.4,0.3-0.5,0.3
						c0.7,0.1,1.5,0.1,2.3-0.4c-0.3,0-1.1,0-1.3,0c0.2-0.2,0.4-0.3,0.6-0.4c-0.3-0.1-1.3,0-1.5,0.1c0.1-0.2,0.3-0.4,0.5-0.5
						c-1.2,0-2.7,0-3.3-0.3c0.9,0.1,1.8-0.4,2.2-0.4C268.1,126.1,267.3,126,267.1,125.7L267.1,125.7z"/>
					<path class="st15" d="M264,126.4c-0.6,0.1-1.5,0.4-1.8,0.5c-0.2,0.1-0.5,0.2,0,0.2c0.5,0,2,0.1,2.4,0.1c-0.8-0.1-2-0.2-2.2-0.2
						c-0.2,0-0.5,0-0.1-0.1C262.8,126.8,263.3,126.5,264,126.4L264,126.4z"/>
					<path class="st15" d="M262.7,127.8c0.2,0,1.2,0,1.5-0.3c0.4,0.3,1.1,0.7,1.6,0.7c0.5,0,0.4,0.1,0,0.2c-0.4,0-1.2-0.2-1.7-0.5
						C263.7,128.1,263.2,127.9,262.7,127.8L262.7,127.8z"/>
					<path class="st15" d="M255.5,132c1,0.4,2.3,0.7,3.2,0.3c0.5,0.5,1.6,0.5,2.2,0.4c0.6-0.1,1.1-0.2,1.8,0c0.7,0.2,2,0.2,2.4,0.5
						c-0.3,0-1.1,0-1.3,0.1c-0.2,0-0.1,0.2,0.2,0.3c-1.1-0.1-2.9,0.4-3.5,0.9c0.2-0.5,0.8-1.1,1.8-1.1c-0.6-0.2-2.4-0.2-2.9,0.1
						c-0.2-0.2-0.4-0.5-0.4-0.6C258.1,133.5,256.2,132.7,255.5,132L255.5,132z"/>
					<path class="st15" d="M253,130.3c1.2-0.2,1.9-0.5,2.3-0.9c0.2,0.2,1,0.4,2,0.1c-0.2,0.1-0.2,0.4-0.1,0.6
						c-0.6,0-1.8,0.3-2.2,0.5c-0.4,0.2-1.5,0.3-1.9,0.1C252.7,130.5,252.7,130.3,253,130.3L253,130.3z"/>
					<path class="st15" d="M257.1,130.1c-0.6,0-1.8,0.3-2.2,0.5c0.1,0.2,0.1,0.4,0.1,0.6c1.1-0.4,3.7-0.7,4.7-0.5
						c-0.5,0-1.4,0.5-1.9,0.6c1.2-0.1,2.4,0.2,2.7,0.2c0.3,0.1,0.4,0.3,0.1,0.5c-0.2,0.2-0.3,0.3,0.2,0.3c0.5,0,1.5,0,2-0.5
						c-0.2-0.2-0.7-0.1-0.8-0.3c0.3-0.1,0.7-0.3,0.8-0.5c-0.8,0-1.2,0-1.4-0.1c-0.3-0.1-0.5-0.1-0.1-0.3c0.3-0.2,0.5-0.3,0.6-0.5
						c-0.6,0.2-1.6,0.3-2.4-0.3c0.3,0.1,1,0,1.3-0.1c-0.3-0.1-0.5-0.2-0.7-0.2c0.6-0.3,1.9-0.6,3.5,0c0.8-0.1,1.6,0,2.2,0.1
						c0.3-0.3,0.8-0.9,1.1-1c-1.8,0.2-5.2-0.2-5.1-1.2c-0.6,0.8-2,1.2-2.6,1.1c-0.1,0.3,0.2,0.6,0.4,0.8c-0.6,0.1-1.7,0.2-2.2,0.1
						c0.3,0.3,0.8,0.5,1.1,0.5C258,130,257.7,130.1,257.1,130.1L257.1,130.1z"/>
					<path class="st15" d="M261,132.3c0.5,0,1.5,0,2-0.5c-0.2-0.2-0.7-0.1-0.8-0.3c0.3-0.1,0.7-0.3,0.8-0.5c1.3-0.1,2.5,0,3.1-0.2
						s2-0.1,2.3-0.2c-1.2,0.2-1.5,0.3-1.6,0.5c-0.1,0.2,0.4,0.4,0.7,0.4c-0.6,0-1.3,0.6-1.3,0.8c-0.7-0.4-1.1,0.1-1.2,0.3
						c-0.3-0.1-1.3-0.1-1.9,0.4c-0.7-0.2-1.1-0.3-1.8-0.2C261.7,132.6,261.6,132.3,261,132.3L261,132.3z"/>
					<path class="st15" d="M267,128.6c0.4,0,1.3,0,1.7,0c-0.2,0.1-0.5,0.3-0.6,0.4c1.1-0.1,2.5-0.2,2.9-0.1
						c-0.5-0.1-1.1,0.3-1.3,0.4c-0.3,0.2-0.1,0.3,0.2,0.3c0.4,0,0.8,0.3,0.2,0.2c-0.7-0.1-2-0.1-2.3,0c-0.3,0-0.5-0.1,0-0.2
						c0.5-0.1,0.8-0.2,1-0.3c-0.4,0.1-1.1,0.1-1.3,0c-0.2-0.1-0.4-0.2-0.1-0.2c0.3-0.1,0.1-0.2-0.2-0.1c-0.3,0-0.9,0.3-1.3,0.7
						C266.3,129.2,266.7,128.8,267,128.6L267,128.6z"/>
					<path class="st8" d="M262.2,129.3c0.5,0.6,1.1,0.9,2.1,0.9c0.2,0,0.6,0.3,0.1,0.3c-1.3,0.1-2-0.3-2.6-1.1
						C261.7,129.2,261.9,129,262.2,129.3L262.2,129.3z"/>
					<path class="st8" d="M270.1,118.4c0.7,0.3,2.1,0.6,3.2,0.6c0.2,0,0.6,0.2,0.1,0.2c-1.2,0.1-2.3-0.1-3.3-0.6
						C269.7,118.4,269.8,118.2,270.1,118.4L270.1,118.4z"/>
					<path class="st15" d="M270.8,118.3c1.1,0,1.9,0,2.2,0.3c0.6-0.2,1.7-0.3,2-0.3c0.3,0,0.5-0.1,0-0.2c-0.6-0.1-1.9-0.2-2.3-0.1
						c-0.4,0.1-1.7,0.1-2.2,0.1C270.5,118.2,270.6,118.2,270.8,118.3L270.8,118.3z"/>
					<path class="st15" d="M274.9,118.8c0.5-0.3,1.9,0,2.4-0.2c-0.3,0.4,1,0.4,2.1,0.1c-0.4,0.3-1.4,0.3-1.8,0.5
						c-0.4,0.2-0.6,0-0.9-0.1C276.4,118.9,275.6,118.6,274.9,118.8L274.9,118.8z"/>
					<path class="st15" d="M279.4,118.7c-1.1,0.3-2.5,0.3-2.1-0.1c-0.4,0.2-1.9-0.1-2.4,0.2c0.5-0.3,0.9-0.1,1.3-0.7
						c0.2,0,0.8,0.1,1-0.2c0.3,0.1,0.9,0.2,1.1,0.4c0.2,0.2,0.4,0,0.2-0.3c0.5-0.2,0.2,0.2,1.4-0.1c0.2-0.1,0.9-0.2,1.1-0.2
						C280.5,118,280,118.4,279.4,118.7L279.4,118.7z"/>
					<path class="st12" d="M257.2,113.4c0-2.4-0.2-22.2-0.2-26.8c0-1.1-0.6-0.9-0.6,0v26.7C256.6,113.3,257,113.4,257.2,113.4
						L257.2,113.4z"/>
					<g class="st8">
						<path d="M257.3,113.5L257.3,113.5L257.3,113.5l-0.3-0.1l-0.6-0.1l-0.1-26.7c0-0.9,0.7-1.1,0.7,0c0,3.2,0.1,14,0.2,20.9
							L257.3,113.5L257.3,113.5z M256.7,86c-0.1,0-0.2,0.2-0.2,0.7v26.7l0.7,0.1l-0.1-5.8c-0.1-6.9-0.2-17.7-0.2-20.9
							C256.9,86.1,256.7,86,256.7,86L256.7,86z"/>
					</g>
					<polygon class="st12" points="265.9,85.2 266.9,113.5 266.7,113.7 266.1,113.7 265.5,85.2 					"/>
					<g class="st8">
						<polygon points="266.1,113.8 266.1,113.7 265.4,85.1 265.9,85.1 266.9,113.5 266.7,113.6 265.8,85.2 266.2,113.6 266.5,113.6 
							266.1,113.8 						"/>
					</g>
					<path class="st12" d="M274.1,109.1c-0.1-2.9-0.4-16.2-0.6-22.8c0-0.9-0.5-0.7-0.5,0c0.1,5.3,0.4,20.1,0.4,22.8
						C273.7,109.1,274,109.1,274.1,109.1L274.1,109.1z"/>
					<g class="st8">
						<path d="M273.7,109.1l-0.3-0.1c-0.1-2.7-0.4-17.5-0.4-22.8c0-0.3,0.1-0.5,0.2-0.6c0.3-0.1,0.5,0.1,0.5,0.6
							c0.1,5,0.3,14,0.5,19.2l0.1,3.5L273.7,109.1L273.7,109.1z M273.3,85.8c-0.1,0.1-0.2,0.3-0.2,0.6c0.1,5.3,0.4,20,0.4,22.7
							l0.2-0.1l0.2-3.5c-0.1-5.2-0.4-14.2-0.5-19.2C273.5,85.9,273.4,85.8,273.3,85.8L273.3,85.8z"/>
					</g>
					<path class="st16" d="M261.1,89.9l-8.3-0.1c-0.5,1.7,1.6,1.7,2.4,1.2c0.9,0.7,1.6,0.6,2.1,0.1c0.7,0.6,1.6,0.4,2,0.1
						C260.3,91.9,261.3,91.1,261.1,89.9L261.1,89.9z"/>
					<g class="st8">
						<path d="M256.4,91.6c-0.4,0-0.8-0.2-1.2-0.5c-0.5,0.4-1.9,0.3-2.3-0.2c-0.2-0.3-0.2-0.6-0.1-1.1l8.4,0.1
							c0.2,0.5,0.1,1-0.2,1.3c-0.4,0.5-1.1,0.5-1.7,0.1c-0.2,0.4-1,0.7-2-0.1C257.1,91.4,256.7,91.6,256.4,91.6L256.4,91.6z
							 M255.1,90.9c1,0.6,1.6,0.7,2.1,0.1c1.1,0.7,1.7,0.4,2,0.1c0.7,0.4,1.2,0.4,1.6-0.1c0.2-0.3,0.3-0.7,0.2-1.1l-8.3-0.1
							c0,0.3,0,0.7,0.2,0.9C253.6,91.6,254.7,91.2,255.1,90.9L255.1,90.9z"/>
					</g>
					<path class="st16" d="M261.7,94.1l-8.5,0c-1.5,1.4,0.4,2.1,2.1,1.1c0.2,0.5,1.2,0.8,2,0.4c0.7,0.6,1.6,0.2,2.1-0.3
						C260.3,95.6,261.3,95.8,261.7,94.1L261.7,94.1z"/>
					<g class="st8">
						<path d="M258.1,95.9c-0.3,0-0.6-0.1-0.8-0.3c-0.5,0.4-1.8,0.1-2-0.4c-0.8,0.7-2.3,0.6-2.6,0c-0.1-0.2-0.1-0.6,0.5-1.2l8.6,0
							c-0.2,1.1-0.7,1.6-1.4,1.6l0,0c-0.3,0-0.6-0.1-1-0.3C259.1,95.6,258.6,95.9,258.1,95.9L258.1,95.9z M257.2,95.5
							c0.8,0.5,1.7,0.1,2.1-0.3c1.5,0.5,2,0.2,2.3-1.1l-8.4,0.1c-0.4,0.4-0.5,0.7-0.4,1c0.2,0.5,1.5,0.5,2.4,0
							C255.6,95.6,256.6,95.8,257.2,95.5L257.2,95.5z"/>
					</g>
					<path class="st16" d="M261.5,99.4l-8.2-0.1c-0.2,1.5,1.5,1.3,2.2,0.9c0.6,1,2,0.7,2.5,0.2c0.8,0.5,1.5,0.4,1.9-0.1
						C260.8,101.1,261.5,100.1,261.5,99.4L261.5,99.4z"/>
					<g class="st8">
						<path d="M256.7,101c-0.6,0-1.1-0.3-1.4-0.7c-0.4,0.4-1.5,0.4-1.9,0c-0.2-0.2-0.3-0.5-0.2-0.9h8.3c0.1,0.4,0,0.8-0.3,1.1
							c-0.2,0.2-0.4,0.3-0.7,0.3l0,0c-0.2,0-0.5-0.1-0.7-0.3c-0.3,0.6-1.2,0.6-1.9,0.1C257.7,100.8,257.2,101,256.7,101L256.7,101z
							 M255.4,100.2c0.5,0.6,1,0.7,1.3,0.7c0.5,0,0.9-0.2,1.2-0.5c0.9,0.4,1.5,0.4,1.9-0.1c0.3,0.2,0.5,0.3,0.7,0.3l0,0
							c0.3,0,0.4-0.1,0.6-0.3c0.2-0.2,0.3-0.6,0.3-0.9l-8.1,0c0,0.3,0.1,0.5,0.3,0.7C254.1,100.7,254.9,100.5,255.4,100.2
							L255.4,100.2z"/>
					</g>
					<path class="st16" d="M261.9,104.7l-9.2-0.2c-0.5,1.6,0.9,1.8,1.6,1.5c0.2,0.9,1.4,0.6,1.8-0.1c0.5,0.5,1.1,0.2,1.3-0.1
						c0.1,0.9,1.2,0.9,2,0.2C261,107.2,262.6,105.9,261.9,104.7L261.9,104.7z"/>
					<g class="st8">
						<path d="M255,106.7c-0.4,0-0.7-0.2-0.8-0.6c-0.2,0.4-1.2,0.2-1.5-0.2c-0.2-0.2-0.3-0.6-0.1-1.3l9.2,0.1
							c0.3,0.4,0.3,0.8,0.1,1.2c-0.2,0.4-0.8,0.7-1.3,0.7l0,0c-0.4,0-0.9-0.2-1.3-0.5c-0.6,0.7-1.9,0.6-2-0.2
							c-0.1,0.4-0.9,0.6-1.3,0.1C255.9,106.4,255.4,106.7,255,106.7L255,106.7z M254.2,106c0.2,0.5,0.6,0.6,0.7,0.6
							c0.4,0,0.8-0.3,1-0.6c0.7,0.3,1.1,0.1,1.4-0.1c0.4,0.8,1.3,0.8,2,0.2c0.5,0.3,0.9,0.4,1.3,0.4l0,0c0.5,0,1-0.2,1.2-0.6
							c0.2-0.3,0.2-0.7,0-1l-9.1-0.1c-0.1,0.4-0.1,0.8,0.1,1.1C253.1,106.1,253.8,106.2,254.2,106L254.2,106z"/>
					</g>
					<path class="st16" d="M270,102.5l-7.6-0.1c0.4,1.6,1.1,2,2.3,1.1c0.9,0.9,2.4,0.6,2.8,0.1C269.1,105,270.1,103.4,270,102.5
						L270,102.5z"/>
					<g class="st8">
						<path d="M268.7,104.3L268.7,104.3c-0.4,0-0.8-0.2-1.3-0.5c-0.3,0.6-2,0.6-2.8-0.1c-1,0.9-2,0.5-2.3-1.1l7.7,0
							c0.1,0.5-0.1,1-0.4,1.4C269.3,104.1,269,104.3,268.7,104.3L268.7,104.3z M267.4,103.6c0.5,0.3,0.9,0.5,1.3,0.5l0,0
							c0.3,0,0.6-0.1,0.8-0.3c0.3-0.4,0.5-0.9,0.5-1.2l-7.6,0c0.5,1.4,1.1,1.8,2.3,0.9C265.6,104.3,267.1,104,267.4,103.6
							L267.4,103.6z"/>
					</g>
					<path class="st16" d="M269.2,97.3l-7.4-0.2c0.1,1.9,1.9,1.8,2.8,1c0.7,0.9,1.9,0.6,2.3,0C268,99,269.5,98.5,269.2,97.3
						L269.2,97.3z"/>
					<g class="st8">
						<path d="M265.8,98.7c-0.5,0-0.9-0.2-1.2-0.6c-0.3,0.4-0.8,0.6-1.3,0.6c-0.9,0-1.4-0.6-1.5-1.6l7.5,0.1c0.1,0.4,0.1,0.7-0.1,1
							c-0.5,0.6-1.5,0.6-2.2-0.1C266.8,98.5,266.3,98.7,265.8,98.7L265.8,98.7z M264.6,98c0.8,0.7,1.9,0.6,2.3,0
							c0.8,0.5,1.6,0.6,2,0.1c0.2-0.2,0.2-0.5,0.2-0.8l-7.3-0.2c0.2,1.3,1.1,1.4,1.4,1.4C263.8,98.6,264.3,98.4,264.6,98L264.6,98z"
							/>
					</g>
					<path class="st16" d="M270.2,91.4h-8c0.1,1.3,1.9,2.1,3.2,0.8c0.4,1.5,1.8,1,2.4,0.4C268.8,93.8,270.9,92.5,270.2,91.4
						L270.2,91.4z"/>
					<g class="st8">
						<path d="M266.6,93.3c-0.6,0-1-0.4-1.2-1.1c-0.5,0.6-1,0.7-1.4,0.7c-0.9,0-1.7-0.7-1.8-1.5l8-0.1c0.3,0.3,0.3,0.7,0.1,1
							c-0.3,0.5-0.9,0.8-1.5,0.8l0,0c-0.4,0-0.8-0.2-1-0.5C267.7,93,267.1,93.3,266.6,93.3L266.6,93.3z M265.4,92.2
							c0.5,1.3,1.8,1,2.4,0.4c0.4,0.4,0.7,0.4,1,0.4l0,0c0.5,0,1.1-0.3,1.3-0.8c0.1-0.2,0.2-0.5,0-0.8l-7.9,0
							c0.1,0.7,0.8,1.3,1.7,1.3C264.3,92.8,264.8,92.7,265.4,92.2L265.4,92.2z"/>
					</g>
					<path class="st16" d="M269.7,87.4l-7.1,0.1c-0.1,1.2,1.6,1.7,2.2,0.7c0.3,0.6,1.5,0.5,1.9,0c0.6,0.9,1.2,0.3,1.5,0
						C269,88.8,269.9,88.5,269.7,87.4L269.7,87.4z"/>
					<g class="st8">
						<path d="M263.9,88.8c-0.4,0-0.8-0.2-1-0.4c-0.2-0.2-0.3-0.5-0.3-0.9l7.2-0.2c0.1,0.5,0.1,0.8-0.1,1c-0.2,0.2-0.4,0.3-0.6,0.3
							l0,0c-0.3,0-0.6-0.1-0.9-0.3c-0.1,0.4-1,0.7-1.5,0c-0.1,0.6-1.5,0.6-1.9,0C264.7,88.6,264.3,88.8,263.9,88.8L263.9,88.8z
							 M269.7,87.4l-7,0.2c0,0.2,0.1,0.5,0.3,0.7c0.5,0.5,1.4,0.5,1.8-0.1c0.6,0.5,1.6,0.5,1.9,0c0.7,0.7,1.2,0.4,1.5,0
							c0.4,0.2,0.6,0.3,0.9,0.3l0,0c0.2,0,0.4-0.1,0.5-0.2C269.6,88,269.7,87.8,269.7,87.4L269.7,87.4z"/>
					</g>
					<path class="st16" d="M278.1,90l-8.7-0.1c0,0.9,0.9,1.3,1.5,0.9c0,0.9,1.2,1.2,2,0.5c0.5,0.8,2.1,1,2.7-0.1
						C276.8,92.3,278.2,91.5,278.1,90L278.1,90z"/>
					<g class="st8">
						<path d="M274.2,92c-0.6,0-1.2-0.3-1.5-0.7c-0.5,0.7-2,0.4-2-0.5c-0.1,0.4-0.9,0.2-1.2-0.1c-0.2-0.2-0.3-0.5-0.3-0.8l8.8,0
							c0.1,0.6,0,1.1-0.3,1.4c-0.5,0.6-1.5,0.6-2.3-0.1C275.3,91.7,274.8,92,274.2,92L274.2,92z M272.8,91.2c0.7,0.8,2.2,0.8,2.7,0
							c0.9,0.6,1.7,0.6,2.2,0.1c0.3-0.3,0.4-0.7,0.3-1.3l-8.6,0c0.1,0.2,0.2,0.4,0.3,0.6c0.3,0.3,0.8,0.4,1.1,0.2
							C271,91.8,272.2,91.8,272.8,91.2L272.8,91.2z"/>
					</g>
					<path class="st16" d="M277.9,97.2l-8.5,0c0.1,1.2,1.4,1.6,2.2,1c0.2,1,1.3,1.1,1.9,0.6c0.8,0.8,2,0.9,2.7,0
						C277.3,99,278,98.1,277.9,97.2L277.9,97.2z"/>
					<g class="st8">
						<path d="M274.9,99.4c-0.5,0-1.1-0.3-1.4-0.7c-0.4,0.5-1.7,0.6-1.9-0.6c-0.4,0.7-2.2,0.3-2.2-1l8.6,0c0.1,0.5,0,1-0.3,1.3
							c-0.2,0.3-0.6,0.4-0.9,0.4l0,0c-0.2,0-0.3,0-0.5-0.1C275.9,99.1,275.5,99.4,274.9,99.4L274.9,99.4z M273.5,98.6
							c0.9,0.8,2.1,0.8,2.7,0c0.2,0,0.4,0.1,0.5,0.1l0,0c0.3,0,0.6-0.1,0.8-0.4c0.3-0.3,0.4-0.7,0.3-1.1l-8.4,0
							c0.2,1,1.5,1.4,2.2,0.8C271.9,98.9,272.9,99.1,273.5,98.6L273.5,98.6z"/>
					</g>
					<path class="st16" d="M277.5,103.6l-6.7-0.1c0,1.2,1.4,1.3,2,0.7c0.7,0.8,1.7,0.8,2.2,0.2C275.9,105.1,277.3,104.9,277.5,103.6
						L277.5,103.6z"/>
					<g class="st8">
						<path d="M276.2,104.9L276.2,104.9c-0.4,0-0.8-0.2-1.2-0.5c-0.4,0.7-1.6,0.6-2.2-0.2c-0.3,0.6-2.1,0.5-2.1-0.8l6.8,0
							C277.4,104.5,276.8,104.9,276.2,104.9L276.2,104.9z M275,104.3c0.4,0.3,0.8,0.4,1.2,0.4l0,0c0.5,0,1.1-0.3,1.2-1.2l-6.7,0
							c0.1,1.1,1.5,1.1,2,0.6C273.5,104.8,274.4,104.9,275,104.3L275,104.3z"/>
					</g>
					<path class="st8" d="M266.7,113.7c-3.6,0.1-7.3,0.1-9.8-0.3c-2.5-0.4-3.3-0.7-5-1.8c-2.6-1.5-3.2-1.9-6.8-4
						c-0.6-0.3-1.2,0.1-0.4,0.6c3.7,2.4,5.1,3.3,6.8,4.4c1.8,1.2,3,2.2,4.1,3.5c1.4,1.6,2.5,1.7,3.2,1.4c0.7-0.3,1.7-0.6,2.7-0.3
						c1,0.3,2.4,0.3,3.1,0.2c0.7,0.6,2.2,0.5,3,0.3c0.8-0.2,1.5-0.3,2.1-0.2c0.6,0.1,1.5,0,2.1-0.1c0.6-0.1,2.2-0.3,3.3-0.1
						c1.1,0.2,2.2,0.1,2.9-0.2c0.7-0.2,2-0.2,2.5,0c0.6-0.5,0.9-1.1,1.1-1.7c0.7-0.1,1-0.2,1.1-0.6c0.3-0.8,0.6-1.6,0.7-1.9h0.3
						l0.1-0.7l-0.6-0.7l0.2-1.3l0.7-0.2c0-0.4-0.2-1-0.3-1.3c-3.9,0.2-7.8,0.3-10.6,0.3c-0.3,0.3-0.7,0.9-0.7,1.3
						c-1.7,0.3-2.7,0.4-3.1,0.5c-0.4,0.1-0.7,0.1-1,0.6C267.7,112.2,267.1,113.1,266.7,113.7L266.7,113.7z"/>
					<g class="st8">
						<path d="M266.2,117.9c-0.5,0-1.2-0.1-1.7-0.5c-0.6,0.2-2.2,0.1-3.1-0.1c-0.9-0.2-2,0.1-2.7,0.3c-1,0.4-2.1-0.1-3.3-1.4
							c-1.2-1.4-2.4-2.4-4.1-3.5l-6.8-4.4c-0.4-0.3-0.4-0.5-0.4-0.6l0-0.1l0.4-0.2c0.1,0,0.3,0,0.4,0.1c3.6,2.1,4.3,2.5,6.8,4
							c1.7,1,2.4,1.4,5,1.7c1.6,0.2,3.7,0.3,6.7,0.3c1,0,2.1,0,3.1,0c0.2-0.3,0.4-0.6,0.6-1c0.3-0.4,0.5-0.8,0.8-1.2
							c0.4-0.5,0.6-0.5,1-0.6c0.3-0.1,0.7-0.1,1.2-0.2l2-0.3c0-0.3,0.3-1,0.7-1.3c2.8-0.1,6.7-0.2,10.6-0.4c0.2,0.3,0.4,1,0.4,1.4
							l-0.7,0.2l-0.2,1.3l0.6,0.6l-0.1,0.8c-0.4,0.4-0.7,1.1-1,1.9c-0.2,0.5-0.4,0.6-1.2,0.7c-0.1,0.7-0.5,1.3-1.1,1.7
							c-0.6-0.1-1.9-0.1-2.5,0c-0.8,0.2-1.9,0.3-3,0.2c-1.1-0.2-2.6,0-3.2,0.1c-0.6,0.1-1.6,0.2-2.1,0.1c-0.6-0.1-1.2,0-2,0.2
							C267.1,117.8,266.6,117.9,266.2,117.9L266.2,117.9z M264.6,117.3c0.8,0.7,2.1,0.5,3,0.3c0.9-0.2,1.5-0.3,2.1-0.2
							c0.5,0.1,1.5,0,2.1-0.1c0.6-0.1,2.2-0.3,3.3-0.1c1,0.1,2.2,0.1,2.9-0.2c0.6-0.2,2-0.2,2.5,0c0.5-0.4,0.8-0.9,1-1.6
							c0.8-0.2,1-0.2,1.2-0.6c0.3-0.8,0.6-1.5,0.7-1.9l0.4-0.7l-0.6-0.7l0.2-1.4l0.7-0.2c0-0.3-0.2-0.9-0.3-1.2
							c-3.9,0.2-7.7,0.3-10.5,0.4c-0.3,0.2-0.6,0.9-0.7,1.3l-2.1,0.4c-0.5,0.1-0.9,0.1-1.1,0.2c-0.5,0.1-0.7,0.1-1,0.6
							c-0.3,0.4-0.6,0.8-0.8,1.2c-0.3,0.4-0.5,0.7-0.7,1c-4.4,0.2-7.8,0-9.9-0.3c-2.6-0.4-3.4-0.8-5-1.8c-2.6-1.5-3.2-1.9-6.8-4
							l-0.6,0c0,0.1,0,0.3,0.3,0.4l6.8,4.4c1.7,1.1,2.9,2.2,4.1,3.5c1.1,1.3,2.2,1.7,3.1,1.4c0.7-0.3,1.8-0.6,2.8-0.3
							C262.4,117.4,263.8,117.4,264.6,117.3L264.6,117.3z"/>
					</g>
					<path class="st8" d="M279.4,108.9c0.2-0.7,0.7-2.5,1.6-5.8c0.2-0.6-0.4-0.8-0.6-0.1c-1.1,3.9-1.5,5.4-1.7,5.9
						C279,108.9,279.3,108.9,279.4,108.9L279.4,108.9z"/>
					<g class="st8">
						<path d="M279.4,109l-0.6-0.1l0.3-0.1L279.4,109l0-0.5c0.2-0.9,0.7-2.6,1.5-5.4l0-0.4l-0.2,0c-0.1,0-0.2,0.1-0.3,0.4l-1.7,5.9
							v-0.1v0.1l-0.1,0l1.7-5.9c0.1-0.3,0.3-0.5,0.5-0.5c0.3,0.2,0.3,0.4,0.3,0.6c-0.8,2.9-1.3,4.6-1.5,5.4L279.4,109L279.4,109z"/>
					</g>
					<path class="st16" d="M285.5,102.3c-1.3,0.7-2,1-2.6,0.7c-0.6-0.2-1.4-0.3-1.9-0.1c0,0.1,0,0.1,0,0.2c-0.6,2.1-1,3.6-1.3,4.5
						c1,0.3,2.7,0.4,3.1,0c0.4-0.4,1.5-0.3,2.1-0.3c0.4-0.5,0.5-1.1,0.4-1.3c-0.1-0.3-0.1-0.8,0.1-1.2
						C285.5,104.4,285.7,103.1,285.5,102.3L285.5,102.3z"/>
					<g class="st8">
						<path d="M261.6,113.7l0.1-0.4h-1l0.1,0.3l-0.2-0.3l-0.1,0.4l0.1-0.4h-0.6l0.1,0.3l-0.1-0.3h-0.4l-0.2,0.3l0.2-0.3h0l0.1,0
							l-0.3,0l0.1,0.3l-0.1-0.3l-0.7,0l0,0.2l0-0.2l-0.1,0l-1-4.3l-0.7-2.9l0.1,0l0.2,0.4l-0.1-0.4l0.1,0l0.1,0.5h0.3l0-0.1l0.1,0
							l0,0.2h0.4l-0.4,0.1l0.1,0.3h0.3l-0.1-0.3l0.1,0l2,5.4l3.9-8.1l0.1,0.1l-0.2,0.3l0.1,0l0.2-0.5l0.1,0.1l-0.2,0.5l0.2,0
							l0.2-0.6l0.1,0l-0.2,0.5l0.1,0l0.1-0.4l0.1,0l-2.6,9.9l1-4.1h-0.6l-0.2,0.6l0.6,0v0.1h-0.6l-0.2,0.5l0.7,0v0.1h-0.7l-0.2,0.7
							l0.7,0v0.1h-0.7l-0.2,0.6l0.8,0v0.1H262l-0.3,0.8l0.8,0v0.1h-0.9L261.6,113.7L261.6,113.7z M259.9,113.3L259.9,113.3l0.7-0.1
							l-0.3-0.7l-0.4,0l0.3,0v0.1h-0.4l-0.1,0.3L259.9,113.3l0.7,0L259.9,113.3L259.9,113.3z M256.4,113.3h-0.1v-0.5h-0.7l0,0.3
							l0-0.3l-0.7,0.2l0-0.2h-0.8l0.2,0l0.1-0.6h-0.6l-0.1,0.4l0.1-0.4h-0.1h0.1l0.1-0.7h0h0l0.1-0.6h0h0l0.1-0.6h0h0l0.8-3.6l0.1,0
							l0,0.1l0.3-0.2l0.1,0l0,0.2l0.2,0l0.1-0.4l0.1,0l-0.1,0.4l0.3,0l0-0.5l0.1,0l0,0.5l0,0v-0.4l0,0.4l0.1,0l-0.1,0.4l0.1,0l0,0.5
							l0,0L256.4,113.3L256.4,113.3z M251.5,111.4c0.1-0.5,0.1-1,0.2-1.6c-0.4,0.4-0.8,0.8-1.2,1.1c0.3-0.4,0.7-0.9,1.2-1.3
							c0.2-1.2,0.4-2.7,0.6-4.1c-1.7,1.7-3.3,3.1-4.4,3.9l-0.1-0.1c1.1-0.8,2.7-2.3,4.5-4c0.3-2.1,0.6-4.3,0.8-5.8l0.1,0
							c-0.2,1.5-0.5,3.6-0.8,5.6c2.1-2,4.3-4.3,6.1-6.4c-0.8-0.4-1.4-0.9-1.6-1.2l0.1-0.1c0.2,0.2,0.8,0.7,1.6,1.1
							c1.4-1.7,2.5-3.3,3-4.4c-0.4,1.1-1.5,2.7-2.9,4.4c0.8,0.4,1.7,0.8,2.2,0.8c-0.5,0-1.5-0.3-2.3-0.7c-1.8,2.2-4.1,4.6-6.2,6.6
							c-0.2,1.5-0.5,2.9-0.7,4.2c0.4-0.4,0.7-0.8,1.1-1.2c0.6-0.7,1.2-1.3,1.7-1.8l0.1,0.1c-0.5,0.5-1.1,1.1-1.7,1.8
							c-0.4,0.4-0.8,0.9-1.2,1.3C251.7,110.3,251.6,110.9,251.5,111.4L251.5,111.4z M270.1,110.8l0.1-0.2l-0.3-0.6l0.1,0l-0.3-0.8h0
							l-0.3-0.8h0l-0.3-0.8h0l-0.3-0.8h0l-0.9-2.8l0.1-0.1l0.1,0.4l0.2,0l-0.1-0.2l0.1-0.1l0.1,0.2l0.2,0l-0.1-0.1l0.1-0.1l0.1,0.2
							l0.3,0l-0.1-0.2l0.1,0.2l0.1,0l0,0.1l0.4,0.7l0.1,0l0,0.2l0.4,0.7l0.1,0v0.1l0.4,0.7l0,0v0.1l0.4,0.7l0.9-2.9l0.5,0l0.1-0.3
							l0.1,0l-0.1,0.3l0.3-0.1l0,0.1h0.3l-0.3,0l-0.2,0.7h0.4l0.1-0.7l0.1,0l-1,5l0.1,0.2l-0.2,0.1l-0.1,0.4l0.1-0.4h-0.6l-0.1,0.3
							l0.1,0.2l-0.1-0.1l0,0.2l-0.1,0l0.1-0.4l0-0.1l-0.6,0l-0.1,0.3l0.1,0.3l-0.1-0.3l-0.1,0.3l0.1-0.3l-0.1-0.2l-0.5,0l-0.1,0.4
							l0,0.2l-0.1-0.2L270.1,110.8L270.1,110.8z M272.2,109.2l0.3,0.5l0.7-3.6l-0.5,0l-0.2,0.7h0.5l-0.5,0l-0.2,0.7h0.5l-0.5,0
							l-0.2,0.7h0.5l-0.5,0l-0.1,0.6L272.2,109.2l0.3,0L272.2,109.2L272.2,109.2z M274.5,109.1c0.3-0.2,0.6-0.4,0.8-0.6l-0.2-0.4h0
							l-0.2-0.6h0l-0.2-0.6h0l-0.6-2l0.1,0l0,0.2l0.3,0l-0.1-0.3l0.1,0l0.1,0.3l0.3,0l-0.1-0.3l0.1,0c-0.8-0.7-1.5-1.5-2.2-2.3
							c-0.5,0.7-1.6,1.2-2,1.3l0-0.1c0.4-0.1,1.5-0.6,2-1.2c-3.3-3.7-6.3-8.1-8.5-11.5l-0.1-0.1c-0.6,0.4-1.4,0.7-1.9,0.9l0-0.1
							c0.6-0.2,1.3-0.5,1.9-0.9l-1.4-2l0.1-0.1l1.4,2c0.4-0.3,0.8-0.6,1.1-0.9c-0.3,0.3-0.6,0.7-1,0.9l0.1,0.1
							c2.3,3.4,5.3,7.8,8.5,11.4c0-0.1,0.1-0.1,0.1-0.2c0,0.1-0.1,0.2-0.1,0.3c0.8,1,1.7,1.9,2.6,2.7l0.2,0v0l0.1,0l0.2,0.5
							c0.5,0.5,1,0.9,1.5,1.3c0.7-0.7,1.3-1.4,1.9-2.1c-0.1-0.1-0.1-0.2-0.2-0.4c-2.9-1.9-5.7-4.9-7.7-7.7c-0.6,0.4-1.3,0.7-1.8,0.9
							l0-0.1c0.5-0.2,1.2-0.5,1.8-0.9c-0.8-1.1-1.5-2.2-2-3.2l0.1-0.1c0.5,1,1.2,2.1,2,3.2c0.6-0.4,1.1-0.8,1.4-1.2
							c-0.3,0.5-0.8,0.9-1.4,1.3c2,2.8,4.7,5.8,7.5,7.8c-1.6-2.9-2.6-6.5-3.9-11l-0.4-1.3l0.5,1.2c1.3,4.6,2.3,8.3,4,11.2
							c0,0,0,0,0.1,0.1c0.2-0.2,0.4-0.5,0.6-0.7l0.1,0.1c-0.2,0.3-0.4,0.5-0.6,0.7c0.1,0.1,0.2,0.1,0.3,0.2c-0.1,0-0.2-0.1-0.3-0.2
							c0,0,0,0.1-0.1,0.1c0.1,0.1,0.2,0.3,0.3,0.4l-0.1,0.1c-0.1-0.1-0.2-0.2-0.2-0.4c-0.6,0.7-1.2,1.4-1.9,2c0.5,0.4,0.9,0.7,1.4,1
							c-0.5-0.3-1-0.6-1.5-1c-0.3,0.3-0.5,0.5-0.8,0.7l0.6,1.6l-0.6-1.6c0,0,0,0,0,0l-0.1,0.1c-0.1,0.1-0.2,0.2-0.3,0.3l0.1,0.2
							l0.5,0v0.1h-0.5l0.2,0.5l0.6,0v0.1h-0.5l0.1,0.3l-0.1-0.3h-0.6l0.1,0.3l-0.1-0.3h-0.7l0.1,0.3l-0.2-0.3l0.1,0l0-0.1
							C275.1,108.7,274.8,108.9,274.5,109.1L274.5,109.1z M276.2,105.3l0.7,1.8c0.2-0.2,0.5-0.5,0.7-0.7
							C277.1,106.1,276.7,105.8,276.2,105.3L276.2,105.3z M281.5,108c-0.6,0-1.3-0.1-1.8-0.3l1.2-4.6c0.6-0.5,1.4-0.3,2-0.1
							c0.6,0.2,1.2,0,2.5-0.7l0.1,0l0,0.1c0.2,0.8,0.1,2.1-0.1,2.5c-0.1,0.4-0.2,0.9-0.1,1.1c0.1,0.3-0.1,0.9-0.4,1.4
							c-0.7,0-1.7-0.1-2.1,0.3C282.7,107.9,282.1,108,281.5,108L281.5,108z M281.7,102.9c-0.2,0-0.5,0-0.6,0.1l-1.2,4.5
							c0.8,0.4,2.5,0.5,2.9,0.1c0.4-0.4,1.4-0.4,2-0.3c0.4-0.4,0.5-1,0.4-1.2c-0.1-0.3-0.1-0.8,0.1-1.2c0.1-0.4,0.3-1.6,0.1-2.3
							c-1.3,0.7-1.9,0.9-2.6,0.7C282.5,102.9,282.1,102.9,281.7,102.9L281.7,102.9z M245.6,107.9c2.4-2.6,6.2-9.3,8.3-14
							c-0.2,0.1-0.4,0.1-0.5,0.2c0.2-0.1,0.3-0.2,0.5-0.3c0.5-1.1,0.9-2.1,1.2-2.9l0.1,0c-0.3,0.8-0.6,1.7-1.1,2.7
							c0.8-0.4,1.7-1,2.2-1.4l0.1,0.1c-0.5,0.4-1.5,1-2.3,1.4C252,98.6,248.1,105.4,245.6,107.9L245.6,107.9z M253.9,104.7l-0.1-0.1
							c0.8-0.2,2-0.9,3.3-1.7c0,0,0,0-0.1,0l0.1-0.1c0,0,0.1,0.1,0.1,0.1c1-0.7,2-1.5,2.7-2.3c-0.6,0.9-1.6,1.7-2.6,2.4
							c1.6,1.1,2.8,1.7,3.7,1.9c-0.9,0-2.2-0.6-3.8-1.8C255.9,103.8,254.7,104.4,253.9,104.7L253.9,104.7z M276.5,103.5
							c-0.9-0.2-2.2-1.4-2.6-2l0.1-0.1C274.5,102.1,275.8,103.2,276.5,103.5L276.5,103.5z M262.7,102.6c0.9-0.4,2-1.5,3-2.4l0.1,0
							l0,0.1C264.8,101.2,263.7,102.3,262.7,102.6L262.7,102.6z M269.6,102.5c-1.3-0.2-2.8-1.7-3.2-2.2l0.1-0.1
							C267.6,101.4,268.8,102.2,269.6,102.5L269.6,102.5z M253.6,99.4l-0.1-0.1c0.6-0.3,1.9-0.9,2.8-1.8
							C255.5,98.5,254.2,99.1,253.6,99.4L253.6,99.4z M268.9,97.2c-0.8-0.2-1.4-0.8-2-1.3c-0.2-0.2-0.5-0.4-0.7-0.6l0.1-0.1
							c0.2,0.2,0.4,0.4,0.7,0.6C267.6,96.4,268.2,96.9,268.9,97.2L268.9,97.2z M262.3,97.2c1.5-0.6,3-1.8,3.4-2.2l0.1,0.1
							C265.3,95.5,263.8,96.7,262.3,97.2L262.3,97.2z M276,97.1c-0.8-0.1-2-1.5-2.3-2l0.1-0.1C274.2,95.5,275.4,96.8,276,97.1
							L276,97.1z M260.5,94c-1.2,0-2.7-1-3.6-1.6l0.1-0.1c0.7,0.5,2.5,1.7,3.8,1.7C260.7,94,260.6,94,260.5,94L260.5,94z
							 M269.3,91.4c-0.9-0.1-2.5-0.9-3.4-1.9l0.1-0.1C266.9,90.4,268.5,91.1,269.3,91.4L269.3,91.4z M270.3,90
							C270.3,90,270.3,90,270.3,90c0.8-0.1,2.1-1.2,2.6-1.7l0.1,0.1C272.6,89,271.2,90,270.3,90L270.3,90z M275.5,89.9
							c-0.6,0-1.6-0.9-2-1.5l0.1-0.1C274.1,88.9,275.1,89.8,275.5,89.9C275.5,89.9,275.5,89.9,275.5,89.9L275.5,89.9z M253.5,89.8
							c0.7-0.4,1.7-1.1,2.8-2.4l0.1,0.1C255.6,88.4,254.5,89.6,253.5,89.8L253.5,89.8z M259.9,89.8c-1,0-2.5-1.2-3.1-2.1l0.1-0.1
							C257.5,88.5,259,89.6,259.9,89.8L259.9,89.8z M262.6,87.6l0-0.1c0.5-0.1,2.1-0.5,2.9-1.7C264.8,87,263.1,87.5,262.6,87.6
							L262.6,87.6z M269.1,87.4c-1,0-2.4-0.9-3.3-1.7l0.1-0.1C266.7,86.1,268.2,87.3,269.1,87.4C269.2,87.4,269.2,87.4,269.1,87.4
							L269.1,87.4z"/>
					</g>
					<path class="st14" d="M256,115.9c1-0.6,2.6-0.5,3.5,0.1c1-0.6,2.8-0.4,3.7,0.3c1.3-0.9,2.4-1,3.6-0.2c1-0.7,2.5-0.8,3.6,0.1
						c1.1-0.5,2.4-1,3.5,0.2c-0.7-0.5-2.1-0.9-3.5,0.2c-1.1-1.1-3-0.7-3.6,0.1c-0.8-1-2.5-1.1-3.6,0.1c-1.1-0.9-2.8-1-3.7-0.3
						C258.8,116,257.7,115.5,256,115.9L256,115.9z"/>
					<path class="st13" d="M273.1,114.6c-5,0.9-15.8,0.3-18.2-0.3c-0.8-0.2-0.6-0.5,0.1-0.3c2.7,0.6,8.6,0.6,11.8,0.5
						c0.6-0.8,1.6-2.2,1.9-2.6c0.3-0.4,0.4-0.4,1.1-0.5c1.1-0.2,1.7-0.3,2.7-0.5c0,0.1,0,0.3,0,0.4c-0.1,0.1-0.2,0.2-0.2,0.2
						c0,0.6,0.1,2.2,0.2,2.8c0.1,0,0.3-0.1,0.4-0.1C273.1,113.9,273.3,114.5,273.1,114.6L273.1,114.6z"/>
					<path class="st13" d="M281.3,114.8c0.2,0,0.6,0,0.7,0c0.2,0,0.5-0.1,0.6-0.5c0.1-0.3,0.5-1.5,0.7-2l-0.5-0.8
						c0.1-0.6,0.3-1.5,0.3-1.6c0.3-0.1,0.5-0.2,0.6-0.2c0-0.1,0-0.5-0.2-0.7c-2.2,0.1-8.6,0.3-9.7,0.3c-0.3,0-0.4,0-0.5,0.4
						c-0.6,2.2,0.2,5.3,2.5,7.1c0.2,0.1,0.4,0,0.1-0.2c-0.4-0.3-1-1.1-1.3-1.7c0.4,0,1.3,0,1.6,0c0.1,0.5,0.5,1.6,0.6,1.8
						c0.1,0.2,0.3,0.2,0.2-0.1c-0.2-0.7-0.3-1.4-0.4-1.8c0.4,0,1.2,0,1.6,0c0,0.6,0.1,1.4,0.1,1.6c0,0.2,0.2,0.2,0.2,0
						c0-0.2,0-1.3,0-1.6c0.5,0,1.2,0,1.5,0c0,0.3-0.1,1.4-0.1,1.6c0,0.3,0.1,0.4,0.2,0c0.1-0.4,0.2-1.2,0.2-1.6c0.2,0,0.8,0,1,0
						c0,0.3-0.3,1.3-0.4,1.6c-0.1,0.3,0.1,0.3,0.2,0C280.9,116.2,281.2,115.2,281.3,114.8L281.3,114.8z"/>
					<path class="st8" d="M274.2,114.5c-0.2-0.3-0.7-1.6-0.7-2.5c0.5,0,1.6,0,2.1,0c0.1,0.7,0.3,2.1,0.4,2.5
						C275.3,114.5,274.5,114.5,274.2,114.5L274.2,114.5z"/>
					<path class="st8" d="M275.9,112c0.1,0.5,0.3,2.3,0.4,2.5c0.5,0,1.5,0,1.7-0.1c0-0.5-0.1-2.2-0.1-2.5
						C277.4,112,276.2,112,275.9,112L275.9,112z"/>
					<path class="st8" d="M273.5,109.9c-0.1,0.5-0.1,1.4-0.1,1.8c0.5,0,1.9,0,2.1,0c-0.1-0.5-0.1-1.3-0.2-1.8
						C274.9,109.8,273.8,109.8,273.5,109.9L273.5,109.9z"/>
					<path class="st8" d="M275.7,109.8c0,0.4,0.1,1.5,0.1,1.8c0.5,0,1.6,0,2,0c0-0.4-0.1-1.7-0.1-1.9
						C277.2,109.7,276.1,109.8,275.7,109.8L275.7,109.8z"/>
					<path class="st8" d="M278.2,109.7c0,0.4,0.1,1.6,0,1.9c0.5,0,1.5,0,1.8,0c0-0.4,0.1-1.6,0.1-1.9
						C279.5,109.7,278.6,109.7,278.2,109.7L278.2,109.7z"/>
					<path class="st8" d="M280.4,109.6c0,0.3,0,1.6-0.1,1.9c0.5,0,1.6-0.1,1.9-0.1c0.1-0.4,0.2-1.5,0.3-1.9
						C282.1,109.6,280.8,109.6,280.4,109.6L280.4,109.6z"/>
					<path class="st8" d="M282.4,111.9c-0.6,0-1.7,0-2,0.1c-0.1,0.8-0.2,2.2-0.2,2.5c0.6,0,1.7-0.1,2-0.1c0.2-0.4,0.6-1.5,0.7-1.9
						C282.7,112.2,282.5,112.1,282.4,111.9L282.4,111.9z"/>
					<path class="st8" d="M278.3,112c0,0.3,0.1,2.3,0.1,2.5c0.4,0,1.3,0,1.5,0c0.1-0.8,0.2-2.3,0.2-2.5
						C279.3,112,278.7,112,278.3,112L278.3,112z"/>
					<path class="st8" d="M270,111.5l-0.8,0.1c-0.4,0.6-1.8,2.5-1.9,2.7c1,0,2.5-0.1,2.9-0.1C270,113.7,270,111.7,270,111.5
						L270,111.5z"/>
					<path class="st8" d="M270.3,111.4c0,0.6,0.1,2.4,0.1,2.8c0.5,0,1.4-0.1,1.7-0.1c-0.1-0.8-0.2-2.7-0.3-3
						C271.5,111.2,270.7,111.4,270.3,111.4L270.3,111.4z"/>
					<path class="st8" d="M261.9,104.7C262,104.7,262.1,104.8,261.9,104.7l-9.3,0c-0.1,0-0.1-0.1,0-0.1L261.9,104.7z"/>
					<g class="st8">
						<path d="M261.9,104.8l-9.2-0.1l4.6-0.1L261.9,104.8L261.9,104.8L261.9,104.8L261.9,104.8z M261.9,104.7l-4.5,0L261.9,104.7
							L261.9,104.7L261.9,104.7z"/>
					</g>
					<path class="st8" d="M269.2,97.3C269.3,97.3,269.3,97.4,269.2,97.3l-7.3-0.1c-0.1,0-0.1-0.1,0-0.1L269.2,97.3z"/>
					<g class="st8">
						<path d="M269.2,97.4l-7.3-0.2l3.7,0l3.6,0.1V97.4v-0.1V97.4L269.2,97.4z M269.2,97.3l-3.5-0.1L269.2,97.3L269.2,97.3
							L269.2,97.3z"/>
					</g>
					<path class="st8" d="M261.5,99.4C261.6,99.4,261.6,99.5,261.5,99.4l-8.2,0c-0.1,0-0.1-0.1,0-0.1L261.5,99.4z"/>
					<g class="st8">
						<path d="M261.5,99.5l-8.2-0.1l4.1-0.1L261.5,99.5v-0.1V99.5L261.5,99.5z M261.5,99.4h-4H261.5L261.5,99.4L261.5,99.4z"/>
					</g>
					<path class="st8" d="M261.7,94C261.8,94,261.8,94.1,261.7,94l-8.6,0c-0.1,0-0.1-0.1,0-0.1L261.7,94z"/>
					<g class="st8">
						<path d="M261.7,94.2l-8.6,0l8.6-0.1V94.2v-0.1V94.2L261.7,94.2z M257.5,94.1l4.2-0.1v0.1L257.5,94.1L257.5,94.1z"/>
					</g>
					<path class="st8" d="M261.1,89.8C261.2,89.8,261.2,89.9,261.1,89.8l-8.3,0c-0.1,0-0.1-0.1,0-0.1L261.1,89.8z"/>
					<g class="st8">
						<path d="M261.1,90l-8.4-0.1l4.2-0.1L261.1,90l0-0.1L261.1,90L261.1,90z M261.1,89.9l-4.1,0L261.1,89.9L261.1,89.9L261.1,89.9z
							"/>
					</g>
					<path class="st16" d="M269.7,87.4C269.9,87.4,269.9,87.5,269.7,87.4l-7.2,0.2c-0.1,0-0.1-0.1,0-0.1L269.7,87.4z"/>
					<g class="st8">
						<polygon points="262.6,87.6 262.4,87.5 269.7,87.3 267.1,87.4 269.7,87.4 262.6,87.6 						"/>
					</g>
					<path class="st8" d="M270.2,91.4C270.3,91.4,270.3,91.5,270.2,91.4l-7.9,0.1c-0.1,0-0.1-0.1,0-0.1H270.2z"/>
					<g class="st8">
						<polygon points="270.2,91.5 262.3,91.5 270.2,91.4 270.2,91.5 						"/>
					</g>
					<path class="st8" d="M277.9,97.1C278.1,97.1,278.1,97.2,277.9,97.1l-8.5,0.1c-0.1,0-0.1-0.1,0-0.1H277.9z"/>
					<g class="st8">
						<path d="M277.9,97.3h-8.5l8.5-0.1V97.3L277.9,97.3z M273.8,97.1l4.2-0.1v0.1L273.8,97.1L273.8,97.1z"/>
					</g>
					<path class="st8" d="M278.1,90C278.2,90,278.2,90.1,278.1,90l-8.7,0c-0.1,0-0.1-0.1,0-0.1L278.1,90z"/>
					<g class="st8">
						<path d="M278.1,90.1l-8.7-0.1l4.3-0.1L278.1,90.1L278.1,90.1L278.1,90.1L278.1,90.1z M278.1,90l-4.3,0L278.1,90L278.1,90
							L278.1,90z"/>
					</g>
					<path class="st8" d="M270,102.5C270.1,102.5,270.1,102.6,270,102.5l-7.7,0c-0.1,0-0.1-0.1,0-0.1L270,102.5z"/>
					<g class="st8">
						<polygon points="270,102.7 262.4,102.6 270,102.5 270,102.6 270,102.5 270,102.7 						"/>
					</g>
					<path class="st8" d="M277.5,103.5C277.6,103.5,277.6,103.6,277.5,103.5l-6.7,0c-0.1,0-0.1-0.1,0-0.1L277.5,103.5z"/>
					<g class="st8">
						<path d="M277.5,103.7l-6.7-0.1l3.4-0.1L277.5,103.7v-0.1V103.7L277.5,103.7z M277.5,103.5l-3.3,0L277.5,103.5L277.5,103.5
							L277.5,103.5z"/>
					</g>
					<path class="st17" d="M283.6,104.8c0.2-0.4,0.2-1.4,0.1-1.8c-0.3,0.1-0.5,0-0.8,0c-0.1,0-0.3-0.1-0.4-0.1
						c0,0.5-0.2,1.7-0.4,2.2c-0.4,0.1-1.1,0-1.6-0.2c-0.1,0.4-0.2,0.8-0.3,1.1c0.5,0.1,1.2,0.1,1.8,0c0,0.7-0.1,1.4-0.5,1.8
						c0.6,0,1.2-0.1,1.4-0.3c0,0,0,0,0.1-0.1c0.3-0.5,0.3-1.1,0.4-1.6c0.2,0,0.5,0,0.6-0.2c0.1-0.1,0.3-0.2,0.5-0.2
						c0.2,0,0.5,0,0.8-0.2c0-0.2,0-0.5,0.1-0.7c0-0.1,0.1-0.3,0.1-0.5C285.1,104.4,284,104.8,283.6,104.8L283.6,104.8z"/>
					<g class="st8">
						<path d="M281.5,108l-0.1,0c0.3-0.6,0.4-1.3,0.5-1.9c-0.4,0.3-1.2,0.2-1.7,0.1l0.2-1.1c0,0,0.1,0,0.1,0l-0.2,1
							c0.2,0,0.5,0,0.8,0c0.3,0,0.6,0,0.9-0.1c0.1,0.7,0,1.4-0.4,1.8c0.6,0,1.1-0.1,1.2-0.3c0.3-0.4,0.3-0.9,0.4-1.3l0.2-0.4
							c0.2,0,0.4-0.1,0.5-0.2c0.2-0.1,0.4-0.2,0.6-0.2c0.2,0,0.5,0,0.8-0.2c0-0.1,0-0.4,0.1-0.6c0-0.1,0.1-0.3,0.1-0.5
							c-0.3,0.3-1.4,0.7-1.8,0.7c0.1-0.4,0.1-1,0.1-1.4c0.2,0.5,0.1,1.1,0,1.4c0.4-0.1,1.4-0.4,1.8-0.7c0.1,0.3,0,0.5,0,0.6
							c-0.1,0.2-0.1,0.4-0.1,0.7c-0.4,0.2-0.7,0.2-0.9,0.2c-0.3,0-0.4,0.1-0.5,0.1c-0.1,0.1-0.4,0.2-0.6,0.2
							c-0.1,0.7-0.1,1.1-0.4,1.5C282.6,107.9,281.9,108,281.5,108L281.5,108z M281.7,105.2c-0.4,0-0.8-0.1-1.1-0.2
							c0.4,0,0.8,0,1.1,0l0,0c0.5-0.5,0.7-1.7,0.7-2.2c0.2,0,0.4,0,0.5,0.1c0.1,0.1,0.3,0.1,0.4,0.1c0,0,0.1,0.1,0.1,0.1
							c-0.3,0-0.4,0-0.6,0c-0.1-0.1-0.3-0.1-0.4-0.1c0.1,0.4-0.1,1.7-0.3,2.2l0,0L281.7,105.2L281.7,105.2z"/>
					</g>
					<path class="st8" d="M253.7,64c-1,0-3,0-3.5,0.3c-0.4,0.3-0.6,0.4,0.1,0.5c0.8,0.1,2.1,0.5,2.8,0.9c0.7,0.4,1.3,1.2,1.1,2.3
						c-0.6,3.3,1.1,6.5,3.7,7.7c0.2,0.1,0.3,0.2,0.2,0.7c-0.1,0.4-0.2,1.2-0.4,1.4c-0.1,0.2-0.2,0.5,0.2,0.4c-0.3,0.6-1,1.7-1.2,2
						c-2-0.2-3.6,0-3.8,2.1c0,0.2,0.1,0.5,0.4,0c0.3-0.5,0.7-1,1.5-1.1c-0.5,0.8-0.7,1.5-0.6,1.9c0.1,0.5,0.2,0.7,0.4,0.2
						c0.2-0.6,0.6-1.1,1.1-1.4c0.2-0.1,0.3-0.2,0.1,0.2c-0.1,0.4,0.1,1.1,0.3,1.4c0.2,0.3,0.4,0.1,0.3-0.3c-0.1-0.4,0-1.3,0.6-1.6
						c0.7-0.4,1.4-0.2,1.7,0.3c0.3,0.5,0.6,0,0.2-0.6c-0.3-0.6-0.7-1-1.2-1c0.5-0.8,1-1.9,1.2-2.1c0.1-0.2,0.3-0.3,0.5-0.2
						c0.2,0.1,0.3,0.1,0.4-0.2c0.2-0.3,0.4-1.3,0.9-1.8c0.2-0.1,0.5-0.1,0.7-0.2c0.5,0.8,1,1.6,1.1,1.8c0.1,0.2,0.3,0.3,0.1,0.7
						c-0.1,0.4-0.5,1.7-0.6,1.9c-1.5,0.1-2.2,0.1-2.6,0.9c-0.2,0.4,0.1,0.5,0.5,0.3c0.4-0.2,0.9-0.4,1.1-0.3c0.3,0,0.4,0.2,0.1,0.3
						c-0.9,0.5-1.5,1-1.4,1.8c0,0.3,0.1,0.4,0.4,0c0.3-0.5,0.9-1.1,1.6-1.2c0,0.7,0.1,1.6,0.5,1.9c0.4,0.2,0.4,0,0.3-0.4
						c-0.3-0.6,0-1.3,0.3-1.6c0.6-0.7,2.1,0.3,2.4,0.5c0.3,0.2,0.5,0.3,0.4-0.3c-0.2-0.8-1.4-1.3-2.4-1.5c0.3-1.4,1-4.2,1.5-5.1
						c0.6,0.3,1.1-0.5,2.1-0.2c1.7,0.6,4.2,2.2,4.7,2.6c0.4,0.4,0.6,0.3,0.8,0.1c0.2-0.2,0.6,0,0.9,0c0.3,0.1,0.6,0.1,0.2-0.6
						c-0.4-0.8-1.3-2.1-2.9-3.1c0.9,0.1,2.2,0.1,2.2-0.2c0-0.2-1.4-0.7-2-0.8c0.6-0.1,1.4-0.5,1.9-0.9c0.2-0.3,0-0.3-0.9-0.4
						c-2.6-0.1-3.9,0-5.3-0.8c-2.2-1.2-3.4-2.6-4.5-3.1c-0.6-0.3-0.9-1-1.1-1.6c-0.7-1.9-0.7-2.8-2.3-3.4
						C256.5,62.5,254.6,63.2,253.7,64L253.7,64z"/>
					<path class="st16" d="M253.8,64.4c-0.4,0-1.2-0.1-1.9-0.1c-0.2,0-0.3,0.1,0,0.1c0.4,0,1.4,0.3,1.8,0.4c0.4,0.1,0.2,0.3-0.1,0.2
						c-0.3-0.1-0.4,0-0.2,0.2c1.3,0.9,1.5,1.3,1.1,4.5c0.3,0.2,0.5,0.3,0.7,0.4c0.2,0.1,0.2,0.3-0.1,0.2c-0.2-0.1-0.5,0.1-0.1,0.2
						c0.4,0.1,0.5,0.3,0.2,0.2c-0.4,0-0.8,0.3-0.1,0.2c0.7-0.1,1,0.3,0.2,0.3c-0.8,0-0.5,0.3-0.1,0.3c0.8,0,0.6,0.2,0.4,0.2
						c-0.2,0-0.3,0.3,0.2,0.2c0.5,0,0.7-0.1,0.9,0c0.2,0,0.3,0.2,0,0.2c-0.3,0-0.3,0.2,0.2,0.2c0.4,0,0.6,0.1,0.2,0.2
						c-0.2,0-0.4,0.1,0.1,0.2c0.8,0.1,0.8,0.3,0.6,0.3c-0.3,0-0.3,0.2,0.1,0.2c0.4,0,0.7,0.1,0.4,0.2c-0.3,0.1-0.5,0.2-0.1,0.3
						c0.4,0,0.7,0.2,0.4,0.3c-0.3,0.1-0.3,0.3,0,0.3c0.4,0,0.5,0.2,0.3,0.3c-0.3,0.1-0.4,0.2-0.6,0c-0.2-0.3-0.3-0.3-0.3-0.1
						c0,0.2-0.2,0.1-0.3-0.2c-0.1-0.3-0.3-0.4-0.3-0.1c0.1,0.2-0.2,0.3-0.5,0.1c1,1,2.4,1.9,4.8,1c0.2-0.1,0.2,0,0.4,0.3
						c0.2,0.3,0.6,1.1,0.7,1.3c0.2,0.3,0.3,0,0.4-0.2c0.3-1,0.5-1.8,0.6-2.1c0.1-0.3,0.5-0.6,0.4,0.4c0.3-0.2,1.9-0.5,3,0
						c1.3,0.5,2.6,1.2,3.3,1.7c0.1,0.1,0.3,0.2,0.6,0.2c0.3,0,0.4-0.1-0.2-0.6c-0.6-0.5-0.3-0.8,0-0.5c0.4,0.3,0.6,0.1,0.3-0.2
						c-0.3-0.3-1-1-1.2-1.1c-0.2-0.2-0.3-0.2-0.8-0.3c-0.5,0-1.6,0-1.9,0c-0.3,0-0.4,0,0.3,0.3c0.7,0.3,2.1,1.2,2.4,1.4
						c0.3,0.2,0.5,0.7-0.2,0.3c-0.7-0.4-2.9-1.8-4.3-2.3c-3.3,0.2-5.9,0.7-7.8-1.5c-0.9-1-1-3.4,0.6-4.3c-0.3-0.3-0.3-0.4-0.1-0.5
						c0.1-0.1,0.2-0.1,0-0.3c-0.1-0.2-0.1-0.3,0-0.4c-0.3-0.2-0.5-0.4-0.5-0.6c-0.4-0.1-0.6-0.6-1.2-0.4c-0.6,0.2-0.8,0-1-0.1
						c-0.2-0.1-0.3-0.2-0.6-0.2c-0.3,0-0.6-0.1-0.6-0.3c0-0.2,0.3-0.2,0.7,0c0.9,0.4,1.6,0.6,2.2-0.2c0.6-0.7-0.2-1.4-1.2-1.6
						C255,63.3,254.2,64.1,253.8,64.4L253.8,64.4z"/>
					<g class="st8">
						<path d="M262.8,77.2l-0.2-0.2c-0.3-0.5-0.6-1.1-0.8-1.3l-0.2-0.4l-0.1,0.1c-1.8,0.8-3.4,0.5-4.8-1l0.5-0.1l0.4,0l0.7,0.6
							l0.3-0.2h-0.1l-0.5-0.3l0.3-0.3l0,0c0,0-0.2-0.1-0.5-0.1l0-0.1l0-0.1c0.2,0,0.6,0.1,0.6,0.2l-0.3,0.3c0.5,0,0.6,0.1,0.6,0.2
							c-0.3,0.3-0.4,0.4-0.5,0.4l-0.9-0.6l0,0l-0.4,0.1c1,1.1,2.6,1.5,4.4,0.8c0.3,0,0.4,0.1,0.5,0.3c0.1,0.3,0.4,0.8,0.6,1.1
							L262.8,77.2v-0.1V77.2l0.2-0.5c0.3-1,0.5-1.8,0.6-2.1l0,0l0.3-0.3c0.2,0.2,0.3,0.4,0.2,0.8c0.2-0.4,1.5-0.7,3-0.1
							c1.3,0.5,2.6,1.3,3.3,1.8c0.1,0.1,0.2,0.2,0.4,0.2c0.3-0.1,0.2-0.2-0.2-0.5c-0.3-0.3-0.4-0.5-0.4-0.7h0.5
							c-0.1-0.4-0.7-1.1-1-1.2c-0.2-0.2-0.3-0.2-0.7-0.2c-0.5,0-1.6,0-1.9,0c1,0.4,2.5,1.4,2.7,1.5c0.2,0.1,0.4,0.4,0.3,0.5
							c-0.2,0.1-0.4,0-0.6-0.1c-2.3-1.5-3.6-2-4.3-2.3l-0.9,0.1c-0.9,0.1-1.7,0.1-2.4,0.1c-1.5,0-3.2-0.2-4.5-1.7
							c-0.5-0.6-0.8-1.5-0.6-2.4c0.1-0.9,0.6-1.6,1.2-2c-0.2,0-0.3-0.2-0.3-0.3l0,0l0.1-0.6c-0.2-0.2-0.4-0.5-0.4-0.8
							c-0.1,0-0.3-0.1-0.4-0.2c-0.2-0.1-0.3-0.2-0.5-0.2c-1,0.2-1,0.1-1.3-0.1c-0.2-0.1-0.3-0.2-0.5-0.2c-0.5,0-0.7-0.1-0.7-0.3
							c0.4-0.2,0.6-0.2,0.8-0.1c0.8,0.4,1.6,0.5,2.1-0.1c0.2-0.2,0.2-0.5,0.1-0.7c-0.1-0.4-0.6-0.7-1.3-0.8c-1,0-1.7,0.5-2.1,0.9
							l-0.5,0c-0.4,0-0.9-0.1-1.4,0c0.4-0.6,1-0.1,1.4-0.1c0.7-0.3,1.4-0.9,2.3-0.9c1.1,0.2,1.6,0.5,1.8,0.9
							c0.1,0.3,0.1,0.6-0.2,0.8c-0.5,0.7-1.4,0.6-2.2,0.2c-0.2-0.1-0.3-0.1-0.4-0.1c-0.2,0.2,0.1,0.3,0.3,0.3c0.4,0,0.5,0.1,0.7,0.2
							c0.1,0.1,0.4,0.2,0.9,0.1c0.5,0,0.7,0.1,0.8,0.2c0.1,0.1,0.2,0.2,0.4,0.2c0,0.3,0.2,0.5,0.5,0.7l0.2,0.7l-0.1,0.6
							c-0.6,0.4-1.1,1.1-1.2,1.9c-0.1,0.9,0.1,1.8,0.6,2.3c1.3,1.5,3,1.6,4.4,1.6c0.8,0,1.6-0.1,2.4-0.1l0.9-0.1
							c0.7,0.2,2,0.8,4.3,2.3c0.4,0.1,0.2,0,0.1-0.2c-0.4-0.3-1.7-1.1-2.4-1.4c-0.5-0.2-0.6-0.3-0.6-0.3c0.6-0.1,1.7-0.1,2.2-0.1
							c0.5,0,0.6,0.1,0.7,0.2c0.3,0.2,1,0.9,1.2,1.2l0,0.5l-0.6-0.2c-0.1,0.1,0,0.3,0.3,0.5c0.4,0.4,0.5,0.5,0.5,0.6l-0.4,0.1
							c-0.3,0-0.4-0.1-0.5-0.2c-0.7-0.5-2-1.2-3.3-1.7c-1.5-0.6-2.7-0.2-3,0c-0.1-0.5-0.1-0.6-0.1-0.7c-0.3,0.5-0.6,1.3-0.9,2.3
							C263,77.1,262.9,77.2,262.8,77.2L262.8,77.2z M257,72.8l-0.6-0.4l0.4-0.2c-0.5,0-0.7,0-1,0l-0.1,0l-0.4-0.2l0.4-0.2
							c0,0-0.1,0-0.5,0c-0.2,0-0.5-0.1-0.5-0.2c0-0.1,0.2-0.2,0.6-0.2c0.3,0,0.4-0.1,0.4-0.1l-0.4-0.1l-0.2,0.1l-0.5-0.1
							c0-0.1,0.3-0.2,0.5-0.2l-0.4-0.3l0.2,0l-0.1,0.1c0.2,0,0.6,0.1,0.6,0.3l-0.7,0.2l0.5-0.1c0.2,0,0.5,0.1,0.5,0.2
							c0,0.1-0.2,0.2-0.6,0.2c-0.4,0-0.4,0.1-0.4,0.1c0.6,0.1,1,0,1,0.3l-0.4,0.2c0.6,0,0.8,0,1,0l0.5,0.2l-0.4,0.2
							c0.5,0,0.8,0.1,0.8,0.2L257,72.8L257,72.8z M255.1,70.4c-0.2-0.2-0.4-0.3-0.6-0.4c0.3-3.3,0.2-3.6-1.1-4.5l0.1-0.2
							c1.4,1,1.5,1.5,1.1,4.6c0.2,0.1,0.4,0.2,0.6,0.3L255.1,70.4L255.1,70.4z"/>
					</g>
					<path class="st16" d="M259.1,64.2c-0.3-0.3-0.9-0.7-1.2-0.8c-0.3-0.1-0.3,0.2-0.2,0.3c-0.1,0.2-0.2,0.6,0,0.8
						c0.2,0.1,0.2,0.3,0,0.4c-0.3,0.2-0.2,1,0.3,0.8c0.2-0.1,0.3,0,0.3,0.1c0,0.1,0,0.3,0.2,0.3c0.1,0,0.1,0.2,0.1,0.3
						c0,0.1,0,0.1,0.2,0.1c0.2,0,0.2,0.4-0.1,0.5c0.3,0,0.4-0.1,0.5,0.2c0.1,0.3,0.5,0.3,0.5,0.7s-0.1,0.4-0.5,0.3
						c-0.4-0.1-0.6,0.1-0.7,0.2c-0.1,0.2-0.2,0.3,0.2,0.3c0.3,0,0.4,0.2,0.1,0.3c-0.3,0.1-0.8,0-0.9,0.3c-0.1,0.3,0,0.4,0.2,0.3
						c0.2-0.1,0.7-0.3,0.9-0.4c0.2-0.1,0.4-0.1,0.5,0.1c0.2,0.3,0,0.5-0.2,0.3c-0.3-0.2-0.4,0-0.5,0.1c-0.2,0.1-0.4,0.2-0.6,0.2
						c-0.3,0-0.4,0-0.4,0.6c0.1,1.7,1.4,2.9,3.8,2.9c2.4,0,3.6-0.1,4,0c-0.8-0.4-1.3-0.7-1.6-0.6c-0.3,0-0.5,0.1-0.4-0.1
						c0.1-0.2,0-0.2-0.1-0.3c-0.1-0.1-0.3-0.2-0.5,0c-0.2,0.3-0.8,0.6-1.1,0.6c-0.3,0.1-0.7,0.1-0.4-0.2c0.3-0.3,0.9-0.4,1.1-0.5
						c0.2-0.1,0.2-0.2,0.2-0.3c0-0.1-0.1-0.4,0.3-0.2c0.7,0.4,1.8,1,2.1,1c0.3,0,0.5-0.1,0.2-0.3c-0.3-0.2-0.3-0.4-0.3-0.5
						c0.1-0.1,0.1-0.2,0.6,0.1c0.5,0.3,1.2,0.6,1.5,0.7c0.3,0.1,0.7,0.1,0.1-0.3c-0.6-0.4-2.4-1.6-2.9-2c-0.5-0.4-0.3,0.1-0.2,0.2
						c0,0.1-0.3,0.3-0.5,0.1c-0.2-0.2-0.4-0.4-0.1-0.5c0.3-0.2,0.3-0.2-0.1-0.5c-0.4-0.4-0.5-0.3-0.4,0c0.1,0.3,0.1,0.7-0.3,0.5
						c-0.4-0.2-0.7-0.4-0.4-0.5c0.3-0.2,0.6-0.3,0.2-0.7c-0.5-0.4-0.3,0-0.4,0.2c-0.1,0.2-0.5,0.2-0.7,0c-0.2-0.2-0.3-0.3-0.2-0.5
						c0.1-0.1,0.1-0.2,0.3-0.1c0.2,0.1,0.5,0,0.1-0.3c-0.4-0.3-0.5-0.2-0.4,0c0.1,0.2-0.2,0.5-0.7,0.1c-0.2-0.2-0.2-0.5,0-0.5
						c0.2,0,0.3-0.2,0.1-0.4C259.6,66.3,260,65.2,259.1,64.2L259.1,64.2z"/>
					<g class="st8">
						<path d="M261.4,73.7c-2.2,0-3.7-1.1-3.8-3c0-0.3,0-0.5,0.1-0.6c0.6-0.1,0.8-0.2,0.9-0.3l0.4-0.2l0.4,0.2l-0.2-0.4
							c-0.3,0.1-0.7,0.3-0.9,0.4l-0.5,0.1c0-0.6,0.3-0.7,0.6-0.7l0.5-0.2l-0.5-0.2c0.2-0.4,0.3-0.6,0.6-0.6l0.4,0l0-0.6l-0.5-0.5
							c0.3-0.1,0.4,0,0.4,0.2c0.3,0.4,0.5,0.5,0.5,0.7c0,0.2,0,0.4-0.3,0.4l-0.4,0c-0.2,0-0.3,0.1-0.4,0.2l0.4,0.4
							c-0.4,0.3-0.5,0.4-0.7,0.4c-0.3,0-0.4,0.1-0.5,0.2c0.6,0,0.9-0.1,1-0.2c0.4-0.1,0.5,0,0.6,0.2l-0.1,0.5l-0.4-0.2
							c-0.5,0.3-0.7,0.4-1,0.4c-0.3,0.1-0.3,0.3-0.3,0.5c0.1,1.8,1.5,2.8,3.7,2.8V73.7l0.1-0.2l3.2,0c0.4,0,0.6,0,0.8,0
							c-0.8-0.3-1.3-0.5-1.5-0.5l-0.5,0l0-0.5l0,0.1l-0.5,0l0.1,0.1c-0.2,0.3-0.9,0.6-1.2,0.6l-0.6-0.1c0.3-0.5,0.6-0.6,0.9-0.7
							l0.9-0.6c1.1,0.6,1.9,1,2.1,1c0-0.3-0.1-0.5-0.1-0.6c0.4-0.3,0.5-0.3,0.7-0.1c0.5,0.3,1.2,0.6,1.5,0.7
							c-0.3-0.4-0.8-0.8-1.4-1.2c-0.6-0.4-1.2-0.8-1.5-1l-0.5,0.4c-0.4-0.2-0.5-0.3-0.5-0.5l0.4-0.4c-0.5-0.5-0.6-0.5-0.6-0.6
							c0.1-0.1,0.2-0.1,0.5,0.1c0.2,0.2,0.3,0.3,0.3,0.4l-0.4,0.4l0.4,0.3l0.2-0.5l0.4,0.1c0.3,0.2,0.9,0.6,1.5,1
							c0.6,0.4,1.1,0.8,1.4,1c0.3,0.2,0.4,0.3,0.3,0.4l-0.5,0c-0.3-0.1-1.1-0.5-1.5-0.7c-0.2-0.1-0.3-0.2-0.4-0.2l0.2,0.5l-0.3,0.5
							l0,0c-0.3,0-1.4-0.6-2.2-1c-0.2,0.2-0.2,0.3-0.4,0.5c-0.6,0.2-0.9,0.3-1.1,0.5c0.6,0,1.2-0.3,1.4-0.5l0.6-0.1l0.1,0l0.1,0.4
							c0.7,0,1.2,0.3,1.9,0.7c-0.2,0.1-0.4,0.1-0.8,0.1L261.4,73.7L261.4,73.7z M262.6,70.5c-0.3-0.1-0.5-0.3-0.5-0.4l0.6-0.5
							l-0.3-0.3l0,0l-0.7,0.4c-0.1,0-0.3-0.1-0.4-0.1l-0.3-0.4l0.3-0.4l-0.4,0.2c-0.1,0-0.3,0-0.5-0.2c-0.1-0.1-0.2-0.3-0.2-0.5
							l0.3-0.2l0,0.2c0.2,0.6,0.3,0.6,0.4,0.6l0.2-0.4c0.2-0.1,0.4,0,0.6,0.1l0,0.1l0,0.4l-0.5,0l0.1,0.4l0.3,0l0.3-0.1l0-0.2
							l0.5-0.1c0.2,0.2,0.3,0.3,0.3,0.4l0,0l-0.3,0.3c-0.2,0.2-0.1,0.3,0.3,0.5l0.3-0.4l-0.1,0c0-0.1,0.1-0.1,0.1-0.2
							c0.1,0.4,0.1,0.6,0,0.7L262.6,70.5L262.6,70.5z M260.6,67.9c-0.5-0.9-0.7-1.5-0.8-2c-0.1-0.6-0.3-1.1-0.8-1.7
							c-0.3-0.3-0.9-0.6-1.1-0.7c-0.1,0.4-0.2,0.6-0.2,0.8l0.3,0.5c-0.3,0.3-0.4,0.5-0.3,0.7l0,0l0.7,0.5l0.2,0.5
							c0.2,0.3,0.2,0.5,0.2,0.6l-0.6-1.2c-0.5,0.1-0.6-0.1-0.7-0.3c-0.1-0.2,0-0.5,0.2-0.6l-0.2-0.5c0-0.2,0-0.5,0.1-0.6h0l0.2-0.4
							c0.3,0.1,0.9,0.4,1.2,0.8c0.5,0.5,0.6,1.1,0.8,1.7c0.1,0.6,0.3,1.2,0.7,1.8L260.6,67.9L260.6,67.9z"/>
					</g>
					<path class="st13" d="M259.2,64.4c-0.1,0.1-0.1,0.1-0.3,0.2c-0.2,0.1-0.2,0.5,0.1,0.4c0.2,0,0.4-0.2,0.4-0.3
						C259.4,64.6,259.3,64.5,259.2,64.4L259.2,64.4z"/>
					<path class="st13" d="M258.2,63.6c-0.2,0.2-0.3,0.3-0.2,0.3c0.1,0,0.1,0,0,0.2c-0.1,0.2,0.2,0.2,0.3,0.1c0.1-0.1,0.1-0.2,0.2,0
						c0,0.1,0.3,0,0.4-0.1C258.8,63.9,258.5,63.7,258.2,63.6L258.2,63.6z"/>
					<path class="st13" d="M257.8,64.9c-0.3,0.2-0.2,1,0.3,0.8c0.2-0.1,0.3,0,0.3,0.1c0,0.1,0,0.1,0,0.2c0.2-0.1,0.4-0.2,0.5-0.4
						c0.3-0.3,0-0.3-0.4-0.3c-0.4,0-0.6-0.1-0.1-0.3c0.4-0.2,0.1-0.4-0.4-0.3C258,64.7,258,64.9,257.8,64.9L257.8,64.9z"/>
					<path class="st13" d="M259.6,66.8c-0.2-0.3-0.1-0.4,0.2-0.5c0.1,0,0.1-0.1,0.1-0.1c-0.1-0.3-0.1-0.5-0.2-0.8
						c-0.1,0-0.3,0.3-0.3,0.5c-0.1,0.2-0.1,0.3-0.3,0.3c-0.2-0.1-0.4,0.2-0.4,0.4c0,0,0.1,0,0.1,0c0.1,0,0.1,0.1,0.1,0.3
						c0.6,0,0.7,0.4,0.8,0.6c0.1,0.3,0.2,0.3,0.3,0.1C260,67.3,259.8,67,259.6,66.8L259.6,66.8z"/>
					<path class="st12" d="M259.8,70.1c-0.1,0.2-0.1,0.2-0.4,0.2c-0.3,0-0.7,0.1-0.9,0.3c-0.1,0.1-0.7,0.1-0.7,0.4
						c0,0.3,0,0.5,0.3,0.5c0.2,0,0.3,0,0.2,0.2c-0.1,0.2-0.2,0.5,0.3,0.5c0.4,0,0.8-0.1,0.9,0.1c0.1,0.3,0,0.7,0.1,0.8
						c0.1,0.2,0.4,0.2,0.8,0.4c0.3,0.1,1.5,0.1,1.8,0.1c0.4,0,0.2-0.3-0.1-0.3c-0.4,0-0.6-0.1-0.7-0.3c-0.1-0.3-0.2-0.4,0-0.6
						c0.2-0.2,0.4-0.4,0.3-0.8c-0.1-0.4-0.3-0.8-0.7-0.9c-0.4-0.1-0.3-0.7-0.7-0.7C259.9,70,259.8,70,259.8,70.1L259.8,70.1z"/>
					<path class="st13" d="M257.8,73.4c0.4,0,0.7,0.1,0.4,0.2c-0.3,0.1-0.5,0.2-0.1,0.3c0.4,0,0.7,0.2,0.4,0.3
						c-0.3,0.1-0.3,0.3,0,0.3c0.4,0,0.5,0.2,0.3,0.3c-0.3,0.1-0.4,0.2-0.6,0c-0.2-0.3-0.2-0.3-0.3-0.1c0,0.2-0.2,0.1-0.3-0.2
						c-0.1-0.3-0.3-0.4-0.3-0.1c0.1,0.2-0.2,0.3-0.5,0.1c0.3,0.3,0.6,0.5,0.9,0.7c0.4-0.1,0.8,0,1,0c0.2,0,0.6,0.1,0.9,0.3
						c0.3,0.1,0.4-0.1,0.3-0.4c-0.1-0.3-0.1-0.2-0.3,0c-0.1,0.2-0.2-0.1-0.2-0.4c0-0.3-0.2-0.2-0.2,0c-0.1,0.2-0.2-0.1-0.1-0.3
						c0.1-0.2,0-0.2-0.2-0.2c-0.1,0-0.2,0-0.2-0.3c0-0.3-0.2-0.3-0.2-0.1c0,0.1-0.2-0.1-0.4-0.3c-0.2-0.2-0.4-0.1-0.7,0
						C257.6,73.4,257.6,73.4,257.8,73.4L257.8,73.4z"/>
					<path class="st12" d="M261.5,75.4c-1.7,0.7-2.9,0.4-3.9-0.2c0.4-0.1,0.8,0,1,0c0.2,0,0.6,0.1,0.9,0.3c0.3,0.1,0.4-0.1,0.3-0.4
						c0.2,0.3,0.4,0.5,0.7,0.5C260.8,75.5,261.3,75.5,261.5,75.4L261.5,75.4z"/>
					<path class="st12" d="M257.9,67.5c-0.1-0.4-0.2-0.4-0.4-0.4c-0.2,0-0.3,0-0.5-0.1c-0.2-0.1-0.5,0-0.5,0.4
						c0,0.4-0.3,0.6-0.6,0.8c-0.3,0.2-0.5,0.4-0.5,0.8c0,0.4-0.1,0.5-0.3,0.8c-0.1,0.1-0.2,0.3-0.4,0.4c0.1,0.1,0.3,0.2,0.4,0.2
						c0.2,0.1,0.2,0.3-0.1,0.2c-0.2-0.1-0.5,0.1-0.1,0.2c0.4,0.1,0.5,0.3,0.2,0.2c-0.4,0-0.8,0.3-0.1,0.2c0.7-0.1,1,0.3,0.2,0.3
						c-0.8,0-0.5,0.3-0.1,0.3c0.8,0,0.6,0.2,0.4,0.2c-0.2,0-0.3,0.3,0.2,0.2l0,0c0.1-0.1,0.1-0.2,0.2-0.3c0.1-0.3,0.2-1,0.5-1.2
						c0.3-0.2,0.4-0.5,0.4-0.7c0-0.2,0.4-1.1,0.7-1.4C257.9,68.4,258,67.9,257.9,67.5L257.9,67.5z"/>
					<path class="st13" d="M257.3,67.5c-0.3-0.2-0.6-0.1-0.6,0.3c0,0.4-0.2,0.5-0.4,0.6c-0.3,0.1-0.5,0.4-0.5,0.7
						c0,0.3,0,0.5-0.2,0.7c-0.2,0.2-0.2,0.4-0.1,0.5c0.1,0.1,0.1,0.1,0.2,0.3c0.1,0.2,0.4,0,0.4-0.2c0-0.2,0.1-0.2,0.3-0.3
						c0.2-0.1,0.6-0.7,0.5-0.9c-0.1-0.2-0.3-0.3,0-0.5c0.3-0.2,0.6-0.3,0.6-0.5c0-0.2,0.1-0.3,0.2-0.4
						C257.8,67.8,257.5,67.7,257.3,67.5L257.3,67.5z"/>
					<path class="st8" d="M257.3,67.2c-0.2-0.1-0.3,0.3,0,0.4C257.5,67.7,257.6,67.3,257.3,67.2L257.3,67.2z"/>
					<path class="st8" d="M257.2,67.8c-0.2,0-0.4,0.3-0.1,0.2C257.5,68,257.6,67.7,257.2,67.8L257.2,67.8z"/>
					<path class="st8" d="M256.8,68.3c-0.2,0.1-0.2,0.4,0.1,0.2C257.3,68.3,257.4,68,256.8,68.3L256.8,68.3z"/>
					<path class="st8" d="M256.5,68.7c-0.2,0.1-0.2,0.4,0.1,0.2C256.9,68.7,257,68.4,256.5,68.7L256.5,68.7z"/>
					<path class="st8" d="M256,68.9c-0.2,0.1-0.1,0.4,0.2,0.2C256.6,68.9,256.6,68.6,256,68.9L256,68.9z"/>
					<path class="st8" d="M256.3,69.2c-0.2,0.1-0.1,0.4,0.2,0.2C256.9,69.1,256.9,68.9,256.3,69.2L256.3,69.2z"/>
					<path class="st8" d="M256,69.3c-0.2,0.1-0.1,0.4,0.2,0.2C256.5,69.3,256.5,69,256,69.3L256,69.3z"/>
					<path class="st8" d="M256.2,69.6c-0.2,0.1-0.1,0.4,0.2,0.2C256.7,69.6,256.7,69.3,256.2,69.6L256.2,69.6z"/>
					<path class="st8" d="M255.8,69.8c-0.2,0.1-0.1,0.4,0.2,0.2C256.4,69.7,256.4,69.5,255.8,69.8L255.8,69.8z"/>
					<path class="st8" d="M255.9,70c-0.2,0.1-0.1,0.4,0.2,0.2C256.4,70,256.4,69.8,255.9,70L255.9,70z"/>
					<path class="st13" d="M255.7,72.7c-0.2,0-0.4,0.3-0.1,0.4c0.3,0.1,0.3,0.1,0.3,0.3c0,0.2,0.1,0.5,0.4,0.5
						c0.3,0,0.5-0.3,0.3-0.4c-0.3-0.1-0.5-0.2-0.5-0.4C256.1,72.8,255.8,72.6,255.7,72.7L255.7,72.7z"/>
					<path class="st12" d="M263.4,70.9c0,0,0.1,0.1,0.1,0.1c0.2,0.2,0.6,0,0.5-0.1c0-0.1-0.3-0.6,0.2-0.2c0.5,0.4,2.3,1.6,2.9,2
						c0.6,0.4,0.2,0.5-0.1,0.3c-0.3-0.1-1-0.5-1.5-0.7c-0.5-0.3-0.5-0.2-0.6-0.1c-0.1,0.1,0,0.3,0.2,0.4c-0.3,0-0.7,0-0.9-0.3
						c-0.2-0.4-0.5-0.8-0.8-1.1C263.4,71,263.3,70.9,263.4,70.9L263.4,70.9z"/>
					<path class="st15" d="M278.9,122.2c-0.4,0.3-0.9,0.7-0.6,1.4c0,0,0.1,0,0.1-0.1c1.5-1.9,2.8-3.8,4-5.8c0-0.1,0-0.1,0-0.2
						c-0.4,0.4-1.1,0.8-1.4,0.8c0.2,0.5-0.7,1.2-1.2,1.3c0.2,0.3,0.1,0.8-0.3,0.9c0.1,0.3-0.2,0.3-0.6,0.4c-0.4,0.2-0.6,0.3-0.7,0.5
						c0.2-0.1,0.5-0.2,0.6-0.2c0.2,0,0.2,0.3-0.1,0.3c-0.3,0.1-0.5,0.2-0.6,0.3C278.7,121.8,279.3,121.9,278.9,122.2L278.9,122.2z"
						/>
					<path class="st8" d="M260.3,70.3c-0.5-0.4-0.6-0.2-0.4,0.1c0.2,0.3,0,0.4-0.4,0.4c-0.4,0.1-1,0.1-1.3,0.1c-0.3,0-0.5,0.3,0,0.3
						c0.6,0,1.6-0.2,1.9-0.3C260.5,70.8,260.7,70.6,260.3,70.3L260.3,70.3z"/>
					<g class="st8">
						<path d="M258.3,71.4l-0.4-0.3l0.4-0.2c0.2,0,0.8-0.1,1.2-0.1l0.4-0.1l-0.1-0.2l0.1-0.4c0.1,0,0.3,0.1,0.4,0.2l0.2,0.4
							c0,0.1-0.1,0.3-0.4,0.3C260,71.1,258.9,71.3,258.3,71.4L258.3,71.4L258.3,71.4z M260.3,70.4c-0.3,0.4-0.4,0.5-0.7,0.6
							c-0.4,0.1-1,0.1-1.3,0.1l0,0.2l0.1-0.1c0.6,0,1.6-0.2,1.8-0.3l0.3-0.2L260.3,70.4L260.3,70.4z"/>
					</g>
					<path class="st8" d="M261.2,71c-0.4-0.3-0.5-0.2-0.4,0c0.1,0.3-0.1,0.3-0.3,0.4c-0.3,0.1-1.2,0.4-1.7,0.5
						c-0.4,0.1-0.5,0.3,0.1,0.3c0.6,0,1.8-0.5,2-0.6c0.1-0.1,0.2-0.3,0.3-0.2C261.4,71.5,261.5,71.3,261.2,71L261.2,71z"/>
					<g class="st8">
						<path d="M258.9,72.2c-0.4,0-0.5-0.1-0.5-0.2l0-0.1l0.4-0.2c0.4,0,1.3-0.3,1.6-0.4l0.2-0.1l-0.1,0.2c-0.4,0.1-1.3,0.4-1.7,0.5
							L258.9,72.2l0-0.2c0.6,0,1.8-0.5,1.9-0.6l0.4-0.2l-0.4-0.4c0.2-0.1,0.3,0,0.4,0.1l0.2,0.4l-0.4,0.1
							C260.8,71.7,259.6,72.2,258.9,72.2L258.9,72.2L258.9,72.2z"/>
					</g>
					<path class="st8" d="M261.5,72c-0.3,0.2-1,0.5-1.3,0.6c-0.3,0.1-0.5,0.4,0.1,0.3c0.6,0,1.3-0.6,1.5-0.7
						c0.2-0.1,0.3-0.2,0.4-0.2c0.2,0,0.4-0.2-0.1-0.5c-0.5-0.3-0.8-0.1-0.6,0.1C261.9,71.8,261.7,71.9,261.5,72L261.5,72z"/>
					<g class="st8">
						<path d="M260.2,73l-0.3-0.2l0.4-0.3c0.3-0.1,1-0.4,1.2-0.5l0-0.5c0.4-0.1,0.6-0.1,0.8,0c0.3,0.2,0.4,0.3,0.3,0.4l-0.6,0.3
							c-0.5,0.4-1.1,0.7-1.6,0.8L260.2,73L260.2,73z M261.7,71.5l-0.1,0.6c-0.3,0.2-1,0.5-1.3,0.6l-0.1,0.3l0.1-0.1
							c0.5,0,1-0.4,1.3-0.6l0.6-0.3C262,71.5,261.8,71.5,261.7,71.5L261.7,71.5z"/>
					</g>
					<path class="st8" d="M256.6,64.1c-0.8-0.5-1.6,0.6-0.8,1.1C256.6,65.8,257.4,64.6,256.6,64.1L256.6,64.1z"/>
					<path class="st16" d="M255.7,64.6l0.2,0c0,0.2,0.2,0.6,0.5,0.5C256.2,65.3,255.6,65.1,255.7,64.6L255.7,64.6z"/>
					<path class="st16" d="M258.7,76c0.2,0.1,1,0.2,1.3,0.2c-0.1,0.3-0.3,0.5-0.3,0.7c-0.1,0.2-0.1,0.2-0.1-0.1
						c0-0.3-0.2-0.5-0.4-0.2c-0.2,0.3-0.2,0.5-0.3,0.6c-0.1,0.1-0.2,0.2-0.2-0.2C258.7,76.6,258.7,76.3,258.7,76L258.7,76z"/>
					<g class="st8">
						<path d="M260.3,136.3L260.3,136.3c-25.2-10-28.7-30.5-28.8-51.1h0.1c-0.2-3.3-0.1-6.4,0-9.5c0.1-4.1,0.2-7.9,0.1-11.5
							c10.8-4.9,24.6-5.3,28.6-5.3c4,0,17.8,0.4,28.5,5.1c0,3.7,0.1,7.5,0.2,11.6c0.1,3.1,0.1,6.2,0.1,9.5l-0.2,0.2
							C288.9,106,285.3,126.4,260.3,136.3L260.3,136.3L260.3,136.3z M231.6,85.3c0.2,20.4,3.7,40.8,28.6,50.7
							c24.9-9.9,28.4-30.2,28.5-50.7H231.6L231.6,85.3z M260.3,59.3c-4,0-17.7,0.4-28.4,5.1c0.2,3.4,0.1,7.3,0,11.3
							c-0.1,3.1-0.1,6.2-0.1,9.4l57-0.2c0-3.2-0.1-6.3-0.1-9.3c-0.1-4.1-0.2-7.9-0.1-11.5C278,59.7,264.2,59.3,260.3,59.3
							L260.3,59.3z"/>
					</g>
				</g>
			</g>
		</g>
		<g class="st0">
			<g>
				<defs>
					<rect id="SVGID_7_" x="-108.2" y="-0.6" width="516.4" height="301.2"/>
				</defs>
				<clipPath id="SVGID_8_">
					<use xlink:href="#SVGID_7_"  style="overflow:visible;"/>
				</clipPath>
				<polygon class="st18" points="-108.2,-0.6 -108.2,235.2 245.6,-0.6 				"/>
				<polygon class="st19" points="54.4,300.6 408.2,300.6 408.2,64.8 				"/>
				<polygon class="st20" points="245.6,-0.6 -108.2,235.2 -108.2,260.1 282.8,-0.6 				"/>
				<polygon class="st20" points="17.2,300.6 54.4,300.6 408.2,64.8 408.2,39.9 				"/>
				<path class="st21" d="M50.8,222.7l-9.2-0.4l-22.4-0.9l26.4-17.6l-8.6-30.5l24.9,19.7l26.4-17.6l-7.8,21l-3.2,8.7l24.9,19.6
					l-31.7-1.3l-11,29.7L50.8,222.7z M228.4,104.3l-9.2-0.4l-22.4-0.9l26.4-17.6l-8.6-30.5l24.9,19.7L265.8,57L258,78l-3.2,8.7
					l24.9,19.6l-31.7-1.3l-11,29.7L228.4,104.3z M282.8-0.6l-391,260.7v40.5h32.3h93.1l391-260.7V-0.6H282.8z"/>
				<polygon class="st22" points="265.8,57 239.4,74.5 214.5,54.9 223.1,85.4 196.7,103 219.2,103.9 258,78 				"/>
				<polygon class="st22" points="237,134.8 248,105.1 279.7,106.3 254.8,86.7 258,78 219.2,103.9 228.4,104.3 				"/>
				<polygon class="st22" points="88.2,175.4 61.8,192.9 36.9,173.3 45.5,203.8 19.1,221.4 41.6,222.3 80.4,196.4 				"/>
				<polygon class="st22" points="59.4,253.2 70.4,223.4 102.1,224.7 77.2,205.1 80.4,196.4 41.6,222.3 50.8,222.7 				"/>
			</g>
		</g>
		<g class="st0">
			<g>
				<defs>
					<rect id="SVGID_9_" x="-107.8" y="-0.4" width="515.7" height="300.8"/>
				</defs>
				<clipPath id="SVGID_10_">
					<use xlink:href="#SVGID_9_"  style="overflow:visible;"/>
				</clipPath>
				<rect x="-107.8" y="-0.4" class="st23" width="515.7" height="300.8"/>
				<polygon class="st24" points="49.7,273.9 250.3,273.9 150,26.1 				"/>
				<polygon class="st25" points="63.2,273.9 236.7,273.9 150,59.5 				"/>
				<polygon class="st26" points="49.7,274.4 250.3,274.4 150,150.5 				"/>
			</g>
		</g>
		<g class="st0">
			<g>
				<defs>
					<rect id="SVGID_11_" y="-0.7" width="515.3" height="300.6"/>
				</defs>
				<clipPath id="SVGID_12_">
					<use xlink:href="#SVGID_11_"  style="overflow:visible;"/>
				</clipPath>
				<rect y="-0.7" class="st27" width="515.3" height="300.6"/>
				<g class="st28">
					<defs>
						<rect id="SVGID_13_" y="-0.7" width="515.3" height="300.6"/>
					</defs>
					<clipPath id="SVGID_14_">
						<use xlink:href="#SVGID_13_"  style="overflow:visible;"/>
					</clipPath>
					<path class="st29" d="M94.5,113.1l0-2.1c0,0-1.1-1.8,0.2-3.7c0,0-2.8-1.4-2.1-3.7c0,0-2.5-0.6-2.3-3.4c0,0-2.7-0.2-3-2.5
						c0,0-2.7,0.4-3.9-1.8c0,0-2.6,0.5-3.4-1.3c0,0-2.5,0.9-4.1-1.3c0,0-2.7,1.1-3.8-0.9c-1.1,2-3.8,0.9-3.8,0.9
						c-1.5,2.1-4.1,1.3-4.1,1.3C63.7,96.5,61,96,61,96c-1.2,2.2-3.9,1.8-3.9,1.8c-0.3,2.3-2.9,2.5-2.9,2.5c0.2,2.7-2.3,3.4-2.3,3.4
						c0.7,2.3-2.1,3.7-2.1,3.7c1.3,1.9,0.2,3.7,0.2,3.7l-0.1,1.9L94.5,113.1L94.5,113.1z"/>
					<g class="st30">
						<path d="M94.5,113.2L50,113l0-1.9c0,0,1.1-1.8-0.2-3.7c0-0.1,2.7-1.5,2.1-3.7c0,0,2.5-0.7,2.3-3.4c0.1,0,2.7-0.2,2.9-2.5
							c1.5,0.2,3-0.2,3.9-1.8c0.1,0,0.4,0.1,0.8,0.1c0.9,0,2-0.2,2.5-1.4c0,0,0.6,0.2,1.3,0.2c0.8,0,2-0.2,2.8-1.4l0,0
							c0,0,0.8,0.3,1.6,0.3c1,0,1.8-0.4,2.2-1.2c0.5,0.8,1.2,1.2,2.3,1.2c0.8,0,1.5-0.3,1.6-0.3c1.6,2.2,4.1,1.3,4.1,1.3
							c0.7,1.7,3.3,1.3,3.3,1.3c0.7,1.2,1.8,1.7,2.7,1.8c-1.1-0.1-2.1-0.6-2.7-1.7c0,0.1-2.7,0.4-3.4-1.3c0,0.1-2.5,0.9-4.1-1.3
							c0,0-0.7,0.3-1.5,0.3c-1,0-1.8-0.4-2.3-1.3c-0.4,0.8-1.2,1.3-2.2,1.3c-0.8,0-1.6-0.3-1.6-0.3c-1.5,2.2-4,1.3-4.1,1.3
							C63.7,96.4,61,96,61,96c-0.8,1.6-2.4,1.8-3.3,1.8c-0.8,2.2-3.5,2.4-3.5,2.4c0.2,2.7-2.3,3.4-2.3,3.4c0.7,2.2-2.1,3.7-2.1,3.7
							c1.3,1.9,0.2,3.7,0.2,3.7l-0.1,1.9L94.5,113.2l0-2.1c0,0-1.1-1.8,0.2-3.7c0,0,0,0,0,0c-0.1,0-2.7-1.5-2.1-3.7
							c0,0-2.5-0.6-2.3-3.4c0,0-0.9,0-1.7-0.5c0.9,0.5,1.7,0.5,1.7,0.5c-0.2,2.7,2.3,3.4,2.3,3.4c-0.6,2.3,2.1,3.7,2.1,3.7
							c-1.3,1.9-0.2,3.7-0.2,3.7L94.5,113.2L94.5,113.2z"/>
					</g>
					<path class="st31" d="M93.4,110.5c-7-0.7-15-2.4-21.2,1.1c-4.2-2.5-9.9-2.3-14.9-1.8c-2.7,0.5-5.8,0.5-8.6,0.9l-0.4,0.1
						c-5.1,0.3-9.7-1.2-14.1-3.1c1.4,8,3,16.1,3.7,24.4c1.7,12.3-5.8,22.7-2.8,34.9c1.8,5.8,8.3,9.2,14.2,9.9
						c5.7,0.3,11.6,1.3,16.9,2.4c1,0.2,2.2,0.7,2.9,1c1.5,0.6,2.5,1.5,3.5,2.5c3.2-3.3,7.9-4.2,12.5-4.7c8.3-1,18.5-0.4,23.6-8v-0.4
						c2.8-4.2,2.4-10.5,1.2-15.2c-0.1-1.6-0.5-3.1-0.8-4.7c-5.1-13.4-0.7-28.4,1.5-41.9c-2.7,1.5-5.6,2.1-8.6,2.9
						c-2.4,0.3-5,0.2-7.4,0L93.4,110.5L93.4,110.5z"/>
					<path class="st32" d="M103.9,149c0,0.9,0.5,1.6,0.6,2.4c1,5.9,1.9,13.6-4.1,17.2c-6.7,4.2-15.4,2.4-23.1,4.7
						c-1.5,0.4-3.7,1.8-4.7,2.8c-0.7-0.5-1.4-1.2-2.3-1.6c-6.3-3.4-14.6-2.2-21.8-4.1c-3.6-1.1-7.3-3.9-8.2-7.6
						c-2.3-9.7,3.3-17.9,2.6-27.5c-0.4-7.3-1.7-14.3-3.4-21.2c5.6,2.6,12.1,3,18.4,1.8c4.7-0.6,10.1-0.7,14.5,1.3
						c2.4-1,5.2-1.5,7.8-1.8c4.9,0.5,10.2,1.4,15.3,1.3c3.4-0.2,6.5-1.1,9.4-2.5C103.1,125.7,99.7,137.6,103.9,149L103.9,149z"/>
					<polygon class="st33" points="93.8,151.2 93.7,140.6 95.1,140.6 78.8,130 78.7,124.6 80.3,124.6 72.2,118.7 64,124.6 
						65.6,124.6 65.6,130 49.4,140.5 50.7,140.5 50.8,151.2 93.8,151.2 					"/>
					<g class="st30">
						<path d="M93.9,151.3l-43.1,0l-0.2-10.8l-1.2,0.1l16.1-10.7l-0.1-5.4l-1.5,0.1l8-6l8.3,5.8l-1.6,0.2l0.1,5.4l16.3,10.4
							l-1.4,0.2L93.9,151.3L93.9,151.3z M50.7,140.4l0.2,10.8l42.8-0.1l-0.1-10.6l1.4-0.1l-16.4-10.3l-0.1-5.6l1.7-0.1l-8.2-5.6
							l-8,5.8l1.5-0.2l0.1,5.6l-16.3,10.6L50.7,140.4L50.7,140.4z"/>
					</g>
					<polygon class="st34" points="515.3,149.6 515.3,-0.7 0,-0.7 225.4,149.6 					"/>
					<polygon class="st35" points="515.3,299.9 515.3,149.6 225.4,149.6 0,299.9 					"/>
					<polygon class="st33" points="98.8,165.2 98.8,168.6 46.3,168.5 46.3,165.2 98.8,165.2 					"/>
					<g class="st30">
						<path d="M98.9,168.7l-52.6-0.1l-0.1-3.4l52.6-0.1L98.9,168.7L98.9,168.7z M98.7,165.2l-52.4,0.1l0.1,3.2l52.3-0.1V165.2
							L98.7,165.2z"/>
					</g>
					<polygon class="st33" points="49.8,165 49.7,153.7 51.9,153.7 51.8,165.2 51.9,153.8 48.8,153.7 48.8,151.3 95.8,151.4 
						95.8,153.8 92.9,153.8 92.9,165.2 92.8,153.8 95,153.8 95,165.1 					"/>
					<g class="st30">
						<polygon points="93.1,165.2 92.7,153.8 95,153.6 95,153.7 95.8,153.6 95.6,151.4 48.8,151.4 48.9,153.7 51.9,153.6 
							51.9,165.2 51.8,153.8 49.7,153.9 49.9,165 49.7,165 49.6,153.8 48.8,153.9 48.7,151.3 95.8,151.2 95.9,153.8 95,153.8 
							95.1,165.1 94.9,153.8 92.9,153.9 93.1,165.2 						"/>
					</g>
					<g class="st30">
						<path d="M60,162.4l-6.4,0l-0.1-8l6.4-0.1L60,162.4L60,162.4z M59.7,154.4l-6.2,0.1l0.2,7.8l6.1-0.1L59.7,154.4L59.7,154.4z"/>
					</g>
					<g class="st30">
						<path d="M58.3,160.7h-3l-0.1-4.7l3-0.1L58.3,160.7L58.3,160.7z M58,156l-2.8,0.1l0.1,4.5l2.6-0.1L58,156L58,156z"/>
					</g>
					<g class="st30">
						<path d="M90.8,162.4h-6.4l-0.1-8l6.4-0.1L90.8,162.4L90.8,162.4z M90.5,154.4l-6.2,0.1l0.1,7.8l6.1-0.1L90.5,154.4L90.5,154.4
							z"/>
					</g>
					<g class="st30">
						<path d="M89.1,160.7h-3l-0.1-4.7l3-0.1L89.1,160.7L89.1,160.7z M88.8,156l-2.8,0.1l0.1,4.4l2.6-0.1L88.8,156L88.8,156z"/>
					</g>
					<g class="st30">
						<path d="M90.8,149.6h-6.4l-0.1-8l6.4-0.1L90.8,149.6L90.8,149.6z M90.5,141.6l-6.2,0.1l0.1,7.8l6.1-0.1L90.5,141.6L90.5,141.6
							z"/>
					</g>
					<g class="st30">
						<path d="M89,147.9h-3l-0.1-4.7l3-0.1L89,147.9L89,147.9z M88.8,143.2l-2.8,0.1l0.1,4.5l2.7-0.1V143.2L88.8,143.2z"/>
					</g>
					<g class="st30">
						<path d="M60,149.5h-6.4l-0.1-8l6.4-0.1L60,149.5L60,149.5z M59.7,141.6l-6.2,0.1l0.1,7.8l6.1-0.1L59.7,141.6L59.7,141.6z"/>
					</g>
					<g class="st30">
						<path d="M58.2,147.9h-3l-0.1-4.7l3-0.1L58.2,147.9L58.2,147.9z M58,143.2l-2.8,0.1l0.1,4.4l2.7-0.1L58,143.2L58,143.2z"/>
					</g>
					<g class="st30">
						<path d="M71.3,149.5h-6.4l-0.1-8l6.4-0.1L71.3,149.5L71.3,149.5z M71.1,141.6l-6.2,0.1l0.1,7.8l6.1-0.1L71.1,141.6L71.1,141.6
							z"/>
					</g>
					<g class="st30">
						<path d="M69.6,147.9l-3,0l-0.1-4.7l3-0.1L69.6,147.9L69.6,147.9z M69.4,143.2l-2.8,0.1l0.1,4.4l2.6-0.1L69.4,143.2L69.4,143.2
							z"/>
					</g>
					<g class="st30">
						<path d="M80.1,149.6l-6.4,0l-0.1-8l6.4-0.1L80.1,149.6L80.1,149.6z M79.9,141.6l-6.2,0.1l0.1,7.8l6.1-0.1L79.9,141.6
							L79.9,141.6z"/>
					</g>
					<g class="st30">
						<path d="M78.4,147.9h-3l-0.1-4.7l3-0.1L78.4,147.9L78.4,147.9z M78.2,143.2l-2.8,0.1l0.1,4.5l2.7-0.1L78.2,143.2L78.2,143.2z"
							/>
					</g>
					<polygon class="st33" points="81.6,147 81.6,165.2 63.4,165.2 63.4,147 81.6,147 					"/>
					<g class="st30">
						<path d="M81.8,165.3l-18.3,0L63.2,147l18.3-0.1L81.8,165.3L81.8,165.3z M81.5,147l-18.1,0.1l0.2,18l18-0.1L81.5,147L81.5,147z
							"/>
					</g>
					<g class="st30">
						<polygon points="63.2,152.3 63.2,152.1 81.6,152.1 63.2,152.3 						"/>
					</g>
					<g class="st30">
						<polygon points="65.4,165.2 65.4,152.3 65.6,165.2 65.4,165.2 						"/>
					</g>
					<g class="st30">
						<polygon points="79.3,165.2 79.3,152.4 79.5,165.2 79.3,165.2 						"/>
					</g>
					<g class="st30">
						<path d="M88.6,139.4l-32.4,0l10.1-7.7H78L88.6,139.4L88.6,139.4z M77.9,131.9H66.4l-10.1,7.5l31.6-0.2L77.9,131.9L77.9,131.9z
							"/>
					</g>
					<g class="st30">
						<path d="M77.2,130.3l-9.8,0l-0.1-4.7l9.8-0.1L77.2,130.3L77.2,130.3z M76.9,125.6l-9.6,0.1l0.1,4.5l9.5-0.1L76.9,125.6
							L76.9,125.6z"/>
					</g>
					<g class="st30">
						<path d="M74.5,129.1H70l-0.1-2.4l4.6-0.1L74.5,129.1L74.5,129.1z M74.3,126.7l-4.3,0.1l0.1,2.2l4.2-0.1L74.3,126.7L74.3,126.7
							z"/>
					</g>
					<g class="st30">
						<path d="M77.9,124.3l-11.1,0l5.3-4L77.9,124.3L77.9,124.3z M72.1,120.5l-5.2,3.8l10.3-0.2L72.1,120.5L72.1,120.5z"/>
					</g>
					<path class="st33" d="M94,117.8c1.5,0,1.9,6.3,1.9,9.5c1.3,0.4,4.2,2.2,5.5,3.9l-14.8,0c1.3-1.6,4.2-3.5,5.5-3.9
						C92.1,124.1,92.4,117.7,94,117.8L94,117.8z"/>
					<g class="st30">
						<path d="M86.6,131.2c1.2-1.9,4.2-3.7,5.4-4.1c-0.1-0.7-0.1-7.9,1.4-9.2c-0.9,1.2-1.2,6.4-1.2,9.3
							C90.9,127.7,88,129.5,86.6,131.2l14.8-0.2c-1.4-1.5-4.3-3.3-5.6-3.6c-0.1-2.8-0.4-8.2-1.5-9.3l-0.4-0.4l0.6,0.2
							c1.5,1.4,1.5,9,1.5,9.3c1.2,0.2,4.2,2.1,5.5,3.8L86.6,131.2L86.6,131.2z"/>
					</g>
					<g class="st30">
						<path d="M65.7,150.8h-1.5l0.2-0.8l0,0c-0.1,0-0.7-1.1,0.1-1.8l-0.4-0.6l1.4-0.2l-0.3,0.9l0,0c0.1,0,0.6,0.8,0,1.8L65.7,150.8
							L65.7,150.8z M65.4,147.5l-1.2,0.2l0.5,0.5c-0.6,0.8,0,1.8,0,1.8l-0.3,0.7l1-0.1l-0.3-0.5c0.6-1,0-1.7,0-1.7L65.4,147.5
							L65.4,147.5z"/>
					</g>
					<g class="st30">
						<path d="M68.4,150.8h-1.5l0.2-0.8c0,0,0,0,0,0c-0.1,0-0.6-1.1,0-1.8l-0.4-0.6l1.4-0.2l-0.3,0.9c0,0,0,0,0,0
							c0.1,0,0.6,0.8,0,1.8L68.4,150.8L68.4,150.8z M68.1,147.5l-1.2,0.2l0.5,0.5c-0.6,0.8,0,1.8,0,1.8l-0.4,0.7l1-0.2l-0.3-0.5
							c0.6-1,0-1.7,0-1.7L68.1,147.5L68.1,147.5z"/>
					</g>
					<g class="st30">
						<path d="M71.4,150.8l-1.5,0l0.2-0.8l0,0c-0.1,0-0.7-1.1,0-1.8l-0.4-0.6l1.4-0.2l-0.3,0.9v0c0.1,0,0.6,0.8,0,1.8L71.4,150.8
							L71.4,150.8z M71.1,147.5l-1.2,0.2l0.5,0.5c-0.6,0.8,0,1.8,0,1.8l-0.3,0.7l1-0.1l-0.3-0.5c0.6-1,0-1.7,0-1.7L71.1,147.5
							L71.1,147.5z"/>
					</g>
					<g class="st30">
						<path d="M74.7,150.8h-1.5l0.2-0.8c0,0.1-0.7-1.1,0.1-1.8l-0.4-0.6l1.4-0.2l-0.3,0.9c0,0,0,0,0,0c0.1,0,0.6,0.8,0,1.8
							L74.7,150.8L74.7,150.8z M74.4,147.5l-1.2,0.2l0.5,0.6c-0.6,0.8,0,1.8,0,1.8l-0.4,0.8l1-0.2l-0.3-0.5c0.6-1,0-1.7,0-1.7
							L74.4,147.5L74.4,147.5z"/>
					</g>
					<g class="st30">
						<path d="M77.6,150.8h-1.5l0.2-0.8c-0.1,0-0.7-1,0.1-1.8l-0.4-0.6l1.4-0.2l-0.3,0.9c0,0,0,0,0,0c0.1,0,0.6,0.8,0,1.8
							L77.6,150.8L77.6,150.8z M77.4,147.5l-1.2,0.2l0.5,0.6c-0.6,0.8-0.1,1.8-0.1,1.8l-0.3,0.7l1-0.1l-0.3-0.5c0.6-1,0-1.7,0-1.7
							L77.4,147.5L77.4,147.5z"/>
					</g>
					<g class="st30">
						<path d="M80.6,150.8h-1.5l0.2-0.8c0,0,0,0,0,0c-0.1,0-0.7-1.1,0.1-1.8l-0.4-0.6l1.4-0.2l-0.3,0.9h0c0.1,0,0.6,0.8,0,1.8
							L80.6,150.8L80.6,150.8z M80.3,147.5l-1.2,0.2l0.5,0.5c-0.6,0.8,0,1.8,0,1.8l-0.4,0.8l1-0.2l-0.3-0.5c0.6-1,0-1.7,0-1.7
							L80.3,147.5L80.3,147.5z"/>
					</g>
					<path class="st29" d="M72.6,188.4c6.8,0,15.2-1.4,19.2-3.4l8.6-0.8l0.2,10.5c-7.3,4-24.2,4.9-27.9,4.9
						c-3.7,0-20.8-0.9-28.2-4.9l0.1-10.6l8.7,0.8C57.1,187,65.8,188.4,72.6,188.4L72.6,188.4L72.6,188.4z"/>
					<g class="st30">
						<path d="M72.7,199.7h-0.2c-3.9,0-20.8-0.9-28.2-4.9l0.1-10.6l8.7,0.8c3.7,1.9,12.3,3.4,19.4,3.4h0c7.2,0,15.4-1.5,19.1-3.4
							l8.6-0.8l0.2,10.6C93.3,198.9,76.5,199.7,72.7,199.7L72.7,199.7z M44.5,184.3l-0.1,10.5c7.3,4,24.2,4.9,28,4.9l0.3,0v0
							c3.8,0,20.5-0.9,27.8-4.9l-0.2-10.5l-8.6,0.8c-3.8,1.9-11.9,3.4-19,3.4c-7.3,0-15.8-1.5-19.6-3.4L44.5,184.3L44.5,184.3z"/>
					</g>
					<path class="st29" d="M22.2,143.5l7.6,2.4l-2.3,12.3l-7.2,1.1C20.3,159.4,19.1,152.9,22.2,143.5L22.2,143.5z"/>
					<g class="st30">
						<path d="M20.3,159.4L20.3,159.4c0-0.1-1.2-6.6,1.9-15.9l7.6,2.4l-2.3,12.4L20.3,159.4L20.3,159.4z M22.2,143.5
							c-2.9,9-1.9,15.4-1.9,15.8l7.2-1.1l2.3-12.3L22.2,143.5L22.2,143.5z"/>
					</g>
					<polygon class="st36" points="27.5,158.1 20.3,159.4 24.8,152.9 					"/>
					<g class="st30">
						<path d="M20.2,159.4l4.6-6.5l2.7,5.2L20.2,159.4L20.2,159.4z M24.8,152.9l-4.5,6.4l7.1-1.3L24.8,152.9L24.8,152.9z"/>
					</g>
					<path class="st29" d="M17.6,152.4l7.3,0.5c0.2,6.2,0.9,29.9,29.3,31.2l-0.9,8.6C18.8,193.1,16.2,163.7,17.6,152.4L17.6,152.4z"
						/>
					<g class="st30">
						<path d="M52.7,192.8c-11.7,0-20.8-3.5-26.9-10.4c-7.7-8.7-9.2-21.6-8.2-30l7.4,0.5c0.6,24.7,16.3,30.6,29.2,31.2l-0.9,8.7
							H52.7L52.7,192.8z M17.6,152.4c-1,8.4,0.5,21.3,8.2,30c6.1,6.9,15.1,10.4,26.9,10.4v0l0.6,0l0.9-8.6
							c-13-0.6-28.6-6.5-29.2-31.2L17.6,152.4L17.6,152.4z"/>
					</g>
					<g class="st30">
						<polygon points="44.5,194.5 44.5,194.5 53.2,192.6 44.5,194.5 						"/>
					</g>
					<path class="st29" d="M122.3,143.6l-7.6,2.4l2.4,12.3l7.2,1.2C124.4,159.4,125.5,153,122.3,143.6L122.3,143.6z"/>
					<g class="st30">
						<path d="M124.4,159.5L124.4,159.5l-7.2-1.2l-2.4-12.3l7.6-2.4C125.5,152.9,124.4,159.4,124.4,159.5L124.4,159.5L124.4,159.5z
							 M122.3,143.6l-7.5,2.4l2.4,12.3l7.2,1.1C124.4,158.9,125.4,152.6,122.3,143.6L122.3,143.6z"/>
					</g>
					<polygon class="st36" points="117.2,158.1 124.4,159.4 119.8,153 					"/>
					<g class="st30">
						<path d="M124.4,159.5l-7.3-1.3l2.6-5.2L124.4,159.5L124.4,159.5z M119.7,153l-2.6,5.2l7.1,1.2L119.7,153L119.7,153z"/>
					</g>
					<path class="st29" d="M127,152.5l-7.4,0.5c-0.1,6.2-0.6,30-29,31.2l1,8.6C126.1,193.2,128.5,163.7,127,152.5L127,152.5z"/>
					<g class="st30">
						<path d="M92.3,192.8L92.3,192.8h-0.7l-1-8.7c13-0.6,28.6-6.5,29-31.2l7.4-0.5c1.1,8.4-0.3,21.3-7.9,30
							C113,189.3,104,192.8,92.3,192.8L92.3,192.8z M126.9,152.5l-7.3,0.5c-0.4,24.7-16,30.6-29,31.2l1,8.6l0.7,0
							c11.7,0,20.7-3.5,26.7-10.3C126.6,173.7,128,160.9,126.9,152.5L126.9,152.5z"/>
					</g>
					<g class="st30">
						<polygon points="100.4,194.6 91.7,192.7 100.4,194.5 100.4,194.6 						"/>
					</g>
					<path class="st37" d="M68,193.7c-0.2,0.1-0.5,0.2-0.8,0.1l-1.4-0.1L66,192l1.4,0.1c0.3,0,0.5,0.1,0.6,0.1
						c0.3,0.1,0.4,0.4,0.4,0.8C68.3,193.3,68.2,193.5,68,193.7L68,193.7z M65.7,196.3l0.1-2.1l1.6,0.1c0.5,0,0.9-0.1,1.2-0.4
						c0.3-0.3,0.4-0.6,0.4-1c0-0.4-0.1-0.8-0.3-1.1c-0.3-0.2-0.6-0.4-1.1-0.4l-2.3-0.1l-0.3,4.9L65.7,196.3L65.7,196.3z"/>
					<path class="st37" d="M70.6,192.2l1.7,0c0.2,0,0.4,0.1,0.6,0.1c0.3,0.1,0.4,0.4,0.4,0.7c0,0.3-0.1,0.5-0.3,0.7
						c-0.2,0.1-0.4,0.2-0.8,0.2l-1.6,0L70.6,192.2L70.6,192.2z M70.6,196.6l0-2.1l1.6,0c0.3,0,0.5,0,0.6,0.1
						c0.2,0.1,0.4,0.3,0.4,0.6l0,0.8c0,0.2,0,0.3,0,0.4c0,0.1,0,0.1,0.1,0.2h0.8l0-0.1c-0.1,0-0.2-0.1-0.2-0.3c0-0.1,0-0.2-0.1-0.4
						l0-0.7c0-0.3-0.1-0.5-0.2-0.6c-0.1-0.1-0.2-0.2-0.4-0.3c0.2-0.1,0.4-0.3,0.5-0.4c0.1-0.2,0.2-0.4,0.2-0.7c0-0.6-0.2-1-0.7-1.2
						c-0.3-0.1-0.6-0.2-1-0.2l-2.4,0l0,4.9L70.6,196.6L70.6,196.6z"/>
					<path class="st37" d="M75.8,195.6c-0.3-0.4-0.5-0.8-0.5-1.4c0-0.7,0.1-1.2,0.4-1.5c0.3-0.4,0.7-0.6,1.3-0.6
						c0.5,0,1,0.1,1.3,0.5c0.3,0.3,0.5,0.8,0.6,1.4c0,0.5-0.1,1-0.3,1.5c-0.3,0.4-0.7,0.7-1.3,0.7C76.6,196.1,76.1,195.9,75.8,195.6
						L75.8,195.6z M75,192.5c-0.3,0.5-0.4,1-0.4,1.7c0,0.7,0.3,1.3,0.7,1.8c0.5,0.5,1.1,0.7,1.9,0.6c0.8,0,1.5-0.4,1.9-0.9
						c0.3-0.5,0.5-1.1,0.5-1.9c0-0.7-0.2-1.2-0.6-1.6c-0.5-0.5-1.1-0.8-2-0.8C76,191.5,75.4,191.8,75,192.5L75,192.5z"/>
					<path class="st37" d="M98.1,185.4c0.5-0.1,0.9-0.1,1.3,0.1c0.5,0.2,0.9,0.6,1.2,1.2l-0.7,0.1c-0.1-0.3-0.4-0.6-0.6-0.7
						c-0.3-0.1-0.6-0.1-1-0.1c-0.5,0.1-0.8,0.3-1.1,0.7c-0.3,0.4-0.3,0.9-0.2,1.6c0.1,0.6,0.3,1,0.6,1.3c0.3,0.3,0.8,0.4,1.4,0.4
						c0.4-0.1,0.8-0.3,1.1-0.6c0.3-0.3,0.3-0.7,0.2-1.3l-1.6,0.2l-0.1-0.5l2.2-0.3l0.4,2.6l-0.4,0.1l-0.3-0.6
						c-0.2,0.3-0.4,0.5-0.5,0.6c-0.3,0.2-0.6,0.4-1.1,0.4c-0.6,0.1-1.1,0-1.6-0.3c-0.5-0.4-0.9-1-1-1.8c-0.1-0.8,0-1.5,0.4-2
						C96.9,185.8,97.4,185.5,98.1,185.4L98.1,185.4z"/>
					<path class="st37" d="M103.1,185l1.6-0.6c0.2-0.1,0.4-0.1,0.6-0.1c0.3,0,0.5,0.2,0.6,0.5c0.1,0.3,0.1,0.6,0,0.7
						c-0.1,0.2-0.3,0.3-0.6,0.4l-1.5,0.5L103.1,185L103.1,185z M104.7,189.1l-0.8-2l1.5-0.5c0.3-0.1,0.5-0.1,0.6-0.1
						c0.3,0,0.5,0.2,0.6,0.5l0.3,0.8c0.1,0.2,0.1,0.3,0.2,0.4c0,0.1,0.1,0.1,0.1,0.1l0.8-0.3l0-0.1c-0.1,0-0.2-0.1-0.3-0.2
						c-0.1-0.1-0.1-0.2-0.2-0.4l-0.3-0.6c-0.1-0.3-0.2-0.4-0.4-0.5c-0.1-0.1-0.3-0.1-0.5-0.1c0.2-0.2,0.3-0.4,0.3-0.6
						c0-0.2,0-0.5-0.1-0.8c-0.2-0.5-0.6-0.8-1.1-0.8c-0.3,0-0.6,0-1,0.2l-2.2,0.8l1.8,4.6L104.7,189.1L104.7,189.1z"/>
					<polygon class="st37" points="110.4,186.6 107.6,182.5 110.7,180.6 111,181.1 108.5,182.7 109.4,183.9 111.7,182.4 112,182.9 
						109.7,184.4 110.6,185.8 113.2,184.1 113.5,184.6 110.4,186.6 					"/>
					<path class="st37" d="M112.9,179.4l0.8-0.9c0.4-0.4,0.8-0.6,1.2-0.5c0.4,0,0.9,0.3,1.3,0.7c0.1,0.1,0.2,0.2,0.4,0.4
						c0.2,0.3,0.3,0.5,0.4,0.7c0.1,0.3,0,0.6-0.1,0.8c-0.1,0.1-0.2,0.3-0.3,0.5l-0.8,0.9L112.9,179.4L112.9,179.4z M117.1,181.3
						c0.6-0.6,0.7-1.3,0.4-2.1c-0.2-0.4-0.5-0.8-0.9-1.2c-0.5-0.5-1.1-0.7-1.6-0.7c-0.6,0-1.2,0.2-1.6,0.7l-1.4,1.5l3.8,3.3
						L117.1,181.3L117.1,181.3z"/>
					<polygon class="st37" points="120.1,177.5 115.7,174.9 116.1,174.4 120.4,176.9 120.1,177.5 					"/>
					<polygon class="st37" points="121.8,174.5 117.1,172.6 118.4,169.3 119,169.6 117.9,172.3 119.3,172.8 120.4,170.3 
						120.9,170.5 119.9,173.1 121.5,173.7 122.6,170.9 123.2,171.2 121.8,174.5 					"/>
					<polygon class="st37" points="123.9,168.8 119,167.7 119.1,166.9 123.7,165.3 119.7,164.5 119.8,163.9 124.8,164.9 
						124.6,165.7 120.1,167.2 124.1,168.1 123.9,168.8 					"/>
					<path class="st37" d="M123.5,162.5l0.1-0.6c0.3,0,0.5,0,0.7-0.1c0.4-0.2,0.6-0.6,0.6-1.1c0-0.2,0-0.5,0-0.7
						c-0.1-0.4-0.3-0.6-0.7-0.7c-0.3,0-0.5,0-0.6,0.2c-0.1,0.2-0.3,0.4-0.4,0.8l-0.2,0.6c-0.1,0.4-0.3,0.7-0.4,0.9
						c-0.2,0.3-0.6,0.4-1,0.4c-0.4,0-0.8-0.2-1.1-0.6c-0.3-0.3-0.4-0.8-0.3-1.3c0-0.5,0.2-0.9,0.5-1.3c0.3-0.3,0.7-0.5,1.3-0.4
						l0,0.6c-0.3,0-0.5,0-0.6,0.2c-0.3,0.2-0.4,0.5-0.5,1c0,0.4,0,0.7,0.2,0.9c0.1,0.2,0.3,0.3,0.6,0.3c0.2,0,0.4-0.1,0.6-0.2
						c0.1-0.1,0.2-0.4,0.4-0.9l0.2-0.7c0.1-0.3,0.2-0.6,0.4-0.7c0.3-0.3,0.6-0.4,1.1-0.4c0.6,0.1,0.9,0.3,1.1,0.7
						c0.2,0.4,0.3,0.9,0.2,1.4c-0.1,0.6-0.3,1.1-0.6,1.4C124.5,162.4,124.1,162.5,123.5,162.5L123.5,162.5z"/>
					<path class="st37" d="M21,162.2l0.1,0.6c-0.3,0.1-0.5,0.2-0.6,0.3c-0.3,0.3-0.4,0.7-0.3,1.2c0,0.2,0.1,0.5,0.2,0.6
						c0.2,0.4,0.5,0.5,0.9,0.5c0.3,0,0.5-0.1,0.5-0.3c0.1-0.2,0.1-0.5,0.2-0.8l0-0.7c0-0.4,0.1-0.8,0.2-1c0.2-0.3,0.4-0.5,0.9-0.6
						c0.4-0.1,0.9,0,1.2,0.3c0.3,0.2,0.6,0.6,0.6,1.2c0.1,0.5,0.1,1-0.1,1.4c-0.2,0.4-0.6,0.6-1.1,0.7l-0.1-0.6
						c0.3-0.1,0.5-0.2,0.6-0.3c0.2-0.3,0.3-0.6,0.2-1.1c-0.1-0.4-0.2-0.6-0.4-0.8c-0.2-0.1-0.4-0.2-0.6-0.2c-0.2,0-0.4,0.2-0.5,0.4
						c0,0.1-0.1,0.4-0.1,0.9l0,0.7c0,0.3-0.1,0.6-0.2,0.8c-0.2,0.4-0.5,0.6-0.9,0.6c-0.6,0.1-1,0-1.3-0.4c-0.3-0.4-0.5-0.8-0.6-1.3
						c-0.1-0.6,0-1.1,0.2-1.5C20,162.5,20.4,162.3,21,162.2L21,162.2z"/>
					<polygon class="st37" points="20.7,168.7 25.5,167.2 26.6,170.6 26,170.8 25.1,168 23.7,168.4 24.5,171 23.9,171.2 23.1,168.6 
						21.4,169.1 22.4,172 21.8,172.1 					"/>
					<path class="st37" d="M22.8,174.6l4.4-2.4l0.5,0.8l-3.1,3.2l4.5-0.8l0.5,0.8l-4.4,2.3l-0.3-0.5l2.6-1.4
						c0.1-0.1,0.2-0.1,0.4-0.3c0.2-0.1,0.5-0.2,0.7-0.3l-4.4,0.8l-0.3-0.6l3-3.2l-0.1,0.1c-0.1,0.1-0.3,0.1-0.5,0.3
						c-0.2,0.1-0.4,0.2-0.5,0.3l-2.6,1.4L22.8,174.6L22.8,174.6z"/>
					<path class="st37" d="M31.1,181.1c-0.2-0.1-0.4-0.2-0.7-0.4l-0.9-1l1.3-1.2l1,1c0.2,0.2,0.3,0.4,0.4,0.5c0.1,0.3,0,0.6-0.3,0.8
						C31.6,181.1,31.3,181.2,31.1,181.1L31.1,181.1z M27.5,181.6l1.5-1.4l1.1,1.1c0.4,0.4,0.7,0.5,1.1,0.5c0.4,0,0.7-0.2,1-0.4
						c0.3-0.3,0.5-0.6,0.5-1c0-0.4-0.2-0.7-0.5-1l-1.6-1.6l-3.7,3.4L27.5,181.6L27.5,181.6z"/>
					<polygon class="st37" points="32,185.5 34.6,181.3 37.8,183.3 37.5,183.7 34.9,182.2 34.1,183.5 36.4,184.9 36.1,185.4 
						33.8,183.9 32.8,185.4 35.5,186.9 35.2,187.4 					"/>
					<path class="st37" d="M39.9,184.7l1.6,0.5c0.2,0.1,0.4,0.2,0.5,0.3c0.2,0.2,0.3,0.5,0.1,0.8c-0.1,0.3-0.3,0.5-0.5,0.6
						c-0.2,0-0.5,0-0.8-0.1l-1.5-0.5L39.9,184.7L39.9,184.7z M38.5,188.8l0.7-2l1.5,0.5c0.3,0.1,0.5,0.2,0.6,0.3
						c0.2,0.2,0.2,0.4,0.1,0.7l-0.2,0.8c0,0.2-0.1,0.3-0.1,0.4c0,0.1,0,0.1,0,0.2l0.8,0.2l0-0.1c-0.1-0.1-0.1-0.2-0.1-0.3
						c0-0.1,0.1-0.2,0.1-0.4l0.2-0.6c0.1-0.3,0.1-0.5,0-0.6c-0.1-0.2-0.2-0.3-0.3-0.4c0.3,0,0.5-0.1,0.7-0.3
						c0.2-0.1,0.3-0.4,0.4-0.6c0.2-0.5,0.1-1-0.3-1.3c-0.2-0.2-0.5-0.3-0.9-0.5l-2.2-0.7l-1.6,4.7L38.5,188.8L38.5,188.8z"/>
					<path class="st38" d="M45.3,103.9c0.6-1.4,5.9-5.2,23.5-3.5c0,0,3,1.8,4.7,1.6c1-0.1-0.6,0.1-1.9-1c-1.3-1.1-1.6-3.3,1.4-3.2
						c3,0.1,14.3,0.7,14.5,1.7c0.2,1-6,1.5-8.2,1.4c-2.3-0.1-2,1.1,0.3,1c7.2-0.3,15-2.8,23.2,3.1c1,0.7-2.5,0.8-5.2-0.3
						c0,0-7.3,0.4-10.4-0.1c0,0-2.4,2-5.6,1.8c0.4,1-1.2,4.8-11.1,2c-1.6,0.5-7.6,1.5-6.9-0.3c-1.6,0-4.3,0.5-4.7-0.4
						c-0.4-0.9,4.8-2.2,5.8-3.2c0,0-11.1,0.1-13.2-0.7C51.4,103.7,44.9,105.2,45.3,103.9L45.3,103.9z"/>
					<path class="st39" d="M48.8,119.4c0.2-0.3,0.3-0.9,0.8-0.9c1.1,0.3,1.8,2.3,3.2,1c0.5-0.1,0.7,0.5,1.1,0.6
						c0.2,1.1,1.1-0.2,1.8-0.1c1.4-0.6,3.2-0.8,4.9-0.5c0,1.1-0.8,2.3-1.9,2.9c0,1.1,1,1.8,1,2.9c-0.2,0.4,0,1.1-0.6,1.2
						c-0.8-0.1-1.6-0.2-2.2-0.7c-0.1-0.1-0.1-0.2-0.3-0.2c-0.1,0.4,0.5,0.7,0.7,1.1c-0.4,0.7-1,0.1-1.6,0.1c-0.2,0.4,0,0.9-0.4,1.1
						c-0.7,0-0.9-0.8-1.3-1.2c-0.4,0.5,0.3,0.8,0.4,1.1c-0.3,1.4-0.2,2.9-1.7,3.8l-1,0.5c-0.3-0.7-0.1-1.8-0.3-2.6
						c-0.6,0.9-1,1.7-1.8,2.5c-1-0.3-1.6-1.5-1.8-2.4c-0.4-1.1-0.2-2.4,0.7-3.3c-0.3-0.6-1.3-0.4-1.5-1.3c-1.5-1-2.4,1.8-3.4,0.3
						c-0.3-1.3,0.1-3,1-4c-0.2-0.5-0.9-0.4-1.4-0.7c-1-0.8-2.4-1.7-2.3-3.2C43.7,116.7,46.9,117.4,48.8,119.4L48.8,119.4z"/>
					<path class="st29" d="M50.2,119.3c-0.1,1.2,0.8,0.3,1.5,1.1c-0.5-0.2-0.9,0.9-1.4,0.3l-0.3,0.3c0.2,0.4,0.5,0.5,0.2,0.9
						c-0.5,0.2-0.6-0.5-0.9-0.8c0-0.1,0.1-0.4-0.1-0.4c-0.3,0.3-0.6,0.4-1.1,0.3c-0.1-0.2-0.4-0.5-0.1-0.7c0.4-0.6,1.1,0.2,1.4-0.2
						c0.1-0.4-0.3-0.8,0.1-1C49.7,119.1,50.1,118.9,50.2,119.3L50.2,119.3z"/>
					<path class="st29" d="M53.5,120.3c0,0.2-0.1,0.6,0.2,0.7c0.4-0.2,0.8-0.1,1.1,0.3c0,0.2,0.1,0.5-0.2,0.6l-0.6-0.1
						c0-0.1-0.1-0.2-0.2-0.3c-0.3-0.1-0.4,0.1-0.6,0.3c0.1,0.2,0.5,0.4,0.4,0.7c-0.4,0.4-0.5-0.3-1-0.1c-0.3-0.1,0.1-0.7-0.3-0.9
						c-0.5,0-0.2,0.8-0.8,0.5c-0.2-0.3-0.5-0.6-0.2-0.9c0.3-0.2,0.7-0.1,1,0.1C52.5,120.7,52.5,119,53.5,120.3L53.5,120.3z"/>
					<path class="st29" d="M49.4,122c0.3,0.4-0.1,0.9,0.3,1.3c0.5-1,1,0.2,1.7,0.1c0.2,0.2,0.1,0.6,0.1,0.8
						c-0.8,0.2-1.7,0.5-2.4-0.2l-0.2,0.2c0.4,0.4,0.8,0.8,0.5,1.5c-0.6,0.1-1.5,0.1-1.8-0.5c-0.2-0.5,0.4-0.9-0.2-1.3
						c-0.4,0.5-0.4,1.1-1.2,0.7c-0.5-0.3-0.7-0.9-0.4-1.3c0.5-0.8,1.4,0,2-0.4c0.1-0.7-0.2-1.3,0.5-1.7
						C48.8,121.3,49.1,121.7,49.4,122L49.4,122z"/>
					<path class="st33" d="M51.6,122.5c-0.3,1.2-1.2-0.1-1.6-0.1C50.6,121.4,51,122.7,51.6,122.5L51.6,122.5z"/>
					<path class="st33" d="M54.5,123.8c-0.6,0.2-0.5-0.6-0.8-0.9l0.2-0.2C54.1,122.9,54.3,123.4,54.5,123.8L54.5,123.8z"/>
					<path class="st29" d="M53.6,123.6c0.2,0.4-0.4,0.8,0.1,1.1c0.2-0.1,0.4-0.3,0.4-0.4c0.4,0.1,0.9,0.2,1.2,0.6
						c0.3,0.9-0.6,0.9-1.1,1.1l-0.5,0c0.1-0.2-0.2-0.4-0.3-0.5c-0.2-0.1-0.4,0-0.6,0.2c0.1,0.6,0.8,1,0.1,1.5
						c-0.6,0-1.5,0.2-1.5-0.6c-0.2-0.5,0.6-1.2-0.3-1.2c-0.3,0.6-0.6,1.3-1.4,0.6L50,125c0.7,0,1.6,0.1,1.9-0.7
						c0.2-0.6-0.4-1.1,0.2-1.6C52.8,122.6,53.2,123.1,53.6,123.6L53.6,123.6z"/>
					<path class="st30" d="M53.1,124.9c0.2,0.5-0.3,0.5-0.6,0.7c-0.3,0-0.6-0.1-0.8-0.3c-0.1-0.5,0.3-0.6,0.6-0.8
						C52.7,124.3,52.8,124.8,53.1,124.9L53.1,124.9z"/>
					<path class="st33" d="M52.6,125.2c-0.1,0.1-0.2,0.1-0.3,0.1l-0.1-0.5C52.4,124.8,52.8,124.9,52.6,125.2L52.6,125.2z"/>
				</g>
			</g>
		</g>
	</g>
</g>
</svg>
