<?xml version="1.0" encoding="utf-8"?>
<!-- Generator: Adobe Illustrator 22.1.0, SVG Export Plug-In . SVG Version: 6.00 Build 0)  -->
<svg version="1.1" xmlns="http://www.w3.org/2000/svg" xmlns:xlink="http://www.w3.org/1999/xlink" x="0px" y="0px"
	 viewBox="0 0 300 300" style="enable-background:new 0 0 300 300;" xml:space="preserve">
<style type="text/css">
	.st0{clip-path:url(#SVGID_2_);}
	.st1{clip-path:url(#SVGID_2_);fill:#120065;}
	.st2{display:none;clip-path:url(#SVGID_2_);fill:#C9002B;}
	.st3{clip-path:url(#SVGID_4_);fill:#120065;}
	.st4{clip-path:url(#SVGID_4_);fill:#FFFFFF;}
	.st5{clip-path:url(#SVGID_4_);fill:#BC0030;}
	.st6{clip-path:url(#SVGID_4_);}
	.st7{clip-path:url(#SVGID_6_);fill:#99C2FD;}
	.st8{clip-path:url(#SVGID_6_);}
	.st9{fill:#FFFFFF;}
	.st10{clip-path:url(#SVGID_6_);fill:#4968C5;}
	.st11{clip-path:url(#SVGID_6_);fill:#58340C;}
	.st12{clip-path:url(#SVGID_6_);fill:#FCFF2C;}
	.st13{clip-path:url(#SVGID_6_);fill:#C0601C;}
	.st14{clip-path:url(#SVGID_6_);fill:#4BB917;}
	.st15{clip-path:url(#SVGID_6_);fill:#59DA62;}
	.st16{clip-path:url(#SVGID_6_);fill:#FFFFFF;}
	.st17{clip-path:url(#SVGID_6_);fill:#DB0037;}
</style>
<g id="Layer_2">
</g>
<g id="Layer_1">
	<g>
		<defs>
			<rect id="SVGID_1_" y="-0.1" width="300" height="300"/>
		</defs>
		<clipPath id="SVGID_2_">
			<use xlink:href="#SVGID_1_"  style="overflow:visible;"/>
		</clipPath>
		<g id="Layer_2_1_" class="st0">
		</g>
		<rect x="-1" y="-0.7" class="st1" width="302" height="301.4"/>
		<rect x="-8" y="-7" class="st2" width="327" height="69.5"/>
		<g class="st0">
			<g>
				<defs>
					<rect id="SVGID_3_" width="347" height="202.4"/>
				</defs>
				<clipPath id="SVGID_4_">
					<use xlink:href="#SVGID_3_"  style="overflow:visible;"/>
				</clipPath>
				<rect class="st3" width="347" height="202.4"/>
				<polygon class="st4" points="152.1,0 100.9,25.5 100.9,0 72.1,0 72.1,25.5 20.9,0 0,0 0,10.5 36.6,28.9 0,28.9 0,57.8 
					36.6,57.8 0,76.2 0,86.7 20.9,86.7 72.1,61.2 72.1,86.7 100.9,86.7 100.9,61.2 152.1,86.7 173.3,86.7 173.3,76.2 136.5,57.8 
					173.3,57.8 173.3,28.9 136.5,28.9 173.3,10.5 173.3,0 				"/>
				<polygon class="st5" points="159.6,0 101.8,28.9 115.6,28.9 173.3,0 				"/>
				<polygon class="st5" points="173.3,86.7 115.6,57.8 129.5,57.8 173.3,79.8 				"/>
				<polygon class="st5" points="0,6.9 44,28.9 57.9,28.9 0,0 				"/>
				<polygon class="st5" points="57.8,57.8 0,86.7 13.8,86.7 71.7,57.8 				"/>
				<polygon class="st5" points="78.3,0 78.3,34.9 0,34.9 0,51.8 78.3,51.8 78.3,86.7 95.2,86.7 95.2,51.8 173.3,51.8 173.3,34.9 
					95.2,34.9 95.2,0 				"/>
				<g class="st6">
					<defs>
						<rect id="SVGID_5_" width="347" height="202.4"/>
					</defs>
					<clipPath id="SVGID_6_">
						<use xlink:href="#SVGID_5_"  style="overflow:visible;"/>
					</clipPath>
					<path class="st7" d="M288.9,85.2c-0.1,19.7-3.2,40.9-28.6,51c-25.5-10.1-28.6-31.3-28.6-51H288.9z"/>
					<g class="st8">
						<path class="st9" d="M260.3,136.8l-0.2-0.1c-25.4-10.1-29-30.7-29-51.5l0-0.6h58.5l0,0.6c-0.1,20.8-3.6,41.5-29,51.5
							L260.3,136.8L260.3,136.8z M232.2,85.8c0.1,20.1,3.7,40,28,49.7c24.3-9.7,27.9-29.6,28-49.7H232.2L232.2,85.8z"/>
					</g>
					<path class="st10" d="M260.3,136.2c11.5-4.6,18.5-11.4,22.7-19.4c-0.6,0-1.9,0-2.5-0.1c-0.6,0-24.4-2.4-27.2-3.5
						c-2.4-0.9-11.8,0.8-16.2,2.3C241.1,124,248.1,131.4,260.3,136.2L260.3,136.2z"/>
					<path class="st11" d="M242.4,124c0.4-0.1,1.1-0.1,1.4,0c0.3,0.1,0.4,0.1,0.5-0.3c0.1-0.4,0.4-0.3,0.6-0.1
						c0.2,0.2,0.8,0.1,1-0.2c0.2-0.3,0.3-0.3,0.5-0.1c0.2,0.2,0.3,0.2,0.5,0.1c0.2-0.1,0.6-0.3,0.8-0.7c0.2-0.3,0.5-0.5,0.6-0.3
						c0.2,0.2,0.3,0.3,0.5,0.2c0.2,0,0.3,0.2,0.3,0.5c0,0.3,0.1,0.3,0.6-0.1c0.5,0.5,0.6,0.3,0.6-0.2c0-0.5-0.1-2.3-0.3-2.6
						c-0.2-0.3-0.4-1-0.4-1.5c-0.1-1.1-0.1-1.1-1.4-1.8c0-0.4-0.1-0.5-1-0.5c0-0.1-0.1-0.5-0.3-0.7c-0.2-0.2-0.2-0.2-0.1-0.7
						c0.4,0,0.8,0,1-0.3c0.2-0.3,0.9-0.3,1.4-0.1c0.4,0.2,1,0.2,1.8,0.1c0.3-0.3,0.8-0.5,1.4-0.8c0.6-0.3,0.7-0.4,0.8-0.9
						c0.1-1.1-0.3-2.4-0.6-3c-0.3-0.6-0.4-1.3-0.8-2.3c-0.5-1-0.5-1.3-1-1.9c-0.1-0.2-0.3-0.3-0.3-0.7c0-0.3-0.2-0.8-0.5-1.2
						c-0.9-0.9-1.3-3.7-1.7-5.7c-0.2-1.2-0.1-4-0.6-4.4c-0.8-0.7-1.3-0.6-1.8-0.8c-0.4-0.6-0.6-1.7-1-2.7c-0.6,0.1-1,0.7-1.4,0.9
						c-0.4,0.2-0.5,0.2-0.5,0.8c0,0.6-0.3,1.3-0.9,2.2c-0.6,0.9-1.5,0.6-2.3,1.9c-1.7-2.1-1.8-2.7-1.9-3.3c-0.1-0.6-0.4-0.7-1.4-1.6
						c0-0.3-0.1-1.3,0-1.8c-0.7-0.6-1.2-0.5-1.6-0.1c-0.3,0.4-0.6,1.1-1.1,1.4c-0.3,0.4-1.3,1.4-2.1,2.6
						C232.6,104.5,235.1,115.3,242.4,124L242.4,124z"/>
					<path class="st12" d="M288.9,85.2c0-7.4-0.4-14.6-0.2-20.9c-9.5-4.3-22-5.1-28.4-5.1c-6.4,0-18.9,0.9-28.4,5.1
						c0.2,6.3-0.2,13.5-0.2,20.9H288.9z"/>
					<g class="st8">
						<path class="st9" d="M289.5,85.8H231l0-0.6c0-3.2,0.1-6.4,0.1-9.5c0.1-4.1,0.2-7.9,0.1-11.4l0-0.4l0.4-0.2
							c10.8-4.8,24.7-5.2,28.7-5.2c4,0,17.9,0.4,28.7,5.2l0.4,0.2l0,0.4c-0.1,3.6,0,7.4,0.1,11.4c0.1,3.1,0.1,6.3,0.1,9.5
							L289.5,85.8L289.5,85.8z M232.2,84.6h56.1c0-3-0.1-6-0.1-8.8c-0.1-3.9-0.2-7.6-0.1-11.1c-10.5-4.6-23.9-4.9-27.8-4.9
							c-3.9,0-17.3,0.4-27.8,4.9c0.1,3.5,0,7.2-0.1,11.1C232.3,78.6,232.2,81.6,232.2,84.6L232.2,84.6z"/>
					</g>
					<path class="st13" d="M233.2,93.8c0.3,0.5,0.9,1.4,0.9,1.8c0.2-0.5,0.4-0.7,0.4-0.9c0-0.3,0.4-0.8,0.3-1.1
						c-0.1-0.3-0.2-0.5,0.1-0.3c0.3,0.2,0.3,0.6,0.2,1.2c-0.2,1.5-0.8,1.9-0.9,2.9c0.9,2.2,0.2,3,1.2,5.1c0.2,0.1,0.6-0.1,0.7,0
						c0.5-0.4,0.9-0.2,1.7-0.1c0.7,0.2,1.2,0.7,1.2,1.2c0,0.5,0,0.6,0.2,0.9c0.2,0.3,0.5,0.7,0.4,1c-0.1,0.3,0.1,0.5,0.2,0.7
						c0.1,0.2,0,0.5-0.1,0.7c-0.1,0.2-0.1,0.5,0.3,1c0.4,0.5,1.3,2.4,1.3,3.6c0,1.2,0.1,1.7,0.5,1.9c0.5,0.2,0.6,0.4,0.6,0.9
						c-0.1,0.5,0.2,3.1,0.3,3.5c0.1,0.4,0.2,0.3,0.4,0.5c0.2,0.2,0.3,0.5,0.9,0.5c0.6,0,1.2-0.1,1.6,0c0.6,0.8,0.9,1.8,1,2.5
						c0.1,0.7,0.1,1.6,0.3,1.6c0.2,0,0.4,0,0.4-0.8c-0.1-0.8-0.1-0.9-0.4-1.3c-0.3-0.4-0.4-0.6-0.3-0.8c0.2-0.3,0.2-0.7,0.1-1
						c-0.1-0.3-0.2-0.8,0.4-0.2c0.5,0.6,0.7,0.8,0.8,1c0.2,0.2,0.2,0.6,0.2,1c0,0.4,0,0.5,0.3,0.3c0.2-0.2,0.5,0.1,0.4,0.5
						c-0.1,0.4,0,0.7,0.4,0.8c0.4,0.1,0.5,0.2,0.6,0.5c0.1,0.3,0.4,0.4,0.4-0.2s-0.2-1.8-0.4-2.1c-0.2-0.4-0.3-1.2-0.3-1.7
						c0-0.5-0.1-0.6-0.3-0.7c-0.2-0.1-0.4-0.3-0.4-0.5c0-0.2-0.2-0.3-0.4-0.3c-0.1,0-0.3-0.1-0.3-0.3c-0.1-0.2-0.2-0.2-0.3-0.2
						c-0.2,0-0.4,0.1-0.5-0.2c-0.1-0.3-0.2-0.6-0.4-0.8c-0.2-0.2-0.3-0.3-0.3-1c0-0.7,0-0.8-0.3-1.1c-0.2-0.3-0.6-0.9-0.7-1.2
						c-0.2-0.3-0.3-0.6-0.3,0c0,0.6,0,0.9,0.4,1.1c0.4,0.2,0.5,0.2,0.3,0.5c-0.2,0.3,0,0.5,0.1,0.8c0.1,0.2,0.2,0.4,0,0.7
						c-0.2,0.2-0.4,0.2-0.4-0.2c0-0.3-0.1-0.8-0.2-1c-0.2-0.3-0.3-0.5-0.5-0.3c-0.2,0.2-0.3,0-0.2-0.2c0.1-0.1,0.1-0.2,0-0.3
						c-0.1-0.1-0.1-0.2,0-0.4c0.2-0.2,0.2-0.3,0.1-0.7c-0.1-0.4-0.8-2.6-1.1-3.1c-0.3-0.5-0.3-0.9,0.1-0.4c0.4,0.5,0.8,0.9,0.8,1.3
						c0,0.4,0.1,0.7,0.3,0.8c0.1,0.2,0.2,0.1,0.3-0.2c0.1-0.3,0.3-0.2-0.1-0.9c-0.4-0.7-1.3-1.8-1.6-3.7c-0.3-2-0.4-3.3-0.7-3.8
						c-0.3-0.5-0.4-0.7-0.4-1.2c0-0.5,0-1-0.2-1.4c-0.2-0.4-0.4-0.4-0.4,0.1c0,0.6,0,1.8,0.2,2c0.2,0.2,0.1,0.8,0,1.1
						c0,0.3-0.5,0.6,0.5,1.2c0.4,0.3,0.3,0.6,0.3,0.8c-0.1,0.2-0.1,0.2-0.4-0.2c-0.2-0.3-0.4-0.6-0.7-0.8c-0.2-0.2-0.3-0.3-0.2-0.8
						c0-0.4,0.1-0.8,0-0.9c-0.1-0.2-0.2,0-0.3,0.2c-0.1,0.3-0.1,0.9-0.3,1.1c-0.1,0.2-0.2,0.1-0.3-0.3c-0.1-0.4,0-1,0.2-1.8
						c0.2-0.7,0.4-1.5,0.2-2.4c-0.2-0.9-0.1-1.2-0.8-2c-0.7-0.8-1.5-1.5-1.9-2.5c-0.3-1-0.4-1.8-0.8-2.3c-0.4-0.4-0.9-1-1.3-1.2
						v-1.4c0-0.3-0.2-0.6-0.6-0.5c-0.4,0.1-0.7,0.4-0.9,0.9c-0.3,0.5-0.4,0.3-0.8,1.1C233.7,92.5,233.2,92.9,233.2,93.8L233.2,93.8z
						"/>
					<path class="st13" d="M235.4,102.9c0.2,0.2,0.5,0.3,0.9,0.1c0.4-0.2,0.8-0.7,1.3-0.2c0.5,0.5,0.8,1.4,0.8,2.1
						c0,0.7,0,2,0.8,2.7c0.8,0.7,1.2,1.5,1.2,2.4c0,0.9,0.4,2.4,0.5,2.7c0.1,0.4,0.3,0.8,0.6,1.1c0.3,0.3,0.4,1,0.5,1.7
						c0,0.8-0.1,1.3,0,1.7c0.1,0.4,0,0.7-0.3,0.5c-0.3-0.2-0.4-0.3-0.5-0.6c-0.2-0.3-0.3-0.3-0.2,0.2c0.2,0.5,0.6,0.9,1,0.9
						s0.5,0.1,0.8,0.3c0.2,0.3,0.3,0.4,0.7,0.4c0.4,0,0.5,0,0.9,0.1c0.4,0.1,0.4,0.1,0.6,0c0.2-0.1,0.4,0.1,0.6,0.5
						c0.2,0.4,0.5,1.5,0.5,1.8s0,0.6,0.2,0.9c0.2,0.3,0.2,0.6-0.1,0.4c-0.3-0.2-0.3-0.1-0.4-0.1c-0.2,0-0.3-0.1-0.6-0.2
						c-0.2-0.2-0.1-0.1-0.3-0.5c-0.3-0.4-0.4-0.5-0.4-0.2s0,0.6-0.2,0.5c-0.2-0.2-0.3-0.2-0.4,0c-0.2,0.2-0.2,0.3-0.4,0
						c-0.2-0.3-0.4-0.3-0.6-0.4c-0.2-0.1-0.2-0.1-0.3-0.3c-0.1-0.3-0.4-0.3-0.6-0.3c-0.3,0-0.4-0.1-0.4-0.3c0-0.2-0.2-0.3-0.3-0.4
						c-0.1-0.1-0.1-0.3-0.1-0.5c0-0.2-0.2-0.1-0.3-0.2c-0.1-0.1-0.2,0-0.2-0.3s-0.1-0.4-0.2-0.6c-0.1-0.2,0-0.4,0.1-0.7
						c0.1-0.3,0-0.4-0.2-0.6c-0.2-0.2,0-0.4-0.5-0.9c-0.5-0.4-0.8-0.1-0.9-1.1c-0.2-1-0.5-3.2-0.8-3.5c-0.3-0.3-0.5-0.6-0.7-0.7
						c-0.3-0.1-0.5,0-0.5-0.6c0-0.6-0.2-1.3-0.6-1.7c-0.4-0.4-0.5-0.5-0.7-0.7c-0.2-0.2-0.2-0.4,0-1c0.3-0.5,0.2-1.3,0.1-1.6
						c0-0.3-0.1-0.8-0.1-1.2c0.1-0.4,0-0.8-0.1-1.1C235.4,103.2,235.3,103.1,235.4,102.9L235.4,102.9z"/>
					<path class="st13" d="M243,94c-0.4,0.5-0.9,1-1.5,1.4c-0.6,0.4-1.3,0.8-0.9,1.5c0.4,0.7,0.8,0.8,0.8,1.3c0.1,0.5,0.2,1,0.6,1.1
						c0.4,0.1,0.6,0,0.6,0.9c0,0.9,0,1.2,0.4,1.5c0.4,0.3,0.3,0.7,0.5,1.5c0.2,0.8,0.2,2.5,0.7,3.7c0.5,1.2,1.6,3.4,1.5,3.8
						c-0.1,0.5-0.3,0.8,0.2,1.3c0.5,0.5,0.8,1.3,0.9,1.8c0,0.5,0.1,0.6,0.6,0.5c0.5-0.2,0.8-0.3,0.9-0.5c0.2-0.2,0.5-0.2,1,0.1
						c0.5,0.3,1.2,0.5,1.6,0.3c0.4-0.3,0.6-0.6,1-0.6c0.6-0.4,0.8-1.3,0.9-1.5c0.1-0.3,0-0.3-0.2-0.5c-0.3-0.3-0.1-0.7-0.2-1.1
						c0-0.4-0.2-1-0.7-2c-0.5-0.9-0.8-2-1.1-2.3c-0.3-0.3-0.5-1-0.5-1.3c0-0.3-0.4-0.6-0.7-0.9c-0.3-0.3-0.5-0.6-0.8-2.1
						c-0.3-1.5-0.5-2.5-0.5-2.8s0-0.3-0.3-0.4c-0.3-0.1-0.4-0.5-0.3-0.7c0.1-0.2-0.1-0.4-0.2-0.7c-0.1-0.3,0-0.7,0.2-1
						c0.2-0.3,0.1-1,0-1.5c-0.2-0.6-0.3-1.1-1-1.2c-0.7-0.1-0.8-0.3-1-0.8c-0.3-0.5-0.5-1.5-0.6-1.7c-0.1-0.2-0.2-0.3-0.7,0.2
						c-0.5,0.4-0.7,0.6-0.7,1.3c0,0.5,0.1,0.7,0.3,1c0.2,0.3,0.2,0.4,0.3,1.2c0.1,0.8,0.8,2-0.1,2.8c-0.9,0.7-0.8,0.9-0.7,1.4
						c0,0.5-0.2,0.8-0.4,0.1c-0.2-0.7,0-1.1,0.5-1.5c0.5-0.3,1-0.7,0.6-1.2c-0.3-0.5-0.5-1.5-0.5-2C243.3,93.8,243.3,93.7,243,94
						L243,94z"/>
					<path class="st14" d="M235.5,104.7c0,0.3,0.1,0.7,0.1,1c0,0.3,0.1,1.1-0.1,1.6c-0.2,0.5-0.2,0.8,0,1c0,0,0,0,0,0
						c0.5-0.2,0.6-0.7,0.4-1c-0.1-0.3-0.1-0.6,0.1-0.9c0.2-0.3,0.2-0.5,0-0.7c-0.1-0.2-0.1-0.2,0-0.8
						C236.2,104.4,235.8,104.4,235.5,104.7L235.5,104.7z"/>
					<path class="st14" d="M240.9,112.8c-0.1-0.4-0.4-1.8-0.5-2.7c0-0.9-0.4-1.7-1.2-2.4c-0.6-0.6-0.7-1.5-0.8-2.2
						c-0.5-0.3-0.7-0.2-0.6,0.4c0,0.6,0.6,0.8,0.5,1.7c-0.1,0.8-0.1,0.6,0.3,1c0.4,0.4,0.5,0.8,0.3,0.9c-0.2,0.2-0.2,0.5,0.1,0.6
						c0.3,0.1,0.3,0.4,0.3,0.7c0,0.3,0.2,0.4,0.4,0.6c0.2,0.2,0.2,0.7,0,1c-0.2,0.3-0.2,0.8,0.1,0.5c0.3-0.3,0.4,0,0.6,0.4
						c0.2,0.3,0.4,0.2,0.6,0.1C241,113.1,240.9,112.9,240.9,112.8L240.9,112.8z"/>
					<path class="st14" d="M244.9,120.1c-0.2,0.4-0.4,0.3-0.6,0.1c-0.2-0.2-0.4-0.2-0.3-0.5c0.1-0.3,0.1-0.4-0.2-0.6
						c0,0-0.1,0-0.1-0.1c-0.1,0-0.2,0-0.3,0c-0.4,0-0.5-0.1-0.7-0.4c-0.1-0.1-0.1-0.1-0.2-0.1c0,0.1,0,0.1,0,0.2
						c0,0.3,0,0.3-0.4,0.4c-0.3,0.1-0.3-0.3-0.3-0.6c0-0.1,0-0.1-0.1-0.2c-0.4-0.1-0.8-0.5-0.9-0.9c-0.2-0.5,0-0.5,0.2-0.2
						c0.2,0.3,0.2,0.4,0.5,0.6c0.3,0.2,0.4-0.1,0.3-0.5c0-0.1,0-0.3,0-0.4c-0.1-0.1-0.2-0.2-0.3-0.3c-0.5-0.2-0.4-0.3-0.3-0.7
						c0-0.4-0.1-0.4-0.4-0.2c-0.3,0.2-0.3,0-0.3-0.7s-0.4-0.6-0.5-0.2c-0.1,0.4-0.2,0.2-0.4-0.5c-0.2-0.6-0.4-0.8-0.5-0.2
						c0,0.5-0.2,0.6-0.5,0.3c0.1,0.4,0.1,0.7,0.2,1c0.2,1,0.4,0.7,0.9,1.1c0.5,0.4,0.3,0.7,0.5,0.9c0.2,0.2,0.2,0.4,0.2,0.6
						c-0.1,0.2-0.2,0.5-0.1,0.7c0.1,0.2,0.2,0.3,0.2,0.6s0.1,0.3,0.2,0.3c0.1,0,0.2,0,0.3,0c0.1-0.1,0.2-0.2,0.2-0.3
						c0.4-0.4,0.9,0,1.1,0.5c0.2,0.5,0.4,0.6,0.7,0.2c0.3-0.4,0.2-0.3,0.5,0c0.3,0.3,0.4,0.3,0.4,0.3s0.3-0.1,0.5,0.1
						c0.2,0.2,0.3,0.2,0.7-0.4C245.7,119.5,245.1,119.7,244.9,120.1L244.9,120.1z"/>
					<path class="st14" d="M246.1,102.9c0.1-0.9,0-1.8,0.4-2.2c0.4-0.3,0.8-1,0.8,0.4c0,1.4-0.1,1.3-0.4,1.7c-0.3,0.3-0.5,0.4-0.2,1
						c0.3,0.5,0.3,0.6,0.3,1.4c0,0.8,0,1.2,0.3,1.6c0.3,0.4,0.4,0.5,0.5,0.9c0.1,0.5,0.4,1.1,0.7,1.4c0.4,0.3,0.8,1.3,0.8,2
						c0,0.7,0.6,0.8,1.2,1.3c0.5,0.5-0.1,0.8-0.5,0.6c-0.4-0.2-0.2,0-0.5,0.3c-0.3,0.3-0.3,0.3-0.5-0.2c-0.2-0.5-0.9-0.8-1.2-1
						c-0.3-0.1-0.6-0.7-0.9-1.2c-0.3-0.5-0.8-0.8-1.2-0.8c0.1,0.3,0.2,0.6,0.2,0.8c-0.1,0.5-0.3,0.8,0.2,1.3
						c0.5,0.5,0.8,1.3,0.9,1.8c0,0.5,0.1,0.6,0.6,0.5c0.5-0.2,0.8-0.3,0.9-0.5c0.2-0.2,0.5-0.2,1,0.1c0.5,0.3,1.2,0.5,1.6,0.3
						c0.4-0.3,0.6-0.6,1-0.6c0.6-0.4,0.8-1.3,0.9-1.5c0.1-0.3,0-0.3-0.2-0.5c-0.3-0.3-0.1-0.7-0.2-1.1c0-0.4-0.2-1-0.7-2
						c-0.5-0.9-0.8-2-1.1-2.3c-0.3-0.3-0.5-1-0.5-1.3c0-0.3-0.4-0.6-0.7-0.9c-0.3-0.3-0.5-0.6-0.8-2.1c-0.2-1.1-0.4-2-0.5-2.5
						c-0.3,0.5-0.5,0.6-0.6,0.3c-0.1-0.4-0.3-0.6-0.5-0.3c-0.2,0.3-0.2-0.2-0.2-0.4c0-0.2,0-0.3-0.3-0.3c-0.2,0,0-0.3-0.1-1
						s-0.2-0.7-0.3,0c-0.1,0.8-0.5,1.2-0.3,1.4c0.2,0.2,0.1,0.5-0.1,1c-0.2,0.5-0.1,0.8,0,1.1c0.1,0.3-0.1,1-0.2,1.5
						C245.5,103.3,245.9,103.8,246.1,102.9L246.1,102.9z"/>
					<path class="st14" d="M238.4,95.4c-0.3,0-0.5,0.3-0.4,1.2c0.1,0.6-0.3,0.5-0.5,0.2c-0.2-0.3-0.3-0.9-0.6-1.5
						c-0.3-0.5-0.2,0.4-0.2,0.9c0,0.5,0.3,0.5,0.6,0.9c0.3,0.4,0,0.6-0.3,0.6c-0.3,0-0.2,0.7-0.1,1.1c0.1,0.5-0.1,0.5-0.3,0.2
						c-0.3-0.4-0.1-1,0-1.7c0-0.7,0.1-0.5-0.4-0.7c-0.5-0.2-0.4-0.2-0.2-0.7c0.2-0.4,0.3-0.6,0.1-0.8c-0.2-0.2-0.2-0.3,0.2-0.4
						c0.3,0,0.2-0.3,0.5-0.4c0.3-0.1,0.4,0,0.5-0.5c0-0.5,0.2-0.7,0.5-0.6C238,94,238.2,95.1,238.4,95.4L238.4,95.4z"/>
					<path class="st14" d="M242.6,100.3c0,0.9,0,1.2,0.4,1.5c0.4,0.3,0.3,0.7,0.5,1.5c0.2,0.8,0.2,2.5,0.7,3.7
						c0.2,0.4,0.4,0.8,0.6,1.3c0.3-0.2,0.5-0.6,0.6-0.8c0.1-0.3-0.3-0.9-0.5-1.4c-0.3-0.5,0-0.7,0.3-1.3c0.3-0.6,0-0.7-0.5-0.8
						c-0.5-0.2-0.5-0.6-0.7-1.3c-0.3-0.7-0.2-1,0-1.3c0.2-0.4,0-0.7-0.3-0.8c-0.3-0.1-0.3-0.3-0.1-0.8c0.1-0.4,0.2-0.5-0.3-0.4
						c-0.4,0.1-0.5,0.2-0.6,0.3C242.6,99.9,242.6,100.1,242.6,100.3L242.6,100.3z"/>
					<path class="st11" d="M247.4,102.1c0,0.5,0,0.8-0.2,0.9c-0.1,0.2,0,0.4,0.1,0.7c0.1,0.3,0.2,0.6,0.1,1c-0.1,0.5,0.1,0.8,0.3,1
						c0.3,0.1,0.4,0,0.3,0.6c-0.1,0.6,0.3,1.2,0.5,1.5c0.3,0.3,0.5,0.7,0.5,0.9c0,0.3,0.2,0.5,0.5,0.6c0.3,0.1,0.3,0.2,0.3,0.3
						c0,0.2,0.1,0.2,0.5,0.3c0.3,0.1,0.6,0.3,1,0.8c0.4,0.5,0.9,0.7,0.8,0.2c-0.1-0.5,0-0.8-0.5-1.1c-0.5-0.3-0.9-1.5-1.1-2.3
						c-0.2-0.8-0.9-2-1.3-2.2c0-0.6,0-0.9-0.3-1.2c-0.4-0.3-0.5-0.7-0.5-1c0-0.3-0.2-0.7-0.4-0.8c-0.2-0.1-0.3-0.3-0.3-0.5
						C247.8,101.6,247.5,101.6,247.4,102.1L247.4,102.1z"/>
					<path class="st15" d="M245.2,124.5c0.8-0.1,2.8-0.7,3-0.8c0.5,0.3,1.4,0.8,1.8,0.8c-0.7,0.2-1.2,0.1-1.4-0.1
						c0.1,0.2,0.4,0.6,0.5,0.6c-0.7,0-1.5-0.2-1.7-0.4C246.8,124.8,245.8,124.8,245.2,124.5L245.2,124.5z"/>
					<path class="st15" d="M246.6,125.4c0.3,0.1,1.6,0.3,1.8,0.3c-0.4,0.4-0.1,0.7,0.7,0.7c-0.4,0-0.7,0.2-0.5,0.2
						c0.6,0.1,2.4-0.3,2.7-0.5C250.7,126.8,247.8,127.5,246.6,125.4L246.6,125.4z"/>
					<path class="st15" d="M247.8,127.3c0.4-0.2,1.2-0.1,1.7,0.1C249,127.6,248,127.6,247.8,127.3L247.8,127.3z"/>
					<path class="st8" d="M249.1,127.3c0.6-0.1,2.5,0.3,3.1-0.1c-0.2,0.6-1.4,0.7-1.8,0.5c-0.4-0.1-0.8-0.3-1-0.3
						C249.6,127.4,249.3,127.4,249.1,127.3L249.1,127.3z"/>
					<path class="st15" d="M249.8,128.2c0.5,0.1,2.2-0.1,2.8-0.3c0.6,0.2,1.7,0.5,1.9,0.5c-0.5,0.3-1.5,0.1-1.9,0
						C251.6,128.6,250.9,128.7,249.8,128.2L249.8,128.2z"/>
					<path class="st15" d="M250.6,128.5c0.7,0.2,1.3,0,2-0.2c0.2,0.1,0.7,0.2,1.2,0.2c0.3,0.2,0.7,0.4,1.1,0.5c-0.4,0.2-2,0-2.3-0.2
						c-0.8,0-2.1,0.2-2.5,0.5C250.1,129,250.3,128.7,250.6,128.5L250.6,128.5z"/>
					<path class="st8" d="M249.8,124.9c0.5,0.2,2.5,0.1,3.5-0.4c0.4-0.2,0.6,0.1,0.2,0.3c-1.6,0.6-2.9,0.8-3.9,0.3
						C249.2,124.9,249.2,124.7,249.8,124.9L249.8,124.9z"/>
					<path class="st15" d="M259.4,122.3c-2.4,1.1-4,1.5-7.4,0.4c-0.3-0.1-0.5,0-0.2,0.2c0.4,0.2,2.2,0.7,2.6,0.7
						c0.4,0,0.3,0.2,0,0.3s-0.3,0.3,0,0.1c0.4-0.1,2.4-0.2,3.2,0.2c0.4,0.2,0.4,0.2,0.4,0c0-0.1,0.2-0.2,0.4-0.3
						c0.3,0,0.4-0.1,0.2-0.2c-0.2-0.1-0.2-0.1-0.1-0.2c0.2-0.1,0.2-0.2-0.1-0.2c-0.2,0-0.4-0.1-0.2-0.2c0.2-0.1,0.5-0.2,0.8-0.2
						C259.3,122.9,259.2,122.4,259.4,122.3L259.4,122.3z"/>
					<path class="st8" d="M255.4,122.5c1.4,0.1,3.9-0.5,5.3-1.8c0.5,0.3,1.1,0.6,1.5,0.7c0.3,0.1,0.7,0.4,0.1,0.4
						c-0.5,0-1.3-0.2-1.6-0.4c-1.8,1.1-3.9,1.5-5.2,1.3C255,122.7,254.9,122.5,255.4,122.5L255.4,122.5z"/>
					<path class="st15" d="M251.3,115c0.5,0.3,1.3,0.9,2.4,0.8c0.5,0.4,1.4,0.8,1.7,0.9c-0.7,0.3-1.5,0.6-1.7,0.8
						c-0.3-0.3-0.7-0.3-0.9-0.4c-0.3,0.3-0.3,0.4-0.1,0.5c0.2,0.1,1.8,0.4,2.2,0.3c0.4-0.1,0.5,0.2,0.2,0.3c-0.8,0.3-2.5,0-3.1-0.9
						c-0.6-0.9-1-1.3-2.6-0.4c-0.2-0.4-0.2-0.5-0.5-0.5c-0.3,0-0.8-0.4-0.4-0.4C249,116,250.3,115.8,251.3,115L251.3,115z"/>
					<path class="st15" d="M251.7,117.1c-0.3,0.1-1,0.5-1.3,0.5c-0.3,0-0.7,0.4-0.3,0.4c0.5,0,1.1-0.5,1.4-0.6
						C252,117.4,252,117,251.7,117.1L251.7,117.1z"/>
					<path class="st15" d="M253.2,118.6c-0.2,0-1,0.2-1.2,0.2c-0.2,0-0.4,0-0.4,0.2c0,0.2,0.1,0.3-0.3,0.2c-0.3,0-0.6,0.1-0.7,0.2
						c-0.1,0.1-0.1,0.2,0.2,0.2c0.3,0,0.5,0.1,0.9-0.1c0.4-0.2,0.7-0.4,1.1-0.5C253.2,119.1,253.6,118.6,253.2,118.6L253.2,118.6z"
						/>
					<path class="st8" d="M252.1,119.6c0.3,0.2,2,0.8,2.6,0.8c0.6,0,0.5,0.3,0,0.3c-1,0.2-2.1-0.2-2.9-0.8
						C251.4,119.5,251.8,119.4,252.1,119.6L252.1,119.6z"/>
					<path class="st15" d="M260.1,120.4c-1.3,0.4-2.6,0.3-3.1,0.1c-0.5-0.1-1-0.2-0.7,0.2c0.4,0.3,1.5,0.6,2.2,0.4
						c-2.3,0.5-2.9,0.5-3.5,0.4c-0.6-0.1-1.7-0.1-2.1,0c-0.3,0-0.8,0-1-0.1c-0.2-0.1-0.3-0.4,0.3-0.3c0.6,0.1,0.7-0.1,0.2-0.1
						c-0.5-0.1-1.3,0.1-0.5,0.6c0.7,0.5,2.3,0,3.3,0.3c1,0.3,3.1,0.5,5.1-1.1C260.3,120.5,260.5,120.3,260.1,120.4L260.1,120.4z"/>
					<path class="st15" d="M253.7,118.5c0,0.2,0,0.3,0,0.4c0,0.1,0,0.3,0.2,0.1c0.2-0.2,0.3-0.3,0.5-0.2c0.2,0.1,0.7,0.1,1,0.1
						c0.2,0,0.3-0.1,0-0.2c-0.4-0.1-0.7-0.2-0.9-0.2c-0.2,0-0.4,0-0.6-0.1C253.7,118.3,253.7,118.4,253.7,118.5L253.7,118.5z"/>
					<path class="st15" d="M257.1,119.1c-0.3,0-0.7-0.2-1-0.3c-0.3-0.1-0.6-0.1-0.3,0.2c0.3,0.4,1.4,0.6,1.8,0.4
						c0.4-0.2,0.2-0.4,0.6-0.1c0.4,0.3,0.8,0.4,1.1,0.4c0.3,0,0.4,0,0.1-0.2c-0.3-0.2-0.5-0.2-0.5-0.4c0-0.2-0.1-0.3,0.2-0.2
						c0.3,0.1,0.6,0.3,0.9,0.1c0.2-0.1,0.7-0.4,1.1-0.4l0.1-0.2c-0.6,0-0.9,0.1-1.1,0.2c-0.2,0.1-0.4,0.1-0.7,0
						c-0.3,0-0.7-0.1-0.8-0.2c-0.1-0.1-0.1-0.1,0.2-0.2c0.2-0.1,0.3-0.2,0-0.2c-0.3,0.1-1.3,0-1.8-0.1c-0.5-0.2-0.7-0.2-0.9-0.1
						c-0.2,0.1-0.2,0.3,0.1,0.3c0.3,0,1,0.1,1.2,0.3c0.2,0.2,0.2,0.2-0.1,0.1C257,118.7,256.6,118.8,257.1,119.1L257.1,119.1z"/>
					<path class="st15" d="M261.1,118.6l-0.1,0.2c0.6,0,2,0.1,2.4,0.4c0.4-0.3,0.4-0.5,0.7-0.4c0.3,0.1,0.7,0.2,0.9,0.1
						c0.2-0.1,0.3-0.1,0.5,0c0.2,0,0.6,0,0.8-0.2c0.2-0.1,0.7-0.3,1-0.3c0.3,0,0.6-0.1,0.1-0.1c-0.5-0.1-1.3,0.1-1.6,0.2
						c-0.3,0.1-1.1,0.2-1.5,0.2c-0.5,0-1.1,0.2-1.6,0.1C262.2,118.5,261.5,118.6,261.1,118.6L261.1,118.6z"/>
					<path class="st8" d="M268.4,118.3c-0.9,0.7-2.1,0.9-3.4,0.9c-0.4,0-0.3,0.1,0.1,0.2c1.4,0.1,3-0.4,3.6-0.9
						C268.8,118.3,268.7,118,268.4,118.3L268.4,118.3z"/>
					<path class="st15" d="M262,119.9c0.4,0,1.8,0.4,2.3,0.5c0.3,0,0.4-0.1,0.4-0.2c-0.1-0.1-0.1-0.3,0.5-0.2c0.6,0,2.1,0,2.3,0
						c0.2-0.1,0.7-0.5,0.9-0.5c-0.6,0-2.9,0.2-3.2,0.1c-0.3,0-0.5,0-0.6,0.1c-0.2,0.1-0.3,0.2-0.5,0.1c-0.2-0.1-0.7-0.2-0.9-0.1
						C262.9,119.8,262.4,119.7,262,119.9L262,119.9z"/>
					<path class="st15" d="M267.5,120c0.2-0.1,0.7-0.5,0.9-0.5c0.4,0,0.9,0.1,1.1,0.2c0.2,0,0.4,0,0.3-0.2c-0.2-0.2,0-0.5,0.6-0.4
						c0.6,0.1,1,0.2,1.6,0.1c0.6-0.1,0.9,0.4,2.1-0.1c-0.1,0.5,0.1,0.5,0.4,0.4c0.2-0.1,0.5-0.1,0.8,0.2c0.4,0.3,2.7,0.3,3.2,0.2
						c0.5-0.1,0.8,0.2,0.4,0.3c-0.4,0.1-0.5,0.3-0.4,0.4c0.1,0.1,0.2,0.3-0.3,0.2c-0.5-0.1-0.6,0.1-0.8,0.3c-0.3,0.2-0.3,0.3-1,0.1
						c-0.7-0.1-0.8,0-1.2,0c-0.4,0.1-0.5,0.1-0.8-0.1c-0.4-0.1-1.2-0.3-1.7-0.1c-0.5,0.2-0.9,0.3-1.3,0.2c-0.4-0.1-0.5-0.1-0.2-0.4
						c0.3-0.3,0.4-0.2,0.9-0.3c0.5-0.1,0.9-0.2,0.6-0.4c-0.4-0.2-0.5-0.2-1,0.1c-0.5,0.3-0.7,0.4-1.3,0.1c-0.6-0.3-0.8-0.3-1.2-0.2
						C268.6,120.4,268,120.2,267.5,120L267.5,120z"/>
					<path class="st15" d="M269.4,120.9c-0.7,0.1-0.9-0.4-1.7-0.3c-0.3,0-0.7,0.3-0.1,0.3c0.6,0,1.2,0.3,1.8,0.2
						C269.9,121.1,269.7,120.9,269.4,120.9L269.4,120.9z"/>
					<path class="st15" d="M268.5,121.5c0.4-0.1,1.2,0.1,1.5,0.1c0.3-0.1,0.6,0.1,0.3,0.3c-0.4,0.1-1.2-0.2-1.6-0.1
						C268.4,121.8,268,121.6,268.5,121.5L268.5,121.5z"/>
					<path class="st15" d="M261,123.5c0.5,0,2.4-0.1,3.1-1.6c0.1-0.1,0.1-0.2,0.4,0c0.2,0.2,1.1,0.7,2.7,0.8c0.5,0,0.9,0.3,0,0.2
						c-0.9-0.1-2.3-0.3-2.8-0.6c-0.8,1.3-2.3,1.4-3.4,1.4C260.4,123.6,260.6,123.5,261,123.5L261,123.5z"/>
					<path class="st15" d="M265.1,121.3c-0.3,0.3-1.1,0.9-1.5,1c-0.4,0-1.6-0.1-1.9-0.2c-0.3-0.1-0.7-0.1-0.2,0.2
						c0.4,0.3,1.5,0.5,1.9,0.4c0.4-0.1,0.9-0.2,1.2,0c0.3,0.2,0.9,0.6,1.3,0.5c0.4-0.1,1.1-0.1,1.3,0c0.2,0.1,0.6,0.4,0,0.3
						c-0.6-0.2-1.1,0-1.4-0.2c0.3,0.4,1,1.1,1.6,1.1c0.1,0,0.2,0.3-0.1,0.4c0.3,0.1,1,0.2,1.3-0.1c-0.1,0.1,0,0.2,0.1,0.3
						c0.2,0.1,0.3,0.2,0.1,0.2c-0.3,0-0.9,0.1-1.1,0c0.6,0.4,2.2,1,3.8,0.7c0.3-0.1,0.5-0.2,0-0.2c-1,0-1.1,0-1.3-0.1
						c-0.2-0.1-0.2-0.2,0.1-0.3c0.3-0.1,1-0.2,1.4-0.2c0.3,0,0.6-0.1,0-0.1c-0.6,0-1.4,0-1.7-0.1c-0.3-0.1-0.6-0.3-0.2-0.5
						c0.3-0.2,0.7-0.2,0.8-0.4c-1,0-2.3-0.6-1.6-1.1c0.2-0.1,0.1-0.1-0.2-0.2c-0.3,0-1-0.3-1.4-0.4c-0.3-0.2-0.1-0.3,0.2-0.4
						C267.1,122.3,265.9,122,265.1,121.3L265.1,121.3z"/>
					<path class="st15" d="M274.3,121.3c-0.6,0.4-1.6,0.6-2.1,0.6c-0.5,0-0.5,0.2-0.2,0.2c0.4,0,0.7,0.1,0.9,0c0.2,0,0.3-0.1,0.5,0
						c0.2,0.1,0.7,0.2,1.2,0c0.4-0.1,1.2-0.2,1.5-0.2c0.3,0,0.6,0,0-0.1c-0.6-0.2-1.6,0-1.8,0c-0.2,0.1-0.9,0-0.5-0.1
						c0.4-0.1,0.6-0.3,0.8-0.4C274.4,121.4,274.4,121.3,274.3,121.3L274.3,121.3z"/>
					<path class="st15" d="M274,122.5c-0.5,0.4-1.2,0.7-1.9,0.7c0.7,0.2,1.2,0.9,1.6,0.9c-0.2,0.1-0.5,0.3-0.7,0.3
						c0.4,0.1,1.1,0,1.7-0.3c0.9,0.3,2.2,0.1,2.6-0.3c-0.6,0-1.3-0.2-1.7-0.5c0.3,0,0.6-0.2,0.7-0.4
						C275.5,123.2,274.3,122.8,274,122.5L274,122.5z"/>
					<path class="st15" d="M273,124.5c0.3,0,0.5-0.2,0.7-0.3c-0.5,0.2-2.8-0.2-3.4-0.8c-0.7-0.6-0.7-0.1-0.2,0.3
						C270.5,124.1,271.3,124.7,273,124.5L273,124.5z"/>
					<path class="st15" d="M274.6,125.9c-0.3,0.2-1.6,0.3-2.1,0.2c-0.4-0.1-0.6,0-0.5,0.1c0.1,0.2,0.2,0.3-0.2,0.3
						c-0.4,0-1,0-1.3,0.1c-0.3,0.1-0.6,0.3,0,0.2c0.6-0.1,1.1-0.2,1.5-0.1c0.4,0.1,1.9,0.1,2.2,0c0.3-0.1,0.1-0.1,0-0.1
						c-0.1,0-0.2-0.1,0-0.2C274.4,126.4,274.6,126.1,274.6,125.9L274.6,125.9z"/>
					<path class="st15" d="M261.6,124.1c-0.6,0.3-2.4,0.8-2.9,0.8c-0.6,0.3-1.1,0.4-1.4,0.4c0.2,0.2,1.1,0.4,1.4,0.3
						c-0.2,0.2-0.6,0.4-0.8,0.5c0.5-0.1,1.1,0.1,1.3,0.1c-0.7,0.4-1.6,0.5-2,0.4c0.2,0.2,0.4,0.4,0.7,0.4c-0.6,0.2-1.3,0.2-1.7,0
						c0.2,0.3,0.3,0.5,0.5,0.5c-0.5,0.1-1.1,0.2-1.7-0.2c0.4,0.5,1.3,0.7,2.7,0.6c1.3-0.2,2.5-0.8,2.8-1c-0.6,0.1-1.3,0.1-1.7,0
						c0.7-0.2,2.4-0.9,2.7-1.2c-0.3,0-0.6-0.1-0.8-0.2c0.4,0.1,2-0.1,2.4-0.3c-0.6-0.1-0.9-0.5-1.1-0.7c2,0.6,4.2,0.4,5.2,0.2
						c0.3-0.1,0.3-0.4-0.2-0.3c-0.9,0.1-2.6-0.2-3-0.4c0.4,0.3,0.9,0.5,1.3,0.6C264.4,124.9,263.3,125,261.6,124.1L261.6,124.1z"/>
					<path class="st15" d="M257.8,126.1c0.2-0.1,0.6-0.3,0.8-0.5c-0.3,0.1-1.2-0.1-1.4-0.3c0.3,0,0.8-0.2,1.4-0.4
						c-1.1,0-1.9,0-2.3-0.3c-0.4-0.2-1.2-0.2-1.4-0.1c-0.3,0.1-0.2,0.5,1,0.4c-0.5,0.3-1.8,0.5-2.3,0.3c0.1,0.4,0.2,0.8,0.1,1
						c0.7,0.4,2.4,0.8,3.2,0.8c-0.7-0.3-1.2-0.6-0.5-0.7C257,126.4,257.3,126.3,257.8,126.1L257.8,126.1z"/>
					<path class="st8" d="M255.9,128.2c1.5-0.1,3.5-0.2,5.1-1.5c0.4-0.3,0.7-0.2,0.3,0.1c-0.8,0.8-2.9,1.8-4.9,1.8
						C255.5,128.6,255.2,128.2,255.9,128.2L255.9,128.2z"/>
					<path class="st15" d="M267.1,125.7c-0.4,0.1-1.4,0.3-1.7,0.3c-0.3,0-0.8-0.1-1,0.1c-0.2,0.2-0.3,0.3,0.1,0.3c0.3,0,0.8,0.1,1,0
						c-0.3,0.2-0.5,0.4-0.5,0.5c0.5-0.1,1.4,0.1,1.7,0.2c-0.2,0.1-0.4,0-0.6-0.1c0.8,0.9,3.3,0.9,3.8,0.7c-0.2,0.1-0.4,0.3-0.5,0.3
						c0.7,0.1,1.5,0.1,2.3-0.4c-0.3,0-1.1,0-1.3,0c0.2-0.2,0.4-0.3,0.6-0.4c-0.3-0.1-1.3,0-1.5,0.1c0.1-0.2,0.3-0.4,0.5-0.5
						c-1.2,0-2.7,0-3.3-0.3c0.9,0.1,1.8-0.4,2.2-0.4C268.1,126.1,267.3,126,267.1,125.7L267.1,125.7z"/>
					<path class="st15" d="M264,126.4c-0.6,0.1-1.5,0.4-1.8,0.5c-0.2,0.1-0.5,0.2,0,0.2c0.5,0,2,0.1,2.4,0.1c-0.8-0.1-2-0.2-2.2-0.2
						c-0.2,0-0.5,0-0.1-0.1C262.8,126.8,263.3,126.5,264,126.4L264,126.4z"/>
					<path class="st15" d="M262.7,127.8c0.2,0,1.2,0,1.5-0.3c0.4,0.3,1.1,0.7,1.6,0.7c0.5,0,0.4,0.1,0,0.2c-0.4,0-1.2-0.2-1.7-0.5
						C263.7,128.1,263.2,127.9,262.7,127.8L262.7,127.8z"/>
					<path class="st15" d="M255.5,132c1,0.4,2.3,0.7,3.2,0.3c0.5,0.5,1.6,0.5,2.2,0.4c0.6-0.1,1.1-0.2,1.8,0c0.7,0.2,2,0.2,2.4,0.5
						c-0.3,0-1.1,0-1.3,0.1c-0.2,0-0.1,0.2,0.2,0.3c-1.1-0.1-2.9,0.4-3.5,0.9c0.2-0.5,0.8-1.1,1.8-1.1c-0.6-0.2-2.4-0.2-2.9,0.1
						c-0.2-0.2-0.4-0.5-0.4-0.6C258.1,133.5,256.2,132.7,255.5,132L255.5,132z"/>
					<path class="st15" d="M253,130.3c1.2-0.2,1.9-0.5,2.3-0.9c0.2,0.2,1,0.4,2,0.1c-0.2,0.1-0.2,0.4-0.1,0.6
						c-0.6,0-1.8,0.3-2.2,0.5c-0.4,0.2-1.5,0.3-1.9,0.1C252.7,130.5,252.7,130.3,253,130.3L253,130.3z"/>
					<path class="st15" d="M257.1,130.1c-0.6,0-1.8,0.3-2.2,0.5c0.1,0.2,0.1,0.4,0.1,0.6c1.1-0.4,3.7-0.7,4.7-0.5
						c-0.5,0-1.4,0.5-1.9,0.6c1.2-0.1,2.4,0.2,2.7,0.2c0.3,0.1,0.4,0.3,0.1,0.5c-0.2,0.2-0.3,0.3,0.2,0.3c0.5,0,1.5,0,2-0.5
						c-0.2-0.2-0.7-0.1-0.8-0.3c0.3-0.1,0.7-0.3,0.8-0.5c-0.8,0-1.2,0-1.4-0.1c-0.3-0.1-0.5-0.1-0.1-0.3c0.3-0.2,0.5-0.3,0.6-0.5
						c-0.6,0.2-1.6,0.3-2.4-0.3c0.3,0.1,1,0,1.3-0.1c-0.3-0.1-0.5-0.2-0.7-0.2c0.6-0.3,1.9-0.6,3.5,0c0.8-0.1,1.6,0,2.2,0.1
						c0.3-0.3,0.8-0.9,1.1-1c-1.8,0.2-5.2-0.2-5.1-1.2c-0.6,0.8-2,1.2-2.6,1.1c-0.1,0.3,0.2,0.6,0.4,0.8c-0.6,0.1-1.7,0.2-2.2,0.1
						c0.3,0.3,0.8,0.5,1.1,0.5C258,130,257.7,130.1,257.1,130.1L257.1,130.1z"/>
					<path class="st15" d="M261,132.3c0.5,0,1.5,0,2-0.5c-0.2-0.2-0.7-0.1-0.8-0.3c0.3-0.1,0.7-0.3,0.8-0.5c1.3-0.1,2.5,0,3.1-0.2
						s2-0.1,2.3-0.2c-1.2,0.2-1.5,0.3-1.6,0.5c-0.1,0.2,0.4,0.4,0.7,0.4c-0.6,0-1.3,0.6-1.3,0.8c-0.7-0.4-1.1,0.1-1.2,0.3
						c-0.3-0.1-1.3-0.1-1.9,0.4c-0.7-0.2-1.1-0.3-1.8-0.2C261.7,132.6,261.6,132.3,261,132.3L261,132.3z"/>
					<path class="st15" d="M267,128.6c0.4,0,1.3,0,1.7,0c-0.2,0.1-0.5,0.3-0.6,0.4c1.1-0.1,2.5-0.2,2.9-0.1
						c-0.5-0.1-1.1,0.3-1.3,0.4c-0.3,0.2-0.1,0.3,0.2,0.3c0.4,0,0.8,0.3,0.2,0.2c-0.7-0.1-2-0.1-2.3,0c-0.3,0-0.5-0.1,0-0.2
						c0.5-0.1,0.8-0.2,1-0.3c-0.4,0.1-1.1,0.1-1.3,0c-0.2-0.1-0.4-0.2-0.1-0.2c0.3-0.1,0.1-0.2-0.2-0.1c-0.3,0-0.9,0.3-1.3,0.7
						C266.3,129.2,266.7,128.8,267,128.6L267,128.6z"/>
					<path class="st8" d="M262.2,129.3c0.5,0.6,1.1,0.9,2.1,0.9c0.2,0,0.6,0.3,0.1,0.3c-1.3,0.1-2-0.3-2.6-1.1
						C261.7,129.2,261.9,129,262.2,129.3L262.2,129.3z"/>
					<path class="st8" d="M270.1,118.4c0.7,0.3,2.1,0.6,3.2,0.6c0.2,0,0.6,0.2,0.1,0.2c-1.2,0.1-2.3-0.1-3.3-0.6
						C269.7,118.4,269.8,118.2,270.1,118.4L270.1,118.4z"/>
					<path class="st15" d="M270.8,118.3c1.1,0,1.9,0,2.2,0.3c0.6-0.2,1.7-0.3,2-0.3c0.3,0,0.5-0.1,0-0.2c-0.6-0.1-1.9-0.2-2.3-0.1
						c-0.4,0.1-1.7,0.1-2.2,0.1C270.5,118.2,270.6,118.2,270.8,118.3L270.8,118.3z"/>
					<path class="st15" d="M274.9,118.8c0.5-0.3,1.9,0,2.4-0.2c-0.3,0.4,1,0.4,2.1,0.1c-0.4,0.3-1.4,0.3-1.8,0.5
						c-0.4,0.2-0.6,0-0.9-0.1C276.4,118.9,275.6,118.6,274.9,118.8L274.9,118.8z"/>
					<path class="st15" d="M279.4,118.7c-1.1,0.3-2.5,0.3-2.1-0.1c-0.4,0.2-1.9-0.1-2.4,0.2c0.5-0.3,0.9-0.1,1.3-0.7
						c0.2,0,0.8,0.1,1-0.2c0.3,0.1,0.9,0.2,1.1,0.4c0.2,0.2,0.4,0,0.2-0.3c0.5-0.2,0.2,0.2,1.4-0.1c0.2-0.1,0.9-0.2,1.1-0.2
						C280.5,118,280,118.4,279.4,118.7L279.4,118.7z"/>
					<path class="st12" d="M257.2,113.4c0-2.4-0.2-22.2-0.2-26.8c0-1.1-0.6-0.9-0.6,0v26.7C256.6,113.3,257,113.4,257.2,113.4
						L257.2,113.4z"/>
					<g class="st8">
						<path d="M257.3,113.5L257.3,113.5L257.3,113.5l-0.3-0.1l-0.6-0.1l-0.1-26.7c0-0.9,0.7-1.1,0.7,0c0,3.2,0.1,14,0.2,20.9
							L257.3,113.5L257.3,113.5z M256.7,86c-0.1,0-0.2,0.2-0.2,0.7v26.7l0.7,0.1l-0.1-5.8c-0.1-6.9-0.2-17.7-0.2-20.9
							C256.9,86.1,256.7,86,256.7,86L256.7,86z"/>
					</g>
					<polygon class="st12" points="265.9,85.2 266.9,113.5 266.7,113.7 266.1,113.7 265.5,85.2 					"/>
					<g class="st8">
						<polygon points="266.1,113.8 266.1,113.7 265.4,85.1 265.9,85.1 266.9,113.5 266.7,113.6 265.8,85.2 266.2,113.6 266.5,113.6 
							266.1,113.8 						"/>
					</g>
					<path class="st12" d="M274.1,109.1c-0.1-2.9-0.4-16.2-0.6-22.8c0-0.9-0.5-0.7-0.5,0c0.1,5.3,0.4,20.1,0.4,22.8
						C273.7,109.1,274,109.1,274.1,109.1L274.1,109.1z"/>
					<g class="st8">
						<path d="M273.7,109.1l-0.3-0.1c-0.1-2.7-0.4-17.5-0.4-22.8c0-0.3,0.1-0.5,0.2-0.6c0.3-0.1,0.5,0.1,0.5,0.6
							c0.1,5,0.3,14,0.5,19.2l0.1,3.5L273.7,109.1L273.7,109.1z M273.3,85.8c-0.1,0.1-0.2,0.3-0.2,0.6c0.1,5.3,0.4,20,0.4,22.7
							l0.2-0.1l0.2-3.5c-0.1-5.2-0.4-14.2-0.5-19.2C273.5,85.9,273.4,85.8,273.3,85.8L273.3,85.8z"/>
					</g>
					<path class="st16" d="M261.1,89.9l-8.3-0.1c-0.5,1.7,1.6,1.7,2.4,1.2c0.9,0.7,1.6,0.6,2.1,0.1c0.7,0.6,1.6,0.4,2,0.1
						C260.3,91.9,261.3,91.1,261.1,89.9L261.1,89.9z"/>
					<g class="st8">
						<path d="M256.4,91.6c-0.4,0-0.8-0.2-1.2-0.5c-0.5,0.4-1.9,0.3-2.3-0.2c-0.2-0.3-0.2-0.6-0.1-1.1l8.4,0.1
							c0.2,0.5,0.1,1-0.2,1.3c-0.4,0.5-1.1,0.5-1.7,0.1c-0.2,0.4-1,0.7-2-0.1C257.1,91.4,256.7,91.6,256.4,91.6L256.4,91.6z
							 M255.1,90.9c1,0.6,1.6,0.7,2.1,0.1c1.1,0.7,1.7,0.4,2,0.1c0.7,0.4,1.2,0.4,1.6-0.1c0.2-0.3,0.3-0.7,0.2-1.1l-8.3-0.1
							c0,0.3,0,0.7,0.2,0.9C253.6,91.6,254.7,91.2,255.1,90.9L255.1,90.9z"/>
					</g>
					<path class="st16" d="M261.7,94.1l-8.5,0c-1.5,1.4,0.4,2.1,2.1,1.1c0.2,0.5,1.2,0.8,2,0.4c0.7,0.6,1.6,0.2,2.1-0.3
						C260.3,95.6,261.3,95.8,261.7,94.1L261.7,94.1z"/>
					<g class="st8">
						<path d="M258.1,95.9c-0.3,0-0.6-0.1-0.8-0.3c-0.5,0.4-1.8,0.1-2-0.4c-0.8,0.7-2.3,0.6-2.6,0c-0.1-0.2-0.1-0.6,0.5-1.2l8.6,0
							c-0.2,1.1-0.7,1.6-1.4,1.6l0,0c-0.3,0-0.6-0.1-1-0.3C259.1,95.6,258.6,95.9,258.1,95.9L258.1,95.9z M257.2,95.5
							c0.8,0.5,1.7,0.1,2.1-0.3c1.5,0.5,2,0.2,2.3-1.1l-8.4,0.1c-0.4,0.4-0.5,0.7-0.4,1c0.2,0.5,1.5,0.5,2.4,0
							C255.6,95.6,256.6,95.8,257.2,95.5L257.2,95.5z"/>
					</g>
					<path class="st16" d="M261.5,99.4l-8.2-0.1c-0.2,1.5,1.5,1.3,2.2,0.9c0.6,1,2,0.7,2.5,0.2c0.8,0.5,1.5,0.4,1.9-0.1
						C260.8,101.1,261.5,100.1,261.5,99.4L261.5,99.4z"/>
					<g class="st8">
						<path d="M256.7,101c-0.6,0-1.1-0.3-1.4-0.7c-0.4,0.4-1.5,0.4-1.9,0c-0.2-0.2-0.3-0.5-0.2-0.9h8.3c0.1,0.4,0,0.8-0.3,1.1
							c-0.2,0.2-0.4,0.3-0.7,0.3l0,0c-0.2,0-0.5-0.1-0.7-0.3c-0.3,0.6-1.2,0.6-1.9,0.1C257.7,100.8,257.2,101,256.7,101L256.7,101z
							 M255.4,100.2c0.5,0.6,1,0.7,1.3,0.7c0.5,0,0.9-0.2,1.2-0.5c0.9,0.4,1.5,0.4,1.9-0.1c0.3,0.2,0.5,0.3,0.7,0.3l0,0
							c0.3,0,0.4-0.1,0.6-0.3c0.2-0.2,0.3-0.6,0.3-0.9l-8.1,0c0,0.3,0.1,0.5,0.3,0.7C254.1,100.7,254.9,100.5,255.4,100.2
							L255.4,100.2z"/>
					</g>
					<path class="st16" d="M261.9,104.7l-9.2-0.2c-0.5,1.6,0.9,1.8,1.6,1.5c0.2,0.9,1.4,0.6,1.8-0.1c0.5,0.5,1.1,0.2,1.3-0.1
						c0.1,0.9,1.2,0.9,2,0.2C261,107.2,262.6,105.9,261.9,104.7L261.9,104.7z"/>
					<g class="st8">
						<path d="M255,106.7c-0.4,0-0.7-0.2-0.8-0.6c-0.2,0.4-1.2,0.2-1.5-0.2c-0.2-0.2-0.3-0.6-0.1-1.3l9.2,0.1
							c0.3,0.4,0.3,0.8,0.1,1.2c-0.2,0.4-0.8,0.7-1.3,0.7l0,0c-0.4,0-0.9-0.2-1.3-0.5c-0.6,0.7-1.9,0.6-2-0.2
							c-0.1,0.4-0.9,0.6-1.3,0.1C255.9,106.4,255.4,106.7,255,106.7L255,106.7z M254.2,106c0.2,0.5,0.6,0.6,0.7,0.6
							c0.4,0,0.8-0.3,1-0.6c0.7,0.3,1.1,0.1,1.4-0.1c0.4,0.8,1.3,0.8,2,0.2c0.5,0.3,0.9,0.4,1.3,0.4l0,0c0.5,0,1-0.2,1.2-0.6
							c0.2-0.3,0.2-0.7,0-1l-9.1-0.1c-0.1,0.4-0.1,0.8,0.1,1.1C253.1,106.1,253.8,106.2,254.2,106L254.2,106z"/>
					</g>
					<path class="st16" d="M270,102.5l-7.6-0.1c0.4,1.6,1.1,2,2.3,1.1c0.9,0.9,2.4,0.6,2.8,0.1C269.1,105,270.1,103.4,270,102.5
						L270,102.5z"/>
					<g class="st8">
						<path d="M268.7,104.3L268.7,104.3c-0.4,0-0.8-0.2-1.3-0.5c-0.3,0.6-2,0.6-2.8-0.1c-1,0.9-2,0.5-2.3-1.1l7.7,0
							c0.1,0.5-0.1,1-0.4,1.4C269.3,104.1,269,104.3,268.7,104.3L268.7,104.3z M267.4,103.6c0.5,0.3,0.9,0.5,1.3,0.5l0,0
							c0.3,0,0.6-0.1,0.8-0.3c0.3-0.4,0.5-0.9,0.5-1.2l-7.6,0c0.5,1.4,1.1,1.8,2.3,0.9C265.6,104.3,267.1,104,267.4,103.6
							L267.4,103.6z"/>
					</g>
					<path class="st16" d="M269.2,97.3l-7.4-0.2c0.1,1.9,1.9,1.8,2.8,1c0.7,0.9,1.9,0.6,2.3,0C268,99,269.5,98.5,269.2,97.3
						L269.2,97.3z"/>
					<g class="st8">
						<path d="M265.8,98.7c-0.5,0-0.9-0.2-1.2-0.6c-0.3,0.4-0.8,0.6-1.3,0.6c-0.9,0-1.4-0.6-1.5-1.6l7.5,0.1c0.1,0.4,0.1,0.7-0.1,1
							c-0.5,0.6-1.5,0.6-2.2-0.1C266.8,98.5,266.3,98.7,265.8,98.7L265.8,98.7z M264.6,98c0.8,0.7,1.9,0.6,2.3,0
							c0.8,0.5,1.6,0.6,2,0.1c0.2-0.2,0.2-0.5,0.2-0.8l-7.3-0.2c0.2,1.3,1.1,1.4,1.4,1.4C263.8,98.6,264.3,98.4,264.6,98L264.6,98z"
							/>
					</g>
					<path class="st16" d="M270.2,91.4h-8c0.1,1.3,1.9,2.1,3.2,0.8c0.4,1.5,1.8,1,2.4,0.4C268.8,93.8,270.9,92.5,270.2,91.4
						L270.2,91.4z"/>
					<g class="st8">
						<path d="M266.6,93.3c-0.6,0-1-0.4-1.2-1.1c-0.5,0.6-1,0.7-1.4,0.7c-0.9,0-1.7-0.7-1.8-1.5l8-0.1c0.3,0.3,0.3,0.7,0.1,1
							c-0.3,0.5-0.9,0.8-1.5,0.8l0,0c-0.4,0-0.8-0.2-1-0.5C267.7,93,267.1,93.3,266.6,93.3L266.6,93.3z M265.4,92.2
							c0.5,1.3,1.8,1,2.4,0.4c0.4,0.4,0.7,0.4,1,0.4l0,0c0.5,0,1.1-0.3,1.3-0.8c0.1-0.2,0.2-0.5,0-0.8l-7.9,0
							c0.1,0.7,0.8,1.3,1.7,1.3C264.3,92.8,264.8,92.7,265.4,92.2L265.4,92.2z"/>
					</g>
					<path class="st16" d="M269.7,87.4l-7.1,0.1c-0.1,1.2,1.6,1.7,2.2,0.7c0.3,0.6,1.5,0.5,1.9,0c0.6,0.9,1.2,0.3,1.5,0
						C269,88.8,269.9,88.5,269.7,87.4L269.7,87.4z"/>
					<g class="st8">
						<path d="M263.9,88.8c-0.4,0-0.8-0.2-1-0.4c-0.2-0.2-0.3-0.5-0.3-0.9l7.2-0.2c0.1,0.5,0.1,0.8-0.1,1c-0.2,0.2-0.4,0.3-0.6,0.3
							l0,0c-0.3,0-0.6-0.1-0.9-0.3c-0.1,0.4-1,0.7-1.5,0c-0.1,0.6-1.5,0.6-1.9,0C264.7,88.6,264.3,88.8,263.9,88.8L263.9,88.8z
							 M269.7,87.4l-7,0.2c0,0.2,0.1,0.5,0.3,0.7c0.5,0.5,1.4,0.5,1.8-0.1c0.6,0.5,1.6,0.5,1.9,0c0.7,0.7,1.2,0.4,1.5,0
							c0.4,0.2,0.6,0.3,0.9,0.3l0,0c0.2,0,0.4-0.1,0.5-0.2C269.6,88,269.7,87.8,269.7,87.4L269.7,87.4z"/>
					</g>
					<path class="st16" d="M278.1,90l-8.7-0.1c0,0.9,0.9,1.3,1.5,0.9c0,0.9,1.2,1.2,2,0.5c0.5,0.8,2.1,1,2.7-0.1
						C276.8,92.3,278.2,91.5,278.1,90L278.1,90z"/>
					<g class="st8">
						<path d="M274.2,92c-0.6,0-1.2-0.3-1.5-0.7c-0.5,0.7-2,0.4-2-0.5c-0.1,0.4-0.9,0.2-1.2-0.1c-0.2-0.2-0.3-0.5-0.3-0.8l8.8,0
							c0.1,0.6,0,1.1-0.3,1.4c-0.5,0.6-1.5,0.6-2.3-0.1C275.3,91.7,274.8,92,274.2,92L274.2,92z M272.8,91.2c0.7,0.8,2.2,0.8,2.7,0
							c0.9,0.6,1.7,0.6,2.2,0.1c0.3-0.3,0.4-0.7,0.3-1.3l-8.6,0c0.1,0.2,0.2,0.4,0.3,0.6c0.3,0.3,0.8,0.4,1.1,0.2
							C271,91.8,272.2,91.8,272.8,91.2L272.8,91.2z"/>
					</g>
					<path class="st16" d="M277.9,97.2l-8.5,0c0.1,1.2,1.4,1.6,2.2,1c0.2,1,1.3,1.1,1.9,0.6c0.8,0.8,2,0.9,2.7,0
						C277.3,99,278,98.1,277.9,97.2L277.9,97.2z"/>
					<g class="st8">
						<path d="M274.9,99.4c-0.5,0-1.1-0.3-1.4-0.7c-0.4,0.5-1.7,0.6-1.9-0.6c-0.4,0.7-2.2,0.3-2.2-1l8.6,0c0.1,0.5,0,1-0.3,1.3
							c-0.2,0.3-0.6,0.4-0.9,0.4l0,0c-0.2,0-0.3,0-0.5-0.1C275.9,99.1,275.5,99.4,274.9,99.4L274.9,99.4z M273.5,98.6
							c0.9,0.8,2.1,0.8,2.7,0c0.2,0,0.4,0.1,0.5,0.1l0,0c0.3,0,0.6-0.1,0.8-0.4c0.3-0.3,0.4-0.7,0.3-1.1l-8.4,0
							c0.2,1,1.5,1.4,2.2,0.8C271.9,98.9,272.9,99.1,273.5,98.6L273.5,98.6z"/>
					</g>
					<path class="st16" d="M277.5,103.6l-6.7-0.1c0,1.2,1.4,1.3,2,0.7c0.7,0.8,1.7,0.8,2.2,0.2C275.9,105.1,277.3,104.9,277.5,103.6
						L277.5,103.6z"/>
					<g class="st8">
						<path d="M276.2,104.9L276.2,104.9c-0.4,0-0.8-0.2-1.2-0.5c-0.4,0.7-1.6,0.6-2.2-0.2c-0.3,0.6-2.1,0.5-2.1-0.8l6.8,0
							C277.4,104.5,276.8,104.9,276.2,104.9L276.2,104.9z M275,104.3c0.4,0.3,0.8,0.4,1.2,0.4l0,0c0.5,0,1.1-0.3,1.2-1.2l-6.7,0
							c0.1,1.1,1.5,1.1,2,0.6C273.5,104.8,274.4,104.9,275,104.3L275,104.3z"/>
					</g>
					<path class="st8" d="M266.7,113.7c-3.6,0.1-7.3,0.1-9.8-0.3c-2.5-0.4-3.3-0.7-5-1.8c-2.6-1.5-3.2-1.9-6.8-4
						c-0.6-0.3-1.2,0.1-0.4,0.6c3.7,2.4,5.1,3.3,6.8,4.4c1.8,1.2,3,2.2,4.1,3.5c1.4,1.6,2.5,1.7,3.2,1.4c0.7-0.3,1.7-0.6,2.7-0.3
						c1,0.3,2.4,0.3,3.1,0.2c0.7,0.6,2.2,0.5,3,0.3c0.8-0.2,1.5-0.3,2.1-0.2c0.6,0.1,1.5,0,2.1-0.1c0.6-0.1,2.2-0.3,3.3-0.1
						c1.1,0.2,2.2,0.1,2.9-0.2c0.7-0.2,2-0.2,2.5,0c0.6-0.5,0.9-1.1,1.1-1.7c0.7-0.1,1-0.2,1.1-0.6c0.3-0.8,0.6-1.6,0.7-1.9h0.3
						l0.1-0.7l-0.6-0.7l0.2-1.3l0.7-0.2c0-0.4-0.2-1-0.3-1.3c-3.9,0.2-7.8,0.3-10.6,0.3c-0.3,0.3-0.7,0.9-0.7,1.3
						c-1.7,0.3-2.7,0.4-3.1,0.5c-0.4,0.1-0.7,0.1-1,0.6C267.7,112.2,267.1,113.1,266.7,113.7L266.7,113.7z"/>
					<g class="st8">
						<path d="M266.2,117.9c-0.5,0-1.2-0.1-1.7-0.5c-0.6,0.2-2.2,0.1-3.1-0.1c-0.9-0.2-2,0.1-2.7,0.3c-1,0.4-2.1-0.1-3.3-1.4
							c-1.2-1.4-2.4-2.4-4.1-3.5l-6.8-4.4c-0.4-0.3-0.4-0.5-0.4-0.6l0-0.1l0.4-0.2c0.1,0,0.3,0,0.4,0.1c3.6,2.1,4.3,2.5,6.8,4
							c1.7,1,2.4,1.4,5,1.7c1.6,0.2,3.7,0.3,6.7,0.3c1,0,2.1,0,3.1,0c0.2-0.3,0.4-0.6,0.6-1c0.3-0.4,0.5-0.8,0.8-1.2
							c0.4-0.5,0.6-0.5,1-0.6c0.3-0.1,0.7-0.1,1.2-0.2l2-0.3c0-0.3,0.3-1,0.7-1.3c2.8-0.1,6.7-0.2,10.6-0.4c0.2,0.3,0.4,1,0.4,1.4
							l-0.7,0.2l-0.2,1.3l0.6,0.6l-0.1,0.8c-0.4,0.4-0.7,1.1-1,1.9c-0.2,0.5-0.4,0.6-1.2,0.7c-0.1,0.7-0.5,1.3-1.1,1.7
							c-0.6-0.1-1.9-0.1-2.5,0c-0.8,0.2-1.9,0.3-3,0.2c-1.1-0.2-2.6,0-3.2,0.1c-0.6,0.1-1.6,0.2-2.1,0.1c-0.6-0.1-1.2,0-2,0.2
							C267.1,117.8,266.6,117.9,266.2,117.9L266.2,117.9z M264.6,117.3c0.8,0.7,2.1,0.5,3,0.3c0.9-0.2,1.5-0.3,2.1-0.2
							c0.5,0.1,1.5,0,2.1-0.1c0.6-0.1,2.2-0.3,3.3-0.1c1,0.1,2.2,0.1,2.9-0.2c0.6-0.2,2-0.2,2.5,0c0.5-0.4,0.8-0.9,1-1.6
							c0.8-0.2,1-0.2,1.2-0.6c0.3-0.8,0.6-1.5,0.7-1.9l0.4-0.7l-0.6-0.7l0.2-1.4l0.7-0.2c0-0.3-0.2-0.9-0.3-1.2
							c-3.9,0.2-7.7,0.3-10.5,0.4c-0.3,0.2-0.6,0.9-0.7,1.3l-2.1,0.4c-0.5,0.1-0.9,0.1-1.1,0.2c-0.5,0.1-0.7,0.1-1,0.6
							c-0.3,0.4-0.6,0.8-0.8,1.2c-0.3,0.4-0.5,0.7-0.7,1c-4.4,0.2-7.8,0-9.9-0.3c-2.6-0.4-3.4-0.8-5-1.8c-2.6-1.5-3.2-1.9-6.8-4
							l-0.6,0c0,0.1,0,0.3,0.3,0.4l6.8,4.4c1.7,1.1,2.9,2.2,4.1,3.5c1.1,1.3,2.2,1.7,3.1,1.4c0.7-0.3,1.8-0.6,2.8-0.3
							C262.4,117.4,263.8,117.4,264.6,117.3L264.6,117.3z"/>
					</g>
					<path class="st8" d="M279.4,108.9c0.2-0.7,0.7-2.5,1.6-5.8c0.2-0.6-0.4-0.8-0.6-0.1c-1.1,3.9-1.5,5.4-1.7,5.9
						C279,108.9,279.3,108.9,279.4,108.9L279.4,108.9z"/>
					<g class="st8">
						<path d="M279.4,109l-0.6-0.1l0.3-0.1L279.4,109l0-0.5c0.2-0.9,0.7-2.6,1.5-5.4l0-0.4l-0.2,0c-0.1,0-0.2,0.1-0.3,0.4l-1.7,5.9
							v-0.1v0.1l-0.1,0l1.7-5.9c0.1-0.3,0.3-0.5,0.5-0.5c0.3,0.2,0.3,0.4,0.3,0.6c-0.8,2.9-1.3,4.6-1.5,5.4L279.4,109L279.4,109z"/>
					</g>
					<path class="st16" d="M285.5,102.3c-1.3,0.7-2,1-2.6,0.7c-0.6-0.2-1.4-0.3-1.9-0.1c0,0.1,0,0.1,0,0.2c-0.6,2.1-1,3.6-1.3,4.5
						c1,0.3,2.7,0.4,3.1,0c0.4-0.4,1.5-0.3,2.1-0.3c0.4-0.5,0.5-1.1,0.4-1.3c-0.1-0.3-0.1-0.8,0.1-1.2
						C285.5,104.4,285.7,103.1,285.5,102.3L285.5,102.3z"/>
					<g class="st8">
						<path d="M261.6,113.7l0.1-0.4h-1l0.1,0.3l-0.2-0.3l-0.1,0.4l0.1-0.4h-0.6l0.1,0.3l-0.1-0.3h-0.4l-0.2,0.3l0.2-0.3h0l0.1,0
							l-0.3,0l0.1,0.3l-0.1-0.3l-0.7,0l0,0.2l0-0.2l-0.1,0l-1-4.3l-0.7-2.9l0.1,0l0.2,0.4l-0.1-0.4l0.1,0l0.1,0.5h0.3l0-0.1l0.1,0
							l0,0.2h0.4l-0.4,0.1l0.1,0.3h0.3l-0.1-0.3l0.1,0l2,5.4l3.9-8.1l0.1,0.1l-0.2,0.3l0.1,0l0.2-0.5l0.1,0.1l-0.2,0.5l0.2,0
							l0.2-0.6l0.1,0l-0.2,0.5l0.1,0l0.1-0.4l0.1,0l-2.6,9.9l1-4.1h-0.6l-0.2,0.6l0.6,0v0.1h-0.6l-0.2,0.5l0.7,0v0.1h-0.7l-0.2,0.7
							l0.7,0v0.1h-0.7l-0.2,0.6l0.8,0v0.1H262l-0.3,0.8l0.8,0v0.1h-0.9L261.6,113.7L261.6,113.7z M259.9,113.3L259.9,113.3l0.7-0.1
							l-0.3-0.7l-0.4,0l0.3,0v0.1h-0.4l-0.1,0.3L259.9,113.3l0.7,0L259.9,113.3L259.9,113.3z M256.4,113.3h-0.1v-0.5h-0.7l0,0.3
							l0-0.3l-0.7,0.2l0-0.2h-0.8l0.2,0l0.1-0.6h-0.6l-0.1,0.4l0.1-0.4h-0.1h0.1l0.1-0.7h0h0l0.1-0.6h0h0l0.1-0.6h0h0l0.8-3.6l0.1,0
							l0,0.1l0.3-0.2l0.1,0l0,0.2l0.2,0l0.1-0.4l0.1,0l-0.1,0.4l0.3,0l0-0.5l0.1,0l0,0.5l0,0v-0.4l0,0.4l0.1,0l-0.1,0.4l0.1,0l0,0.5
							l0,0L256.4,113.3L256.4,113.3z M251.5,111.4c0.1-0.5,0.1-1,0.2-1.6c-0.4,0.4-0.8,0.8-1.2,1.1c0.3-0.4,0.7-0.9,1.2-1.3
							c0.2-1.2,0.4-2.7,0.6-4.1c-1.7,1.7-3.3,3.1-4.4,3.9l-0.1-0.1c1.1-0.8,2.7-2.3,4.5-4c0.3-2.1,0.6-4.3,0.8-5.8l0.1,0
							c-0.2,1.5-0.5,3.6-0.8,5.6c2.1-2,4.3-4.3,6.1-6.4c-0.8-0.4-1.4-0.9-1.6-1.2l0.1-0.1c0.2,0.2,0.8,0.7,1.6,1.1
							c1.4-1.7,2.5-3.3,3-4.4c-0.4,1.1-1.5,2.7-2.9,4.4c0.8,0.4,1.7,0.8,2.2,0.8c-0.5,0-1.5-0.3-2.3-0.7c-1.8,2.2-4.1,4.6-6.2,6.6
							c-0.2,1.5-0.5,2.9-0.7,4.2c0.4-0.4,0.7-0.8,1.1-1.2c0.6-0.7,1.2-1.3,1.7-1.8l0.1,0.1c-0.5,0.5-1.1,1.1-1.7,1.8
							c-0.4,0.4-0.8,0.9-1.2,1.3C251.7,110.3,251.6,110.9,251.5,111.4L251.5,111.4z M270.1,110.8l0.1-0.2l-0.3-0.6l0.1,0l-0.3-0.8h0
							l-0.3-0.8h0l-0.3-0.8h0l-0.3-0.8h0l-0.9-2.8l0.1-0.1l0.1,0.4l0.2,0l-0.1-0.2l0.1-0.1l0.1,0.2l0.2,0l-0.1-0.1l0.1-0.1l0.1,0.2
							l0.3,0l-0.1-0.2l0.1,0.2l0.1,0l0,0.1l0.4,0.7l0.1,0l0,0.2l0.4,0.7l0.1,0v0.1l0.4,0.7l0,0v0.1l0.4,0.7l0.9-2.9l0.5,0l0.1-0.3
							l0.1,0l-0.1,0.3l0.3-0.1l0,0.1h0.3l-0.3,0l-0.2,0.7h0.4l0.1-0.7l0.1,0l-1,5l0.1,0.2l-0.2,0.1l-0.1,0.4l0.1-0.4h-0.6l-0.1,0.3
							l0.1,0.2l-0.1-0.1l0,0.2l-0.1,0l0.1-0.4l0-0.1l-0.6,0l-0.1,0.3l0.1,0.3l-0.1-0.3l-0.1,0.3l0.1-0.3l-0.1-0.2l-0.5,0l-0.1,0.4
							l0,0.2l-0.1-0.2L270.1,110.8L270.1,110.8z M272.2,109.2l0.3,0.5l0.7-3.6l-0.5,0l-0.2,0.7h0.5l-0.5,0l-0.2,0.7h0.5l-0.5,0
							l-0.2,0.7h0.5l-0.5,0l-0.1,0.6L272.2,109.2l0.3,0L272.2,109.2L272.2,109.2z M274.5,109.1c0.3-0.2,0.6-0.4,0.8-0.6l-0.2-0.4h0
							l-0.2-0.6h0l-0.2-0.6h0l-0.6-2l0.1,0l0,0.2l0.3,0l-0.1-0.3l0.1,0l0.1,0.3l0.3,0l-0.1-0.3l0.1,0c-0.8-0.7-1.5-1.5-2.2-2.3
							c-0.5,0.7-1.6,1.2-2,1.3l0-0.1c0.4-0.1,1.5-0.6,2-1.2c-3.3-3.7-6.3-8.1-8.5-11.5l-0.1-0.1c-0.6,0.4-1.4,0.7-1.9,0.9l0-0.1
							c0.6-0.2,1.3-0.5,1.9-0.9l-1.4-2l0.1-0.1l1.4,2c0.4-0.3,0.8-0.6,1.1-0.9c-0.3,0.3-0.6,0.7-1,0.9l0.1,0.1
							c2.3,3.4,5.3,7.8,8.5,11.4c0-0.1,0.1-0.1,0.1-0.2c0,0.1-0.1,0.2-0.1,0.3c0.8,1,1.7,1.9,2.6,2.7l0.2,0v0l0.1,0l0.2,0.5
							c0.5,0.5,1,0.9,1.5,1.3c0.7-0.7,1.3-1.4,1.9-2.1c-0.1-0.1-0.1-0.2-0.2-0.4c-2.9-1.9-5.7-4.9-7.7-7.7c-0.6,0.4-1.3,0.7-1.8,0.9
							l0-0.1c0.5-0.2,1.2-0.5,1.8-0.9c-0.8-1.1-1.5-2.2-2-3.2l0.1-0.1c0.5,1,1.2,2.1,2,3.2c0.6-0.4,1.1-0.8,1.4-1.2
							c-0.3,0.5-0.8,0.9-1.4,1.3c2,2.8,4.7,5.8,7.5,7.8c-1.6-2.9-2.6-6.5-3.9-11l-0.4-1.3l0.5,1.2c1.3,4.6,2.3,8.3,4,11.2
							c0,0,0,0,0.1,0.1c0.2-0.2,0.4-0.5,0.6-0.7l0.1,0.1c-0.2,0.3-0.4,0.5-0.6,0.7c0.1,0.1,0.2,0.1,0.3,0.2c-0.1,0-0.2-0.1-0.3-0.2
							c0,0,0,0.1-0.1,0.1c0.1,0.1,0.2,0.3,0.3,0.4l-0.1,0.1c-0.1-0.1-0.2-0.2-0.2-0.4c-0.6,0.7-1.2,1.4-1.9,2c0.5,0.4,0.9,0.7,1.4,1
							c-0.5-0.3-1-0.6-1.5-1c-0.3,0.3-0.5,0.5-0.8,0.7l0.6,1.6l-0.6-1.6c0,0,0,0,0,0l-0.1,0.1c-0.1,0.1-0.2,0.2-0.3,0.3l0.1,0.2
							l0.5,0v0.1h-0.5l0.2,0.5l0.6,0v0.1h-0.5l0.1,0.3l-0.1-0.3h-0.6l0.1,0.3l-0.1-0.3h-0.7l0.1,0.3l-0.2-0.3l0.1,0l0-0.1
							C275.1,108.7,274.8,108.9,274.5,109.1L274.5,109.1z M276.2,105.3l0.7,1.8c0.2-0.2,0.5-0.5,0.7-0.7
							C277.1,106.1,276.7,105.8,276.2,105.3L276.2,105.3z M281.5,108c-0.6,0-1.3-0.1-1.8-0.3l1.2-4.6c0.6-0.5,1.4-0.3,2-0.1
							c0.6,0.2,1.2,0,2.5-0.7l0.1,0l0,0.1c0.2,0.8,0.1,2.1-0.1,2.5c-0.1,0.4-0.2,0.9-0.1,1.1c0.1,0.3-0.1,0.9-0.4,1.4
							c-0.7,0-1.7-0.1-2.1,0.3C282.7,107.9,282.1,108,281.5,108L281.5,108z M281.7,102.9c-0.2,0-0.5,0-0.6,0.1l-1.2,4.5
							c0.8,0.4,2.5,0.5,2.9,0.1c0.4-0.4,1.4-0.4,2-0.3c0.4-0.4,0.5-1,0.4-1.2c-0.1-0.3-0.1-0.8,0.1-1.2c0.1-0.4,0.3-1.6,0.1-2.3
							c-1.3,0.7-1.9,0.9-2.6,0.7C282.5,102.9,282.1,102.9,281.7,102.9L281.7,102.9z M245.6,107.9c2.4-2.6,6.2-9.3,8.3-14
							c-0.2,0.1-0.4,0.1-0.5,0.2c0.2-0.1,0.3-0.2,0.5-0.3c0.5-1.1,0.9-2.1,1.2-2.9l0.1,0c-0.3,0.8-0.6,1.7-1.1,2.7
							c0.8-0.4,1.7-1,2.2-1.4l0.1,0.1c-0.5,0.4-1.5,1-2.3,1.4C252,98.6,248.1,105.4,245.6,107.9L245.6,107.9z M253.9,104.7l-0.1-0.1
							c0.8-0.2,2-0.9,3.3-1.7c0,0,0,0-0.1,0l0.1-0.1c0,0,0.1,0.1,0.1,0.1c1-0.7,2-1.5,2.7-2.3c-0.6,0.9-1.6,1.7-2.6,2.4
							c1.6,1.1,2.8,1.7,3.7,1.9c-0.9,0-2.2-0.6-3.8-1.8C255.9,103.8,254.7,104.4,253.9,104.7L253.9,104.7z M276.5,103.5
							c-0.9-0.2-2.2-1.4-2.6-2l0.1-0.1C274.5,102.1,275.8,103.2,276.5,103.5L276.5,103.5z M262.7,102.6c0.9-0.4,2-1.5,3-2.4l0.1,0
							l0,0.1C264.8,101.2,263.7,102.3,262.7,102.6L262.7,102.6z M269.6,102.5c-1.3-0.2-2.8-1.7-3.2-2.2l0.1-0.1
							C267.6,101.4,268.8,102.2,269.6,102.5L269.6,102.5z M253.6,99.4l-0.1-0.1c0.6-0.3,1.9-0.9,2.8-1.8
							C255.5,98.5,254.2,99.1,253.6,99.4L253.6,99.4z M268.9,97.2c-0.8-0.2-1.4-0.8-2-1.3c-0.2-0.2-0.5-0.4-0.7-0.6l0.1-0.1
							c0.2,0.2,0.4,0.4,0.7,0.6C267.6,96.4,268.2,96.9,268.9,97.2L268.9,97.2z M262.3,97.2c1.5-0.6,3-1.8,3.4-2.2l0.1,0.1
							C265.3,95.5,263.8,96.7,262.3,97.2L262.3,97.2z M276,97.1c-0.8-0.1-2-1.5-2.3-2l0.1-0.1C274.2,95.5,275.4,96.8,276,97.1
							L276,97.1z M260.5,94c-1.2,0-2.7-1-3.6-1.6l0.1-0.1c0.7,0.5,2.5,1.7,3.8,1.7C260.7,94,260.6,94,260.5,94L260.5,94z
							 M269.3,91.4c-0.9-0.1-2.5-0.9-3.4-1.9l0.1-0.1C266.9,90.4,268.5,91.1,269.3,91.4L269.3,91.4z M270.3,90
							C270.3,90,270.3,90,270.3,90c0.8-0.1,2.1-1.2,2.6-1.7l0.1,0.1C272.6,89,271.2,90,270.3,90L270.3,90z M275.5,89.9
							c-0.6,0-1.6-0.9-2-1.5l0.1-0.1C274.1,88.9,275.1,89.8,275.5,89.9C275.5,89.9,275.5,89.9,275.5,89.9L275.5,89.9z M253.5,89.8
							c0.7-0.4,1.7-1.1,2.8-2.4l0.1,0.1C255.6,88.4,254.5,89.6,253.5,89.8L253.5,89.8z M259.9,89.8c-1,0-2.5-1.2-3.1-2.1l0.1-0.1
							C257.5,88.5,259,89.6,259.9,89.8L259.9,89.8z M262.6,87.6l0-0.1c0.5-0.1,2.1-0.5,2.9-1.7C264.8,87,263.1,87.5,262.6,87.6
							L262.6,87.6z M269.1,87.4c-1,0-2.4-0.9-3.3-1.7l0.1-0.1C266.7,86.1,268.2,87.3,269.1,87.4C269.2,87.4,269.2,87.4,269.1,87.4
							L269.1,87.4z"/>
					</g>
					<path class="st14" d="M256,115.9c1-0.6,2.6-0.5,3.5,0.1c1-0.6,2.8-0.4,3.7,0.3c1.3-0.9,2.4-1,3.6-0.2c1-0.7,2.5-0.8,3.6,0.1
						c1.1-0.5,2.4-1,3.5,0.2c-0.7-0.5-2.1-0.9-3.5,0.2c-1.1-1.1-3-0.7-3.6,0.1c-0.8-1-2.5-1.1-3.6,0.1c-1.1-0.9-2.8-1-3.7-0.3
						C258.8,116,257.7,115.5,256,115.9L256,115.9z"/>
					<path class="st13" d="M273.1,114.6c-5,0.9-15.8,0.3-18.2-0.3c-0.8-0.2-0.6-0.5,0.1-0.3c2.7,0.6,8.6,0.6,11.8,0.5
						c0.6-0.8,1.6-2.2,1.9-2.6c0.3-0.4,0.4-0.4,1.1-0.5c1.1-0.2,1.7-0.3,2.7-0.5c0,0.1,0,0.3,0,0.4c-0.1,0.1-0.2,0.2-0.2,0.2
						c0,0.6,0.1,2.2,0.2,2.8c0.1,0,0.3-0.1,0.4-0.1C273.1,113.9,273.3,114.5,273.1,114.6L273.1,114.6z"/>
					<path class="st13" d="M281.3,114.8c0.2,0,0.6,0,0.7,0c0.2,0,0.5-0.1,0.6-0.5c0.1-0.3,0.5-1.5,0.7-2l-0.5-0.8
						c0.1-0.6,0.3-1.5,0.3-1.6c0.3-0.1,0.5-0.2,0.6-0.2c0-0.1,0-0.5-0.2-0.7c-2.2,0.1-8.6,0.3-9.7,0.3c-0.3,0-0.4,0-0.5,0.4
						c-0.6,2.2,0.2,5.3,2.5,7.1c0.2,0.1,0.4,0,0.1-0.2c-0.4-0.3-1-1.1-1.3-1.7c0.4,0,1.3,0,1.6,0c0.1,0.5,0.5,1.6,0.6,1.8
						c0.1,0.2,0.3,0.2,0.2-0.1c-0.2-0.7-0.3-1.4-0.4-1.8c0.4,0,1.2,0,1.6,0c0,0.6,0.1,1.4,0.1,1.6c0,0.2,0.2,0.2,0.2,0
						c0-0.2,0-1.3,0-1.6c0.5,0,1.2,0,1.5,0c0,0.3-0.1,1.4-0.1,1.6c0,0.3,0.1,0.4,0.2,0c0.1-0.4,0.2-1.2,0.2-1.6c0.2,0,0.8,0,1,0
						c0,0.3-0.3,1.3-0.4,1.6c-0.1,0.3,0.1,0.3,0.2,0C280.9,116.2,281.2,115.2,281.3,114.8L281.3,114.8z"/>
					<path class="st8" d="M274.2,114.5c-0.2-0.3-0.7-1.6-0.7-2.5c0.5,0,1.6,0,2.1,0c0.1,0.7,0.3,2.1,0.4,2.5
						C275.3,114.5,274.5,114.5,274.2,114.5L274.2,114.5z"/>
					<path class="st8" d="M275.9,112c0.1,0.5,0.3,2.3,0.4,2.5c0.5,0,1.5,0,1.7-0.1c0-0.5-0.1-2.2-0.1-2.5
						C277.4,112,276.2,112,275.9,112L275.9,112z"/>
					<path class="st8" d="M273.5,109.9c-0.1,0.5-0.1,1.4-0.1,1.8c0.5,0,1.9,0,2.1,0c-0.1-0.5-0.1-1.3-0.2-1.8
						C274.9,109.8,273.8,109.8,273.5,109.9L273.5,109.9z"/>
					<path class="st8" d="M275.7,109.8c0,0.4,0.1,1.5,0.1,1.8c0.5,0,1.6,0,2,0c0-0.4-0.1-1.7-0.1-1.9
						C277.2,109.7,276.1,109.8,275.7,109.8L275.7,109.8z"/>
					<path class="st8" d="M278.2,109.7c0,0.4,0.1,1.6,0,1.9c0.5,0,1.5,0,1.8,0c0-0.4,0.1-1.6,0.1-1.9
						C279.5,109.7,278.6,109.7,278.2,109.7L278.2,109.7z"/>
					<path class="st8" d="M280.4,109.6c0,0.3,0,1.6-0.1,1.9c0.5,0,1.6-0.1,1.9-0.1c0.1-0.4,0.2-1.5,0.3-1.9
						C282.1,109.6,280.8,109.6,280.4,109.6L280.4,109.6z"/>
					<path class="st8" d="M282.4,111.9c-0.6,0-1.7,0-2,0.1c-0.1,0.8-0.2,2.2-0.2,2.5c0.6,0,1.7-0.1,2-0.1c0.2-0.4,0.6-1.5,0.7-1.9
						C282.7,112.2,282.5,112.1,282.4,111.9L282.4,111.9z"/>
					<path class="st8" d="M278.3,112c0,0.3,0.1,2.3,0.1,2.5c0.4,0,1.3,0,1.5,0c0.1-0.8,0.2-2.3,0.2-2.5
						C279.3,112,278.7,112,278.3,112L278.3,112z"/>
					<path class="st8" d="M270,111.5l-0.8,0.1c-0.4,0.6-1.8,2.5-1.9,2.7c1,0,2.5-0.1,2.9-0.1C270,113.7,270,111.7,270,111.5
						L270,111.5z"/>
					<path class="st8" d="M270.3,111.4c0,0.6,0.1,2.4,0.1,2.8c0.5,0,1.4-0.1,1.7-0.1c-0.1-0.8-0.2-2.7-0.3-3
						C271.5,111.2,270.7,111.4,270.3,111.4L270.3,111.4z"/>
					<path class="st8" d="M261.9,104.7C262,104.7,262.1,104.8,261.9,104.7l-9.3,0c-0.1,0-0.1-0.1,0-0.1L261.9,104.7z"/>
					<g class="st8">
						<path d="M261.9,104.8l-9.2-0.1l4.6-0.1L261.9,104.8L261.9,104.8L261.9,104.8L261.9,104.8z M261.9,104.7l-4.5,0L261.9,104.7
							L261.9,104.7L261.9,104.7z"/>
					</g>
					<path class="st8" d="M269.2,97.3C269.3,97.3,269.3,97.4,269.2,97.3l-7.3-0.1c-0.1,0-0.1-0.1,0-0.1L269.2,97.3z"/>
					<g class="st8">
						<path d="M269.2,97.4l-7.3-0.2l3.7,0l3.6,0.1V97.4v-0.1V97.4L269.2,97.4z M269.2,97.3l-3.5-0.1L269.2,97.3L269.2,97.3
							L269.2,97.3z"/>
					</g>
					<path class="st8" d="M261.5,99.4C261.6,99.4,261.6,99.5,261.5,99.4l-8.2,0c-0.1,0-0.1-0.1,0-0.1L261.5,99.4z"/>
					<g class="st8">
						<path d="M261.5,99.5l-8.2-0.1l4.1-0.1L261.5,99.5v-0.1V99.5L261.5,99.5z M261.5,99.4h-4H261.5L261.5,99.4L261.5,99.4z"/>
					</g>
					<path class="st8" d="M261.7,94C261.8,94,261.8,94.1,261.7,94l-8.6,0c-0.1,0-0.1-0.1,0-0.1L261.7,94z"/>
					<g class="st8">
						<path d="M261.7,94.2l-8.6,0l8.6-0.1V94.2v-0.1V94.2L261.7,94.2z M257.5,94.1l4.2-0.1v0.1L257.5,94.1L257.5,94.1z"/>
					</g>
					<path class="st8" d="M261.1,89.8C261.2,89.8,261.2,89.9,261.1,89.8l-8.3,0c-0.1,0-0.1-0.1,0-0.1L261.1,89.8z"/>
					<g class="st8">
						<path d="M261.1,90l-8.4-0.1l4.2-0.1L261.1,90l0-0.1L261.1,90L261.1,90z M261.1,89.9l-4.1,0L261.1,89.9L261.1,89.9L261.1,89.9z
							"/>
					</g>
					<path class="st16" d="M269.7,87.4C269.9,87.4,269.9,87.5,269.7,87.4l-7.2,0.2c-0.1,0-0.1-0.1,0-0.1L269.7,87.4z"/>
					<g class="st8">
						<polygon points="262.6,87.6 262.4,87.5 269.7,87.3 267.1,87.4 269.7,87.4 262.6,87.6 						"/>
					</g>
					<path class="st8" d="M270.2,91.4C270.3,91.4,270.3,91.5,270.2,91.4l-7.9,0.1c-0.1,0-0.1-0.1,0-0.1H270.2z"/>
					<g class="st8">
						<polygon points="270.2,91.5 262.3,91.5 270.2,91.4 270.2,91.5 						"/>
					</g>
					<path class="st8" d="M277.9,97.1C278.1,97.1,278.1,97.2,277.9,97.1l-8.5,0.1c-0.1,0-0.1-0.1,0-0.1H277.9z"/>
					<g class="st8">
						<path d="M277.9,97.3h-8.5l8.5-0.1V97.3L277.9,97.3z M273.8,97.1l4.2-0.1v0.1L273.8,97.1L273.8,97.1z"/>
					</g>
					<path class="st8" d="M278.1,90C278.2,90,278.2,90.1,278.1,90l-8.7,0c-0.1,0-0.1-0.1,0-0.1L278.1,90z"/>
					<g class="st8">
						<path d="M278.1,90.1l-8.7-0.1l4.3-0.1L278.1,90.1L278.1,90.1L278.1,90.1L278.1,90.1z M278.1,90l-4.3,0L278.1,90L278.1,90
							L278.1,90z"/>
					</g>
					<path class="st8" d="M270,102.5C270.1,102.5,270.1,102.6,270,102.5l-7.7,0c-0.1,0-0.1-0.1,0-0.1L270,102.5z"/>
					<g class="st8">
						<polygon points="270,102.7 262.4,102.6 270,102.5 270,102.6 270,102.5 270,102.7 						"/>
					</g>
					<path class="st8" d="M277.5,103.5C277.6,103.5,277.6,103.6,277.5,103.5l-6.7,0c-0.1,0-0.1-0.1,0-0.1L277.5,103.5z"/>
					<g class="st8">
						<path d="M277.5,103.7l-6.7-0.1l3.4-0.1L277.5,103.7v-0.1V103.7L277.5,103.7z M277.5,103.5l-3.3,0L277.5,103.5L277.5,103.5
							L277.5,103.5z"/>
					</g>
					<path class="st17" d="M283.6,104.8c0.2-0.4,0.2-1.4,0.1-1.8c-0.3,0.1-0.5,0-0.8,0c-0.1,0-0.3-0.1-0.4-0.1
						c0,0.5-0.2,1.7-0.4,2.2c-0.4,0.1-1.1,0-1.6-0.2c-0.1,0.4-0.2,0.8-0.3,1.1c0.5,0.1,1.2,0.1,1.8,0c0,0.7-0.1,1.4-0.5,1.8
						c0.6,0,1.2-0.1,1.4-0.3c0,0,0,0,0.1-0.1c0.3-0.5,0.3-1.1,0.4-1.6c0.2,0,0.5,0,0.6-0.2c0.1-0.1,0.3-0.2,0.5-0.2
						c0.2,0,0.5,0,0.8-0.2c0-0.2,0-0.5,0.1-0.7c0-0.1,0.1-0.3,0.1-0.5C285.1,104.4,284,104.8,283.6,104.8L283.6,104.8z"/>
					<g class="st8">
						<path d="M281.5,108l-0.1,0c0.3-0.6,0.4-1.3,0.5-1.9c-0.4,0.3-1.2,0.2-1.7,0.1l0.2-1.1c0,0,0.1,0,0.1,0l-0.2,1
							c0.2,0,0.5,0,0.8,0c0.3,0,0.6,0,0.9-0.1c0.1,0.7,0,1.4-0.4,1.8c0.6,0,1.1-0.1,1.2-0.3c0.3-0.4,0.3-0.9,0.4-1.3l0.2-0.4
							c0.2,0,0.4-0.1,0.5-0.2c0.2-0.1,0.4-0.2,0.6-0.2c0.2,0,0.5,0,0.8-0.2c0-0.1,0-0.4,0.1-0.6c0-0.1,0.1-0.3,0.1-0.5
							c-0.3,0.3-1.4,0.7-1.8,0.7c0.1-0.4,0.1-1,0.1-1.4c0.2,0.5,0.1,1.1,0,1.4c0.4-0.1,1.4-0.4,1.8-0.7c0.1,0.3,0,0.5,0,0.6
							c-0.1,0.2-0.1,0.4-0.1,0.7c-0.4,0.2-0.7,0.2-0.9,0.2c-0.3,0-0.4,0.1-0.5,0.1c-0.1,0.1-0.4,0.2-0.6,0.2
							c-0.1,0.7-0.1,1.1-0.4,1.5C282.6,107.9,281.9,108,281.5,108L281.5,108z M281.7,105.2c-0.4,0-0.8-0.1-1.1-0.2
							c0.4,0,0.8,0,1.1,0l0,0c0.5-0.5,0.7-1.7,0.7-2.2c0.2,0,0.4,0,0.5,0.1c0.1,0.1,0.3,0.1,0.4,0.1c0,0,0.1,0.1,0.1,0.1
							c-0.3,0-0.4,0-0.6,0c-0.1-0.1-0.3-0.1-0.4-0.1c0.1,0.4-0.1,1.7-0.3,2.2l0,0L281.7,105.2L281.7,105.2z"/>
					</g>
					<path class="st8" d="M253.7,64c-1,0-3,0-3.5,0.3c-0.4,0.3-0.6,0.4,0.1,0.5c0.8,0.1,2.1,0.5,2.8,0.9c0.7,0.4,1.3,1.2,1.1,2.3
						c-0.6,3.3,1.1,6.5,3.7,7.7c0.2,0.1,0.3,0.2,0.2,0.7c-0.1,0.4-0.2,1.2-0.4,1.4c-0.1,0.2-0.2,0.5,0.2,0.4c-0.3,0.6-1,1.7-1.2,2
						c-2-0.2-3.6,0-3.8,2.1c0,0.2,0.1,0.5,0.4,0c0.3-0.5,0.7-1,1.5-1.1c-0.5,0.8-0.7,1.5-0.6,1.9c0.1,0.5,0.2,0.7,0.4,0.2
						c0.2-0.6,0.6-1.1,1.1-1.4c0.2-0.1,0.3-0.2,0.1,0.2c-0.1,0.4,0.1,1.1,0.3,1.4c0.2,0.3,0.4,0.1,0.3-0.3c-0.1-0.4,0-1.3,0.6-1.6
						c0.7-0.4,1.4-0.2,1.7,0.3c0.3,0.5,0.6,0,0.2-0.6c-0.3-0.6-0.7-1-1.2-1c0.5-0.8,1-1.9,1.2-2.1c0.1-0.2,0.3-0.3,0.5-0.2
						c0.2,0.1,0.3,0.1,0.4-0.2c0.2-0.3,0.4-1.3,0.9-1.8c0.2-0.1,0.5-0.1,0.7-0.2c0.5,0.8,1,1.6,1.1,1.8c0.1,0.2,0.3,0.3,0.1,0.7
						c-0.1,0.4-0.5,1.7-0.6,1.9c-1.5,0.1-2.2,0.1-2.6,0.9c-0.2,0.4,0.1,0.5,0.5,0.3c0.4-0.2,0.9-0.4,1.1-0.3c0.3,0,0.4,0.2,0.1,0.3
						c-0.9,0.5-1.5,1-1.4,1.8c0,0.3,0.1,0.4,0.4,0c0.3-0.5,0.9-1.1,1.6-1.2c0,0.7,0.1,1.6,0.5,1.9c0.4,0.2,0.4,0,0.3-0.4
						c-0.3-0.6,0-1.3,0.3-1.6c0.6-0.7,2.1,0.3,2.4,0.5c0.3,0.2,0.5,0.3,0.4-0.3c-0.2-0.8-1.4-1.3-2.4-1.5c0.3-1.4,1-4.2,1.5-5.1
						c0.6,0.3,1.1-0.5,2.1-0.2c1.7,0.6,4.2,2.2,4.7,2.6c0.4,0.4,0.6,0.3,0.8,0.1c0.2-0.2,0.6,0,0.9,0c0.3,0.1,0.6,0.1,0.2-0.6
						c-0.4-0.8-1.3-2.1-2.9-3.1c0.9,0.1,2.2,0.1,2.2-0.2c0-0.2-1.4-0.7-2-0.8c0.6-0.1,1.4-0.5,1.9-0.9c0.2-0.3,0-0.3-0.9-0.4
						c-2.6-0.1-3.9,0-5.3-0.8c-2.2-1.2-3.4-2.6-4.5-3.1c-0.6-0.3-0.9-1-1.1-1.6c-0.7-1.9-0.7-2.8-2.3-3.4
						C256.5,62.5,254.6,63.2,253.7,64L253.7,64z"/>
					<path class="st16" d="M253.8,64.4c-0.4,0-1.2-0.1-1.9-0.1c-0.2,0-0.3,0.1,0,0.1c0.4,0,1.4,0.3,1.8,0.4c0.4,0.1,0.2,0.3-0.1,0.2
						c-0.3-0.1-0.4,0-0.2,0.2c1.3,0.9,1.5,1.3,1.1,4.5c0.3,0.2,0.5,0.3,0.7,0.4c0.2,0.1,0.2,0.3-0.1,0.2c-0.2-0.1-0.5,0.1-0.1,0.2
						c0.4,0.1,0.5,0.3,0.2,0.2c-0.4,0-0.8,0.3-0.1,0.2c0.7-0.1,1,0.3,0.2,0.3c-0.8,0-0.5,0.3-0.1,0.3c0.8,0,0.6,0.2,0.4,0.2
						c-0.2,0-0.3,0.3,0.2,0.2c0.5,0,0.7-0.1,0.9,0c0.2,0,0.3,0.2,0,0.2c-0.3,0-0.3,0.2,0.2,0.2c0.4,0,0.6,0.1,0.2,0.2
						c-0.2,0-0.4,0.1,0.1,0.2c0.8,0.1,0.8,0.3,0.6,0.3c-0.3,0-0.3,0.2,0.1,0.2c0.4,0,0.7,0.1,0.4,0.2c-0.3,0.1-0.5,0.2-0.1,0.3
						c0.4,0,0.7,0.2,0.4,0.3c-0.3,0.1-0.3,0.3,0,0.3c0.4,0,0.5,0.2,0.3,0.3c-0.3,0.1-0.4,0.2-0.6,0c-0.2-0.3-0.3-0.3-0.3-0.1
						c0,0.2-0.2,0.1-0.3-0.2c-0.1-0.3-0.3-0.4-0.3-0.1c0.1,0.2-0.2,0.3-0.5,0.1c1,1,2.4,1.9,4.8,1c0.2-0.1,0.2,0,0.4,0.3
						c0.2,0.3,0.6,1.1,0.7,1.3c0.2,0.3,0.3,0,0.4-0.2c0.3-1,0.5-1.8,0.6-2.1c0.1-0.3,0.5-0.6,0.4,0.4c0.3-0.2,1.9-0.5,3,0
						c1.3,0.5,2.6,1.2,3.3,1.7c0.1,0.1,0.3,0.2,0.6,0.2c0.3,0,0.4-0.1-0.2-0.6c-0.6-0.5-0.3-0.8,0-0.5c0.4,0.3,0.6,0.1,0.3-0.2
						c-0.3-0.3-1-1-1.2-1.1c-0.2-0.2-0.3-0.2-0.8-0.3c-0.5,0-1.6,0-1.9,0c-0.3,0-0.4,0,0.3,0.3c0.7,0.3,2.1,1.2,2.4,1.4
						c0.3,0.2,0.5,0.7-0.2,0.3c-0.7-0.4-2.9-1.8-4.3-2.3c-3.3,0.2-5.9,0.7-7.8-1.5c-0.9-1-1-3.4,0.6-4.3c-0.3-0.3-0.3-0.4-0.1-0.5
						c0.1-0.1,0.2-0.1,0-0.3c-0.1-0.2-0.1-0.3,0-0.4c-0.3-0.2-0.5-0.4-0.5-0.6c-0.4-0.1-0.6-0.6-1.2-0.4c-0.6,0.2-0.8,0-1-0.1
						c-0.2-0.1-0.3-0.2-0.6-0.2c-0.3,0-0.6-0.1-0.6-0.3c0-0.2,0.3-0.2,0.7,0c0.9,0.4,1.6,0.6,2.2-0.2c0.6-0.7-0.2-1.4-1.2-1.6
						C255,63.3,254.2,64.1,253.8,64.4L253.8,64.4z"/>
					<g class="st8">
						<path d="M262.8,77.2l-0.2-0.2c-0.3-0.5-0.6-1.1-0.8-1.3l-0.2-0.4l-0.1,0.1c-1.8,0.8-3.4,0.5-4.8-1l0.5-0.1l0.4,0l0.7,0.6
							l0.3-0.2h-0.1l-0.5-0.3l0.3-0.3l0,0c0,0-0.2-0.1-0.5-0.1l0-0.1l0-0.1c0.2,0,0.6,0.1,0.6,0.2l-0.3,0.3c0.5,0,0.6,0.1,0.6,0.2
							c-0.3,0.3-0.4,0.4-0.5,0.4l-0.9-0.6l0,0l-0.4,0.1c1,1.1,2.6,1.5,4.4,0.8c0.3,0,0.4,0.1,0.5,0.3c0.1,0.3,0.4,0.8,0.6,1.1
							L262.8,77.2v-0.1V77.2l0.2-0.5c0.3-1,0.5-1.8,0.6-2.1l0,0l0.3-0.3c0.2,0.2,0.3,0.4,0.2,0.8c0.2-0.4,1.5-0.7,3-0.1
							c1.3,0.5,2.6,1.3,3.3,1.8c0.1,0.1,0.2,0.2,0.4,0.2c0.3-0.1,0.2-0.2-0.2-0.5c-0.3-0.3-0.4-0.5-0.4-0.7h0.5
							c-0.1-0.4-0.7-1.1-1-1.2c-0.2-0.2-0.3-0.2-0.7-0.2c-0.5,0-1.6,0-1.9,0c1,0.4,2.5,1.4,2.7,1.5c0.2,0.1,0.4,0.4,0.3,0.5
							c-0.2,0.1-0.4,0-0.6-0.1c-2.3-1.5-3.6-2-4.3-2.3l-0.9,0.1c-0.9,0.1-1.7,0.1-2.4,0.1c-1.5,0-3.2-0.2-4.5-1.7
							c-0.5-0.6-0.8-1.5-0.6-2.4c0.1-0.9,0.6-1.6,1.2-2c-0.2,0-0.3-0.2-0.3-0.3l0,0l0.1-0.6c-0.2-0.2-0.4-0.5-0.4-0.8
							c-0.1,0-0.3-0.1-0.4-0.2c-0.2-0.1-0.3-0.2-0.5-0.2c-1,0.2-1,0.1-1.3-0.1c-0.2-0.1-0.3-0.2-0.5-0.2c-0.5,0-0.7-0.1-0.7-0.3
							c0.4-0.2,0.6-0.2,0.8-0.1c0.8,0.4,1.6,0.5,2.1-0.1c0.2-0.2,0.2-0.5,0.1-0.7c-0.1-0.4-0.6-0.7-1.3-0.8c-1,0-1.7,0.5-2.1,0.9
							l-0.5,0c-0.4,0-0.9-0.1-1.4,0c0.4-0.6,1-0.1,1.4-0.1c0.7-0.3,1.4-0.9,2.3-0.9c1.1,0.2,1.6,0.5,1.8,0.9
							c0.1,0.3,0.1,0.6-0.2,0.8c-0.5,0.7-1.4,0.6-2.2,0.2c-0.2-0.1-0.3-0.1-0.4-0.1c-0.2,0.2,0.1,0.3,0.3,0.3c0.4,0,0.5,0.1,0.7,0.2
							c0.1,0.1,0.4,0.2,0.9,0.1c0.5,0,0.7,0.1,0.8,0.2c0.1,0.1,0.2,0.2,0.4,0.2c0,0.3,0.2,0.5,0.5,0.7l0.2,0.7l-0.1,0.6
							c-0.6,0.4-1.1,1.1-1.2,1.9c-0.1,0.9,0.1,1.8,0.6,2.3c1.3,1.5,3,1.6,4.4,1.6c0.8,0,1.6-0.1,2.4-0.1l0.9-0.1
							c0.7,0.2,2,0.8,4.3,2.3c0.4,0.1,0.2,0,0.1-0.2c-0.4-0.3-1.7-1.1-2.4-1.4c-0.5-0.2-0.6-0.3-0.6-0.3c0.6-0.1,1.7-0.1,2.2-0.1
							c0.5,0,0.6,0.1,0.7,0.2c0.3,0.2,1,0.9,1.2,1.2l0,0.5l-0.6-0.2c-0.1,0.1,0,0.3,0.3,0.5c0.4,0.4,0.5,0.5,0.5,0.6l-0.4,0.1
							c-0.3,0-0.4-0.1-0.5-0.2c-0.7-0.5-2-1.2-3.3-1.7c-1.5-0.6-2.7-0.2-3,0c-0.1-0.5-0.1-0.6-0.1-0.7c-0.3,0.5-0.6,1.3-0.9,2.3
							C263,77.1,262.9,77.2,262.8,77.2L262.8,77.2z M257,72.8l-0.6-0.4l0.4-0.2c-0.5,0-0.7,0-1,0l-0.1,0l-0.4-0.2l0.4-0.2
							c0,0-0.1,0-0.5,0c-0.2,0-0.5-0.1-0.5-0.2c0-0.1,0.2-0.2,0.6-0.2c0.3,0,0.4-0.1,0.4-0.1l-0.4-0.1l-0.2,0.1l-0.5-0.1
							c0-0.1,0.3-0.2,0.5-0.2l-0.4-0.3l0.2,0l-0.1,0.1c0.2,0,0.6,0.1,0.6,0.3l-0.7,0.2l0.5-0.1c0.2,0,0.5,0.1,0.5,0.2
							c0,0.1-0.2,0.2-0.6,0.2c-0.4,0-0.4,0.1-0.4,0.1c0.6,0.1,1,0,1,0.3l-0.4,0.2c0.6,0,0.8,0,1,0l0.5,0.2l-0.4,0.2
							c0.5,0,0.8,0.1,0.8,0.2L257,72.8L257,72.8z M255.1,70.4c-0.2-0.2-0.4-0.3-0.6-0.4c0.3-3.3,0.2-3.6-1.1-4.5l0.1-0.2
							c1.4,1,1.5,1.5,1.1,4.6c0.2,0.1,0.4,0.2,0.6,0.3L255.1,70.4L255.1,70.4z"/>
					</g>
					<path class="st16" d="M259.1,64.2c-0.3-0.3-0.9-0.7-1.2-0.8c-0.3-0.1-0.3,0.2-0.2,0.3c-0.1,0.2-0.2,0.6,0,0.8
						c0.2,0.1,0.2,0.3,0,0.4c-0.3,0.2-0.2,1,0.3,0.8c0.2-0.1,0.3,0,0.3,0.1c0,0.1,0,0.3,0.2,0.3c0.1,0,0.1,0.2,0.1,0.3
						c0,0.1,0,0.1,0.2,0.1c0.2,0,0.2,0.4-0.1,0.5c0.3,0,0.4-0.1,0.5,0.2c0.1,0.3,0.5,0.3,0.5,0.7s-0.1,0.4-0.5,0.3
						c-0.4-0.1-0.6,0.1-0.7,0.2c-0.1,0.2-0.2,0.3,0.2,0.3c0.3,0,0.4,0.2,0.1,0.3c-0.3,0.1-0.8,0-0.9,0.3c-0.1,0.3,0,0.4,0.2,0.3
						c0.2-0.1,0.7-0.3,0.9-0.4c0.2-0.1,0.4-0.1,0.5,0.1c0.2,0.3,0,0.5-0.2,0.3c-0.3-0.2-0.4,0-0.5,0.1c-0.2,0.1-0.4,0.2-0.6,0.2
						c-0.3,0-0.4,0-0.4,0.6c0.1,1.7,1.4,2.9,3.8,2.9c2.4,0,3.6-0.1,4,0c-0.8-0.4-1.3-0.7-1.6-0.6c-0.3,0-0.5,0.1-0.4-0.1
						c0.1-0.2,0-0.2-0.1-0.3c-0.1-0.1-0.3-0.2-0.5,0c-0.2,0.3-0.8,0.6-1.1,0.6c-0.3,0.1-0.7,0.1-0.4-0.2c0.3-0.3,0.9-0.4,1.1-0.5
						c0.2-0.1,0.2-0.2,0.2-0.3c0-0.1-0.1-0.4,0.3-0.2c0.7,0.4,1.8,1,2.1,1c0.3,0,0.5-0.1,0.2-0.3c-0.3-0.2-0.3-0.4-0.3-0.5
						c0.1-0.1,0.1-0.2,0.6,0.1c0.5,0.3,1.2,0.6,1.5,0.7c0.3,0.1,0.7,0.1,0.1-0.3c-0.6-0.4-2.4-1.6-2.9-2c-0.5-0.4-0.3,0.1-0.2,0.2
						c0,0.1-0.3,0.3-0.5,0.1c-0.2-0.2-0.4-0.4-0.1-0.5c0.3-0.2,0.3-0.2-0.1-0.5c-0.4-0.4-0.5-0.3-0.4,0c0.1,0.3,0.1,0.7-0.3,0.5
						c-0.4-0.2-0.7-0.4-0.4-0.5c0.3-0.2,0.6-0.3,0.2-0.7c-0.5-0.4-0.3,0-0.4,0.2c-0.1,0.2-0.5,0.2-0.7,0c-0.2-0.2-0.3-0.3-0.2-0.5
						c0.1-0.1,0.1-0.2,0.3-0.1c0.2,0.1,0.5,0,0.1-0.3c-0.4-0.3-0.5-0.2-0.4,0c0.1,0.2-0.2,0.5-0.7,0.1c-0.2-0.2-0.2-0.5,0-0.5
						c0.2,0,0.3-0.2,0.1-0.4C259.6,66.3,260,65.2,259.1,64.2L259.1,64.2z"/>
					<g class="st8">
						<path d="M261.4,73.7c-2.2,0-3.7-1.1-3.8-3c0-0.3,0-0.5,0.1-0.6c0.6-0.1,0.8-0.2,0.9-0.3l0.4-0.2l0.4,0.2l-0.2-0.4
							c-0.3,0.1-0.7,0.3-0.9,0.4l-0.5,0.1c0-0.6,0.3-0.7,0.6-0.7l0.5-0.2l-0.5-0.2c0.2-0.4,0.3-0.6,0.6-0.6l0.4,0l0-0.6l-0.5-0.5
							c0.3-0.1,0.4,0,0.4,0.2c0.3,0.4,0.5,0.5,0.5,0.7c0,0.2,0,0.4-0.3,0.4l-0.4,0c-0.2,0-0.3,0.1-0.4,0.2l0.4,0.4
							c-0.4,0.3-0.5,0.4-0.7,0.4c-0.3,0-0.4,0.1-0.5,0.2c0.6,0,0.9-0.1,1-0.2c0.4-0.1,0.5,0,0.6,0.2l-0.1,0.5l-0.4-0.2
							c-0.5,0.3-0.7,0.4-1,0.4c-0.3,0.1-0.3,0.3-0.3,0.5c0.1,1.8,1.5,2.8,3.7,2.8V73.7l0.1-0.2l3.2,0c0.4,0,0.6,0,0.8,0
							c-0.8-0.3-1.3-0.5-1.5-0.5l-0.5,0l0-0.5l0,0.1l-0.5,0l0.1,0.1c-0.2,0.3-0.9,0.6-1.2,0.6l-0.6-0.1c0.3-0.5,0.6-0.6,0.9-0.7
							l0.9-0.6c1.1,0.6,1.9,1,2.1,1c0-0.3-0.1-0.5-0.1-0.6c0.4-0.3,0.5-0.3,0.7-0.1c0.5,0.3,1.2,0.6,1.5,0.7
							c-0.3-0.4-0.8-0.8-1.4-1.2c-0.6-0.4-1.2-0.8-1.5-1l-0.5,0.4c-0.4-0.2-0.5-0.3-0.5-0.5l0.4-0.4c-0.5-0.5-0.6-0.5-0.6-0.6
							c0.1-0.1,0.2-0.1,0.5,0.1c0.2,0.2,0.3,0.3,0.3,0.4l-0.4,0.4l0.4,0.3l0.2-0.5l0.4,0.1c0.3,0.2,0.9,0.6,1.5,1
							c0.6,0.4,1.1,0.8,1.4,1c0.3,0.2,0.4,0.3,0.3,0.4l-0.5,0c-0.3-0.1-1.1-0.5-1.5-0.7c-0.2-0.1-0.3-0.2-0.4-0.2l0.2,0.5l-0.3,0.5
							l0,0c-0.3,0-1.4-0.6-2.2-1c-0.2,0.2-0.2,0.3-0.4,0.5c-0.6,0.2-0.9,0.3-1.1,0.5c0.6,0,1.2-0.3,1.4-0.5l0.6-0.1l0.1,0l0.1,0.4
							c0.7,0,1.2,0.3,1.9,0.7c-0.2,0.1-0.4,0.1-0.8,0.1L261.4,73.7L261.4,73.7z M262.6,70.5c-0.3-0.1-0.5-0.3-0.5-0.4l0.6-0.5
							l-0.3-0.3l0,0l-0.7,0.4c-0.1,0-0.3-0.1-0.4-0.1l-0.3-0.4l0.3-0.4l-0.4,0.2c-0.1,0-0.3,0-0.5-0.2c-0.1-0.1-0.2-0.3-0.2-0.5
							l0.3-0.2l0,0.2c0.2,0.6,0.3,0.6,0.4,0.6l0.2-0.4c0.2-0.1,0.4,0,0.6,0.1l0,0.1l0,0.4l-0.5,0l0.1,0.4l0.3,0l0.3-0.1l0-0.2
							l0.5-0.1c0.2,0.2,0.3,0.3,0.3,0.4l0,0l-0.3,0.3c-0.2,0.2-0.1,0.3,0.3,0.5l0.3-0.4l-0.1,0c0-0.1,0.1-0.1,0.1-0.2
							c0.1,0.4,0.1,0.6,0,0.7L262.6,70.5L262.6,70.5z M260.6,67.9c-0.5-0.9-0.7-1.5-0.8-2c-0.1-0.6-0.3-1.1-0.8-1.7
							c-0.3-0.3-0.9-0.6-1.1-0.7c-0.1,0.4-0.2,0.6-0.2,0.8l0.3,0.5c-0.3,0.3-0.4,0.5-0.3,0.7l0,0l0.7,0.5l0.2,0.5
							c0.2,0.3,0.2,0.5,0.2,0.6l-0.6-1.2c-0.5,0.1-0.6-0.1-0.7-0.3c-0.1-0.2,0-0.5,0.2-0.6l-0.2-0.5c0-0.2,0-0.5,0.1-0.6h0l0.2-0.4
							c0.3,0.1,0.9,0.4,1.2,0.8c0.5,0.5,0.6,1.1,0.8,1.7c0.1,0.6,0.3,1.2,0.7,1.8L260.6,67.9L260.6,67.9z"/>
					</g>
					<path class="st13" d="M259.2,64.4c-0.1,0.1-0.1,0.1-0.3,0.2c-0.2,0.1-0.2,0.5,0.1,0.4c0.2,0,0.4-0.2,0.4-0.3
						C259.4,64.6,259.3,64.5,259.2,64.4L259.2,64.4z"/>
					<path class="st13" d="M258.2,63.6c-0.2,0.2-0.3,0.3-0.2,0.3c0.1,0,0.1,0,0,0.2c-0.1,0.2,0.2,0.2,0.3,0.1c0.1-0.1,0.1-0.2,0.2,0
						c0,0.1,0.3,0,0.4-0.1C258.8,63.9,258.5,63.7,258.2,63.6L258.2,63.6z"/>
					<path class="st13" d="M257.8,64.9c-0.3,0.2-0.2,1,0.3,0.8c0.2-0.1,0.3,0,0.3,0.1c0,0.1,0,0.1,0,0.2c0.2-0.1,0.4-0.2,0.5-0.4
						c0.3-0.3,0-0.3-0.4-0.3c-0.4,0-0.6-0.1-0.1-0.3c0.4-0.2,0.1-0.4-0.4-0.3C258,64.7,258,64.9,257.8,64.9L257.8,64.9z"/>
					<path class="st13" d="M259.6,66.8c-0.2-0.3-0.1-0.4,0.2-0.5c0.1,0,0.1-0.1,0.1-0.1c-0.1-0.3-0.1-0.5-0.2-0.8
						c-0.1,0-0.3,0.3-0.3,0.5c-0.1,0.2-0.1,0.3-0.3,0.3c-0.2-0.1-0.4,0.2-0.4,0.4c0,0,0.1,0,0.1,0c0.1,0,0.1,0.1,0.1,0.3
						c0.6,0,0.7,0.4,0.8,0.6c0.1,0.3,0.2,0.3,0.3,0.1C260,67.3,259.8,67,259.6,66.8L259.6,66.8z"/>
					<path class="st12" d="M259.8,70.1c-0.1,0.2-0.1,0.2-0.4,0.2c-0.3,0-0.7,0.1-0.9,0.3c-0.1,0.1-0.7,0.1-0.7,0.4
						c0,0.3,0,0.5,0.3,0.5c0.2,0,0.3,0,0.2,0.2c-0.1,0.2-0.2,0.5,0.3,0.5c0.4,0,0.8-0.1,0.9,0.1c0.1,0.3,0,0.7,0.1,0.8
						c0.1,0.2,0.4,0.2,0.8,0.4c0.3,0.1,1.5,0.1,1.8,0.1c0.4,0,0.2-0.3-0.1-0.3c-0.4,0-0.6-0.1-0.7-0.3c-0.1-0.3-0.2-0.4,0-0.6
						c0.2-0.2,0.4-0.4,0.3-0.8c-0.1-0.4-0.3-0.8-0.7-0.9c-0.4-0.1-0.3-0.7-0.7-0.7C259.9,70,259.8,70,259.8,70.1L259.8,70.1z"/>
					<path class="st13" d="M257.8,73.4c0.4,0,0.7,0.1,0.4,0.2c-0.3,0.1-0.5,0.2-0.1,0.3c0.4,0,0.7,0.2,0.4,0.3
						c-0.3,0.1-0.3,0.3,0,0.3c0.4,0,0.5,0.2,0.3,0.3c-0.3,0.1-0.4,0.2-0.6,0c-0.2-0.3-0.2-0.3-0.3-0.1c0,0.2-0.2,0.1-0.3-0.2
						c-0.1-0.3-0.3-0.4-0.3-0.1c0.1,0.2-0.2,0.3-0.5,0.1c0.3,0.3,0.6,0.5,0.9,0.7c0.4-0.1,0.8,0,1,0c0.2,0,0.6,0.1,0.9,0.3
						c0.3,0.1,0.4-0.1,0.3-0.4c-0.1-0.3-0.1-0.2-0.3,0c-0.1,0.2-0.2-0.1-0.2-0.4c0-0.3-0.2-0.2-0.2,0c-0.1,0.2-0.2-0.1-0.1-0.3
						c0.1-0.2,0-0.2-0.2-0.2c-0.1,0-0.2,0-0.2-0.3c0-0.3-0.2-0.3-0.2-0.1c0,0.1-0.2-0.1-0.4-0.3c-0.2-0.2-0.4-0.1-0.7,0
						C257.6,73.4,257.6,73.4,257.8,73.4L257.8,73.4z"/>
					<path class="st12" d="M261.5,75.4c-1.7,0.7-2.9,0.4-3.9-0.2c0.4-0.1,0.8,0,1,0c0.2,0,0.6,0.1,0.9,0.3c0.3,0.1,0.4-0.1,0.3-0.4
						c0.2,0.3,0.4,0.5,0.7,0.5C260.8,75.5,261.3,75.5,261.5,75.4L261.5,75.4z"/>
					<path class="st12" d="M257.9,67.5c-0.1-0.4-0.2-0.4-0.4-0.4c-0.2,0-0.3,0-0.5-0.1c-0.2-0.1-0.5,0-0.5,0.4
						c0,0.4-0.3,0.6-0.6,0.8c-0.3,0.2-0.5,0.4-0.5,0.8c0,0.4-0.1,0.5-0.3,0.8c-0.1,0.1-0.2,0.3-0.4,0.4c0.1,0.1,0.3,0.2,0.4,0.2
						c0.2,0.1,0.2,0.3-0.1,0.2c-0.2-0.1-0.5,0.1-0.1,0.2c0.4,0.1,0.5,0.3,0.2,0.2c-0.4,0-0.8,0.3-0.1,0.2c0.7-0.1,1,0.3,0.2,0.3
						c-0.8,0-0.5,0.3-0.1,0.3c0.8,0,0.6,0.2,0.4,0.2c-0.2,0-0.3,0.3,0.2,0.2l0,0c0.1-0.1,0.1-0.2,0.2-0.3c0.1-0.3,0.2-1,0.5-1.2
						c0.3-0.2,0.4-0.5,0.4-0.7c0-0.2,0.4-1.1,0.7-1.4C257.9,68.4,258,67.9,257.9,67.5L257.9,67.5z"/>
					<path class="st13" d="M257.3,67.5c-0.3-0.2-0.6-0.1-0.6,0.3c0,0.4-0.2,0.5-0.4,0.6c-0.3,0.1-0.5,0.4-0.5,0.7
						c0,0.3,0,0.5-0.2,0.7c-0.2,0.2-0.2,0.4-0.1,0.5c0.1,0.1,0.1,0.1,0.2,0.3c0.1,0.2,0.4,0,0.4-0.2c0-0.2,0.1-0.2,0.3-0.3
						c0.2-0.1,0.6-0.7,0.5-0.9c-0.1-0.2-0.3-0.3,0-0.5c0.3-0.2,0.6-0.3,0.6-0.5c0-0.2,0.1-0.3,0.2-0.4
						C257.8,67.8,257.5,67.7,257.3,67.5L257.3,67.5z"/>
					<path class="st8" d="M257.3,67.2c-0.2-0.1-0.3,0.3,0,0.4C257.5,67.7,257.6,67.3,257.3,67.2L257.3,67.2z"/>
					<path class="st8" d="M257.2,67.8c-0.2,0-0.4,0.3-0.1,0.2C257.5,68,257.6,67.7,257.2,67.8L257.2,67.8z"/>
					<path class="st8" d="M256.8,68.3c-0.2,0.1-0.2,0.4,0.1,0.2C257.3,68.3,257.4,68,256.8,68.3L256.8,68.3z"/>
					<path class="st8" d="M256.5,68.7c-0.2,0.1-0.2,0.4,0.1,0.2C256.9,68.7,257,68.4,256.5,68.7L256.5,68.7z"/>
					<path class="st8" d="M256,68.9c-0.2,0.1-0.1,0.4,0.2,0.2C256.6,68.9,256.6,68.6,256,68.9L256,68.9z"/>
					<path class="st8" d="M256.3,69.2c-0.2,0.1-0.1,0.4,0.2,0.2C256.9,69.1,256.9,68.9,256.3,69.2L256.3,69.2z"/>
					<path class="st8" d="M256,69.3c-0.2,0.1-0.1,0.4,0.2,0.2C256.5,69.3,256.5,69,256,69.3L256,69.3z"/>
					<path class="st8" d="M256.2,69.6c-0.2,0.1-0.1,0.4,0.2,0.2C256.7,69.6,256.7,69.3,256.2,69.6L256.2,69.6z"/>
					<path class="st8" d="M255.8,69.8c-0.2,0.1-0.1,0.4,0.2,0.2C256.4,69.7,256.4,69.5,255.8,69.8L255.8,69.8z"/>
					<path class="st8" d="M255.9,70c-0.2,0.1-0.1,0.4,0.2,0.2C256.4,70,256.4,69.8,255.9,70L255.9,70z"/>
					<path class="st13" d="M255.7,72.7c-0.2,0-0.4,0.3-0.1,0.4c0.3,0.1,0.3,0.1,0.3,0.3c0,0.2,0.1,0.5,0.4,0.5
						c0.3,0,0.5-0.3,0.3-0.4c-0.3-0.1-0.5-0.2-0.5-0.4C256.1,72.8,255.8,72.6,255.7,72.7L255.7,72.7z"/>
					<path class="st12" d="M263.4,70.9c0,0,0.1,0.1,0.1,0.1c0.2,0.2,0.6,0,0.5-0.1c0-0.1-0.3-0.6,0.2-0.2c0.5,0.4,2.3,1.6,2.9,2
						c0.6,0.4,0.2,0.5-0.1,0.3c-0.3-0.1-1-0.5-1.5-0.7c-0.5-0.3-0.5-0.2-0.6-0.1c-0.1,0.1,0,0.3,0.2,0.4c-0.3,0-0.7,0-0.9-0.3
						c-0.2-0.4-0.5-0.8-0.8-1.1C263.4,71,263.3,70.9,263.4,70.9L263.4,70.9z"/>
					<path class="st15" d="M278.9,122.2c-0.4,0.3-0.9,0.7-0.6,1.4c0,0,0.1,0,0.1-0.1c1.5-1.9,2.8-3.8,4-5.8c0-0.1,0-0.1,0-0.2
						c-0.4,0.4-1.1,0.8-1.4,0.8c0.2,0.5-0.7,1.2-1.2,1.3c0.2,0.3,0.1,0.8-0.3,0.9c0.1,0.3-0.2,0.3-0.6,0.4c-0.4,0.2-0.6,0.3-0.7,0.5
						c0.2-0.1,0.5-0.2,0.6-0.2c0.2,0,0.2,0.3-0.1,0.3c-0.3,0.1-0.5,0.2-0.6,0.3C278.7,121.8,279.3,121.9,278.9,122.2L278.9,122.2z"
						/>
					<path class="st8" d="M260.3,70.3c-0.5-0.4-0.6-0.2-0.4,0.1c0.2,0.3,0,0.4-0.4,0.4c-0.4,0.1-1,0.1-1.3,0.1c-0.3,0-0.5,0.3,0,0.3
						c0.6,0,1.6-0.2,1.9-0.3C260.5,70.8,260.7,70.6,260.3,70.3L260.3,70.3z"/>
					<g class="st8">
						<path d="M258.3,71.4l-0.4-0.3l0.4-0.2c0.2,0,0.8-0.1,1.2-0.1l0.4-0.1l-0.1-0.2l0.1-0.4c0.1,0,0.3,0.1,0.4,0.2l0.2,0.4
							c0,0.1-0.1,0.3-0.4,0.3C260,71.1,258.9,71.3,258.3,71.4L258.3,71.4L258.3,71.4z M260.3,70.4c-0.3,0.4-0.4,0.5-0.7,0.6
							c-0.4,0.1-1,0.1-1.3,0.1l0,0.2l0.1-0.1c0.6,0,1.6-0.2,1.8-0.3l0.3-0.2L260.3,70.4L260.3,70.4z"/>
					</g>
					<path class="st8" d="M261.2,71c-0.4-0.3-0.5-0.2-0.4,0c0.1,0.3-0.1,0.3-0.3,0.4c-0.3,0.1-1.2,0.4-1.7,0.5
						c-0.4,0.1-0.5,0.3,0.1,0.3c0.6,0,1.8-0.5,2-0.6c0.1-0.1,0.2-0.3,0.3-0.2C261.4,71.5,261.5,71.3,261.2,71L261.2,71z"/>
					<g class="st8">
						<path d="M258.9,72.2c-0.4,0-0.5-0.1-0.5-0.2l0-0.1l0.4-0.2c0.4,0,1.3-0.3,1.6-0.4l0.2-0.1l-0.1,0.2c-0.4,0.1-1.3,0.4-1.7,0.5
							L258.9,72.2l0-0.2c0.6,0,1.8-0.5,1.9-0.6l0.4-0.2l-0.4-0.4c0.2-0.1,0.3,0,0.4,0.1l0.2,0.4l-0.4,0.1
							C260.8,71.7,259.6,72.2,258.9,72.2L258.9,72.2L258.9,72.2z"/>
					</g>
					<path class="st8" d="M261.5,72c-0.3,0.2-1,0.5-1.3,0.6c-0.3,0.1-0.5,0.4,0.1,0.3c0.6,0,1.3-0.6,1.5-0.7
						c0.2-0.1,0.3-0.2,0.4-0.2c0.2,0,0.4-0.2-0.1-0.5c-0.5-0.3-0.8-0.1-0.6,0.1C261.9,71.8,261.7,71.9,261.5,72L261.5,72z"/>
					<g class="st8">
						<path d="M260.2,73l-0.3-0.2l0.4-0.3c0.3-0.1,1-0.4,1.2-0.5l0-0.5c0.4-0.1,0.6-0.1,0.8,0c0.3,0.2,0.4,0.3,0.3,0.4l-0.6,0.3
							c-0.5,0.4-1.1,0.7-1.6,0.8L260.2,73L260.2,73z M261.7,71.5l-0.1,0.6c-0.3,0.2-1,0.5-1.3,0.6l-0.1,0.3l0.1-0.1
							c0.5,0,1-0.4,1.3-0.6l0.6-0.3C262,71.5,261.8,71.5,261.7,71.5L261.7,71.5z"/>
					</g>
					<path class="st8" d="M256.6,64.1c-0.8-0.5-1.6,0.6-0.8,1.1C256.6,65.8,257.4,64.6,256.6,64.1L256.6,64.1z"/>
					<path class="st16" d="M255.7,64.6l0.2,0c0,0.2,0.2,0.6,0.5,0.5C256.2,65.3,255.6,65.1,255.7,64.6L255.7,64.6z"/>
					<path class="st16" d="M258.7,76c0.2,0.1,1,0.2,1.3,0.2c-0.1,0.3-0.3,0.5-0.3,0.7c-0.1,0.2-0.1,0.2-0.1-0.1
						c0-0.3-0.2-0.5-0.4-0.2c-0.2,0.3-0.2,0.5-0.3,0.6c-0.1,0.1-0.2,0.2-0.2-0.2C258.7,76.6,258.7,76.3,258.7,76L258.7,76z"/>
					<g class="st8">
						<path d="M260.3,136.3L260.3,136.3c-25.2-10-28.7-30.5-28.8-51.1h0.1c-0.2-3.3-0.1-6.4,0-9.5c0.1-4.1,0.2-7.9,0.1-11.5
							c10.8-4.9,24.6-5.3,28.6-5.3c4,0,17.8,0.4,28.5,5.1c0,3.7,0.1,7.5,0.2,11.6c0.1,3.1,0.1,6.2,0.1,9.5l-0.2,0.2
							C288.9,106,285.3,126.4,260.3,136.3L260.3,136.3L260.3,136.3z M231.6,85.3c0.2,20.4,3.7,40.8,28.6,50.7
							c24.9-9.9,28.4-30.2,28.5-50.7H231.6L231.6,85.3z M260.3,59.3c-4,0-17.7,0.4-28.4,5.1c0.2,3.4,0.1,7.3,0,11.3
							c-0.1,3.1-0.1,6.2-0.1,9.4l57-0.2c0-3.2-0.1-6.3-0.1-9.3c-0.1-4.1-0.2-7.9-0.1-11.5C278,59.7,264.2,59.3,260.3,59.3
							L260.3,59.3z"/>
					</g>
				</g>
			</g>
		</g>
	</g>
</g>
</svg>
