<?xml version="1.0" encoding="utf-8"?>
<!-- Generator: Adobe Illustrator 22.1.0, SVG Export Plug-In . SVG Version: 6.00 Build 0)  -->
<svg version="1.1" xmlns="http://www.w3.org/2000/svg" xmlns:xlink="http://www.w3.org/1999/xlink" x="0px" y="0px"
	 viewBox="0 0 300 300" style="enable-background:new 0 0 300 300;" xml:space="preserve">
<style type="text/css">
	.st0{clip-path:url(#SVGID_2_);}
	.st1{clip-path:url(#SVGID_2_);fill:#FFFFFF;}
	.st2{clip-path:url(#SVGID_4_);fill:#D03033;}
	.st3{clip-path:url(#SVGID_4_);fill:#FFFFFF;}
	.st4{clip-path:url(#SVGID_4_);fill:#1F189B;}
	.st5{clip-path:url(#SVGID_4_);}
	.st6{clip-path:url(#SVGID_4_);fill:#F2B126;}
	.st7{clip-path:url(#SVGID_4_);fill:#32784C;}
</style>
<g id="Layer_2">
</g>
<g id="Layer_1">
	<g>
		<defs>
			<rect id="SVGID_1_" y="-0.1" width="300" height="300"/>
		</defs>
		<clipPath id="SVGID_2_">
			<use xlink:href="#SVGID_1_"  style="overflow:visible;"/>
		</clipPath>
		<g id="Layer_2_1_" class="st0">
		</g>
		<rect x="-1" y="-0.7" class="st1" width="302" height="301.4"/>
		<g class="st0">
			<g>
				<defs>
					<rect id="SVGID_3_" x="-22" y="-0.7" width="516.7" height="301.4"/>
				</defs>
				<clipPath id="SVGID_4_">
					<use xlink:href="#SVGID_3_"  style="overflow:visible;"/>
				</clipPath>
				<polygon class="st2" points="68.6,-0.7 219.3,99.8 494.7,99.8 494.7,-0.7 				"/>
				<polygon class="st3" points="249.4,119.9 494.7,119.9 494.7,99.8 219.3,99.8 				"/>
				<polygon class="st3" points="219.3,200.2 494.7,200.2 494.7,180.1 249.4,180.1 				"/>
				<polygon class="st4" points="219.3,200.2 68.6,300.7 494.7,300.7 494.7,200.2 				"/>
				<polygon class="st5" points="-22,99.8 38.1,99.8 -22,59.7 				"/>
				<polygon class="st5" points="-22,99.8 -22,200.2 38.1,200.2 113.5,150 38.1,99.8 				"/>
				<polygon class="st5" points="-22,200.2 -22,240.3 38.1,200.2 				"/>
				<polygon class="st6" points="-22,59.7 113.5,150 -22,240.3 -22,264.5 149.7,150 -22,35.5 				"/>
				<polygon class="st7" points="-22,-0.7 -22,35.5 149.7,150 -22,264.5 -22,300.7 32.3,300.7 213.2,180.1 494.7,180.1 494.7,119.9 
					213.2,119.9 32.3,-0.7 				"/>
			</g>
		</g>
	</g>
</g>
</svg>
