<?xml version="1.0" encoding="utf-8"?>
<!-- Generator: Adobe Illustrator 22.1.0, SVG Export Plug-In . SVG Version: 6.00 Build 0)  -->
<svg version="1.1" xmlns="http://www.w3.org/2000/svg" xmlns:xlink="http://www.w3.org/1999/xlink" x="0px" y="0px"
	 viewBox="0 0 300 300" style="enable-background:new 0 0 300 300;" xml:space="preserve">
<style type="text/css">
	.st0{clip-path:url(#SVGID_2_);}
	.st1{clip-path:url(#SVGID_2_);fill:#120065;}
	.st2{clip-path:url(#SVGID_4_);fill:#120065;}
	.st3{clip-path:url(#SVGID_4_);}
	.st4{clip-path:url(#SVGID_6_);fill:#FFFFFF;}
	.st5{clip-path:url(#SVGID_6_);}
	.st6{clip-path:url(#SVGID_6_);fill:#F2C227;}
	.st7{clip-path:url(#SVGID_6_);fill:#F09B47;}
	.st8{clip-path:url(#SVGID_6_);fill:#F08D80;}
	.st9{clip-path:url(#SVGID_6_);fill:#F296DF;}
	.st10{clip-path:url(#SVGID_6_);fill:#44A82F;}
	.st11{clip-path:url(#SVGID_6_);fill:#DB0037;}
	.st12{clip-path:url(#SVGID_6_);fill-rule:evenodd;clip-rule:evenodd;fill:#AB582A;}
	.st13{fill:#F2C227;}
	.st14{clip-path:url(#SVGID_6_);fill-rule:evenodd;clip-rule:evenodd;fill:#120065;}
	.st15{clip-path:url(#SVGID_6_);fill:#BA0019;}
</style>
<g id="Layer_2">
</g>
<g id="Layer_1">
	<g>
		<defs>
			<rect id="SVGID_1_" y="-0.1" width="300" height="300"/>
		</defs>
		<clipPath id="SVGID_2_">
			<use xlink:href="#SVGID_1_"  style="overflow:visible;"/>
		</clipPath>
		<g id="Layer_2_1_" class="st0">
		</g>
		<rect x="-1" y="-0.7" class="st1" width="302" height="301.4"/>
		<g class="st0">
			<g>
				<defs>
					<rect id="SVGID_3_" width="349" height="203.6"/>
				</defs>
				<clipPath id="SVGID_4_">
					<use xlink:href="#SVGID_3_"  style="overflow:visible;"/>
				</clipPath>
				<rect class="st2" width="349" height="203.6"/>
				<g class="st3">
					<defs>
						<rect id="SVGID_5_" width="349" height="203.6"/>
					</defs>
					<clipPath id="SVGID_6_">
						<use xlink:href="#SVGID_5_"  style="overflow:visible;"/>
					</clipPath>
					<path class="st4" d="M293.4,68.8v24.8c0,20.3-8,39-31.7,50.3c-23.7-11.3-31.7-29.9-31.7-50.3V68.8H293.4z"/>
					<g class="st5">
						<path d="M261.7,144L261.7,144c-21.1-10.1-31.8-27-31.8-50.4V68.8l63.5-0.1l0.1,24.9C293.5,117,282.8,133.9,261.7,144
							L261.7,144L261.7,144z M293.3,68.8l-63.3,0.1l0.1,24.7c0,23.3,10.6,40.2,31.6,50.2c21-10,31.6-26.9,31.6-50.2V68.8L293.3,68.8
							z"/>
					</g>
					<path class="st6" d="M291.3,71.4v23.1c0,19-7.5,36.3-29.6,46.9c-22.1-10.6-29.5-27.9-29.5-46.9V71.4H291.3z"/>
					<g class="st5">
						<path d="M261.7,141.4L261.7,141.4c-19.7-9.4-29.6-25.2-29.6-47V71.4l59.2-0.1l0.1,23.2C291.4,116.2,281.4,132,261.7,141.4
							L261.7,141.4L261.7,141.4z M291.2,71.4l-59,0.1l0.1,23c0,21.7,9.9,37.4,29.5,46.8c19.6-9.4,29.5-25.1,29.5-46.8V71.4
							L291.2,71.4z"/>
					</g>
					<path class="st7" d="M248,81.5c-0.4-0.3-0.9-0.5-1.5-0.5c0.1-1.6-1-2.2-1.8-2.5c-0.8-0.3-1.1-0.6-1.2-1.3
						c-0.1-0.6-0.6-1-1.3-1.2c-0.7-0.2-1.4-1-1.7-1.3c-0.3-0.4-0.4-0.3-0.6,0.3c-0.2,0.6-1.1,1.7-0.3,1.8c-0.6,0.5-0.9,1-0.5,1.7
						c-0.4,0.3-0.7,0.8-0.1,1c0.5,0.2,0.7,0.3,0.7,0.5c-0.5,0-0.6,1,0.5,1.2c-0.2,0-0.4,0.8,0.1,0.8c-0.7,0-1.2,1-2,1
						c-0.8,0-1.2,0.2-1.3,0.5c0,0.4-0.5,0.8-0.7,1c0.6,0.1,1,0,1.3-0.3c0.3-0.2,0.9-0.3,1.2,0c0.4,0.3,1.1,0.4,1.5,0.4
						c-0.8,0.5-1.4,1.3-1.4,1.9c-0.1,0.7-0.5,1.5-1.1,1.7c-0.5,0.2-1.2,0.8-1.5,1.5c0.7,1.7,1.6,2.1,2.6,2.5
						c1.7,0.8,2.8,1.4,3.5,2.1c0.7,0.8,1,0.2,2.1,1.6c1.1,1.4,2.1,3.9,3.1,4.3c1.1,0.4,2.4,0.2,3.2-1.2
						C251.5,97.5,252,83.8,248,81.5L248,81.5z"/>
					<g class="st5">
						<path d="M248.5,100.2c-0.3,0-0.7-0.1-1-0.2c-0.7-0.3-1.3-1.4-2-2.5c-0.4-0.7-0.8-1.3-1.2-1.8c-0.6-0.8-1-0.9-1.3-1
							c-0.2-0.1-0.5-0.2-0.8-0.5c-0.7-0.8-1.8-1.3-3.5-2.1c-1-0.5-2-0.9-2.6-2.6c0.2-0.7,1-1.3,1.5-1.5c0.5-0.2,1-0.9,1-1.6
							c0.1-0.5,0.3-1,0.8-1.4c-0.4,0.5-0.7,1-0.7,1.4c-0.1,0.7-0.6,1.5-1.1,1.7c-0.5,0.2-1.2,0.8-1.5,1.4c0.7,1.6,1.6,2,2.5,2.5
							c1.8,0.8,2.9,1.4,3.6,2.2c0.3,0.3,0.5,0.4,0.8,0.5c0.3,0.1,0.7,0.3,1.3,1.1c0.4,0.5,0.8,1.2,1.2,1.8c0.6,1.1,1.3,2.2,2,2.5
							c1.1,0.5,2.5,0,3.2-1.2c0.6-1,0.9-8.5-0.3-13.3c-0.6-2.1-1.4-3.4-2.4-4c-0.5-0.4-0.9-0.5-1.5-0.5c0.1-1.5-0.9-2.2-1.8-2.5
							c-0.8-0.3-1.1-0.6-1.3-1.3c-0.1-0.6-0.5-1-1.3-1.2c-0.5-0.2-1.1-0.6-1.7-1.3c-0.4-0.2-0.4,0-0.5,0.3c-0.1,0.2-0.1,0.4-0.3,0.5
							c-0.1,0.3-0.3,0.6-0.3,0.8c0-0.3,0.1-0.5,0.3-0.8c0.1-0.2,0.2-0.4,0.3-0.5c0.1-0.4,0.2-0.6,0.4-0.6c0.9,0.9,1.4,1.4,2,1.5
							c0.8,0.2,1.2,0.6,1.3,1.3c0.1,0.7,0.4,0.9,1.2,1.2c0.8,0.3,2,0.9,1.8,2.6c0.5,0,1,0.1,1.5,0.5c1,0.6,1.8,2,2.4,4.1
							c1.3,4.9,1,12.3,0.3,13.3C250.2,99.7,249.4,100.2,248.5,100.2L248.5,100.2z M239.8,84.4c-0.4,0-0.9-0.1-1.1-0.3
							c-0.3-0.2-0.8-0.2-1.2,0c-0.3,0.2-0.5,0.3-0.9,0.3l-0.2,0c0.6,0,0.9-0.1,1.1-0.3c0.4-0.3,0.9-0.3,1.3,0
							c0.3,0.2,0.9,0.4,1.2,0.4C240,84.4,239.9,84.4,239.8,84.4L239.8,84.4z M236.3,84.3L236.3,84.3c0.2-0.3,0.5-0.7,0.6-1
							c0-0.4,0.5-0.6,1.3-0.6c0.4,0,0.8-0.3,1.1-0.5c0.3-0.2,0.5-0.4,0.8-0.4c-0.1,0-0.2-0.2-0.2-0.3c0-0.2,0.1-0.5,0.2-0.5
							c-0.7-0.1-0.9-0.5-0.9-0.8c0-0.2,0.2-0.4,0.4-0.4c-0.1-0.1-0.2-0.2-0.7-0.4l-0.3-0.3c0-0.2,0.1-0.5,0.4-0.7
							c-0.2-0.4-0.2-0.7,0-1.1c-0.1,0.4-0.1,0.7,0.1,1.1c-0.3,0.3-0.5,0.5-0.4,0.7c0.8,0.4,1,0.6,1,0.7c-0.2,0-0.3,0.2-0.3,0.4
							c0,0.3,0.2,0.7,0.9,0.8c-0.1,0.1-0.2,0.3-0.2,0.5c0,0.1,0.1,0.3,0.3,0.3c0,0,0,0-0.1,0c-0.3,0.1-0.5,0.3-0.8,0.5
							c-0.3,0.3-0.7,0.5-1.1,0.5c-0.8,0-1.2,0.2-1.2,0.5C236.9,83.7,236.4,84.1,236.3,84.3L236.3,84.3z"/>
					</g>
					<path class="st8" d="M249.8,75.8c-1,1.1-2.3,2.1-2.1,4.1c0.2,1.9,0.4,5.1-1.4,6.1c-1.8,1.1-2.6,3.8-0.5,5.3
						c2.1,1.6,2.2,3.5,2.6,5.3c0.4,1.8,1.3,3.2,2.7,2c1.4,0.2,2.2-0.4,2.2-1.5c0-1.1,0.1-1.8,1.1-2.1c1.1-0.4,1.4-0.7,1.9-1.7
						c0.5-1,0.8-1.4,0.5-2c-0.3-0.6-0.4-1.8-0.2-2.6c0.2-0.9-0.3-1.3-0.6-1.8c-0.3-0.5-0.4-1-0.3-1.7c0.1-0.7-0.2-1.2-0.7-1.5
						c-0.5-0.4-0.7-0.7-0.6-1.3c0.1-0.6-0.4-0.9-0.9-1.4c-0.5-0.4-0.9-1-0.9-1.9C252.7,78.3,251.1,76.3,249.8,75.8L249.8,75.8z"/>
					<g class="st5">
						<path d="M250.1,99.1c-0.8,0-1.4-0.9-1.7-2.5l-0.1-0.7c-0.3-1.6-0.6-3.2-2.4-4.6c-0.9-0.6-1.3-1.5-1.3-2.5
							c0.1-1.1,0.8-2.3,1.8-2.9c1.7-1,1.6-4,1.3-6.1c-0.2-1.7,0.8-2.8,1.7-3.7l0.3-0.3c1.4,0.5,3,2.5,3,3.4c0,0.7,0.3,1.3,0.9,1.8
							c0.6,0.5,1,0.8,0.9,1.4c-0.1,0.5,0.1,0.9,0.6,1.2c0.6,0.4,0.9,0.9,0.7,1.6c-0.1,0.7,0,1.2,0.2,1.7c0.5,0.7,0.8,1.2,0.6,1.9
							c-0.2,0.9-0.1,2,0.2,2.6c0.3,0.5,0.1,0.9-0.4,1.8c-0.6,1.2-0.9,1.6-2,1.9c-1.1,0.4-1.1,1-1.1,2.1c0,0.5-0.1,0.9-0.4,1.2
							c-0.4,0.4-1,0.5-1.8,0.4C250.8,98.9,250.5,99.1,250.1,99.1L250.1,99.1z M249.8,75.8l-0.3,0.3c-0.9,1-1.9,2-1.7,3.7
							c0.2,2.2,0.4,5.1-1.4,6.2c-1,0.6-1.7,1.7-1.7,2.8c0,0.7,0.2,1.7,1.2,2.5c1.9,1.4,2.2,3,2.4,4.6l0.1,0.7c0.4,2.1,1.5,3,2.7,2
							c0.9,0.1,1.4,0,1.8-0.4c0.3-0.3,0.4-0.6,0.4-1.1c0-1.1,0.1-1.8,1.2-2.2c1.1-0.4,1.3-0.7,1.8-1.7c0.5-1,0.7-1.4,0.5-1.9
							c-0.3-0.5-0.4-1.7-0.2-2.6c0.2-0.7-0.1-1.1-0.4-1.5c-0.5-0.8-0.6-1.3-0.5-2.1c0.1-0.6-0.1-1.1-0.7-1.5
							c-0.5-0.4-0.7-0.8-0.6-1.3c0.1-0.5-0.3-0.9-0.8-1.3c-0.7-0.5-1-1.1-1-1.9C252.7,78.3,251.1,76.3,249.8,75.8L249.8,75.8z"/>
					</g>
					<path class="st9" d="M250.2,99.1c2.4-0.6,2.2-4.5,1.8-6.2c-0.4-1.6-1.3-4-0.6-5.8c1-2.6-1.2-5.1-0.6-6.1c0.6-1,0.5-1.5,0.4-1.9
						c-0.1-0.3-0.6-0.6-0.6,0.1c0,0.7-0.2,0.9-0.6,1.4c-0.4,0.4-0.3,1.4,0,2.4c0.3,1,1,2.6-0.1,4.7c-1.1,2.1-0.6,3-0.2,4
						C250.3,93,251.8,98.2,250.2,99.1L250.2,99.1z"/>
					<g class="st5">
						<path d="M249.9,99.2l0.3-0.2c1.6-0.8,0-6.1-0.6-7.5c-0.4-1-0.8-2,0.2-4c1-1.9,0.5-3.3,0.2-4.4c-0.5-1.5-0.5-2.3-0.1-2.7
							c0.4-0.4,0.6-0.7,0.6-1.3c0-0.4,0.2-0.5,0.3-0.5c0.2,0,0.4,0.2,0.4,0.4c0.1,0.4,0.1,0.9-0.4,1.9c-0.2,0.4,0,1,0.3,1.9
							c0.4,1.2,1,2.7,0.4,4.3c-0.6,1.5-0.1,3.3,0.3,4.8c0.1,0.4,0.2,0.7,0.3,1.1c0.3,1.5,0.6,5.6-1.8,6.2L249.9,99.2L249.9,99.2z
							 M250.9,78.8C250.9,78.8,250.9,78.8,250.9,78.8c-0.2,0-0.2,0.2-0.2,0.4c0,0.7-0.2,0.9-0.7,1.4c-0.4,0.4-0.4,1.2,0,2.4
							c0.4,1.3,0.9,2.8-0.1,4.7c-1,2-0.7,2.9-0.2,3.9c0.6,1.4,2.1,6.3,0.8,7.5c2.2-0.8,1.9-4.6,1.5-6c-0.1-0.3-0.2-0.7-0.3-1.1
							c-0.4-1.5-0.9-3.3-0.3-4.8c0.6-1.5,0.1-3-0.4-4.2c-0.3-0.8-0.5-1.5-0.3-1.9c0.6-1,0.5-1.6,0.4-1.8
							C251.2,78.9,251,78.8,250.9,78.8L250.9,78.8z M239,91.3c-0.1,0-0.1,0-0.2,0l0-0.1c0.3,0.1,0.5-0.1,0.7-0.4
							c0.1-0.3,0.2-0.4,0.6-0.5c0.4,0,0.9-0.1,1-0.4c0.5-0.3,0.7-0.3,0.9-0.8c0.5-1,0.8-1.7,1.6-2c-0.8,0.3-1.1,1-1.4,1.6
							c-0.4,0.8-0.7,0.9-0.9,1c-0.4,0.5-1.2,0.6-1.3,0.6c-0.3,0-0.4,0.2-0.5,0.4C239.5,91.1,239.3,91.3,239,91.3L239,91.3z
							 M240.2,84.4L240.2,84.4c0.2-0.3,0.6-0.5,0.9-0.7c0.5-0.2,0.9-0.5,1.1-0.7c-0.1,0.3-0.6,0.6-1,0.8
							C240.9,84,240.5,84.2,240.2,84.4L240.2,84.4z M241.7,82c-0.2,0-0.3,0-0.6,0c-0.3,0-0.6-0.1-0.9-0.1l0-0.1c0.3,0,0.6,0,0.9,0
							c0.4,0,0.9,0.1,0.9,0C242,81.9,241.9,82,241.7,82L241.7,82z M244.6,81.9c0.2-0.5,0.7-1,1.8-1V81
							C245.3,81,244.8,81.5,244.6,81.9L244.6,81.9z M244.1,81.5c0.1-0.3,0-0.4-0.2-0.6c-0.1-0.2-0.3-0.4-0.2-0.9
							c0.2-0.7,0.2-0.8-0.4-1c-0.3-0.1-0.3-0.3-0.3-0.6c0-0.3,0-0.6-0.4-0.9c-0.2-0.1-0.2-0.3-0.3-0.5c-0.1-0.3-0.1-0.5-0.7-0.7
							l0-0.1c0.6,0.2,0.6,0.5,0.7,0.7c0,0.2,0.1,0.3,0.3,0.4c0.4,0.3,0.4,0.7,0.4,1c0,0.3,0,0.4,0.3,0.5c0.7,0.2,0.7,0.3,0.5,1
							c-0.1,0.4,0.1,0.6,0.2,0.8C244.1,81,244.2,81.2,244.1,81.5L244.1,81.5z"/>
					</g>
					<path class="st10" d="M267.1,106.8c0.4,0.6,0,1.2,0.7,1.5c0.8,0.3,0.1,1.4,1,1.7c0.8,0.3,0,1.3,0.9,1.8
						c0.8,0.4-0.1,1.4,0.9,1.9c1.1,0.5-0.2,1.8,0.6,2.2c0.8,0.5-0.3,1.7,0.7,2.2c0.9,0.5-0.4,1.4,0.5,2.1c0.9,0.7-0.2,1.7,0.7,2.3
						c0.9,0.6-0.5,1.4,0.3,2.3c0.7,0.7-0.2,1.3,0.3,2.4c0.3,0.7-0.3,3.4-2.2,3.1c-0.7,1.1-3.3,2.2-4.3,1.8c-1,0.7-4,1.6-5.5,0.1
						c-1.6,1.5-4.6,0.5-5.5-0.1c-1,0.3-3.6-0.7-4.3-1.8c-1.9,0.3-2.6-2.4-2.2-3.1c0.5-1-0.4-1.7,0.3-2.4c0.9-0.9-0.5-1.7,0.3-2.3
						c0.9-0.6-0.2-1.6,0.7-2.3c0.9-0.7-0.5-1.6,0.5-2.1c0.9-0.5-0.1-1.7,0.7-2.2c0.8-0.5-0.5-1.7,0.6-2.2c1.1-0.5,0.1-1.5,0.9-1.9
						c0.9-0.5,0.1-1.5,0.9-1.8c0.9-0.4,0.2-1.4,1-1.7c0.7-0.3,0.3-0.9,0.7-1.5C258.3,107.6,264.6,108.1,267.1,106.8L267.1,106.8z"/>
					<g class="st5">
						<path d="M264,133c-1,0-1.8-0.3-2.3-0.8c-1.2,1.2-4.4,0.7-5.5-0.1c-0.5,0.3-2.6-0.3-3.6-1.2c1.2,0.8,3,1.4,3.6,1.1
							c1,0.7,4.2,1.4,5.5,0.1c1.4,1.2,4.5,0.6,5.6-0.1c1.2,0.3,3.6-0.7,4.2-1.8l0,0c1.1,0,1.6-0.5,1.8-1c0.5-0.7,0.6-1.7,0.4-2.1
							c-0.3-0.5-0.2-0.9-0.1-1.3c0.1-0.4,0.1-0.7-0.2-1c-0.5-0.5-0.3-0.9-0.2-1.3c0.1-0.4,0.2-0.7-0.2-1c-0.5-0.3-0.4-0.7-0.4-1.2
							c0.1-0.4,0.1-0.8-0.3-1.1c-0.5-0.4-0.3-0.8-0.2-1.2c0.1-0.4,0.2-0.7-0.2-0.9c-0.5-0.3-0.5-0.7-0.4-1.2c0-0.4,0.1-0.8-0.3-1
							c-0.4-0.2-0.3-0.6-0.2-1c0.1-0.5,0.2-0.9-0.4-1.2c-0.6-0.3-0.6-0.7-0.6-1.1c0-0.3,0-0.6-0.3-0.8c-0.5-0.2-0.5-0.6-0.5-1
							c0-0.3,0-0.6-0.4-0.8c-0.5-0.2-0.6-0.6-0.6-1c0-0.3-0.1-0.6-0.4-0.8c-0.4-0.2-0.4-0.5-0.5-0.8c0-0.2,0-0.5-0.2-0.7
							c-1.2,0.7-3.3,0.8-4.7,0.8h0c-2.3,0-4.8-0.3-6.1-0.8c-0.1,0.2-0.2,0.5-0.2,0.7c0,0.3-0.1,0.6-0.5,0.8
							c-0.4,0.1-0.4,0.4-0.4,0.8c0,0.4-0.1,0.8-0.6,1c-0.4,0.1-0.4,0.4-0.4,0.8c0,0.3,0,0.8-0.5,1c-0.4,0.2-0.4,0.5-0.4,0.8
							c0,0.4,0,0.8-0.6,1.1c-0.6,0.3-0.5,0.7-0.4,1.2c0.1,0.4,0.2,0.8-0.2,1c-0.4,0.2-0.3,0.6-0.3,1c0.1,0.4,0.1,0.9-0.4,1.2
							c-0.4,0.2-0.4,0.5-0.2,0.9c0.1,0.4,0.2,0.8-0.2,1.2c-0.4,0.3-0.4,0.7-0.3,1.1c0.1,0.4,0.1,0.8-0.4,1.2c-0.4,0.3-0.3,0.6-0.2,1
							c0.1,0.4,0.3,0.8-0.2,1.3c-0.3,0.3-0.3,0.7-0.2,1c0.1,0.4,0.2,0.8-0.1,1.3c-0.2,0.4-0.1,1.4,0.4,2.1c0.3,0.4,0.8,1,1.5,1
							c0,0,0,0,0,0c-0.9,0-1.4-0.5-1.6-1c-0.5-0.8-0.6-1.8-0.4-2.2c0.2-0.5,0.2-0.9,0.1-1.3c-0.1-0.4-0.2-0.8,0.2-1.1
							c0.4-0.4,0.3-0.8,0.2-1.2c-0.1-0.4-0.3-0.8,0.2-1.1c0.4-0.3,0.4-0.7,0.3-1.1c-0.1-0.4-0.1-0.9,0.3-1.2
							c0.4-0.3,0.3-0.7,0.2-1.1c-0.1-0.4-0.2-0.8,0.3-1c0.5-0.2,0.4-0.6,0.4-1.1c-0.1-0.4-0.1-0.8,0.3-1.1c0.4-0.2,0.3-0.6,0.2-1
							c-0.1-0.5-0.2-1,0.4-1.3c0.6-0.3,0.6-0.7,0.6-1c0-0.3,0-0.7,0.4-0.9c0.4-0.2,0.5-0.6,0.5-0.9c0-0.3,0-0.7,0.5-0.9
							c0.5-0.2,0.5-0.5,0.6-0.9c0-0.3,0.1-0.7,0.5-0.8c0.4-0.1,0.4-0.4,0.4-0.7c0-0.2,0-0.5,0.2-0.8c1.3,0.5,3.8,0.8,6.1,0.8
							c1.5,0,3.5-0.1,4.7-0.8c0.2,0.3,0.2,0.5,0.3,0.8c0,0.3,0.1,0.6,0.4,0.7c0.4,0.2,0.4,0.5,0.5,0.8c0,0.4,0.1,0.7,0.6,0.9
							c0.4,0.2,0.4,0.5,0.4,0.9c0,0.4,0,0.7,0.5,0.9c0.4,0.2,0.4,0.5,0.4,0.9c0,0.4,0,0.8,0.6,1c0.6,0.3,0.5,0.8,0.4,1.3
							c-0.1,0.4-0.2,0.8,0.2,1c0.4,0.2,0.4,0.7,0.3,1.1c-0.1,0.4-0.1,0.9,0.4,1.1c0.5,0.3,0.4,0.6,0.3,1c-0.1,0.4-0.2,0.8,0.2,1.1
							c0.5,0.4,0.4,0.8,0.4,1.2c-0.1,0.4-0.1,0.8,0.3,1.1c0.5,0.3,0.3,0.7,0.2,1.1c-0.1,0.4-0.3,0.8,0.1,1.2
							c0.4,0.4,0.3,0.7,0.2,1.1c-0.1,0.4-0.2,0.8,0.1,1.3c0.2,0.4,0.1,1.4-0.4,2.2c-0.3,0.5-0.8,1-1.6,1c-0.9,1.1-3.6,2.1-4.5,1.8
							C266.6,132.6,265.3,133,264,133L264,133z"/>
					</g>
					<path class="st6" d="M257.1,110.4c0,0.3,0,0.6-0.3,1c-0.6,0.8,0.3,1.2-0.4,2.1c-0.7,0.9,0.1,1.4-0.6,2.2
						c-0.7,0.7,0.1,1.4-0.6,2.2c-0.7,0.8,0.1,1.4-0.6,2.1c-0.7,0.7,0.1,1.6-0.6,2.3c-0.7,0.7,0.1,1.7-0.7,2.6
						c-0.8,0.9,0.1,1.6-0.5,2.2c-0.7,0.7-0.1,1.4-0.5,1.8c0.8-0.6,0.8-1.6,1.4-2c0.6-0.5-0.2-1.1,0.1-1.5c0.3-0.3,0.1-1.8,0.7-2.4
						c0.6-0.7,0.1-2,0.6-2.5c0.5-0.5,0.1-1.9,0.8-2.4c0.7-0.5,0-1.6,0.5-2.2c0.5-0.6,0-1.6,0.5-2.3c0.5-0.7,0-1.4,0.4-2
						C257.6,111.2,257.6,109.2,257.1,110.4L257.1,110.4z"/>
					<g class="st5">
						<path d="M252.3,128.9L252.3,128.9c0.2-0.3,0.1-0.5,0.1-0.8c0-0.3,0-0.7,0.4-1.1c0.3-0.3,0.3-0.6,0.2-1c0-0.4-0.1-0.8,0.3-1.3
							c0.4-0.4,0.4-0.9,0.4-1.3c0-0.4-0.1-0.9,0.3-1.2c0.4-0.4,0.3-0.7,0.3-1.1c0-0.4-0.1-0.8,0.3-1.2c0.4-0.4,0.3-0.7,0.3-1
							c0-0.3-0.1-0.7,0.3-1.1c0.4-0.4,0.3-0.8,0.3-1.1c0-0.4-0.1-0.7,0.3-1.1c0.4-0.4,0.3-0.7,0.3-1c0-0.3-0.1-0.7,0.3-1.1
							c0.3-0.4,0.3-0.7,0.2-1.1c-0.1-0.3-0.1-0.6,0.2-1c0.3-0.4,0.3-0.7,0.3-1v0l0.3-0.3c0.2,0.3,0.2,1.3,0.1,1.5
							c-0.2,0.3-0.2,0.6-0.1,0.9c0,0.4,0,0.8-0.3,1.2c-0.3,0.4-0.3,0.8-0.3,1.2c0,0.4,0,0.8-0.3,1.1c-0.2,0.3-0.2,0.7-0.2,1.1
							c0,0.4,0,0.9-0.3,1.2c-0.3,0.2-0.4,0.7-0.5,1.2c0,0.5-0.1,0.9-0.4,1.1c-0.3,0.2-0.3,0.6-0.3,1.1c0,0.5,0,1-0.3,1.4
							c-0.3,0.4-0.4,1-0.4,1.5c0,0.4-0.1,0.8-0.2,0.9c-0.1,0.1-0.1,0.3,0,0.5c0.1,0.3,0.2,0.7-0.1,0.9c-0.3,0.2-0.4,0.5-0.6,0.9
							C252.9,128.1,252.7,128.5,252.3,128.9L252.3,128.9z M257.4,110.1c-0.2,0.6-0.2,0.9-0.5,1.3c-0.3,0.4-0.2,0.7-0.2,1
							c0.1,0.3,0.1,0.7-0.2,1.1c-0.3,0.4-0.3,0.8-0.3,1.1c0,0.4,0,0.7-0.3,1.1c-0.4,0.4-0.3,0.7-0.3,1.1c0,0.4,0.1,0.8-0.3,1.2
							c-0.4,0.4-0.3,0.7-0.3,1c0,0.3,0.1,0.7-0.3,1c-0.4,0.4-0.3,0.7-0.3,1.1c0,0.4,0.1,0.8-0.3,1.2c-0.4,0.3-0.3,0.7-0.3,1.2
							c0,0.5,0.1,0.9-0.4,1.4c-0.4,0.4-0.4,0.8-0.3,1.2c0.1,0.4,0.1,0.7-0.2,1c-0.4,0.4-0.3,0.7-0.3,1c0,0.2,0,0.4-0.1,0.5
							c0.3-0.3,0.5-0.6,0.6-1c0.2-0.3,0.3-0.7,0.6-0.9c0.3-0.3,0.2-0.6,0.1-0.9c-0.1-0.2-0.2-0.5,0-0.6c0.1-0.1,0.2-0.5,0.2-0.9
							c0.1-0.5,0.1-1.2,0.5-1.6c0.3-0.3,0.3-0.9,0.3-1.3c0-0.5,0-0.9,0.3-1.2c0.2-0.2,0.3-0.6,0.3-1.1c0.1-0.5,0.1-1,0.5-1.3
							c0.3-0.2,0.3-0.7,0.3-1.1c0-0.4,0-0.8,0.2-1.1c0.3-0.3,0.3-0.7,0.3-1.1c0-0.4,0-0.8,0.3-1.2c0.3-0.4,0.3-0.8,0.3-1.1
							c0-0.3,0-0.6,0.2-0.9C257.5,111.3,257.5,110.3,257.4,110.1L257.4,110.1z"/>
					</g>
					<path class="st6" d="M259.1,111.2c-0.5,0.9,0.3,1.1-0.3,2c-0.6,0.9,0.3,1.6-0.3,2.4c-0.7,0.9,0.3,1.4-0.3,2.2
						c-0.6,0.9,0.3,1.4-0.3,2c-0.5,0.7,0.4,1.4-0.3,2.2c-0.7,0.8,0.3,1.4-0.3,2.2c-0.5,0.7,0.2,1.6-0.3,2.2
						c-0.5,0.6,0.3,1.5-0.3,2.3c-0.7,0.8,0.1,1.4-0.3,1.9c0.8-0.3,0.5-1.4,0.8-1.6s-0.1-1.8,0.4-2.2c0.5-0.4-0.3-1.7,0.1-2.2
						c0.7-0.9,0.1-1.5,0.5-2.2c0.4-0.7-0.2-1.6,0.2-2.1c0.6-0.8-0.3-1.5,0.2-2.1c0.6-0.8-0.1-1.5,0.3-2.1c0.6-0.8-0.1-1.7,0.2-2.1
						C259.5,113.4,259.9,111.5,259.1,111.2L259.1,111.2z"/>
					<g class="st5">
						<path d="M256.4,130.6l0.1-0.1c0.2-0.2,0.1-0.4,0-0.7c-0.1-0.3-0.2-0.7,0.2-1.2c0.4-0.4,0.3-0.9,0.2-1.3
							c-0.1-0.4-0.1-0.7,0.1-1c0.2-0.3,0.2-0.6,0.1-1c-0.1-0.4-0.1-0.8,0.2-1.2c0.3-0.3,0.2-0.6,0.1-1c-0.1-0.4-0.2-0.8,0.2-1.2
							c0.3-0.4,0.3-0.8,0.2-1.2c-0.1-0.3-0.2-0.7,0.1-1c0.3-0.3,0.2-0.6,0.1-0.9c-0.1-0.3-0.2-0.7,0.2-1.2c0.3-0.4,0.2-0.7,0.1-1.1
							c-0.1-0.4-0.2-0.7,0.2-1.2c0.3-0.4,0.3-0.8,0.2-1.2c-0.1-0.4-0.2-0.8,0.2-1.2c0.3-0.4,0.2-0.7,0.2-1c-0.1-0.3-0.1-0.5,0.1-1
							c0.2,0.1,0.4,0.2,0.5,0.4c0.2,0.7-0.1,1.9-0.3,2.2c-0.1,0.2-0.1,0.4,0,0.7c0.1,0.4,0.2,1-0.2,1.5c-0.2,0.2-0.1,0.5-0.1,0.8
							c0.1,0.4,0.1,0.8-0.2,1.3c-0.2,0.3-0.1,0.5,0,0.9c0.1,0.4,0.2,0.8-0.1,1.2c-0.1,0.2-0.1,0.5-0.1,0.9c0.1,0.4,0.1,0.8-0.1,1.2
							c-0.2,0.3-0.2,0.6-0.2,0.9c0,0.4,0,0.8-0.4,1.4c-0.2,0.3-0.1,0.7,0,1.1c0.1,0.4,0.2,0.9-0.1,1.1c-0.3,0.2-0.2,0.8-0.2,1.3
							c0,0.4,0,0.8-0.1,0.9c-0.1,0.1-0.1,0.3-0.2,0.5c-0.1,0.4-0.1,0.9-0.7,1.1L256.4,130.6L256.4,130.6z M259.1,111.2
							c-0.2,0.4-0.1,0.6,0,0.9c0.1,0.3,0.2,0.6-0.2,1c-0.3,0.4-0.2,0.8-0.1,1.2c0.1,0.4,0.2,0.8-0.2,1.3c-0.3,0.4-0.2,0.8-0.2,1.1
							c0.1,0.3,0.2,0.7-0.1,1.1c-0.3,0.4-0.2,0.8-0.2,1.1c0.1,0.3,0.2,0.6-0.1,0.9c-0.2,0.3-0.2,0.6-0.1,0.9
							c0.1,0.4,0.2,0.8-0.2,1.2c-0.3,0.4-0.3,0.8-0.2,1.1c0.1,0.3,0.2,0.7-0.1,1c-0.3,0.4-0.2,0.8-0.1,1.1c0.1,0.4,0.1,0.7-0.1,1
							c-0.2,0.3-0.2,0.6-0.1,0.9c0.1,0.4,0.1,0.9-0.2,1.4c-0.4,0.4-0.3,0.8-0.2,1.1c0.1,0.2,0.1,0.4,0,0.7c0.4-0.2,0.5-0.6,0.5-1
							c0-0.3,0.1-0.5,0.2-0.6c0.1-0.1,0.1-0.5,0.1-0.8c0-0.5,0-1.1,0.3-1.4c0.2-0.2,0.1-0.6,0.1-1c-0.1-0.4-0.2-0.9,0.1-1.2
							c0.4-0.5,0.4-0.9,0.4-1.3c0-0.3,0-0.6,0.2-0.9c0.2-0.4,0.2-0.8,0.1-1.2c-0.1-0.3-0.1-0.7,0.1-0.9c0.3-0.4,0.2-0.8,0.1-1.2
							c-0.1-0.3-0.2-0.6,0.1-0.9c0.3-0.4,0.3-0.9,0.2-1.2c-0.1-0.3-0.1-0.6,0.1-0.9c0.4-0.5,0.3-1,0.2-1.4c-0.1-0.3-0.1-0.5,0-0.7
							c0.2-0.3,0.5-1.5,0.3-2.2C259.4,111.4,259.2,111.3,259.1,111.2L259.1,111.2z"/>
					</g>
					<path class="st6" d="M261.7,111.9c-0.5,1.2,0.3,1.6,0.1,2.6c-0.3,0.9,0.3,1.6-0.1,2.7c-0.4,1,0.5,1.8,0,3.1
						c-0.5,1.3,0.4,1.7,0,3c-0.4,1.5,0.7,2.3,0,3.4c-0.7,1.1,0.8,1.4,0.1,2.6c-0.3,0.5,0,1.9,0.6,0.3c0.5-1.7-0.4-1.9,0.1-2.5
						c0.5-0.7-0.2-2.5,0-3.4c0.2-0.9-0.5-2.2,0-3.2c0.4-1-0.7-2.1-0.2-3c0.4-0.9-0.2-2,0.2-2.7c0.4-0.7-0.3-1.7-0.1-2.1
						C262.4,112.3,262.1,110.8,261.7,111.9L261.7,111.9z"/>
					<g class="st5">
						<path d="M261.9,130.4l-0.2-0.1c-0.1-0.2-0.1-0.7,0-1c0.3-0.5,0.2-0.9,0-1.3c-0.2-0.4-0.4-0.7,0-1.3c0.3-0.5,0.2-1,0.1-1.6
							c-0.1-0.5-0.3-1.1-0.1-1.8c0.2-0.6,0.1-1,0-1.4c-0.1-0.4-0.2-0.9,0-1.6c0.3-0.7,0.2-1.2,0-1.8c-0.1-0.5-0.2-0.9,0-1.4
							c0.2-0.5,0.1-1,0.1-1.4c-0.1-0.4-0.1-0.8,0-1.2c0.1-0.4,0-0.7-0.1-1.1c-0.1-0.4-0.3-0.9,0-1.5c0.1-0.3,0.2-0.4,0.3-0.4
							c0.3,0.3,0.4,1,0.3,1.2c-0.1,0.1,0,0.4,0.1,0.7c0.1,0.4,0.3,0.9,0,1.4c-0.2,0.3-0.1,0.8-0.1,1.2c0.1,0.5,0.1,1-0.1,1.5
							c-0.2,0.4-0.1,0.9,0.1,1.4c0.2,0.5,0.4,1.1,0.1,1.6c-0.2,0.6-0.1,1.2,0,1.8c0.1,0.5,0.2,1,0.1,1.4c-0.1,0.4,0,1,0.1,1.5
							c0.1,0.7,0.2,1.5-0.1,1.9c-0.2,0.3-0.1,0.5,0,0.8c0.1,0.4,0.3,0.8,0,1.8C262.2,130.1,262,130.4,261.9,130.4L261.9,130.4z
							 M262,111.6c-0.1,0-0.2,0.1-0.2,0.4c-0.3,0.6-0.1,1.1,0,1.5c0.1,0.3,0.2,0.7,0.1,1.1c-0.1,0.4-0.1,0.8,0,1.2
							c0.1,0.5,0.1,0.9-0.1,1.5c-0.2,0.5-0.1,0.9,0,1.3c0.1,0.5,0.3,1.1,0,1.8c-0.3,0.7-0.2,1.1,0,1.6c0.1,0.4,0.2,0.8,0,1.4
							c-0.2,0.7,0,1.3,0.1,1.8c0.2,0.6,0.3,1.1-0.1,1.6c-0.3,0.5-0.1,0.9,0,1.2c0.2,0.4,0.4,0.8,0,1.4c-0.2,0.3-0.2,0.7,0,0.9
							l0.1,0.1c0.1,0,0.2-0.1,0.4-0.8c0.3-0.9,0.1-1.4,0-1.7c-0.1-0.3-0.2-0.5,0.1-0.8c0.3-0.4,0.2-1.1,0.1-1.8
							c-0.1-0.6-0.1-1.1-0.1-1.5c0.1-0.4,0-0.9-0.1-1.4c-0.1-0.6-0.2-1.3,0-1.9c0.2-0.5,0-1-0.1-1.5c-0.2-0.5-0.3-1-0.1-1.4
							c0.2-0.4,0.2-0.9,0.1-1.4c-0.1-0.5-0.1-0.9,0.1-1.3c0.2-0.4,0.1-0.9,0-1.3c-0.1-0.3-0.2-0.6-0.1-0.7c0.1-0.2,0-0.8-0.1-1
							C262.1,111.6,262,111.6,262,111.6L262,111.6z"/>
					</g>
					<path class="st11" d="M266.8,107.6c0-7.6-1.1-10.3-5.1-10.3c-4,0-5.1,2.6-5.1,10.3H266.8z"/>
					<g class="st5">
						<path d="M261.7,132.2c0.1-0.6,0-1-0.1-1.4c-0.1-0.4-0.2-0.9,0.1-1.5c0.3-0.6,0.1-0.9-0.1-1.3c-0.2-0.4-0.3-0.7,0-1.3
							c0.3-0.5,0.2-1,0.1-1.6c-0.1-0.5-0.3-1.1-0.1-1.8c0.2-0.6,0.1-1,0-1.4c-0.1-0.5-0.2-0.9,0-1.6c0.3-0.7,0.2-1.2,0-1.8
							c-0.1-0.5-0.2-0.9,0-1.4c0.2-0.5,0.1-1,0.1-1.4c-0.1-0.4-0.1-0.8,0-1.2c0.1-0.4,0-0.7-0.1-1.1c-0.1-0.4-0.3-0.9,0-1.5
							c0.2-0.6,0.2-1.2,0-1.9c-0.1-0.6-0.2-1.3,0-2l0.1,0c-0.2,0.7-0.1,1.3,0,1.9c0.1,0.7,0.2,1.3,0,1.9c-0.3,0.6-0.1,1.1,0,1.5
							c0.1,0.3,0.2,0.7,0.1,1.1c-0.1,0.4-0.1,0.8,0,1.2c0.1,0.5,0.1,0.9-0.1,1.5c-0.2,0.5-0.1,0.9,0,1.3c0.1,0.5,0.3,1.1,0,1.8
							c-0.3,0.7-0.2,1.1,0,1.6c0.1,0.4,0.2,0.8,0,1.4c-0.2,0.7,0,1.3,0.1,1.8c0.2,0.6,0.3,1.1-0.1,1.6c-0.3,0.5-0.2,0.9,0,1.2
							c0.2,0.3,0.3,0.7,0.1,1.4c-0.3,0.6-0.2,1-0.1,1.5C261.8,131.2,261.9,131.6,261.7,132.2L261.7,132.2z M267.5,131.9
							c0-0.3-0.3-0.9-0.6-1.3c-0.2-0.3-0.1-0.5-0.1-0.8c0.1-0.3,0.2-0.7-0.2-1.1c-0.4-0.5-0.3-0.9-0.2-1.4c0.1-0.3,0.1-0.7-0.1-0.9
							c-0.2-0.3-0.2-0.7-0.1-1c0.1-0.4,0.1-0.8-0.1-1.1c-0.3-0.4-0.2-0.7-0.1-1c0.1-0.4,0.2-0.7-0.2-1.1c-0.4-0.4-0.3-0.9-0.2-1.2
							c0.1-0.3,0.2-0.6-0.1-0.9c-0.3-0.3-0.2-0.6-0.1-0.9c0.1-0.3,0.2-0.7-0.1-1.1c-0.3-0.4-0.2-0.8-0.1-1.1
							c0.1-0.3,0.2-0.7-0.1-1.1c-0.4-0.5-0.3-0.9-0.2-1.3c0.1-0.4,0.1-0.7-0.1-1.2c-0.3-0.5-0.3-0.8-0.2-1c0.1-0.3,0.1-0.5-0.1-0.9
							c-0.2-0.4-0.1-0.7-0.1-1c0.1-0.3,0.2-0.5-0.1-0.9c-0.3-0.4-0.2-0.7-0.1-1c0.1-0.2,0.1-0.4,0-0.7h-4.7c-0.1,0.3,0,0.5,0.1,0.7
							c0.1,0.3,0.2,0.6-0.1,1c-0.3,0.4-0.2,0.6-0.1,0.9c0.1,0.3,0.2,0.6-0.1,1c-0.2,0.4-0.2,0.7-0.1,0.9c0.1,0.3,0.2,0.6-0.2,1
							c-0.3,0.4-0.2,0.8-0.1,1.2c0.1,0.4,0.2,0.8-0.2,1.3c-0.3,0.4-0.2,0.8-0.2,1.1c0.1,0.3,0.2,0.7-0.1,1.1
							c-0.3,0.4-0.2,0.8-0.2,1.1c0.1,0.3,0.2,0.6-0.1,0.9c-0.2,0.3-0.2,0.6-0.1,0.9c0.1,0.4,0.2,0.8-0.2,1.2
							c-0.3,0.4-0.3,0.8-0.2,1.1c0.1,0.3,0.2,0.7-0.1,1c-0.3,0.4-0.2,0.8-0.2,1.1c0.1,0.4,0.1,0.7-0.1,1c-0.2,0.3-0.2,0.6-0.1,0.9
							c0.1,0.4,0.1,0.9-0.2,1.4c-0.4,0.4-0.3,0.8-0.2,1.1c0.1,0.3,0.1,0.5-0.1,0.8c-0.3,0.4-0.6,0.9-0.5,1.3
							c-0.1-0.4,0.1-0.9,0.4-1.3c0.2-0.2,0.1-0.4,0-0.7c-0.1-0.3-0.2-0.7,0.2-1.2c0.4-0.4,0.3-0.9,0.2-1.3c-0.1-0.4-0.1-0.7,0.1-1
							c0.2-0.3,0.2-0.6,0.1-1c-0.1-0.4-0.1-0.8,0.2-1.2c0.3-0.3,0.2-0.6,0.1-1c-0.1-0.4-0.2-0.8,0.2-1.2c0.3-0.4,0.3-0.8,0.2-1.2
							c-0.1-0.3-0.2-0.7,0.1-1c0.3-0.3,0.2-0.6,0.1-0.9c-0.1-0.3-0.2-0.7,0.2-1.2c0.3-0.4,0.2-0.7,0.1-1.1c-0.1-0.4-0.2-0.7,0.2-1.2
							c0.3-0.4,0.3-0.8,0.2-1.2c-0.1-0.4-0.2-0.8,0.2-1.2c0.3-0.4,0.2-0.7,0.2-1c-0.1-0.3-0.1-0.5,0.1-1c0.2-0.4,0.1-0.7,0.1-0.9
							c-0.1-0.3-0.2-0.6,0.2-1c0.3-0.3,0.2-0.6,0.1-0.9c-0.1-0.2-0.1-0.5-0.1-0.7h-1.5c0,0.1,0,0.2,0,0.4c0,0.3,0.1,0.7-0.3,1.2
							c-0.4,0.4-0.4,0.8-0.4,1.1c0,0.3,0,0.6-0.3,1c-0.3,0.4-0.2,0.7-0.2,1c0.1,0.3,0.1,0.7-0.2,1.1c-0.3,0.4-0.3,0.8-0.3,1.1
							c0,0.4,0,0.7-0.3,1.1c-0.4,0.4-0.3,0.7-0.3,1.1c0,0.4,0.1,0.8-0.3,1.2c-0.4,0.4-0.3,0.7-0.3,1c0,0.3,0.1,0.7-0.3,1
							c-0.4,0.4-0.3,0.7-0.3,1.1c0,0.4,0.1,0.8-0.3,1.2c-0.4,0.3-0.3,0.7-0.3,1.2c0,0.5,0.1,0.9-0.4,1.4c-0.4,0.4-0.4,0.8-0.3,1.2
							c0.1,0.4,0.1,0.7-0.2,1c-0.4,0.4-0.3,0.7-0.3,1c0,0.3,0,0.5-0.2,0.8c-0.4,0.5-0.5,1.1-0.3,1.4c-0.3-0.3-0.2-1,0.3-1.4
							c0.2-0.2,0.2-0.4,0.2-0.7c0-0.3,0-0.7,0.4-1.1c0.3-0.3,0.3-0.6,0.2-1c0-0.4-0.1-0.8,0.3-1.3c0.4-0.4,0.4-0.9,0.4-1.3
							c0-0.4-0.1-0.9,0.3-1.2c0.4-0.4,0.3-0.7,0.3-1.1c0-0.4-0.1-0.8,0.3-1.2c0.4-0.4,0.3-0.7,0.3-1c0-0.3-0.1-0.7,0.3-1.1
							c0.4-0.4,0.3-0.8,0.3-1.1c0-0.4-0.1-0.7,0.3-1.1c0.4-0.4,0.3-0.7,0.3-1c0-0.3-0.1-0.7,0.3-1.1c0.3-0.4,0.3-0.7,0.2-1.1
							c-0.1-0.3-0.1-0.6,0.2-1c0.3-0.4,0.3-0.7,0.3-1c0-0.3,0-0.7,0.4-1.2c0.4-0.4,0.3-0.8,0.3-1.1c0-0.1,0-0.3,0-0.4h-1.1
							c0-7.9,1.2-10.4,5.1-10.4c3.9,0,5.1,2.4,5.1,10.3l0,0h-1.1c0,0.1,0,0.3,0,0.4c0,0.3-0.1,0.7,0.3,1.1c0.4,0.5,0.4,0.8,0.4,1.2
							c0,0.3,0,0.6,0.3,1c0.3,0.4,0.2,0.7,0.2,1c-0.1,0.3-0.1,0.6,0.2,1.1c0.3,0.4,0.3,0.8,0.3,1.1c0,0.3-0.1,0.7,0.3,1
							c0.4,0.4,0.3,0.8,0.3,1.1c0,0.4-0.1,0.7,0.3,1.1c0.4,0.4,0.3,0.8,0.3,1.1c0,0.3-0.1,0.6,0.3,1c0.4,0.4,0.3,0.8,0.3,1.2
							c0,0.4-0.1,0.8,0.3,1.1c0.4,0.4,0.4,0.8,0.3,1.2c0,0.4-0.1,0.9,0.4,1.3c0.4,0.5,0.4,0.9,0.3,1.3c0,0.4-0.1,0.6,0.2,1
							c0.4,0.4,0.4,0.8,0.4,1.1c0,0.3,0,0.5,0.2,0.7c0.5,0.5,0.6,1.2,0.3,1.5c0.1-0.3,0.1-1-0.4-1.4c-0.2-0.2-0.2-0.5-0.2-0.8
							c0-0.3,0-0.7-0.3-1c-0.3-0.3-0.3-0.7-0.2-1c0.1-0.4,0.1-0.8-0.3-1.2c-0.4-0.5-0.4-0.9-0.4-1.4c0-0.4,0-0.8-0.3-1.2
							c-0.4-0.4-0.4-0.8-0.3-1.2c0-0.4,0.1-0.8-0.3-1.1c-0.4-0.4-0.4-0.7-0.3-1c0-0.3,0.1-0.7-0.3-1c-0.4-0.4-0.3-0.8-0.3-1.2
							c0-0.4,0.1-0.7-0.3-1.1c-0.4-0.4-0.4-0.7-0.3-1.1c0-0.3,0.1-0.7-0.3-1.1c-0.4-0.5-0.3-0.8-0.2-1.1c0.1-0.3,0.1-0.6-0.2-1
							c-0.3-0.4-0.3-0.7-0.3-1c0-0.3,0-0.7-0.4-1.1c-0.4-0.4-0.4-0.8-0.3-1.2c0-0.1,0-0.3,0-0.4h-1.5c0.1,0.3,0,0.5-0.1,0.7
							c-0.1,0.3-0.2,0.6,0.1,0.9c0.3,0.4,0.2,0.7,0.2,1c-0.1,0.3-0.2,0.5,0.1,0.9c0.2,0.4,0.2,0.7,0.1,1c-0.1,0.3-0.1,0.5,0.2,1
							c0.3,0.4,0.2,0.8,0.2,1.2c-0.1,0.4-0.2,0.8,0.2,1.2c0.4,0.5,0.3,0.8,0.2,1.2c-0.1,0.3-0.2,0.7,0.1,1.1
							c0.3,0.5,0.2,0.8,0.2,1.2c-0.1,0.3-0.1,0.6,0.1,0.9c0.3,0.3,0.2,0.7,0.1,1c-0.1,0.4-0.2,0.7,0.2,1.2c0.4,0.4,0.3,0.8,0.2,1.2
							c-0.1,0.3-0.2,0.6,0.1,1c0.3,0.4,0.2,0.8,0.2,1.2c-0.1,0.4-0.1,0.7,0.1,1c0.2,0.3,0.2,0.6,0.1,1c-0.1,0.4-0.1,0.9,0.2,1.3
							c0.4,0.5,0.3,0.9,0.2,1.2c-0.1,0.3-0.1,0.5,0.1,0.7C267.2,130.9,267.5,131.5,267.5,131.9L267.5,131.9z M261.7,97.4
							c-3.9,0-5,2.4-5,10.2h1.1c0-0.2,0.1-0.4,0.3-0.6l0.1,0.1c-0.2,0.2-0.3,0.4-0.3,0.6l1.5,0c0-0.1,0.1-0.2,0.2-0.4l0.1,0
							c-0.1,0.1-0.1,0.2-0.2,0.3l4.6,0c0-0.1-0.1-0.2-0.2-0.3l0.1,0c0.1,0.1,0.2,0.2,0.2,0.3l1.5,0c0-0.2-0.1-0.4-0.3-0.5l0.1-0.1
							c0.2,0.2,0.3,0.4,0.3,0.6h1.1C266.7,99.8,265.6,97.4,261.7,97.4L261.7,97.4z"/>
					</g>
					<path class="st5" d="M256.6,107.6c0-7.6,1.1-10.3,5.1-10.3c-1.8,0-2.9,1.4-3.2,2.4c-0.3,1-0.1,0.9,0.3,0.5
						c0.4-0.4,0.2,0.4-0.1,0.9c-0.3,0.4-0.7,1.7-0.2,1.3c0.5-0.4,0.8,0.1,0.3,0.8c-0.5,0.7-0.9,2.4-0.4,1.8c0.5-0.6,0.6,0.4,0.3,0.8
						c-0.3,0.5-0.3,0.9,0,0.7c0.3-0.2,0.2,0.8,0,1.1H256.6z"/>
					<g class="st5">
						<path d="M258.6,107.7h-2c0-7.9,1.2-10.4,5.1-10.4c-1.8,0.1-2.9,1.5-3.2,2.4c-0.2,0.5-0.2,0.7-0.1,0.7l0,0
							c0.1,0,0.3-0.2,0.3-0.2c0.1,0,0.1,0,0.1,0.1c-0.3,0.2-0.4,0.3-0.4,0.3c-0.1-0.1-0.1-0.2,0.1-0.8c0.3-0.9,1.3-2.3,3.1-2.4
							c-3.7,0.2-4.8,2.6-4.8,10.3L258.6,107.7c0.1-0.3,0.1-0.5,0.2-0.8C258.8,107.1,258.7,107.4,258.6,107.7L258.6,107.7
							L258.6,107.7z M258.1,105.1c-0.2-0.3,0.2-1.5,0.6-2c0.2-0.3,0.3-0.5,0.2-0.6c0.1,0.2,0,0.4-0.2,0.7
							C258.4,103.7,258,104.8,258.1,105.1l0.4-0.4c0,0.1,0.1,0.1,0.1,0.2l0,0L258.1,105.1L258.1,105.1z"/>
					</g>
					<path class="st5" d="M266,107.2c0-6-0.7-7.8-2.2-8.4c-0.8-0.3-0.9-0.3-0.5,0.3c0.4,0.5,0.3,1.3,0,0.8c-0.4-0.5-0.5-0.7-0.6-0.4
						c-0.2,0.2,0.4,1.4,0.9,2.4c0.3,0.8,0.1,1.2-0.4,0.4c-0.5-0.8-0.5-0.1-0.1,0.6c0.6,0.9,0.6,3.5,0.6,4.7L266,107.2z"/>
					<g class="st5">
						<path d="M263.6,107.5v-0.1c0-1.2,0-3.7-0.6-4.5c-0.3-0.4-0.4-0.8-0.3-1c0.2-0.1,0.3,0.1,0.4,0.3c0.3,0.4,0.4,0.4,0.4,0.4
							c0.1-0.1,0.1-0.4-0.1-0.8l-0.3-0.7c-0.4-0.9-0.7-1.5-0.5-1.7c0.1,0,0.1-0.1,0.2-0.1c-0.2,0.3,0.1,1,0.4,1.7l0.3,0.7
							c0.2,0.4,0.2,0.7,0.1,0.8c-0.3,0.1-0.5-0.2-0.6-0.4c-0.2-0.3-0.3-0.3-0.3-0.3c-0.1,0.1,0,0.5,0.3,0.9c0.6,0.9,0.6,3.4,0.6,4.6
							L263.6,107.5l2.4-0.4c0-6.2-0.8-7.7-2.2-8.3c-0.4-0.1-0.5-0.2-0.6-0.2c-0.1,0.1,0.1,0.3,0.2,0.4c0.2,0.3,0.3,0.8,0.2,1
							c-0.1-0.1-0.2-0.1-0.2-0.2c0.2-0.1,0.1-0.4-0.1-0.7c-0.2-0.3-0.3-0.4-0.3-0.5c0.2-0.1,0.4,0,0.8,0.2c1.4,0.6,2.3,2.1,2.3,8.4
							L263.6,107.5L263.6,107.5z"/>
					</g>
					<path class="st11" d="M261.7,108.7c1.6,0,3.3-0.3,4.5-0.7c1.4-0.5,1.5-1,1-1.6c-0.3-0.4-1.1-0.2-1.8,0.1
						c-0.7,0.3-2.7,0.5-3.7,0.5c-1,0-3-0.2-3.7-0.5c-0.7-0.3-1.5-0.6-1.8-0.1c-0.5,0.6-0.4,1.1,1,1.6
						C258.4,108.4,260.1,108.7,261.7,108.7L261.7,108.7z"/>
					<g class="st5">
						<path d="M261.7,108.8c-1.6,0-3.3-0.3-4.5-0.7c-0.8-0.3-1.2-0.6-1.2-0.9c-0.1-0.2,0-0.5,0.3-0.8c0.3-0.4,1.1-0.2,1.8,0.1
							c0.7,0.3,2.6,0.5,3.7,0.5c1,0,3-0.2,3.7-0.5c0.7-0.3,1.5-0.5,1.8-0.1c0.2,0.3,0.3,0.5,0.3,0.8c-0.1,0.3-0.5,0.6-1.2,0.9
							C265,108.5,263.3,108.8,261.7,108.8L261.7,108.8z M256.8,106.2c-0.2,0-0.4,0.1-0.5,0.2c-0.2,0.3-0.3,0.5-0.2,0.7
							c0.1,0.3,0.5,0.6,1.2,0.9c2.3,0.9,6.6,0.9,9,0c0.7-0.3,1.1-0.6,1.2-0.9c0.1-0.2,0-0.4-0.2-0.7c-0.3-0.4-1.1-0.1-1.8,0.2
							c-0.7,0.3-2.7,0.5-3.7,0.5s-3-0.2-3.7-0.5C257.6,106.4,257.1,106.2,256.8,106.2L256.8,106.2z"/>
					</g>
					<path class="st12" d="M277.1,98.6c0,0,1,1.8,1.8,3.1c0.8,1.3,1.4,1.6,1.9,1.2c0.6-0.4,0.1-1.4-0.4-2c-0.4-0.5-2.9-2.9-2.9-2.9
						L277.1,98.6z"/>
					<g class="st5">
						<path d="M280.4,103.1c-0.5,0-1-0.5-1.5-1.4l-1.8-3.1l0.5-0.6l0,0c0.1,0,2.5,2.4,2.9,2.9c0.3,0.4,0.7,1.1,0.6,1.6
							c0,0.2-0.1,0.4-0.3,0.5C280.7,103.1,280.6,103.1,280.4,103.1L280.4,103.1z M277.6,98.1l-0.4,0.5l1.8,3.1
							c0.5,0.9,1,1.4,1.4,1.4l0,0c0.1,0,0.3,0,0.4-0.2c0.1-0.1,0.2-0.2,0.2-0.4c0.1-0.5-0.3-1.1-0.6-1.5
							C280,100.5,277.6,98.1,277.6,98.1L277.6,98.1z"/>
					</g>
					<path class="st12" d="M276.9,98.8c0,0,0.4,2.1,0.7,3.6c0.3,1.5,0.8,2,1.4,1.8c0.6-0.2,0.5-1.3,0.3-2c-0.3-0.6-1.8-3.7-1.8-3.7
						L276.9,98.8z"/>
					<g class="st5">
						<path d="M278.8,104.2c-0.6,0-1-0.6-1.2-1.9l-0.7-3.6l0.7-0.4c0.1,0,1.6,3.1,1.9,3.7c0.2,0.5,0.3,1.3,0.1,1.7
							c-0.1,0.2-0.2,0.3-0.4,0.3L278.8,104.2L278.8,104.2z M277.5,98.5l-0.6,0.3l0.7,3.5c0.2,1.2,0.6,1.8,1.2,1.8v0l0.2-0.1
							c0.1,0,0.3-0.1,0.3-0.3c0.2-0.4,0.1-1.1-0.1-1.6C279,101.6,277.5,98.5,277.5,98.5L277.5,98.5z"/>
					</g>
					<path class="st12" d="M276.4,98.8c0,0,0,2.1,0,3.6c0,1.5,0.4,2.1,1,2.1c0.7,0,0.8-1.2,0.7-1.9c-0.1-0.7-1-4-1-4L276.4,98.8z"/>
					<g class="st5">
						<path d="M277.4,104.6c-0.7,0-1.1-0.7-1.1-2.1v-3.6l0.7-0.2c0.1,0,1,3.4,1.1,4.1c0.1,0.5,0,1.3-0.3,1.7
							C277.8,104.5,277.7,104.6,277.4,104.6L277.4,104.6L277.4,104.6z M277.1,98.7l-0.6,0.2l0,3.6c0,1.4,0.3,2.1,1,2.1v0l0,0
							c0.1,0,0.3-0.1,0.4-0.2c0.3-0.3,0.3-1.1,0.2-1.6C278,102,277.1,98.7,277.1,98.7L277.1,98.7z"/>
					</g>
					<path class="st12" d="M276.4,98.8c1.9,0,2.1-0.7,2.1-0.7s0.4-1.4,0.2-1.8c-0.2-0.4-2.3-0.4-2.3-0.4V98.8z"/>
					<g class="st5">
						<path d="M276.4,98.8v-2.9c0.3-0.1,2.2-0.1,2.4,0.3c0.2,0.4-0.2,1.7-0.2,1.8C278.6,98.1,278.4,98.8,276.4,98.8L276.4,98.8
							L276.4,98.8z M276.4,96l0.1,2.8c1.8,0,2-0.7,2-0.7c0.1-0.4,0.4-1.5,0.2-1.8C278.6,96,277.2,96,276.4,96L276.4,96z"/>
					</g>
					<path class="st12" d="M276.4,97.3c2.1,0,2.4-0.7,2.4-0.7s0.7-1.4,0.3-1.8c-0.3-0.4-2.7-0.4-2.7-0.4V97.3z"/>
					<g class="st5">
						<path d="M276.4,97.4L276.4,97.4l0-2.9c0.1-0.1,2.5,0,2.8,0.3c0.4,0.4-0.3,1.8-0.3,1.9C278.9,96.7,278.5,97.4,276.4,97.4
							L276.4,97.4z M276.4,94.5l0,2.8c2,0,2.3-0.7,2.3-0.7c0.2-0.4,0.6-1.5,0.3-1.8C278.9,94.6,277.1,94.5,276.4,94.5L276.4,94.5z"
							/>
					</g>
					<path class="st12" d="M276.4,95.9c1.7,0,2.7-0.7,2.7-0.7s0.7-1.4,0.3-1.8c-0.3-0.4-3.1-0.4-3.1-0.4V95.9z"/>
					<g class="st5">
						<path d="M276.4,95.9L276.4,95.9l0-2.9c0.3-0.1,2.8,0,3.2,0.3c0.4,0.4-0.3,1.8-0.3,1.8C279.2,95.2,278.1,95.9,276.4,95.9
							L276.4,95.9z M276.4,93.1l0,2.8c1.6,0,2.7-0.7,2.7-0.7c0.2-0.4,0.6-1.4,0.3-1.7C279.2,93.1,277.4,93.1,276.4,93.1L276.4,93.1z
							"/>
					</g>
					<path class="st12" d="M277.6,82.6c0,0,1.7-1.8,4.7-3.6c3-1.8,5.1-3.2,5.5-2.9c0,0.4-2.5,2.2-4.7,3.6c-2.1,1.4-4.7,3.6-4.7,3.6
						L277.6,82.6z"/>
					<g class="st5">
						<path d="M278.4,83.4l-0.9-0.7c0-0.1,1.7-1.9,4.7-3.7l1-0.6c2.2-1.3,3.8-2.3,4.3-2.3c0,0,0,0.1,0,0.1c-0.7,0.1-2.2,1-4.3,2.3
							l-1,0.6c-2.9,1.8-4.6,3.6-4.7,3.6l0.8,0.6c0.3-0.2,2.7-2.2,4.6-3.6c2.7-1.8,3.8-2.7,4.3-3.2c-0.5,0.6-2,1.7-4.3,3.2
							C281,81.2,278.5,83.4,278.4,83.4L278.4,83.4L278.4,83.4z"/>
					</g>
					<path class="st12" d="M277.8,84.1c0,0,1.7-1.1,4.9-2.5c3.2-1.3,7.6-1.1,7.6-0.7c-0.4,0.4-4.2,0.4-6.8,1.4
						c-2.4,1-4.9,2.5-4.9,2.5L277.8,84.1z"/>
					<g class="st5">
						<path d="M278.6,84.8l-0.9-0.7c0-0.1,1.7-1.1,4.9-2.6c2.3-0.9,4.9-1,5.7-1c0.2,0,2,0,2,0.3c-0.2,0.2-0.9,0.3-1.8,0.4
							c-1.5,0.2-3.5,0.4-5,1.1C281.1,83.3,278.7,84.8,278.6,84.8L278.6,84.8L278.6,84.8z M288.4,80.6c-0.8,0-3.4,0.1-5.7,1
							c-3.2,1.4-4.9,2.5-4.9,2.5l0.8,0.6c0.3-0.2,2.6-1.5,4.9-2.5c1.6-0.7,3.6-0.9,5-1.1c0.9-0.1,1.6-0.2,1.7-0.3
							C290.3,80.7,289.7,80.6,288.4,80.6L288.4,80.6z"/>
					</g>
					<path class="st12" d="M277.8,86.5c0,0,1.5-0.7,4.9-1.8c3.4-1.1,7.9-0.4,7.9,0c-0.4,0.4-4.1,0.2-6.6,0.7
						c-2.6,0.6-5.3,1.8-5.3,1.8L277.8,86.5z"/>
					<g class="st5">
						<path d="M278.7,87.3l-0.9-0.7c0-0.1,1.5-0.8,4.9-1.9c1.5-0.5,3.1-0.6,4.2-0.6c1.9,0,3.8,0.3,3.8,0.6c-0.2,0.2-1.1,0.3-2.3,0.3
							c-1.3,0.1-3,0.1-4.4,0.4C281.4,86.1,278.7,87.3,278.7,87.3L278.7,87.3L278.7,87.3z M286.9,84.2c-1.1,0-2.7,0.1-4.2,0.6
							c-3.4,1.1-4.9,1.8-4.9,1.8l0.8,0.6c0.3-0.1,2.8-1.3,5.3-1.8c1.4-0.3,3-0.4,4.4-0.4c1.1-0.1,2-0.1,2.2-0.3
							C290.5,84.6,289,84.2,286.9,84.2L286.9,84.2z"/>
					</g>
					<path class="st12" d="M278,89.1c0,0,1.7-1.4,5.3-1.8c3.6-0.4,6.6,1.8,6.6,2.2c-0.4,0.4-3.8-1.6-6.4-1.3
						c-2.7,0.3-4.7,1.7-4.7,1.7L278,89.1z"/>
					<g class="st5">
						<path d="M278.8,89.8l-0.9-0.7c0-0.1,1.8-1.5,5.3-1.9c3.7-0.3,6.7,1.8,6.7,2.2c-0.5,0.1-1-0.1-1.7-0.3
							c-1.3-0.4-3.1-1.1-4.7-0.9C280.9,88.4,278.9,89.8,278.8,89.8L278.8,89.8L278.8,89.8z M284.1,87.3c-0.3,0-0.5,0-0.8,0
							c-3.6,0.3-5.3,1.8-5.3,1.8l0.8,0.6c0.2-0.2,2.2-1.4,4.7-1.7c1.5-0.1,3.4,0.5,4.7,0.9c0.7,0.2,1.2,0.4,1.5,0.4
							C289.8,89.2,287.5,87.3,284.1,87.3L284.1,87.3z"/>
					</g>
					<path class="st12" d="M276.4,94.1c3.1,0,3.1-0.9,3.1-0.9s0.7-1.4,0.3-1.8c-0.3-0.4-3.4-0.2-3.4-0.2V94.1z"/>
					<g class="st5">
						<path d="M276.4,94.1v-2.9c0-0.1,0.9-0.1,1.8-0.1c1.5,0,1.7,0.2,1.7,0.2c0.4,0.4-0.3,1.8-0.3,1.8
							C279.6,93.2,279.5,94.1,276.4,94.1L276.4,94.1L276.4,94.1z M278.2,91.2c-0.9,0-1.7,0.1-1.7,0.1l0,2.8c2.9,0,3-0.9,3-0.9
							c0.2-0.4,0.6-1.5,0.3-1.8C279.7,91.3,279.4,91.2,278.2,91.2L278.2,91.2z"/>
					</g>
					<path class="st12" d="M276.4,92.7c3.1,0,3.4-0.7,3.4-0.7s0.7-1.4,0.3-1.8c-0.3-0.4-3.8-0.4-3.8-0.4V92.7z"/>
					<g class="st5">
						<path d="M276.4,92.7v-2.9c0.2-0.1,3.5,0,3.8,0.3c0.4,0.4-0.3,1.8-0.3,1.8C279.9,92,279.5,92.7,276.4,92.7L276.4,92.7
							L276.4,92.7z M276.4,89.8l0,2.8c3,0,3.3-0.7,3.3-0.7c0.2-0.4,0.6-1.5,0.3-1.8C279.9,89.9,277.4,89.8,276.4,89.8L276.4,89.8z"
							/>
					</g>
					<path class="st12" d="M276.4,90.9c3.1,0,3.8-0.7,3.8-0.7s0.7-1.4,0.3-1.8c-0.3-0.4-4.1-0.4-4.1-0.4V90.9z"/>
					<g class="st5">
						<path d="M276.4,90.9V88c0.4-0.1,3.8,0,4.2,0.3c0.4,0.4-0.3,1.8-0.3,1.8C280.2,90.2,279.5,90.9,276.4,90.9L276.4,90.9
							L276.4,90.9z M276.4,88l0,2.8c3,0,3.7-0.7,3.7-0.7c0.2-0.4,0.6-1.5,0.3-1.7C280.2,88.1,277.5,88,276.4,88L276.4,88z"/>
					</g>
					<path class="st12" d="M276.4,89.1c3.1,0,4.1-0.7,4.1-0.7s0.3-1.4,0-1.8c-0.3-0.4-4.1-0.4-4.1-0.4V89.1z"/>
					<g class="st5">
						<path d="M276.4,89.1v-2.9c0.4,0,3.8,0,4.2,0.3c0.4,0.4,0,1.8,0,1.8C280.5,88.4,279.5,89.1,276.4,89.1L276.4,89.1L276.4,89.1z
							 M276.4,86.2l0,2.8c3,0,4-0.7,4-0.7l0,0c0,0,0.3-1.4,0-1.7C280.2,86.3,277.5,86.2,276.4,86.2L276.4,86.2z"/>
					</g>
					<path class="st12" d="M277.1,81.1c0,0,2.7-1.8,2.7-3.2c0-1.4-1.2-2.9-1.5-3.6c0.7,0,2.2,2.2,2.2,3.6c0,1.6-2.6,4-2.6,4
						L277.1,81.1z"/>
					<g class="st5">
						<path d="M278,81.9l-0.9-0.7c0-0.1,2.7-1.9,2.7-3.3c0-1.1-0.7-2.1-1.1-2.9c-0.2-0.3-0.3-0.5-0.4-0.7c0.7,0,2.3,2.2,2.3,3.6
							C280.6,79.5,278.1,81.8,278,81.9L278,81.9L278,81.9z M278.3,74.3c0.1,0.1,0.3,0.4,0.4,0.6c0.5,0.8,1.2,1.9,1.2,2.9
							c0,1.4-2.6,3.2-2.7,3.3l0.8,0.6c0.3-0.2,2.5-2.4,2.5-3.9C280.5,76.4,279,74.3,278.3,74.3L278.3,74.3z"/>
					</g>
					<path class="st12" d="M277.1,81.1c0,0-0.3-1.1-0.3-3.2c0-2.5,1.5-4.1,2-4.7c0.1,0.6-1.4,2.5-1.4,4.7c0,1.6,0.5,4,0.5,4
						L277.1,81.1z"/>
					<g class="st5">
						<path d="M278,82l-0.9-0.8c0,0-0.4-1.1-0.4-3.3c0-1.7,0.7-3.3,2.1-4.7c0.1,0.2-0.1,0.7-0.3,1.2c-0.4,0.9-1,2.1-1,3.5
							c0,1.6,0.5,3.9,0.5,4L278,82L278,82z M278.8,73.2c-1.3,1.4-2,3-2,4.7c0,2.1,0.3,3.2,0.3,3.2l0.8,0.6c-0.1-0.5-0.5-2.5-0.5-3.9
							c0-1.3,0.6-2.6,1-3.5C278.6,73.9,278.8,73.4,278.8,73.2L278.8,73.2z"/>
					</g>
					<path class="st12" d="M276.4,87.3c3.1,0,4.1-0.7,4.1-0.7s0-1.4-0.3-1.8c-0.3-0.4-3.8-0.4-3.8-0.4V87.3z"/>
					<g class="st5">
						<path d="M276.4,87.3v-2.9c0.2-0.1,3.5,0,3.8,0.3c0.3,0.4,0.4,1.8,0.4,1.8C280.5,86.6,279.5,87.3,276.4,87.3L276.4,87.3
							L276.4,87.3z M276.4,84.4l0,2.8c3,0,4-0.7,4-0.7l0,0c0,0,0-1.4-0.3-1.7C279.9,84.5,277.4,84.4,276.4,84.4L276.4,84.4z"/>
					</g>
					<path class="st12" d="M276.4,85.5c3.1,0,3.8-0.7,3.8-0.7s0-1.4-0.3-1.8c-0.3-0.4-3.4-0.4-3.4-0.4V85.5z"/>
					<g class="st5">
						<path d="M276.4,85.5v-2.9c0.2-0.1,3.1,0,3.5,0.3c0.4,0.4,0.4,1.8,0.4,1.8C280.2,84.8,279.5,85.5,276.4,85.5L276.4,85.5
							L276.4,85.5z M276.4,82.6l0,2.8c3,0,3.7-0.7,3.7-0.7l0,0c0,0,0-1.4-0.3-1.7C279.6,82.7,277.3,82.6,276.4,82.6L276.4,82.6z"/>
					</g>
					<path class="st12" d="M285.3,107.1c-1.1-2.5-1.4-6.8-1.4-7.6c0-2,0.6-11.9,0.7-15.8c0.1-4-2.4-6.1-4.8-6.1
						c-2,0-3.4,1.4-3.4,3.6h1c0-1.4,1-2.5,2.4-2.5c2,0,3.6,1.7,3.8,5c0.2,3.9-0.4,13.9-0.3,16.6
						C283.3,102.9,284.3,105.3,285.3,107.1L285.3,107.1z"/>
					<g class="st5">
						<path class="st13" d="M285.2,107.1c-1.3-2.1-2-4.6-2.1-6.9c0-1.2,0.1-3.7,0.2-6.5c0.1-3.7,0.3-7.9,0.2-10.1
							c-0.1-3-1.5-4.9-3.6-4.9c-1.3,0-2.3,1-2.3,2.4l-1.1,0.1c-0.1-2.3,1.3-3.8,3.4-3.8c1.2,0,2.3,0.5,3.2,1.4
							c1.1,1.1,1.7,2.9,1.7,4.8c0,2.2-0.2,6.2-0.4,9.6c-0.1,2.8-0.3,5.3-0.3,6.2c0,0.5,0.3,5,1.4,7.5L285.2,107.1L285.2,107.1z
							 M279.8,78.5c2.3,0,3.7,2,3.9,5.1c0.1,2.2-0.1,6.4-0.2,10.1c-0.1,2.8-0.2,5.3-0.2,6.5c0.1,1.9,0.5,3.8,1.4,5.6
							c-0.7-2.6-0.9-5.8-0.9-6.3c0-0.9,0.1-3.4,0.3-6.2c0.2-3.5,0.4-7.5,0.4-9.6c0-1.9-0.6-3.6-1.7-4.7c-0.8-0.9-1.9-1.3-3-1.3
							c-2,0-3.3,1.4-3.3,3.5l0.9-0.1C277.3,79.6,278.4,78.5,279.8,78.5L279.8,78.5z"/>
					</g>
					<path class="st12" d="M275.8,98.6c0,0-1,1.8-1.8,3.1c-0.8,1.3-1.4,1.6-1.9,1.2c-0.6-0.4-0.1-1.4,0.4-2c0.4-0.5,2.9-2.9,2.9-2.9
						L275.8,98.6z"/>
					<g class="st5">
						<path d="M272.5,103.1c-0.2,0-0.3-0.1-0.5-0.2c-0.2-0.1-0.2-0.3-0.3-0.5c-0.1-0.5,0.3-1.2,0.6-1.6c0.4-0.5,2.9-2.9,2.9-2.9
							l0.6,0.5l-1.8,3.2C273.4,102.7,272.9,103.1,272.5,103.1L272.5,103.1z M275.2,98.1c0,0.1-2.4,2.4-2.8,2.9
							c-0.3,0.4-0.6,1-0.6,1.5c0,0.2,0.1,0.3,0.2,0.4c0.6,0.4,1.2,0,1.9-1.2l1.8-3.1L275.2,98.1L275.2,98.1z"/>
					</g>
					<path class="st12" d="M276.4,80.9c2.4,0,3.4,2.1,3.4,2l-0.7,0.7c-0.4,0.4-2.7,0.4-2.7,0.4L276.4,80.9z"/>
					<g class="st5">
						<path d="M276.5,84.1L276.5,84.1l-0.1-3.1c2.1-0.1,3.1,1.4,3.5,2l-0.7,0.8C278.8,84.1,276.6,84.1,276.5,84.1L276.5,84.1z
							 M276.4,81l0.1,3l0-0.1c0.6,0,2.3-0.1,2.6-0.3l0.7-0.7C279.4,82.4,278.4,81,276.4,81L276.4,81z"/>
					</g>
					<path class="st12" d="M276,98.8c0,0-0.4,2.1-0.7,3.6c-0.3,1.5-0.8,2-1.4,1.8c-0.6-0.2-0.5-1.3-0.3-2c0.3-0.6,1.8-3.7,1.8-3.7
						L276,98.8z"/>
					<g class="st5">
						<path d="M274.1,104.2l-0.2,0c-0.2,0-0.3-0.2-0.4-0.3c-0.2-0.4-0.1-1.2,0.1-1.7c0.3-0.6,1.8-3.7,1.8-3.7l0.7,0.3l-0.7,3.6
							C275.1,103.6,274.7,104.2,274.1,104.2L274.1,104.2z M275.3,98.5c0,0.1-1.5,3.1-1.7,3.7c-0.2,0.5-0.3,1.2-0.1,1.6
							c0.1,0.1,0.2,0.2,0.3,0.3l0.2,0c0.5,0,0.9-0.6,1.2-1.8l0.7-3.6L275.3,98.5L275.3,98.5z"/>
					</g>
					<path class="st12" d="M276.4,98.8c0,0,0,2.1,0,3.6c0,1.5-0.4,2.1-1,2.1c-0.7,0-0.8-1.2-0.7-1.9c0.1-0.7,1-4,1-4L276.4,98.8z"/>
					<g class="st5">
						<path d="M275.4,104.6L275.4,104.6c-0.2,0-0.4-0.1-0.5-0.2c-0.3-0.4-0.4-1.2-0.3-1.7c0.1-0.7,1-4,1-4l0.7,0.1l0,3.7
							C276.5,103.9,276.1,104.6,275.4,104.6L275.4,104.6z M275.7,98.7c0,0.1-0.8,3.3-1,4c-0.1,0.5,0,1.3,0.2,1.6
							c0.1,0.1,0.2,0.2,0.4,0.2l0,0v0c0.7,0,1-0.7,1-2.1v-3.6L275.7,98.7L275.7,98.7z"/>
					</g>
					<path class="st12" d="M276.4,98.8c-1.9,0-2.1-0.7-2.1-0.7s-0.4-1.4-0.2-1.8c0.2-0.4,2.3-0.4,2.3-0.4V98.8z"/>
					<g class="st5">
						<path d="M276.5,98.8L276.5,98.8c-2,0-2.2-0.7-2.2-0.8c0-0.2-0.4-1.5-0.2-1.8c0.2-0.4,2.2-0.4,2.4-0.4L276.5,98.8L276.5,98.8z
							 M276.4,95.9c-0.8,0.1-2.1,0.1-2.2,0.4c-0.2,0.3,0.1,1.4,0.2,1.8c0,0,0.2,0.6,2,0.7V95.9L276.4,95.9z"/>
					</g>
					<path class="st12" d="M276.4,97.3c-2,0-2.4-0.7-2.4-0.7s-0.7-1.4-0.3-1.8c0.3-0.4,2.7-0.4,2.7-0.4V97.3z"/>
					<g class="st5">
						<path d="M276.5,97.4L276.5,97.4c-2.1,0-2.5-0.7-2.5-0.7c0-0.1-0.7-1.5-0.3-1.9c0.3-0.4,2.7-0.4,2.8-0.4L276.5,97.4L276.5,97.4
							z M276.4,94.5c-0.6,0-2.4,0.1-2.7,0.4c-0.3,0.3,0.2,1.4,0.3,1.8c0,0,0.4,0.7,2.3,0.7V94.5L276.4,94.5z"/>
					</g>
					<path class="st12" d="M276.4,95.9c-1.7,0-2.7-0.7-2.7-0.7s-0.7-1.4-0.3-1.8c0.3-0.4,3.1-0.4,3.1-0.4V95.9z"/>
					<g class="st5">
						<path d="M276.5,95.9L276.5,95.9c-1.7,0-2.8-0.7-2.8-0.7c0-0.1-0.7-1.5-0.3-1.9c0.3-0.4,2.8-0.4,3.1-0.4L276.5,95.9L276.5,95.9
							z M273.7,95.2c0,0,1,0.7,2.7,0.7V93c-0.9,0-2.7,0.1-3,0.4C273.1,93.7,273.6,94.8,273.7,95.2L273.7,95.2L273.7,95.2z"/>
					</g>
					<path class="st12" d="M275.3,82.6c0,0-1.7-1.8-4.7-3.6c-3-1.8-5.1-3.2-5.5-2.9c0,0.4,2.5,2.2,4.7,3.6c2.1,1.4,4.7,3.6,4.7,3.6
						L275.3,82.6z"/>
					<g class="st5">
						<path d="M274.4,83.4L274.4,83.4c-0.1,0-2.6-2.2-4.7-3.6c-3.1-2.1-4.7-3.3-4.7-3.6c0.1,0,0.1,0,0.2,0c-0.1,0.1,0.4,0.7,4.5,3.6
							c2,1.3,4.4,3.4,4.6,3.6l0.8-0.7l0,0c-0.1,0-1.8-1.8-4.7-3.5l-1.1-0.6c-1.9-1.1-3.3-2-4-2.2c0.9,0.2,2.2,1.1,4,2.2l1.1,0.6
							c2.9,1.8,4.7,3.6,4.7,3.6L274.4,83.4L274.4,83.4z"/>
					</g>
					<path class="st12" d="M275.1,84.1c0,0-1.7-1.1-4.9-2.5c-3.2-1.3-7.6-1.1-7.6-0.7c0.4,0.4,4.2,0.4,6.8,1.4
						c2.4,1,4.9,2.5,4.9,2.5L275.1,84.1z"/>
					<g class="st5">
						<path d="M274.2,84.8L274.2,84.8c-0.1,0-2.5-1.5-4.9-2.5c-1.5-0.7-3.5-0.9-5-1.1c-0.9-0.1-1.6-0.2-1.8-0.4c0-0.3,1.8-0.3,2-0.3
							c0.8,0,3.5,0.1,5.7,1c3.2,1.5,4.9,2.5,4.9,2.5L274.2,84.8L274.2,84.8z M264.5,80.6c-1.3,0-1.9,0.2-1.9,0.2
							c0.1,0.1,0.8,0.2,1.7,0.3c1.5,0.2,3.5,0.4,5,1.1c2.3,1,4.6,2.4,4.9,2.5l0.8-0.7l0,0c-0.1,0-1.8-1-4.9-2.5
							C267.9,80.7,265.3,80.6,264.5,80.6L264.5,80.6z"/>
					</g>
					<path class="st12" d="M275.1,86.5c0,0-1.5-0.7-4.9-1.8c-3.4-1.1-7.9-0.4-7.9,0c0.4,0.4,4.1,0.2,6.6,0.7
						c2.6,0.6,5.3,1.8,5.3,1.8L275.1,86.5z"/>
					<g class="st5">
						<path d="M274.2,87.3L274.2,87.3c-0.1,0-2.7-1.2-5.3-1.8c-1.4-0.3-3-0.4-4.4-0.4c-1.2-0.1-2.1-0.1-2.3-0.3
							c0-0.3,1.9-0.6,3.7-0.6c1.1,0,2.7,0.1,4.2,0.6c3.4,1.1,4.9,1.8,4.9,1.8L274.2,87.3L274.2,87.3z M266,84.2
							c-2.1,0-3.7,0.4-3.7,0.5c0.2,0.1,1.1,0.2,2.2,0.2c1.3,0.1,3,0.1,4.4,0.4c2.5,0.5,5,1.7,5.3,1.8l0.8-0.7
							c-0.1-0.1-1.6-0.7-4.9-1.7C268.7,84.3,267.1,84.2,266,84.2L266,84.2z"/>
					</g>
					<path class="st12" d="M274.9,89.1c0,0-1.7-1.4-5.3-1.8c-3.6-0.4-6.6,1.8-6.6,2.2c0.4,0.4,3.8-1.6,6.4-1.3
						c2.7,0.3,4.7,1.7,4.7,1.7L274.9,89.1z"/>
					<g class="st5">
						<path d="M274.1,89.8L274.1,89.8c0,0-2.1-1.4-4.7-1.7c-1.5-0.2-3.4,0.5-4.7,0.9c-0.7,0.2-1.2,0.4-1.5,0.4c0,0,0-0.1,0-0.1
							c0.4,0,0.9-0.2,1.5-0.4c1.3-0.4,3.2-1.1,4.7-0.9c2.5,0.3,4.5,1.5,4.7,1.7l0.8-0.7c0,0-1.7-1.4-5.3-1.7c-2.7-0.3-5,0.9-6,1.6
							c0.9-0.8,3.3-1.9,6-1.7c3.6,0.4,5.3,1.8,5.3,1.8L274.1,89.8L274.1,89.8z"/>
					</g>
					<path class="st12" d="M276.4,94.1c-3.1,0-3.1-0.9-3.1-0.9s-0.7-1.4-0.3-1.8c0.3-0.4,3.4-0.2,3.4-0.2V94.1z"/>
					<g class="st5">
						<path d="M276.5,94.1L276.5,94.1c-3.1,0-3.2-0.9-3.2-1c0,0-0.7-1.5-0.3-1.8c0.1-0.1,0.2-0.2,1.7-0.2c0.9,0,1.7,0.1,1.7,0.1
							L276.5,94.1L276.5,94.1z M274.7,91.2c-1.3,0-1.6,0.1-1.6,0.2c-0.3,0.3,0.2,1.4,0.3,1.8c0,0,0.1,0.9,3,0.9v-2.8
							C276.4,91.3,275.5,91.2,274.7,91.2L274.7,91.2z"/>
					</g>
					<path class="st12" d="M276.4,92.7c-3.1,0-3.4-0.7-3.4-0.7s-0.7-1.4-0.3-1.8c0.3-0.4,3.8-0.4,3.8-0.4V92.7z"/>
					<g class="st5">
						<path d="M276.5,92.7L276.5,92.7c-3.1,0-3.5-0.7-3.5-0.7c0-0.1-0.7-1.5-0.3-1.8c0.4-0.4,3.6-0.4,3.8-0.4L276.5,92.7L276.5,92.7
							z M276.4,89.8c-0.9,0-3.4,0.1-3.7,0.4c-0.3,0.3,0.2,1.4,0.4,1.8c0,0,0.4,0.7,3.3,0.7V89.8L276.4,89.8z"/>
					</g>
					<path class="st12" d="M276.4,90.9c-3.1,0-3.8-0.7-3.8-0.7s-0.7-1.4-0.3-1.8c0.3-0.4,4.1-0.4,4.1-0.4V90.9z"/>
					<g class="st5">
						<path d="M276.5,90.9L276.5,90.9c-3.1,0-3.8-0.7-3.8-0.7c0-0.1-0.7-1.5-0.3-1.9c0.3-0.4,3.7-0.4,4.1-0.4L276.5,90.9L276.5,90.9
							z M272.7,90.1c0,0,0.7,0.7,3.7,0.7V88c-1,0-3.7,0.1-4,0.4C272.1,88.6,272.5,89.7,272.7,90.1L272.7,90.1L272.7,90.1z"/>
					</g>
					<path class="st12" d="M276.4,89.1c-3.1,0-4.1-0.7-4.1-0.7s-0.3-1.4,0-1.8c0.3-0.4,4.1-0.4,4.1-0.4V89.1z"/>
					<g class="st5">
						<path d="M276.5,89.1L276.5,89.1c-3.1,0-4.1-0.7-4.2-0.7c0-0.1-0.4-1.5,0-1.9c0.3-0.4,3.7-0.4,4.1-0.4L276.5,89.1L276.5,89.1z
							 M272.4,88.3c0,0,1.1,0.7,4,0.7v-2.8c-1,0-3.7,0.1-4,0.4C272.1,86.9,272.4,88.3,272.4,88.3L272.4,88.3L272.4,88.3z"/>
					</g>
					<path class="st12" d="M275.8,81.1c0,0-2.7-1.8-2.7-3.2c0-1.4,1.2-2.9,1.5-3.6c-0.7,0-2.2,2.2-2.2,3.6c0,1.6,2.6,4,2.6,4
						L275.8,81.1z"/>
					<g class="st5">
						<path d="M274.9,81.9L274.9,81.9c-0.1-0.1-2.6-2.4-2.6-4c0-1.4,1.5-3.6,2.3-3.6c-0.1,0.2-0.2,0.5-0.4,0.7
							c-0.5,0.8-1.1,1.8-1.1,2.9c0,1.4,2.7,3.2,2.7,3.2L274.9,81.9L274.9,81.9z M274.5,74.3c-0.6,0.1-2.1,2.2-2.1,3.6
							c0,1.5,2.3,3.7,2.5,3.9l0.8-0.7c-0.1,0-2.7-1.8-2.7-3.2c0-1.1,0.7-2.1,1.1-2.9C274.3,74.7,274.4,74.5,274.5,74.3L274.5,74.3z"
							/>
					</g>
					<path class="st12" d="M275.8,81.1c0,0,0.3-1.1,0.3-3.2c0-2.5-1.5-4.1-2-4.7c-0.1,0.6,1.4,2.5,1.4,4.7c0,1.6-0.5,4-0.5,4
						L275.8,81.1z"/>
					<g class="st5">
						<path d="M274.8,82l0-0.1c0,0,0.5-2.4,0.5-4c0-1.3-0.6-2.6-1-3.5c-0.3-0.6-0.5-1-0.4-1.2c1.4,1.4,2.1,3,2.1,4.7
							c0,2.1-0.3,3.2-0.3,3.3L274.8,82L274.8,82z M274,73.2c0,0.2,0.2,0.6,0.5,1.2c0.4,0.9,1,2.2,1,3.5c0,1.4-0.4,3.4-0.5,3.9
							l0.8-0.6l0,0c0,0,0.3-1.1,0.3-3.2C276,76.2,275.4,74.6,274,73.2L274,73.2z"/>
					</g>
					<path class="st12" d="M276.4,87.3c-3.1,0-4.1-0.7-4.1-0.7s0-1.4,0.3-1.8c0.3-0.4,3.8-0.4,3.8-0.4V87.3z"/>
					<g class="st5">
						<path d="M276.5,87.3L276.5,87.3c-3.1,0-4.1-0.7-4.2-0.7c0-0.1,0-1.5,0.3-1.9c0.4-0.4,3.6-0.4,3.8-0.4L276.5,87.3L276.5,87.3z
							 M272.4,86.5c0,0,1.1,0.6,4,0.7v-2.8c-0.9,0-3.4,0.1-3.7,0.4C272.4,85.1,272.4,86.5,272.4,86.5L272.4,86.5L272.4,86.5z"/>
					</g>
					<path class="st12" d="M276.4,85.5c-3.1,0-3.8-0.7-3.8-0.7s0-1.4,0.3-1.8c0.3-0.4,3.4-0.4,3.4-0.4V85.5z"/>
					<g class="st5">
						<path d="M276.5,85.5L276.5,85.5c-3.1,0-3.8-0.7-3.8-0.7c0-0.1,0-1.5,0.3-1.9c0.3-0.4,3.3-0.4,3.4-0.4L276.5,85.5L276.5,85.5z
							 M272.7,84.7c0,0,0.7,0.7,3.7,0.7v-2.8c-0.8,0-3.1,0.1-3.3,0.4C272.7,83.3,272.7,84.7,272.7,84.7L272.7,84.7L272.7,84.7z"/>
					</g>
					<path class="st12" d="M267.6,107.1c1.1-2.5,1.4-6.8,1.4-7.6c0-2-0.6-11.9-0.7-15.8c-0.1-4,2.4-6.1,4.8-6.1c2,0,3.4,1.4,3.4,3.6
						h-1c0-1.4-1-2.5-2.4-2.5c-2,0-3.6,1.7-3.8,5c-0.1,3.9,0.4,13.9,0.3,16.6C269.5,102.9,268.6,105.3,267.6,107.1L267.6,107.1z"/>
					<g class="st5">
						<path class="st13" d="M267.7,107.1l-0.2-0.1c1.1-2.5,1.4-7,1.4-7.5c0-0.9-0.1-3.4-0.3-6.3c-0.2-3.5-0.4-7.4-0.4-9.6
							c0-2,0.6-3.7,1.7-4.8c0.9-0.9,2-1.4,3.2-1.4c2.1,0,3.5,1.5,3.5,3.7l-1.1,0.1c-0.1-1.5-1.1-2.5-2.4-2.5c-2.1,0-3.5,1.9-3.6,4.9
							c-0.1,2.2,0.1,6.4,0.2,10.1c0.1,2.8,0.2,5.3,0.2,6.5C269.7,102.6,268.9,105,267.7,107.1L267.7,107.1z M273,77.6
							c-1.1,0-2.2,0.5-3,1.3c-1.1,1.1-1.7,2.8-1.7,4.7c0,2.2,0.2,6.1,0.4,9.6c0.2,2.8,0.3,5.3,0.3,6.3c0,0.5-0.2,3.7-0.9,6.3
							c0.8-1.8,1.3-3.7,1.4-5.6c0-1.2-0.1-3.7-0.2-6.5c-0.1-3.7-0.3-7.9-0.2-10.1c0.1-3.2,1.6-5.1,3.9-5.1c1.4,0,2.5,1.1,2.5,2.6
							l0.9-0.1C276.3,79,275,77.6,273,77.6L273,77.6z"/>
					</g>
					<path class="st12" d="M276.4,80.9c-2.4,0-3.4,2.1-3.4,2l0.7,0.7c0.4,0.4,2.7,0.4,2.7,0.4L276.4,80.9z"/>
					<g class="st5">
						<path d="M276.4,84.1c-0.1,0-2.3,0-2.7-0.4L273,83c0.4-0.7,1.5-2.1,3.4-2.1L276.4,84.1L276.4,84.1L276.4,84.1z M276.4,80.9
							c-1.9,0-3,1.4-3.3,2l0.7,0.7c0.3,0.3,2,0.3,2.6,0.3V84l0-0.1L276.4,80.9L276.4,80.9z"/>
					</g>
					<rect class="st14" width="174.5" height="87.2"/>
					<path class="st4" d="M0,0v9.7l155,77.5h19.5v-9.8L19.5,0H0z M174.5,0v9.7l-155,77.5H0v-9.8L155,0H174.5z"/>
					<path class="st4" d="M72.7,87.2h29.1V0H72.7V87.2z M0,58.2h174.5V29.1H0V58.2z"/>
					<path class="st15" d="M0,52.3h174.5V34.9H0V52.3z M78.5,87.2H96V0H78.5V87.2z"/>
					<path class="st15" d="M0,87.2l58.2-29.1h13L13,87.2H0z M0,0l58.2,29.1h-13L0,6.5V0z M103.3,29.1L161.5,0h13l-58.2,29.1H103.3z
						 M174.5,87.2l-58.2-29.1h13l45.2,22.6V87.2z"/>
				</g>
			</g>
		</g>
	</g>
</g>
</svg>
