<?xml version="1.0" encoding="utf-8"?>
<!-- Generator: Adobe Illustrator 22.1.0, SVG Export Plug-In . SVG Version: 6.00 Build 0)  -->
<svg version="1.1" xmlns="http://www.w3.org/2000/svg" xmlns:xlink="http://www.w3.org/1999/xlink" x="0px" y="0px"
	 viewBox="0 0 300 300" style="enable-background:new 0 0 300 300;" xml:space="preserve">
<style type="text/css">
	.st0{clip-path:url(#SVGID_2_);}
	.st1{clip-path:url(#SVGID_2_);fill:#80A7D8;}
	.st2{clip-path:url(#SVGID_4_);fill:#80A7D8;}
	.st3{clip-path:url(#SVGID_4_);fill-rule:evenodd;clip-rule:evenodd;fill:#F3D02F;}
	.st4{clip-path:url(#SVGID_4_);fill:#1B257D;}
	.st5{clip-path:url(#SVGID_4_);fill:#FFFFFF;}
	.st6{clip-path:url(#SVGID_4_);fill:#C0003B;}
	.st7{clip-path:url(#SVGID_4_);fill-rule:evenodd;clip-rule:evenodd;fill:#C0003B;}
	.st8{clip-path:url(#SVGID_6_);}
	.st9{fill:#FFFFFF;}
	.st10{fill:#CA1024;}
</style>
<g id="Layer_2">
</g>
<g id="Layer_1">
	<g>
		<defs>
			<rect id="SVGID_1_" y="-0.1" width="300" height="300"/>
		</defs>
		<clipPath id="SVGID_2_">
			<use xlink:href="#SVGID_1_"  style="overflow:visible;"/>
		</clipPath>
		<g id="Layer_2_1_" class="st0">
		</g>
		<rect x="-1" y="-0.7" class="st1" width="302" height="301.4"/>
		<g class="st0">
			<defs>
				<rect id="SVGID_3_" width="354.9" height="207"/>
			</defs>
			<clipPath id="SVGID_4_">
				<use xlink:href="#SVGID_3_"  style="display:none;overflow:visible;"/>
			</clipPath>
			<rect class="st2" width="354.9" height="207"/>
			<polygon class="st3" points="280.7,91.1 270.5,84.1 260.2,91.1 264.1,79.8 253.9,72.8 266.6,72.9 270.5,61.5 274.3,72.9 
				287,72.8 276.8,79.8 			"/>
			<polygon class="st3" points="249,181.3 238.7,174.3 228.5,181.3 232.4,170 222.2,163 234.8,163 238.7,151.7 242.6,163 255.3,163 
				245,170 			"/>
			<polygon class="st3" points="280.7,160.9 270.5,153.9 260.2,160.9 264.1,149.6 253.9,142.6 266.6,142.6 270.5,131.3 274.3,142.6 
				287,142.6 276.8,149.6 			"/>
			<polygon class="st3" points="144.3,226.3 134.1,219.3 123.9,226.3 127.8,215 117.6,208 130.2,208 134.1,196.7 138,208 150.6,208 
				140.4,215 			"/>
			<polygon class="st3" points="160.3,154.7 170.6,161.7 180.8,154.7 176.9,166 187.1,173 174.4,173 170.6,184.3 166.7,173 154,173 
				164.3,166 			"/>
			<polygon class="st3" points="197.6,103.2 207.8,110.2 218,103.2 214.1,114.5 224.3,121.5 211.7,121.4 207.8,132.8 203.9,121.4 
				191.3,121.5 201.5,114.5 			"/>
			<polygon class="st3" points="228.9,92.5 239.1,99.5 249.4,92.5 245.4,103.8 255.7,110.8 243,110.7 239.1,122.1 235.2,110.7 
				222.6,110.8 232.8,103.8 			"/>
			<polygon class="st3" points="197.6,181.7 207.8,188.6 218,181.7 214.1,193 224.3,199.9 211.7,199.9 207.8,211.2 203.9,199.9 
				191.3,199.9 201.5,193 			"/>
			<polygon class="st3" points="160.3,190.8 170.6,197.8 180.8,190.8 176.9,202.1 187.1,209.1 174.4,209.1 170.6,220.4 166.7,209 
				154,209.1 164.3,202.1 			"/>
			<rect class="st4" width="177.4" height="88.7"/>
			<polygon class="st5" points="157.6,0 0,78.8 0,88.7 19.8,88.7 177.4,9.9 177.4,0 			"/>
			<polygon class="st5" points="0,0 0,9.9 157.6,88.7 177.4,88.7 177.4,78.8 19.8,0 			"/>
			<polygon class="st5" points="73.9,0 73.9,29.6 0,29.6 0,59.1 73.9,59.1 73.9,88.7 103.5,88.7 103.5,59.1 177.4,59.1 177.4,29.6 
				103.5,29.6 103.5,0 			"/>
			<polygon class="st6" points="79.8,0 79.8,35.5 0,35.5 0,53.2 79.8,53.2 79.8,88.7 97.6,88.7 97.6,53.2 177.4,53.2 177.4,35.5 
				97.6,35.5 97.6,0 			"/>
			<polygon class="st7" points="105.1,29.6 118.3,29.6 177.4,0 164.2,0 			"/>
			<polygon class="st6" points="0,6.6 45.9,29.6 59.1,29.6 0,0 			"/>
			<polygon class="st7" points="177.4,88.7 177.4,82.1 131.5,59.1 118.3,59.1 			"/>
			<polygon class="st6" points="59.1,59.1 0,88.7 13.2,88.7 72.4,59.1 			"/>
		</g>
		<g class="st0">
			<g>
				<defs>
					<rect id="SVGID_5_" x="-27" y="-0.1" width="514.3" height="300"/>
				</defs>
				<clipPath id="SVGID_6_">
					<use xlink:href="#SVGID_5_"  style="display:none;overflow:visible;"/>
				</clipPath>
				<g class="st8">
					<rect x="-109" y="-0.1" width="171.4" height="300"/>
					<rect x="62.4" y="-0.1" class="st9" width="171.4" height="300"/>
					<rect x="233.8" y="-0.1" class="st10" width="171.4" height="300"/>
					<polygon class="st10" points="122.3,78.5 217.6,173.7 74.7,173.7 169.9,78.5 169.9,221.3 74.7,126.1 217.6,126.1 122.3,221.3 
											"/>
				</g>
			</g>
		</g>
	</g>
</g>
</svg>
