<?xml version="1.0" encoding="utf-8"?>
<!-- Generator: Adobe Illustrator 22.1.0, SVG Export Plug-In . SVG Version: 6.00 Build 0)  -->
<svg version="1.1" xmlns="http://www.w3.org/2000/svg" xmlns:xlink="http://www.w3.org/1999/xlink" x="0px" y="0px"
	 viewBox="0 0 300 300" style="enable-background:new 0 0 300 300;" xml:space="preserve">
<style type="text/css">
	.st0{clip-path:url(#SVGID_2_);}
	.st1{clip-path:url(#SVGID_2_);fill:#80A7D8;}
	.st2{clip-path:url(#SVGID_4_);fill:#80A7D8;}
	.st3{clip-path:url(#SVGID_4_);fill-rule:evenodd;clip-rule:evenodd;fill:#F3D02F;}
	.st4{clip-path:url(#SVGID_4_);fill:#1B257D;}
	.st5{clip-path:url(#SVGID_4_);fill:#FFFFFF;}
	.st6{clip-path:url(#SVGID_4_);fill:#C0003B;}
	.st7{clip-path:url(#SVGID_4_);fill-rule:evenodd;clip-rule:evenodd;fill:#C0003B;}
	.st8{clip-path:url(#SVGID_6_);}
	.st9{fill:#FFFFFF;}
	.st10{fill:#CA1024;}
	.st11{clip-path:url(#SVGID_8_);}
	.st12{clip-path:url(#SVGID_8_);fill:#F8E82A;}
	.st13{clip-path:url(#SVGID_8_);fill:#CC3220;}
	.st14{clip-path:url(#SVGID_10_);fill:#FFFCFF;}
	.st15{clip-path:url(#SVGID_10_);}
	.st16{clip-path:url(#SVGID_10_);fill:#CC2920;}
	.st17{clip-path:url(#SVGID_10_);fill:#F8E82A;}
	.st18{clip-path:url(#SVGID_10_);fill:#9BA49A;}
	.st19{fill:#9BA49A;}
	.st20{clip-path:url(#SVGID_10_);fill:#FFFFFF;}
	.st21{clip-path:url(#SVGID_12_);fill:#4D72C0;}
	.st22{clip-path:url(#SVGID_12_);fill:#F2DD30;}
	.st23{clip-path:url(#SVGID_14_);fill:#BC0030;}
	.st24{clip-path:url(#SVGID_14_);fill:#3F9B13;}
	.st25{clip-path:url(#SVGID_14_);fill:#FFFFFF;}
	.st26{clip-path:url(#SVGID_14_);}
	.st27{clip-path:url(#SVGID_16_);fill:#FFFFFF;}
	.st28{clip-path:url(#SVGID_16_);fill:#BD0034;}
	.st29{clip-path:url(#SVGID_16_);fill:#1A237B;}
	.st30{clip-path:url(#SVGID_18_);fill:#CB001C;}
	.st31{clip-path:url(#SVGID_18_);fill:#FFFFFF;}
	.st32{clip-path:url(#SVGID_18_);fill:#2A3560;}
</style>
<g id="Layer_2">
</g>
<g id="Layer_1">
	<g>
		<defs>
			<rect id="SVGID_1_" y="-0.1" width="300" height="300"/>
		</defs>
		<clipPath id="SVGID_2_">
			<use xlink:href="#SVGID_1_"  style="overflow:visible;"/>
		</clipPath>
		<g id="Layer_2_1_" class="st0">
		</g>
		<rect x="-1" y="-0.7" class="st1" width="302" height="301.4"/>
		<g class="st0">
			<defs>
				<rect id="SVGID_3_" width="354.9" height="207"/>
			</defs>
			<clipPath id="SVGID_4_">
				<use xlink:href="#SVGID_3_"  style="display:none;overflow:visible;"/>
			</clipPath>
			<rect class="st2" width="354.9" height="207"/>
			<polygon class="st3" points="280.7,91.1 270.5,84.1 260.2,91.1 264.1,79.8 253.9,72.8 266.6,72.9 270.5,61.5 274.3,72.9 
				287,72.8 276.8,79.8 			"/>
			<polygon class="st3" points="249,181.3 238.7,174.3 228.5,181.3 232.4,170 222.2,163 234.8,163 238.7,151.7 242.6,163 255.3,163 
				245,170 			"/>
			<polygon class="st3" points="280.7,160.9 270.5,153.9 260.2,160.9 264.1,149.6 253.9,142.6 266.6,142.6 270.5,131.3 274.3,142.6 
				287,142.6 276.8,149.6 			"/>
			<polygon class="st3" points="144.3,226.3 134.1,219.3 123.9,226.3 127.8,215 117.6,208 130.2,208 134.1,196.7 138,208 150.6,208 
				140.4,215 			"/>
			<polygon class="st3" points="160.3,154.7 170.6,161.7 180.8,154.7 176.9,166 187.1,173 174.4,173 170.6,184.3 166.7,173 154,173 
				164.3,166 			"/>
			<polygon class="st3" points="197.6,103.2 207.8,110.2 218,103.2 214.1,114.5 224.3,121.5 211.7,121.4 207.8,132.8 203.9,121.4 
				191.3,121.5 201.5,114.5 			"/>
			<polygon class="st3" points="228.9,92.5 239.1,99.5 249.4,92.5 245.4,103.8 255.7,110.8 243,110.7 239.1,122.1 235.2,110.7 
				222.6,110.8 232.8,103.8 			"/>
			<polygon class="st3" points="197.6,181.7 207.8,188.6 218,181.7 214.1,193 224.3,199.9 211.7,199.9 207.8,211.2 203.9,199.9 
				191.3,199.9 201.5,193 			"/>
			<polygon class="st3" points="160.3,190.8 170.6,197.8 180.8,190.8 176.9,202.1 187.1,209.1 174.4,209.1 170.6,220.4 166.7,209 
				154,209.1 164.3,202.1 			"/>
			<rect class="st4" width="177.4" height="88.7"/>
			<polygon class="st5" points="157.6,0 0,78.8 0,88.7 19.8,88.7 177.4,9.9 177.4,0 			"/>
			<polygon class="st5" points="0,0 0,9.9 157.6,88.7 177.4,88.7 177.4,78.8 19.8,0 			"/>
			<polygon class="st5" points="73.9,0 73.9,29.6 0,29.6 0,59.1 73.9,59.1 73.9,88.7 103.5,88.7 103.5,59.1 177.4,59.1 177.4,29.6 
				103.5,29.6 103.5,0 			"/>
			<polygon class="st6" points="79.8,0 79.8,35.5 0,35.5 0,53.2 79.8,53.2 79.8,88.7 97.6,88.7 97.6,53.2 177.4,53.2 177.4,35.5 
				97.6,35.5 97.6,0 			"/>
			<polygon class="st7" points="105.1,29.6 118.3,29.6 177.4,0 164.2,0 			"/>
			<polygon class="st6" points="0,6.6 45.9,29.6 59.1,29.6 0,0 			"/>
			<polygon class="st7" points="177.4,88.7 177.4,82.1 131.5,59.1 118.3,59.1 			"/>
			<polygon class="st6" points="59.1,59.1 0,88.7 13.2,88.7 72.4,59.1 			"/>
		</g>
		<g class="st0">
			<g>
				<defs>
					<rect id="SVGID_5_" x="-27" y="-0.1" width="514.3" height="300"/>
				</defs>
				<clipPath id="SVGID_6_">
					<use xlink:href="#SVGID_5_"  style="display:none;overflow:visible;"/>
				</clipPath>
				<g class="st8">
					<rect x="-109" y="-0.1" width="171.4" height="300"/>
					<rect x="62.4" y="-0.1" class="st9" width="171.4" height="300"/>
					<rect x="233.8" y="-0.1" class="st10" width="171.4" height="300"/>
					<polygon class="st10" points="122.3,78.5 217.6,173.7 74.7,173.7 169.9,78.5 169.9,221.3 74.7,126.1 217.6,126.1 122.3,221.3 
											"/>
				</g>
			</g>
		</g>
		<g class="st0">
			<g>
				<defs>
					<rect id="SVGID_7_" x="-107.9" y="-0.5" width="515.9" height="300.9"/>
				</defs>
				<clipPath id="SVGID_8_">
					<use xlink:href="#SVGID_7_"  style="overflow:visible;"/>
				</clipPath>
				<rect x="-107.9" y="-0.5" class="st11" width="515.9" height="300.9"/>
				<rect x="-107.9" y="49.7" class="st12" width="515.9" height="50.1"/>
				<rect x="-107.9" y="99.8" class="st13" width="515.9" height="50.2"/>
				<rect x="-107.9" y="200.2" class="st12" width="515.9" height="50.2"/>
				<rect x="-107.9" y="250.3" class="st13" width="515.9" height="50.2"/>
				<g class="st11">
					<defs>
						<rect id="SVGID_9_" x="-107.9" y="-0.5" width="515.9" height="300.9"/>
					</defs>
					<clipPath id="SVGID_10_">
						<use xlink:href="#SVGID_9_"  style="overflow:visible;"/>
					</clipPath>
					<path class="st14" d="M196.8,150c0,25.9-21,46.8-46.8,46.8c-25.9,0-46.9-21-46.9-46.8s21-46.9,46.9-46.9
						C175.9,103.1,196.8,124.1,196.8,150L196.8,150z"/>
					<g class="st15">
						<path d="M150,197.1c-26,0-47.1-21.1-47.1-47.1s21.1-47.1,47.1-47.1c26,0,47.1,21.1,47.1,47.1S176,197.1,150,197.1L150,197.1z
							 M150,103.4c-25.7,0-46.6,20.9-46.6,46.6c0,25.7,20.9,46.6,46.6,46.6c25.7,0,46.6-20.9,46.6-46.6
							C196.6,124.3,175.7,103.4,150,103.4L150,103.4z"/>
					</g>
					<path class="st16" d="M141.7,114.1l-3-5.6c1.2-1.2,3.1-2.1,6.3-2.1c0,0.2-0.3,6.1-0.3,6.1L141.7,114.1z"/>
					<g class="st15">
						<path d="M141.6,114.4l-3.2-5.8c1.5-1.7,3.7-2.4,6.5-2.4c0.2,0.5-0.1,6.4-0.1,6.4L141.6,114.4L141.6,114.4z M144.7,106.4
							c-2.4,0.3-4.6,0.9-5.9,2.3l3,5.1l2.7-1.4C144.4,112.2,144.7,106.6,144.7,106.4L144.7,106.4z"/>
					</g>
					<path class="st17" d="M144.7,112.6l0.4-6.2c0,0,6.3-0.4,9.7,3.7c0.1-0.1-3.4,4.8-3.4,4.8L144.7,112.6z"/>
					<g class="st15">
						<path d="M151.5,115.2l-7-2.4l0.3-6.7l0.6,0c1.5,0,6.5,0.3,9.5,3.8c0.1,0.2,0.1,0.2-3.3,5.1L151.5,115.2L151.5,115.2z
							 M145.5,106.6l-0.6,6l6.4,2c0.5-0.8,3.1-4.4,3.2-4.6C151.8,106.9,146.9,106.6,145.5,106.6L145.5,106.6z"/>
					</g>
					<path class="st16" d="M151.6,114.9l3.1-4.8c2.1,2.2,2.9,3.7,3.3,6.1c0,0-4.9,1.2-4.9,1.2C153,117.3,151.6,114.9,151.6,114.9
						L151.6,114.9z"/>
					<g class="st15">
						<path d="M153,117.6l-0.2-0.2c-0.1-0.2-1.3-2.2-1.4-2.4l3.1-5.1c2.5,2.2,3.4,3.8,3.7,6.2C158,116.6,153.1,117.6,153,117.6
							L153,117.6z M151.8,115c0.1,0,1,1.5,1.4,2.1c0.8-0.2,4.4-1,4.7-1.1c-0.5-2-1.3-3.5-3.3-5.7L151.8,115L151.8,115z"/>
					</g>
					<path class="st15" d="M143.3,194.2c0,0,5.8-6.7,17.1-5.2c-1.7-2.8-7.2-2.5-7.2-2.5s-1.7-13-0.4-13.6c1.3-0.6,7,0,7,0
						c0.8,0,2-2,1-3.3c-1-1.3-4-6.2-2.8-7.1c1.2-1,7.9,0.5,7.9,0.5l-18.8-24.1c0,0-1.9-9.1,1.9-13.4c4.6-3.8,4.1-8,4-7.9
						c-0.6-4.2-7-7.3-11.4-3.4c-2.6,3.1-0.9,5.4-0.9,5.4s-6.7,1.8-7,3c-0.3,1.2,7.6-0.2,7.6-0.2l-0.8,5.4c0,0-15.3,13.9-3.6,25.9
						c0.1-0.1,0.4-0.5,0.4-0.5s4.1,5.1,8.4,6.2c4,4.2,3.7,3.5,3.7,3.5s0.8,6.6,0,7.9c-1-0.3-11.4-0.7-12.9-0.1
						c-1.4,0.4-6.7,0.2-5.4,8.9c1-2.3,1.9-4.4,1.9-4.4s-0.2,3.2,1.1,4.3c-0.2-3.3,1.2-5.5,1.2-5.5s0.3,3.6,1.1,4.2
						c0.8,0.5,0.8-5.9,5.2-5.3c4.4,0.5,7.6,0.4,7.6,0.4s1.5,12.5,1,13.7c-3.2-0.8-10.8,0.3-11.3,2.2c4.5-0.3,6.6,0.3,6.6,0.3
						S142.2,192.3,143.3,194.2L143.3,194.2z"/>
					<g class="st15">
						<path d="M143.2,194.6l-0.2-0.3c-1.1-1.8,1.5-4.4,2.3-5.2c-0.5,0.1-1.7-0.1-3.8-0.1c-0.7,0-1.5,0-2.4,0.1
							c0.2-2.7,8.4-3.4,11.4-2.7c0-0.7-0.7-8.3-1.3-13.3c-0.5,0.2-3.6,0.1-7.4-0.3c0,0,0,0,0,0c-2.9,0-3.7,2.5-4.2,4
							c-0.3,0.9-0.4,1.3-0.8,1.3c-0.9-0.5-1.3-2.8-1.4-4c-0.2,0.8-0.9,2.7-0.8,5c-1.8-1-1.6-4.1-1.6-4.3l-1.4,4.5
							c-1.7-7.9,2.5-8.7,4.4-9.1c0.3,0,0.5-0.1,0.6-0.1c0.7-0.3,2.9-0.3,4.7-0.3c3.5,0,7.7,0.2,8.4,0.4c0.3-0.8-0.1-5.2-0.4-7.5h0
							c-0.1,0-0.8-0.6-3.6-3.5c-4-1-7.8-5.5-8.4-6.1l0.3-0.4c0,0,4.1,5,8.3,6.1c3.1,3.1,3.6,3.5,3.7,3.6c0.3,1.3,0.9,6.9,0.2,8.2
							c-1.4-0.1-11.8-0.5-13,0c-0.2,0.1-0.4,0.1-0.7,0.2c-2,0.4-5.7,1-4.5,8.4l1.4-4.5c0.5,0.1,0.3,3.2,1.5,4.2
							c-0.6-3.2,0.8-5.4,0.9-5.5c0.6,1.6,0.9,3.8,1.4,4.1c0-0.1,0.2-0.6,0.3-1c0.5-1.7,1.5-4.4,4.3-4.4c5.2,0.6,8.1,0.4,8.1,0.4
							c0.4,1.5,1.8,12.9,1.3,14.1c-0.9,0-1.8-0.1-2.8-0.1c-3.7,0-8.1,1-8.5,2.3c0.6-0.4,1.4-0.4,2.2-0.4c2.8,0,4.2,0.3,4.2,0.4
							c-0.8,1.2-2.9,3.4-2.5,4.9c1.3-1.3,7.1-6.3,17.1-5c-1.6-1.8-5.5-2-6.7-2l-0.8-0.2c-0.4-3.1-1.6-13.2-0.2-13.9
							c1.2-0.6,7.1,0,7.1,0c0.2,0,0.6-0.4,0.9-0.9c0.1-0.3,0.5-1.2-0.1-2c-0.7-0.9-3.3-4.9-3.1-6.8c0-0.3,0.2-0.6,0.4-0.8
							c1.2-0.9,7.9,0.4,8.1,0.5L146.9,139c-0.1-0.5-1.9-9.3,1.9-13.8c4.2-3.5,4.1-7.2,4-7.7c-0.7-4.3-7.3-6.6-11-3.3
							c-2.4,2.9-0.9,5-0.8,5.1c-3.4,1.3-6.8,2.5-7,3.2l0,0c0,0,0.2,0.2,1.3,0.2c2.2,0,6-0.7,6-0.7l-0.5,5.7c-0.2,0.2-7.7,7.2-8,15.4
							c-0.1,3.8,1.3,7.2,4.3,10.3l0,0c0.1,0.4,0,0.4-0.1,0.4c-3.4-3.2-4.9-6.8-4.8-10.7c0.3-8.4,8-15.5,8.1-15.6l0.7-5.2
							c-0.2,0.3-3.7,0.9-5.8,0.9c-1.2,0-1.5-0.2-1.7-0.4c0.2-1.6,5.7-3.2,7-3.6c-0.4-0.2-1.6-2.5,0.8-5.4c4-3.7,11.1-1,11.8,3.5
							c0.2,0.6,0.4,4.5-4.1,8.2c-3.7,4.2-1.9,13.1-1.8,13.2l18.8,24c-0.3,0.4-4.1-0.5-6.4-0.5c-1,0-1.4,0.2-1.5,0.3
							c-0.4,1.9,1.9,5.6,2.8,6.8c0.5,0.7,0.6,1.6,0.1,2.5c-0.3,0.6-0.8,1.2-1.3,1.2c0,0-2.7-0.3-4.7-0.3c-1.3,0-1.9,0.1-2.1,0.2
							c-0.7,0.4-0.3,7.2,0.5,13.4c1.9-0.2,5.7,0,7.2,2.3c-1.3,0.2-2.4,0.2-3.4,0.2c-9,0-13.7,5.3-13.8,5.3L143.2,194.6L143.2,194.6z
							"/>
					</g>
					<path class="st18" d="M145.1,125.8c0,0-11.1,12.2-6.3,21.6c0.3-1.3,0.1-2.1,0.3-2.1c-0.3-0.2,1.4,1.1,1.3,0.9
						c0-0.7-0.5-2.1-0.5-2.1c0.5,0.1,1,0.3,1.5,0.4c-0.3-0.5-0.6-1.1-0.9-1.6c0.7,0.1,1.4,0.2,2.1,0.3c0,0-0.8-2-0.5-2
						c0.3,0,1.8,0.1,1.8,0.1C140.7,135.5,143.6,130.8,145.1,125.8L145.1,125.8z"/>
					<g class="st15">
						<path class="st19" d="M138.9,148.1l-0.3-0.7c-4.8-9.4,6.2-21.8,6.3-21.9c0.1,1.3-0.2,2.3-0.6,3.3c-1.4,4-2.7,7.7-0.3,12.2
							c-0.2,0.4-1.7,0.2-2,0.2c0.2,0,0.5,0.9,0.8,1.7l-2.4,0.1l1.1,1.3l-1.3,0.1c0,0,0-0.1,0-0.1c0,0,0.4,1.2,0.4,1.8
							c-0.5,0.3-1.7-0.7-1.7-0.7c0.3,0.7,0.3,1.3,0.1,1.9L138.9,148.1L138.9,148.1z M144.8,125.9c-0.8,1.5-9.7,12.2-6.1,20.6
							c0-0.3,0-0.5,0.1-0.7l0.3-0.8c0.4,0.2,1.2,0.8,1.4,0.9c-0.3-0.3-0.6-1.4-0.8-1.8l-0.2-0.4l2,0.5l-1.2-1.3l2.4-0.1
							c-1-1.6-0.8-1.8-0.8-1.9c0.5-0.1,2,0,2,0c-2.8-4.2-1.4-8.3,0-12.2C144.2,127.8,144.5,126.8,144.8,125.9L144.8,125.9z"/>
					</g>
					<path class="st18" d="M148.9,115.3c0,0,0.6,4.2-1.7,5.4c-0.4,0.3-1.8,0.8-1.6,1.6c0.3,1.2,0.9,1,1.8,0.8
						C149.9,122.6,152.6,117.5,148.9,115.3L148.9,115.3z"/>
					<g class="st15">
						<path class="st19" d="M146.5,123.5c-0.6,0-0.9-0.3-1.1-1.1c-0.2-0.9,0.8-1.4,1.4-1.7c2.5-1.3,1.9-5.3,1.9-5.4
							c1.9,0.7,2.5,2.1,2.2,3.9c-0.4,1.9-1.9,3.8-3.4,4.1C147.1,123.4,146.8,123.5,146.5,123.5L146.5,123.5z M148.9,115.5
							c0.4,0.5,0.7,4.2-1.6,5.4c-1,0.5-1.6,0.9-1.5,1.3c0.2,0.7,0.4,0.7,0.6,0.7l0,0c0.2,0,0.5-0.1,0.8-0.1c1.4-0.3,2.8-2,3.1-3.7
							C150.6,118.2,150.6,116.6,148.9,115.5L148.9,115.5z"/>
					</g>
					<path class="st20" d="M144.8,118.9c0,0.5-0.4,0.9-0.9,0.9c-0.5,0-0.9-0.4-0.9-0.9c0-0.5,0.4-0.9,0.9-0.9
						C144.4,118,144.8,118.4,144.8,118.9L144.8,118.9z"/>
					<path class="st16" d="M141.2,122.4c-0.6,0.5-3.7,3.7-0.6,4.9c3.1-0.9,2.3-1.4,3-2.1C143.6,123.7,142,123.3,141.2,122.4
						L141.2,122.4z"/>
					<g class="st15">
						<path d="M140.6,127.5L140.6,127.5c-0.9-0.4-1.4-0.9-1.5-1.6c-0.3-1.5,1.5-3.4,2-3.8c0.6,0.3,0.9,0.5,1.3,0.8
							c0.7,0.5,1.5,1,1.5,2.1l-0.4,0.6C143.3,126.4,142.9,126.9,140.6,127.5L140.6,127.5L140.6,127.5z M141.1,122.6
							c-0.2,0.5-1.7,2.1-1.5,3.3c0.1,0.5,0.4,0.9,1.1,1.1c2.1-0.6,2.2-1,2.4-1.4c0.1-0.2,0.2-0.4,0.4-0.6c-0.1-0.7-0.7-1.1-1.4-1.5
							C141.7,123.1,141.3,122.9,141.1,122.6L141.1,122.6z"/>
					</g>
					<path class="st18" d="M148,152.7c-0.2,0.7-0.8,3.2,0.1,5.2c2.7-1.1,3.9-0.8,4.8-0.2C150.7,155.9,149.9,155.2,148,152.7
						L148,152.7z"/>
					<g class="st15">
						<path class="st19" d="M148,158.2l-0.1-0.2c-0.9-1.9-0.4-4.4-0.2-5.3c0,0,0.1,0.1,0.1,0.1c0.2,0.9-0.3,3,0.4,4.8
							c1.9-0.8,3.2-0.9,4.3-0.4c-2.1-1.2-3-2-4.7-4.4c2.3,2.2,3.1,2.9,5.3,4.7c-0.8,0-1.3-0.1-2-0.1c-0.8,0-1.7,0.2-2.9,0.7
							L148,158.2L148,158.2z"/>
					</g>
					<path class="st20" d="M152.6,164.8l0.2,6c0,0,2.1,0.4,3,0C156.7,170.4,155.7,166.6,152.6,164.8L152.6,164.8z"/>
					<g class="st15">
						<path class="st9" d="M154.6,171.2c-0.9,0-1.9-0.2-1.9-0.2l-0.4-6.2c2.9,1.2,4.1,4,4,5.3c0,0.6-0.3,0.8-0.5,0.9
							C155.5,171.1,155.1,171.2,154.6,171.2L154.6,171.2z M153.2,170.6c0.6,0,1.9,0.1,2.4-0.1c0.3-1.7-0.9-4.2-3.2-5.5l0.5,5.7
							C153,170.6,153.1,170.6,153.2,170.6L153.2,170.6z"/>
					</g>
					<path class="st18" d="M167.7,165.5c0,0-3.8-9.3-13.7-11.6c-9.8-2.3-8.5-12.8-7.7-13.4c0.4-0.9,0.7-2.3,3.6-1
						c2.8,1.3,15.8,7.9,17.7,8.2C169.4,148,167.8,165.7,167.7,165.5L167.7,165.5z"/>
					<g class="st15">
						<path d="M167.7,165.8l-0.2-0.2c-0.2-0.4-4-9.2-13.5-11.5c-5.6-1.3-7.5-5.1-8.2-8.1c-0.6-2.7-0.2-5.4,0.3-5.8
							c0.4-1.1,1.3-2.2,3.8-1l3.3,1.6c4.9,2.4,13,6.4,14.4,6.6c1.7,0.3,1,10.7,0.6,15.2C168,165.8,167.9,165.8,167.7,165.8
							L167.7,165.8z M147.9,139.2c-0.8,0-1.1,0.5-1.3,1.1c-0.4,0.5-1,3-0.3,5.9c0.7,2.7,2.6,6.2,7.7,7.4c8.2,2,12.3,8.8,13.5,11.1
							c0.4-3.1,1.2-14.8,0.1-16.6c-1.5-0.4-8.1-3.6-14.7-6.8l-3.2-1.6C149,139.4,148.4,139.2,147.9,139.2L147.9,139.2z"/>
					</g>
					<path class="st16" d="M158.3,153.8c-0.2,0.1,13.1,7.9,9.1,14.5c3.8-2.5,2.6-6.9,2.6-6.9s3.1,8.1-4.4,12
						c0.8,0.7,1.3,0.5,1.3,0.5l-1.3,1.3c0,0-0.6,1,4.5-1.5c-1.4,1.1-1.5,1.9-1.5,1.9s0.4,1.1,3.7-1.8c-2.7,2.9-3.3,4.4-3.3,4.3
						c7.2-0.6,22.9-24.1-5-31c1.5,1.6,1.3,1.3,1.3,1.3L158.3,153.8z"/>
					<g class="st15">
						<path d="M168.6,178.5l0.2-0.4l0.2,0.1l-0.2-0.2c0.4-0.8,1.1-1.7,1.9-2.8c-0.7,0.6-1.3,0.9-1.7,0.9h-0.2l-0.5-0.4
							c0-0.2,0.1-1.1,1.6-2.2c-2.1,1.5-3.6,2.1-4.1,2.1l-0.4-0.6l1.1-1.1c-0.3,0.1-0.7,0-1.1-0.4c4.7-2.7,5.2-6.8,4.9-9.5
							c-0.1,1.4-0.8,3.2-2.7,4.4c1.2-2.9,0.9-7.4-8.8-14.1c-0.7-0.5-0.7-0.5-0.7-0.6l7.2-5.5l-1.3-1c15,3.3,16.6,11.4,16.3,15.9
							c-0.6,7.7-7.3,14.8-11.1,15.1L168.6,178.5L168.6,178.5z M172.1,173.7c-1,1.7-2,3.1-2.6,4.2c3.8-0.8,9.6-7.4,10.2-14.6
							c0.6-7.5-5-13.2-15.7-15.8c1.7,1,1.7,1,1.6,1.2l-6.9,5.2c0.1,0,0.2,0.1,0.3,0.2c8.1,5.6,11,10.4,8.6,14.4
							c3.2-2.7,2.1-6.9,2.1-6.9h0c0,0,0,0,0.1,0c0.1,0,0.2,0.2,0.3,0.4c0.8,1.7,2.2,8.3-4.4,11.7c0.5,0,0.9,0.1,1.1,0.1l0,0.1l0,0
							c0,0,0,0-0.1,0.1l-0.9,1.6c0.3-0.2,1.2-0.5,4.2-1.9c-1,1.5-1.2,2.2-1.2,2.2C169.4,175.7,170.2,175.4,172.1,173.7L172.1,173.7z
							"/>
					</g>
					<path class="st20" d="M158.9,151.5c1.8,1.3,2.4,1.7,2.7,2.3c-1.7-0.4-3.2-0.3-3.2-0.3s-3.6-3.4-4.2-3.7c-0.5,0-3.3-1.8-3.3-1.8
						c-1.4-0.7-2.7-5.5,2.5-4.1c5.3,2.5,6,2.7,6,2.7c2.1,0.6,4.2,1.3,6.3,2c1.2,1.4,2.4,2.7,3.6,4.1c0,0-6.5-3.2-7.3-3.3
						c1.8,1.4,2.8,3.4,2.8,3.4C162.8,152.4,161.1,151.9,158.9,151.5L158.9,151.5z"/>
					<g class="st15">
						<path d="M162,154.2l-0.4-0.1c-1-0.2-1.9-0.3-2.6-0.3l-0.7,0c-1.4-1.3-3.7-3.5-4.1-3.6h0c-0.4,0-2.6-1.4-3.3-1.8
							c-0.8-0.4-1.6-2.1-1.3-3.3c0.2-0.7,1.2-2,3.9-1.2c5.2,2.5,6,2.7,6,2.7l6.3,2l3.7,4.1c-2.8-0.8-6.9-2.8-7.5-2.8c2,1,3,3,3,3.1
							l0.3,0.5l-1-0.3c-1.8-0.5-3.5-1-5.4-1.3l-0.1-0.5c2,0.3,3.6,0.8,5.5,1.3c-0.3-0.4-1.2-1.8-2.5-2.8c1-0.4,6.9,2.5,7.5,2.8
							l-2.1-1.6l-1.8-2l-6.1-1.9c-0.1,0-0.9-0.3-6.1-2.7c-1.8-0.4-3-0.2-3.3,0.9c-0.2,1,0.4,2.4,1,2.8c1.3,0.8,2.9,1.7,3.1,1.7
							c0.8,0.3,4,3.4,4.4,3.8c0.8-0.1,1.6,0,2.5,0.1c-0.3-0.4-0.9-0.8-2-1.6l0-0.1c2,0.9,2.5,1.3,2.7,1.9L162,154.2L162,154.2z"/>
					</g>
					<path class="st15" d="M133.8,122.9c0,0,6.2-1.5,6.9-1.3L133.8,122.9z"/>
					<g class="st15">
						<path class="st9" d="M133.8,123.1l-0.1-0.5c1-0.3,6.2-1.5,7.1-1.3C140.2,121.7,136.4,122.5,133.8,123.1L133.8,123.1z"/>
					</g>
				</g>
			</g>
		</g>
		<g class="st0">
			<g>
				<defs>
					<rect id="SVGID_11_" x="-108.3" y="-0.7" width="516.6" height="301.4"/>
				</defs>
				<clipPath id="SVGID_12_">
					<use xlink:href="#SVGID_11_"  style="overflow:visible;"/>
				</clipPath>
				<rect x="-108.3" y="-0.7" class="st21" width="516.6" height="301.4"/>
				<rect x="-108.3" y="150" class="st22" width="516.6" height="150.7"/>
			</g>
		</g>
		<g class="st0">
			<g>
				<defs>
					<rect id="SVGID_13_" x="-20" y="-0.5" width="516" height="301"/>
				</defs>
				<clipPath id="SVGID_14_">
					<use xlink:href="#SVGID_13_"  style="overflow:visible;"/>
				</clipPath>
				<rect x="-20" y="-0.5" class="st23" width="150.5" height="301"/>
				<rect x="130.5" y="-0.5" class="st24" width="365.5" height="100.3"/>
				<rect x="130.5" y="99.8" class="st25" width="365.5" height="100.4"/>
				<rect x="130.5" y="200.2" class="st26" width="365.5" height="100.3"/>
			</g>
		</g>
		<g class="st0">
			<g>
				<defs>
					<rect id="SVGID_15_" x="-108.7" y="-0.9" width="517.3" height="301.8"/>
				</defs>
				<clipPath id="SVGID_16_">
					<use xlink:href="#SVGID_15_"  style="overflow:visible;"/>
				</clipPath>
				<rect x="-108.7" y="-0.9" class="st27" width="517.3" height="301.8"/>
				<polygon class="st28" points="237.7,108.2 408.7,12.5 408.7,-0.9 396.9,-0.9 202,108.2 				"/>
				<polygon class="st28" points="229.6,197.9 408.7,298 408.7,278 265.4,197.9 				"/>
				<polygon class="st28" points="-108.7,22.1 44.5,108.2 80.2,108.2 -108.7,2 				"/>
				<polygon class="st28" points="72.2,197.9 -108.7,299.1 -108.7,300.9 -76,300.9 107.9,197.9 				"/>
				<polygon class="st29" points="373.3,-0.9 192.1,-0.9 192.1,100.6 				"/>
				<polygon class="st29" points="112.1,-0.9 -68.3,-0.9 112.1,100.6 				"/>
				<polygon class="st29" points="408.7,108.2 408.7,39 285.8,108.2 				"/>
				<polygon class="st29" points="408.7,266.3 408.7,197.9 285.8,197.9 				"/>
				<polygon class="st29" points="-58,300.9 112.1,300.9 112.1,205.5 				"/>
				<polygon class="st29" points="192.1,300.9 362.8,300.9 192.1,205.5 				"/>
				<polygon class="st29" points="-108.7,197.9 -108.7,269.4 18.5,197.9 				"/>
				<polygon class="st29" points="-108.7,108.2 18.5,108.2 -108.7,36.5 				"/>
				<polygon class="st28" points="128.1,-0.9 128.1,126.2 -108.7,126.2 -108.7,179.9 128.1,179.9 128.1,300.9 176.1,300.9 
					176.1,179.9 408.7,179.9 408.7,126.2 176.1,126.2 176.1,-0.9 				"/>
			</g>
		</g>
		<g class="st0">
			<g>
				<defs>
					<rect id="SVGID_17_" y="-1.1" width="517.4" height="301.8"/>
				</defs>
				<clipPath id="SVGID_18_">
					<use xlink:href="#SVGID_17_"  style="overflow:visible;"/>
				</clipPath>
				<rect y="277.5" class="st30" width="517.4" height="23.2"/>
				<rect y="254.3" class="st31" width="517.4" height="23.2"/>
				<rect y="231.1" class="st30" width="517.4" height="23.2"/>
				<rect y="207.9" class="st31" width="517.4" height="23.2"/>
				<rect y="184.6" class="st30" width="517.4" height="23.2"/>
				<rect y="161.4" class="st31" width="517.4" height="23.2"/>
				<rect y="138.2" class="st30" width="517.4" height="23.2"/>
				<rect y="115" class="st31" width="517.4" height="23.2"/>
				<rect y="91.8" class="st30" width="517.4" height="23.2"/>
				<rect y="68.5" class="st31" width="517.4" height="23.2"/>
				<rect y="45.3" class="st30" width="517.4" height="23.2"/>
				<rect y="22.1" class="st31" width="517.4" height="23.2"/>
				<rect y="-1.1" class="st30" width="517.4" height="23.2"/>
				<rect y="-1.1" class="st32" width="236.2" height="162.5"/>
				<polygon class="st31" points="21.3,16.8 23.3,23 29.8,23 24.5,26.7 26.5,32.9 21.3,29.1 16.1,32.9 18.1,26.7 12.9,23 19.3,23 
									"/>
				<polygon class="st31" points="21.3,43.9 23.3,50.1 29.8,50.1 24.5,53.9 26.5,60 21.3,56.2 16.1,60 18.1,53.9 12.9,50.1 
					19.3,50.1 				"/>
				<polygon class="st31" points="21.3,71.1 23.3,77.2 29.8,77.2 24.5,81 26.5,87.1 21.3,83.3 16.1,87.1 18.1,81 12.9,77.2 
					19.3,77.2 				"/>
				<polygon class="st31" points="21.3,98.2 23.3,104.3 29.8,104.3 24.5,108.1 26.5,114.3 21.3,110.5 16.1,114.3 18.1,108.1 
					12.9,104.3 19.3,104.3 				"/>
				<polygon class="st31" points="21.3,125.3 23.3,131.5 29.8,131.5 24.5,135.3 26.5,141.4 21.3,137.6 16.1,141.4 18.1,135.3 
					12.9,131.5 19.3,131.5 				"/>
				<polygon class="st31" points="40.2,31.1 42.2,37.2 48.6,37.2 43.4,41 45.4,47.2 40.2,43.4 35,47.2 37,41 31.7,37.2 38.2,37.2 
									"/>
				<polygon class="st31" points="40.2,58.2 42.2,64.4 48.6,64.4 43.4,68.2 45.4,74.3 40.2,70.5 35,74.3 37,68.2 31.7,64.4 
					38.2,64.4 				"/>
				<polygon class="st31" points="40.2,85.4 42.2,91.5 48.6,91.5 43.4,95.3 45.4,101.4 40.2,97.6 35,101.4 37,95.3 31.7,91.5 
					38.2,91.5 				"/>
				<polygon class="st31" points="40.2,112.5 42.2,118.6 48.6,118.6 43.4,122.4 45.4,128.6 40.2,124.8 35,128.6 37,122.4 
					31.7,118.6 38.2,118.6 				"/>
				<polygon class="st31" points="59.3,16.8 61.3,23 67.8,23 62.6,26.7 64.6,32.9 59.3,29.1 54.1,32.9 56.1,26.7 50.9,23 57.3,23 
									"/>
				<polygon class="st31" points="59.3,43.9 61.3,50.1 67.8,50.1 62.6,53.9 64.6,60 59.3,56.2 54.1,60 56.1,53.9 50.9,50.1 
					57.3,50.1 				"/>
				<polygon class="st31" points="59.3,71.1 61.3,77.2 67.8,77.2 62.6,81 64.6,87.1 59.3,83.3 54.1,87.1 56.1,81 50.9,77.2 
					57.3,77.2 				"/>
				<polygon class="st31" points="59.3,98.2 61.3,104.3 67.8,104.3 62.6,108.1 64.6,114.3 59.3,110.5 54.1,114.3 56.1,108.1 
					50.9,104.3 57.3,104.3 				"/>
				<polygon class="st31" points="59.3,125.3 61.3,131.5 67.8,131.5 62.6,135.3 64.6,141.4 59.3,137.6 54.1,141.4 56.1,135.3 
					50.9,131.5 57.3,131.5 				"/>
				<polygon class="st31" points="78.2,31.1 80.2,37.2 86.7,37.2 81.5,41 83.4,47.2 78.2,43.4 73,47.2 75,41 69.8,37.2 76.2,37.2 
									"/>
				<polygon class="st31" points="78.2,58.2 80.2,64.4 86.7,64.4 81.5,68.2 83.4,74.3 78.2,70.5 73,74.3 75,68.2 69.8,64.4 
					76.2,64.4 				"/>
				<polygon class="st31" points="78.2,85.4 80.2,91.5 86.7,91.5 81.5,95.3 83.4,101.4 78.2,97.6 73,101.4 75,95.3 69.8,91.5 
					76.2,91.5 				"/>
				<polygon class="st31" points="78.2,112.5 80.2,118.6 86.7,118.6 81.5,122.4 83.4,128.6 78.2,124.8 73,128.6 75,122.4 
					69.8,118.6 76.2,118.6 				"/>
				<polygon class="st31" points="97.4,16.8 99.4,23 105.8,23 100.6,26.7 102.6,32.9 97.4,29.1 92.1,32.9 94.1,26.7 88.9,23 
					95.4,23 				"/>
				<polygon class="st31" points="97.4,43.9 99.4,50.1 105.8,50.1 100.6,53.9 102.6,60 97.4,56.2 92.1,60 94.1,53.9 88.9,50.1 
					95.4,50.1 				"/>
				<polygon class="st31" points="97.4,71.1 99.4,77.2 105.8,77.2 100.6,81 102.6,87.1 97.4,83.3 92.1,87.1 94.1,81 88.9,77.2 
					95.4,77.2 				"/>
				<polygon class="st31" points="97.4,98.2 99.4,104.3 105.8,104.3 100.6,108.1 102.6,114.3 97.4,110.5 92.1,114.3 94.1,108.1 
					88.9,104.3 95.4,104.3 				"/>
				<polygon class="st31" points="97.4,125.3 99.4,131.5 105.8,131.5 100.6,135.3 102.6,141.4 97.4,137.6 92.1,141.4 94.1,135.3 
					88.9,131.5 95.4,131.5 				"/>
				<polygon class="st31" points="116.3,31.1 118.3,37.2 124.7,37.2 119.5,41 121.5,47.2 116.3,43.4 111,47.2 113,41 107.8,37.2 
					114.3,37.2 				"/>
				<polygon class="st31" points="116.3,58.2 118.3,64.4 124.7,64.4 119.5,68.2 121.5,74.3 116.3,70.5 111,74.3 113,68.2 
					107.8,64.4 114.3,64.4 				"/>
				<polygon class="st31" points="116.3,85.4 118.3,91.5 124.7,91.5 119.5,95.3 121.5,101.4 116.3,97.6 111,101.4 113,95.3 
					107.8,91.5 114.3,91.5 				"/>
				<polygon class="st31" points="116.3,112.5 118.3,118.6 124.7,118.6 119.5,122.4 121.5,128.6 116.3,124.8 111,128.6 113,122.4 
					107.8,118.6 114.3,118.6 				"/>
				<polygon class="st31" points="135.4,16.8 137.4,23 143.8,23 138.6,26.7 140.6,32.9 135.4,29.1 130.2,32.9 132.2,26.7 126.9,23 
					133.4,23 				"/>
				<polygon class="st31" points="135.4,43.9 137.4,50.1 143.8,50.1 138.6,53.9 140.6,60 135.4,56.2 130.2,60 132.2,53.9 
					126.9,50.1 133.4,50.1 				"/>
				<polygon class="st31" points="135.4,71.1 137.4,77.2 143.8,77.2 138.6,81 140.6,87.1 135.4,83.3 130.2,87.1 132.2,81 
					126.9,77.2 133.4,77.2 				"/>
				<polygon class="st31" points="135.4,98.2 137.4,104.3 143.8,104.3 138.6,108.1 140.6,114.3 135.4,110.5 130.2,114.3 
					132.2,108.1 126.9,104.3 133.4,104.3 				"/>
				<polygon class="st31" points="135.4,125.3 137.4,131.5 143.8,131.5 138.6,135.3 140.6,141.4 135.4,137.6 130.2,141.4 
					132.2,135.3 126.9,131.5 133.4,131.5 				"/>
				<polygon class="st31" points="154.3,31.1 156.3,37.2 162.7,37.2 157.5,41 159.5,47.2 154.3,43.4 149.1,47.2 151.1,41 
					145.8,37.2 152.3,37.2 				"/>
				<polygon class="st31" points="154.3,58.2 156.3,64.4 162.7,64.4 157.5,68.2 159.5,74.3 154.3,70.5 149.1,74.3 151.1,68.2 
					145.8,64.4 152.3,64.4 				"/>
				<polygon class="st31" points="154.3,85.4 156.3,91.5 162.7,91.5 157.5,95.3 159.5,101.4 154.3,97.6 149.1,101.4 151.1,95.3 
					145.8,91.5 152.3,91.5 				"/>
				<polygon class="st31" points="154.3,112.5 156.3,118.6 162.7,118.6 157.5,122.4 159.5,128.6 154.3,124.8 149.1,128.6 
					151.1,122.4 145.8,118.6 152.3,118.6 				"/>
				<polygon class="st31" points="173.4,16.8 175.4,23 181.9,23 176.6,26.7 178.6,32.9 173.4,29.1 168.2,32.9 170.2,26.7 165,23 
					171.4,23 				"/>
				<polygon class="st31" points="173.4,43.9 175.4,50.1 181.9,50.1 176.6,53.9 178.6,60 173.4,56.2 168.2,60 170.2,53.9 165,50.1 
					171.4,50.1 				"/>
				<polygon class="st31" points="173.4,71.1 175.4,77.2 181.9,77.2 176.6,81 178.6,87.1 173.4,83.3 168.2,87.1 170.2,81 165,77.2 
					171.4,77.2 				"/>
				<polygon class="st31" points="173.4,98.2 175.4,104.3 181.9,104.3 176.6,108.1 178.6,114.3 173.4,110.5 168.2,114.3 
					170.2,108.1 165,104.3 171.4,104.3 				"/>
				<polygon class="st31" points="173.4,125.3 175.4,131.5 181.9,131.5 176.6,135.3 178.6,141.4 173.4,137.6 168.2,141.4 
					170.2,135.3 165,131.5 171.4,131.5 				"/>
				<polygon class="st31" points="192.3,31.1 194.3,37.2 200.8,37.2 195.5,41 197.5,47.2 192.3,43.4 187.1,47.2 189.1,41 
					183.9,37.2 190.3,37.2 				"/>
				<polygon class="st31" points="192.3,58.2 194.3,64.4 200.8,64.4 195.5,68.2 197.5,74.3 192.3,70.5 187.1,74.3 189.1,68.2 
					183.9,64.4 190.3,64.4 				"/>
				<polygon class="st31" points="192.3,85.4 194.3,91.5 200.8,91.5 195.5,95.3 197.5,101.4 192.3,97.6 187.1,101.4 189.1,95.3 
					183.9,91.5 190.3,91.5 				"/>
				<polygon class="st31" points="192.3,112.5 194.3,118.6 200.8,118.6 195.5,122.4 197.5,128.6 192.3,124.8 187.1,128.6 
					189.1,122.4 183.9,118.6 190.3,118.6 				"/>
				<polygon class="st31" points="211.4,16.8 213.4,23 219.9,23 214.7,26.7 216.7,32.9 211.4,29.1 206.2,32.9 208.2,26.7 203,23 
					209.4,23 				"/>
				<polygon class="st31" points="211.4,43.9 213.4,50.1 219.9,50.1 214.7,53.9 216.7,60 211.4,56.2 206.2,60 208.2,53.9 203,50.1 
					209.4,50.1 				"/>
				<polygon class="st31" points="211.4,71.1 213.4,77.2 219.9,77.2 214.7,81 216.7,87.1 211.4,83.3 206.2,87.1 208.2,81 203,77.2 
					209.4,77.2 				"/>
				<polygon class="st31" points="211.4,98.2 213.4,104.3 219.9,104.3 214.7,108.1 216.7,114.3 211.4,110.5 206.2,114.3 
					208.2,108.1 203,104.3 209.4,104.3 				"/>
				<polygon class="st31" points="211.4,125.3 213.4,131.5 219.9,131.5 214.7,135.3 216.7,141.4 211.4,137.6 206.2,141.4 
					208.2,135.3 203,131.5 209.4,131.5 				"/>
			</g>
		</g>
	</g>
</g>
</svg>
