<?xml version="1.0" encoding="utf-8"?>
<!-- Generator: Adobe Illustrator 22.1.0, SVG Export Plug-In . SVG Version: 6.00 Build 0)  -->
<svg version="1.1" xmlns="http://www.w3.org/2000/svg" xmlns:xlink="http://www.w3.org/1999/xlink" x="0px" y="0px"
	 viewBox="0 0 300 300" style="enable-background:new 0 0 300 300;" xml:space="preserve">
<style type="text/css">
	.st0{clip-path:url(#SVGID_2_);}
	.st1{clip-path:url(#SVGID_2_);fill:#80A7D8;}
	.st2{clip-path:url(#SVGID_4_);fill:#80A7D8;}
	.st3{clip-path:url(#SVGID_4_);fill-rule:evenodd;clip-rule:evenodd;fill:#F3D02F;}
	.st4{clip-path:url(#SVGID_4_);fill:#1B257D;}
	.st5{clip-path:url(#SVGID_4_);fill:#FFFFFF;}
	.st6{clip-path:url(#SVGID_4_);fill:#C0003B;}
	.st7{clip-path:url(#SVGID_4_);fill-rule:evenodd;clip-rule:evenodd;fill:#C0003B;}
	.st8{clip-path:url(#SVGID_6_);}
	.st9{fill:#FFFFFF;}
	.st10{fill:#CA1024;}
	.st11{clip-path:url(#SVGID_8_);}
	.st12{clip-path:url(#SVGID_8_);fill:#F8E82A;}
	.st13{clip-path:url(#SVGID_8_);fill:#CC3220;}
	.st14{clip-path:url(#SVGID_10_);fill:#FFFCFF;}
	.st15{clip-path:url(#SVGID_10_);}
	.st16{clip-path:url(#SVGID_10_);fill:#CC2920;}
	.st17{clip-path:url(#SVGID_10_);fill:#F8E82A;}
	.st18{clip-path:url(#SVGID_10_);fill:#9BA49A;}
	.st19{fill:#9BA49A;}
	.st20{clip-path:url(#SVGID_10_);fill:#FFFFFF;}
	.st21{clip-path:url(#SVGID_12_);fill:#4D72C0;}
	.st22{clip-path:url(#SVGID_12_);fill:#F2DD30;}
	.st23{clip-path:url(#SVGID_14_);fill:#BC0030;}
	.st24{clip-path:url(#SVGID_14_);fill:#3F9B13;}
	.st25{clip-path:url(#SVGID_14_);fill:#FFFFFF;}
	.st26{clip-path:url(#SVGID_14_);}
	.st27{clip-path:url(#SVGID_16_);fill:#FFFFFF;}
	.st28{clip-path:url(#SVGID_16_);fill:#BD0034;}
	.st29{clip-path:url(#SVGID_16_);fill:#1A237B;}
	.st30{clip-path:url(#SVGID_18_);fill:#CB001C;}
	.st31{clip-path:url(#SVGID_18_);fill:#FFFFFF;}
	.st32{clip-path:url(#SVGID_18_);fill:#2A3560;}
	.st33{clip-path:url(#SVGID_20_);fill:#FFFFFF;}
	.st34{clip-path:url(#SVGID_20_);fill:#3E73B7;}
	.st35{clip-path:url(#SVGID_20_);}
	.st36{clip-path:url(#SVGID_22_);fill-rule:evenodd;clip-rule:evenodd;fill:#EAC126;}
	.st37{clip-path:url(#SVGID_22_);fill:#292C2F;}
	.st38{clip-path:url(#SVGID_22_);fill-rule:evenodd;clip-rule:evenodd;fill:#292C2F;}
	.st39{clip-path:url(#SVGID_24_);fill:#4497B1;}
	.st40{clip-path:url(#SVGID_24_);fill:#BC0030;}
	.st41{clip-path:url(#SVGID_24_);fill:#FFFFFF;}
	.st42{clip-path:url(#SVGID_24_);fill:#50B63F;}
	.st43{clip-path:url(#SVGID_24_);}
	.st44{clip-path:url(#SVGID_26_);fill:#FFFFFF;}
	.st45{clip-path:url(#SVGID_26_);fill:#4497B1;}
	.st46{clip-path:url(#SVGID_28_);fill:#C0003B;}
	.st47{clip-path:url(#SVGID_28_);fill:#3D9546;}
	.st48{clip-path:url(#SVGID_28_);}
	.st49{clip-path:url(#SVGID_28_);fill:#F5CD28;}
	.st50{clip-path:url(#SVGID_30_);fill:#F3CD2D;}
	.st51{clip-path:url(#SVGID_30_);}
	.st52{fill:#F3CD2D;}
</style>
<g id="Layer_2">
</g>
<g id="Layer_1">
	<g>
		<defs>
			<rect id="SVGID_1_" y="-0.1" width="300" height="300"/>
		</defs>
		<clipPath id="SVGID_2_">
			<use xlink:href="#SVGID_1_"  style="overflow:visible;"/>
		</clipPath>
		<g id="Layer_2_1_" class="st0">
		</g>
		<rect x="-1" y="-0.7" class="st1" width="302" height="301.4"/>
		<g class="st0">
			<defs>
				<rect id="SVGID_3_" width="354.9" height="207"/>
			</defs>
			<clipPath id="SVGID_4_">
				<use xlink:href="#SVGID_3_"  style="display:none;overflow:visible;"/>
			</clipPath>
			<rect class="st2" width="354.9" height="207"/>
			<polygon class="st3" points="280.7,91.1 270.5,84.1 260.2,91.1 264.1,79.8 253.9,72.8 266.6,72.9 270.5,61.5 274.3,72.9 
				287,72.8 276.8,79.8 			"/>
			<polygon class="st3" points="249,181.3 238.7,174.3 228.5,181.3 232.4,170 222.2,163 234.8,163 238.7,151.7 242.6,163 255.3,163 
				245,170 			"/>
			<polygon class="st3" points="280.7,160.9 270.5,153.9 260.2,160.9 264.1,149.6 253.9,142.6 266.6,142.6 270.5,131.3 274.3,142.6 
				287,142.6 276.8,149.6 			"/>
			<polygon class="st3" points="144.3,226.3 134.1,219.3 123.9,226.3 127.8,215 117.6,208 130.2,208 134.1,196.7 138,208 150.6,208 
				140.4,215 			"/>
			<polygon class="st3" points="160.3,154.7 170.6,161.7 180.8,154.7 176.9,166 187.1,173 174.4,173 170.6,184.3 166.7,173 154,173 
				164.3,166 			"/>
			<polygon class="st3" points="197.6,103.2 207.8,110.2 218,103.2 214.1,114.5 224.3,121.5 211.7,121.4 207.8,132.8 203.9,121.4 
				191.3,121.5 201.5,114.5 			"/>
			<polygon class="st3" points="228.9,92.5 239.1,99.5 249.4,92.5 245.4,103.8 255.7,110.8 243,110.7 239.1,122.1 235.2,110.7 
				222.6,110.8 232.8,103.8 			"/>
			<polygon class="st3" points="197.6,181.7 207.8,188.6 218,181.7 214.1,193 224.3,199.9 211.7,199.9 207.8,211.2 203.9,199.9 
				191.3,199.9 201.5,193 			"/>
			<polygon class="st3" points="160.3,190.8 170.6,197.8 180.8,190.8 176.9,202.1 187.1,209.1 174.4,209.1 170.6,220.4 166.7,209 
				154,209.1 164.3,202.1 			"/>
			<rect class="st4" width="177.4" height="88.7"/>
			<polygon class="st5" points="157.6,0 0,78.8 0,88.7 19.8,88.7 177.4,9.9 177.4,0 			"/>
			<polygon class="st5" points="0,0 0,9.9 157.6,88.7 177.4,88.7 177.4,78.8 19.8,0 			"/>
			<polygon class="st5" points="73.9,0 73.9,29.6 0,29.6 0,59.1 73.9,59.1 73.9,88.7 103.5,88.7 103.5,59.1 177.4,59.1 177.4,29.6 
				103.5,29.6 103.5,0 			"/>
			<polygon class="st6" points="79.8,0 79.8,35.5 0,35.5 0,53.2 79.8,53.2 79.8,88.7 97.6,88.7 97.6,53.2 177.4,53.2 177.4,35.5 
				97.6,35.5 97.6,0 			"/>
			<polygon class="st7" points="105.1,29.6 118.3,29.6 177.4,0 164.2,0 			"/>
			<polygon class="st6" points="0,6.6 45.9,29.6 59.1,29.6 0,0 			"/>
			<polygon class="st7" points="177.4,88.7 177.4,82.1 131.5,59.1 118.3,59.1 			"/>
			<polygon class="st6" points="59.1,59.1 0,88.7 13.2,88.7 72.4,59.1 			"/>
		</g>
		<g class="st0">
			<g>
				<defs>
					<rect id="SVGID_5_" x="-27" y="-0.1" width="514.3" height="300"/>
				</defs>
				<clipPath id="SVGID_6_">
					<use xlink:href="#SVGID_5_"  style="display:none;overflow:visible;"/>
				</clipPath>
				<g class="st8">
					<rect x="-109" y="-0.1" width="171.4" height="300"/>
					<rect x="62.4" y="-0.1" class="st9" width="171.4" height="300"/>
					<rect x="233.8" y="-0.1" class="st10" width="171.4" height="300"/>
					<polygon class="st10" points="122.3,78.5 217.6,173.7 74.7,173.7 169.9,78.5 169.9,221.3 74.7,126.1 217.6,126.1 122.3,221.3 
											"/>
				</g>
			</g>
		</g>
		<g class="st0">
			<g>
				<defs>
					<rect id="SVGID_7_" x="-107.9" y="-0.5" width="515.9" height="300.9"/>
				</defs>
				<clipPath id="SVGID_8_">
					<use xlink:href="#SVGID_7_"  style="overflow:visible;"/>
				</clipPath>
				<rect x="-107.9" y="-0.5" class="st11" width="515.9" height="300.9"/>
				<rect x="-107.9" y="49.7" class="st12" width="515.9" height="50.1"/>
				<rect x="-107.9" y="99.8" class="st13" width="515.9" height="50.2"/>
				<rect x="-107.9" y="200.2" class="st12" width="515.9" height="50.2"/>
				<rect x="-107.9" y="250.3" class="st13" width="515.9" height="50.2"/>
				<g class="st11">
					<defs>
						<rect id="SVGID_9_" x="-107.9" y="-0.5" width="515.9" height="300.9"/>
					</defs>
					<clipPath id="SVGID_10_">
						<use xlink:href="#SVGID_9_"  style="overflow:visible;"/>
					</clipPath>
					<path class="st14" d="M196.8,150c0,25.9-21,46.8-46.8,46.8c-25.9,0-46.9-21-46.9-46.8s21-46.9,46.9-46.9
						C175.9,103.1,196.8,124.1,196.8,150L196.8,150z"/>
					<g class="st15">
						<path d="M150,197.1c-26,0-47.1-21.1-47.1-47.1s21.1-47.1,47.1-47.1c26,0,47.1,21.1,47.1,47.1S176,197.1,150,197.1L150,197.1z
							 M150,103.4c-25.7,0-46.6,20.9-46.6,46.6c0,25.7,20.9,46.6,46.6,46.6c25.7,0,46.6-20.9,46.6-46.6
							C196.6,124.3,175.7,103.4,150,103.4L150,103.4z"/>
					</g>
					<path class="st16" d="M141.7,114.1l-3-5.6c1.2-1.2,3.1-2.1,6.3-2.1c0,0.2-0.3,6.1-0.3,6.1L141.7,114.1z"/>
					<g class="st15">
						<path d="M141.6,114.4l-3.2-5.8c1.5-1.7,3.7-2.4,6.5-2.4c0.2,0.5-0.1,6.4-0.1,6.4L141.6,114.4L141.6,114.4z M144.7,106.4
							c-2.4,0.3-4.6,0.9-5.9,2.3l3,5.1l2.7-1.4C144.4,112.2,144.7,106.6,144.7,106.4L144.7,106.4z"/>
					</g>
					<path class="st17" d="M144.7,112.6l0.4-6.2c0,0,6.3-0.4,9.7,3.7c0.1-0.1-3.4,4.8-3.4,4.8L144.7,112.6z"/>
					<g class="st15">
						<path d="M151.5,115.2l-7-2.4l0.3-6.7l0.6,0c1.5,0,6.5,0.3,9.5,3.8c0.1,0.2,0.1,0.2-3.3,5.1L151.5,115.2L151.5,115.2z
							 M145.5,106.6l-0.6,6l6.4,2c0.5-0.8,3.1-4.4,3.2-4.6C151.8,106.9,146.9,106.6,145.5,106.6L145.5,106.6z"/>
					</g>
					<path class="st16" d="M151.6,114.9l3.1-4.8c2.1,2.2,2.9,3.7,3.3,6.1c0,0-4.9,1.2-4.9,1.2C153,117.3,151.6,114.9,151.6,114.9
						L151.6,114.9z"/>
					<g class="st15">
						<path d="M153,117.6l-0.2-0.2c-0.1-0.2-1.3-2.2-1.4-2.4l3.1-5.1c2.5,2.2,3.4,3.8,3.7,6.2C158,116.6,153.1,117.6,153,117.6
							L153,117.6z M151.8,115c0.1,0,1,1.5,1.4,2.1c0.8-0.2,4.4-1,4.7-1.1c-0.5-2-1.3-3.5-3.3-5.7L151.8,115L151.8,115z"/>
					</g>
					<path class="st15" d="M143.3,194.2c0,0,5.8-6.7,17.1-5.2c-1.7-2.8-7.2-2.5-7.2-2.5s-1.7-13-0.4-13.6c1.3-0.6,7,0,7,0
						c0.8,0,2-2,1-3.3c-1-1.3-4-6.2-2.8-7.1c1.2-1,7.9,0.5,7.9,0.5l-18.8-24.1c0,0-1.9-9.1,1.9-13.4c4.6-3.8,4.1-8,4-7.9
						c-0.6-4.2-7-7.3-11.4-3.4c-2.6,3.1-0.9,5.4-0.9,5.4s-6.7,1.8-7,3c-0.3,1.2,7.6-0.2,7.6-0.2l-0.8,5.4c0,0-15.3,13.9-3.6,25.9
						c0.1-0.1,0.4-0.5,0.4-0.5s4.1,5.1,8.4,6.2c4,4.2,3.7,3.5,3.7,3.5s0.8,6.6,0,7.9c-1-0.3-11.4-0.7-12.9-0.1
						c-1.4,0.4-6.7,0.2-5.4,8.9c1-2.3,1.9-4.4,1.9-4.4s-0.2,3.2,1.1,4.3c-0.2-3.3,1.2-5.5,1.2-5.5s0.3,3.6,1.1,4.2
						c0.8,0.5,0.8-5.9,5.2-5.3c4.4,0.5,7.6,0.4,7.6,0.4s1.5,12.5,1,13.7c-3.2-0.8-10.8,0.3-11.3,2.2c4.5-0.3,6.6,0.3,6.6,0.3
						S142.2,192.3,143.3,194.2L143.3,194.2z"/>
					<g class="st15">
						<path d="M143.2,194.6l-0.2-0.3c-1.1-1.8,1.5-4.4,2.3-5.2c-0.5,0.1-1.7-0.1-3.8-0.1c-0.7,0-1.5,0-2.4,0.1
							c0.2-2.7,8.4-3.4,11.4-2.7c0-0.7-0.7-8.3-1.3-13.3c-0.5,0.2-3.6,0.1-7.4-0.3c0,0,0,0,0,0c-2.9,0-3.7,2.5-4.2,4
							c-0.3,0.9-0.4,1.3-0.8,1.3c-0.9-0.5-1.3-2.8-1.4-4c-0.2,0.8-0.9,2.7-0.8,5c-1.8-1-1.6-4.1-1.6-4.3l-1.4,4.5
							c-1.7-7.9,2.5-8.7,4.4-9.1c0.3,0,0.5-0.1,0.6-0.1c0.7-0.3,2.9-0.3,4.7-0.3c3.5,0,7.7,0.2,8.4,0.4c0.3-0.8-0.1-5.2-0.4-7.5h0
							c-0.1,0-0.8-0.6-3.6-3.5c-4-1-7.8-5.5-8.4-6.1l0.3-0.4c0,0,4.1,5,8.3,6.1c3.1,3.1,3.6,3.5,3.7,3.6c0.3,1.3,0.9,6.9,0.2,8.2
							c-1.4-0.1-11.8-0.5-13,0c-0.2,0.1-0.4,0.1-0.7,0.2c-2,0.4-5.7,1-4.5,8.4l1.4-4.5c0.5,0.1,0.3,3.2,1.5,4.2
							c-0.6-3.2,0.8-5.4,0.9-5.5c0.6,1.6,0.9,3.8,1.4,4.1c0-0.1,0.2-0.6,0.3-1c0.5-1.7,1.5-4.4,4.3-4.4c5.2,0.6,8.1,0.4,8.1,0.4
							c0.4,1.5,1.8,12.9,1.3,14.1c-0.9,0-1.8-0.1-2.8-0.1c-3.7,0-8.1,1-8.5,2.3c0.6-0.4,1.4-0.4,2.2-0.4c2.8,0,4.2,0.3,4.2,0.4
							c-0.8,1.2-2.9,3.4-2.5,4.9c1.3-1.3,7.1-6.3,17.1-5c-1.6-1.8-5.5-2-6.7-2l-0.8-0.2c-0.4-3.1-1.6-13.2-0.2-13.9
							c1.2-0.6,7.1,0,7.1,0c0.2,0,0.6-0.4,0.9-0.9c0.1-0.3,0.5-1.2-0.1-2c-0.7-0.9-3.3-4.9-3.1-6.8c0-0.3,0.2-0.6,0.4-0.8
							c1.2-0.9,7.9,0.4,8.1,0.5L146.9,139c-0.1-0.5-1.9-9.3,1.9-13.8c4.2-3.5,4.1-7.2,4-7.7c-0.7-4.3-7.3-6.6-11-3.3
							c-2.4,2.9-0.9,5-0.8,5.1c-3.4,1.3-6.8,2.5-7,3.2l0,0c0,0,0.2,0.2,1.3,0.2c2.2,0,6-0.7,6-0.7l-0.5,5.7c-0.2,0.2-7.7,7.2-8,15.4
							c-0.1,3.8,1.3,7.2,4.3,10.3l0,0c0.1,0.4,0,0.4-0.1,0.4c-3.4-3.2-4.9-6.8-4.8-10.7c0.3-8.4,8-15.5,8.1-15.6l0.7-5.2
							c-0.2,0.3-3.7,0.9-5.8,0.9c-1.2,0-1.5-0.2-1.7-0.4c0.2-1.6,5.7-3.2,7-3.6c-0.4-0.2-1.6-2.5,0.8-5.4c4-3.7,11.1-1,11.8,3.5
							c0.2,0.6,0.4,4.5-4.1,8.2c-3.7,4.2-1.9,13.1-1.8,13.2l18.8,24c-0.3,0.4-4.1-0.5-6.4-0.5c-1,0-1.4,0.2-1.5,0.3
							c-0.4,1.9,1.9,5.6,2.8,6.8c0.5,0.7,0.6,1.6,0.1,2.5c-0.3,0.6-0.8,1.2-1.3,1.2c0,0-2.7-0.3-4.7-0.3c-1.3,0-1.9,0.1-2.1,0.2
							c-0.7,0.4-0.3,7.2,0.5,13.4c1.9-0.2,5.7,0,7.2,2.3c-1.3,0.2-2.4,0.2-3.4,0.2c-9,0-13.7,5.3-13.8,5.3L143.2,194.6L143.2,194.6z
							"/>
					</g>
					<path class="st18" d="M145.1,125.8c0,0-11.1,12.2-6.3,21.6c0.3-1.3,0.1-2.1,0.3-2.1c-0.3-0.2,1.4,1.1,1.3,0.9
						c0-0.7-0.5-2.1-0.5-2.1c0.5,0.1,1,0.3,1.5,0.4c-0.3-0.5-0.6-1.1-0.9-1.6c0.7,0.1,1.4,0.2,2.1,0.3c0,0-0.8-2-0.5-2
						c0.3,0,1.8,0.1,1.8,0.1C140.7,135.5,143.6,130.8,145.1,125.8L145.1,125.8z"/>
					<g class="st15">
						<path class="st19" d="M138.9,148.1l-0.3-0.7c-4.8-9.4,6.2-21.8,6.3-21.9c0.1,1.3-0.2,2.3-0.6,3.3c-1.4,4-2.7,7.7-0.3,12.2
							c-0.2,0.4-1.7,0.2-2,0.2c0.2,0,0.5,0.9,0.8,1.7l-2.4,0.1l1.1,1.3l-1.3,0.1c0,0,0-0.1,0-0.1c0,0,0.4,1.2,0.4,1.8
							c-0.5,0.3-1.7-0.7-1.7-0.7c0.3,0.7,0.3,1.3,0.1,1.9L138.9,148.1L138.9,148.1z M144.8,125.9c-0.8,1.5-9.7,12.2-6.1,20.6
							c0-0.3,0-0.5,0.1-0.7l0.3-0.8c0.4,0.2,1.2,0.8,1.4,0.9c-0.3-0.3-0.6-1.4-0.8-1.8l-0.2-0.4l2,0.5l-1.2-1.3l2.4-0.1
							c-1-1.6-0.8-1.8-0.8-1.9c0.5-0.1,2,0,2,0c-2.8-4.2-1.4-8.3,0-12.2C144.2,127.8,144.5,126.8,144.8,125.9L144.8,125.9z"/>
					</g>
					<path class="st18" d="M148.9,115.3c0,0,0.6,4.2-1.7,5.4c-0.4,0.3-1.8,0.8-1.6,1.6c0.3,1.2,0.9,1,1.8,0.8
						C149.9,122.6,152.6,117.5,148.9,115.3L148.9,115.3z"/>
					<g class="st15">
						<path class="st19" d="M146.5,123.5c-0.6,0-0.9-0.3-1.1-1.1c-0.2-0.9,0.8-1.4,1.4-1.7c2.5-1.3,1.9-5.3,1.9-5.4
							c1.9,0.7,2.5,2.1,2.2,3.9c-0.4,1.9-1.9,3.8-3.4,4.1C147.1,123.4,146.8,123.5,146.5,123.5L146.5,123.5z M148.9,115.5
							c0.4,0.5,0.7,4.2-1.6,5.4c-1,0.5-1.6,0.9-1.5,1.3c0.2,0.7,0.4,0.7,0.6,0.7l0,0c0.2,0,0.5-0.1,0.8-0.1c1.4-0.3,2.8-2,3.1-3.7
							C150.6,118.2,150.6,116.6,148.9,115.5L148.9,115.5z"/>
					</g>
					<path class="st20" d="M144.8,118.9c0,0.5-0.4,0.9-0.9,0.9c-0.5,0-0.9-0.4-0.9-0.9c0-0.5,0.4-0.9,0.9-0.9
						C144.4,118,144.8,118.4,144.8,118.9L144.8,118.9z"/>
					<path class="st16" d="M141.2,122.4c-0.6,0.5-3.7,3.7-0.6,4.9c3.1-0.9,2.3-1.4,3-2.1C143.6,123.7,142,123.3,141.2,122.4
						L141.2,122.4z"/>
					<g class="st15">
						<path d="M140.6,127.5L140.6,127.5c-0.9-0.4-1.4-0.9-1.5-1.6c-0.3-1.5,1.5-3.4,2-3.8c0.6,0.3,0.9,0.5,1.3,0.8
							c0.7,0.5,1.5,1,1.5,2.1l-0.4,0.6C143.3,126.4,142.9,126.9,140.6,127.5L140.6,127.5L140.6,127.5z M141.1,122.6
							c-0.2,0.5-1.7,2.1-1.5,3.3c0.1,0.5,0.4,0.9,1.1,1.1c2.1-0.6,2.2-1,2.4-1.4c0.1-0.2,0.2-0.4,0.4-0.6c-0.1-0.7-0.7-1.1-1.4-1.5
							C141.7,123.1,141.3,122.9,141.1,122.6L141.1,122.6z"/>
					</g>
					<path class="st18" d="M148,152.7c-0.2,0.7-0.8,3.2,0.1,5.2c2.7-1.1,3.9-0.8,4.8-0.2C150.7,155.9,149.9,155.2,148,152.7
						L148,152.7z"/>
					<g class="st15">
						<path class="st19" d="M148,158.2l-0.1-0.2c-0.9-1.9-0.4-4.4-0.2-5.3c0,0,0.1,0.1,0.1,0.1c0.2,0.9-0.3,3,0.4,4.8
							c1.9-0.8,3.2-0.9,4.3-0.4c-2.1-1.2-3-2-4.7-4.4c2.3,2.2,3.1,2.9,5.3,4.7c-0.8,0-1.3-0.1-2-0.1c-0.8,0-1.7,0.2-2.9,0.7
							L148,158.2L148,158.2z"/>
					</g>
					<path class="st20" d="M152.6,164.8l0.2,6c0,0,2.1,0.4,3,0C156.7,170.4,155.7,166.6,152.6,164.8L152.6,164.8z"/>
					<g class="st15">
						<path class="st9" d="M154.6,171.2c-0.9,0-1.9-0.2-1.9-0.2l-0.4-6.2c2.9,1.2,4.1,4,4,5.3c0,0.6-0.3,0.8-0.5,0.9
							C155.5,171.1,155.1,171.2,154.6,171.2L154.6,171.2z M153.2,170.6c0.6,0,1.9,0.1,2.4-0.1c0.3-1.7-0.9-4.2-3.2-5.5l0.5,5.7
							C153,170.6,153.1,170.6,153.2,170.6L153.2,170.6z"/>
					</g>
					<path class="st18" d="M167.7,165.5c0,0-3.8-9.3-13.7-11.6c-9.8-2.3-8.5-12.8-7.7-13.4c0.4-0.9,0.7-2.3,3.6-1
						c2.8,1.3,15.8,7.9,17.7,8.2C169.4,148,167.8,165.7,167.7,165.5L167.7,165.5z"/>
					<g class="st15">
						<path d="M167.7,165.8l-0.2-0.2c-0.2-0.4-4-9.2-13.5-11.5c-5.6-1.3-7.5-5.1-8.2-8.1c-0.6-2.7-0.2-5.4,0.3-5.8
							c0.4-1.1,1.3-2.2,3.8-1l3.3,1.6c4.9,2.4,13,6.4,14.4,6.6c1.7,0.3,1,10.7,0.6,15.2C168,165.8,167.9,165.8,167.7,165.8
							L167.7,165.8z M147.9,139.2c-0.8,0-1.1,0.5-1.3,1.1c-0.4,0.5-1,3-0.3,5.9c0.7,2.7,2.6,6.2,7.7,7.4c8.2,2,12.3,8.8,13.5,11.1
							c0.4-3.1,1.2-14.8,0.1-16.6c-1.5-0.4-8.1-3.6-14.7-6.8l-3.2-1.6C149,139.4,148.4,139.2,147.9,139.2L147.9,139.2z"/>
					</g>
					<path class="st16" d="M158.3,153.8c-0.2,0.1,13.1,7.9,9.1,14.5c3.8-2.5,2.6-6.9,2.6-6.9s3.1,8.1-4.4,12
						c0.8,0.7,1.3,0.5,1.3,0.5l-1.3,1.3c0,0-0.6,1,4.5-1.5c-1.4,1.1-1.5,1.9-1.5,1.9s0.4,1.1,3.7-1.8c-2.7,2.9-3.3,4.4-3.3,4.3
						c7.2-0.6,22.9-24.1-5-31c1.5,1.6,1.3,1.3,1.3,1.3L158.3,153.8z"/>
					<g class="st15">
						<path d="M168.6,178.5l0.2-0.4l0.2,0.1l-0.2-0.2c0.4-0.8,1.1-1.7,1.9-2.8c-0.7,0.6-1.3,0.9-1.7,0.9h-0.2l-0.5-0.4
							c0-0.2,0.1-1.1,1.6-2.2c-2.1,1.5-3.6,2.1-4.1,2.1l-0.4-0.6l1.1-1.1c-0.3,0.1-0.7,0-1.1-0.4c4.7-2.7,5.2-6.8,4.9-9.5
							c-0.1,1.4-0.8,3.2-2.7,4.4c1.2-2.9,0.9-7.4-8.8-14.1c-0.7-0.5-0.7-0.5-0.7-0.6l7.2-5.5l-1.3-1c15,3.3,16.6,11.4,16.3,15.9
							c-0.6,7.7-7.3,14.8-11.1,15.1L168.6,178.5L168.6,178.5z M172.1,173.7c-1,1.7-2,3.1-2.6,4.2c3.8-0.8,9.6-7.4,10.2-14.6
							c0.6-7.5-5-13.2-15.7-15.8c1.7,1,1.7,1,1.6,1.2l-6.9,5.2c0.1,0,0.2,0.1,0.3,0.2c8.1,5.6,11,10.4,8.6,14.4
							c3.2-2.7,2.1-6.9,2.1-6.9h0c0,0,0,0,0.1,0c0.1,0,0.2,0.2,0.3,0.4c0.8,1.7,2.2,8.3-4.4,11.7c0.5,0,0.9,0.1,1.1,0.1l0,0.1l0,0
							c0,0,0,0-0.1,0.1l-0.9,1.6c0.3-0.2,1.2-0.5,4.2-1.9c-1,1.5-1.2,2.2-1.2,2.2C169.4,175.7,170.2,175.4,172.1,173.7L172.1,173.7z
							"/>
					</g>
					<path class="st20" d="M158.9,151.5c1.8,1.3,2.4,1.7,2.7,2.3c-1.7-0.4-3.2-0.3-3.2-0.3s-3.6-3.4-4.2-3.7c-0.5,0-3.3-1.8-3.3-1.8
						c-1.4-0.7-2.7-5.5,2.5-4.1c5.3,2.5,6,2.7,6,2.7c2.1,0.6,4.2,1.3,6.3,2c1.2,1.4,2.4,2.7,3.6,4.1c0,0-6.5-3.2-7.3-3.3
						c1.8,1.4,2.8,3.4,2.8,3.4C162.8,152.4,161.1,151.9,158.9,151.5L158.9,151.5z"/>
					<g class="st15">
						<path d="M162,154.2l-0.4-0.1c-1-0.2-1.9-0.3-2.6-0.3l-0.7,0c-1.4-1.3-3.7-3.5-4.1-3.6h0c-0.4,0-2.6-1.4-3.3-1.8
							c-0.8-0.4-1.6-2.1-1.3-3.3c0.2-0.7,1.2-2,3.9-1.2c5.2,2.5,6,2.7,6,2.7l6.3,2l3.7,4.1c-2.8-0.8-6.9-2.8-7.5-2.8c2,1,3,3,3,3.1
							l0.3,0.5l-1-0.3c-1.8-0.5-3.5-1-5.4-1.3l-0.1-0.5c2,0.3,3.6,0.8,5.5,1.3c-0.3-0.4-1.2-1.8-2.5-2.8c1-0.4,6.9,2.5,7.5,2.8
							l-2.1-1.6l-1.8-2l-6.1-1.9c-0.1,0-0.9-0.3-6.1-2.7c-1.8-0.4-3-0.2-3.3,0.9c-0.2,1,0.4,2.4,1,2.8c1.3,0.8,2.9,1.7,3.1,1.7
							c0.8,0.3,4,3.4,4.4,3.8c0.8-0.1,1.6,0,2.5,0.1c-0.3-0.4-0.9-0.8-2-1.6l0-0.1c2,0.9,2.5,1.3,2.7,1.9L162,154.2L162,154.2z"/>
					</g>
					<path class="st15" d="M133.8,122.9c0,0,6.2-1.5,6.9-1.3L133.8,122.9z"/>
					<g class="st15">
						<path class="st9" d="M133.8,123.1l-0.1-0.5c1-0.3,6.2-1.5,7.1-1.3C140.2,121.7,136.4,122.5,133.8,123.1L133.8,123.1z"/>
					</g>
				</g>
			</g>
		</g>
		<g class="st0">
			<g>
				<defs>
					<rect id="SVGID_11_" x="-108.3" y="-0.7" width="516.6" height="301.4"/>
				</defs>
				<clipPath id="SVGID_12_">
					<use xlink:href="#SVGID_11_"  style="overflow:visible;"/>
				</clipPath>
				<rect x="-108.3" y="-0.7" class="st21" width="516.6" height="301.4"/>
				<rect x="-108.3" y="150" class="st22" width="516.6" height="150.7"/>
			</g>
		</g>
		<g class="st0">
			<g>
				<defs>
					<rect id="SVGID_13_" x="-20" y="-0.5" width="516" height="301"/>
				</defs>
				<clipPath id="SVGID_14_">
					<use xlink:href="#SVGID_13_"  style="overflow:visible;"/>
				</clipPath>
				<rect x="-20" y="-0.5" class="st23" width="150.5" height="301"/>
				<rect x="130.5" y="-0.5" class="st24" width="365.5" height="100.3"/>
				<rect x="130.5" y="99.8" class="st25" width="365.5" height="100.4"/>
				<rect x="130.5" y="200.2" class="st26" width="365.5" height="100.3"/>
			</g>
		</g>
		<g class="st0">
			<g>
				<defs>
					<rect id="SVGID_15_" x="-108.7" y="-0.9" width="517.3" height="301.8"/>
				</defs>
				<clipPath id="SVGID_16_">
					<use xlink:href="#SVGID_15_"  style="overflow:visible;"/>
				</clipPath>
				<rect x="-108.7" y="-0.9" class="st27" width="517.3" height="301.8"/>
				<polygon class="st28" points="237.7,108.2 408.7,12.5 408.7,-0.9 396.9,-0.9 202,108.2 				"/>
				<polygon class="st28" points="229.6,197.9 408.7,298 408.7,278 265.4,197.9 				"/>
				<polygon class="st28" points="-108.7,22.1 44.5,108.2 80.2,108.2 -108.7,2 				"/>
				<polygon class="st28" points="72.2,197.9 -108.7,299.1 -108.7,300.9 -76,300.9 107.9,197.9 				"/>
				<polygon class="st29" points="373.3,-0.9 192.1,-0.9 192.1,100.6 				"/>
				<polygon class="st29" points="112.1,-0.9 -68.3,-0.9 112.1,100.6 				"/>
				<polygon class="st29" points="408.7,108.2 408.7,39 285.8,108.2 				"/>
				<polygon class="st29" points="408.7,266.3 408.7,197.9 285.8,197.9 				"/>
				<polygon class="st29" points="-58,300.9 112.1,300.9 112.1,205.5 				"/>
				<polygon class="st29" points="192.1,300.9 362.8,300.9 192.1,205.5 				"/>
				<polygon class="st29" points="-108.7,197.9 -108.7,269.4 18.5,197.9 				"/>
				<polygon class="st29" points="-108.7,108.2 18.5,108.2 -108.7,36.5 				"/>
				<polygon class="st28" points="128.1,-0.9 128.1,126.2 -108.7,126.2 -108.7,179.9 128.1,179.9 128.1,300.9 176.1,300.9 
					176.1,179.9 408.7,179.9 408.7,126.2 176.1,126.2 176.1,-0.9 				"/>
			</g>
		</g>
		<g class="st0">
			<g>
				<defs>
					<rect id="SVGID_17_" y="-1.1" width="517.4" height="301.8"/>
				</defs>
				<clipPath id="SVGID_18_">
					<use xlink:href="#SVGID_17_"  style="overflow:visible;"/>
				</clipPath>
				<rect y="277.5" class="st30" width="517.4" height="23.2"/>
				<rect y="254.3" class="st31" width="517.4" height="23.2"/>
				<rect y="231.1" class="st30" width="517.4" height="23.2"/>
				<rect y="207.9" class="st31" width="517.4" height="23.2"/>
				<rect y="184.6" class="st30" width="517.4" height="23.2"/>
				<rect y="161.4" class="st31" width="517.4" height="23.2"/>
				<rect y="138.2" class="st30" width="517.4" height="23.2"/>
				<rect y="115" class="st31" width="517.4" height="23.2"/>
				<rect y="91.8" class="st30" width="517.4" height="23.2"/>
				<rect y="68.5" class="st31" width="517.4" height="23.2"/>
				<rect y="45.3" class="st30" width="517.4" height="23.2"/>
				<rect y="22.1" class="st31" width="517.4" height="23.2"/>
				<rect y="-1.1" class="st30" width="517.4" height="23.2"/>
				<rect y="-1.1" class="st32" width="236.2" height="162.5"/>
				<polygon class="st31" points="21.3,16.8 23.3,23 29.8,23 24.5,26.7 26.5,32.9 21.3,29.1 16.1,32.9 18.1,26.7 12.9,23 19.3,23 
									"/>
				<polygon class="st31" points="21.3,43.9 23.3,50.1 29.8,50.1 24.5,53.9 26.5,60 21.3,56.2 16.1,60 18.1,53.9 12.9,50.1 
					19.3,50.1 				"/>
				<polygon class="st31" points="21.3,71.1 23.3,77.2 29.8,77.2 24.5,81 26.5,87.1 21.3,83.3 16.1,87.1 18.1,81 12.9,77.2 
					19.3,77.2 				"/>
				<polygon class="st31" points="21.3,98.2 23.3,104.3 29.8,104.3 24.5,108.1 26.5,114.3 21.3,110.5 16.1,114.3 18.1,108.1 
					12.9,104.3 19.3,104.3 				"/>
				<polygon class="st31" points="21.3,125.3 23.3,131.5 29.8,131.5 24.5,135.3 26.5,141.4 21.3,137.6 16.1,141.4 18.1,135.3 
					12.9,131.5 19.3,131.5 				"/>
				<polygon class="st31" points="40.2,31.1 42.2,37.2 48.6,37.2 43.4,41 45.4,47.2 40.2,43.4 35,47.2 37,41 31.7,37.2 38.2,37.2 
									"/>
				<polygon class="st31" points="40.2,58.2 42.2,64.4 48.6,64.4 43.4,68.2 45.4,74.3 40.2,70.5 35,74.3 37,68.2 31.7,64.4 
					38.2,64.4 				"/>
				<polygon class="st31" points="40.2,85.4 42.2,91.5 48.6,91.5 43.4,95.3 45.4,101.4 40.2,97.6 35,101.4 37,95.3 31.7,91.5 
					38.2,91.5 				"/>
				<polygon class="st31" points="40.2,112.5 42.2,118.6 48.6,118.6 43.4,122.4 45.4,128.6 40.2,124.8 35,128.6 37,122.4 
					31.7,118.6 38.2,118.6 				"/>
				<polygon class="st31" points="59.3,16.8 61.3,23 67.8,23 62.6,26.7 64.6,32.9 59.3,29.1 54.1,32.9 56.1,26.7 50.9,23 57.3,23 
									"/>
				<polygon class="st31" points="59.3,43.9 61.3,50.1 67.8,50.1 62.6,53.9 64.6,60 59.3,56.2 54.1,60 56.1,53.9 50.9,50.1 
					57.3,50.1 				"/>
				<polygon class="st31" points="59.3,71.1 61.3,77.2 67.8,77.2 62.6,81 64.6,87.1 59.3,83.3 54.1,87.1 56.1,81 50.9,77.2 
					57.3,77.2 				"/>
				<polygon class="st31" points="59.3,98.2 61.3,104.3 67.8,104.3 62.6,108.1 64.6,114.3 59.3,110.5 54.1,114.3 56.1,108.1 
					50.9,104.3 57.3,104.3 				"/>
				<polygon class="st31" points="59.3,125.3 61.3,131.5 67.8,131.5 62.6,135.3 64.6,141.4 59.3,137.6 54.1,141.4 56.1,135.3 
					50.9,131.5 57.3,131.5 				"/>
				<polygon class="st31" points="78.2,31.1 80.2,37.2 86.7,37.2 81.5,41 83.4,47.2 78.2,43.4 73,47.2 75,41 69.8,37.2 76.2,37.2 
									"/>
				<polygon class="st31" points="78.2,58.2 80.2,64.4 86.7,64.4 81.5,68.2 83.4,74.3 78.2,70.5 73,74.3 75,68.2 69.8,64.4 
					76.2,64.4 				"/>
				<polygon class="st31" points="78.2,85.4 80.2,91.5 86.7,91.5 81.5,95.3 83.4,101.4 78.2,97.6 73,101.4 75,95.3 69.8,91.5 
					76.2,91.5 				"/>
				<polygon class="st31" points="78.2,112.5 80.2,118.6 86.7,118.6 81.5,122.4 83.4,128.6 78.2,124.8 73,128.6 75,122.4 
					69.8,118.6 76.2,118.6 				"/>
				<polygon class="st31" points="97.4,16.8 99.4,23 105.8,23 100.6,26.7 102.6,32.9 97.4,29.1 92.1,32.9 94.1,26.7 88.9,23 
					95.4,23 				"/>
				<polygon class="st31" points="97.4,43.9 99.4,50.1 105.8,50.1 100.6,53.9 102.6,60 97.4,56.2 92.1,60 94.1,53.9 88.9,50.1 
					95.4,50.1 				"/>
				<polygon class="st31" points="97.4,71.1 99.4,77.2 105.8,77.2 100.6,81 102.6,87.1 97.4,83.3 92.1,87.1 94.1,81 88.9,77.2 
					95.4,77.2 				"/>
				<polygon class="st31" points="97.4,98.2 99.4,104.3 105.8,104.3 100.6,108.1 102.6,114.3 97.4,110.5 92.1,114.3 94.1,108.1 
					88.9,104.3 95.4,104.3 				"/>
				<polygon class="st31" points="97.4,125.3 99.4,131.5 105.8,131.5 100.6,135.3 102.6,141.4 97.4,137.6 92.1,141.4 94.1,135.3 
					88.9,131.5 95.4,131.5 				"/>
				<polygon class="st31" points="116.3,31.1 118.3,37.2 124.7,37.2 119.5,41 121.5,47.2 116.3,43.4 111,47.2 113,41 107.8,37.2 
					114.3,37.2 				"/>
				<polygon class="st31" points="116.3,58.2 118.3,64.4 124.7,64.4 119.5,68.2 121.5,74.3 116.3,70.5 111,74.3 113,68.2 
					107.8,64.4 114.3,64.4 				"/>
				<polygon class="st31" points="116.3,85.4 118.3,91.5 124.7,91.5 119.5,95.3 121.5,101.4 116.3,97.6 111,101.4 113,95.3 
					107.8,91.5 114.3,91.5 				"/>
				<polygon class="st31" points="116.3,112.5 118.3,118.6 124.7,118.6 119.5,122.4 121.5,128.6 116.3,124.8 111,128.6 113,122.4 
					107.8,118.6 114.3,118.6 				"/>
				<polygon class="st31" points="135.4,16.8 137.4,23 143.8,23 138.6,26.7 140.6,32.9 135.4,29.1 130.2,32.9 132.2,26.7 126.9,23 
					133.4,23 				"/>
				<polygon class="st31" points="135.4,43.9 137.4,50.1 143.8,50.1 138.6,53.9 140.6,60 135.4,56.2 130.2,60 132.2,53.9 
					126.9,50.1 133.4,50.1 				"/>
				<polygon class="st31" points="135.4,71.1 137.4,77.2 143.8,77.2 138.6,81 140.6,87.1 135.4,83.3 130.2,87.1 132.2,81 
					126.9,77.2 133.4,77.2 				"/>
				<polygon class="st31" points="135.4,98.2 137.4,104.3 143.8,104.3 138.6,108.1 140.6,114.3 135.4,110.5 130.2,114.3 
					132.2,108.1 126.9,104.3 133.4,104.3 				"/>
				<polygon class="st31" points="135.4,125.3 137.4,131.5 143.8,131.5 138.6,135.3 140.6,141.4 135.4,137.6 130.2,141.4 
					132.2,135.3 126.9,131.5 133.4,131.5 				"/>
				<polygon class="st31" points="154.3,31.1 156.3,37.2 162.7,37.2 157.5,41 159.5,47.2 154.3,43.4 149.1,47.2 151.1,41 
					145.8,37.2 152.3,37.2 				"/>
				<polygon class="st31" points="154.3,58.2 156.3,64.4 162.7,64.4 157.5,68.2 159.5,74.3 154.3,70.5 149.1,74.3 151.1,68.2 
					145.8,64.4 152.3,64.4 				"/>
				<polygon class="st31" points="154.3,85.4 156.3,91.5 162.7,91.5 157.5,95.3 159.5,101.4 154.3,97.6 149.1,101.4 151.1,95.3 
					145.8,91.5 152.3,91.5 				"/>
				<polygon class="st31" points="154.3,112.5 156.3,118.6 162.7,118.6 157.5,122.4 159.5,128.6 154.3,124.8 149.1,128.6 
					151.1,122.4 145.8,118.6 152.3,118.6 				"/>
				<polygon class="st31" points="173.4,16.8 175.4,23 181.9,23 176.6,26.7 178.6,32.9 173.4,29.1 168.2,32.9 170.2,26.7 165,23 
					171.4,23 				"/>
				<polygon class="st31" points="173.4,43.9 175.4,50.1 181.9,50.1 176.6,53.9 178.6,60 173.4,56.2 168.2,60 170.2,53.9 165,50.1 
					171.4,50.1 				"/>
				<polygon class="st31" points="173.4,71.1 175.4,77.2 181.9,77.2 176.6,81 178.6,87.1 173.4,83.3 168.2,87.1 170.2,81 165,77.2 
					171.4,77.2 				"/>
				<polygon class="st31" points="173.4,98.2 175.4,104.3 181.9,104.3 176.6,108.1 178.6,114.3 173.4,110.5 168.2,114.3 
					170.2,108.1 165,104.3 171.4,104.3 				"/>
				<polygon class="st31" points="173.4,125.3 175.4,131.5 181.9,131.5 176.6,135.3 178.6,141.4 173.4,137.6 168.2,141.4 
					170.2,135.3 165,131.5 171.4,131.5 				"/>
				<polygon class="st31" points="192.3,31.1 194.3,37.2 200.8,37.2 195.5,41 197.5,47.2 192.3,43.4 187.1,47.2 189.1,41 
					183.9,37.2 190.3,37.2 				"/>
				<polygon class="st31" points="192.3,58.2 194.3,64.4 200.8,64.4 195.5,68.2 197.5,74.3 192.3,70.5 187.1,74.3 189.1,68.2 
					183.9,64.4 190.3,64.4 				"/>
				<polygon class="st31" points="192.3,85.4 194.3,91.5 200.8,91.5 195.5,95.3 197.5,101.4 192.3,97.6 187.1,101.4 189.1,95.3 
					183.9,91.5 190.3,91.5 				"/>
				<polygon class="st31" points="192.3,112.5 194.3,118.6 200.8,118.6 195.5,122.4 197.5,128.6 192.3,124.8 187.1,128.6 
					189.1,122.4 183.9,118.6 190.3,118.6 				"/>
				<polygon class="st31" points="211.4,16.8 213.4,23 219.9,23 214.7,26.7 216.7,32.9 211.4,29.1 206.2,32.9 208.2,26.7 203,23 
					209.4,23 				"/>
				<polygon class="st31" points="211.4,43.9 213.4,50.1 219.9,50.1 214.7,53.9 216.7,60 211.4,56.2 206.2,60 208.2,53.9 203,50.1 
					209.4,50.1 				"/>
				<polygon class="st31" points="211.4,71.1 213.4,77.2 219.9,77.2 214.7,81 216.7,87.1 211.4,83.3 206.2,87.1 208.2,81 203,77.2 
					209.4,77.2 				"/>
				<polygon class="st31" points="211.4,98.2 213.4,104.3 219.9,104.3 214.7,108.1 216.7,114.3 211.4,110.5 206.2,114.3 
					208.2,108.1 203,104.3 209.4,104.3 				"/>
				<polygon class="st31" points="211.4,125.3 213.4,131.5 219.9,131.5 214.7,135.3 216.7,141.4 211.4,137.6 206.2,141.4 
					208.2,135.3 203,131.5 209.4,131.5 				"/>
			</g>
		</g>
		<g class="st0">
			<g>
				<defs>
					<rect id="SVGID_19_" y="-1.3" width="518.1" height="302.2"/>
				</defs>
				<clipPath id="SVGID_20_">
					<use xlink:href="#SVGID_19_"  style="overflow:visible;"/>
				</clipPath>
				<rect y="-1.3" class="st33" width="518.1" height="302.2"/>
				<path class="st34" d="M0,267.3h518.1v-33.6H0V267.3z M0,200.2h518.1v-33.6H0V200.2z M168,133h350.1V99.4H168V133z M168,65.9
					h350.1V32.3H168V65.9z"/>
				<g class="st35">
					<defs>
						<rect id="SVGID_21_" y="-1.3" width="518.1" height="302.2"/>
					</defs>
					<clipPath id="SVGID_22_">
						<use xlink:href="#SVGID_21_"  style="overflow:visible;"/>
					</clipPath>
					<path class="st36" d="M84.2,82.9l1.5,24.8c-22.9,16.5-8.8,26.3-25.3,31.6c11.2-11.2-3.4-11.2,9.3-36.5"/>
					<path class="st37" d="M84.7,82.9l1.5,24.8h-1l-1.9-24.8H84.7z M86.2,107.7L86.2,107.7v0.5l-0.5-0.5H86.2z M86.2,108.2
						C74,117,72.5,123.8,71.1,128.6h-1.5c1.5-5.3,3.4-12.6,15.6-21.4L86.2,108.2z M71.1,128.6c-1.5,5.4-2.4,8.8-10.2,11.2l-0.5-1
						c7.3-2.4,8.3-5.8,9.3-10.2H71.1z M60.9,139.8l-2.4,1l1.5-1.5h0.5L60.9,139.8z M59.9,139.3c4.9-5.3,4.9-8.3,3.9-12.2h1.5
						c0.5,3.9,1,7.3-4.4,12.7L59.9,139.3z M63.8,127.2c-0.5-4.9-1.5-11.2,5.4-24.3l1,0.5c-6.3,13.1-5.8,19-4.9,23.9H63.8z"/>
					<path class="st37" d="M76.4,101.9c-5.8,10.2-7.3,18-7.8,24.3l-1.5-0.5c1-5.8,2.4-14.1,8.3-24.3L76.4,101.9z M68.6,126.2
						c-1,6.3-1.9,11.2-7.8,13.6l-0.5-1c5.4-2.4,5.8-6.8,6.8-13.1L68.6,126.2z"/>
					<path class="st36" d="M84.2,82.9l-1.9-25.3C105.2,41,91,31.3,107.6,25.9c-10.7,11.7,3.4,11.7-9.2,36.5"/>
					<path class="st37" d="M83.2,82.9l-1.5-24.8l1-0.5l1.9,25.3H83.2z M81.8,58.1v-0.5h0.5L81.8,58.1z M81.8,57.6
						C94,48.8,95.9,42,96.9,36.7l1.5,0.5c-1.5,5.4-3.4,12.2-15.6,20.9L81.8,57.6z M96.9,36.7c1.5-4.9,2.4-8.8,10.2-11.2l0.5,1
						c-7.3,2.4-8.3,5.8-9.2,10.7L96.9,36.7z M107.1,25.4l2.4-0.5l-1.5,1.5l-0.5-0.5L107.1,25.4z M108.1,26.4
						c-4.9,5.3-4.9,7.8-3.9,11.7l-1.5,0.5c-0.5-4.4-1-7.3,4.4-13.2L108.1,26.4z M104.2,38.1c0.5,4.9,1.5,11.2-5.4,24.8l-1-0.5
						c6.3-13.1,5.8-19.5,4.9-23.8L104.2,38.1z"/>
					<path class="st37" d="M91.5,63.4c5.8-10.2,7.3-18,8.3-23.8h1c-1,6.3-2.4,14.1-8.3,24.3L91.5,63.4z M99.8,39.6
						c1-6.8,1.5-11.2,7.3-14.1l0.5,1c-5.4,2.4-5.8,6.8-6.8,13.1H99.8z"/>
					<path class="st36" d="M84.2,82.9l-25.3,1.5C42.4,61.5,32.6,75.6,27.3,59c11.7,11.2,11.2-2.9,36.5,9.2"/>
					<path class="st37" d="M84.2,83.4l-25.3,1.9v-1.5l24.8-1.5L84.2,83.4z M58.9,85.3L58.9,85.3l-0.5-0.5l0.5-0.5V85.3z M58.4,84.8
						C50.1,72.7,43.3,71.2,38,69.7v-1c5.8,1.5,12.7,2.9,21.4,15.6L58.4,84.8z M38,69.7c-4.9-1.5-8.8-2.4-11.2-10.2l1-0.5
						c2.4,7.3,5.8,8.3,10.2,9.7V69.7z M26.8,59.5l-1-2l1.9,1.5h-0.5L26.8,59.5z M27.7,59c5.4,4.9,7.8,4.4,11.7,3.9l0.5,1
						c-4.4,0.5-7.3,1-13.1-4.4L27.7,59z M39.4,62.9c4.9-1,11.2-2,24.8,4.9l-1,1c-13.1-6.3-19-5.4-23.4-4.9L39.4,62.9z"/>
					<path class="st37" d="M64.7,75.6c-10.2-6.3-18-7.3-23.9-8.3v-1.5c6.3,1,14.1,2.4,24.3,8.8L64.7,75.6z M40.9,67.3
						c-6.8-1-11.2-1.9-14.1-7.8l1-0.5c2.4,5.4,6.8,6.3,13.1,6.8V67.3z"/>
					<path class="st36" d="M84.2,82.9l24.8-1.9c16.6,22.9,26.3,9.2,31.6,25.3c-11.7-10.7-11.2,3.4-36.5-9.3"/>
					<path class="st37" d="M83.7,82.4l25.3-1.9v1l-24.8,2L83.7,82.4z M109.1,80.5L109.1,80.5h0.5l-0.5,0.5V80.5z M109.5,80.5
						c8.3,12.2,15.1,14.1,20.4,15.6v1c-5.8-1.5-12.7-3.4-21.4-15.6L109.5,80.5z M130,96c4.9,1,8.8,1.9,11.2,10.2h-1
						c-2.4-7.3-5.8-8.3-10.2-9.3V96z M141.2,106.3l1,1.9l-1.9-1.5l0.5-0.5H141.2z M140.2,106.7c-4.9-4.9-7.8-4.4-11.7-3.9l-0.5-1
						c4.4-1,7.3-1.5,13.1,3.9L140.2,106.7z M128.5,102.8c-4.9,0.5-11.2,1.5-24.3-5.3l0.5-1c13.1,6.8,19,5.8,23.4,5.4L128.5,102.8z"
						/>
					<path class="st37" d="M103.2,90.2c10.2,5.8,18,7.3,24.3,8.3l-0.5,1c-5.8-1-14.1-1.9-24.3-8.3L103.2,90.2z M127.6,98.5
						c6.3,1,10.7,1.5,13.6,7.8l-1,0.5c-2.4-5.9-6.8-6.3-13.1-7.3L127.6,98.5z"/>
					<path class="st36" d="M84.2,82.9l-16.6,19C39.4,97,42.4,114,27.3,106.3c16.1-0.5,5.8-10.2,32.1-19.5"/>
					<path class="st37" d="M84.2,82.9l-16.1,19l-1-0.5l16.5-19L84.2,82.9z M68.2,101.9l-0.5,0.5v-0.5H68.2z M67.7,102.4
						c-14.6-2.4-20.9,1-25.3,3.9l-1-1c4.9-2.9,11.2-6.8,26.3-4.4V102.4z M42.4,106.3c-4.4,2.4-7.8,4.4-15.6,0.5l0.5-1
						c7.3,3.4,10.2,2,14.1-0.5L42.4,106.3z M26.8,106.7l-1.9-1h2.4v0.5L26.8,106.7z M27.3,105.8c7.3-0.5,8.8-2.4,11.2-5.8l1,1
						c-2.4,3.4-4.4,5.9-12.2,5.9V105.8z M38.5,99.9c2.9-3.9,6.8-8.8,20.9-13.6l0.5,1c-14.1,4.9-18,9.7-20.4,13.6L38.5,99.9z"/>
					<path class="st37" d="M65.2,91.2c-11.7,2.9-18,7.8-22.9,11.2l-0.5-1c4.9-3.4,11.2-8.3,22.9-11.2L65.2,91.2z M42.4,102.4
						c-5.4,3.9-8.8,6.8-15.1,4.4v-1c5.8,2,9.2-0.5,14.6-4.4L42.4,102.4z"/>
					<path class="st36" d="M84.2,82.9l16.1-19c28.2,4.4,25.3-12.7,40.4-4.9c-16.1,0.5-5.8,10.7-32.1,19.5"/>
					<path class="st37" d="M83.7,82.4l16.1-19l1,1L84.2,82.9L83.7,82.4z M99.8,63.4h0.5v0.5L99.8,63.4z M100.3,63.4
						c14.6,2.4,20.9-1.5,25.3-3.9l1,1c-4.9,2.9-11.2,6.3-26.3,3.9V63.4z M125.6,59.5c4.9-2.9,7.8-4.4,15.6-1l-0.5,1
						c-7.3-3.4-10.2-1.5-14.1,1L125.6,59.5z M141.2,58.6l1.9,1l-2.4,0.5v-1L141.2,58.6z M140.7,60c-7.3,0-8.8,2.4-11.2,5.4l-1-0.5
						c2.9-3.4,4.4-5.8,12.2-6.3V60z M129.5,65.4c-2.9,3.9-6.8,8.8-20.9,13.6l-0.5-1c14.1-4.4,18-9.7,20.4-13.1L129.5,65.4z"/>
					<path class="st37" d="M102.7,74.1c11.7-2.4,18-7.3,22.9-11.2l0.5,1c-4.9,3.9-11.2,8.8-22.9,11.7L102.7,74.1z M125.6,62.9
						c5.4-3.9,9.3-6.3,15.1-4.4v1c-5.8-2-9.3,1-14.6,4.4L125.6,62.9z"/>
					<path class="st36" d="M84.2,82.9l-19-16.5c4.4-28.2-12.7-25.3-4.9-40.4c0.5,16.1,10.7,5.9,19.5,32.1"/>
					<path class="st37" d="M83.7,83.4l-19-16.6l1-1l18.5,16.5L83.7,83.4z M64.7,66.8L64.7,66.8v-0.5h0.5L64.7,66.8z M64.7,66.3
						c1.9-14.6-1.5-20.9-3.9-25.3l1-0.5c2.4,4.9,6.3,10.7,3.9,25.8H64.7z M60.9,41c-2.9-4.4-4.9-7.8-1-15.1l1,0.5
						c-3.4,6.8-1.5,9.7,1,14.1L60.9,41z M59.9,25.9l1-1.9v1.9h-0.5H59.9z M60.9,25.9c0.5,7.3,2.4,8.8,5.8,11.2l-0.5,1
						c-3.4-2.4-5.8-4.4-6.3-12.2H60.9z M66.7,37.1c3.9,2.9,8.8,6.8,13.6,20.9l-1,0.5C74.5,44.4,69.6,41,66.2,38.1L66.7,37.1z"/>
					<path class="st37" d="M75.5,63.9C73,52.2,68.2,45.9,64.3,41l1-0.5c3.9,4.9,8.8,11.2,11.7,23.4H75.5z M64.3,41
						c-3.9-5.3-6.3-8.8-4.4-15.1h1c-2,5.8,0.5,9.3,4.4,14.6L64.3,41z"/>
					<path class="st36" d="M84.2,82.9l18.5,16.1c-4.4,28.2,12.7,25.3,4.9,40.4c-0.5-15.6-10.7-5.3-19.5-32.1"/>
					<path class="st37" d="M84.2,82.4l19,16.1l-0.5,1l-19-16.1L84.2,82.4z M103.2,98.5l0.5,0.5l-0.5,0.5l-0.5-0.5L103.2,98.5z
						 M103.2,99.4c-1.9,14.6,1.5,20.4,3.9,25.3l-1,0.5c-2.4-4.9-6.3-11.2-3.9-26.3L103.2,99.4z M107.1,124.7c2.9,4.4,4.9,7.8,1,15.1
						l-1-0.5c3.4-6.8,1.5-10.2-1-14.1L107.1,124.7z M108.1,139.8l-1,1.9v-2.4h0.5L108.1,139.8z M107.1,139.3
						c-0.5-6.8-2.4-8.8-5.8-11.2l0.5-0.5c3.4,2.4,5.8,3.9,6.3,11.7H107.1z M101.3,128.2c-3.9-2.4-8.8-6.3-13.6-20.9h1
						c4.9,13.6,9.7,17.5,13.1,20.5L101.3,128.2z"/>
					<path class="st37" d="M92.5,101.4c2.9,11.7,7.3,18,11.2,22.9l-1,1c-3.9-5.4-8.8-11.7-11.2-23.4L92.5,101.4z M103.7,124.3
						c3.9,5.3,6.3,9.2,4.4,15.6l-1-0.5c1.9-5.8-0.5-9.2-4.4-14.1L103.7,124.3z"/>
					<polyline class="st36" points="84.2,82.9 94.9,82.9 84.2,144.2 73,82.9 84.2,82.9 84.2,144.2 					"/>
					<path class="st37" d="M84.2,82.4h10.7v1H84.2V82.4z M94.9,82.4h1v0.5h-1V82.4z M95.9,82.9l-11.2,61.3h-1.5l11.2-61.3H95.9z
						 M84.7,144.2l-0.5,2.9l-1-2.9h1H84.7z M83.2,144.2L72.1,82.9h1.5l11.2,61.3H83.2z M72.1,82.4h1v0.5h-1V82.4z M73,82.4h11.2v1
						H73V82.4z M84.2,82.4h0.5v0.5h-0.5V82.4z M84.7,144.2h-1.5V82.9h1.5V144.2z"/>
					<polyline class="st36" points="84.2,82.9 73,82.9 84.2,21.1 94.9,82.9 84.2,82.9 84.2,21.1 					"/>
					<path class="st37" d="M84.2,83.4H73v-1h11.2V83.4z M73,83.4h-1v-0.5h1V83.4z M72.1,82.9l11.2-61.8l1.5,0.5L73.5,82.9H72.1z
						 M83.2,21.1l1-2.9l0.5,2.9h-0.5H83.2z M84.7,21.1l11.2,61.8h-1.5L83.2,21.6L84.7,21.1z M95.9,83.4h-1v-0.5h1V83.4z M94.9,83.4
						H84.2v-1h10.7V83.4z M84.2,83.4h-1v-0.5h1V83.4z M83.2,21.1h1.5v61.8h-1.5V21.1z"/>
					<polyline class="st36" points="84.2,82.9 84.2,94.1 22.4,82.9 84.2,71.7 84.2,82.9 22.4,82.9 					"/>
					<path class="st37" d="M84.7,94.1h-1.5V82.9h1.5V94.1z M84.7,94.1v0.5h-1l0.5-0.5H84.7z M83.7,94.6L22.4,83.4l0.5-1l61.3,11.2
						L83.7,94.6z M22.4,83.4l-2.9-0.5l2.9-0.5v0.5V83.4z M22.4,82.4l61.3-11.2l0.5,1L22.9,83.4L22.4,82.4z M83.7,71.2l1-0.5v1h-0.5
						L83.7,71.2z M84.7,82.9h-1.5V71.7h1.5V82.9z M84.7,83.4h-0.5v-0.5h0.5V83.4z M84.2,83.4H22.4v-1h61.8V83.4z"/>
					<polyline class="st36" points="84.2,82.9 84.2,71.7 145.6,82.9 84.2,94.1 84.2,82.9 145.6,82.9 					"/>
					<path class="st37" d="M83.2,71.7h1.5v11.2h-1.5V71.7z M83.2,71.7v-1l1,0.5v0.5H83.2z M84.2,71.2l61.3,11.2l-0.5,1L83.7,72.2
						L84.2,71.2z M145.6,82.4l2.9,0.5l-2.9,0.5v-0.5V82.4z M145.6,83.4L84.2,94.6l-0.5-1l61.3-11.2L145.6,83.4z M84.2,94.6h-1v-0.5
						h1V94.6z M83.2,82.9h1.5v11.2h-1.5V82.9z M83.2,82.4h1v0.5h-1V82.4z M84.2,82.4h61.3v1H84.2V82.4z"/>
					<polyline class="st36" points="84.2,82.9 92,90.7 40.4,126.2 75.9,74.6 84.2,82.9 40.4,126.2 					"/>
					<path class="st37" d="M84.2,82.4l8.3,7.8l-1,1l-7.8-7.8L84.2,82.4z M92.5,90.2l0.5,0.5l-1,0.5v-0.5L92.5,90.2z M92,91.2
						l-51.1,35.5l-0.5-1l51.1-35.5L92,91.2z M40.9,126.7l-2.4,1.9l1.5-2.9l0.5,0.5L40.9,126.7z M39.9,125.7l35.5-51.1l1,0.5
						l-35.5,51.6L39.9,125.7z M75.5,74.6l0.5-0.5l0.5,0.5h-0.5H75.5z M76.4,74.6l7.8,7.8l-0.5,1l-8.3-8.3L76.4,74.6z M84.2,82.4
						l0.5,0.5l-0.5,0.5v-0.5V82.4z M84.2,83.4l-43.3,43.3l-0.5-1l43.3-43.3L84.2,83.4z"/>
					<polyline class="st36" points="84.2,82.9 75.9,74.6 127.6,39.1 92,90.7 84.2,82.9 127.6,39.1 					"/>
					<path class="st37" d="M83.7,83.4l-8.3-8.3l1-0.5l7.8,7.8L83.7,83.4z M75.5,75.1v-0.5h0.5L75.5,75.1z M75.9,74.6l51.1-36l0.5,1
						L76.4,75.1L75.9,74.6z M127.1,38.6l2.4-1.5l-1.5,2.4l-0.5-0.5L127.1,38.6z M128,39.6L92.5,91.2l-1-1l35.5-51.1L128,39.6z
						 M92.5,91.2L92,91.6l-0.5-0.5l0.5-0.5L92.5,91.2z M91.5,91.2l-7.8-7.8l0.5-1l8.3,7.8L91.5,91.2z M83.7,83.4l-0.5-0.5l0.5-0.5
						l0.5,0.5L83.7,83.4z M83.7,82.4l43.3-43.3l1,0.5L84.2,83.4L83.7,82.4z"/>
					<polyline class="st36" points="84.2,82.9 75.9,90.7 40.4,39.1 92,74.6 84.2,82.9 40.4,39.1 					"/>
					<path class="st37" d="M84.2,83.4l-7.8,7.8l-1-1l8.3-7.8L84.2,83.4z M76.4,91.2l-0.5,0.5l-0.5-0.5l0.5-0.5L76.4,91.2z
						 M75.5,91.2L39.9,39.6l1-0.5l35.5,51.1L75.5,91.2z M39.9,39.6l-1.5-2.4l2.4,1.5l-0.5,0.5L39.9,39.6z M40.9,38.6l51.1,36
						l-0.5,0.5L40.4,39.6L40.9,38.6z M92,74.6h1l-0.5,0.5L92,74.6z M92.5,75.1l-8.3,8.3l-0.5-1l7.8-7.8L92.5,75.1z M84.2,83.4
						L84.2,83.4h-0.5l0.5-0.5V83.4z M83.7,83.4L40.4,39.6l0.5-0.5l43.3,43.3L83.7,83.4z"/>
					<polyline class="st36" points="84.2,82.9 92,74.6 127.6,126.2 75.9,90.7 84.2,82.9 127.6,126.2 					"/>
					<path class="st37" d="M83.7,82.4l7.8-7.8l1,0.5l-8.3,8.3L83.7,82.4z M91.5,74.6l0.5-0.5l0.5,0.5H92H91.5z M92.5,74.6l35.5,51.1
						l-1,1L91.5,75.1L92.5,74.6z M128,125.7l1.5,2.9l-2.4-1.9l0.5-0.5L128,125.7z M127.1,126.7L75.9,91.2l0.5-1l51.1,35.5
						L127.1,126.7z M75.9,91.2l-0.5-0.5v-0.5l0.5,0.5V91.2z M75.5,90.2l8.3-7.8l0.5,1l-7.8,7.8L75.5,90.2z M83.7,82.4l0.5-0.5v0.5
						v0.5L83.7,82.4z M84.2,82.4l43.8,43.3l-1,1L83.7,83.4L84.2,82.4z"/>
					<path class="st36" d="M104.7,82.9c0-11.7-9.3-20.4-20.4-20.4c-11.7,0-20.9,8.8-20.9,20.4c0,11.2,9.3,20.4,20.9,20.4
						C95.4,103.3,104.7,94.1,104.7,82.9"/>
					<path class="st37" d="M103.7,82.9c0-5.8-1.9-10.7-5.8-14.1l1-1c3.9,3.9,6.3,9.2,6.3,15.1H103.7z M97.9,68.8
						c-3.4-3.9-8.3-5.8-13.6-5.8v-1.5c5.4,0,10.7,2.4,14.6,6.3L97.9,68.8z M84.2,62.9c-5.8,0-10.7,1.9-14.1,5.8l-1-1
						c3.9-3.9,9.3-6.3,15.1-6.3V62.9z M70.1,68.8c-3.9,3.4-5.8,8.3-5.8,14.1h-1.5c0-5.8,2.4-11.2,6.3-15.1L70.1,68.8z M64.3,82.9
						c0,5.3,1.9,10.2,5.8,14.1l-1,0.5c-3.9-3.9-6.3-8.8-6.3-14.6H64.3z M70.1,97c3.4,3.4,8.3,5.8,14.1,5.8v1
						c-5.8,0-11.2-2.4-15.1-6.3L70.1,97z M84.2,102.8c5.4,0,10.2-2.4,13.6-5.8l1,0.5c-3.9,3.9-9.3,6.3-14.6,6.3V102.8z M97.9,97
						c3.9-3.9,5.8-8.8,5.8-14.1h1.5c0,5.8-2.4,10.7-6.3,14.6L97.9,97z"/>
					<path class="st38" d="M98.8,74.6c-1,1.5-2-1-6.3-1c-4.9,0-5.4,2.4-6.3,1.9c-0.5-0.5,3.9-3.9,5.4-3.9
						C93,71.2,97.4,72.7,98.8,74.6"/>
					<path class="st38" d="M93.5,76.1c1.5,1.5,0.5,3.9-1,3.9c-1.5,0-3.9-2.4-2.4-3.9"/>
					<path class="st38" d="M87.6,78c0-2.4,1.9-2.9,4.9-2.9c2.9,0,4.4,2.4,5.4,2.9c-1,0-2.4-1.9-5.4-1.9C89.6,76.1,89.6,76.1,87.6,78
						"/>
					<path class="st38" d="M88.1,78.5c0.5-1,1.5,1,3.9,1c1.9,0,2.9-0.5,4.4-1.5c1-1-1.9,2.4-3.9,2.4C90.6,80.5,87.6,79,88.1,78.5"/>
					<path class="st38" d="M94.4,79.5c2.4-1,1-2.9,0-3.4C94.9,76.6,96.4,78.5,94.4,79.5"/>
					<path class="st38" d="M84.2,90.7c1,0,1.5-0.5,2.9-0.5c1.5,0,4.9,2.4,6.8,1.5c-4.4,2-2.4,0.5-9.7,0.5h-1"/>
					<path class="st38" d="M94.9,93.6c-1-1.5-0.5-1-2.4-3.4C94.4,91.6,94.4,92.1,94.9,93.6"/>
					<path class="st38" d="M84.2,95.1c4.4,0,3.9-1,9.7-3.4c-4.4,0.5-5.4,2-9.7,2h-1"/>
					<path class="st38" d="M84.2,88.2c1,0,1.5-1,2.9-1c1.5,0,3.4,0.5,4.4,1.5c0.5,0-0.5-1.5-1.9-1.5c-1.5-0.5-1-2.9-2.4-3.4
						c0,1,0.5,1,0.5,1.9c0,1-1.5,1-2,0c0.5,1.5-1,1.5-1.5,1.5"/>
					<path class="st38" d="M69.1,74.6c1,1.5,1.9-1,6.3-1c4.9,0,5.4,2.4,6.3,1.9c0.5-0.5-3.9-3.9-5.4-3.9
						C75,71.2,70.6,72.7,69.1,74.6"/>
					<path class="st38" d="M74.5,76.1C73,77.5,74,80,75.5,80c1.5,0,3.9-2.4,2.4-3.9"/>
					<path class="st38" d="M80.3,78c0-2.4-1.9-2.9-4.9-2.9s-4.4,2.4-5.4,2.9c1.5,0,2.4-1.9,5.4-1.9S78.4,76.1,80.3,78"/>
					<path class="st38" d="M79.8,78.5c-0.5-1-1.5,1-3.9,1C74,79.5,73,79,71.6,78c-1-1,2,2.4,3.9,2.4C77.9,80.5,80.3,79,79.8,78.5"/>
					<path class="st38" d="M73.5,79.5c-2.4-1-1-2.9,0-3.4C73,76.6,71.6,78.5,73.5,79.5"/>
					<path class="st38" d="M84.2,90.7c-1.5,0-1.9-0.5-3.4-0.5c-1.5,0-4.9,2.4-6.8,1.5c4.4,2,2.4,0.5,10.2,0.5h0.5"/>
					<path class="st38" d="M73,93.6c1-1.5,1-1,2.4-3.4C74,91.6,73.5,92.1,73,93.6"/>
					<path class="st38" d="M84.2,95.1c-4.9,0-3.9-1-10.2-3.4c4.4,0.5,5.4,2,10.2,2h0.5"/>
					<path class="st38" d="M84.2,88.2c-1.5,0-1.9-1-3.4-1c-1.5,0-3.4,0.5-4.4,1.5c-0.5,0,0.5-1.5,1.9-1.5c1.5-0.5,1-2.9,2.4-3.4
						c0,1-0.5,1-0.5,1.9c0,1,1.5,1,1.9,0c-0.5,1.5,1,1.5,1.9,1.5"/>
					<path class="st38" d="M84.2,97c-1,0-3.4,0.5,0,0.5C87.1,97.5,84.7,97,84.2,97"/>
				</g>
			</g>
		</g>
		<g class="st0">
			<g>
				<defs>
					<rect id="SVGID_23_" x="-20" y="-0.7" width="516.2" height="301.1"/>
				</defs>
				<clipPath id="SVGID_24_">
					<use xlink:href="#SVGID_23_"  style="overflow:visible;"/>
				</clipPath>
				<rect x="-20" y="-0.7" class="st39" width="516.2" height="96.4"/>
				<rect x="-20" y="95.6" class="st40" width="516.2" height="6"/>
				<rect x="-20" y="101.6" class="st41" width="516.2" height="96.4"/>
				<rect x="-20" y="198" class="st40" width="516.2" height="6"/>
				<rect x="-20" y="204" class="st42" width="516.2" height="96.4"/>
				<g class="st43">
					<defs>
						<rect id="SVGID_25_" x="-20" y="-0.7" width="516.2" height="301.1"/>
					</defs>
					<clipPath id="SVGID_26_">
						<use xlink:href="#SVGID_25_"  style="overflow:visible;"/>
					</clipPath>
					<path class="st44" d="M100.4,47.4c0,19.9-16.2,36.1-36.1,36.1c-19.9,0-36.1-16.2-36.1-36.1c0-19.9,16.2-36.1,36.1-36.1
						C84.3,11.3,100.4,27.5,100.4,47.4"/>
					<path class="st45" d="M110.7,47.4c0,16.6-13.5,30.1-30.1,30.1C64,77.5,50.5,64,50.5,47.4c0-16.6,13.5-30.1,30.1-30.1
						C97.2,17.3,110.7,30.8,110.7,47.4"/>
					<polygon class="st44" points="155.8,11.3 153.6,18.2 157,19.3 					"/>
					<polygon class="st44" points="155.8,11.3 158.1,18.2 154.6,19.3 					"/>
					<polygon class="st44" points="162.7,16.3 155.5,16.3 155.5,19.9 					"/>
					<polygon class="st44" points="162.7,16.3 156.9,20.5 154.7,17.6 					"/>
					<polygon class="st44" points="149,16.3 154.8,20.5 156.9,17.6 					"/>
					<polygon class="st44" points="149,16.3 156.2,16.3 156.2,19.9 					"/>
					<polygon class="st44" points="160.1,24.4 157.9,17.5 154.4,18.6 					"/>
					<polygon class="st44" points="160.1,24.4 154.2,20.1 156.4,17.2 					"/>
					<polygon class="st44" points="151.6,24.4 157.4,20.1 155.3,17.2 					"/>
					<polygon class="st44" points="151.6,24.4 153.8,17.5 157.3,18.6 					"/>
					<polygon class="st44" points="184.7,11.3 182.5,18.2 185.9,19.3 					"/>
					<polygon class="st44" points="184.7,11.3 187,18.2 183.5,19.3 					"/>
					<polygon class="st44" points="191.6,16.3 184.4,16.3 184.4,19.9 					"/>
					<polygon class="st44" points="191.6,16.3 185.8,20.5 183.6,17.6 					"/>
					<polygon class="st44" points="177.9,16.3 183.7,20.5 185.9,17.6 					"/>
					<polygon class="st44" points="177.9,16.3 185.1,16.3 185.1,19.9 					"/>
					<polygon class="st44" points="189,24.4 186.8,17.5 183.3,18.6 					"/>
					<polygon class="st44" points="189,24.4 183.1,20.1 185.3,17.2 					"/>
					<polygon class="st44" points="180.5,24.4 186.3,20.1 184.2,17.2 					"/>
					<polygon class="st44" points="180.5,24.4 182.7,17.5 186.2,18.6 					"/>
					<polygon class="st44" points="213.7,11.3 211.4,18.2 214.9,19.3 					"/>
					<polygon class="st44" points="213.7,11.3 215.9,18.2 212.5,19.3 					"/>
					<polygon class="st44" points="220.5,16.3 213.3,16.3 213.3,19.9 					"/>
					<polygon class="st44" points="220.5,16.3 214.7,20.5 212.6,17.6 					"/>
					<polygon class="st44" points="206.8,16.3 212.6,20.5 214.8,17.6 					"/>
					<polygon class="st44" points="206.8,16.3 214,16.3 214,19.9 					"/>
					<polygon class="st44" points="217.9,24.4 215.7,17.5 212.2,18.6 					"/>
					<polygon class="st44" points="217.9,24.4 212.1,20.1 214.2,17.2 					"/>
					<polygon class="st44" points="209.4,24.4 215.3,20.1 213.1,17.2 					"/>
					<polygon class="st44" points="209.4,24.4 211.6,17.5 215.1,18.6 					"/>
					<polygon class="st44" points="126.9,40.2 124.7,47.1 128.1,48.2 					"/>
					<polygon class="st44" points="126.9,40.2 129.2,47.1 125.7,48.2 					"/>
					<polygon class="st44" points="133.8,45.2 126.6,45.2 126.6,48.8 					"/>
					<polygon class="st44" points="133.8,45.2 128,49.4 125.8,46.5 					"/>
					<polygon class="st44" points="120.1,45.2 125.9,49.4 128,46.5 					"/>
					<polygon class="st44" points="120.1,45.2 127.3,45.2 127.3,48.8 					"/>
					<polygon class="st44" points="131.2,53.3 128.9,46.4 125.5,47.5 					"/>
					<polygon class="st44" points="131.2,53.3 125.3,49 127.5,46.1 					"/>
					<polygon class="st44" points="122.7,53.3 128.5,49 126.4,46.1 					"/>
					<polygon class="st44" points="122.7,53.3 124.9,46.4 128.4,47.5 					"/>
					<polygon class="st44" points="155.8,40.2 153.6,47.1 157,48.2 					"/>
					<polygon class="st44" points="155.8,40.2 158.1,47.1 154.6,48.2 					"/>
					<polygon class="st44" points="162.7,45.2 155.5,45.2 155.5,48.8 					"/>
					<polygon class="st44" points="162.7,45.2 156.9,49.4 154.7,46.5 					"/>
					<polygon class="st44" points="149,45.2 154.8,49.4 156.9,46.5 					"/>
					<polygon class="st44" points="149,45.2 156.2,45.2 156.2,48.8 					"/>
					<polygon class="st44" points="160.1,53.3 157.9,46.4 154.4,47.5 					"/>
					<polygon class="st44" points="160.1,53.3 154.2,49 156.4,46.1 					"/>
					<polygon class="st44" points="151.6,53.3 157.4,49 155.3,46.1 					"/>
					<polygon class="st44" points="151.6,53.3 153.8,46.4 157.3,47.5 					"/>
					<polygon class="st44" points="184.7,40.2 182.5,47.1 185.9,48.2 					"/>
					<polygon class="st44" points="184.7,40.2 187,47.1 183.5,48.2 					"/>
					<polygon class="st44" points="191.6,45.2 184.4,45.2 184.4,48.8 					"/>
					<polygon class="st44" points="191.6,45.2 185.8,49.4 183.6,46.5 					"/>
					<polygon class="st44" points="177.9,45.2 183.7,49.4 185.9,46.5 					"/>
					<polygon class="st44" points="177.9,45.2 185.1,45.2 185.1,48.8 					"/>
					<polygon class="st44" points="189,53.3 186.8,46.4 183.3,47.5 					"/>
					<polygon class="st44" points="189,53.3 183.1,49 185.3,46.1 					"/>
					<polygon class="st44" points="180.5,53.3 186.3,49 184.2,46.1 					"/>
					<polygon class="st44" points="180.5,53.3 182.7,46.4 186.2,47.5 					"/>
					<polygon class="st44" points="213.7,40.2 211.4,47.1 214.9,48.2 					"/>
					<polygon class="st44" points="213.7,40.2 215.9,47.1 212.5,48.2 					"/>
					<polygon class="st44" points="220.5,45.2 213.3,45.2 213.3,48.8 					"/>
					<polygon class="st44" points="220.5,45.2 214.7,49.4 212.6,46.5 					"/>
					<polygon class="st44" points="206.8,45.2 212.6,49.4 214.8,46.5 					"/>
					<polygon class="st44" points="206.8,45.2 214,45.2 214,48.8 					"/>
					<polygon class="st44" points="217.9,53.3 215.7,46.4 212.2,47.5 					"/>
					<polygon class="st44" points="217.9,53.3 212.1,49 214.2,46.1 					"/>
					<polygon class="st44" points="209.4,53.3 215.3,49 213.1,46.1 					"/>
					<polygon class="st44" points="209.4,53.3 211.6,46.4 215.1,47.5 					"/>
					<polygon class="st44" points="98,69.1 95.8,76 99.2,77.1 					"/>
					<polygon class="st44" points="98,69.1 100.3,76 96.8,77.1 					"/>
					<polygon class="st44" points="104.9,74.1 97.7,74.1 97.7,77.7 					"/>
					<polygon class="st44" points="104.9,74.1 99.1,78.3 96.9,75.4 					"/>
					<polygon class="st44" points="91.2,74.1 97,78.3 99.1,75.4 					"/>
					<polygon class="st44" points="91.2,74.1 98.4,74.1 98.4,77.7 					"/>
					<polygon class="st44" points="102.3,82.2 100,75.3 96.6,76.4 					"/>
					<polygon class="st44" points="102.3,82.2 96.4,77.9 98.6,75 					"/>
					<polygon class="st44" points="93.8,82.2 99.6,77.9 97.5,75 					"/>
					<polygon class="st44" points="93.8,82.2 96,75.3 99.5,76.4 					"/>
					<polygon class="st44" points="126.9,69.1 124.7,76 128.1,77.1 					"/>
					<polygon class="st44" points="126.9,69.1 129.2,76 125.7,77.1 					"/>
					<polygon class="st44" points="133.8,74.1 126.6,74.1 126.6,77.7 					"/>
					<polygon class="st44" points="133.8,74.1 128,78.3 125.8,75.4 					"/>
					<polygon class="st44" points="120.1,74.1 125.9,78.3 128,75.4 					"/>
					<polygon class="st44" points="120.1,74.1 127.3,74.1 127.3,77.7 					"/>
					<polygon class="st44" points="131.2,82.2 128.9,75.3 125.5,76.4 					"/>
					<polygon class="st44" points="131.2,82.2 125.3,77.9 127.5,75 					"/>
					<polygon class="st44" points="122.7,82.2 128.5,77.9 126.4,75 					"/>
					<polygon class="st44" points="122.7,82.2 124.9,75.3 128.4,76.4 					"/>
					<polygon class="st44" points="155.8,69.1 153.6,76 157,77.1 					"/>
					<polygon class="st44" points="155.8,69.1 158.1,76 154.6,77.1 					"/>
					<polygon class="st44" points="162.7,74.1 155.5,74.1 155.5,77.7 					"/>
					<polygon class="st44" points="162.7,74.1 156.9,78.3 154.7,75.4 					"/>
					<polygon class="st44" points="149,74.1 154.8,78.3 156.9,75.4 					"/>
					<polygon class="st44" points="149,74.1 156.2,74.1 156.2,77.7 					"/>
					<polygon class="st44" points="160.1,82.2 157.9,75.3 154.4,76.4 					"/>
					<polygon class="st44" points="160.1,82.2 154.2,77.9 156.4,75 					"/>
					<polygon class="st44" points="151.6,82.2 157.4,77.9 155.3,75 					"/>
					<polygon class="st44" points="151.6,82.2 153.8,75.3 157.3,76.4 					"/>
					<polygon class="st44" points="184.7,69.1 182.5,76 185.9,77.1 					"/>
					<polygon class="st44" points="184.7,69.1 187,76 183.5,77.1 					"/>
					<polygon class="st44" points="191.6,74.1 184.4,74.1 184.4,77.7 					"/>
					<polygon class="st44" points="191.6,74.1 185.8,78.3 183.6,75.4 					"/>
					<polygon class="st44" points="177.9,74.1 183.7,78.3 185.9,75.4 					"/>
					<polygon class="st44" points="177.9,74.1 185.1,74.1 185.1,77.7 					"/>
					<polygon class="st44" points="189,82.2 186.8,75.3 183.3,76.4 					"/>
					<polygon class="st44" points="189,82.2 183.1,77.9 185.3,75 					"/>
					<polygon class="st44" points="180.5,82.2 186.3,77.9 184.2,75 					"/>
					<polygon class="st44" points="180.5,82.2 182.7,75.3 186.2,76.4 					"/>
					<polygon class="st44" points="213.7,69.1 211.4,76 214.9,77.1 					"/>
					<polygon class="st44" points="213.7,69.1 215.9,76 212.5,77.1 					"/>
					<polygon class="st44" points="220.5,74.1 213.3,74.1 213.3,77.7 					"/>
					<polygon class="st44" points="220.5,74.1 214.7,78.3 212.6,75.4 					"/>
					<polygon class="st44" points="206.8,74.1 212.6,78.3 214.8,75.4 					"/>
					<polygon class="st44" points="206.8,74.1 214,74.1 214,77.7 					"/>
					<polygon class="st44" points="217.9,82.2 215.7,75.3 212.2,76.4 					"/>
					<polygon class="st44" points="217.9,82.2 212.1,77.9 214.2,75 					"/>
					<polygon class="st44" points="209.4,82.2 215.3,77.9 213.1,75 					"/>
					<polygon class="st44" points="209.4,82.2 211.6,75.3 215.1,76.4 					"/>
				</g>
			</g>
		</g>
		<g class="st0">
			<g>
				<defs>
					<rect id="SVGID_27_" y="0" width="513.6" height="299.6"/>
				</defs>
				<clipPath id="SVGID_28_">
					<use xlink:href="#SVGID_27_"  style="overflow:visible;"/>
				</clipPath>
				<rect y="0" class="st46" width="513.6" height="149.8"/>
				<rect y="149.8" class="st47" width="513.6" height="149.8"/>
				<polygon class="st48" points="0,0 0,299.6 290.6,149.8 				"/>
				<rect y="123" class="st48" width="513.6" height="53.6"/>
				<polygon class="st49" points="0,278.3 249.3,149.8 0,21.3 				"/>
				<rect y="141.9" class="st49" width="513.6" height="15.8"/>
				<polygon class="st48" points="0,260.6 214.9,149.8 0,39 				"/>
				<g class="st48">
					<defs>
						<rect id="SVGID_29_" y="0" width="513.6" height="299.6"/>
					</defs>
					<clipPath id="SVGID_30_">
						<use xlink:href="#SVGID_29_"  style="overflow:visible;"/>
					</clipPath>
					<path class="st50" d="M60.7,178.5v17.1c14.8,0,44-11.4,44-48s-31.1-43.4-40.4-43.4s-38,6.7-38,36.6c0,30,28.2,32.8,33.7,32.8
						c5.6,0,26.4-5,24-27.5c0,6.4-7.2,19.8-22.3,19.8c-15.1,0-24.6-11.2-24.6-22.3c0-11.1,9.2-26,25.1-26c16,0,27.6,14.2,27.6,28.5
						C89.8,160.3,78.6,178.5,60.7,178.5L60.7,178.5z"/>
					<path class="st50" d="M47.7,156.2l0.9,0.6c0,0,7-16,25.9-27.4C72.1,130.7,59.4,137,47.7,156.2L47.7,156.2z"/>
					<g class="st51">
						<path class="st52" d="M48.7,157.2l-1.1-0.7c5.1-8.9,13.9-20.4,26.5-27.2l0,0c-3.7,2.2-7.2,4.8-10.2,7.6
							c2.9-2.6,6.3-5.2,10.2-7.6l0.5,0.3c-18.6,11.2-25.7,27.1-25.8,27.3L48.7,157.2L48.7,157.2z M54.4,147
							c-2.6,3.3-4.7,6.5-6.5,9.3l0.5,0.1C48.8,155.6,50.7,151.9,54.4,147L54.4,147z"/>
					</g>
					<path class="st50" d="M49.5,153.5c0,0-2.2-4.5-0.3-6.4c1.9-2,1,5.3,1,5.3l0.8-1.2c0,0-1.3-5.5,0.2-6.6c1.5-1.1,0.7,5.3,0.7,5.3
						l0.9-1.2c0,0-0.9-5.3,0.5-6.3c1.4-1,0.5,5,0.5,5l1-1.2c0,0-0.8-5,0.9-6.2c1.7-1.2,0.2,4.8,0.2,4.8l1.1-1.2c0,0-0.5-4.6,0.9-5.7
						c1.4-1,0.2,4.4,0.2,4.4l1-1.1c0,0-0.3-4.3,1.1-5.3c1.4-1,0.1,4.1,0.1,4.1l1.1-1c0,0-0.3-4.3,1.5-5.2c1.8-0.8-0.3,4.1-0.3,4.1
						l1.2-1c0,0,0.4-5.1,1.9-5.5c1.5-0.5-0.7,4.5-0.7,4.5l1.1-0.9c0,0,0.6-4.3,2.2-4.8c1.7-0.5-1,4-1,4l1.1-0.8c0,0,1.2-4.3,2.8-4.8
						c1.6-0.5-1.6,4-1.6,4l1-0.7c0,0,1.7-3.9,3.1-4.2c1.4-0.3-1.6,3.2-1.6,3.2l1.3-0.8c0,0,2.2-4,3-2.8c0.8,1.3-3.1,3.1-3.1,3.1
						l-1.3,0.7c0,0,4.7-2.2,5.3-1.1c0.6,1.1-6.5,1.9-6.5,1.9l-1.1,0.8c0,0,4.7-1.3,4.2-0.1c-0.6,1.2-5.3,0.9-5.3,0.9l-1.1,0.8
						c0,0,4.7-1.1,4.1-0.1c-0.6,1.1-5.3,1-5.3,1l-1.1,0.9c0,0,4.6-1.2,4,0.2c-0.7,1.4-5.9,1.4-5.9,1.4l-1.3,1.2c0,0,4.9-1.7,4.5-0.4
						c-0.4,1.3-6,2-6,2l-1.3,1.2c0,0,5.3-1.8,3.7-0.2c-1.6,1.6-5.4,2-5.4,2l-1.5,1.8c0,0,5.2-3.1,4.5-1.4c-0.7,1.8-5.8,3-5.8,3
						l-1,1.3c0,0,4.7-2.7,4.2-1.2c-0.5,1.5-5.5,3.1-5.5,3.1l-0.8,1.1c0,0,5.5-3.3,5.1-1.6c-0.5,1.7-5.7,2.9-5.7,2.9l-0.7,1
						c0,0,5.1-2.9,5.1-1.5c0.1,1.4-6,2.8-6,2.8L49.5,153.5z"/>
					<path class="st50" d="M77.6,156.2l-0.9,0.6c0,0-7-16-25.9-27.4C53.2,130.7,65.9,137,77.6,156.2L77.6,156.2z"/>
					<g class="st51">
						<path class="st52" d="M76.6,157.2l-0.1-0.3c-0.1-0.2-7.2-16.1-25.8-27.3l0.2-0.1l-0.1-0.1l0.1-0.2c0.1,0,0.2,0.1,0.3,0.2l0,0
							c12.6,6.8,21.4,18.3,26.6,26.8L76.6,157.2L76.6,157.2z M69.2,144.9c4.7,5.7,7.1,10.4,7.6,11.5l0.6-0.4
							C75.3,152.7,72.6,148.8,69.2,144.9L69.2,144.9z"/>
					</g>
					<path class="st50" d="M75.8,153.5c0,0,2.2-4.5,0.3-6.4c-1.9-2-1,5.3-1,5.3l-0.8-1.2c0,0,1.3-5.5-0.2-6.6
						c-1.4-1.1-0.7,5.3-0.7,5.3l-0.9-1.2c0,0,0.9-5.3-0.5-6.3c-1.4-1-0.5,5-0.5,5l-1.1-1.2c0,0,0.8-5-0.9-6.2
						c-1.7-1.2-0.2,4.8-0.2,4.8l-1.1-1.2c0,0,0.5-4.6-0.9-5.7c-1.5-1-0.2,4.4-0.2,4.4l-1.1-1.1c0,0,0.3-4.3-1.1-5.3
						c-1.4-1-0.1,4.1-0.1,4.1l-1.1-1c0,0,0.3-4.3-1.5-5.2c-1.8-0.8,0.3,4.1,0.3,4.1l-1.2-1c0,0-0.4-5.1-1.9-5.5
						c-1.5-0.5,0.7,4.5,0.7,4.5l-1.1-0.9c0,0-0.6-4.3-2.2-4.8c-1.7-0.5,1.1,4,1.1,4l-1.1-0.8c0,0-1.2-4.3-2.8-4.8
						c-1.6-0.5,1.6,4,1.6,4l-1-0.7c0,0-1.7-3.9-3.1-4.2c-1.4-0.3,1.6,3.2,1.6,3.2l-1.3-0.8c0,0-2.2-4-3-2.8
						c-0.8,1.3,3.1,3.1,3.1,3.1l1.3,0.7c0,0-4.7-2.2-5.3-1.1c-0.6,1.1,6.5,1.9,6.5,1.9l1.1,0.8c0,0-4.7-1.3-4.2-0.1
						c0.6,1.2,5.3,0.9,5.3,0.9l1.1,0.8c0,0-4.7-1.1-4.1-0.1c0.6,1.1,5.2,1,5.2,1l1.1,0.9c0,0-4.6-1.2-4,0.2c0.7,1.4,5.9,1.4,5.9,1.4
						l1.3,1.2c0,0-4.9-1.7-4.5-0.4c0.4,1.3,6,2,6,2l1.3,1.2c0,0-5.3-1.8-3.7-0.2c1.6,1.6,5.4,2,5.4,2l1.5,1.8c0,0-5.2-3.1-4.5-1.4
						c0.7,1.8,5.8,3,5.8,3l1.1,1.3c0,0-4.7-2.7-4.2-1.2c0.5,1.5,5.5,3.1,5.5,3.1l0.8,1.1c0,0-5.5-3.3-5-1.6c0.5,1.7,5.7,2.9,5.7,2.9
						l0.7,1c0,0-5.1-2.9-5.2-1.5c-0.1,1.4,6,2.8,6,2.8L75.8,153.5z"/>
				</g>
			</g>
		</g>
	</g>
</g>
</svg>
