<?xml version="1.0" encoding="utf-8"?>
<!-- Generator: Adobe Illustrator 22.1.0, SVG Export Plug-In . SVG Version: 6.00 Build 0)  -->
<svg version="1.1" xmlns="http://www.w3.org/2000/svg" xmlns:xlink="http://www.w3.org/1999/xlink" x="0px" y="0px"
	 viewBox="0 0 300 300" style="enable-background:new 0 0 300 300;" xml:space="preserve">
<style type="text/css">
	.st0{clip-path:url(#SVGID_2_);}
	.st1{clip-path:url(#SVGID_2_);fill:#120065;}
	.st2{clip-path:url(#SVGID_4_);fill:#120065;}
	.st3{clip-path:url(#SVGID_4_);}
	.st4{clip-path:url(#SVGID_6_);fill:#FFFFFF;}
	.st5{clip-path:url(#SVGID_6_);fill:#28632E;}
	.st6{clip-path:url(#SVGID_6_);}
	.st7{fill:#EDC526;}
	.st8{clip-path:url(#SVGID_6_);fill:#EDC526;}
	.st9{clip-path:url(#SVGID_8_);fill:url(#SVGID_9_);}
	.st10{clip-path:url(#SVGID_11_);}
	.st11{clip-path:url(#SVGID_11_);fill:#EDC526;}
	.st12{clip-path:url(#SVGID_13_);fill:url(#SVGID_14_);}
	.st13{clip-path:url(#SVGID_16_);}
	.st14{clip-path:url(#SVGID_16_);fill:#EDC526;}
	.st15{clip-path:url(#SVGID_18_);fill:url(#SVGID_19_);}
	.st16{clip-path:url(#SVGID_21_);}
	.st17{clip-path:url(#SVGID_21_);fill:#EDC526;}
	.st18{clip-path:url(#SVGID_23_);fill:url(#SVGID_24_);}
	.st19{clip-path:url(#SVGID_26_);}
	.st20{clip-path:url(#SVGID_26_);fill:#EDC526;}
	.st21{clip-path:url(#SVGID_28_);fill:url(#SVGID_29_);}
	.st22{clip-path:url(#SVGID_31_);}
	.st23{clip-path:url(#SVGID_31_);fill:#EDC526;}
	.st24{clip-path:url(#SVGID_33_);fill:url(#SVGID_34_);}
	.st25{clip-path:url(#SVGID_36_);}
	.st26{clip-path:url(#SVGID_36_);fill:#EDC526;}
	.st27{clip-path:url(#SVGID_38_);fill:url(#SVGID_39_);}
	.st28{clip-path:url(#SVGID_41_);}
	.st29{clip-path:url(#SVGID_41_);fill:#EDC526;}
	.st30{clip-path:url(#SVGID_43_);fill:url(#SVGID_44_);}
	.st31{clip-path:url(#SVGID_46_);}
	.st32{clip-path:url(#SVGID_46_);fill:#EDC526;}
	.st33{clip-path:url(#SVGID_48_);fill:url(#SVGID_49_);}
	.st34{clip-path:url(#SVGID_51_);}
	.st35{clip-path:url(#SVGID_51_);fill:#EDC526;}
	.st36{clip-path:url(#SVGID_53_);fill:url(#SVGID_54_);}
	.st37{clip-path:url(#SVGID_56_);}
	.st38{clip-path:url(#SVGID_56_);fill:#EDC526;}
	.st39{clip-path:url(#SVGID_58_);fill:url(#SVGID_59_);}
	.st40{clip-path:url(#SVGID_61_);}
	.st41{clip-path:url(#SVGID_61_);fill:#EDC526;}
	.st42{clip-path:url(#SVGID_63_);fill:url(#SVGID_64_);}
	.st43{clip-path:url(#SVGID_66_);}
	.st44{clip-path:url(#SVGID_66_);fill:#EDC526;}
	.st45{clip-path:url(#SVGID_66_);fill:#F5C3B4;}
	.st46{clip-path:url(#SVGID_66_);fill:#FFFFFF;}
	.st47{fill:none;}
	.st48{clip-path:url(#SVGID_66_);fill:#905115;}
	.st49{clip-path:url(#SVGID_66_);fill:#120065;}
	.st50{clip-path:url(#SVGID_66_);fill:#BA0019;}
</style>
<g id="Layer_2">
</g>
<g id="Layer_1">
	<g>
		<defs>
			<rect id="SVGID_1_" y="-0.1" width="300" height="300"/>
		</defs>
		<clipPath id="SVGID_2_">
			<use xlink:href="#SVGID_1_"  style="overflow:visible;"/>
		</clipPath>
		<g id="Layer_2_1_" class="st0">
		</g>
		<rect x="-1" y="-0.7" class="st1" width="302" height="301.4"/>
		<g class="st0">
			<g>
				<defs>
					<rect id="SVGID_3_" x="-14.1" y="-0.6" width="345.6" height="201.6"/>
				</defs>
				<clipPath id="SVGID_4_">
					<use xlink:href="#SVGID_3_"  style="overflow:visible;"/>
				</clipPath>
				<rect x="-14.1" y="-0.6" class="st2" width="345.6" height="201.6"/>
				<g class="st3">
					<defs>
						<rect id="SVGID_5_" x="-14.1" y="-0.6" width="345.6" height="201.6"/>
					</defs>
					<clipPath id="SVGID_6_">
						<use xlink:href="#SVGID_5_"  style="overflow:visible;"/>
					</clipPath>
					<path class="st4" d="M212.3,48.5l73-0.3l-0.1,65c0,0,2.6,9.9-30.6,24.9c11.9-1.2,24.9-14,24.9-14s5.3-6.8,7.9-3
						c2.6,3.8,5,5.7,6.9,7.2c1.9,1.5,3.4,5.6,0.5,8.5c-2.8,3-7.3,3.4-8.5-0.3c-1.9,1-13.6,15-37.4,15.7
						c-24.3-0.4-37.5-15.9-37.5-15.9s-3.3,5.2-7.9,1.1c-4.5-5.3-1.1-8.7-1.1-8.7s3.8-2.2,4.9-3.7c1.8-2,2.3-4.7,5.3-4.7
						c3.5,0.3,4.9,3.1,4.9,3.1s12.2,12.9,25.3,14.5c-29.7-14.2-30.8-23-30.6-25.2L212.3,48.5z"/>
					<path class="st5" d="M214.1,50.3l69.7-0.4v62.6c0.1,8.1-13.6,16.4-35,27c-22.1-11.4-34.8-18.3-35-27.1L214.1,50.3z"/>
					<g class="st6">
						<path d="M248.8,139.7l-0.1-0.1c-22.3-11.5-34.9-18.4-35.1-27.3l0.3-62.1l69.9-0.6l0.2,62.8
							C284.1,120.6,270.6,128.9,248.8,139.7L248.8,139.7L248.8,139.7z M283.5,49.9l-69.4,0.6l-0.1,61.8c0.1,8.6,12.6,15.5,34.7,26.9
							c21.5-10.6,34.9-18.8,34.7-26.7V49.9L283.5,49.9z"/>
					</g>
					<g class="st6">
						<polygon class="st7" points="222.6,119.4 222.3,119.2 226.4,113.2 230.8,119.2 226.4,113.4 222.6,119.4 						"/>
					</g>
					<path class="st8" d="M227.4,117c0,0.4-0.4,0.8-0.8,0.8c-0.4,0-0.8-0.4-0.8-0.8c0-0.5,0.4-0.8,0.8-0.8
						C227,116.2,227.4,116.6,227.4,117L227.4,117z"/>
					<g class="st6">
						<path d="M226.6,118c-0.5,0-0.9-0.4-0.9-0.9c0-1,1.8-1,1.8,0C227.5,117.5,227.1,118,226.6,118L226.6,118z M226.6,116.3
							c-0.4,0-0.7,0.3-0.7,0.7c0,0.8,1.4,0.8,1.4,0C227.3,116.6,227,116.3,226.6,116.3L226.6,116.3z"/>
					</g>
					<path class="st8" d="M223.2,123.8l6.4,0c0,0,0.1-0.8-0.7-1.3c3.3-0.5,2.5-3.4,5.3-3.6c0.5,0.1-1.5,1.3-1.5,1.3
						s-1.7,1.2-0.9,1.8c0.6,0.5,0.9-0.3,1-0.9c0.1-0.6,2.7-1,2.3-2.6c-0.6-1.4-4.3,0.9-4.3,0.9l-2.6,0c-0.2-0.3-0.9-1.5-1.6-1.5
						c-0.9,0-1.5,1.5-1.5,1.5h-3.8h-2.1c0,0-0.2,1.5,2.8,1.8c0.7,0.9,1.2,1.1,1.8,1.4C223.3,122.8,223.2,123.2,223.2,123.8
						L223.2,123.8z"/>
					<g class="st6">
						<path d="M229.7,123.9l-6.5,0c-0.1-0.7,0-1.1,0.4-1.4c-0.6-0.1-1.1-0.3-1.8-1.2c-1.2-0.1-2.1-0.4-2.5-1
							c-0.4-0.5-0.3-0.9-0.3-0.9l6-0.1c-0.1,0,0.6-1.5,1.5-1.5c0.9,0,1.7,1.5,1.7,1.5l2.5,0c0-0.1,3.8-2.1,4.4-0.9
							c0.3,1.2-0.8,1.8-1.6,2.2c-0.3,0.2-0.7,0.4-0.7,0.5c-0.1,0.3-0.2,1.1-0.7,1.1l-0.4-0.2c-0.2-0.1-0.2-0.3-0.2-0.5
							c0-0.7,1.1-1.5,1.2-1.5c0.7-0.4,1.5-0.9,1.5-1.1c-1.3,0.1-1.7,0.8-2.3,1.6c-0.6,0.8-1.2,1.8-3,2
							C229.8,122.9,229.7,123.8,229.7,123.9L229.7,123.9L229.7,123.9z M219.2,119.4c0.1,0.1,0.1,0.3,0.3,0.6c0.3,0.4,0.9,0.8,2.4,1
							c0.7,0.9,1.2,1.1,1.8,1.4c-0.3,0.5-0.4,0.8-0.4,1.3l6.2-0.1c0-0.2-0.1-0.8-0.6-1.1c1.7-0.4,2.3-1.3,2.9-2.1
							c0.5-0.8,1.1-1.6,2.5-1.6c0.3,0.4-0.6,1-1.4,1.5c-0.3,0.2-1,0.8-1.1,1.3l0.1,0.4l0.4,0c0.3,0,0.4-0.5,0.5-0.9
							c0-0.3,0.4-0.4,0.8-0.7c0.8-0.4,1.7-0.9,1.5-1.9c-0.5-1-4.1,1-4.1,1h-2.7c-0.4-0.5-1-1.5-1.6-1.5c-0.8,0-1.4,1.4-1.4,1.4
							L219.2,119.4L219.2,119.4z"/>
					</g>
					<g class="st6">
						<polygon points="223.7,122.6 223.7,122.4 229,122.3 223.7,122.6 						"/>
					</g>
					<g class="st6">
						<path d="M223.7,122.3c-2.1-0.4-2.5-2.8-2.5-2.9l0.2,0C221.4,119.3,221.8,121.7,223.7,122.3L223.7,122.3z"/>
					</g>
				</g>
				<g class="st3">
					<defs>
						<path id="SVGID_7_" d="M219.2,115.9c0,0.9,0.8,0.7,0.7,2c0.1,0.8-0.2,0.6-0.3,1.3h1.3c0.2-0.9,0.6-1.1,1-2.3
							c0.1-1.2-1-1-0.7-1.8c0.5-0.8,0.3-1.6-0.7-2.2C220.7,114,219.2,115.1,219.2,115.9"/>
					</defs>
					<clipPath id="SVGID_8_">
						<use xlink:href="#SVGID_7_"  style="overflow:visible;"/>
					</clipPath>
					
						<linearGradient id="SVGID_9_" gradientUnits="userSpaceOnUse" x1="-566.5939" y1="821.5721" x2="-566.2535" y2="821.5721" gradientTransform="matrix(-9.0356 -6.8132 3.013 -20.432 -7374.7021 13041.9014)">
						<stop  offset="0" style="stop-color:#EA0020"/>
						<stop  offset="1" style="stop-color:#FCFF2C"/>
					</linearGradient>
					<polygon class="st9" points="222.8,113.6 219.5,111.1 218.4,118.7 221.7,121.1 					"/>
				</g>
				<g class="st3">
					<defs>
						<rect id="SVGID_10_" x="-14.1" y="-0.6" width="345.6" height="201.6"/>
					</defs>
					<clipPath id="SVGID_11_">
						<use xlink:href="#SVGID_10_"  style="overflow:visible;"/>
					</clipPath>
					<g class="st10">
						<path d="M221,119.4h-1.4c-0.1-0.5,0-0.6,0.1-0.8c0.1-0.1,0.1-0.3,0.1-0.7c0.1-0.7-0.1-1-0.3-1.2c-0.2-0.2-0.3-0.4-0.3-0.8
							c0-0.4,0.3-0.9,0.6-1.3c0.4-0.5,0.8-1.1,0.7-1.6c1.2,0.5,1.5,1.4,0.9,2.3c-0.1,0.3,0,0.4,0.2,0.6c0.2,0.2,0.5,0.5,0.5,1.2
							c-0.2,0.6-0.4,0.9-0.5,1.3C221.3,118.6,221.1,118.8,221,119.4L221,119.4L221,119.4z M220.4,113.1c0.3,0.5-0.1,1.1-0.5,1.7
							c-0.3,0.4-0.6,0.8-0.6,1.2c0,0.3,0.1,0.5,0.3,0.7c0.2,0.3,0.4,0.5,0.4,1.3c0,0.4,0,0.6-0.1,0.8c-0.1,0.1-0.1,0.3-0.1,0.6
							l1.1-0.1c0.1-0.5,0.3-0.7,0.4-1.1c0.2-0.3,0.3-0.6,0.5-1.2c0-0.5-0.2-0.8-0.4-1c-0.2-0.2-0.4-0.4-0.2-0.8
							C221.7,114.2,221.1,113.5,220.4,113.1L220.4,113.1z"/>
					</g>
					<path class="st11" d="M227.3,113.4c0,0.4-0.3,0.7-0.7,0.7c-0.4,0-0.8-0.3-0.8-0.7c0-0.4,0.3-0.8,0.8-0.8
						C227,112.7,227.3,113,227.3,113.4L227.3,113.4z"/>
					<g class="st10">
						<path d="M226.6,114.3c-0.5,0-0.9-0.4-0.9-0.9c0-1,1.7-1,1.7,0C227.4,113.9,227,114.3,226.6,114.3L226.6,114.3z M226.6,112.8
							c-0.4,0-0.6,0.3-0.6,0.6c0,0.7,1.3,0.7,1.3,0C227.2,113.1,226.9,112.8,226.6,112.8L226.6,112.8z"/>
					</g>
					<g class="st10">
						<polygon class="st7" points="222.4,107 222.1,106.8 226.2,100.7 230.6,106.8 226.2,100.9 222.4,107 						"/>
					</g>
					<path class="st11" d="M227.2,104.6c0,0.4-0.4,0.8-0.8,0.8c-0.5,0-0.8-0.4-0.8-0.8c0-0.5,0.4-0.8,0.8-0.8
						C226.8,103.8,227.2,104.2,227.2,104.6L227.2,104.6z"/>
					<g class="st10">
						<path d="M226.3,105.5c-0.5,0-0.9-0.4-0.9-0.9c0-1,1.8-1,1.8,0C227.3,105.1,226.8,105.5,226.3,105.5L226.3,105.5z M226.3,103.9
							c-0.4,0-0.7,0.3-0.7,0.7c0,0.8,1.4,0.8,1.4,0C227,104.2,226.7,103.9,226.3,103.9L226.3,103.9z"/>
					</g>
					<path class="st11" d="M223,111.3l6.4,0c0,0,0.1-0.8-0.7-1.3c3.3-0.5,2.5-3.4,5.3-3.6c0.5,0.1-1.5,1.3-1.5,1.3s-1.7,1.2-0.9,1.8
						c0.6,0.5,0.9-0.3,1-0.9c0.1-0.6,2.7-1,2.3-2.6c-0.6-1.4-4.3,0.9-4.3,0.9l-2.6,0c-0.2-0.3-0.9-1.5-1.6-1.5
						c-0.9,0-1.5,1.5-1.5,1.5H221h-2.1c0,0-0.2,1.5,2.8,1.8c0.7,0.9,1.2,1.1,1.8,1.4C223.1,110.4,223,110.8,223,111.3L223,111.3z"/>
					<g class="st10">
						<path d="M229.5,111.5l-6.5,0c-0.1-0.7,0-1.1,0.4-1.5c-0.6-0.1-1.1-0.3-1.8-1.2c-1.2-0.1-2.1-0.4-2.5-1
							c-0.4-0.5-0.3-0.9-0.3-0.9l6-0.1c-0.1,0,0.6-1.5,1.5-1.5c0.9,0,1.6,1.4,1.7,1.5l2.5,0c0-0.1,3.8-2.1,4.4-0.9
							c0.3,1.2-0.8,1.8-1.6,2.2c-0.3,0.2-0.7,0.4-0.7,0.5c-0.1,0.3-0.2,1.1-0.7,1.1l-0.4-0.2c-0.2-0.1-0.2-0.3-0.2-0.5
							c0-0.7,1.1-1.5,1.2-1.5c0.7-0.4,1.5-0.9,1.5-1.1c-1.3,0.1-1.7,0.8-2.3,1.6c-0.6,0.8-1.2,1.8-3,2
							C229.6,110.5,229.5,111.3,229.5,111.5L229.5,111.5L229.5,111.5z M218.9,107c0.1,0.1,0.1,0.3,0.3,0.6c0.3,0.4,0.9,0.8,2.4,1
							c0.7,0.9,1.2,1.1,1.8,1.4c-0.3,0.5-0.4,0.8-0.4,1.4l6.2-0.1c0-0.2-0.1-0.8-0.6-1.1c1.7-0.4,2.3-1.3,2.9-2.1
							c0.5-0.8,1.1-1.6,2.5-1.6c0.3,0.4-0.6,1-1.4,1.5c-0.3,0.2-1.1,0.8-1.1,1.3l0.1,0.4l0.4,0c0.3,0,0.4-0.5,0.5-0.9
							c0-0.3,0.4-0.4,0.8-0.7c0.8-0.4,1.7-0.9,1.5-1.9c-0.5-1-4.1,1-4.1,1l-2.7,0c-0.4-0.6-1-1.5-1.6-1.5c-0.8,0-1.4,1.4-1.4,1.4
							L218.9,107L218.9,107z"/>
					</g>
					<g class="st10">
						<polygon points="223.4,110.1 223.4,109.9 228.8,109.9 223.4,110.1 						"/>
					</g>
					<g class="st10">
						<path d="M223.4,109.9c-2.1-0.4-2.5-2.9-2.5-2.9l0.2,0C221.1,106.9,221.6,109.3,223.4,109.9L223.4,109.9z"/>
					</g>
				</g>
				<g class="st3">
					<defs>
						<path id="SVGID_12_" d="M219,103.5c0,0.9,0.8,0.7,0.7,2c0.1,0.8-0.2,0.6-0.3,1.3h1.3c0.2-0.9,0.6-1.1,1-2.3
							c0.1-1.2-1-1-0.7-1.8c0.5-0.8,0.3-1.6-0.7-2.2C220.5,101.6,219,102.6,219,103.5"/>
					</defs>
					<clipPath id="SVGID_13_">
						<use xlink:href="#SVGID_12_"  style="overflow:visible;"/>
					</clipPath>
					
						<linearGradient id="SVGID_14_" gradientUnits="userSpaceOnUse" x1="-566.9948" y1="820.5021" x2="-566.6567" y2="820.5021" gradientTransform="matrix(-9.0356 -6.8132 3.013 -20.432 -7375.3232 13004.8809)">
						<stop  offset="0" style="stop-color:#EA0020"/>
						<stop  offset="1" style="stop-color:#FCFF2C"/>
					</linearGradient>
					<polygon class="st12" points="222.5,101.2 219.3,98.7 218.1,106.2 221.4,108.7 					"/>
				</g>
				<g class="st3">
					<defs>
						<rect id="SVGID_15_" x="-14.1" y="-0.6" width="345.6" height="201.6"/>
					</defs>
					<clipPath id="SVGID_16_">
						<use xlink:href="#SVGID_15_"  style="overflow:visible;"/>
					</clipPath>
					<g class="st13">
						<path d="M220.8,107h-1.4c-0.1-0.5,0-0.6,0.1-0.8c0.1-0.1,0.1-0.3,0.1-0.7c0.1-0.7-0.1-1-0.3-1.2c-0.2-0.2-0.3-0.4-0.3-0.8
							c0-0.4,0.3-0.9,0.6-1.3c0.4-0.5,0.8-1.1,0.7-1.6c1.2,0.5,1.5,1.4,0.9,2.3c-0.1,0.3,0,0.4,0.2,0.6c0.2,0.2,0.5,0.5,0.5,1.2
							c-0.2,0.6-0.4,1-0.5,1.3C221,106.2,220.9,106.4,220.8,107L220.8,107L220.8,107z M220.2,100.6c0.3,0.5-0.1,1.1-0.5,1.7
							c-0.3,0.4-0.6,0.8-0.6,1.2c0,0.3,0.1,0.5,0.3,0.7c0.2,0.3,0.4,0.5,0.4,1.3c0,0.4,0,0.6-0.1,0.8c-0.1,0.1-0.1,0.3-0.1,0.6
							l1.1-0.1c0.1-0.5,0.3-0.7,0.4-1.1c0.2-0.3,0.3-0.6,0.5-1.2c0-0.5-0.2-0.8-0.4-1c-0.2-0.2-0.4-0.4-0.2-0.8
							C221.5,101.7,220.9,101,220.2,100.6L220.2,100.6z"/>
					</g>
					<path class="st14" d="M227.1,101c0,0.4-0.3,0.7-0.7,0.7c-0.4,0-0.8-0.3-0.8-0.7c0-0.4,0.3-0.8,0.8-0.8
						C226.8,100.2,227.1,100.6,227.1,101L227.1,101z"/>
					<g class="st13">
						<path d="M226.3,101.8c-0.5,0-0.9-0.4-0.9-0.9c0-1,1.7-1,1.7,0C227.2,101.5,226.8,101.8,226.3,101.8L226.3,101.8z M226.3,100.3
							c-0.4,0-0.6,0.3-0.6,0.6c0,0.7,1.3,0.7,1.3,0C227,100.6,226.7,100.3,226.3,100.3L226.3,100.3z"/>
					</g>
					<g class="st13">
						<polygon class="st7" points="266,95.7 265.7,95.5 269.9,89.4 274.3,95.5 269.9,89.6 266,95.7 						"/>
					</g>
					<path class="st14" d="M270.8,93.3c0,0.5-0.4,0.8-0.8,0.8c-0.4,0-0.8-0.4-0.8-0.8c0-0.4,0.4-0.8,0.8-0.8
						C270.5,92.5,270.8,92.9,270.8,93.3L270.8,93.3z"/>
					<g class="st13">
						<path d="M270,94.2c-0.5,0-0.9-0.4-0.9-0.9c0-1,1.8-1,1.8,0C270.9,93.8,270.5,94.2,270,94.2L270,94.2z M270,92.6
							c-0.4,0-0.7,0.3-0.7,0.7c0,0.8,1.4,0.8,1.4,0C270.7,92.9,270.4,92.6,270,92.6L270,92.6z"/>
					</g>
					<path class="st14" d="M266.7,100l6.4,0c0,0,0.1-0.8-0.7-1.3c3.3-0.5,2.5-3.4,5.3-3.6c0.5,0.1-1.5,1.2-1.5,1.2s-1.7,1.2-0.9,1.8
						c0.6,0.5,0.9-0.3,1-0.9c0.1-0.6,2.7-1,2.3-2.6c-0.6-1.4-4.3,0.9-4.3,0.9l-2.6,0c-0.2-0.3-0.9-1.5-1.6-1.5
						c-0.9,0-1.5,1.5-1.5,1.5h-3.8h-2.1c0,0-0.2,1.5,2.8,1.8c0.7,0.9,1.2,1.1,1.8,1.4C266.8,99.1,266.7,99.5,266.7,100L266.7,100z"
						/>
					<g class="st13">
						<path d="M273.1,100.2l-6.5,0c-0.1-0.7,0-1.1,0.4-1.4c-0.6,0-1.1-0.3-1.8-1.2c-1.2-0.1-2.1-0.4-2.5-1c-0.4-0.5-0.3-0.9-0.3-0.9
							l6-0.1c-0.1,0,0.6-1.5,1.5-1.5c0.8,0,1.6,1.3,1.7,1.5l2.5,0c0-0.1,3.8-2.1,4.4-0.9c0.3,1.2-0.8,1.7-1.6,2.2
							c-0.3,0.2-0.7,0.4-0.7,0.5c0,0.3-0.2,1.1-0.7,1.1l-0.4-0.2c-0.2-0.1-0.3-0.3-0.2-0.5c0-0.7,1.1-1.4,1.2-1.5
							c0.7-0.4,1.5-0.9,1.5-1.1c-1.3,0.1-1.7,0.8-2.3,1.6c-0.6,0.8-1.2,1.8-3,2C273.2,99.2,273.2,100,273.1,100.2L273.1,100.2
							L273.1,100.2z M262.6,95.7c0.1,0.1,0.1,0.3,0.3,0.6c0.3,0.4,0.9,0.8,2.4,1c0.7,0.9,1.2,1.1,1.8,1.4c-0.3,0.5-0.4,0.8-0.4,1.3
							l6.2-0.1c0-0.2-0.1-0.8-0.6-1.1c1.7-0.4,2.3-1.3,2.9-2.1c0.5-0.8,1.1-1.6,2.5-1.6c0.3,0.4-0.6,1-1.4,1.5
							c-0.3,0.2-1.1,0.8-1.1,1.3l0.1,0.4l0.4,0c0.3,0,0.4-0.5,0.5-0.9c0-0.3,0.4-0.4,0.8-0.7c0.8-0.4,1.7-0.9,1.5-1.9
							c-0.5-1-4.1,1-4.1,1h-2.7c-0.4-0.6-1-1.5-1.6-1.5c-0.8,0-1.4,1.4-1.4,1.4L262.6,95.7L262.6,95.7z"/>
					</g>
					<g class="st13">
						<polygon points="267.1,98.9 267.1,98.6 272.4,98.6 267.1,98.9 						"/>
					</g>
					<g class="st13">
						<path d="M267.1,98.6c-2.1-0.4-2.5-2.8-2.5-2.9l0.2,0C264.8,95.6,265.2,98,267.1,98.6L267.1,98.6z"/>
					</g>
				</g>
				<g class="st3">
					<defs>
						<path id="SVGID_17_" d="M262.7,92.2c0,0.9,0.8,0.7,0.7,2c0.1,0.8-0.2,0.6-0.3,1.3h1.3c0.2-0.9,0.6-1.1,0.9-2.3
							c0.1-1.2-0.9-1-0.6-1.8c0.5-0.8,0.3-1.6-0.7-2.2C264.1,90.3,262.7,91.3,262.7,92.2"/>
					</defs>
					<clipPath id="SVGID_18_">
						<use xlink:href="#SVGID_17_"  style="overflow:visible;"/>
					</clipPath>
					
						<linearGradient id="SVGID_19_" gradientUnits="userSpaceOnUse" x1="-558.9496" y1="816.7366" x2="-558.6093" y2="816.7366" gradientTransform="matrix(-9.0352 -6.8129 3.0128 -20.431 -7247.4727 12970.6221)">
						<stop  offset="0" style="stop-color:#EA0020"/>
						<stop  offset="1" style="stop-color:#FCFF2C"/>
					</linearGradient>
					<polygon class="st15" points="266.2,89.9 262.9,87.4 261.8,94.9 265.1,97.4 					"/>
				</g>
				<g class="st3">
					<defs>
						<rect id="SVGID_20_" x="-14.1" y="-0.6" width="345.6" height="201.6"/>
					</defs>
					<clipPath id="SVGID_21_">
						<use xlink:href="#SVGID_20_"  style="overflow:visible;"/>
					</clipPath>
					<g class="st16">
						<path d="M264.5,95.7h-1.4c-0.1-0.5,0-0.6,0.1-0.8c0.1-0.1,0.1-0.3,0.1-0.7c0.1-0.7-0.1-1-0.3-1.2c-0.2-0.2-0.3-0.4-0.3-0.8
							c0-0.4,0.3-0.9,0.6-1.3c0.4-0.5,0.8-1.1,0.7-1.6c0.7,0.2,1.1,0.6,1.2,1.1c0.1,0.4,0,0.8-0.2,1.2c-0.1,0.3,0,0.4,0.2,0.6
							c0.2,0.2,0.5,0.5,0.5,1.2c-0.2,0.6-0.4,0.9-0.5,1.3C264.7,94.8,264.6,95.1,264.5,95.7L264.5,95.7L264.5,95.7z M263.9,89.3
							c0.3,0.5-0.1,1.1-0.5,1.7c-0.3,0.4-0.6,0.8-0.6,1.2c0,0.3,0.1,0.5,0.3,0.7c0.2,0.3,0.4,0.5,0.4,1.3c0,0.4,0,0.6-0.1,0.8
							c-0.1,0.1-0.1,0.3-0.2,0.6l1.1-0.1c0.1-0.5,0.2-0.7,0.4-1.1c0.2-0.3,0.3-0.6,0.5-1.2c0-0.5-0.2-0.8-0.4-1
							c-0.2-0.2-0.4-0.4-0.2-0.8c0.2-0.4,0.3-0.7,0.2-1C264.7,90,264.4,89.7,263.9,89.3L263.9,89.3z"/>
					</g>
					<path class="st17" d="M270.8,89.7c0,0.4-0.3,0.8-0.8,0.8c-0.4,0-0.8-0.3-0.8-0.8c0-0.4,0.3-0.7,0.8-0.7
						C270.4,88.9,270.8,89.3,270.8,89.7L270.8,89.7z"/>
					<g class="st16">
						<path d="M270,90.5c-0.5,0-0.9-0.4-0.9-0.9c0-0.9,1.7-0.9,1.7,0C270.9,90.2,270.5,90.5,270,90.5L270,90.5z M270,89
							c-0.4,0-0.6,0.3-0.6,0.6c0,0.7,1.3,0.7,1.3,0C270.7,89.3,270.4,89,270,89L270,89z"/>
					</g>
					<g class="st16">
						<polygon class="st7" points="223.4,83.6 223.1,83.4 227.2,77.3 231.6,83.4 227.2,77.5 223.4,83.6 						"/>
					</g>
					<path class="st17" d="M228.2,81.2c0,0.5-0.4,0.8-0.8,0.8c-0.5,0-0.8-0.4-0.8-0.8c0-0.4,0.4-0.8,0.8-0.8
						C227.8,80.4,228.2,80.8,228.2,81.2L228.2,81.2z"/>
					<g class="st16">
						<path d="M227.4,82.2c-0.5,0-0.9-0.4-0.9-0.9c0-1,1.8-1,1.8,0C228.3,81.7,227.9,82.2,227.4,82.2L227.4,82.2z M227.4,80.5
							c-0.4,0-0.7,0.3-0.7,0.7c0,0.8,1.4,0.8,1.4,0C228.1,80.8,227.7,80.5,227.4,80.5L227.4,80.5z"/>
					</g>
					<path class="st17" d="M224,87.9l6.4,0c0,0,0.1-0.8-0.7-1.3c3.3-0.5,2.5-3.4,5.3-3.6c0.5,0.1-1.5,1.3-1.5,1.3s-1.7,1.2-0.9,1.8
						c0.6,0.5,0.9-0.3,1-0.9c0.1-0.6,2.7-1,2.3-2.6c-0.6-1.4-4.3,0.9-4.3,0.9l-2.6,0c-0.2-0.3-0.9-1.5-1.6-1.5
						c-0.9,0-1.5,1.5-1.5,1.5H222h-2.1c0,0-0.2,1.5,2.8,1.8c0.7,0.9,1.2,1.1,1.8,1.4C224.1,87,224,87.4,224,87.9L224,87.9z"/>
					<g class="st16">
						<path d="M230.5,88.1l-6.5,0c-0.1-0.6,0-1.1,0.4-1.4c-0.6,0-1.1-0.3-1.8-1.2c-1.2-0.1-2.1-0.4-2.5-1c-0.4-0.5-0.3-0.9-0.3-0.9
							l6-0.1c-0.1,0,0.6-1.5,1.5-1.5c0.8,0,1.5,1.2,1.7,1.5l2.5,0c0,0,2.2-1.4,3.5-1.4c0.5,0,0.8,0.2,0.9,0.5
							c0.3,1.2-0.8,1.8-1.6,2.2c-0.3,0.2-0.7,0.4-0.7,0.5c0,0.3-0.2,1.1-0.7,1.1l-0.4-0.2c-0.2-0.1-0.2-0.3-0.2-0.5
							c0-0.7,1.1-1.4,1.2-1.5c0.7-0.4,1.5-0.9,1.5-1.1c-1.3,0.1-1.7,0.8-2.3,1.6c-0.6,0.8-1.2,1.8-3,2
							C230.6,87.1,230.5,87.9,230.5,88.1L230.5,88.1L230.5,88.1z M220,83.6c0.1,0.1,0.1,0.3,0.3,0.6c0.3,0.4,0.9,0.8,2.4,1
							c0.7,0.9,1.2,1.1,1.8,1.4c-0.3,0.5-0.4,0.8-0.4,1.4l6.2-0.1c0-0.2-0.1-0.8-0.6-1.1c1.7-0.4,2.3-1.3,2.9-2.1
							c0.5-0.8,1.1-1.6,2.5-1.6c0.3,0.4-0.6,1-1.4,1.5c-0.3,0.2-1,0.8-1.1,1.3l0.1,0.4l0.4,0c0.3,0,0.4-0.5,0.5-0.9
							c0-0.3,0.4-0.4,0.8-0.7c0.8-0.4,1.7-0.9,1.5-1.9c-0.5-1-4.1,1-4.1,1H229c-0.5-0.7-1.1-1.5-1.6-1.5c-0.8,0-1.4,1.4-1.4,1.4
							L220,83.6L220,83.6z"/>
					</g>
					<g class="st16">
						<polygon points="224.5,86.8 224.5,86.6 229.8,86.5 224.5,86.8 						"/>
					</g>
					<g class="st16">
						<path d="M224.4,86.5c-2.1-0.4-2.5-2.8-2.5-2.9l0.2,0C222.1,83.5,222.6,85.9,224.4,86.5L224.4,86.5z"/>
					</g>
				</g>
				<g class="st3">
					<defs>
						<path id="SVGID_22_" d="M220,80.1c0,0.9,0.7,0.7,0.7,2c0.1,0.8-0.2,0.6-0.3,1.3h1.3c0.2-0.9,0.6-1.1,0.9-2.3
							c0.1-1.2-0.9-1-0.7-1.8c0.5-0.8,0.3-1.6-0.7-2.2C221.5,78.2,220,79.2,220,80.1"/>
					</defs>
					<clipPath id="SVGID_23_">
						<use xlink:href="#SVGID_22_"  style="overflow:visible;"/>
					</clipPath>
					
						<linearGradient id="SVGID_24_" gradientUnits="userSpaceOnUse" x1="-567.4385" y1="818.4355" x2="-567.1002" y2="818.4355" gradientTransform="matrix(-9.0365 -6.8139 3.0133 -20.4341 -7372.8398 12937.5811)">
						<stop  offset="0" style="stop-color:#EA0020"/>
						<stop  offset="1" style="stop-color:#FCFF2C"/>
					</linearGradient>
					<polygon class="st18" points="223.6,77.8 220.3,75.3 219.2,82.9 222.4,85.3 					"/>
				</g>
				<g class="st3">
					<defs>
						<rect id="SVGID_25_" x="-14.1" y="-0.6" width="345.6" height="201.6"/>
					</defs>
					<clipPath id="SVGID_26_">
						<use xlink:href="#SVGID_25_"  style="overflow:visible;"/>
					</clipPath>
					<g class="st19">
						<path d="M221.8,83.6h-1.4c-0.1-0.5,0-0.6,0.1-0.8c0.1-0.1,0.1-0.3,0.1-0.7c0.1-0.7-0.1-1-0.3-1.2c-0.2-0.2-0.3-0.4-0.3-0.8
							c0-0.4,0.3-0.9,0.6-1.3c0.4-0.5,0.8-1.1,0.7-1.6c0.7,0.2,1.1,0.6,1.2,1.1c0.1,0.4,0,0.8-0.2,1.2c-0.1,0.3,0,0.4,0.2,0.6
							c0.2,0.2,0.5,0.5,0.5,1.2c-0.2,0.6-0.4,0.9-0.5,1.3C222.1,82.8,221.9,83,221.8,83.6L221.8,83.6L221.8,83.6z M221.2,77.3
							c0.3,0.5-0.1,1.1-0.5,1.7c-0.3,0.4-0.6,0.8-0.6,1.2c0,0.3,0.1,0.5,0.3,0.7c0.2,0.3,0.4,0.5,0.4,1.3c0,0.4,0,0.6-0.1,0.8
							c-0.1,0.1-0.1,0.3-0.1,0.6l1.1-0.1c0.1-0.5,0.3-0.7,0.4-1.1c0.2-0.3,0.3-0.6,0.5-1.2c0-0.5-0.2-0.8-0.4-1
							c-0.2-0.2-0.4-0.4-0.2-0.8c0.2-0.4,0.3-0.7,0.2-1C222,77.9,221.7,77.6,221.2,77.3L221.2,77.3z"/>
					</g>
					<path class="st20" d="M228.1,77.6c0,0.4-0.3,0.8-0.8,0.8c-0.4,0-0.8-0.3-0.8-0.8c0-0.4,0.3-0.7,0.8-0.7
						C227.8,76.9,228.1,77.2,228.1,77.6L228.1,77.6z"/>
					<g class="st19">
						<path d="M227.4,78.5c-0.5,0-0.9-0.4-0.9-0.9c0-0.9,1.7-0.9,1.7,0C228.2,78.1,227.8,78.5,227.4,78.5L227.4,78.5z M227.4,77
							c-0.3,0-0.6,0.3-0.6,0.6c0,0.7,1.3,0.7,1.3,0C228,77.3,227.7,77,227.4,77L227.4,77z"/>
					</g>
					<g class="st19">
						<polygon class="st7" points="223.5,71.7 223.2,71.5 227.3,65.5 231.7,71.5 227.3,65.7 223.5,71.7 						"/>
					</g>
					<path class="st20" d="M228.3,69.4c0,0.5-0.4,0.8-0.8,0.8c-0.4,0-0.8-0.4-0.8-0.8c0-0.5,0.4-0.8,0.8-0.8
						C227.9,68.5,228.3,68.9,228.3,69.4L228.3,69.4z"/>
					<g class="st19">
						<path d="M227.4,70.3c-0.5,0-0.9-0.4-0.9-0.9c0-1,1.8-1,1.8,0C228.4,69.9,227.9,70.3,227.4,70.3L227.4,70.3z M227.4,68.6
							c-0.4,0-0.7,0.3-0.7,0.7c0,0.8,1.4,0.8,1.4,0C228.2,69,227.8,68.6,227.4,68.6L227.4,68.6z"/>
					</g>
					<path class="st20" d="M224.1,76.1l6.4,0c0,0,0.1-0.8-0.7-1.3c3.3-0.5,2.5-3.4,5.3-3.6c0.5,0.1-1.5,1.2-1.5,1.2
						s-1.7,1.2-0.9,1.8c0.6,0.5,0.9-0.3,1-0.9c0.1-0.6,2.7-1,2.3-2.6c-0.6-1.4-4.3,0.9-4.3,0.9l-2.6,0c-0.2-0.3-0.9-1.5-1.6-1.5
						c-0.9,0-1.5,1.5-1.5,1.5h-3.8H220c0,0-0.2,1.5,2.8,1.8c0.7,0.9,1.2,1.1,1.8,1.4C224.2,75.1,224.1,75.5,224.1,76.1L224.1,76.1z"
						/>
					<g class="st19">
						<path d="M230.6,76.2l-6.5,0c-0.1-0.5,0-1.1,0.4-1.4c-0.6-0.1-1.1-0.3-1.8-1.2c-1.2-0.1-2.1-0.4-2.5-1
							c-0.4-0.5-0.3-0.9-0.3-0.9l6-0.1c-0.1,0,0.6-1.5,1.5-1.5c0.8,0,1.6,1.3,1.7,1.5l2.5,0c0-0.1,3.8-2.1,4.4-0.8
							c0.3,1.2-0.8,1.8-1.6,2.2c-0.3,0.2-0.7,0.4-0.7,0.5c0,0.3-0.2,1.1-0.7,1.1l-0.4-0.2c-0.2-0.1-0.2-0.3-0.2-0.5
							c0-0.7,1.1-1.5,1.2-1.5c0.7-0.4,1.5-0.9,1.5-1.1c-1.3,0.1-1.7,0.8-2.3,1.6c-0.6,0.8-1.2,1.8-3,2
							C230.7,75.2,230.6,76.1,230.6,76.2L230.6,76.2L230.6,76.2z M220.1,71.8c0,0.1,0.1,0.3,0.3,0.6c0.3,0.4,0.9,0.8,2.4,1
							c0.7,0.9,1.2,1.1,1.8,1.4c-0.3,0.5-0.4,0.8-0.4,1.3l6.2-0.1c0-0.2-0.1-0.8-0.6-1.1c1.7-0.4,2.3-1.3,2.9-2.1
							c0.5-0.8,1.1-1.6,2.5-1.7c0.3,0.4-0.6,1-1.4,1.5c-0.3,0.2-1.1,0.8-1.1,1.3l0.1,0.4l0.4,0c0.3,0,0.4-0.5,0.5-0.9
							c0-0.3,0.4-0.4,0.8-0.7c0.8-0.4,1.7-0.9,1.5-1.9c-0.5-1-4.1,1-4.1,1h-2.7c-0.4-0.6-1-1.5-1.6-1.5c-0.8,0-1.4,1.4-1.4,1.4
							L220.1,71.8L220.1,71.8z"/>
					</g>
					<g class="st19">
						<polygon points="224.6,74.9 224.6,74.7 229.9,74.7 224.6,74.9 						"/>
					</g>
					<g class="st19">
						<path d="M224.5,74.6c-2.1-0.4-2.5-2.8-2.5-2.9l0.2,0C222.2,71.7,222.7,74.1,224.5,74.6L224.5,74.6z"/>
					</g>
				</g>
				<g class="st3">
					<defs>
						<path id="SVGID_27_" d="M220.1,68.3c0,0.9,0.8,0.7,0.7,2c0.1,0.8-0.2,0.6-0.3,1.3h1.3c0.2-1,0.5-1.1,0.9-2.3
							c0.1-1.2-0.9-1-0.7-1.8c0.5-0.8,0.3-1.6-0.7-2.2C221.6,66.4,220.1,67.4,220.1,68.3"/>
					</defs>
					<clipPath id="SVGID_28_">
						<use xlink:href="#SVGID_27_"  style="overflow:visible;"/>
					</clipPath>
					
						<linearGradient id="SVGID_29_" gradientUnits="userSpaceOnUse" x1="-567.7903" y1="817.4377" x2="-567.4499" y2="817.4377" gradientTransform="matrix(-9.036 -6.8135 3.0131 -20.433 -7372.4155 12902.291)">
						<stop  offset="0" style="stop-color:#EA0020"/>
						<stop  offset="1" style="stop-color:#FCFF2C"/>
					</linearGradient>
					<polygon class="st21" points="223.7,65.9 220.4,63.4 219.3,71 222.5,73.5 					"/>
				</g>
				<g class="st3">
					<defs>
						<rect id="SVGID_30_" x="-14.1" y="-0.6" width="345.6" height="201.6"/>
					</defs>
					<clipPath id="SVGID_31_">
						<use xlink:href="#SVGID_30_"  style="overflow:visible;"/>
					</clipPath>
					<g class="st22">
						<path d="M221.9,71.7h-1.4c-0.1-0.5,0-0.6,0.1-0.8c0.1-0.1,0.1-0.3,0.1-0.7c0.1-0.7-0.1-1-0.3-1.2c-0.2-0.2-0.3-0.4-0.3-0.8
							c0-0.4,0.3-0.9,0.6-1.3c0.4-0.5,0.8-1.1,0.7-1.6c0.7,0.2,1.1,0.7,1.2,1.1c0.1,0.4,0,0.8-0.2,1.1c-0.1,0.3,0,0.4,0.2,0.6
							c0.2,0.2,0.5,0.5,0.5,1.2c-0.2,0.6-0.4,0.9-0.5,1.2C222.1,70.9,222,71.2,221.9,71.7L221.9,71.7L221.9,71.7z M221.3,65.4
							c0.3,0.5-0.1,1.1-0.5,1.7c-0.3,0.4-0.6,0.8-0.6,1.2c0,0.3,0.1,0.5,0.3,0.7c0.2,0.3,0.4,0.5,0.4,1.3c0,0.4,0,0.6-0.1,0.8
							c-0.1,0.1-0.1,0.3-0.2,0.6l1.1-0.1c0.1-0.5,0.2-0.7,0.4-1.1c0.2-0.3,0.3-0.6,0.5-1.2c0-0.5-0.2-0.8-0.4-1
							c-0.2-0.2-0.4-0.4-0.2-0.8c0.2-0.3,0.3-0.7,0.2-1C222.1,66.1,221.8,65.7,221.3,65.4L221.3,65.4z"/>
					</g>
					<path class="st23" d="M228.2,65.7c0,0.4-0.3,0.8-0.8,0.8c-0.4,0-0.7-0.3-0.7-0.8c0-0.4,0.3-0.8,0.7-0.8
						C227.9,65,228.2,65.3,228.2,65.7L228.2,65.7z"/>
					<g class="st22">
						<path d="M227.4,66.6c-0.5,0-0.9-0.4-0.9-0.9c0-0.9,1.7-0.9,1.7,0C228.3,66.2,227.9,66.6,227.4,66.6L227.4,66.6z M227.4,65.1
							c-0.4,0-0.6,0.3-0.6,0.6c0,0.7,1.3,0.7,1.3,0C228.1,65.4,227.8,65.1,227.4,65.1L227.4,65.1z"/>
					</g>
					<g class="st22">
						<polygon class="st7" points="223.7,59.7 223.4,59.5 227.5,53.4 231.9,59.5 227.5,53.6 223.7,59.7 						"/>
					</g>
					<path class="st23" d="M228.5,57.3c0,0.5-0.4,0.8-0.8,0.8c-0.4,0-0.8-0.4-0.8-0.8c0-0.4,0.4-0.8,0.8-0.8
						C228.1,56.5,228.5,56.9,228.5,57.3L228.5,57.3z"/>
					<g class="st22">
						<path d="M227.7,58.2c-0.5,0-0.9-0.4-0.9-0.9c0-1,1.8-1,1.8,0C228.6,57.8,228.2,58.2,227.7,58.2L227.7,58.2z M227.7,56.6
							c-0.4,0-0.7,0.3-0.7,0.7c0,0.8,1.4,0.8,1.4,0C228.4,56.9,228.1,56.6,227.7,56.6L227.7,56.6z"/>
					</g>
					<path class="st23" d="M224.3,64l6.4,0c0,0,0.1-0.8-0.7-1.3c3.3-0.5,2.5-3.4,5.3-3.6c0.5,0.1-1.5,1.3-1.5,1.3s-1.7,1.2-0.9,1.8
						c0.6,0.5,0.9-0.3,1-0.9c0.1-0.6,2.7-1,2.3-2.6c-0.6-1.4-4.3,0.9-4.3,0.9l-2.6,0c-0.2-0.3-0.9-1.5-1.6-1.5
						c-0.9,0-1.5,1.5-1.5,1.5h-3.8h-2.1c0,0-0.2,1.5,2.8,1.8c0.7,0.9,1.2,1.1,1.8,1.4C224.4,63.1,224.3,63.5,224.3,64L224.3,64z"/>
					<g class="st22">
						<path d="M230.8,64.2l-6.5,0c-0.1-0.7,0.1-1.1,0.4-1.4c-0.6,0-1.1-0.3-1.8-1.2c-1.2-0.1-2.1-0.4-2.5-1
							c-0.4-0.5-0.3-0.9-0.3-0.9l6-0.1c-0.1,0,0.6-1.5,1.5-1.5c0.8,0,1.6,1.3,1.7,1.5l2.5,0c0-0.1,3.8-2.1,4.4-0.9
							c0.3,1.2-0.8,1.8-1.6,2.2c-0.3,0.2-0.7,0.4-0.7,0.5c-0.1,0.3-0.2,1.1-0.7,1.1l-0.4-0.2c-0.2-0.1-0.2-0.3-0.2-0.5
							c0-0.7,1.1-1.4,1.2-1.5c0.7-0.4,1.5-0.9,1.5-1.1c-1.3,0.1-1.7,0.8-2.3,1.6c-0.6,0.8-1.2,1.8-3,2
							C230.9,63.2,230.8,64,230.8,64.2L230.8,64.2L230.8,64.2z M220.3,59.7c0,0.1,0.1,0.3,0.3,0.6c0.3,0.4,0.9,0.8,2.4,1
							c0.7,0.9,1.2,1.1,1.8,1.4c-0.3,0.5-0.4,0.8-0.4,1.4l6.2-0.1c0-0.2-0.1-0.8-0.6-1.1c1.7-0.4,2.3-1.3,2.9-2.1
							c0.5-0.8,1.1-1.6,2.5-1.6c0.3,0.4-0.6,1-1.4,1.5c-0.3,0.2-1,0.8-1.1,1.3l0.1,0.4l0.4,0c0.3,0,0.4-0.5,0.5-0.9
							c0-0.3,0.4-0.4,0.8-0.7c0.8-0.4,1.7-0.9,1.5-1.9c-0.5-1-4.1,1-4.1,1h-2.7c-0.4-0.6-1-1.5-1.6-1.5c-0.8,0-1.4,1.4-1.4,1.4
							L220.3,59.7L220.3,59.7z"/>
					</g>
					<g class="st22">
						<polygon points="224.8,62.8 224.8,62.6 230.1,62.6 224.8,62.8 						"/>
					</g>
					<g class="st22">
						<path d="M224.8,62.6c-2.1-0.4-2.5-2.8-2.5-2.9l0.2,0C222.5,59.6,222.9,62,224.8,62.6L224.8,62.6z"/>
					</g>
				</g>
				<g class="st3">
					<defs>
						<path id="SVGID_32_" d="M220.3,56.2c0,0.9,0.8,0.7,0.7,2c0.1,0.8-0.2,0.6-0.3,1.3h1.3c0.2-0.9,0.6-1.1,0.9-2.3
							c0.1-1.2-0.9-1-0.6-1.8c0.5-0.8,0.3-1.6-0.7-2.2C221.8,54.3,220.3,55.3,220.3,56.2"/>
					</defs>
					<clipPath id="SVGID_33_">
						<use xlink:href="#SVGID_32_"  style="overflow:visible;"/>
					</clipPath>
					
						<linearGradient id="SVGID_34_" gradientUnits="userSpaceOnUse" x1="-568.1139" y1="816.3765" x2="-567.7735" y2="816.3765" gradientTransform="matrix(-9.0375 -6.8146 3.0136 -20.4362 -7373.2114 12868.3193)">
						<stop  offset="0" style="stop-color:#EA0020"/>
						<stop  offset="1" style="stop-color:#FCFF2C"/>
					</linearGradient>
					<polygon class="st24" points="223.9,53.9 220.6,51.4 219.5,58.9 222.8,61.4 					"/>
				</g>
				<g class="st3">
					<defs>
						<rect id="SVGID_35_" x="-14.1" y="-0.6" width="345.6" height="201.6"/>
					</defs>
					<clipPath id="SVGID_36_">
						<use xlink:href="#SVGID_35_"  style="overflow:visible;"/>
					</clipPath>
					<g class="st25">
						<path d="M222.1,59.7h-1.4c-0.1-0.5,0-0.6,0.1-0.8c0.1-0.1,0.1-0.3,0.1-0.7c0-0.7-0.1-1-0.3-1.2c-0.2-0.2-0.3-0.4-0.3-0.8
							c0-0.4,0.3-0.9,0.6-1.3c0.4-0.5,0.8-1.1,0.7-1.6c0.7,0.2,1.1,0.7,1.2,1.1c0.1,0.4,0,0.8-0.2,1.2c-0.1,0.3,0,0.4,0.2,0.6
							c0.2,0.2,0.5,0.5,0.5,1.2c-0.2,0.6-0.4,0.9-0.5,1.2C222.4,58.8,222.2,59.1,222.1,59.7L222.1,59.7L222.1,59.7z M221.5,53.3
							c0.3,0.5-0.1,1.1-0.5,1.7c-0.3,0.4-0.6,0.8-0.6,1.2c0,0.3,0.1,0.5,0.3,0.7c0.2,0.3,0.4,0.5,0.4,1.3c0,0.4,0,0.6-0.1,0.8
							c-0.1,0.1-0.1,0.3-0.1,0.6l1.1-0.1c0.1-0.5,0.3-0.7,0.4-1.1c0.2-0.3,0.3-0.6,0.5-1.2c0-0.5-0.2-0.8-0.4-1
							c-0.2-0.2-0.4-0.4-0.2-0.8c0.2-0.3,0.3-0.7,0.2-1C222.4,54,222.1,53.7,221.5,53.3L221.5,53.3z"/>
					</g>
					<path class="st26" d="M228.4,53.7c0,0.4-0.3,0.8-0.8,0.8c-0.4,0-0.7-0.3-0.7-0.8c0-0.4,0.3-0.7,0.7-0.7
						C228.1,52.9,228.4,53.3,228.4,53.7L228.4,53.7z"/>
					<g class="st25">
						<path d="M227.7,54.5c-0.5,0-0.9-0.4-0.9-0.9c0-0.9,1.7-0.9,1.7,0C228.5,54.2,228.1,54.5,227.7,54.5L227.7,54.5z M227.7,53
							c-0.4,0-0.6,0.3-0.6,0.6c0,0.7,1.3,0.7,1.3,0C228.3,53.3,228,53,227.7,53L227.7,53z"/>
					</g>
					<g class="st25">
						<polygon class="st7" points="266.4,59.9 266.1,59.7 270.2,53.6 274.6,59.7 270.2,53.8 266.4,59.9 						"/>
					</g>
					<path class="st26" d="M271.2,57.5c0,0.5-0.4,0.8-0.8,0.8c-0.5,0-0.8-0.4-0.8-0.8c0-0.4,0.4-0.8,0.8-0.8
						C270.8,56.7,271.2,57.1,271.2,57.5L271.2,57.5z"/>
					<g class="st25">
						<path d="M270.3,58.4c-0.5,0-0.9-0.4-0.9-0.9c0-1,1.8-1,1.8,0C271.3,58,270.8,58.4,270.3,58.4L270.3,58.4z M270.3,56.8
							c-0.4,0-0.7,0.3-0.7,0.7c0,0.8,1.4,0.8,1.4,0C271.1,57.1,270.7,56.8,270.3,56.8L270.3,56.8z"/>
					</g>
					<path class="st26" d="M267,64.2l6.4,0c0,0,0.1-0.8-0.7-1.3c3.3-0.5,2.5-3.4,5.3-3.6c0.5,0.1-1.5,1.3-1.5,1.3s-1.7,1.2-0.9,1.8
						c0.6,0.5,0.9-0.3,1-0.9c0.1-0.6,2.7-1,2.3-2.6c-0.6-1.4-4.3,0.9-4.3,0.9l-2.6,0c-0.2-0.3-0.9-1.5-1.6-1.5
						c-0.9,0-1.5,1.5-1.5,1.5H265h-2.1c0,0-0.2,1.5,2.8,1.8c0.7,0.9,1.2,1.1,1.8,1.4C267.1,63.3,267,63.7,267,64.2L267,64.2z"/>
					<g class="st25">
						<path d="M273.5,64.3l-6.5,0c-0.1-0.6,0-1.1,0.4-1.4c-0.6-0.1-1.1-0.3-1.8-1.2c-1.2-0.1-2.1-0.4-2.5-1
							c-0.4-0.5-0.3-0.9-0.3-0.9l6-0.1c-0.1,0,0.6-1.5,1.5-1.5c0.8,0,1.6,1.3,1.7,1.5l2.5,0c0-0.1,3.8-2.1,4.4-0.9
							c0.3,1.2-0.8,1.8-1.6,2.2c-0.3,0.2-0.7,0.4-0.7,0.5c-0.1,0.3-0.2,1.1-0.7,1.1l-0.4-0.2c-0.2-0.1-0.2-0.3-0.2-0.5
							c0-0.7,1.1-1.4,1.2-1.5c0.7-0.4,1.5-0.9,1.5-1.1c-1.3,0.1-1.7,0.8-2.3,1.6c-0.6,0.8-1.2,1.8-3,2
							C273.6,63.4,273.5,64.2,273.5,64.3L273.5,64.3L273.5,64.3z M263,59.9c0.1,0.1,0.1,0.3,0.3,0.6c0.3,0.4,0.9,0.8,2.4,1
							c0.7,0.9,1.2,1.1,1.8,1.4c-0.3,0.5-0.4,0.8-0.4,1.3l6.2-0.1c0-0.2-0.1-0.8-0.6-1.1c1.7-0.4,2.3-1.3,2.9-2.1
							c0.5-0.8,1.1-1.6,2.5-1.7c0.3,0.4-0.6,1-1.4,1.5c-0.3,0.2-1,0.8-1.1,1.3l0.1,0.4l0.4,0c0.3,0,0.4-0.5,0.5-0.9
							c0-0.3,0.4-0.4,0.8-0.7c0.8-0.4,1.7-0.9,1.5-1.9c-0.5-1-4.1,1-4.1,1H272c-0.4-0.6-1-1.5-1.6-1.5c-0.8,0-1.4,1.4-1.4,1.4
							L263,59.9L263,59.9z"/>
					</g>
					<g class="st25">
						<polygon points="267.4,63 267.4,62.8 272.8,62.8 267.4,63 						"/>
					</g>
					<g class="st25">
						<path d="M267.4,62.8c-2.1-0.4-2.5-2.8-2.5-2.9l0.2,0C265.1,59.8,265.6,62.2,267.4,62.8L267.4,62.8z"/>
					</g>
				</g>
				<g class="st3">
					<defs>
						<path id="SVGID_37_" d="M263,56.4c0,0.9,0.8,0.7,0.7,2c0.1,0.8-0.2,0.6-0.3,1.3h1.3c0.2-1,0.6-1.1,0.9-2.3
							c0.1-1.2-0.9-1-0.7-1.8c0.5-0.8,0.3-1.6-0.7-2.2C264.5,54.5,263,55.5,263,56.4"/>
					</defs>
					<clipPath id="SVGID_38_">
						<use xlink:href="#SVGID_37_"  style="overflow:visible;"/>
					</clipPath>
					
						<linearGradient id="SVGID_39_" gradientUnits="userSpaceOnUse" x1="-559.8784" y1="813.6271" x2="-559.5401" y2="813.6271" gradientTransform="matrix(-9.0375 -6.8146 3.0136 -20.4362 -7248.106 12868.2354)">
						<stop  offset="0" style="stop-color:#EA0020"/>
						<stop  offset="1" style="stop-color:#FCFF2C"/>
					</linearGradient>
					<polygon class="st27" points="266.5,54.1 263.3,51.6 262.2,59.1 265.4,61.6 					"/>
				</g>
				<g class="st3">
					<defs>
						<rect id="SVGID_40_" x="-14.1" y="-0.6" width="345.6" height="201.6"/>
					</defs>
					<clipPath id="SVGID_41_">
						<use xlink:href="#SVGID_40_"  style="overflow:visible;"/>
					</clipPath>
					<g class="st28">
						<path d="M264.8,59.9h-1.4c-0.1-0.5,0-0.6,0.1-0.8c0.1-0.2,0.1-0.3,0.1-0.7c0.1-0.7-0.1-1-0.3-1.2c-0.2-0.2-0.3-0.4-0.3-0.8
							c0-0.4,0.3-0.9,0.6-1.3c0.4-0.5,0.8-1.1,0.7-1.6c0.7,0.2,1.1,0.7,1.2,1.1c0.1,0.4,0,0.8-0.2,1.2c-0.1,0.3,0,0.4,0.2,0.6
							c0.2,0.2,0.5,0.5,0.5,1.2c-0.2,0.6-0.4,0.9-0.5,1.2C265,59,264.9,59.3,264.8,59.9L264.8,59.9L264.8,59.9z M264.2,53.5
							c0.3,0.5-0.1,1.1-0.5,1.7c-0.3,0.4-0.6,0.8-0.6,1.2c0,0.3,0.1,0.5,0.3,0.7c0.2,0.2,0.4,0.5,0.4,1.3c0,0.4,0,0.6-0.1,0.8
							c-0.1,0.1-0.1,0.3-0.1,0.6l1.1-0.1c0.1-0.5,0.3-0.7,0.4-1.1c0.2-0.3,0.3-0.6,0.5-1.2c0-0.5-0.2-0.8-0.4-1
							c-0.2-0.2-0.4-0.4-0.2-0.8c0.2-0.4,0.3-0.7,0.2-1C265,54.2,264.7,53.8,264.2,53.5L264.2,53.5z"/>
					</g>
					<path class="st29" d="M271.1,53.9c0,0.4-0.3,0.8-0.7,0.8c-0.4,0-0.8-0.3-0.8-0.8c0-0.4,0.3-0.7,0.8-0.7
						C270.8,53.1,271.1,53.5,271.1,53.9L271.1,53.9z"/>
					<g class="st28">
						<path d="M270.3,54.7c-0.5,0-0.9-0.4-0.9-0.9c0-0.9,1.7-0.9,1.7,0C271.2,54.4,270.8,54.7,270.3,54.7L270.3,54.7z M270.3,53.2
							c-0.4,0-0.6,0.3-0.6,0.6c0,0.7,1.3,0.7,1.3,0C271,53.5,270.7,53.2,270.3,53.2L270.3,53.2z"/>
					</g>
					<g class="st28">
						<polygon class="st7" points="266,71.7 265.7,71.5 269.8,65.5 274.2,71.5 269.8,65.6 266,71.7 						"/>
					</g>
					<path class="st29" d="M270.8,69.3c0,0.4-0.4,0.8-0.8,0.8c-0.5,0-0.8-0.4-0.8-0.8c0-0.5,0.4-0.8,0.8-0.8
						C270.4,68.5,270.8,68.9,270.8,69.3L270.8,69.3z"/>
					<g class="st28">
						<path d="M269.9,70.3c-0.5,0-0.9-0.4-0.9-0.9c0-1,1.8-1,1.8,0C270.9,69.8,270.5,70.3,269.9,70.3L269.9,70.3z M269.9,68.6
							c-0.4,0-0.7,0.3-0.7,0.7c0,0.8,1.4,0.8,1.4,0C270.7,68.9,270.3,68.6,269.9,68.6L269.9,68.6z"/>
					</g>
					<path class="st29" d="M266.6,76.1l6.4,0c0,0,0.1-0.8-0.7-1.3c3.3-0.5,2.5-3.4,5.3-3.6c0.5,0.1-1.5,1.3-1.5,1.3
						s-1.7,1.2-0.9,1.8c0.6,0.5,0.9-0.3,1-0.9c0.1-0.6,2.7-1,2.3-2.6c-0.6-1.4-4.3,0.9-4.3,0.9l-2.6,0c-0.2-0.3-0.9-1.5-1.6-1.5
						c-0.9,0-1.5,1.5-1.5,1.5h-3.8h-2.1c0,0-0.2,1.5,2.8,1.8c0.7,0.9,1.2,1.1,1.8,1.4C266.7,75.1,266.6,75.5,266.6,76.1L266.6,76.1z
						"/>
					<g class="st28">
						<path d="M273.1,76.2l-6.5,0c-0.1-0.7,0-1.1,0.4-1.5c-0.6-0.1-1.1-0.3-1.8-1.2c-1.2-0.1-2.1-0.4-2.5-1
							c-0.4-0.5-0.3-0.9-0.3-0.9l6-0.1c-0.1,0,0.6-1.5,1.5-1.5c0.8,0,1.5,1.2,1.7,1.5l2.5,0c0,0,2.2-1.4,3.5-1.4
							c0.5,0,0.8,0.2,0.9,0.5c0.3,1.2-0.8,1.7-1.6,2.2c-0.3,0.2-0.7,0.4-0.7,0.5c-0.1,0.4-0.2,1.1-0.7,1.1l-0.4-0.2
							c-0.2-0.1-0.2-0.3-0.2-0.5c0-0.7,1.1-1.5,1.2-1.5c0.7-0.4,1.5-0.9,1.5-1.1c-1.3,0.1-1.7,0.8-2.3,1.6c-0.6,0.8-1.2,1.8-3,2
							C273.2,75.2,273.1,76,273.1,76.2L273.1,76.2L273.1,76.2z M262.6,71.7c0.1,0.1,0.1,0.3,0.3,0.6c0.3,0.4,0.9,0.8,2.4,1
							c0.7,0.9,1.2,1.1,1.8,1.4c-0.3,0.5-0.4,0.8-0.4,1.4l6.2-0.1c0-0.2-0.1-0.8-0.6-1.1c1.7-0.4,2.3-1.3,2.9-2.1
							c0.5-0.8,1.1-1.6,2.5-1.6c0.3,0.4-0.6,1-1.4,1.5c-0.3,0.2-1.1,0.8-1.1,1.3l0.1,0.4l0.4,0c0.3,0,0.4-0.5,0.5-0.9
							c0-0.3,0.4-0.4,0.8-0.7c0.8-0.4,1.7-0.9,1.5-1.9c-0.5-1-4.1,1-4.1,1h-2.7c-0.2-0.3-0.9-1.5-1.6-1.5c-0.8,0-1.4,1.4-1.4,1.4
							L262.6,71.7L262.6,71.7z"/>
					</g>
					<g class="st28">
						<polygon points="267.1,74.9 267.1,74.6 272.4,74.6 267.1,74.9 						"/>
					</g>
					<g class="st28">
						<path d="M267,74.6c-2.1-0.4-2.5-2.8-2.5-2.9l0.2,0C264.7,71.6,265.2,74,267,74.6L267,74.6z"/>
					</g>
				</g>
				<g class="st3">
					<defs>
						<path id="SVGID_42_" d="M262.6,68.2c0,0.9,0.8,0.7,0.7,2c0.1,0.8-0.2,0.6-0.3,1.3h1.3c0.2-0.9,0.6-1.1,0.9-2.3
							c0.1-1.2-0.9-1-0.7-1.8c0.5-0.8,0.3-1.6-0.7-2.2C264.1,66.3,262.6,67.3,262.6,68.2"/>
					</defs>
					<clipPath id="SVGID_43_">
						<use xlink:href="#SVGID_42_"  style="overflow:visible;"/>
					</clipPath>
					
						<linearGradient id="SVGID_44_" gradientUnits="userSpaceOnUse" x1="-559.6442" y1="814.6995" x2="-559.3059" y2="814.6995" gradientTransform="matrix(-9.037 -6.8142 3.0134 -20.4351 -7249.166 12902.9082)">
						<stop  offset="0" style="stop-color:#EA0020"/>
						<stop  offset="1" style="stop-color:#FCFF2C"/>
					</linearGradient>
					<polygon class="st30" points="266.2,65.9 262.9,63.4 261.8,71 265,73.4 					"/>
				</g>
				<g class="st3">
					<defs>
						<rect id="SVGID_45_" x="-14.1" y="-0.6" width="345.6" height="201.6"/>
					</defs>
					<clipPath id="SVGID_46_">
						<use xlink:href="#SVGID_45_"  style="overflow:visible;"/>
					</clipPath>
					<g class="st31">
						<path d="M264.4,71.7H263c-0.1-0.5,0-0.6,0.1-0.8c0.1-0.2,0.1-0.3,0.1-0.7c0.1-0.7-0.1-1-0.3-1.2c-0.2-0.2-0.3-0.4-0.3-0.8
							c0-0.4,0.3-0.9,0.6-1.3c0.4-0.5,0.8-1.1,0.7-1.6c0.7,0.2,1.1,0.7,1.2,1.1c0.1,0.4,0,0.8-0.3,1.2c-0.1,0.3,0,0.4,0.2,0.6
							c0.2,0.2,0.5,0.5,0.5,1.2c-0.2,0.6-0.4,1-0.5,1.3C264.7,70.9,264.5,71.1,264.4,71.7L264.4,71.7L264.4,71.7z M263.8,65.3
							c0.3,0.5-0.1,1.1-0.5,1.7c-0.3,0.4-0.6,0.8-0.6,1.2s0.1,0.5,0.3,0.7c0.2,0.3,0.4,0.5,0.4,1.3c0,0.4,0,0.6-0.1,0.8
							c-0.1,0.1-0.1,0.3-0.1,0.6l1.1-0.1c0.1-0.5,0.3-0.7,0.4-1.1c0.2-0.3,0.3-0.6,0.5-1.2c0-0.5-0.2-0.8-0.4-1
							c-0.2-0.2-0.4-0.4-0.2-0.8c0.2-0.3,0.3-0.7,0.2-1C264.6,66,264.3,65.7,263.8,65.3L263.8,65.3z"/>
					</g>
					<path class="st32" d="M270.7,65.7c0,0.4-0.3,0.8-0.7,0.8c-0.4,0-0.8-0.3-0.8-0.8c0-0.4,0.3-0.8,0.8-0.8
						C270.4,65,270.7,65.3,270.7,65.7L270.7,65.7z"/>
					<g class="st31">
						<path d="M269.9,66.6c-0.5,0-0.9-0.4-0.9-0.9c0-1,1.7-1,1.7,0C270.8,66.2,270.4,66.6,269.9,66.6L269.9,66.6z M269.9,65.1
							c-0.4,0-0.6,0.3-0.6,0.6c0,0.7,1.3,0.7,1.3,0C270.6,65.3,270.3,65.1,269.9,65.1L269.9,65.1z"/>
					</g>
					<g class="st31">
						<polygon class="st7" points="265.4,83.8 265.2,83.6 269.3,77.5 273.7,83.6 269.3,77.7 265.4,83.8 						"/>
					</g>
					<path class="st32" d="M270.2,81.4c0,0.4-0.4,0.8-0.8,0.8c-0.4,0-0.8-0.4-0.8-0.8c0-0.5,0.4-0.8,0.8-0.8
						C269.9,80.6,270.2,81,270.2,81.4L270.2,81.4z"/>
					<g class="st31">
						<path d="M269.4,82.3c-0.5,0-0.9-0.4-0.9-0.9c0-1,1.8-1,1.8,0C270.3,81.9,269.9,82.3,269.4,82.3L269.4,82.3z M269.4,80.7
							c-0.4,0-0.7,0.3-0.7,0.7c0,0.8,1.4,0.8,1.4,0C270.1,81,269.8,80.7,269.4,80.7L269.4,80.7z"/>
					</g>
					<path class="st32" d="M266.1,88.1l6.4,0c0,0,0.1-0.8-0.7-1.3c3.3-0.5,2.5-3.4,5.3-3.6c0.5,0.1-1.5,1.3-1.5,1.3
						s-1.7,1.2-0.9,1.8c0.6,0.5,0.9-0.3,1-0.9c0.1-0.6,2.7-1,2.3-2.6c-0.6-1.4-4.3,0.9-4.3,0.9l-2.6,0c-0.2-0.3-0.9-1.5-1.6-1.5
						c-0.9,0-1.5,1.5-1.5,1.5h-3.8H262c0,0-0.2,1.5,2.8,1.8c0.7,0.9,1.2,1.1,1.8,1.4C266.2,87.2,266.1,87.6,266.1,88.1L266.1,88.1z"
						/>
					<g class="st31">
						<path d="M272.5,88.3l-6.5,0c-0.1-0.7,0-1.1,0.4-1.5c-0.6-0.1-1.1-0.3-1.8-1.2c-1.2-0.1-2.1-0.4-2.5-1
							c-0.4-0.5-0.3-0.9-0.3-0.9l6-0.1c-0.1,0,0.6-1.5,1.5-1.5c0.9,0,1.6,1.4,1.7,1.5l2.5,0c0,0,2.2-1.4,3.5-1.4
							c0.5,0,0.8,0.2,0.9,0.5c0.3,1.2-0.8,1.8-1.6,2.2c-0.3,0.2-0.7,0.4-0.7,0.5c0,0.3-0.2,1.1-0.7,1.1l-0.4-0.2
							c-0.2-0.1-0.2-0.3-0.2-0.5c0-0.7,1.1-1.5,1.2-1.5c0.7-0.4,1.5-0.9,1.5-1.1c-1.3,0.1-1.7,0.8-2.3,1.6c-0.6,0.8-1.2,1.8-3,2
							C272.7,87.3,272.6,88.1,272.5,88.3L272.5,88.3L272.5,88.3z M262,83.8c0.1,0.1,0.1,0.3,0.3,0.6c0.3,0.4,0.9,0.8,2.4,1
							c0.7,0.9,1.2,1.1,1.8,1.4c-0.3,0.5-0.4,0.8-0.4,1.4l6.2-0.1c0-0.2-0.1-0.8-0.6-1.1c1.7-0.4,2.3-1.3,2.9-2.1
							c0.5-0.8,1.1-1.6,2.5-1.6c0.3,0.4-0.6,1-1.4,1.5c-0.3,0.2-1.1,0.8-1.1,1.3l0.1,0.4l0.4,0c0.3,0,0.4-0.5,0.5-0.9
							c0-0.3,0.4-0.4,0.8-0.7c0.8-0.4,1.7-0.9,1.5-1.9c-0.5-1-4.1,1-4.1,1l-2.7,0c-0.4-0.6-1-1.5-1.6-1.5c-0.8,0-1.4,1.4-1.4,1.4
							L262,83.8L262,83.8z"/>
					</g>
					<g class="st31">
						<polygon points="266.5,87 266.5,86.7 271.8,86.7 266.5,87 						"/>
					</g>
					<g class="st31">
						<path d="M266.5,86.7c-2.1-0.4-2.5-2.8-2.5-2.9l0.2,0C264.2,83.7,264.6,86.1,266.5,86.7L266.5,86.7z"/>
					</g>
				</g>
				<g class="st3">
					<defs>
						<path id="SVGID_47_" d="M262.1,80.3c0,0.9,0.7,0.7,0.7,2c0.1,0.8-0.2,0.6-0.3,1.3h1.3c0.2-0.9,0.6-1.1,0.9-2.3
							c0.1-1.2-0.9-1-0.7-1.8c0.5-0.8,0.3-1.6-0.7-2.2C263.6,78.4,262.1,79.4,262.1,80.3"/>
					</defs>
					<clipPath id="SVGID_48_">
						<use xlink:href="#SVGID_47_"  style="overflow:visible;"/>
					</clipPath>
					
						<linearGradient id="SVGID_49_" gradientUnits="userSpaceOnUse" x1="-559.3721" y1="815.7433" x2="-559.0338" y2="815.7433" gradientTransform="matrix(-9.0375 -6.8146 3.0136 -20.4362 -7250.8599 12938.8193)">
						<stop  offset="0" style="stop-color:#EA0020"/>
						<stop  offset="1" style="stop-color:#FCFF2C"/>
					</linearGradient>
					<polygon class="st33" points="265.6,78 262.4,75.5 261.2,83 264.5,85.5 					"/>
				</g>
				<g class="st3">
					<defs>
						<rect id="SVGID_50_" x="-14.1" y="-0.6" width="345.6" height="201.6"/>
					</defs>
					<clipPath id="SVGID_51_">
						<use xlink:href="#SVGID_50_"  style="overflow:visible;"/>
					</clipPath>
					<g class="st34">
						<path d="M263.9,83.8h-1.4c-0.1-0.5,0-0.6,0.1-0.8c0.1-0.1,0.1-0.3,0.1-0.7c0.1-0.7-0.1-1-0.3-1.2c-0.2-0.2-0.3-0.4-0.3-0.8
							c0-0.4,0.3-0.9,0.6-1.3c0.4-0.5,0.8-1.1,0.7-1.6c0.7,0.2,1.1,0.7,1.2,1.1c0.1,0.4,0,0.8-0.2,1.2c-0.1,0.3,0,0.4,0.2,0.6
							c0.2,0.2,0.5,0.5,0.5,1.2c-0.2,0.6-0.4,0.9-0.5,1.3C264.1,83,264,83.2,263.9,83.8L263.9,83.8L263.9,83.8z M263.3,77.4
							c0.3,0.5-0.1,1.1-0.5,1.7c-0.3,0.4-0.6,0.8-0.6,1.2c0,0.3,0.1,0.5,0.3,0.7c0.2,0.3,0.4,0.5,0.4,1.3c0,0.4,0,0.6-0.1,0.8
							c-0.1,0.1-0.1,0.3-0.1,0.6l1.1-0.1c0.1-0.5,0.2-0.7,0.4-1.1c0.2-0.3,0.3-0.6,0.5-1.2c0-0.5-0.2-0.8-0.4-1
							c-0.2-0.2-0.4-0.4-0.2-0.8c0.2-0.4,0.3-0.7,0.2-1C264.1,78.1,263.8,77.8,263.3,77.4L263.3,77.4z"/>
					</g>
					<path class="st35" d="M270.2,77.8c0,0.4-0.3,0.7-0.8,0.7c-0.4,0-0.7-0.3-0.7-0.7c0-0.4,0.3-0.8,0.7-0.8
						C269.8,77,270.2,77.4,270.2,77.8L270.2,77.8z"/>
					<g class="st34">
						<path d="M269.4,78.7c-0.5,0-0.9-0.4-0.9-0.9c0-1,1.7-1,1.7,0C270.3,78.3,269.9,78.7,269.4,78.7L269.4,78.7z M269.4,77.2
							c-0.4,0-0.6,0.3-0.6,0.6c0,0.7,1.3,0.7,1.3,0C270.1,77.4,269.8,77.2,269.4,77.2L269.4,77.2z"/>
					</g>
					<g class="st34">
						<polygon class="st7" points="273.9,119.6 269.8,113.5 266,119.6 265.6,119.3 269.8,113.3 274.3,119.3 273.9,119.6 						"/>
					</g>
					<path class="st35" d="M270.8,117.2c0,0.4-0.4,0.8-0.8,0.8c-0.5,0-0.8-0.4-0.8-0.8c0-0.5,0.4-0.8,0.8-0.8
						C270.4,116.3,270.8,116.7,270.8,117.2L270.8,117.2z"/>
					<g class="st34">
						<path d="M269.9,118.1c-0.5,0-1-0.4-1-1c0-1,1.9-1.1,1.9,0C270.9,117.7,270.5,118.1,269.9,118.1L269.9,118.1z M269.9,116.5
							c-0.4,0-0.7,0.3-0.7,0.7c0,0.7,1.4,0.8,1.4,0C270.6,116.8,270.3,116.5,269.9,116.5L269.9,116.5z"/>
					</g>
					<path class="st35" d="M266.6,123.9l6.4,0c0,0,0.1-0.8-0.7-1.3c3.3-0.5,2.5-3.4,5.3-3.6c0.5,0.1-1.5,1.3-1.5,1.3
						s-1.7,1.2-0.9,1.8c0.6,0.5,0.9-0.3,1-0.9c0.1-0.6,2.7-1,2.3-2.6c-0.6-1.4-4.3,0.9-4.3,0.9l-2.6,0c-0.2-0.3-0.9-1.5-1.6-1.5
						c-0.9,0-1.5,1.5-1.5,1.5h-3.8h-2.1c0,0-0.2,1.5,2.8,1.8c0.7,0.9,1.2,1.1,1.8,1.4C266.7,123,266.6,123.3,266.6,123.9
						L266.6,123.9z"/>
					<g class="st34">
						<path d="M273.1,124l-6.5,0c-0.1-0.8,0-1.2,0.4-1.5c-0.6,0-1.1-0.3-1.8-1.2c-1.2-0.1-2.1-0.4-2.5-1c-0.4-0.5-0.3-0.9-0.3-0.9
							l6.1-0.1c-0.1,0,0.6-1.5,1.5-1.5c0.9,0,1.6,1.3,1.8,1.6l2.5-0.1c0,0,2.1-1.4,3.5-1.4c0.5,0,0.8,0.2,1,0.5
							c0.3,1.2-0.8,1.8-1.6,2.2c-0.3,0.2-0.7,0.4-0.7,0.5c-0.1,0.4-0.2,1.1-0.7,1.1l-0.4-0.2c-0.2-0.1-0.3-0.3-0.3-0.5
							c0-0.7,1.1-1.4,1.2-1.5c0.7-0.4,1.4-0.9,1.5-1.1c-1.2,0.1-1.7,0.8-2.2,1.6c-0.6,0.8-1.2,1.8-3,2c0.9,0.3,0.8,1.2,0.8,1.2
							L273.1,124L273.1,124z M262.6,119.6c0.1,0.1,0.1,0.3,0.3,0.6c0.3,0.3,0.9,0.8,2.4,0.9c0.7,0.9,1.2,1.1,1.8,1.4
							c-0.3,0.5-0.4,0.8-0.4,1.4l6.1-0.1c0-0.2-0.1-0.7-0.6-1.1c1.7-0.5,2.3-1.3,2.8-2.2c0.5-0.8,1.1-1.6,2.5-1.7
							c0.3,0.3,0.3,0.5-1.4,1.5c-0.3,0.2-1,0.8-1.1,1.3l0.1,0.4l0.4,0c0.2,0,0.4-0.5,0.5-0.9c0-0.3,0.4-0.5,0.9-0.7
							c0.8-0.4,1.7-0.9,1.5-1.9c-0.4-0.9-4.1,1-4.1,1l-2.7,0c-0.4-0.6-1.1-1.5-1.6-1.5c-0.8,0-1.4,1.4-1.4,1.4L262.6,119.6
							L262.6,119.6z"/>
					</g>
					<g class="st34">
						<polygon points="267.1,122.7 267.1,122.4 272.4,122.4 267.1,122.7 						"/>
					</g>
					<g class="st34">
						<path d="M267.1,122.4c-2.1-0.3-2.5-2.8-2.6-2.9l0.3,0C264.8,119.5,265.2,121.8,267.1,122.4L267.1,122.4z"/>
					</g>
				</g>
				<g class="st3">
					<defs>
						<path id="SVGID_52_" d="M262.6,116.1c0,0.9,0.8,0.7,0.7,2c0.1,0.8-0.2,0.6-0.3,1.3h1.3c0.2-0.9,0.6-1.1,0.9-2.3
							c0.1-1.2-0.9-1-0.7-1.8c0.5-0.8,0.3-1.6-0.7-2.2C264.1,114.2,262.6,115.2,262.6,116.1"/>
					</defs>
					<clipPath id="SVGID_53_">
						<use xlink:href="#SVGID_52_"  style="overflow:visible;"/>
					</clipPath>
					
						<linearGradient id="SVGID_54_" gradientUnits="userSpaceOnUse" x1="-558.2032" y1="818.7392" x2="-557.8649" y2="818.7392" gradientTransform="matrix(-9.0374 -6.8146 3.0136 -20.4362 -7248.7393 13043.7578)">
						<stop  offset="0" style="stop-color:#EA0020"/>
						<stop  offset="1" style="stop-color:#FCFF2C"/>
					</linearGradient>
					<polygon class="st36" points="266.2,113.7 262.9,111.3 261.8,118.8 265,121.3 					"/>
				</g>
				<g class="st3">
					<defs>
						<rect id="SVGID_55_" x="-14.1" y="-0.6" width="345.6" height="201.6"/>
					</defs>
					<clipPath id="SVGID_56_">
						<use xlink:href="#SVGID_55_"  style="overflow:visible;"/>
					</clipPath>
					<g class="st37">
						<path d="M264.4,119.6H263c-0.1-0.5,0-0.7,0-0.8c0.1-0.1,0.1-0.3,0.1-0.7c0-0.7-0.1-1-0.3-1.2c-0.2-0.2-0.3-0.4-0.3-0.8
							c0-0.4,0.3-0.9,0.6-1.3c0.4-0.5,0.8-1.1,0.7-1.6c0.8,0.2,1.1,0.6,1.2,1.1c0.1,0.4,0,0.8-0.3,1.2c-0.1,0.3,0,0.4,0.2,0.5
							c0.2,0.2,0.5,0.5,0.5,1.2c-0.2,0.6-0.4,1-0.5,1.3c-0.2,0.3-0.3,0.6-0.4,1.1L264.4,119.6L264.4,119.6z M263.8,113.2
							c0.3,0.5-0.1,1.1-0.5,1.7c-0.3,0.4-0.6,0.8-0.6,1.2c0,0.3,0.1,0.5,0.3,0.7c0.2,0.3,0.4,0.6,0.4,1.4c0,0.5,0,0.6-0.1,0.8
							c-0.1,0.1-0.1,0.3-0.1,0.6l1.1-0.1c0.1-0.5,0.2-0.7,0.4-1c0.2-0.3,0.3-0.6,0.5-1.2c0-0.5-0.2-0.7-0.4-0.9
							c-0.2-0.2-0.4-0.4-0.2-0.9c0.2-0.4,0.3-0.7,0.2-1C264.6,113.9,264.3,113.5,263.8,113.2L263.8,113.2z"/>
					</g>
					<path class="st38" d="M270.7,113.5c0,0.4-0.3,0.7-0.7,0.7c-0.4,0-0.8-0.3-0.8-0.7c0-0.4,0.3-0.8,0.8-0.8
						C270.4,112.8,270.7,113.1,270.7,113.5L270.7,113.5z"/>
					<g class="st37">
						<path d="M269.9,114.4c-0.5,0-0.9-0.4-0.9-0.9c0-1,1.8-1,1.8,0C270.8,114,270.4,114.4,269.9,114.4L269.9,114.4z M269.9,112.9
							c-0.3,0-0.6,0.3-0.6,0.6c0,0.7,1.2,0.7,1.2,0C270.6,113.2,270.3,112.9,269.9,112.9L269.9,112.9z"/>
					</g>
					<g class="st37">
						<polygon class="st7" points="265.9,107.6 265.6,107.4 269.7,101.3 274.2,107.4 269.7,101.5 265.9,107.6 						"/>
					</g>
					<path class="st38" d="M270.7,105.2c0,0.5-0.4,0.8-0.8,0.8c-0.5,0-0.8-0.4-0.8-0.8c0-0.5,0.4-0.8,0.8-0.8
						C270.3,104.4,270.7,104.7,270.7,105.2L270.7,105.2z"/>
					<g class="st37">
						<path d="M269.9,106.1c-0.5,0-0.9-0.4-0.9-0.9c0-1,1.8-1,1.8,0C270.8,105.7,270.4,106.1,269.9,106.1L269.9,106.1z M269.9,104.5
							c-0.4,0-0.7,0.3-0.7,0.7c0,0.8,1.4,0.8,1.4,0C270.6,104.8,270.3,104.5,269.9,104.5L269.9,104.5z"/>
					</g>
					<path class="st38" d="M266.5,111.9l6.4,0c0,0,0.1-0.8-0.7-1.3c3.3-0.5,2.5-3.4,5.3-3.6c0.5,0.1-1.5,1.2-1.5,1.2
						s-1.7,1.2-0.9,1.8c0.6,0.5,0.9-0.3,1-0.9c0.1-0.6,2.7-1,2.3-2.6c-0.6-1.4-4.3,0.9-4.3,0.9l-2.6,0c-0.2-0.3-0.9-1.5-1.6-1.5
						c-0.9,0-1.5,1.5-1.5,1.5h-3.8h-2.1c0,0-0.2,1.5,2.8,1.8c0.7,0.9,1.2,1.1,1.8,1.4C266.6,111,266.5,111.4,266.5,111.9
						L266.5,111.9z"/>
					<g class="st37">
						<path d="M273,112.1l-6.5,0c-0.1-0.7,0-1.1,0.4-1.4c-0.6-0.1-1.1-0.3-1.8-1.2c-1.2-0.1-2.1-0.4-2.5-1c-0.4-0.5-0.3-0.9-0.3-0.9
							l6-0.1c-0.1,0,0.6-1.5,1.5-1.5c0.8,0,1.6,1.3,1.7,1.5l2.5,0c0,0,2.2-1.4,3.5-1.4c0.5,0,0.8,0.2,0.9,0.5
							c0.3,1.2-0.8,1.7-1.6,2.2c-0.3,0.2-0.7,0.4-0.7,0.5c-0.1,0.4-0.2,1.1-0.7,1.1l-0.4-0.2c-0.2-0.1-0.2-0.3-0.2-0.5
							c0-0.7,1.1-1.5,1.2-1.5c0.7-0.4,1.5-0.9,1.5-1.1c-1.3,0.1-1.7,0.8-2.3,1.6c-0.6,0.8-1.2,1.8-3,2
							C273.1,111.1,273,111.9,273,112.1L273,112.1L273,112.1z M262.5,107.6c0.1,0.1,0.1,0.3,0.3,0.6c0.3,0.4,0.9,0.8,2.4,1
							c0.7,0.9,1.2,1.1,1.8,1.4c-0.3,0.5-0.4,0.8-0.4,1.3l6.2-0.1c0-0.2-0.1-0.8-0.6-1.1c1.7-0.4,2.3-1.3,2.9-2.1
							c0.5-0.8,1.1-1.6,2.5-1.6c0.3,0.4-0.6,1-1.4,1.5c-0.3,0.2-1.1,0.8-1.1,1.3l0.1,0.4l0.4,0c0.3,0,0.4-0.5,0.5-0.9
							c0-0.3,0.4-0.4,0.8-0.7c0.8-0.4,1.7-0.9,1.5-1.9c-0.5-1-4.1,1-4.1,1h-2.7c-0.4-0.6-1-1.5-1.6-1.5c-0.8,0-1.4,1.4-1.4,1.4
							L262.5,107.6L262.5,107.6z"/>
					</g>
					<g class="st37">
						<polygon points="267,110.7 267,110.5 272.3,110.5 267,110.7 						"/>
					</g>
					<g class="st37">
						<path d="M267,110.5c-2.1-0.4-2.5-2.8-2.5-2.9l0.2,0C264.7,107.5,265.1,109.9,267,110.5L267,110.5z"/>
					</g>
				</g>
				<g class="st3">
					<defs>
						<path id="SVGID_57_" d="M262.5,104.1c0,0.9,0.7,0.7,0.7,2c0.1,0.8-0.2,0.6-0.3,1.3h1.3c0.2-1,0.6-1.1,0.9-2.3
							c0.1-1.2-0.9-1-0.7-1.8c0.5-0.8,0.3-1.6-0.7-2.2C264,102.2,262.5,103.2,262.5,104.1"/>
					</defs>
					<clipPath id="SVGID_58_">
						<use xlink:href="#SVGID_57_"  style="overflow:visible;"/>
					</clipPath>
					
						<linearGradient id="SVGID_59_" gradientUnits="userSpaceOnUse" x1="-558.5546" y1="817.7394" x2="-558.2164" y2="817.7394" gradientTransform="matrix(-9.0365 -6.8139 3.0133 -20.4341 -7248.2188 13007.6504)">
						<stop  offset="0" style="stop-color:#EA0020"/>
						<stop  offset="1" style="stop-color:#FCFF2C"/>
					</linearGradient>
					<polygon class="st39" points="266.1,101.8 262.8,99.3 261.7,106.8 265,109.3 					"/>
				</g>
				<g class="st3">
					<defs>
						<rect id="SVGID_60_" x="-14.1" y="-0.6" width="345.6" height="201.6"/>
					</defs>
					<clipPath id="SVGID_61_">
						<use xlink:href="#SVGID_60_"  style="overflow:visible;"/>
					</clipPath>
					<g class="st40">
						<path d="M264.3,107.6h-1.4c-0.1-0.5,0-0.6,0.1-0.8c0.1-0.1,0.1-0.3,0.1-0.7c0-0.7-0.1-1-0.3-1.2c-0.2-0.2-0.3-0.4-0.3-0.8
							c0-0.4,0.3-0.9,0.6-1.3c0.4-0.5,0.8-1.1,0.7-1.6c0.7,0.2,1.1,0.6,1.2,1.1c0.1,0.4,0,0.8-0.2,1.2c-0.1,0.3,0,0.4,0.2,0.6
							c0.2,0.2,0.5,0.5,0.5,1.2c-0.2,0.6-0.4,0.9-0.5,1.2C264.6,106.7,264.4,107,264.3,107.6L264.3,107.6L264.3,107.6z M263.7,101.2
							c0.3,0.5-0.1,1.1-0.5,1.7c-0.3,0.4-0.6,0.8-0.6,1.2c0,0.3,0.1,0.5,0.3,0.7c0.2,0.2,0.4,0.5,0.4,1.3c0,0.4,0,0.6-0.1,0.8
							c-0.1,0.1-0.1,0.3-0.1,0.6l1.1-0.1c0.1-0.5,0.3-0.7,0.4-1.1c0.2-0.3,0.3-0.6,0.5-1.2c0-0.5-0.2-0.8-0.4-1
							c-0.2-0.2-0.4-0.4-0.2-0.8c0.2-0.4,0.3-0.7,0.2-1C264.6,101.9,264.3,101.5,263.7,101.2L263.7,101.2z"/>
					</g>
					<path class="st41" d="M270.6,101.6c0,0.4-0.3,0.8-0.8,0.8c-0.4,0-0.8-0.3-0.8-0.8c0-0.4,0.3-0.7,0.8-0.7
						C270.3,100.8,270.6,101.2,270.6,101.6L270.6,101.6z"/>
					<g class="st40">
						<path d="M269.9,102.4c-0.5,0-0.9-0.4-0.9-0.9c0-0.9,1.7-0.9,1.7,0C270.7,102.1,270.4,102.4,269.9,102.4L269.9,102.4z
							 M269.9,100.9c-0.4,0-0.6,0.3-0.6,0.6c0,0.7,1.3,0.7,1.3,0C270.5,101.2,270.2,100.9,269.9,100.9L269.9,100.9z"/>
					</g>
					<g class="st40">
						<polygon class="st7" points="231.2,96.4 230.9,96.3 235,90.2 239.4,96.3 235,90.4 231.2,96.4 						"/>
					</g>
					<path class="st41" d="M236,94.1c0,0.5-0.4,0.8-0.8,0.8c-0.5,0-0.8-0.4-0.8-0.8c0-0.4,0.4-0.8,0.8-0.8
						C235.6,93.3,236,93.6,236,94.1L236,94.1z"/>
					<g class="st40">
						<path d="M235.1,95c-0.5,0-0.9-0.4-0.9-0.9c0-1,1.8-1,1.8,0C236.1,94.6,235.6,95,235.1,95L235.1,95z M235.1,93.4
							c-0.4,0-0.7,0.3-0.7,0.7c0,0.8,1.4,0.8,1.4,0C235.9,93.7,235.5,93.4,235.1,93.4L235.1,93.4z"/>
					</g>
					<path class="st41" d="M231.8,100.8l6.4,0c0,0,0.1-0.8-0.7-1.3c3.3-0.5,2.5-3.4,5.3-3.6c0.5,0.1-1.5,1.3-1.5,1.3
						s-1.7,1.2-0.9,1.8c0.6,0.5,0.9-0.3,1-0.9c0.1-0.6,2.7-1,2.3-2.6c-0.6-1.4-4.3,0.9-4.3,0.9l-2.6,0c-0.2-0.3-0.9-1.5-1.6-1.5
						c-0.9,0-1.5,1.5-1.5,1.5h-3.8h-2.1c0,0-0.2,1.5,2.8,1.8c0.7,0.9,1.2,1.1,1.8,1.4C231.9,99.9,231.8,100.3,231.8,100.8
						L231.8,100.8z"/>
					<g class="st40">
						<path d="M238.3,100.9l-6.5,0c-0.1-0.5,0-1.1,0.4-1.4c-0.6,0-1.1-0.3-1.8-1.2c-1.2-0.1-2.1-0.4-2.5-1c-0.4-0.5-0.3-0.9-0.3-0.9
							l6-0.1c-0.1,0,0.6-1.5,1.5-1.5c0.8,0,1.5,1.2,1.7,1.5l2.5,0c0-0.1,3.8-2.1,4.4-0.9c0.3,1.2-0.8,1.7-1.6,2.2
							c-0.3,0.2-0.7,0.4-0.7,0.5c-0.1,0.4-0.2,1.1-0.7,1.1l-0.4-0.2c-0.2-0.1-0.2-0.3-0.2-0.5c0-0.7,1.1-1.4,1.2-1.5
							c0.7-0.4,1.5-0.9,1.5-1.1c-1.3,0.1-1.7,0.8-2.3,1.6c-0.6,0.8-1.2,1.8-3,2C238.4,99.9,238.3,100.8,238.3,100.9L238.3,100.9
							L238.3,100.9z M227.8,96.5c0.1,0.1,0.1,0.3,0.3,0.6c0.3,0.4,0.9,0.8,2.4,1c0.7,0.9,1.2,1.1,1.8,1.4c-0.3,0.5-0.4,0.8-0.4,1.3
							l6.2-0.1c0-0.2-0.1-0.8-0.6-1.1c1.7-0.4,2.3-1.3,2.9-2.1c0.5-0.8,1.1-1.6,2.5-1.6c0.3,0.4-0.6,1-1.4,1.5
							c-0.3,0.2-1.1,0.8-1.1,1.3l0.1,0.4l0.3,0c0.3,0,0.4-0.5,0.5-0.9c0-0.3,0.4-0.4,0.8-0.7c0.8-0.4,1.7-0.9,1.5-1.9
							c-0.5-1-4.1,1-4.1,1h-2.7c-0.5-0.7-1.1-1.5-1.6-1.5c-0.8,0-1.4,1.4-1.4,1.4L227.8,96.5L227.8,96.5z"/>
					</g>
					<g class="st40">
						<polygon points="232.3,99.6 232.3,99.4 237.6,99.4 232.3,99.6 						"/>
					</g>
					<g class="st40">
						<path d="M232.2,99.3c-2.1-0.4-2.5-2.8-2.5-2.9l0.2,0C229.9,96.4,230.4,98.8,232.2,99.3L232.2,99.3z"/>
					</g>
				</g>
				<g class="st3">
					<defs>
						<path id="SVGID_62_" d="M227.8,93c0,0.9,0.8,0.7,0.7,2c0.1,0.8-0.2,0.6-0.3,1.3h1.3c0.2-1,0.6-1.1,0.9-2.3
							c0.1-1.2-0.9-1-0.7-1.8c0.5-0.8,0.3-1.6-0.7-2.2C229.3,91.1,227.8,92.1,227.8,93"/>
					</defs>
					<clipPath id="SVGID_63_">
						<use xlink:href="#SVGID_62_"  style="overflow:visible;"/>
					</clipPath>
					
						<linearGradient id="SVGID_64_" gradientUnits="userSpaceOnUse" x1="-565.5716" y1="819.036" x2="-565.2333" y2="819.036" gradientTransform="matrix(-9.0365 -6.8139 3.0133 -20.4341 -7350.0313 12975.4004)">
						<stop  offset="0" style="stop-color:#EA0020"/>
						<stop  offset="1" style="stop-color:#FCFF2C"/>
					</linearGradient>
					<polygon class="st42" points="231.4,90.6 228.1,88.2 227,95.7 230.2,98.2 					"/>
				</g>
				<g class="st3">
					<defs>
						<rect id="SVGID_65_" x="-14.1" y="-0.6" width="345.6" height="201.6"/>
					</defs>
					<clipPath id="SVGID_66_">
						<use xlink:href="#SVGID_65_"  style="overflow:visible;"/>
					</clipPath>
					<g class="st43">
						<path d="M229.6,96.5h-1.4c-0.1-0.5,0-0.6,0.1-0.8c0.1-0.2,0.1-0.3,0.1-0.7c0.1-0.7-0.1-1-0.3-1.2c-0.2-0.2-0.3-0.4-0.3-0.8
							c0-0.4,0.3-0.9,0.6-1.3c0.4-0.5,0.8-1.1,0.7-1.6c0.7,0.2,1.1,0.6,1.2,1.1c0.1,0.4,0,0.8-0.2,1.2c-0.1,0.3,0,0.4,0.2,0.6
							c0.2,0.2,0.5,0.5,0.5,1.2c-0.2,0.6-0.4,0.9-0.5,1.2C229.9,95.6,229.7,95.9,229.6,96.5L229.6,96.5L229.6,96.5z M229,90.1
							c0.3,0.5-0.1,1.1-0.5,1.7c-0.3,0.4-0.6,0.8-0.6,1.2c0,0.3,0.1,0.5,0.3,0.7c0.2,0.3,0.4,0.6,0.4,1.3c0,0.4,0,0.6-0.1,0.8
							c-0.1,0.1-0.1,0.3-0.1,0.6l1.1-0.1c0.1-0.5,0.3-0.7,0.4-1.1c0.2-0.3,0.3-0.6,0.5-1.2c0-0.5-0.2-0.8-0.4-1
							c-0.2-0.2-0.4-0.4-0.2-0.8c0.2-0.4,0.3-0.7,0.2-1C229.8,90.8,229.5,90.4,229,90.1L229,90.1z"/>
					</g>
					<path class="st44" d="M235.9,90.5c0,0.4-0.3,0.8-0.8,0.8c-0.4,0-0.8-0.3-0.8-0.8c0-0.4,0.3-0.7,0.8-0.7
						C235.6,89.7,235.9,90,235.9,90.5L235.9,90.5z"/>
					<g class="st43">
						<path d="M235.1,91.3c-0.5,0-0.9-0.4-0.9-0.9c0-0.9,1.7-0.9,1.7,0C236,90.9,235.6,91.3,235.1,91.3L235.1,91.3z M235.1,89.8
							c-0.4,0-0.6,0.3-0.6,0.6c0,0.7,1.3,0.7,1.3,0C235.8,90.1,235.5,89.8,235.1,89.8L235.1,89.8z"/>
					</g>
					<path class="st44" d="M253,125c0,0,1.7,3.8,3.6,1.5c1.9-2.4,1.2-3.4,1.2-3.4l-4.3-2.3l-1.2,2.6L253,125z"/>
					<g class="st43">
						<path d="M255.3,127.4L255.3,127.4c-1.4,0-2.3-2.2-2.4-2.3l-0.7-1.6l1.3-2.7l4.4,2.3c0.1,0.1,0.8,1.1-1.2,3.5
							C256.2,127.1,255.8,127.4,255.3,127.4L255.3,127.4z M253.5,120.9l-1.1,2.6l0.7,1.5c0,0,1,2.2,2.2,2.2l0,0
							c0.4,0,0.8-0.2,1.2-0.7c1.8-2.3,1.2-3.2,1.2-3.2L253.5,120.9L253.5,120.9z"/>
					</g>
					<path class="st45" d="M256.7,124.5c0,0,0.3,0,0.5-0.4c0.2-0.4-0.5-0.6-0.8-1.1l-0.4,0.7L256.7,124.5z"/>
					<g class="st43">
						<path d="M256.7,124.7L256.7,124.7l-0.8-0.7l0.4-0.9c0.3,0.2,0.5,0.3,0.6,0.4c0.3,0.2,0.6,0.4,0.4,0.8
							C257.1,124.6,256.8,124.7,256.7,124.7L256.7,124.7z"/>
					</g>
					<path class="st45" d="M247.1,123.5l-3.7,2c0,0-1.8,0.4-2,0c-0.1-0.4,0-0.7,1-0.7c1,0,3.6-2.4,3.6-2.4L247.1,123.5z"/>
					<g class="st43">
						<path d="M241.9,125.8c-0.4,0-0.6-0.1-0.7-0.2l0,0l0.1-0.5c0.1-0.2,0.5-0.4,1.1-0.4c0.9-0.1,3.5-2.4,3.5-2.4l1.3,1.2l-3.8,2.2
							C243.3,125.7,242.5,125.8,241.9,125.8L241.9,125.8z M245.9,122.4c0,0.1-2.5,2.4-3.5,2.5c-0.6,0-0.8,0.2-0.9,0.3
							c0,0.3,0,0.4,0.5,0.4c0.6,0,1.4-0.2,1.4-0.2l3.7-2L245.9,122.4L245.9,122.4z"/>
					</g>
					<path class="st45" d="M247.1,57c0,0,0.1,0.9,0.1,1.3c0,0.5-0.7,1.4-0.8,1.4c0,0-0.4,0-0.4,0.3c0,0.3,0.6,0.4,0.6,0.4
						s-0.2,1,0,1c0.2,0-0.6,1.2,0,1.6c0.6,0.3,1.6,0.7,2.1,0.6c0.5-0.1,0,1.8,0,1.8l-1.3,2.8l7.1-0.7l-1.5-2.4c0,0-0.7-0.5-0.5-1.8
						c0.2-1.3-0.1-7.4-0.1-7.4l-5.1-0.7L247.1,57z"/>
					<g class="st43">
						<path d="M247.3,68.4l1.4-2.9c0.1-0.6,0.3-1.5,0.1-1.7c-0.8,0.1-1.7-0.4-2.2-0.7c-0.5-0.2-0.3-0.9-0.1-1.3
							c-0.1-0.6,0-1.2,0-1.4c-0.1,0.1-0.5,0-0.6-0.3l0.4-0.5c0.1-0.1,0.8-0.9,0.7-1.3L247,57l0.3-1.8l5.2,0.6
							c0.1,0.3,0.4,6.2,0.2,7.5c-0.2,1.3,0.4,1.7,0.5,1.7l1.5,2.4L247.3,68.4L247.3,68.4z M247.4,55.4l-0.2,1.7l0.1,1.3
							c0,0.4-0.5,1.1-0.7,1.4l-0.4,0.2c0,0.3,0.3,0.4,0.5,0.4c0,0.5,0,1,0,1c0.2,0.2,0.1,0.3,0,0.6c-0.2,0.5-0.3,0.9,0,1
							c0.6,0.3,1.4,0.7,1.9,0.7c0.6,0.4,0.3,1.7,0.3,1.9l-1.2,2.6l6.9-0.7l-1.6-2.2l0,0c0,0-0.7-0.5-0.5-1.9
							c0.2-1.3-0.1-7.3-0.1-7.4L247.4,55.4L247.4,55.4z"/>
					</g>
					<path class="st45" d="M245.8,67.6c0,0-2.3,1.1-2.2,3.9c-0.6,2.8-0.9,5.5-0.9,5.5s-2.7,3.1-3.6,4.2c-0.8,1.1-2.1,3.4-2.5,4
						c-0.5,0.6-2.3,2.6-2.2,3.3c0,0.7-0.4,4,1.4,4.4c0.5,0.2,1.9-3.8,1.9-3.8s0.1-1.7-0.4-2c-0.5-0.3,1.1-1.4,1.1-1.4
						s3.1-2.3,3.8-2.8c0.7-0.6,2.6-2.7,2.6-2.7L245.8,67.6z"/>
					<g class="st43">
						<path d="M235.8,93.1L235.8,93.1L235.8,93.1c-1.6-0.3-1.6-2.8-1.5-4c0-0.2,0-0.4,0-0.5c0-0.6,0.9-1.8,1.9-2.9l0.4-0.5
							c0.2-0.3,0.6-0.9,1-1.5c0.5-0.9,1.1-1.8,1.6-2.5c0.8-1.1,3.5-4.2,3.6-4.2l0,0c0,0,0.3-2.8,0.9-5.5c-0.1-2.9,2.3-4,2.3-4
							l-0.9,12.7c-0.1,0.2-1.9,2.2-2.6,2.8c-0.7,0.6-3.8,2.8-3.8,2.8c-0.5,0.3-1.2,0.9-1.2,1.2c0.6,0.4,0.5,2,0.5,2.2
							C237.4,90.3,236.3,93.1,235.8,93.1L235.8,93.1z M245.7,67.6c-0.1,0.2-2.1,1.3-2,3.9c-0.6,2.8-0.9,5.6-0.9,5.6
							c0,0.1-2.8,3.2-3.6,4.3c-0.5,0.6-1.1,1.6-1.6,2.4c-0.4,0.7-0.8,1.3-1,1.5l-0.4,0.5c-0.6,0.8-1.8,2.2-1.8,2.8
							c0,0.1,0,0.3,0,0.6c0,1.1-0.1,3.5,1.3,3.7l0,0.1v-0.1c0.3,0,1.2-2,1.8-3.7c0-0.4,0-1.7-0.4-1.9c-0.2-0.7,0.9-1.5,1.1-1.6
							c0,0,3.1-2.3,3.8-2.8c0.7-0.5,2.6-2.6,2.6-2.7L245.7,67.6L245.7,67.6z"/>
					</g>
					<path class="st46" d="M248.5,65.4c0,0,0.6,1.6,1.9,1.3c1.3-0.3,2.9-1.5,2.9-1.5s1.3,0,1.4,0.1c0.2,0.2,3.4,3.3,3.3,4.3
						c-0.1,1-1.5,0.7-2,1.3c-0.5,0.7-1.3,2.3-1.1,3.5c0.2,1.2,0.9,2.8,0.8,3.4c-0.1,0.6-0.6,0.8-0.6,1.1c0,0.3,0.4,0.9,0.4,1.5
						c0,0.6-0.5,1.5-0.5,2.1c0.1,0.6,0.1,2.4,0.1,2.4l-0.1,8.1c0,0,0.5,0.3,0.5,0.7c0,0.5,3.1,13.9,3.1,13.9s-0.1,0.4-0.5,0.4
						c-0.3,0,1.2,2.1,1.3,2.7c0,0.6,1.6,5.3,1.6,6c0,0.6-0.3,2.1-0.4,2.1c-0.1,0,1,3,0.8,3.4c-0.2,0.5-2.1,0.4-2.1,0.4l-0.5-0.1
						c0,0,0,0.6-0.3,0.6c-0.4,0-3.1-0.1-3.1-0.1s-0.8,1.2-1.2,1.2c-0.5,0-1.1-0.9-1.2-0.7c-0.1,0.1,0.4,0.9,0.3,1.2
						c-0.1,0.2-2.5,0.7-3-0.4c-0.5-1.1,0.3-0.8,0.1-1.1c-0.1-0.2-1.2-0.8-1.5-0.6c-0.3,0.2,0.8,0.5,0.8,0.9c0,0.5-1,1.2-1.4,1.2
						c-0.4,0-1.2-1.7-2.5-1.5c-1.3,0.2-2.1,0.5-2.1,0.5s-1.5,0.6-2.2,0.5c-0.6-0.1-0.9-0.6-0.9-0.9c0-0.3,0.5-1.5,0.4-1.8
						c0-0.4-0.4-0.7-0.4-1.3c0-0.6,1.1-2.4,1.1-2.4l0-8.5c0,0-1,0-1-0.6c0-0.6,1.5-13.4,1.7-14.3c0.2-0.8,0.8-3.8,0.8-3.8
						s-0.7,0.3-0.7,0c0-0.3,2.1-7.7,2.1-7.7s0.4-3.6,0.4-4.6c0-1-0.2-2.3-0.2-2.3s-1.9-0.8-1.9-2c-0.2-2,1.8-3,2-3.7
						c0.2-0.6,0.9-2.6,0.9-2.6S246.8,65.7,248.5,65.4L248.5,65.4z"/>
					<g class="st43">
						<path d="M251.9,125c-0.8,0-1.4-0.3-1.6-0.8c-0.3-0.7-0.1-0.9,0.1-1.1c-0.1-0.1-0.9-0.6-1.2-0.6c0.4,0.3,0.8,0.5,0.7,0.9
							c-0.1,0.5-1.1,1.3-1.5,1.3c-0.2,0-0.3-0.2-0.6-0.5c-0.4-0.5-1-1.1-1.7-1.1c-1.5,0.2-2.3,0.5-2.3,0.5c-0.1,0-1.3,0.5-2,0.5
							c-0.9-0.2-1.2-0.7-1.2-1.1c0-0.1,0.1-0.4,0.2-0.7c0.1-0.4,0.3-0.9,0.2-1.1c0-0.1-0.1-0.3-0.2-0.4c-0.1-0.2-0.2-0.5-0.2-0.9
							c0-0.6,1-2.3,1.1-2.5l-0.1-8.4c0,0.1-1,0-1-0.6c-0.1-0.6,1.5-13.5,1.7-14.3c0.2-0.7,0.7-3,0.8-3.6c-0.1,0.1-0.3,0.1-0.4,0.1
							c0-0.1,0-0.1,0-0.3c0.3,0,0.5-0.1,0.5-0.1c0.2,0.1-0.4,3.1-0.7,3.9c-0.2,0.7-1.8,13.7-1.7,14.2c0,0.5,0.9,0.5,0.9,0.5l0.2,8.6
							c-0.3,0.6-1.1,2-1.1,2.4c0,0.3,0.1,0.5,0.2,0.8c0.1,0.2,0.2,0.3,0.2,0.5c0,0.2-0.1,0.7-0.2,1.2c-0.1,0.3-0.2,0.6-0.2,0.7
							c0,0.2,0.2,0.7,0.8,0.8c0.7,0,2.1-0.5,2.1-0.5c0,0,0.9-0.3,2.2-0.5c1.1-0.1,1.7,0.7,2.1,1.1c0.2,0.2,0.4,0.4,0.5,0.4
							c0.3,0,1.2-0.7,1.3-1.1c0-0.2-0.3-0.4-0.5-0.5l-0.3-0.3c0.8-0.2,1.6,0.3,1.8,0.5c-0.2,0.3-0.4,0.4-0.1,1.1
							c0.2,0.5,1,0.6,1.4,0.6c0.7,0,1.3-0.2,1.4-0.3c0-0.1-0.1-0.4-0.2-0.5c-0.1-0.3-0.2-0.5-0.1-0.6c0.2,0,0.4,0.1,0.6,0.3
							c0.2,0.2,0.5,0.4,0.7,0.5l0,0c0.3,0,0.9-0.7,1.1-1.1c0.1-0.1,2.2,0.1,3,0.1c0.5,0,0.4-0.5,0.4-0.5l0.6,0c1.1,0,1.9-0.1,2-0.3
							c0.1-0.2-0.3-1.5-0.5-2.2c-0.3-1.1-0.4-1.2-0.2-1.3c0.1-0.1,0.3-1.3,0.3-2c0-0.3-0.5-2.1-0.9-3.5c-0.3-1.2-0.6-2.2-0.7-2.4
							c0-0.3-0.4-1-0.8-1.6c-0.5-0.8-0.6-1-0.5-1.2c0.4-0.1,0.5-0.4,0.5-0.4c-0.1-0.5-3.1-13.4-3.2-13.9c0-0.4-0.4-0.7-0.5-0.7
							l0.1-8.2c0,0,0-1.7-0.1-2.3c-0.1-0.3,0.1-0.8,0.2-1.2c0.1-0.3,0.2-0.6,0.2-0.9c0-0.3-0.1-0.6-0.2-0.9
							c-0.1-0.2-0.2-0.4-0.2-0.6c0-0.2,0.1-0.3,0.3-0.5c0.1-0.2,0.3-0.4,0.3-0.7c0.1-0.3-0.2-1-0.4-1.7c-0.2-0.5-0.3-1.1-0.4-1.6
							c-0.2-1.3,0.7-2.9,1.1-3.6c0.2-0.3,0.6-0.4,1-0.5c0.5-0.1,0.9-0.3,1-0.8c0-0.5-1.2-2.1-3.2-4.1c-0.1-0.1-0.4-0.2-1.1-0.2
							c-0.3,0-1.8,1.3-3.2,1.5c0,0,0,0-0.1,0c-1.5,0-2-1.4-2-1.4c-1.5,0.3-2.5,2-2.5,2.1l-0.9,2.6c-0.1,0.2-0.3,0.5-0.6,0.8
							c-0.6,0.7-1.5,1.6-1.4,2.9c0,1.2,1.9,1.9,1.9,1.9c0.1,0.1,0.2,1.4,0.2,2.4c0,1-0.4,4.6-0.4,4.6c-0.7,2.5-1.7,6-2,7.2
							c0.2-1.8,1.5-6.2,1.8-7.3l0,0c0,0,0.4-3.6,0.4-4.6c0-1-0.2-2.3-0.2-2.3c0,0.1-1.9-0.8-1.9-2c-0.1-1.4,0.8-2.4,1.5-3.1
							c0.3-0.3,0.5-0.5,0.6-0.7l0.9-2.6c0-0.1,1.1-1.8,2.8-2.1c0.1,0.1,0.6,1.4,1.7,1.4c1.6-0.3,3.1-1.5,3.2-1.5
							c1.4,0,1.5,0.1,1.6,0.1c1.3,1.3,3.4,3.5,3.3,4.3c-0.1,0.6-0.6,0.8-1.1,1c-0.3,0.1-0.7,0.2-0.9,0.4c-0.5,0.6-1.3,2.2-1.1,3.4
							c0.1,0.5,0.3,1.1,0.4,1.6c0.2,0.8,0.5,1.4,0.4,1.8c-0.1,0.4-0.3,0.6-0.4,0.8c-0.2,0.4-0.1,0.6,0,0.8c0.1,0.3,0.3,0.6,0.3,1
							c0,0.3-0.1,0.6-0.2,1c-0.1,0.4-0.3,0.8-0.2,1.1c0.1,0.6,0.1,2.4,0.1,2.4l-0.1,8.1c0-0.1,0.5,0.3,0.5,0.7
							c0,0.4,2.1,9.2,3.1,13.9c0,0.1-0.2,0.5-0.5,0.5c0,0,0.3,0.5,0.5,0.9c0.4,0.6,0.8,1.3,0.8,1.7c0,0.3,0.3,1.3,0.7,2.4
							c0.6,1.9,0.9,3.2,0.9,3.6c0,0-0.2,2.1-0.5,2.2c0.1,0,0.2,0.5,0.4,1c0.4,1.2,0.6,2.1,0.5,2.4c-0.2,0.4-1.2,0.5-2,0.5l-0.7-0.1
							c0.1,0.1,0.1,0.6-0.3,0.6c-1,0.1-3.1-0.1-3.1-0.1c0,0.1-0.7,1.2-1.2,1.2c-0.3,0-0.6-0.3-0.9-0.5c-0.3-0.2-0.2,0-0.1,0.1
							c0.1,0.3,0.2,0.6,0.1,0.7C253.4,124.8,252.6,125,251.9,125L251.9,125z"/>
					</g>
					<path class="st44" d="M247.8,124.1c0,0-4.5,2.4-5.1,2.5c-0.6,0.2-1.1-0.8-0.4-1c0.6-0.2,1.7-0.3,1.7-0.3s-1.5-1.2-1.5-1.2
						c0,0,2.1-0.8,2.1-0.8c0,0,0.6,1.2,1.1,1.1c0.4-0.1,1.6-1,1.6-1S247.8,124.2,247.8,124.1L247.8,124.1z"/>
					<g class="st43">
						<path d="M242.5,126.8c-0.4,0-0.6-0.3-0.7-0.6c0-0.3,0.1-0.5,0.4-0.6c0.7-0.2,1.7-0.3,1.7-0.3c-1.6-1-1.6-1.1-1.6-1.1
							c0.1-0.2,2.2-0.9,2.2-0.9c0.4,0.5,0.8,1.1,1,1.1c0.3-0.1,1.3-0.7,1.6-1c0.8,0.7,0.8,0.7,0.7,0.8c-0.2,0.1-4.6,2.4-5.2,2.6
							L242.5,126.8L242.5,126.8z M242.5,124.2c0.1,0,0.8,0.6,1.5,1.1c-0.1,0.2-1.1,0.3-1.7,0.5c-0.2,0.1-0.3,0.2-0.2,0.3
							c0,0.2,0.2,0.4,0.5,0.4v0.1l0.1-0.1c0.6-0.2,4.8-2.3,5.1-2.5c0-0.1-0.6-0.5-0.6-0.5c0,0.1-1.1,1-1.5,1c0,0,0,0,0,0
							c-0.4,0-0.7-0.5-1-1C244.4,123.5,242.6,124.1,242.5,124.2C242.5,124.2,242.5,124.2,242.5,124.2L242.5,124.2z"/>
					</g>
					<path class="st45" d="M254.1,125.4c0.4,0.6,0.6,1.5,1.6,0.9c1-0.6-0.5-1.6-0.5-1.6L254.1,125.4z"/>
					<g class="st43">
						<path d="M255.1,126.6L255.1,126.6c-0.4,0-0.7-0.4-0.9-0.8c-0.1-0.1-0.2-0.3-0.2-0.4l1.1-0.8c0.2,0,1,0.6,1,1.2
							c0,0.2-0.1,0.4-0.4,0.5C255.5,126.5,255.3,126.6,255.1,126.6L255.1,126.6z M254.2,125.5c0.1,0,0.2,0.1,0.3,0.3
							c0.3,0.5,0.5,0.8,1.2,0.5c0.2-0.1,0.3-0.2,0.3-0.4c0-0.4-0.6-0.9-0.8-1L254.2,125.5C254.1,125.5,254.2,125.5,254.2,125.5
							L254.2,125.5z"/>
					</g>
					<path class="st45" d="M255.8,125.3c0,0,0.5,0.4,0.9,0c0.4-0.4-0.8-1.3-0.8-1.3l-0.6,0.7L255.8,125.3z"/>
					<g class="st43">
						<path d="M256.3,125.5c-0.3,0-0.5-0.2-0.5-0.2l-0.6-0.7l0.6-0.8c0.2,0.1,1.1,0.6,1.1,1.1C256.6,125.5,256.5,125.5,256.3,125.5
							L256.3,125.5z M255.8,124l-0.5,0.7l0.9,0.6c0.1,0,0.3-0.1,0.4-0.2C256.7,124.7,256.1,124.2,255.8,124L255.8,124z"/>
					</g>
					<g class="st43">
						<path d="M250.5,70.8c-0.3-0.9,3.4-3.4,3.9-3.6l0.1,0.2C252.9,68.3,250.5,70.1,250.5,70.8L250.5,70.8z"/>
					</g>
					<g class="st43">
						<path class="st47" d="M255.4,67.7c0,0-0.9,1-1,1L255.4,67.7z"/>
					</g>
					<g class="st43">
						<path d="M255,71.5c-0.5-1.1,1.5-2.7,1.5-2.8l0.1,0.2C256.7,68.9,254.7,70.5,255,71.5L255,71.5z"/>
					</g>
					<g class="st43">
						<path d="M248,73.3c-0.2-0.1-0.1-0.7-0.2-1.7c-0.1-0.6-0.6-1.6-0.9-2.2c-0.2-0.3-0.3-0.6-0.3-0.7c-0.1-0.5,0.4-1.6,0.5-1.8
							l0.2,0.1c-0.2,0.5-0.5,1.3-0.5,1.6c0,0.1,0.2,0.4,0.3,0.7c0.4,0.7,0.9,1.6,1,2.3C248.1,72.6,248,73.2,248,73.3L248,73.3z"/>
					</g>
					<g class="st43">
						<path d="M247.6,73c-0.3-0.4-1-1.7-1.3-1.9c-0.3-0.3-0.5-1.7-0.5-1.8l0.2,0c0.1,0.6,0.2,1.5,0.4,1.7
							C246.8,71.3,247.5,72.5,247.6,73L247.6,73z"/>
					</g>
					<g class="st43">
						<path d="M246,75.6c-0.3,0-0.4-0.1-0.4-0.1l0.1-0.2c0,0,0.3,0.1,0.7,0c0.4-0.1,0.9-0.5,1.5-1.7c-0.3,1.1-0.8,1.7-1.4,1.9
							C246.2,75.6,246.1,75.6,246,75.6L246,75.6z"/>
					</g>
					<g class="st43">
						<path d="M252.6,76c-0.6,0-1.4-0.2-2.3-0.7c-1.2-0.7-0.9-2.3-0.8-2.8c0.1-0.5,0.2-0.5,0.3-0.5l0.1,0.2c0,0.1-0.4,1.1-0.2,1.9
							c0.1,0.4,0.4,0.8,0.7,1c1.4,0.8,2.5,0.7,3.1,0.5c0.6-0.2,1.3-0.6,1.3-0.6c0.1,0.2-0.6,0.6-1.2,0.8C253.3,75.9,253,76,252.6,76
							L252.6,76z"/>
					</g>
					<g class="st43">
						<path d="M253.7,80.8c-4.6-2.8-4.7-5.8-4.7-6l0.2,0C249.2,74.9,249.3,77.9,253.7,80.8L253.7,80.8z"/>
					</g>
					<g class="st43">
						<path d="M251,81.5c-1.9-1-1.9-3.7-1.9-3.8h0.2C249.3,77.8,249.3,80.4,251,81.5L251,81.5z"/>
					</g>
					<g class="st43">
						<path d="M246,79.1c0.7-0.5,1.9-3.4,2.3-4.5l0.2,0.1C248.4,74.8,247,78.7,246,79.1L246,79.1z"/>
					</g>
					<g class="st43">
						<path d="M247.6,81.4c0.1-1.1,0.2-3.9,0.2-3.9h0.2C248,77.6,248,80.4,247.6,81.4L247.6,81.4z"/>
					</g>
					<g class="st43">
						<path d="M248.9,83.3c-1,0-1.9-1.1-1.9-1.1l0.2-0.1c0,0,0.9,1.1,1.8,1c0.5,0,0.8-0.4,1.1-0.6c0.3-0.3,0.6-0.6,1-0.5
							c0.2,0,0.4,0.1,0.6,0.2c0.5,0.2,1.2,0.5,2.4,0.4c-1.2,0.3-1.9,0-2.4-0.2c-0.2-0.1-0.4-0.2-0.5-0.2c-0.3-0.1-0.5,0.1-0.8,0.4
							c-0.3,0.3-0.7,0.6-1.3,0.7C249,83.3,249,83.3,248.9,83.3L248.9,83.3z"/>
					</g>
					<g class="st43">
						<path d="M252.6,88.8c-0.1-1-0.2-2.2-0.4-2.3c-0.5-0.3-0.5-2.3-0.5-2.7h0.2c0,1.1,0.1,2.4,0.4,2.5
							C252.7,86.6,252.6,88.3,252.6,88.8L252.6,88.8z"/>
					</g>
					<g class="st43">
						<path d="M245.2,89c-0.3-1,0.1-2.2,0.4-3c0.4-1,0.4-3.2,0.4-3.3l0.2,0c0,0.1,0,2.2-0.3,3C245.6,86.8,245.2,88,245.2,89
							L245.2,89z"/>
					</g>
					<g class="st43">
						<path class="st47" d="M243.4,90.3c0.2-0.1,1-0.8,1-0.8L243.4,90.3z"/>
					</g>
					<g class="st43">
						<path d="M243.5,103.6c-0.8-5,1.2-13.5,1.2-13.6l0.2,0.1C244.9,90.1,242.9,98.6,243.5,103.6L243.5,103.6z"/>
					</g>
					<g class="st43">
						<path d="M244.8,98c-0.7-1.1,0.3-7.3,0.3-7.6l0.2,0C245.4,90.5,244.4,96.8,244.8,98L244.8,98z"/>
					</g>
					<g class="st43">
						<path d="M247.9,90.5c-1.1,0-3.1-0.1-3.1-0.1v-0.2c0,0,3.9,0.3,3.9,0.3C248.6,90.5,248.3,90.5,247.9,90.5L247.9,90.5z"/>
					</g>
					<g class="st43">
						<path d="M250.8,90.5c-1,0-1.6-0.3-1.7-0.3l0.1-0.2c0,0,1.1,0.6,2.5,0.5C251.4,90.4,251.1,90.5,250.8,90.5L250.8,90.5z"/>
					</g>
					<g class="st43">
						<path d="M248.4,106.4c0-2.4,0.2-13.2,0.2-13.3h0.2C248.8,93.2,248.7,104.1,248.4,106.4L248.4,106.4z"/>
					</g>
					<g class="st43">
						<path d="M256.4,106c-0.9-0.8-2-10-2.1-10.4l0.2,0C254.9,98.9,255.9,105.3,256.4,106L256.4,106z"/>
					</g>
					<g class="st43">
						<path d="M253.4,106c-0.6-0.6-1.3-8.8-1.4-9.1l0.2,0C252.4,99.2,253,105.4,253.4,106L253.4,106z"/>
					</g>
					<g class="st43">
						<path d="M241.6,109.1l-0.1-0.2c0,0,1.4-0.5,2.7-1.8c0.5,0.5,1,0.8,1.5,0.9c1.1,0.2,2.2-0.8,2.2-0.8c0.2,0,2,1.2,3.6,0.9
							c0.6-0.1,1.1-0.5,1.5-1.2c2.4,1.5,3.6-0.2,3.6-0.2c0.4,0.4,1.1,1.3,1.6,1.2c-0.6,0.3-1.4-0.8-1.6-1c0,0.2-1.3,1.8-3.6,0.2
							c-0.2,0.6-0.8,1.1-1.5,1.2c-1.6,0.4-3.5-0.9-3.6-0.9c0,0.1-1.1,0.9-2.3,0.8c-0.6-0.1-1.1-0.4-1.5-0.9
							C243.1,108.6,241.7,109.1,241.6,109.1L241.6,109.1z"/>
					</g>
					<g class="st43">
						<path d="M259,119.6c-2.8-2.2-4.6-10.4-4.7-10.7l0.2,0C254.6,108.9,256.4,117.3,259,119.6L259,119.6z"/>
					</g>
					<g class="st43">
						<path d="M245.9,120c-0.6-4.9-0.9-12-0.9-12l0.2,0C245.3,108,245.5,115.1,245.9,120L245.9,120z"/>
					</g>
					<g class="st43">
						<path d="M244.4,121c0-0.3,0.2-2.8,0.3-5l0.2,0C244.9,116.7,244.7,120.6,244.4,121L244.4,121z"/>
					</g>
					<g class="st43">
						<path d="M248.6,123.8C248.6,123.8,248.6,123.8,248.6,123.8c-0.5-0.1-0.7-0.8-0.8-1.2c-0.1-0.7-0.2-1.4-0.8-1.6
							c-0.4-0.2-1,0-1.8,0.6c-1,0.7-1.8,1-2.4,0.7c-0.6-0.2-0.8-0.9-0.8-0.9l0.2-0.1c0,0,0.2,0.6,0.7,0.8c0.6,0.2,1.3,0,2.2-0.7
							c0.8-0.6,1.5-0.8,2-0.6c0.6,0.3,0.8,1.1,0.8,1.5c0.1,0.5,0.4,1.3,0.7,1.3c0.2,0,0.4-0.2,0.6-0.6
							C249.1,123.6,248.9,123.8,248.6,123.8L248.6,123.8z"/>
					</g>
					<g class="st43">
						<path d="M252.4,122.6c-0.2,0-0.3,0-0.5-0.1c-0.9-0.5-0.7-2.1-0.7-2.2l0.2,0c0,0-0.2,1.6,0.6,2c0.5,0.3,1.4-0.1,2.5-1
							c1.4-1.1,2.5-1.6,3.3-1.2c0.9,0.4,1.2,1.6,1.2,2.2c-0.3-0.5-0.5-1.6-1.3-2c-0.7-0.3-1.8,0.1-3.1,1.2
							C253.8,122.3,253,122.6,252.4,122.6L252.4,122.6z"/>
					</g>
					<path class="st48" d="M247,56.8c0,0,1,0.1,1.6-0.2c0.6-0.3,1.2-0.5,1.7,0.2c0.5,0.6,0.8,0.6,0.8,0.6s-0.7,1.7,0,1.9
						c0.7,0.2,1,0.2,1.1,0.4c0,0.2-0.6,0.7-0.4,1c0.2,0.2,0.5,0.5,0.6,0.7c0,0.2-0.4,1-0.3,1.2c0.1,0.2,0.6,0.9,0.8,0.9
						c0.3,0,0.1,1.2,0.9,0.9c0.8-0.3,0.8-1,0.8-1s0.9-0.1,1.1-0.9c0.2-0.8,0.8-1,0.8-1s1.1-0.6-0.4-1.5c0-6.5-4.2-5.8-4.2-5.8
						s-0.5-1.2-1.3-1c-0.8,0.1-0.9,1.1-1.5,1c-0.6-0.1-0.7-0.5-0.8-0.5c0,0.1-0.6,1-0.6,1.2c0,0.2-1.6-0.3-1.5,0.9
						C246.2,56.9,247,56.9,247,56.8L247,56.8z"/>
					<g class="st43">
						<path d="M253.4,64.4c-0.4,0-0.5-0.4-0.6-0.7c-0.3-0.2-0.6-0.6-0.9-1.1c-0.2-0.3-0.1-0.5,0-0.9c0.1-0.1,0.1-0.3,0.1-0.4
							c0-0.1-0.2-0.3-0.3-0.4c-0.4-0.5-0.2-0.7,0-1c0.2-0.4,0-0.5-0.3-0.5l-0.4-0.1c-0.5-0.7-0.2-1.8-0.1-2c-0.1,0.1-0.4,0-0.8-0.5
							c-0.3-0.5-0.8-0.5-1.5-0.2c-0.6,0.4-1.6,0.2-1.6,0.2c-0.4,0.1-0.9-0.2-1-1.2c0-0.3,0-0.5,0.2-0.7c0.2-0.3,0.6-0.3,0.9-0.3
							l0.4,0c0-0.2,0.5-1.2,0.5-1.2c0.3,0.2,0.5,0.4,0.9,0.4c0.2,0.1,0.4-0.1,0.5-0.4c0.2-0.3,0.4-0.6,0.9-0.6c1,0.1,1.4,1,1.5,1.1
							c1.2-0.1,4.3,0.3,4.3,5.8c0.5,0.3,0.8,0.6,0.8,1c0,0.4-0.4,0.7-0.5,0.7c0,0-0.5,0.2-0.7,0.9c-0.2,0.8-1,1-1.2,1
							c0.1,0.1,0,0.7-0.8,1L253.4,64.4L253.4,64.4z M249.4,56.2c0.4,0,0.7,0.2,0.9,0.5c0.4,0.5,0.6,0.6,0.7,0.6
							c0,0.5-0.3,1.4-0.1,1.8l0.6,0.2c0.4,0.1,0.7,0.1,0.7,0.4c0,0.1-0.1,0.3-0.2,0.5c-0.1,0.1-0.3,0.4-0.2,0.4
							c0.4,0.4,0.5,0.6,0.6,0.7c0,0.1,0,0.3-0.1,0.5c-0.1,0.2-0.2,0.5-0.2,0.6c0.2,0.4,0.6,0.9,0.7,0.9h0.1l0.2,0.4
							c0.1,0.3,0.2,0.5,0.4,0.5v0.1l0.2-0.2c0.7-0.2,0.7-0.9,0.7-0.9c0.1-0.1,0.9-0.3,1.1-1c0.2-0.8,0.8-1,0.9-1l0,0
							c0,0,0.3-0.2,0.3-0.5c0-0.3-0.2-0.6-0.7-0.9c0-5.2-2.7-5.8-3.8-5.8l-0.1,0l-0.4-0.1c0,0-0.4-1-1.1-1c-0.5,0.1-0.7,0.3-0.9,0.6
							c-0.2,0.2-0.3,0.5-0.6,0.5c-0.6-0.1-0.8-0.3-0.9-0.4c0,0-0.4,0.9-0.4,1.1l-0.5,0.2c-0.4,0-0.7,0-0.9,0.2
							c-0.1,0.1-0.1,0.3-0.1,0.5c0.1,0.8,0.5,1,0.7,1c0.1,0,0.3,0,0.6,0c0.3,0,0.7,0,1-0.2C248.8,56.3,249.1,56.2,249.4,56.2
							L249.4,56.2z"/>
					</g>
					<g class="st43">
						<path d="M253.8,58.5c-0.3,0-0.9-0.5-0.6-1.5c-0.6,0.2-1.1,0-1.5-0.3c-0.5-0.6-0.4-1.5-0.4-1.5l0.2,0c0,0-0.1,0.8,0.3,1.3
							c0.3,0.3,0.7,0.4,1.4,0.4C253.1,58.1,253.8,58.4,253.8,58.5C253.8,58.5,253.8,58.5,253.8,58.5L253.8,58.5z"/>
					</g>
					<g class="st43">
						<path d="M255.4,61.2c0.2-0.4,0.3-0.6,0.3-0.8c0-0.3-0.3-0.5-0.4-0.5l0-0.2c0.1,0,0.4,0.2,0.5,0.5
							C256,60.4,256,60.8,255.4,61.2L255.4,61.2z"/>
					</g>
					<g class="st43">
						<path d="M255.1,62.5c-0.1,0-0.3,0-0.6-0.1c-0.3-0.2-0.9-0.6-1.3-0.5c-0.6,0.1-1.1-0.4-1.1-0.4l0.2-0.1c0,0,0.4,0.5,0.9,0.4
							c0.5-0.2,1.4,0.5,1.4,0.5c0.3,0.1,0.6,0.1,0.6,0.1C255.3,62.5,255.3,62.5,255.1,62.5L255.1,62.5z"/>
					</g>
					<g class="st43">
						<path d="M249.9,63.3c-0.2,0-0.4-0.1-0.4-0.1l0.1-0.2c0.1,0,1.5,0.5,2.4-1.8C251.4,63,250.4,63.3,249.9,63.3L249.9,63.3z"/>
					</g>
					<g class="st43">
						<path class="st47" d="M246.6,60.5l0.9,0.1L246.6,60.5z"/>
					</g>
					<g class="st43">
						<polygon class="st47" points="246.7,61.4 247.5,61.4 246.8,61.7 						"/>
					</g>
					<g class="st43">
						<path class="st47" d="M247.8,58.8c0.1,0,0.7-0.2,0.7,0C248.7,58.9,248,59,247.8,58.8z"/>
					</g>
					<path class="st45" d="M257.8,69.8c0,0,1.5,4.6,1.7,5.7c0.2,1.2,0.8,5.8,0.6,6.4c-0.2,0.6-2.6,3.7-2.9,4.5
						c-0.3,0.8-1.9,3.8-1.9,3.8s-0.4,3-0.6,3.1c-0.2,0.1,0.5,0.9,0.4,1.1c-0.1,0.3-1.3,1.6-1.9,1.4c-0.6-0.1-1.4-0.8-1.5-1.4
						c0-0.6,0-2.6,0.5-3.1c0.4-0.5,2.6-5.6,2.7-6c0.1-0.3,2-4.4,2-5c0-0.7-0.6-2.3-1.2-2.9C254.3,73.3,254.8,70.7,257.8,69.8
						L257.8,69.8z"/>
					<g class="st43">
						<path d="M253.3,96l-0.1,0c-0.6-0.1-1.5-0.8-1.6-1.5c-0.1-0.6,0-2.6,0.5-3.2c0.2-0.2,0.8-1.3,2.6-5.7l0.3-0.6
							c0.4-1,1.8-4.1,1.9-4.7c0-0.7-0.6-2.2-1.2-2.8c-0.9-2.7-1-4.7-0.3-6c0.5-0.9,1.3-1.5,2.5-1.9l0,0c0.3,0,1.8,5.8,1.9,5.8
							c0.2,1.1,0.8,5.8,0.5,6.5c-0.1,0.3-0.7,1.2-1.3,2.1c-0.7,1-1.4,2-1.5,2.4c-0.3,0.8-1.9,3.7-1.9,3.8c-0.1,1.1-0.4,3-0.6,3.1
							c0,0,0.1,0.3,0.2,0.4c0.1,0.2,0.3,0.5,0.2,0.6C255.1,94.8,253.9,96,253.3,96L253.3,96z M257.7,69.9c-1,0.4-1.8,1-2.2,1.8
							c-0.7,1.3-0.6,3.2,0.3,5.8c0.6,0.6,1.3,2.2,1.2,2.9c0,0.6-1.1,3-1.9,4.7l-0.4,0.6l0.1,0c-1.5,3.5-2.4,5.4-2.6,5.7
							c-0.4,0.5-0.5,2.4-0.4,3c0,0.5,0.9,1.2,1.4,1.3l0.1,0c0.5,0,1.6-1.1,1.7-1.4c0-0.1-0.1-0.3-0.2-0.5c-0.2-0.3-0.3-0.6-0.2-0.7
							c0.1-0.1,0.4-1.6,0.6-3c0-0.1,1.7-3,1.9-3.8c0.1-0.4,0.9-1.5,1.6-2.5c0.6-0.9,1.2-1.7,1.3-2c0.2-0.6-0.4-5.1-0.6-6.4
							C259.3,74.5,257.8,70.1,257.7,69.9L257.7,69.9z"/>
					</g>
					<g class="st43">
						<path class="st47" d="M236.3,89.6l0.1,2L236.3,89.6z"/>
					</g>
					<g class="st43">
						<path d="M235.7,92.8c-0.1-1.1-1.4-3.3-1.4-3.3l0.2-0.1C234.6,89.5,235.8,91.7,235.7,92.8L235.7,92.8z"/>
					</g>
					<g class="st43">
						<path d="M252.9,95.6c-0.2-0.6-0.3-1-0.6-1.3c-0.2-0.2-0.5-0.2-0.5-0.2l0-0.2c0,0,0.3,0,0.6,0.2
							C252.7,94.4,252.9,94.9,252.9,95.6c0.4-2.1,1.7-2.2,1.8-2.2C254.6,93.6,253.4,93.7,252.9,95.6L252.9,95.6z"/>
					</g>
					<path class="st44" d="M248.5,140.3c19.5-0.5,32.1-14.6,32-14.8c-0.1-0.1,2.6-3.9,4.7-3.4c2.2,0.5,5.3,6.9,9.1,8.3
						c1.9,3-0.5,5.7-1.4,6.2c-0.8,0.5-4.5,2-5-0.1c-0.5-2.2-1.6-1.8-1.6-1.8S269,151.7,248.9,151c-20.7,0.1-37.8-16.3-37.8-16.3
						l-1.5,1.6c0,0-1.6,1.8-2.4,1.6c-0.8-0.1-4.3-2.4-4.6-4.7c-0.3-2.3,2.2-3.8,2.2-3.8s6-4.6,6.6-7c1.4-1.4,3.9,0.9,3.9,0.9
						S231,141.4,248.5,140.3L248.5,140.3z"/>
					<g class="st43">
						<path d="M250.1,151.2l-1.2,0l0,0c-20.7,0-37.8-16.2-38-16.3l-1.2,1.6c-0.2,0.2-1.6,1.7-2.5,1.7c-1-0.2-4.6-2.5-4.9-4.9
							c-0.3-2.4,2.2-3.9,2.3-4c0,0,5.9-4.6,6.5-6.9c1.5-1.6,4.2,0.8,4.3,0.8c0.2,0.2,15.9,17.9,33,16.9
							c19.6-0.5,31.7-14.5,31.8-14.6c0.3-0.7,3-4,5-3.5c1,0.3,2.2,1.7,3.5,3.3c1.6,2,3.5,4.2,5.6,5c2,3.1-0.3,5.9-1.3,6.6
							c-0.5,0.3-2.1,1-3.4,1c-1.1,0-1.7-0.5-1.9-1.3c-0.4-1.5-1-1.6-1.2-1.6C286.3,135.1,269.5,151.2,250.1,151.2L250.1,151.2z
							 M210.9,134.6c0.5,0.2,17.4,16.2,37.7,16.2l1.4,0c19.2,0,35.9-16.1,36.1-16.2c0.8-0.1,1.6,0.2,2,1.9c0.2,0.6,0.7,1,1.5,1
							c1.2,0,2.7-0.7,3.2-1c0.6-0.4,3.2-3,1.3-5.9c-2-0.7-4-3-5.6-5c-1.3-1.5-2.4-2.9-3.3-3.2c0,0,0,0-0.1,0c-2.2,0-4.3,2.8-4.4,3.2
							c-0.1,0.2-12.3,14.4-32.2,15c-0.5,0-1,0-1.5,0c-16.8,0-31.7-16.9-31.8-17.1l0,0c0,0-2.6-2-3.6-0.9c-0.6,2.4-6.4,6.9-6.7,7.1
							c0,0-2.3,1.5-2.1,3.6c0.3,2.2,3.6,4.4,4.4,4.5l0,0c0.6,0,1.7-1,2.2-1.6L210.9,134.6L210.9,134.6z"/>
					</g>
					<g class="st43">
						<path d="M211,134.9c0,0-4.1-4-4.7-4.7c-0.4-0.5-1.6-0.3-2-0.2l-0.1-0.4c0.2-0.1,1.8-0.4,2.4,0.3c0.6,0.7,4.6,4.6,4.6,4.6
							L211,134.9L211,134.9z"/>
					</g>
					<g class="st43">
						<path d="M209.7,136.4l-0.4-0.1c0.2-0.6,0.2-1-0.1-1.5c-0.7-1.2-2.9-1.7-2.9-1.7l1.5-1.6l0.3,0.3l-1.5,1.1
							c0.5-0.1,2.2,0.4,2.9,1.6C209.9,135.1,210,135.8,209.7,136.4L209.7,136.4z"/>
					</g>
					<g class="st43">
						<path d="M286.5,134.8l-0.3-0.3c0.1-0.1,3.2-3.6,4.5-4.5c1.4-1,2.3-0.5,2.3-0.5l-0.2,0.4c0,0-0.7-0.3-1.8,0.5
							C289.7,131.3,286.5,134.8,286.5,134.8L286.5,134.8z"/>
					</g>
					<g class="st43">
						<path d="M287.9,136.7c-0.2-1.1-0.1-2,0.4-2.6c0.9-1.2,2.6-1.3,2.7-1.3l-1.9-1l0.3-0.3l1.7,1.3c-0.1,0.4-1.7,0.5-2.5,1.5
							c-0.4,0.6-0.5,1.4-0.3,2.3L287.9,136.7L287.9,136.7z"/>
					</g>
					<rect x="-14.1" y="-0.6" class="st49" width="175" height="87.5"/>
					<path class="st46" d="M-14.1-0.6v9.8L141.3,87h19.6v-9.8L5.4-0.6H-14.1z M160.9-0.6v9.8L5.4,87h-19.6v-9.8L141.3-0.6H160.9z"/>
					<path class="st46" d="M58.8,87H88V-0.6H58.8V87z M-14.1,57.8h175V28.6h-175V57.8z"/>
					<path class="st50" d="M-14.1,51.9h175V34.4h-175V51.9z M64.6,87h17.5V-0.6H64.6V87z"/>
					<path class="st50" d="M-14.1,87l58.3-29.2h13L-1.1,87H-14.1z M-14.1-0.6l58.3,29.2h-13L-14.1,6V-0.6z M89.5,28.6l58.3-29.2h13
						l-58.3,29.2H89.5z M160.9,87l-58.3-29.2h13l45.3,22.6V87z"/>
					<path class="st43" d="M225,134.1l-0.1,0.2c-0.2-0.1-0.5-0.1-0.8-0.1c-0.2,0.1-0.7,0.3-1.3,0.6l-5.4,3.1l-0.1-0.1l1.4-6.3
						c0.2-0.8,0.2-1.2,0.2-1.4c0-0.2-0.1-0.3-0.3-0.5l0.1-0.2l2.9,2.1l-0.1,0.2l-0.1-0.1c-0.3-0.2-0.5-0.3-0.6-0.3
						c-0.1,0-0.2,0-0.2,0.1c0,0-0.1,0.1-0.1,0.2c0,0.1-0.1,0.3-0.2,0.8l-0.9,3.9l3.1-1.8c0.4-0.2,0.6-0.4,0.7-0.5
						c0.1-0.1,0.2-0.2,0.2-0.2c0.1-0.1,0.1-0.2,0.1-0.3c0-0.1,0-0.2-0.1-0.3c-0.1-0.1-0.2-0.3-0.5-0.4l0.1-0.2L225,134.1L225,134.1z
						 M226.9,143.4l-0.1,0.2l-3.4-1.9l0.1-0.2l0.2,0.1c0.2,0.1,0.4,0.2,0.5,0.1c0.1,0,0.2,0,0.3-0.1c0.1-0.1,0.2-0.2,0.4-0.6
						l2.3-4.3c0.2-0.3,0.3-0.6,0.3-0.6c0-0.1,0-0.2-0.1-0.3c-0.1-0.1-0.2-0.2-0.4-0.3l-0.2-0.1l0.1-0.2l3.4,1.9l-0.1,0.2l-0.2-0.1
						c-0.2-0.1-0.4-0.2-0.5-0.1c-0.1,0-0.2,0-0.3,0.1c-0.1,0.1-0.2,0.2-0.4,0.6l-2.3,4.3c-0.2,0.3-0.3,0.6-0.3,0.7
						c0,0.1,0,0.2,0.1,0.3c0.1,0.1,0.2,0.2,0.4,0.3L226.9,143.4L226.9,143.4z M239.3,140.5l-0.9,2.5l-0.2-0.1c0-0.8-0.2-1.4-0.5-1.9
						c-0.3-0.5-0.8-0.9-1.3-1.1c-0.5-0.2-1-0.2-1.5,0c-0.5,0.2-0.8,0.5-1.2,1c-0.3,0.5-0.6,1-0.8,1.5c-0.2,0.7-0.4,1.3-0.4,1.8
						c0,0.6,0.1,1,0.4,1.4c0.3,0.4,0.6,0.6,1.1,0.8c0.2,0.1,0.3,0.1,0.5,0.1c0.2,0,0.4,0,0.6,0l0.5-1.5c0.1-0.3,0.1-0.5,0.1-0.5
						c0-0.1-0.1-0.2-0.2-0.3c-0.1-0.1-0.2-0.2-0.4-0.3l-0.2-0.1l0.1-0.2l3.4,1.2l-0.1,0.2c-0.3-0.1-0.5-0.1-0.6-0.1
						c-0.1,0-0.2,0.1-0.3,0.2c-0.1,0.1-0.1,0.2-0.2,0.5l-0.5,1.5c-0.5,0-1,0-1.6,0c-0.5-0.1-1-0.2-1.6-0.4c-0.7-0.2-1.2-0.5-1.6-0.9
						c-0.4-0.3-0.7-0.7-0.9-1.1c-0.2-0.4-0.4-0.8-0.4-1.3c-0.1-0.6,0-1.1,0.2-1.7c0.4-1,1.1-1.8,2.1-2.3c1-0.5,2.1-0.5,3.2-0.1
						c0.3,0.1,0.6,0.3,0.9,0.4c0.1,0.1,0.4,0.2,0.6,0.5c0.3,0.2,0.5,0.4,0.5,0.4c0.1,0,0.2,0,0.3,0c0.1,0,0.2-0.2,0.4-0.3
						L239.3,140.5L239.3,140.5z M244.6,148.9l0,0.2l-3.8-0.6l0-0.2l0.2,0c0.2,0,0.4,0,0.5,0c0.1,0,0.2-0.1,0.3-0.2
						c0.1-0.1,0.1-0.3,0.2-0.7l0.7-4.8c0.1-0.4,0.1-0.6,0-0.7c0-0.1-0.1-0.2-0.2-0.3c-0.1-0.1-0.3-0.1-0.5-0.2l-0.2,0l0-0.2l3.8,0.6
						l0,0.2l-0.2,0c-0.2,0-0.4,0-0.5,0c-0.1,0-0.2,0.1-0.3,0.2c-0.1,0.1-0.1,0.3-0.2,0.7l-0.7,4.8c-0.1,0.4-0.1,0.6,0,0.7
						c0,0.1,0.1,0.2,0.2,0.3c0.1,0.1,0.3,0.1,0.5,0.2L244.6,148.9L244.6,148.9z M254.5,146.5l-0.2,2.6l-6.6,0.3l0-0.2l0.2,0
						c0.2,0,0.4-0.1,0.5-0.1c0.1-0.1,0.2-0.1,0.2-0.3c0-0.1,0-0.3,0-0.7l-0.2-4.9c0-0.4-0.1-0.6-0.1-0.7c0-0.1-0.1-0.2-0.3-0.2
						c-0.1-0.1-0.3-0.1-0.5-0.1l-0.2,0l0-0.2l3.9-0.2l0,0.2l-0.3,0c-0.2,0-0.4,0.1-0.5,0.1c-0.1,0-0.2,0.1-0.2,0.3
						c0,0.1,0,0.3,0,0.7l0.2,4.7c0,0.4,0.1,0.6,0.1,0.7c0.1,0.1,0.1,0.2,0.3,0.2c0.1,0,0.3,0,0.7,0l0.6,0c0.4,0,0.7-0.1,1-0.3
						c0.3-0.2,0.5-0.4,0.6-0.7c0.2-0.3,0.3-0.8,0.5-1.3L254.5,146.5L254.5,146.5z M261.7,145.3l-2.5,0.8l-0.1,0.8c0,0.3,0,0.5,0,0.6
						c0.1,0.2,0.2,0.3,0.4,0.4c0.1,0,0.4,0,0.7-0.1l0.1,0.2l-2.4,0.7l-0.1-0.2c0.2-0.1,0.4-0.3,0.5-0.5c0.1-0.2,0.2-0.6,0.3-1.3
						l0.8-6.4l0.1,0l4.3,5.1c0.4,0.5,0.7,0.8,0.9,0.9c0.2,0.1,0.3,0.1,0.6,0l0.1,0.2l-3.4,1l-0.1-0.2l0.1,0c0.3-0.1,0.5-0.2,0.5-0.3
						c0.1-0.1,0.1-0.2,0-0.3c0-0.1-0.1-0.1-0.1-0.2c0,0-0.1-0.1-0.3-0.3L261.7,145.3L261.7,145.3z M261.4,144.9l-1.8-2.1l-0.4,2.8
						L261.4,144.9L261.4,144.9z M270.9,135.3l1,1.8l-0.2,0.1c-0.3-0.3-0.6-0.6-0.8-0.7c-0.2-0.1-0.5-0.2-0.7-0.2
						c-0.2,0-0.4,0.1-0.7,0.3l-0.5,0.3l2.7,5c0.2,0.3,0.3,0.5,0.4,0.6c0.1,0.1,0.2,0.1,0.3,0.1c0.1,0,0.3,0,0.5-0.1l0.2-0.1l0.1,0.2
						l-3.4,1.8l-0.1-0.2l0.2-0.1c0.2-0.1,0.3-0.2,0.4-0.3c0.1-0.1,0.1-0.2,0.1-0.3c0-0.1-0.1-0.3-0.3-0.6l-2.7-5l-0.5,0.2
						c-0.4,0.2-0.7,0.5-0.8,0.8c-0.1,0.4-0.1,0.9,0.1,1.4l-0.2,0.1l-1-1.8L270.9,135.3L270.9,135.3z M275.3,132.6l1.8,2.4l0.1-0.1
						c0.4-0.3,0.6-0.6,0.5-1c0-0.4-0.2-0.8-0.5-1.3l0.2-0.1l2.3,3.1l-0.2,0.1c-0.3-0.3-0.6-0.5-0.8-0.7c-0.3-0.1-0.5-0.2-0.7-0.1
						c-0.2,0-0.4,0.2-0.7,0.4l1.3,1.7c0.2,0.3,0.4,0.5,0.5,0.6c0.1,0,0.2,0.1,0.3,0.1c0.1,0,0.2-0.1,0.4-0.2l0.4-0.3
						c0.6-0.4,0.9-0.9,1-1.4c0.1-0.5,0.1-1.1-0.2-1.7l0.2-0.1l1.2,2.1l-5.1,3.9l-0.1-0.2l0.2-0.2c0.2-0.1,0.3-0.3,0.3-0.4
						c0-0.1,0.1-0.2,0-0.3c0-0.1-0.1-0.3-0.4-0.6l-2.9-3.9c-0.2-0.3-0.3-0.4-0.4-0.5c-0.1-0.1-0.2-0.1-0.3-0.1
						c-0.2,0-0.4,0.1-0.5,0.2l-0.2,0.1l-0.1-0.2l5-3.7l1.3,1.8l-0.2,0.1c-0.4-0.4-0.8-0.6-1.1-0.7c-0.3-0.1-0.6,0-1,0.1
						c-0.2,0.1-0.5,0.3-1,0.6L275.3,132.6L275.3,132.6z"/>
				</g>
			</g>
		</g>
	</g>
</g>
</svg>
