<?xml version="1.0" encoding="utf-8"?>
<!-- Generator: Adobe Illustrator 22.1.0, SVG Export Plug-In . SVG Version: 6.00 Build 0)  -->
<svg version="1.1" xmlns="http://www.w3.org/2000/svg" xmlns:xlink="http://www.w3.org/1999/xlink" x="0px" y="0px"
	 viewBox="0 0 300 300" style="enable-background:new 0 0 300 300;" xml:space="preserve">
<style type="text/css">
	.st0{clip-path:url(#SVGID_2_);}
	.st1{clip-path:url(#SVGID_2_);fill:#FFFFFF;}
	.st2{clip-path:url(#SVGID_4_);fill:#FFFFFF;}
	.st3{clip-path:url(#SVGID_4_);}
	.st4{clip-path:url(#SVGID_6_);fill-rule:evenodd;clip-rule:evenodd;fill:#F6D628;}
	.st5{clip-path:url(#SVGID_6_);}
	.st6{clip-path:url(#SVGID_6_);fill-rule:evenodd;clip-rule:evenodd;fill:#F3F52C;}
	.st7{clip-path:url(#SVGID_6_);fill-rule:evenodd;clip-rule:evenodd;fill:#5BCDDB;}
	.st8{clip-path:url(#SVGID_6_);fill-rule:evenodd;clip-rule:evenodd;fill:#3B8511;}
	.st9{clip-path:url(#SVGID_6_);fill-rule:evenodd;clip-rule:evenodd;fill:#B30C40;}
	.st10{clip-path:url(#SVGID_6_);fill-rule:evenodd;clip-rule:evenodd;fill:#1C2A7D;}
	.st11{clip-path:url(#SVGID_6_);fill-rule:evenodd;clip-rule:evenodd;fill:#FFFFFF;}
</style>
<g id="Layer_2">
</g>
<g id="Layer_1">
	<g>
		<defs>
			<rect id="SVGID_1_" y="-0.1" width="300" height="300"/>
		</defs>
		<clipPath id="SVGID_2_">
			<use xlink:href="#SVGID_1_"  style="overflow:visible;"/>
		</clipPath>
		<g id="Layer_2_1_" class="st0">
		</g>
		<rect x="-1" y="-0.7" class="st1" width="302" height="301.4"/>
		<g class="st0">
			<g>
				<defs>
					<rect id="SVGID_3_" x="-8" y="57.8" width="316" height="184.3"/>
				</defs>
				<clipPath id="SVGID_4_">
					<use xlink:href="#SVGID_3_"  style="overflow:visible;"/>
				</clipPath>
				<rect x="-8" y="57.8" class="st2" width="316" height="184.3"/>
				<g class="st3">
					<defs>
						<rect id="SVGID_5_" x="-8" y="57.8" width="316" height="184.3"/>
					</defs>
					<clipPath id="SVGID_6_">
						<use xlink:href="#SVGID_5_"  style="overflow:visible;"/>
					</clipPath>
					<path class="st4" d="M174.5,124.2c0-1.3-0.4-3.7-1.7-4.6c-1.7-0.9-1.7-1.5-1.9-2.6c-0.1-1.2,2.9-3.4,2.9-3.4s-2.8-1.2-3.8-1.1
						c-1,0.1-3,0.3-3.3,0.6c-0.3,0.3-1.8-5-0.8-5.8c1-0.8,3,1.9,3,1.9s1.3-3-3.3-8.8c1.6-11.3-9-13.9-11.4-13.9
						c-2-0.3-7.2,1.6-8,4.1c-2.6,0.9-2.8,3.2-2.8,3.2s-5.4,1-6.1,5.7c3.2-2.6,5.2,0.3,5.2,0.3s2.8,1.9,4.2,2
						c1.4,0.1-1.4,4.8-2.2,5.7c-0.8,0.8-4.3,4-4.1,4.2c0.1,0.2,2.7,1,2.6,2.1c-0.1,1.2-7.9,4.8-7.4,5.7c2-0.6,3.6-0.1,3.6-0.1
						c0.3,2-0.5,4.2-1.8,4.9H174.5z"/>
					<g class="st5">
						<path d="M174.8,124.5h-38.6l0.9-0.5c1.2-0.6,1.9-2.7,1.7-4.6c-0.1,0.1-0.6,0-1.2,0c-0.7,0-1.4,0.1-2,0.3
							c-0.1-0.2-0.2-0.3-0.2-0.5l0,0h0c0.1-0.6,1.3-1.4,3.5-2.8c1.5-0.9,3.7-2.2,3.7-2.7c0.1-0.7-1.3-1.3-1.9-1.6
							c-0.4-0.2-0.5-0.2-0.6-0.4c-0.2-0.3-0.2-0.3,3.2-3.6l0.9-0.9c0.7-0.7,2.8-4.3,2.5-5.1c-1.6-0.1-4.4-2-4.5-2.1
							c-0.1-0.1-1-1.3-2.5-1.3c-0.8,0-1.6,0.3-2.4,1l-0.5,0.5l0.1-0.7c0.7-4.7,5.8-5.8,6.3-5.9c-0.2-0.1,0.1-2.3,2.7-3.2
							c0.7-2.5,6.1-4.3,8.1-4.1c0,0,0,0,0,0c1.8,0,6.2,1.1,9.1,4.4c2.2,2.5,3.1,5.8,2.5,9.8c4.6,5.7,3.4,8.8,3.3,8.9l-0.2,0.4
							l-0.3-0.4c-0.6-0.8-1.7-2-2.3-2c-0.3,0.1-0.4,0.3-0.5,0.8c-0.1,1.6,0.7,4.4,1,4.7c-0.1-0.2,0.8-0.4,2.7-0.6l0.5-0.1
							c1.5,0,3.8,1.1,3.9,1.1l0.4,0.2l-0.4,0.3c-1.1,0.8-2.9,2.4-2.8,3.1c0.1,1.2,0.2,1.6,1.7,2.4c1.5,1,1.9,3.6,1.9,4.8V124.5
							L174.8,124.5z M138,123.9h36.2c-0.1-1.4-0.5-3.4-1.6-4.1c-1.7-0.9-1.8-1.5-2-2.7c-0.1-1.2,1.7-2.8,2.6-3.5
							c-0.7-0.3-2.3-0.9-3.1-0.9l-0.6,0.1c-0.8,0.1-2.5,0.3-2.7,0.5c-0.4,0.1-0.6-0.1-0.8-0.7c-0.3-0.7-1.4-4.7-0.4-5.5
							c0.8-0.7,2.3,0.7,3,1.5c0.1-1.1,0-3.8-3.4-8c0.5-4-0.3-7.1-2.4-9.6c-2.8-3.2-7-4.2-8.6-4.2c-0.3,0-0.4,0-0.5,0
							c-2.3,0-6.6,1.8-7.3,3.9c-2.6,1-2.7,3-2.7,3.1c-0.3,0.2-4.9,1.1-5.9,5c0.7-0.5,1.5-0.7,2.2-0.7c1.8,0,2.8,1.4,2.9,1.5l0,0
							c0,0,2.7,1.8,4,1.9c0.3,0,0.5,0.2,0.6,0.4c0.5,1.2-2,5-2.6,5.7l-1,0.9c-0.9,0.8-2.6,2.5-3,3c0,0,0.2,0.1,0.3,0.1
							c0.9,0.4,2.3,1.1,2.2,2.2c-0.1,0.7-1.6,1.6-4,3.1c-1.1,0.6-2.6,1.6-3.2,2.1c1.4-0.3,3,0,3.1,0
							C139.6,120.9,139,122.9,138,123.9L138,123.9z"/>
					</g>
					<path class="st4" d="M172.5,175.9c0,0,0.3,4.2-1.4,5.9c7.8,0.5,12,8.4,12.1,10.3c0.1,1.9-2.4,3.4-2.4,3.4s0.8,3.4-2.4,3.9
						c0.1,3.2-2.2,3.2-2.2,3.2s-0.8,2.7-3.4,2.5c-0.8,3.9-4.8,3.8-4.8,3.8s-2.3,5.6-5.8,3.4c-2.2,4.8-7.9,4.6-10.1,0
						c-1.2-0.1-3.9,1.6-5.5-3.2c-3.6,0.6-5-3.9-5-3.9s-2.4-0.2-3.3-2.6c-2.8-0.6-2.3-3.4-2.3-3.4s-2.8-0.8-2.7-3.9
						c-2.3-1.3-2-3.7-2-3.7s1.8-8.3,12-10.1c-1.6-2.3-1.4-5.7-1.4-5.7L172.5,175.9z"/>
					<g class="st5">
						<path d="M157.2,216.2c-2.2,0-4.3-1.4-5.4-3.7c0,0.2-0.3,0.2-0.5,0.2c-0.4,0.1-0.8,0.1-1.2,0.1c-1.7,0-3-1.2-3.8-3.6
							c0.1,0.2-0.2,0.2-0.4,0.2c-3.2,0-4.5-3.9-4.6-4.2c0,0.1-2.4-0.2-3.3-2.6c-2.6-0.4-2.4-3.1-2.3-3.5c-0.2,0.1-2.8-0.8-2.7-3.9
							c-2.2-1.2-2-3.6-2-3.7c0-0.1,1.9-8.3,11.8-10.2c-1.4-2.3-1.2-5.4-1.2-5.5l31-0.3c0.3,0.4,0.6,4-0.9,5.9
							c7.6,0.8,11.7,8.7,11.8,10.6c0.1,1.9-2.2,3.4-2.5,3.6c0.2,0,0.4,1.5-0.3,2.7c-0.5,0.7-1.2,1.1-2.2,1.3c0.3,1,0,1.9-0.6,2.5
							c-0.6,0.6-1.4,0.7-1.5,0.7c0.1,0.1-0.8,2.5-3.3,2.5c-0.7,3.7-4.8,3.8-5,3.8c0.2,0-1.5,3.9-4.2,3.9c-0.5,0-1-0.1-1.5-0.4
							C161.3,215,159.4,216.2,157.2,216.2L157.2,216.2z M152,212.2c1.3,2.2,3.2,3.5,5.2,3.5c2,0,3.8-1.3,4.8-3.3
							c0-0.1,0.1-0.1,0.2-0.1c0.1,0,0.2,0,0.2,0c0.5,0.3,1,0.5,1.4,0.5c2.3,0,3.9-3.7,3.9-3.8c0.7-0.2,4.1-0.3,4.8-3.7
							c0-0.1,0.3-0.2,0.5-0.2c2.2,0,3-2.2,3-2.3c0.3-0.2,0.9-0.2,1.5-0.8c0.5-0.5,0.7-1.3,0.7-2.4c1.1-0.4,1.7-0.8,2.1-1.4
							c0.7-1.1,0.3-2.5,0.3-2.5c0.1-0.3,2.4-1.7,2.4-3.4c-0.1-1.8-4.2-9.6-11.8-10.1c-0.1,0-0.2-0.1-0.2-0.2c0-0.1,0-0.2,0.1-0.3
							c1.6-1.6,1.3-5.6,1.3-5.7l-30.4,0.3c0.2,0.2,0.1,3.2,1.6,5.3c0.1,0.1,0.1,0.2,0,0.3c0,0.1-0.1,0.1-0.2,0.2
							c-9.9,1.7-11.7,9.8-11.7,9.8c0,0.1-0.2,2.2,1.9,3.4c0.1,3.1,2.6,3.8,2.7,3.8c0.2,0.4-0.2,2.9,2.3,3.4c1,2.4,3.2,2.6,3.3,2.6
							c0.3,0.2,1.6,4.5,4.9,3.9c1.8,4.4,3.6,3.5,4.7,3.3C151.5,212.2,151.8,212.2,152,212.2L152,212.2z"/>
					</g>
					<path class="st4" d="M123.6,128.3c0,0-5.6,6-8.3,1.5c-2.8-4.5,3.9-5.7,4-5.8c0.1-0.1,3.9-1.3,4.2-8.3c0.3-7-8.3-11.5-10.8-12.1
						c-2.4-0.6-9.6-0.6-9.6-0.6s-26.2-6.3-28.9-8.3c-2.7-1.9-27.4-6.5-27.4-6.5s-4-0.5-3.6,3c0.3,3.5,3.6,4,3.6,4s-2.8,2.2-2.4,4.1
						c0.3,1.9,2.4,5.1,6.8,4.5c-0.5,6.9,9.1,8,9.1,8s1,9.9,9.9,9.4c2.1,6.8,10,7.1,10,7.1s3.7,4.6,9.1,5c3.1,7.7,9.9,5.6,9.9,5.6
						s-0.5,4.9,2.6,4.9c-1.6,5.6,4.4,6.3,6.7,5.2c0.6,1.2,2.6,4.8,7.2,2.5c2.8,4.1,7.3,2.2,7.3,2.2s1,3.3,5,2
						C131.8,154.6,123.6,128.5,123.6,128.3L123.6,128.3z"/>
					<g class="st5">
						<path d="M126.2,156.5L126.2,156.5c-2.2,0-3.1-1.5-3.5-2.2c-1.1,0.3-4.6,1.4-7.3-2.2c-0.9,0.4-1.8,0.6-2.7,0.6
							c-1.3,0-3.2-0.6-4.6-3.2c-0.6,0.2-1.3,0.3-2,0.3c-1.8,0-3.4-0.7-4.3-1.8c-0.8-1-1-2.3-0.6-3.9c-0.6-0.1-1.1-0.4-1.5-0.8
							c-1-1.1-1.1-3.1-1-3.9c-0.4,0.1-1,0.2-1.8,0.2c-2.1,0-5.9-0.8-8-6.1c-5.2-0.1-8.8-4.6-9-4.9c0,0.1-7.8-0.3-10-6.9l-0.4,0
							c-7.7,0-9.3-7.9-9.5-9.5c-1.5-0.2-9.3-1.8-9.1-7.9c-4.4,0.3-6.4-2.8-6.8-4.9c-0.3-1.6,1.2-3.2,2.1-4c-1-0.3-3-1.4-3.2-4.1
							c-0.1-1,0.1-1.8,0.7-2.4c1.2-1.3,3.3-1,3.3-1c1,0.2,24.9,4.6,27.6,6.5c2.6,1.9,28.5,8.1,28.8,8.2c0.2,0,7.1,0,9.6,0.6
							c2.4,0.6,11.4,5.2,11,12.5c-0.3,5.8-2.8,7.8-4.3,8.5c-3.1,0.9-4.1,2-4.4,2.7c-0.3,0.8-0.1,1.6,0.5,2.6c0.6,1,1.4,1.5,2.4,1.5
							c2.5,0,5.3-3,5.4-3.1c0.1-0.1,0.3-0.1,0.4,0c0.1,0.1,0.2,0.3,0.1,0.4c0.1-0.1,0.2,0.5,0.5,1.4c4.9,17.1,6,25.5,3.5,26.3
							C127.3,156.4,126.7,156.5,126.2,156.5L126.2,156.5z M122.9,153.5c0,0,0.1,0,0.1,0c0.1,0,0.2,0.1,0.2,0.2
							c0,0.1,0.7,2.1,2.9,2.1l0,0c0.5,0,1-0.1,1.6-0.3c1.1-0.4,2.1-4.1-4-25.4c-0.1-0.5-0.2-0.9-0.3-1.1c-0.9,0.9-3.2,2.8-5.4,2.8
							c-1.2,0-2.3-0.6-3-1.8c-0.7-1.2-0.9-2.3-0.5-3.3c0.5-1.3,2-2.3,4.5-3c1.3-0.6,3.9-2.4,4.1-8c0.3-6.8-8.3-11.2-10.5-11.8
							c-2.4-0.6-9.5-0.6-9.5-0.6c-1.2-0.3-26.4-6.4-29.1-8.3c-2.1-1.5-18.8-4.9-27.3-6.4l0,0c0,0-1.8-0.2-2.7,0.8
							c-0.4,0.4-0.6,1.1-0.5,1.9c0.3,3.2,3.3,3.6,3.3,3.6c0.1,0,0.2,0.1,0.3,0.3c0,0.1,0,0.3-0.1,0.4c0,0-2.6,2.1-2.3,3.8
							c0.3,1.9,2.3,4.7,6.4,4.3c0.1,0,0.2,0,0.3,0.1c0.1,0.1,0.1,0.2,0.1,0.3c-0.5,6.5,8.7,7.6,8.8,7.6c0.2,0,0.3,0.1,0.3,0.3
							c0,0.4,1,9.1,8.9,9.1l0.6,0c0.2,0,0.3,0.1,0.4,0.2c2,6.5,9.6,6.8,9.7,6.8c0.3,0.2,3.9,4.6,9.1,5c2.2,4.9,5.3,5.8,7.7,5.8
							c1.2,0,2-0.3,2-0.3c0.1,0,0.2,0,0.3,0.1c0.1,0.1,0.1,0.2,0.1,0.3c0,0-0.3,2.7,0.8,3.9c0.4,0.4,0.8,0.6,1.4,0.6
							c0.1,0,0.2,0,0.3,0.1c0.1,0.1,0.1,0.2,0.1,0.3c-0.4,1.5-0.3,2.8,0.4,3.7c0.7,1,2.1,1.6,3.8,1.6c0.8,0,1.5-0.1,2-0.4
							c0.2-0.1,0.4,0,0.5,0.2c1.5,3,3.8,3.8,6.8,2.4c0.1-0.1,0.3,0,0.4,0.1c1.1,1.7,2.6,2.5,4.6,2.5c1.3,0,2.3-0.4,2.3-0.4
							C122.8,153.5,122.8,153.5,122.9,153.5L122.9,153.5z"/>
					</g>
					<path class="st4" d="M106.5,107.9c0,0,6.1,0.7,5.4,10.2L106.5,107.9z"/>
					<g class="st5">
						<path d="M111.9,118.5C111.8,118.5,111.8,118.5,111.9,118.5c-0.2,0-0.4-0.2-0.3-0.4c0.7-9.1-5-9.8-5.1-9.8
							c-0.2,0-0.3-0.2-0.3-0.4c0-0.2,0.2-0.4,0.4-0.3c0.1,0,6.5,0.8,5.7,10.6C112.2,118.3,112,118.5,111.9,118.5L111.9,118.5z"/>
					</g>
					<path class="st4" d="M83.1,98.1c0,0-11.8,8.1,10.3,10.6L83.1,98.1z"/>
					<g class="st5">
						<path d="M93.3,109.1C93.3,109.1,93.3,109.1,93.3,109.1c-8.4-1-13-2.9-13.7-5.6c-0.7-2.9,3-5.5,3.2-5.6
							c0.2-0.1,0.4-0.1,0.5,0.1c0.1,0.2,0.1,0.4-0.1,0.5c0,0-3.5,2.5-2.9,4.9c0.4,1.7,3,3.9,13,5.1c0.2,0,0.3,0.2,0.3,0.4
							C93.7,108.9,93.5,109.1,93.3,109.1L93.3,109.1z"/>
					</g>
					<path class="st4" d="M86.4,107.6c-0.1,0.2-5.6,6.6,4.5,8.6c-4.8,4.5,4.2,6.1,4.2,6.1s-1.9,4.8,3.5,6.1c-1.8,5,4,4.7,4,4.7
						s0.2,6.1,7.1,6c-0.1,4.1,4.7,4.4,4.7,4.4s1.4,4.5,6.1,3.1c0.5,3.1,3.7,2.4,3.7,2.4L86.4,107.6z"/>
					<g class="st5">
						<path d="M123.6,149.4c-0.6,0-1.4-0.1-2-0.6c-0.6-0.4-1-1-1.2-1.8c-4,1-5.7-2.3-6-3.2c-1-0.1-4.7-0.8-4.8-4.4
							c-5.9-0.1-6.9-4.7-7-6c-0.8,0-2.8-0.2-3.9-1.6c-0.6-0.8-0.7-1.9-0.3-3.3c-1.6-0.4-2.7-1.2-3.2-2.3c-0.8-1.4-0.5-3-0.3-3.7
							c-1.2-0.3-4.8-1.2-5.4-3.2c-0.3-0.9,0-1.9,1-2.9c-3-0.7-4.9-1.9-5.5-3.5c-0.6-1.5-0.1-3.4,1.3-5.4c0.1-0.2,0.3-0.3,0.5-0.2
							c0.2,0.1,0.2,0.3,0.2,0.5c0,0-0.1,0.1-0.1,0.1c-1.3,1.7-1.7,3.4-1.2,4.7c0.6,1.5,2.5,2.6,5.6,3.2c0.1,0,0.2,0.1,0.3,0.2
							c0,0.1,0,0.3-0.1,0.3c-1.1,1-1.5,1.9-1.2,2.7c0.5,1.7,4,2.6,5.3,2.8c0.1,0,0.2,0.1,0.2,0.2c0,0.1,0.1,0.2,0,0.3
							c0,0-0.7,1.9,0.1,3.5c0.5,1,1.6,1.7,3.2,2.1c0.1,0,0.2,0.1,0.2,0.2c0.1,0.1,0.1,0.2,0,0.3c-0.4,1.3-0.4,2.3,0.1,3
							c1,1.4,3.6,1.3,3.6,1.3c0.1,0,0.2,0,0.2,0.1c0.1,0.1,0.1,0.1,0.1,0.2c0,0.2,0.2,5.6,6.7,5.6c0,0,0.2,0,0.2,0.1
							c0.1,0.1,0.1,0.2,0.1,0.2c-0.1,3.7,4.2,4,4.4,4c0.1,0,0.3,0.1,0.3,0.2c0.1,0.2,1.4,4.1,5.6,2.9c0.1,0,0.2,0,0.3,0
							c0.1,0.1,0.1,0.1,0.2,0.2c0.1,0.8,0.5,1.4,1,1.8c1,0.7,2.3,0.4,2.3,0.4c0.2,0,0.4,0.1,0.4,0.3c0,0.2-0.1,0.4-0.3,0.4
							C124.4,149.3,124,149.4,123.6,149.4L123.6,149.4z"/>
					</g>
					<path class="st6" d="M123,153.9c0,0,0.3-4.3-0.8-5.1L123,153.9z"/>
					<g class="st5">
						<path d="M123,154.3C123,154.3,123,154.3,123,154.3c-0.2,0-0.4-0.2-0.3-0.4c0.1-1.6,0-4.3-0.6-4.9c-0.1-0.1-0.2-0.3,0-0.5
							c0.1-0.1,0.3-0.2,0.5,0c1.1,0.9,0.9,4.7,0.9,5.4C123.3,154.1,123.1,154.3,123,154.3L123,154.3z"/>
					</g>
					<path class="st6" d="M115.3,151.6c0.1-0.1,2-4,1.4-4.6L115.3,151.6z"/>
					<g class="st5">
						<path d="M115.3,151.9c-0.1,0-0.2,0-0.3-0.1c-0.1-0.1-0.1-0.3,0-0.4c0.4-0.7,1.7-3.8,1.4-4.2c-0.1-0.1-0.1-0.4,0-0.5
							c0.1-0.1,0.3-0.1,0.5,0c0.2,0.2,0.3,0.4,0.2,0.8c0,1.3-1.4,4.2-1.6,4.3C115.5,151.9,115.4,151.9,115.3,151.9L115.3,151.9z"/>
					</g>
					<path class="st6" d="M108.2,149.1l5.2-5.1L108.2,149.1z"/>
					<g class="st5">
						<path d="M108.2,149.5c-0.1,0-0.2,0-0.2-0.1c-0.1-0.1-0.1-0.4,0-0.5l5.2-5.1c0.1-0.1,0.4-0.1,0.5,0c0.1,0.1,0.1,0.4,0,0.5
							l-5.2,5.1C108.4,149.4,108.3,149.5,108.2,149.5L108.2,149.5z"/>
					</g>
					<path class="st6" d="M101.7,144.1c0.1-0.1,7.9-5,7.9-5L101.7,144.1z"/>
					<g class="st5">
						<path d="M101.7,144.4c-0.1,0-0.2,0-0.3-0.1c-0.1-0.1-0.1-0.4,0-0.5c0,0,0.1-0.1,8-5c0.2-0.1,0.4,0,0.5,0.1
							c0.1,0.2,0,0.4-0.1,0.5c-3.1,1.9-7.7,4.8-7.9,4.9C101.8,144.4,101.7,144.4,101.7,144.4L101.7,144.4z"/>
					</g>
					<path class="st6" d="M98.9,139.1c0.1-0.1,4.5-1.9,4.6-3.5L98.9,139.1z"/>
					<g class="st5">
						<path d="M99,139.4c-0.1,0-0.2,0-0.2-0.1c-0.1-0.1-0.3-0.3-0.1-0.4c0,0,0.4-0.2,0.4-0.2c3.3-1.6,4.1-2.6,4.1-3.1
							c0-0.2,0.2-0.4,0.4-0.3c0.2,0,0.3,0.2,0.3,0.4c-0.1,1.4-2.6,2.8-4.5,3.7C99.3,139.3,99.1,139.4,99,139.4L99,139.4z"/>
					</g>
					<path class="st4" d="M89.2,133.5c0,0,10.6,2.3,12.5-0.2L89.2,133.5z"/>
					<g class="st5">
						<path d="M97.3,134.8c-3.4,0-7.4-0.8-8.1-1c-0.2,0-0.3-0.2-0.3-0.4c0-0.2,0.2-0.3,0.4-0.3c2.9,0.6,10.7,1.8,12.1,0
							c0.1-0.1,0.3-0.2,0.5-0.1c0.1,0.1,0.2,0.3,0.1,0.5C101.2,134.5,99.4,134.8,97.3,134.8L97.3,134.8z"/>
					</g>
					<path class="st4" d="M80.4,128.4c0.4,0,15.9,1.7,17.3-0.3L80.4,128.4z"/>
					<g class="st5">
						<path d="M91.9,129.4c-2.7,0-6.3-0.2-10.8-0.6c-0.4,0-0.7-0.1-0.7-0.1c-0.2,0-0.3-0.2-0.3-0.3c0-0.2,0.1-0.3,0.3-0.3
							c0,0,0.3,0,0.8,0.1c13.7,1.2,15.9,0.3,16.3-0.2c0.1-0.2,0.3-0.2,0.5-0.1c0.2,0.1,0.2,0.3,0.1,0.5
							C97.5,129.1,95.4,129.4,91.9,129.4L91.9,129.4z"/>
					</g>
					<path class="st4" d="M70.1,121.4c0.3-0.1,18.3,3.4,23.5,0.8L70.1,121.4z"/>
					<g class="st5">
						<path d="M87,123.5c-5.6,0-12.7-1.1-15.6-1.5c-0.7-0.1-1.2-0.2-1.3-0.2c-0.2,0-0.3-0.1-0.4-0.2c-0.1-0.2,0.1-0.4,0.3-0.4
							c0.1,0,0.1,0,1.5,0.2c11.8,1.8,19.1,2,21.9,0.6c0.2-0.1,0.4,0,0.5,0.1c0.1,0.2,0,0.4-0.2,0.5C92.3,123.2,89.8,123.5,87,123.5
							L87,123.5z"/>
					</g>
					<path class="st4" d="M61.4,112.1c0.4,0,24.1,5.7,27.6,4L61.4,112.1z"/>
					<g class="st5">
						<path d="M86.6,116.7c-5.1,0-15.4-2.1-23.4-3.9c-1-0.2-1.7-0.4-1.8-0.4c-0.2,0-0.3-0.2-0.3-0.3c0-0.2,0.2-0.3,0.4-0.3
							c0.1,0,0.3,0,1.9,0.4c15.1,3.3,23.7,4.6,25.6,3.6c0.2-0.1,0.4,0,0.5,0.1c0.1,0.2,0,0.4-0.2,0.5
							C88.7,116.6,87.8,116.7,86.6,116.7L86.6,116.7z"/>
					</g>
					<path class="st4" d="M52.4,103.8c0.2,0,28.2,6.6,31.7,3.9L52.4,103.8z"/>
					<g class="st5">
						<path d="M80.4,108.7c-6.1,0-17.6-2.2-27.3-4.4l-0.7-0.2c-0.2,0-0.3-0.1-0.3-0.3c0-0.2,0.2-0.3,0.4-0.3c0.1,0,0.1,0,0.8,0.2
							c17.6,3.9,28.7,5.3,30.7,3.8c0.2-0.1,0.4-0.1,0.5,0.1c0.1,0.1,0.1,0.4-0.1,0.5C83.7,108.5,82.3,108.7,80.4,108.7L80.4,108.7z"
							/>
					</g>
					<path class="st4" d="M48.8,95.8c0.1,0,26.9,8.8,29.1,6.6L48.8,95.8z"/>
					<g class="st5">
						<path d="M76.3,103.1c-4.7,0-16.8-3.5-27-6.7l-0.6-0.2c-0.2,0-0.3-0.1-0.3-0.3c0-0.2,0.2-0.3,0.4-0.3c0.1,0,0.1,0,0.7,0.2
							c19.3,6.1,27.2,7.3,28.2,6.5c0.1-0.1,0.4-0.1,0.5,0c0.1,0.1,0.1,0.4,0,0.5C77.9,102.9,77.2,103.1,76.3,103.1L76.3,103.1z"/>
					</g>
					<path class="st4" d="M190.8,128.5c0,0,5.6,6,8.3,1.5c2.8-4.5-3.9-5.7-4-5.8c-0.1-0.1-3.9-1.3-4.2-8.3
						c-0.3-7,8.3-11.5,10.8-12.1c2.4-0.6,9.6-0.6,9.6-0.6s26.2-6.3,28.9-8.3c2.7-1.9,27.4-6.5,27.4-6.5s4-0.5,3.6,3
						c-0.3,3.5-3.6,4-3.6,4s2.8,2.2,2.4,4.1c-0.3,1.9-2.4,5.1-6.8,4.6c0.5,6.9-9.1,8-9.1,8s-1,9.9-9.8,9.4c-2.1,6.8-10,7.1-10,7.1
						s-3.7,4.6-9.1,5c-3.1,7.7-9.8,5.6-9.8,5.6s0.5,4.9-2.6,4.9c1.6,5.6-4.4,6.3-6.6,5.2c-0.6,1.2-2.6,4.8-7.2,2.5
						c-2.8,4.1-7.3,2.2-7.3,2.2s-1,3.3-5,2C182.7,154.8,190.9,128.7,190.8,128.5L190.8,128.5z"/>
					<g class="st5">
						<path d="M188.3,156.7c-0.6,0-1.2-0.1-1.8-0.3c-2.5-0.8-1.4-9.2,3.5-26.3c0.3-0.9,0.4-1.4,0.4-1.6c-0.1-0.2,0-0.3,0.1-0.3
							c0.1-0.1,0.3,0,0.5,0.1c0,0,2.9,3.1,5.4,3.1c1,0,1.8-0.5,2.4-1.5c0.6-1,0.8-1.9,0.5-2.6c-0.3-0.8-1.2-1.8-4-2.6
							c0,0-0.3-0.2-0.4-0.2c-1.5-0.7-4-2.7-4.3-8.5c-0.4-7.3,8.6-11.9,11-12.5c2.4-0.6,9.4-0.6,9.7-0.6c0.2-0.1,26.1-6.3,28.7-8.2
							c2.7-2,26.6-6.4,27.6-6.5c0.1,0,2.2-0.3,3.4,1c0.5,0.6,0.8,1.4,0.7,2.4c-0.3,2.7-2.2,3.7-3.2,4.1c0.8,0.8,2.3,2.4,2.1,4
							c-0.4,2.1-2.5,5.2-6.8,4.9c0.1,6.2-7.6,7.7-9.1,7.9c-0.2,1.6-1.9,9.5-9.5,9.5l-0.4,0c-2.3,6.7-10.2,7.1-10.3,7.1
							c0.1,0.1-3.6,4.6-9.1,5c-1.8,5.1-5.6,5.8-7.7,5.8c-0.8,0-1.4-0.1-1.8-0.2c0,0.9,0,2.8-1,3.9c-0.4,0.4-0.9,0.7-1.5,0.8
							c0.4,1.6,0.2,2.8-0.6,3.9c-0.9,1.1-2.5,1.8-4.3,1.8c-0.7,0-1.5-0.1-2-0.3c-1.4,2.6-3.3,3.2-4.6,3.2c-0.8,0-1.7-0.2-2.7-0.6
							c-2.6,3.6-6.2,2.5-7.3,2.2C191.5,155.1,190.5,156.7,188.3,156.7L188.3,156.7z M191,129.2c-0.1,0.2-0.2,0.6-0.3,1
							c-6.1,21.3-5.1,25.1-4,25.5c0.6,0.2,1.1,0.3,1.6,0.3c2.3,0,2.9-2,2.9-2.1c0-0.1,0.1-0.2,0.2-0.2c0.1,0,0.2,0,0.3,0
							c0,0,1,0.4,2.3,0.4c1.9,0,3.4-0.8,4.6-2.5c0.1-0.1,0.3-0.2,0.4-0.1c2.9,1.4,5.3,0.6,6.8-2.4c0.1-0.2,0.3-0.2,0.5-0.2
							c0.5,0.2,1.3,0.4,2,0.4c1.6,0,3-0.6,3.8-1.6c0.7-0.9,0.8-2.1,0.4-3.7c0-0.1,0-0.2,0.1-0.3c0.1-0.1,0.2-0.1,0.3-0.1
							c0.6,0,1.1-0.2,1.4-0.6c1.1-1.2,0.9-3.9,0.8-3.9c0-0.1,0-0.2,0.1-0.3c0.1-0.1,0.2-0.1,0.3-0.1c0,0,0.8,0.3,2,0.3
							c2.3,0,5.5-1,7.4-5.6c5.5-0.5,9.1-5,9.1-5c0.3-0.1,8-0.5,10-7c0.1-0.2,0.1-0.2,0.3-0.2l0.6,0c7.8,0,8.8-8.8,8.9-9.1
							c0-0.2,0.1-0.3,0.3-0.3c0.1,0,9.3-1.1,8.8-7.6c0-0.1,0-0.2,0.1-0.3c0.1-0.1,0.2-0.1,0.3-0.1c4.1,0.4,6.1-2.4,6.4-4.3
							c0.2-1.4-1.6-3.2-2.3-3.8c-0.1-0.1-0.2-0.2-0.1-0.4c0-0.1,0.1-0.2,0.3-0.3c0.1,0,3-0.4,3.3-3.7c0.1-0.8-0.1-1.4-0.5-1.9
							c-0.9-1-2.7-0.8-2.7-0.8c-8.5,1.6-25.2,4.9-27.3,6.4c-2.7,1.9-27.9,8.1-29,8.3c-0.1,0-7.2,0-9.6,0.6
							c-2.2,0.5-10.8,5-10.5,11.8c0.3,5.6,2.8,7.4,3.9,7.9c2.7,0.8,4.2,1.8,4.7,3.1c0.4,1,0.2,2.1-0.5,3.3c-0.7,1.2-1.8,1.8-3,1.8
							C194.3,132,192,130.1,191,129.2L191,129.2z"/>
					</g>
					<path class="st4" d="M208,108.1c0,0-6.2,0.7-5.4,10.2L208,108.1z"/>
					<g class="st5">
						<path d="M202.6,118.7c-0.2,0-0.3-0.1-0.3-0.3c-0.8-9.7,5.6-10.6,5.7-10.6c0.2,0,0.4,0.1,0.4,0.3c0,0.2-0.1,0.4-0.3,0.4
							c-0.2,0-5.8,0.8-5.1,9.8C203,118.5,202.8,118.7,202.6,118.7C202.6,118.7,202.6,118.7,202.6,118.7L202.6,118.7z"/>
					</g>
					<path class="st4" d="M231.4,98.3c0,0,11.8,8.1-10.3,10.6L231.4,98.3z"/>
					<g class="st5">
						<path d="M221.1,109.2c-0.2,0-0.3-0.1-0.3-0.3c0-0.2,0.1-0.4,0.3-0.4c10-1.2,12.6-3.4,13-5.1c0.6-2.4-2.9-4.9-2.9-4.9
							c-0.2-0.1-0.2-0.3-0.1-0.5c0.1-0.2,0.3-0.2,0.5-0.1c0.2,0.1,3.9,2.7,3.2,5.6C234.1,106.4,229.5,108.3,221.1,109.2
							C221.2,109.2,221.2,109.2,221.1,109.2L221.1,109.2z"/>
					</g>
					<path class="st4" d="M228,107.8c0.1,0.2,5.6,6.6-4.5,8.6c4.8,4.5-4.2,6.1-4.2,6.1s1.9,4.8-3.5,6.1c1.8,5-4,4.7-4,4.7
						s-0.2,6.1-7.1,6c0.1,4.1-4.7,4.4-4.7,4.4s-1.4,4.5-6.1,3.1c-0.5,3.1-3.7,2.4-3.7,2.4L228,107.8z"/>
					<g class="st5">
						<path d="M190.9,149.5c-0.4,0-0.8-0.1-0.8-0.1c-0.2,0-0.3-0.2-0.3-0.4c0-0.2,0.2-0.3,0.4-0.3c0,0,1.3,0.3,2.3-0.4
							c0.5-0.4,0.9-1,1-1.8c0-0.1,0.1-0.2,0.2-0.2c0.1-0.1,0.2-0.1,0.3,0c4.2,1.2,5.6-2.7,5.6-2.9c0-0.1,0.2-0.2,0.3-0.2
							c0.2,0,4.5-0.3,4.4-4c0-0.1,0-0.2,0.1-0.2c0.1-0.1,0.2-0.1,0.2-0.1c0.1,0,0.1,0,0.1,0c6.3,0,6.6-5.4,6.6-5.6
							c0-0.1,0-0.2,0.1-0.2c0.1-0.1,0.2-0.1,0.2-0.1c0,0,2.6,0.1,3.6-1.3c0.5-0.7,0.6-1.7,0.1-3c0-0.1,0-0.2,0-0.3
							c0-0.1,0.1-0.1,0.2-0.2c1.6-0.4,2.6-1.1,3.2-2.1c0.8-1.6,0.1-3.5,0.1-3.5c0-0.1,0-0.2,0-0.3c0-0.1,0.1-0.1,0.2-0.2
							c1.3-0.2,4.8-1.1,5.3-2.8c0.2-0.8-0.2-1.7-1.2-2.7c-0.1-0.1-0.1-0.2-0.1-0.4c0-0.1,0.1-0.2,0.3-0.2c3.1-0.6,5-1.7,5.6-3.2
							c0.5-1.3,0.1-3-1.2-4.7c-0.1-0.2-0.1-0.5,0.1-0.5c0.2-0.1,0.3-0.1,0.4,0.1c1.5,2,1.9,3.9,1.3,5.5c-0.7,1.7-2.5,2.8-5.5,3.5
							c0.9,1,1.2,2,1,2.9c-0.6,2-4.2,3-5.4,3.2c0.2,0.7,0.5,2.3-0.3,3.7c-0.6,1.1-1.7,1.9-3.3,2.4c0.4,1.3,0.3,2.4-0.3,3.3
							c-1,1.4-3.1,1.5-3.9,1.6c-0.2,1.3-1.2,5.9-7,6c-0.2,3.6-3.9,4.2-4.8,4.4c-0.4,0.9-2,4.2-6,3.2c-0.2,0.8-0.6,1.4-1.2,1.8
							C192.2,149.4,191.4,149.5,190.9,149.5L190.9,149.5z"/>
					</g>
					<path class="st6" d="M191.5,154.1c0,0-0.3-4.3,0.8-5.1L191.5,154.1z"/>
					<g class="st5">
						<path d="M191.5,154.5c-0.2,0-0.3-0.1-0.3-0.3c0-0.8-0.2-4.5,0.9-5.4c0.1-0.1,0.4-0.1,0.5,0c0.1,0.1,0.1,0.4,0,0.5
							c-0.6,0.5-0.7,3.3-0.6,4.9C191.9,154.3,191.7,154.4,191.5,154.5C191.5,154.5,191.5,154.5,191.5,154.5L191.5,154.5z"/>
					</g>
					<path class="st6" d="M199.2,151.8c-0.1-0.1-2-4-1.3-4.6L199.2,151.8z"/>
					<g class="st5">
						<path d="M199.2,152.1c-0.1,0-0.2,0-0.3-0.1c0,0-2.3-4.2-1.3-5.1c0.1-0.1,0.4-0.1,0.5,0c0.1,0.1,0.1,0.4,0,0.5
							c-0.3,0.4,0.9,3.5,1.4,4.2c0.1,0.1,0.1,0.3,0,0.5C199.3,152.1,199.3,152.1,199.2,152.1L199.2,152.1z"/>
					</g>
					<path class="st6" d="M206.2,149.3l-5.2-5.1L206.2,149.3z"/>
					<g class="st5">
						<path d="M206.2,149.7c-0.1,0-0.2,0-0.2-0.1l-5.2-5.1c-0.1-0.1-0.1-0.3,0-0.5c0.1-0.1,0.4-0.1,0.5,0l5.2,5.1
							c0.1,0.1,0.1,0.4,0,0.5C206.4,149.6,206.3,149.7,206.2,149.7L206.2,149.7z"/>
					</g>
					<path class="st4" d="M212.8,144.3c-0.1-0.1-7.9-5-7.9-5L212.8,144.3z"/>
					<g class="st5">
						<path d="M212.8,144.6c-0.1,0-0.1,0-0.2-0.1c-0.3-0.2-4.8-3-7.9-4.9c-0.2-0.1-0.2-0.3-0.1-0.5c0.1-0.2,0.3-0.2,0.5-0.1
							c7.9,4.9,7.9,5,8,5c0.1,0.1,0.1,0.4,0,0.5C213,144.6,212.9,144.6,212.8,144.6L212.8,144.6z"/>
					</g>
					<path class="st6" d="M215.6,139.3c-0.1-0.1-4.5-1.9-4.6-3.5L215.6,139.3z"/>
					<g class="st5">
						<path d="M215.6,139.6c-0.1,0-0.1,0-0.2-0.1c-2.1-1-4.6-2.4-4.8-3.8c0-0.2,0.1-0.4,0.3-0.4c0.2-0.1,0.4,0.1,0.4,0.3
							c0.1,0.5,0.8,1.5,4.1,3.1c0,0,0.4,0.2,0.4,0.2c0.1,0.1,0.1,0.4,0,0.5C215.8,139.6,215.7,139.6,215.6,139.6L215.6,139.6z"/>
					</g>
					<path class="st4" d="M225.3,133.6c0,0-10.6,2.3-12.5-0.2L225.3,133.6z"/>
					<g class="st5">
						<path d="M217.2,135c-2.1,0-3.9-0.3-4.7-1.3c-0.1-0.1-0.1-0.4,0.1-0.5c0.2-0.1,0.4-0.1,0.5,0.1c1.4,1.9,9.2,0.7,12.1,0
							c0.2,0,0.4,0.1,0.4,0.3c0,0.2-0.1,0.4-0.3,0.4C224.6,134.1,220.6,135,217.2,135L217.2,135z"/>
					</g>
					<path class="st4" d="M234.1,128.6c-0.4,0-15.9,1.7-17.3-0.3L234.1,128.6z"/>
					<g class="st5">
						<path d="M222.6,129.6c-3.6,0-5.6-0.4-6.1-1.1c-0.1-0.2-0.1-0.4,0.1-0.5c0.1-0.1,0.4-0.1,0.5,0.1c0.3,0.5,2.6,1.4,16.3,0.2
							c0.5,0,0.7-0.1,0.8-0.1c0.2,0,0.3,0.1,0.3,0.3c0,0.2-0.2,0.3-0.3,0.3c-0.1,0-0.3,0-0.7,0.1
							C228.9,129.4,225.3,129.6,222.6,129.6L222.6,129.6z"/>
					</g>
					<path class="st4" d="M244.4,121.6c-0.3-0.1-18.3,3.4-23.5,0.8L244.4,121.6z"/>
					<g class="st5">
						<path d="M227.5,123.7c-2.8,0-5.3-0.3-6.7-1c-0.2-0.1-0.2-0.3-0.2-0.5c0.1-0.2,0.3-0.2,0.5-0.1c2.8,1.4,10.2,1.2,21.9-0.6
							c1.4-0.2,1.4-0.2,1.5-0.2c0.2,0.1,0.3,0.3,0.2,0.4c0,0.1-0.2,0.3-0.4,0.2c-0.1,0-0.6,0.1-1.3,0.2
							C240.1,122.6,233.1,123.7,227.5,123.7L227.5,123.7z"/>
					</g>
					<path class="st4" d="M253,112.3c-0.4,0-24.1,5.7-27.6,4L253,112.3z"/>
					<g class="st5">
						<path d="M227.9,116.9c-1.2,0-2.1-0.1-2.6-0.4c-0.2-0.1-0.2-0.3-0.2-0.5c0.1-0.2,0.3-0.2,0.5-0.2c1.9,0.9,10.5-0.3,25.6-3.6
							c1.6-0.4,1.8-0.4,1.9-0.4c0.2,0,0.3,0.2,0.3,0.3c0,0.2-0.1,0.3-0.3,0.3c-0.1,0-0.8,0.2-1.8,0.4
							C243.3,114.8,232.9,116.9,227.9,116.9L227.9,116.9z"/>
					</g>
					<path class="st4" d="M262,104c-0.2,0-28.2,6.6-31.7,3.9L262,104z"/>
					<g class="st5">
						<path d="M234.1,108.9c-1.9,0-3.3-0.2-4-0.7c-0.1-0.1-0.2-0.3-0.1-0.5c0.1-0.1,0.3-0.2,0.5-0.1c2,1.5,13.2,0.1,30.7-3.8
							c0.7-0.2,0.7-0.2,0.8-0.2c0.2,0,0.3,0.2,0.3,0.3c0,0.2-0.1,0.3-0.3,0.3l-0.7,0.2C251.7,106.7,240.2,108.9,234.1,108.9
							L234.1,108.9z"/>
					</g>
					<path class="st4" d="M265.7,96c-0.1,0-26.9,8.8-29.1,6.6L265.7,96z"/>
					<g class="st5">
						<path d="M238.2,103.3c-0.9,0-1.6-0.1-1.8-0.4c-0.1-0.1-0.1-0.4,0-0.5c0.1-0.1,0.4-0.1,0.5,0c0.9,0.9,8.8-0.3,28.2-6.5
							c0.6-0.2,0.6-0.2,0.7-0.2c0.2,0,0.3,0.2,0.3,0.3c0,0.2-0.1,0.3-0.3,0.3l-0.6,0.2C255,99.8,242.9,103.3,238.2,103.3
							L238.2,103.3z"/>
					</g>
					<path class="st7" d="M223,138.7c0,0-1.6,23.5-1.7,23.5c-0.1-0.1-3.4-4.1-3.4-4.1l-10.3,32.4l2.4,7.1l-6,19.8l-5-6.3l-8,3.2
						l6.4-20.8l5.9-4.3l10.7-32l-5.9,0.7L223,138.7z"/>
					<g class="st5">
						<path d="M204,217.9l-5.3-6.7l-8.2,3.5l6.6-21.4l6.1-4.4l10.5-31.4l-6.2,0.8l15.9-20.5l-0.1,0.9c-1.7,23.7-1.7,23.7-2,23.7
							c-0.2-0.1-0.3-0.1-3.3-3.8l-10.2,32l2.4,6.9L204,217.9L204,217.9z M198.8,210.8l4.9,6l5.9-19.3l-2.4-6.9l10.5-33.1l0.3,0.4
							c0,0,2.1,2.5,3,3.6c0.3-2.9,1.2-15.8,1.6-21.9l-14,18l5.7-0.7l-10.9,32.4l-6.1,4.4l-6.2,20.1L198.8,210.8L198.8,210.8z"/>
					</g>
					<path class="st7" d="M245.9,148.4c0,0-12.5,20-12.6,19.9c0-0.1-1.1-5.2-1.1-5.2l-20.6,19.1l-22,21.2l-0.1-4.4l-7.5-0.9l9.9-7.6
						l5.1-0.8l32.1-29.1l-5.6-2.1L245.9,148.4z"/>
					<g class="st5">
						<path d="M189.4,204l-0.1-5l-7.9-0.7l10.5-8l5.2-0.9l31.6-28.7l-5.8-2.2l23.7-10.6l-0.5,0.8c-12.5,20-12.6,20-12.8,20
							c-0.3-0.2-0.3-0.2-1.3-5l-20.2,18.7L189.4,204L189.4,204z M182.8,197.9l6.8,0.8l0.3,4l21.5-20.8l20.9-19.4l0.1,0.5
							c0,0,0.7,3.2,1,4.6c1.6-2.5,8.4-13.4,11.7-18.6l-20.8,9.3l5.4,2.1l-32.4,29.4l-5.2,0.9L182.8,197.9L182.8,197.9z"/>
					</g>
					<g class="st5">
						<path d="M189.9,199.1l-0.5-0.3c0.1-0.3,6.3-5.6,11.5-10l0.4,0.4C196.9,193,190.2,198.7,189.9,199.1L189.9,199.1z"/>
					</g>
					<path class="st7" d="M239.2,131.5c0,0-6.1,22.8-6.2,22.7c-0.1-0.1-2.6-4.7-2.6-4.7l-24.8,42.6l1,7.4l-8.9,16.3l-3.7-7.1
						l-8.5,1.6l9.5-17.3l6.7-3.1l25.1-42.1l-6-0.4L239.2,131.5z"/>
					<g class="st5">
						<path d="M197.7,216.5l-3.9-7.6l-8.8,1.9l9.8-17.8l6.8-3.2l24.7-41.6l-6.2-0.4l19.5-17.1l-0.2,0.9c-6.1,22.8-6.2,22.8-6.4,22.9
							c-0.3-0.1-0.4-0.2-2.7-4.4l-24.6,42.2l1.1,7.2L197.7,216.5L197.7,216.5z M194,208.5l3.7,6.8l8.7-15.9l-1-7.2l25.1-43.2
							l0.2,0.4c0,0,1.6,2.9,2.3,4.1c0.8-2.7,3.9-14.2,5.8-21.2l-17.2,15l5.8,0.4L202,190.2l-6.8,3.2l-9.1,16.6L194,208.5L194,208.5
							c-0.1-0.1-0.1-0.2,8.5-15.2l0.5,0.3c-2.3,4-8.4,14.6-8.5,15L194,208.5L194,208.5z"/>
					</g>
					<polygon class="st7" points="25.7,127.2 40.7,127.3 39.2,130.9 45.7,156.7 53.6,131 50.8,127.2 66.4,127.2 63.1,130.8 
						50.2,167.7 53.5,172.6 38.6,172.6 41.9,167.7 29.3,131 					"/>
					<g class="st5">
						<path d="M54.1,172.9h-16l3.6-5.3l-12.6-36.5l-4-4.1l16,0.1l-1.7,4l6.3,24.7l7.6-24.8l-3.1-3.9H67l-3.8,4.1l-12.8,36.8
							L54.1,172.9L54.1,172.9z M39.1,172.3H53l-3-4.4l12.8-37.2l3-3.2H51.4l2.5,3.3l-8.1,27L38.9,131l1.4-3.4l-13.9-0.1l3.2,3.3
							l12.6,36.9L39.1,172.3L39.1,172.3z"/>
					</g>
					<polygon class="st7" points="255.2,128.1 269.4,128.1 267.1,131.3 267,168.9 270.2,172.4 255.2,172.4 258.2,168.6 258.1,131.4 
											"/>
					<g class="st5">
						<path d="M270.8,172.7h-16.2l3.3-4.3l-0.1-37.1l-3.3-3.5h15.4l-2.6,3.6l0,37.4L270.8,172.7L270.8,172.7z M255.7,172.2h13.8
							l-2.8-3.1l0-37.8l2.1-2.9h-13.1l2.5,2.8l0.1,37.4L255.7,172.2L255.7,172.2z M147.3,102.1l-0.1-0.5c0.6-0.2,2.4-0.8,2.5-1.7
							c0.2-0.9-3.2-2.8-4.1-3c-0.7-0.2-2.3-2.2-2.6-2.6l0.4-0.3c0.7,0.9,2,2.3,2.4,2.4c0.4,0.1,4.7,2,4.5,3.7
							C150,101.4,147.6,102.1,147.3,102.1L147.3,102.1z M153,97.5c-2.6,0-3.3-3.1-3.3-3.1l-3.7-3.5l0.4-0.4l3.5,3.3
							c2.7-0.6,5.9,1.7,6,1.8c0.1,0.2,0.2,0.5,0,0.9c-0.3,0.5-1.2,0.9-2.4,1C153.3,97.5,153.2,97.5,153,97.5L153,97.5z M150.2,94.3
							c0.2,0.7,0.9,2.9,3.1,2.6c1.4-0.1,1.9-0.5,2-0.7C155.5,96.1,152.6,94,150.2,94.3L150.2,94.3z"/>
					</g>
					<path class="st8" d="M122.9,205.6l5.1-4.2c0,0-1.1-2.3-5.2-2.2c-3.8-2.7-10.4-9-10.4-9l-3.3-8.9c0,0,2.7-0.8,3.3-2.9
						c0.6-2.2-0.2-4.8-0.4-5.1c-0.3-0.3-2.9,0.4-3.7,1.6c-0.8,1.1-2,5.4-3.8,4c-1.8-1.5,0.3-3.1,0.3-3.1s1.8-2.2,1.7-3.5
						c-0.1-1.2-2.4-4.8-2.7-4.9c-0.3-0.1-0.8,4.7-1.5,5.3c-0.7,0.5-1.6,2.7-3,1.5c-1.4-1.2,0.7-3,0.7-3s3.9-2.1,0.1-8.9
						c-1.1,2.9-3.3,4.8-3.3,4.8s-1,1.8-2,0.3c-0.9-1.6,1.1-3,1.1-3s3.4-2,3.4-4.9c0.1-2.9-4.1-6.3-4.1-6.3s-0.3,5.4-1.6,6.1
						c-1.3,0.7-1.8,1.8-3.3,0.6c-1.5-1.2,1.1-3.9,1.1-3.9s4.5-4.5,4.2-7.1c-0.3-2.6-0.5-3-0.5-3s-3.4,2.1-3.8,3.1
						c-0.4,1-1.8,4.8-3.5,3.6c-1.2-1.4,1-4.1,1-4.1s1.6-1.8,1.6-2.6c-0.1-0.8-1.4-3.1-3.9-5.4c-0.3-0.7-0.5-3.5-0.5-3.5
						s-1.9,2.3-1.8,3.5c0.1,1.2-0.2,3.6,0.1,6.3c0.3,2.7-2.1-0.9-2.1-0.9l0.4-8.6c0,0-3.3-4-7.2-5.4c1.5,2.2,1.4,4.2,1.4,4.2
						s-1.6,3.5-1.6,4.5c0,0.9,1.9,5.1,5.4,7.9c-5.3-5.8-12-3.9-14-5c0.9,1.1,3.8,5.4,3.5,6.5c-0.4,1.1,5.1,3.4,5.1,3.4l5.8,0.1
						c0,0,2.9,2,3.1,3.3c0.3,1.3-4.1-2.4-5.9-2.3c-1.7,0.1-6.3-0.6-6.3-0.6s2.8,2.6,2.8,3.7c0.1,1.1,1.3,3.7,2.9,4.4
						c1.7,0.7,6,0.9,6,0.9s1.9-1.1,2.2,0.1c0.3,1.2-2.5,2.2-2.5,2.2s-2.9,0-3.9-0.8c-0.9-0.8-1.1-2.1-5.4-2.6
						c-0.4,3.5,2.3,7.2,2.3,7.2s11.7-0.9,11.6,1.6c-0.1,2.5-9.7,0.3-10-0.5c-0.3-0.8,0.4,4.9,2.7,6.1c2.3,1.2,7.3,0.6,7.9,0.3
						c0.6-0.3,2.8-0.5,2.8,0.8c0,1.3-11.4,2.3-11.6,2c-0.2-0.3,1.7,4.4,6.3,4.1c4.6-0.3,6.6-1.6,6.6-1.6s2.8-0.5,3,0.6
						c0.3,1.1-2.8,1.6-2.8,1.6s-7.3,0.2-7.5-0.2c-0.3-0.3,1.6,4.6,6.7,4.5c3.8-0.4,4.1-2,4.8-2.3c1.1-0.3,3.5-0.3,3.9-0.2
						c0.3,0.1,6.4,4.3,6.4,4.3L122.9,205.6z"/>
					<g class="st5">
						<path d="M122.9,205.8c-0.1,0-0.1,0-0.2-0.1l-15.4-15.5c-2.2-1.5-5.9-4.1-6.3-4.2c-0.1,0-2.5-0.1-3.7,0.2
							c-0.1,0-0.3,0.2-0.5,0.4c-0.6,0.6-1.5,1.6-4.4,1.8c0,0,0,0,0,0c-2.7,0-4.4-1.2-5.4-2.2c-1.1-1.1-1.6-2.3-1.6-2.5
							c0-0.1,0-0.1,0.1-0.2c-2.1-0.2-3.4-1.2-4.2-2.1c-0.9-1-1.5-2.1-1.5-2.3c0-0.2,0.1-0.3,0.3-0.3c0.1,0.1,0.2,0.1,0.6,0.1
							c3.1,0,10.4-1,10.7-1.8c0-1.1-2-0.7-2.5-0.5c-0.4,0.2-2.1,0.4-3.8,0.4c-1.3,0-3.1-0.1-4.3-0.8c-2.2-1.2-3-6-2.9-6.5
							c0.1,0,0.5-0.1,0.6,0c0.3,0.4,4.2,1.5,7.1,1.5c0.9,0,2.3-0.1,2.4-0.9c0-0.1,0-0.3-0.2-0.4c-0.4-0.4-1.7-1-6.5-1
							c-2.5,0-4.6,0.2-4.6,0.2c-0.4-0.3-3.1-3.9-2.6-7.5c0-0.1,0-0.1,0.1-0.2c0.1,0,0.1-0.1,0.2-0.1c3.5,0.4,4.3,1.4,5,2.1
							c0.2,0.2,0.3,0.4,0.5,0.5c0.7,0.6,2.9,0.7,3.7,0.7c0.6-0.2,2.5-1,2.2-1.8c-0.2-0.8-1.8,0.1-1.8,0.1c-0.3,0-4.6-0.2-6.3-0.9
							c-1.7-0.7-3-3.4-3.1-4.6c-0.1-0.7-1.7-2.6-2.8-3.5c-0.1-0.1-0.1-0.2-0.1-0.3c0.1-0.1,0.2-0.2,0.3-0.1c0,0,4,0.6,5.9,0.6l0.4,0
							c0.9,0,2.4,0.9,3.7,1.6c0.8,0.5,1.6,1,1.9,1c-0.3-0.9-2.3-2.5-3.1-3.1l-5.6,0c-1.8-0.8-5.7-2.6-5.3-3.8
							c0.3-0.9-2.3-4.9-3.4-6.2c-0.1-0.1-0.1-0.3,0-0.3c0.1-0.1,0.2-0.1,0.4-0.1c0.5,0.3,1.5,0.4,2.8,0.5c2.2,0.1,5,0.3,7.9,1.9
							c-1.7-2.2-2.5-4.3-2.5-5c0-1,1.5-4.2,1.7-4.6h0c0,0,0-1.9-1.4-4c-0.1-0.1-0.1-0.2,0-0.3c0.1-0.1,0.2-0.1,0.3-0.1
							c4,1.5,7.2,5.4,7.4,5.5l-0.4,8.8c0.6,0.8,1.3,1.6,1.5,1.6c0,0,0.1-0.2,0-0.7c-0.2-1.7-0.1-3.3-0.1-4.5c0-0.7,0-1.3,0-1.8
							c-0.1-1.3,1.7-3.4,1.9-3.7c0.1-0.1,0.2-0.1,0.3-0.1c0.1,0,0.2,0.1,0.2,0.2c0,0.8,0.2,2.8,0.5,3.3c2.5,2.2,3.8,4.6,3.9,5.4
							c0.1,0.9-1.3,2.5-1.6,2.8c-0.6,0.7-1.9,2.7-1,3.7c0.1,0.1,0.3,0.1,0.4,0.1c1.1,0,2.2-2.5,2.6-3.5c0.5-1.3,3.6-3.2,4-3.4
							c0.1,0,0.1-0.1,0.2,0c0.1,0,0.1,0.1,0.2,0.1c0,0.1,0.3,0.6,0.6,3.1c0.3,2.7-4.1,7.1-4.3,7.3c0,0-1.6,1.6-1.5,2.8
							c0,0.3,0.1,0.5,0.3,0.7c0.9,0.7,1.4,0.5,2.1-0.1c0.3-0.2,0.6-0.4,0.9-0.6c0.8-0.4,1.3-3.9,1.4-5.9c0-0.1,0.1-0.2,0.2-0.2
							c0.1,0,0.2,0,0.3,0c0.2,0.1,4.2,3.5,4.2,6.5c-0.1,3.1-3.4,5.1-3.6,5.1c-0.1,0-1.8,1.3-1,2.6c0.6,0.9,1.3,0,1.5-0.3
							c0.1-0.1,2.2-2,3.3-4.8c0-0.1,0.1-0.2,0.2-0.2c0.1,0,0.2,0,0.3,0.1c1.5,2.8,2,5.1,1.5,7c-0.5,1.6-1.6,2.3-1.7,2.3l0,0
							c0,0-1,0.9-1,1.8c0,0.3,0.1,0.5,0.4,0.8c0.8,0.7,1.5-0.1,2.1-0.8c0.2-0.3,0.4-0.5,0.6-0.7c0.3-0.3,0.7-2.3,0.9-3.4
							c0.3-1.6,0.4-1.9,0.7-1.9c0.6,0.2,2.9,4,3,5.2c0.1,1.3-1.6,3.4-1.8,3.6c0,0-0.9,0.8-0.9,1.6c0,0.4,0.2,0.8,0.6,1.1
							c1.1,0.9,2-1.2,2.7-2.6c0.3-0.5,0.5-1,0.7-1.3c0.7-1.1,2.9-1.7,3.7-1.7c0.1,0,0.4,0.1,0.4,0.1c0.4,0.4,1.1,3.2,0.5,5.4
							c-0.5,1.9-2.5,2.8-3.2,3l3.2,8.6l0,0c0,0,6.5,6.2,10.3,8.9c0,0,0.1,0,0.1,0c4,0,5.1,2.2,5.1,2.3l-5.2,4.6
							C123,205.8,123,205.8,122.9,205.8L122.9,205.8z M100.1,185.4c0.3,0,0.9,0,1.1,0.1c0.3,0.1,4.6,3.1,6.5,4.4l15.2,15.4l4.9-4.1
							v0c-0.2,0-1.3-1.8-4.8-1.8c-0.1,0-0.3,0-0.4,0c-3.8-2.7-10.3-8.9-10.4-9l-3.3-9c0-0.1,0-0.1,0-0.2c0-0.1,0.1-0.1,0.2-0.1
							c0,0,2.5-0.8,3.1-2.8c0.6-2.1-0.2-4.6-0.4-4.8c-0.7,0-2.7,0.6-3.3,1.5c-0.2,0.3-0.4,0.7-0.6,1.2c-0.8,1.8-2.1,4-3.6,2.8
							c-0.6-0.5-0.9-1-0.8-1.6c0-1.1,1.1-1.9,1.1-2c0.4-0.6,1.7-2.3,1.6-3.2c-0.1-1-1.9-3.9-2.4-4.6c0.1,0.3,0,0.9-0.1,1.4
							c-0.4,2-0.7,3.4-1.1,3.7c-0.1,0.1-0.3,0.3-0.5,0.6c-0.7,0.8-1.8,1.8-2.8,0.9c-0.4-0.3-0.6-0.7-0.6-1.2c0-1.1,1.2-2.2,1.3-2.3
							c0.1,0,1.1-0.6,1.5-2c0.5-1.6,0.1-3.6-1.2-6c-1.2,2.7-3,4.3-3.1,4.4c0,0-0.6,1-1.3,1c-0.4,0-0.8-0.3-1.1-0.8
							c-0.9-1.4,0.4-2.8,1.2-3.4c0.1,0,3.3-2,3.3-4.7c0.1-2.2-2.5-4.8-3.5-5.7c-0.1,1.5-0.5,5.2-1.7,5.8c-0.3,0.2-0.6,0.4-0.8,0.5
							c-0.8,0.6-1.6,1-2.8,0c-0.3-0.3-0.5-0.6-0.6-1.1c-0.1-1.4,1.6-3.1,1.6-3.2c0,0,4.4-4.4,4.2-6.9c-0.2-1.5-0.3-2.3-0.4-2.6
							c-1.1,0.7-3.1,2.1-3.4,2.8c-0.7,1.7-2.2,4.9-3.9,3.7c-1.4-1.6,0.9-4.3,1-4.5c0.7-0.7,1.5-1.9,1.5-2.4
							c-0.1-0.7-1.3-2.9-3.8-5.2c-0.3-0.6-0.5-2-0.6-2.9c-0.6,0.8-1.4,2-1.3,2.7c0,0.5,0,1.1,0,1.8c0,1.3-0.1,2.8,0.1,4.5
							c0.1,0.6,0,0.9-0.2,1.1c0,0.1-0.3,0.2-0.4,0.2c-0.7,0-1.6-1.4-2-2l0.4-8.8c0,0,0,0,0,0c-0.1,0-2.9-3.3-6.3-4.9
							c1,1.9,1,3.6,1,3.7c-0.5,1.1-1.6,3.7-1.6,4.5c0,0.7,1.2,3.5,3.6,6.1c0.6,0.4,1.2,1,1.8,1.6c0.1,0.1,0.1,0.3,0,0.4
							c-0.1,0.1-0.3,0.1-0.4,0c-0.7-0.5-1.3-1.1-1.8-1.6c-3.2-2.4-6.6-2.7-9.2-2.8c-0.8-0.1-1.5-0.1-2.1-0.2c1.1,1.6,3.3,4.9,3,6
							c-0.1,0.5,2.2,1.9,4.9,3.1l5.7,0.1c0.5,0.3,3.1,2.1,3.4,3.5c0,0.1,0,0.4-0.1,0.5c-0.3,0.4-1.2-0.1-2.6-0.9
							c-1.2-0.7-2.6-1.6-3.4-1.6l-0.4-0.3v0.3c-1.4,0-3.9-0.3-5.2-0.5c0.8,0.9,2.3,2.4,2.3,3.3c0.1,1.1,1.3,3.5,2.8,4.2
							c1.6,0.6,5.7,0.9,5.9,0.9c0,0,0.8-0.5,1.5-0.5c0.5,0,0.9,0.3,1,0.8c0.4,1.4-2.4,2.4-2.7,2.5c-0.2,0-3.1,0-4.1-0.8
							c-0.2-0.2-0.4-0.4-0.6-0.6c-0.6-0.7-1.3-1.5-4.4-1.9c-0.2,3.2,2.1,6.4,2.3,6.7c0.1-0.1,2.1-0.3,4.4-0.3c3.8,0,6.1,0.4,6.9,1.2
							c0.2,0.2,0.3,0.5,0.3,0.8c0,0.9-1,1.4-2.9,1.4c-2.3,0-5.8-0.8-7.2-1.4c0.2,1.3,1,4.6,2.6,5.4c1.1,0.6,2.8,0.7,4,0.7
							c1.8,0,3.3-0.2,3.6-0.4c0.3-0.1,0.8-0.2,1.4-0.2c1.2,0,1.8,0.5,1.8,1.3c0,1.7-10.5,2.3-11.2,2.3c-0.1,0-0.2,0-0.2,0
							c0.5,0.8,2.3,3.5,5.6,3.5c4.8-0.3,6.8-1.6,6.8-1.6c0.1,0,0.8-0.2,1.5-0.2c1.2,0,1.8,0.3,2,0.9c0,0.2,0,0.5-0.1,0.7
							c-0.6,0.9-2.6,1.2-2.8,1.3c0,0-1.9,0-3.7,0c-2,0-3,0-3.5-0.1c0.5,0.9,2.4,3.8,6.2,3.8c2.7-0.2,3.6-1.1,4.2-1.7
							c0.2-0.2,0.4-0.5,0.7-0.5C98,185.5,99.2,185.4,100.1,185.4L100.1,185.4z M86.4,183.5c0.5,0.1,1.4,0.1,3.2,0.1
							c1.8,0,3.6,0,3.6,0c0.5-0.1,2.1-0.5,2.5-1c0-0.7-0.9-0.8-1.4-0.8c-0.7,0-1.3,0.1-1.3,0.1C93,181.9,91,183.2,86.4,183.5
							C86.4,183.5,86.4,183.5,86.4,183.5L86.4,183.5z"/>
					</g>
					<g class="st5">
						<path d="M122.8,205.8c-0.1,0-0.2,0-0.2-0.1c-1.2-1.9-1.7-3.6-1.3-4.9c0.4-1.3,1.4-1.8,1.5-1.8c0.1-0.1,0.3,0,0.4,0.1
							c0.1,0.1,0,0.3-0.1,0.4c0,0-0.9,0.4-1.2,1.5c-0.3,1.2,0.1,2.6,1.2,4.4c0.1,0.1,0,0.3-0.1,0.4
							C122.9,205.8,122.9,205.8,122.8,205.8L122.8,205.8z M91.9,186.4c-1.6,0-2.3-0.6-2.4-0.7c-0.1-0.1-0.1-0.3,0-0.4
							c0.1-0.1,0.3-0.1,0.4,0c0,0,1.7,1.4,5.7-0.4c0.1-0.1,0.3,0,0.4,0.1c0.1,0.1,0,0.3-0.1,0.4C94.1,186.2,92.8,186.4,91.9,186.4
							L91.9,186.4z M87.5,181.2c-1.2,0-2-0.3-2.4-0.5c-0.1,0-0.4-0.2-0.4-0.3c0-0.1,0-0.3,0.2-0.3c0,0,0.3,0.1,0.4,0.1
							c0.7,0.3,2.9,1.3,7.2-1c0.1-0.1,0.3,0,0.4,0.1c0.1,0.1,0,0.3-0.1,0.4C90.5,180.9,88.7,181.2,87.5,181.2L87.5,181.2z
							 M104.7,181.2c-0.3,0-0.6,0-0.9-0.1c-0.1,0-0.2-0.2-0.2-0.3c0-0.1,0.2-0.2,0.3-0.2c4.1,0.7,5.8-3.9,5.8-4.1
							c0-0.1,0.2-0.2,0.4-0.2c0.1,0.1,0.2,0.2,0.2,0.3C110.2,176.6,108.6,181.2,104.7,181.2L104.7,181.2z M101.6,176.5
							c-0.1,0-0.3-0.1-0.3-0.3c0-0.2,0.1-0.3,0.3-0.3c2-0.1,2.8-4.1,2.8-4.1c0-0.1,0.2-0.2,0.3-0.2c0.1,0,0.2,0.2,0.2,0.3
							C104.9,172.1,104,176.4,101.6,176.5L101.6,176.5L101.6,176.5z M85.5,175c-3.3,0-4.6-1.7-4.7-1.8c-0.1-0.1-0.1-0.3,0.1-0.4
							c0.1-0.1,0.3-0.1,0.4,0c0.1,0.1,2,2.5,7.2,1.1c0.1,0,0.3,0,0.3,0.2c0,0.1,0,0.3-0.2,0.3C87.4,174.8,86.4,175,85.5,175
							L85.5,175z M96.8,170.5c-0.1,0-0.2-0.1-0.3-0.2c0-0.1,0.1-0.3,0.2-0.3c1.7-0.3,2.5-2.8,2.5-3.1c0-0.1,0-0.4,0.3-0.3
							c0.2,0,0.3,0.1,0.3,0.3C99.8,167.3,98.9,170.2,96.8,170.5C96.8,170.5,96.8,170.5,96.8,170.5L96.8,170.5z M82.5,167.5
							c-3.8,0-5.9-2.2-6-2.3c-0.1-0.1-0.1-0.3,0-0.4c0.1-0.1,0.3-0.1,0.4,0c0,0,2.6,2.7,7.1,2c0.1,0,0.3,0.1,0.3,0.2
							c0,0.1-0.1,0.3-0.2,0.3C83.6,167.4,83,167.5,82.5,167.5L82.5,167.5z M92.9,163.7c-0.2,0-0.4-0.1-0.4-0.3
							c0-0.2,0.2-0.4,0.3-0.3c1.2,0,2-0.3,2.6-0.9c1.1-1.1,1-3,0.9-3.6l0.3-0.2l0.3,0.1c0,0.7,0.2,2.7-1.1,4
							C95.1,163.4,94.1,163.7,92.9,163.7L92.9,163.7z M83.3,160.1c-2.7,0-7.7-3.1-7.9-3.3c-0.1-0.1-0.2-0.3-0.1-0.4
							c0.1-0.1,0.3-0.2,0.4-0.1c0.1,0,5.4,3.3,7.9,3.2c0.1,0,0.3,0.1,0.3,0.2c0,0.2-0.1,0.3-0.2,0.3
							C83.5,160.1,83.4,160.1,83.3,160.1L83.3,160.1z M89,154.4c-0.1,0-0.2,0-0.3,0c-0.2,0-0.3-0.1-0.3-0.3c0-0.1,0-0.2,0.3-0.3
							c3.1,0.1,4.5-3,4.5-3c0.1-0.1,0.2-0.2,0.4-0.1c0.1,0.1,0.2,0.2,0.1,0.4C93.7,151.1,92.3,154.4,89,154.4L89,154.4z M79.9,151.5
							c-2.9,0-5-0.7-6.3-2c-1.2-1.3-1.1-2.7-1.1-2.8c0-0.1,0.2-0.2,0.3-0.3c0.2,0,0.3,0.1,0.3,0.3c0,0-0.1,1.2,1,2.3
							c1.2,1.3,3.6,1.9,6.7,1.8c0.1,0,0.3,0.1,0.3,0.3c0,0.1-0.1,0.3-0.3,0.3C80.5,151.5,80.2,151.5,79.9,151.5L79.9,151.5z
							 M85.2,150c-0.1,0-0.2-0.1-0.3-0.2c0-0.1,0-0.3,0.2-0.3c1.3-0.4,2.1-1.1,2.4-2c0.5-1.6-0.6-3.4-0.6-3.4
							c-0.1-0.1,0-0.3,0.1-0.4c0.1-0.1,0.3,0,0.4,0.1c0.1,0.1,1.3,2,0.7,3.9C87.6,148.7,86.7,149.5,85.2,150
							C85.2,150,85.2,150,85.2,150L85.2,150z M82.3,148.4c0,0-0.1,0-0.1,0c-4.2-2.6-4.1-10.7-4.1-11c0-0.1,0.1-0.2,0.3-0.3
							c0.2,0,0.3,0.1,0.3,0.3c0,0.1-0.1,8.2,3.8,10.6c0.1,0.1,0.2,0.3,0.1,0.4C82.5,148.4,82.4,148.4,82.3,148.4L82.3,148.4z"/>
					</g>
					<path class="st4" d="M186.3,156.8c0,0,3.4,3.3,3.5,3.9c0.1,0.7,0.9,3.9,1.8,4.3c0.9,0.5,4.3,3.3,4.8,4.3
						c0.5,1.1,3.5,5.7,3.5,5.7s2.8,5.8,4.7,6.3c1.9,0.5,7.3-0.3,8.3,2.2c1.1,2.6,0.8,6.3,0.8,6.3s-1.3,1.2-1.9,0.5
						c-0.6-0.7-1.7,3.4-3.6,2.2c-2.6-5.5-9.3-4.6-9.3-4.6s1.5-2.3-4.5-4.3c-9.4,1.6-12.2-8.2-12.2-8.2l-5.4-4.7L186.3,156.8z"/>
					<g class="st5">
						<path d="M208.9,193.2c-0.3,0-0.6-0.1-0.8-0.2c-1.9-4-5.9-4.6-8.1-4.6c-0.6,0-1,0.1-1,0.1l-0.6,0.1l0.3-0.5c0,0,0.2-0.4,0-1
							c-0.3-0.8-1.3-1.9-4.4-2.9c-0.6,0.1-1.3,0.2-2,0.2c-7.9,0-10.4-8.5-10.4-8.6l-5.3-4.5l9.6-14.7l0.2,0.2
							c0.8,0.8,3.5,3.4,3.5,4.1c0.1,0.8,0.9,3.7,1.6,4.1c0.8,0.5,4.4,3.3,4.9,4.5c0.5,1.1,3.5,5.6,3.5,5.7c0.8,1.6,3.1,5.8,4.6,6.2
							c0.5,0.1,1.3,0.2,2.2,0.2c2.4,0.1,5.5,0.2,6.3,2.2c1.1,2.6,0.8,6.3,0.8,6.4c-0.2,0.4-1.7,1.4-2.4,0.6c0,0.1-0.3,0.5-0.5,0.7
							C210.6,192.1,209.9,193.2,208.9,193.2L208.9,193.2z M208.5,192.6c0.1,0,0.2,0.1,0.4,0.1c0.7,0,1.3-0.9,1.7-1.6
							c0.4-0.6,0.7-1,1-1l0.4,0.2c0.7,0.1,1.3-0.3,1.5-0.5c-0.1,0,0.1-3.6-0.9-6c-0.7-1.7-3.5-1.8-5.8-1.9c-1,0-1.8-0.1-2.4-0.2
							c-2-0.5-4.6-5.8-4.9-6.4c-0.1-0.2-3.1-4.6-3.5-5.7c-0.4-1-3.8-3.7-4.7-4.2c-1.1-0.6-1.9-4-1.9-4.6c-0.1-0.4-1.6-2.1-3.1-3.5
							L177,171l5.3,4.3c0.1,0.2,2.9,9.7,12,8.1c2.9,0.9,4.5,2,4.9,3.3c0.1,0.4,0.1,0.7,0.1,1C200.7,187.7,206.2,187.6,208.5,192.6
							C208.5,192.6,208.5,192.6,208.5,192.6L208.5,192.6z"/>
					</g>
					<polygon class="st4" points="180.8,170.8 185,172.7 184.7,169.2 					"/>
					<g class="st5">
						<polygon points="185.4,173.2 180.7,171 181,170.5 184.7,172.3 184.4,169.2 185,169.1 185.4,173.2 						"/>
					</g>
					<polygon class="st4" points="186.8,170.2 190.7,172.1 189.1,169 					"/>
					<g class="st5">
						<polygon points="191.3,172.7 186.7,170.5 186.9,170 190.1,171.5 188.9,169.1 189.4,168.9 191.3,172.7 						"/>
					</g>
					<polygon class="st4" points="186.6,165.2 190.4,167.2 188.6,163.3 					"/>
					<g class="st5">
						<polygon points="191,167.8 186.5,165.4 186.7,164.9 189.8,166.6 188.4,163.4 188.9,163.1 191,167.8 						"/>
					</g>
					<path class="st4" d="M192.6,183.8c0,0-4.3-5.7-4.3-5.7c0.1,0,7.4,1.4,7.4,1.4l-2.7-5.8l6.7,1.8L192.6,183.8z"/>
					<g class="st5">
						<path d="M192.4,184c-4.4-5.8-4.4-5.8-4.3-6c0.3-0.1,0.3-0.2,7.2,1.2l-2.7-5.9l7.3,1.9l-0.1,0.5l-6.1-1.6l2.7,5.8l-0.5-0.1
							c0,0-4.9-1-6.7-1.3c0.8,1.1,2.6,3.4,3.9,5.1L192.4,184L192.4,184z"/>
					</g>
					<path class="st4" d="M205.1,184.7c0,0,4.3,0.9,4.1,8.1L205.1,184.7z"/>
					<g class="st5">
						<path d="M209.5,192.8l-0.6,0c0.1-6.8-3.7-7.8-3.9-7.8l0.1-0.5C205.4,184.4,209.7,185.5,209.5,192.8L209.5,192.8z"/>
					</g>
					<path class="st4" d="M207.4,183.6c0,0,4.6-0.3,4.3,6.9L207.4,183.6z"/>
					<g class="st5">
						<path d="M212,190.5l-0.5,0c0.1-2.6-0.4-4.5-1.6-5.6c-1.1-1.1-2.5-1-2.5-1.1l0-0.6c0.1,0,1.6-0.1,2.9,1.2
							C211.5,185.7,212.1,187.8,212,190.5L212,190.5z"/>
					</g>
					<path class="st4" d="M127.8,157.7c0,0-3.4,3.3-3.5,3.9c-0.1,0.7-1.4,3.4-2.3,3.9c-0.9,0.5-3.9,3.5-4.4,4.6
						c-0.5,1.1-3.4,5.8-3.4,5.8s-3.3,4.8-5.2,5.3c-2.3,0.2-6.8,0.6-7.8,3.2c-1.1,2.6,0.6,6.5,1.9,6.5c1.9,0.8,2.8,1.7,3.4,1
						c1,0.3,0.4,1.2,2.3,0c-1.4-1.8-1.3-3.6,0.2-4.1c1.4-0.5,3.8,1.7,3.8,1.7s0.9-4,6.9-6c9.4,1.6,12-6,12.6-7.8
						c1.5-2,3.8-2.6,5.7-3.8L127.8,157.7z"/>
					<g class="st5">
						<path d="M107.5,193c-0.3,0-0.5-0.2-0.6-0.3c-0.1-0.1-0.2-0.2-0.5-0.3c0.1,0.1-0.2,0.3-0.4,0.3c-0.4,0-0.9-0.3-1.6-0.6
							c-0.4-0.2-0.9-0.5-1.4-0.7c-0.3,0-0.8-0.3-1.3-1c-1-1.5-1.5-4.1-0.7-5.9c1.2-2.8,6-3.2,8.1-3.4c1.4-0.4,4.1-3.9,5-5.2
							c0,0,2.9-4.7,3.4-5.8c0.5-1.2,3.6-4.3,4.5-4.7c0.8-0.4,2.1-3.1,2.2-3.7c0.1-0.7,2.7-3.3,3.5-4.1l0.2-0.2l10.4,14.9l-0.2,0.2
							c-0.6,0.4-1.3,0.8-2,1.1c-1.4,0.7-2.7,1.4-3.6,2.6c-1.9,5.4-5.4,8.1-10.3,8.1h0c-0.8,0-1.7-0.1-2.6-0.2
							c-5.7,1.9-6.6,5.8-6.6,5.8l-0.1,0.5l-0.4-0.3c0,0-1.8-1.7-3.1-1.7c-0.8,0.2-1.1,0.5-1.3,0.9c-0.2,0.8,0.1,1.8,0.9,2.8l0.2,0.2
							l-0.3,0.2C108.2,192.8,107.8,193,107.5,193L107.5,193z M106.5,191.8c0.4,0.1,0.6,0.3,0.8,0.5l0.2,0.1c0.2,0,0.5-0.1,0.9-0.4
							c-0.8-1.1-1.1-2.2-0.8-3c0.2-0.6,0.6-1,1.3-1.2c1.1-0.4,3,0.9,3.7,1.5c0.4-1.1,1.9-4.1,6.9-5.8c1,0.1,1.8,0.2,2.6,0.2h0
							c7,0,9.1-5.8,9.8-7.7c1.1-1.6,2.5-2.3,3.9-3c0.6-0.3,1.2-0.6,1.7-0.9l-9.7-13.9c-1.5,1.5-3.1,3.2-3.1,3.5
							c-0.1,0.7-1.5,3.6-2.5,4.1c-0.8,0.4-3.8,3.4-4.3,4.5c-0.5,1.1-3.3,5.7-3.4,5.9c-0.1,0.2-3.4,4.9-5.4,5.4
							c-2,0.2-6.6,0.6-7.7,3.1c-0.7,1.7-0.2,4,0.7,5.4c0.3,0.5,0.7,0.8,0.9,0.8c0.7,0.3,1.1,0.5,1.6,0.7c0.6,0.3,1,0.5,1.3,0.5
							l0.1-0.1L106.5,191.8L106.5,191.8z"/>
					</g>
					<g class="st5">
						<path d="M106.1,192.3c-0.1,0-0.2-0.1-0.3-0.2c-0.7-2.2-0.6-4.1,0.2-5.5c1.1-1.8,3.1-2.2,3.2-2.2c0.1,0,0.3,0.1,0.3,0.2
							c0,0.1-0.1,0.3-0.2,0.3c0,0-1.8,0.4-2.8,2c-0.8,1.3-0.8,3-0.1,5C106.4,192.1,106.3,192.2,106.1,192.3
							C106.2,192.3,106.1,192.3,106.1,192.3L106.1,192.3z M121.6,184c0,0-0.1,0-0.1,0c-0.1-0.1-0.2-0.2-0.1-0.4
							c0.5-1,2.2-3.2,3.3-4.6c0.1-0.1,0.2-0.2,0.3-0.4c-1.7,0.4-6.2,1.3-6.2,1.3c-0.1,0-0.2,0-0.3-0.1c-0.1-0.1-0.1-0.2,0-0.3l2-5.3
							l-5.5,1.1c-0.2,0-0.3-0.1-0.3-0.2c0-0.1,0.1-0.3,0.2-0.3l6-1.2c0.1,0,0.2,0,0.3,0.1c0.1,0.1,0.1,0.2,0,0.3l-2,5.3
							c6.4-1.3,6.4-1.3,6.5-1.3c0.3,0.3,0.3,0.3-0.5,1.4c-1,1.3-2.8,3.6-3.2,4.5C121.8,184,121.7,184,121.6,184L121.6,184z
							 M129.1,173.4c-0.1,0-0.1,0-0.2,0c-0.1-0.1-0.1-0.2-0.1-0.3l0.3-3.1c0-0.1,0.2-0.2,0.3-0.2c0.1,0,0.3,0.2,0.2,0.3l-0.3,2.6
							l3.9-2.1c0.1-0.1,0.3,0,0.4,0.1c0.1,0.1,0,0.3-0.1,0.4l-4.4,2.3C129.2,173.4,129.1,173.4,129.1,173.4L129.1,173.4z
							 M123.5,172.4c-0.1,0-0.1,0-0.2-0.1c-0.1-0.1-0.1-0.2,0-0.3l1.9-3.2c0.1-0.1,0.2-0.2,0.4-0.1c0.1,0.1,0.2,0.2,0.1,0.4
							l-1.4,2.4l3.3-1.5c0.1-0.1,0.3,0,0.4,0.1c0.1,0.1,0,0.3-0.1,0.4l-4.1,1.9C123.6,172.4,123.6,172.4,123.5,172.4L123.5,172.4z
							 M124.2,167c-0.1,0-0.1,0-0.2-0.1c-0.1-0.1-0.1-0.2-0.1-0.3l1.3-2.6c0.1-0.1,0.2-0.2,0.4-0.1c0.1,0.1,0.2,0.2,0.1,0.4
							l-0.9,1.9l2.9-1.2c0.1-0.1,0.3,0,0.4,0.1c0.1,0.1,0,0.3-0.1,0.4l-3.6,1.5C124.3,167,124.2,167,124.2,167L124.2,167z"/>
					</g>
					<g class="st5">
						<path d="M103.1,191c-0.7-2.5-0.5-4.4,0.5-5.8c1.3-1.7,3.4-1.8,3.5-1.8l0,0.5c0,0-2,0.1-3.1,1.6c-0.9,1.2-1,3-0.4,5.3
							L103.1,191L103.1,191z"/>
					</g>
					<g class="st5">
						<path d="M180.7,195.7c-0.2,0-0.3-0.1-0.3-0.3c0-0.1-3-11.8-13.1-10.9c-0.2,0-0.3-0.1-0.4-0.3c0-0.2,0.1-0.4,0.3-0.4
							c1-0.2,1.6-0.7,2-1.4c0.8-1.6-0.1-3.7-0.1-3.7l0.3-0.1l0-0.4c0.1,0,0.5,0,0.7,1.8c0.2,1.7-0.2,3-1.2,3.8
							c9.3,0.5,12,11.3,12.1,11.5C181.1,195.5,181,195.7,180.7,195.7C180.7,195.7,180.7,195.7,180.7,195.7L180.7,195.7z"/>
					</g>
					<g class="st5">
						<path d="M152,212.9c-0.1,0-0.3-0.1-0.3-0.3c0-0.8-0.9-19.3,3.1-22.4c0.2-0.2,0.5-0.3,0.7-0.4c-0.1-0.1-0.3-0.2-0.4-0.4
							c-0.1,0.1-0.2,0.1-0.3,0c-0.1-0.1-0.2-0.1-0.4-0.2c-0.5-0.2-1-0.2-1.5,0c-4.3,2.1-6.1,20-6.2,20.2c0,0.2-0.1,0.3-0.3,0.2
							c-0.2,0-0.3-0.1-0.2-0.3c0.1-0.8,1.9-18.4,6.5-20.6c0.3-0.1,0.5-0.2,0.8-0.2c-0.4-0.3-0.6-0.7-0.9-1.1c0,0-0.1,0-0.2,0
							c0,0-0.1,0-0.1,0c0,0,0,0,0,0c-0.3,0.2-9,8.4-10.4,17.9c0,0.1-0.2,0.2-0.3,0.2c-0.1,0-0.3-0.2-0.2-0.3
							c1.2-8.6,8.4-16.3,10.3-18c-0.5-0.1-0.9-0.3-1.3-0.6c-1.3,0.8-11.2,7.5-11.9,15.9c0,0.2-0.1,0.3-0.3,0.2
							c-0.1,0-0.3-0.1-0.2-0.3c0.7-8.2,9.9-14.8,12.1-16.2c-0.2-0.2-0.4-0.4-0.5-0.6c0,0,0,0,0,0c-0.1,0-0.2,0.1-0.2,0.1
							c-0.5,0-0.9-0.2-1.2-0.4c0,0,0,0,0,0c-0.1,0.1-12.5,7.4-12,13.8c0,0.2-0.1,0.3-0.3,0.3c-0.2,0-0.3-0.1-0.3-0.3
							c-0.5-6.4,10.5-13.3,12.1-14.2c0,0-0.1-0.1-0.1-0.1c-0.1-0.1-0.2-0.2-0.3-0.4c-0.1,0.1-0.2,0.1-0.2,0.1c-0.8,0-1.5-0.3-2-0.8
							c0,0-0.1,0-0.1,0c-0.1,0-9.3,1.8-11.5,11.7c0,0.1-0.2,0.2-0.3,0.2c-0.1,0-0.2-0.2-0.2-0.3c2.2-9.4,10.5-11.7,11.8-12.1
							c-0.9-1.5-0.6-3.8-0.4-4.7c0-0.3,0.6-0.3,0.6,0c0,0,0,0.1,0,0.1c-0.2,0.9-0.5,3.3,0.5,4.5c0.4,0.5,1,0.8,1.8,0.8
							c-0.2-0.7-0.4-1.8-0.1-3.4c0-0.3,0.6-0.4,0.6-0.1c0,0,0,0.1,0,0.2c-0.4,2.2,0,3.3,0.4,3.8c0.3,0.4,0.8,0.6,1.3,0.7
							c-0.6-1.6,0.2-3.3,0.2-3.4c0.1-0.1,0.2-0.2,0.4-0.1c0.1,0.1,0.2,0.2,0.1,0.4c0,0-0.8,2,0,3.4c0.1,0.3,0.3,0.5,0.6,0.7
							c0,0,0.1,0,0.1,0.1c0.4,0.3,1,0.5,1.7,0.6c-0.7-1.6-0.3-3.2-0.3-3.2c0-0.1,0.2-0.2,0.3-0.2c0.1,0,0.2,0.2,0.2,0.3
							c0,0.1-0.8,3.2,2.2,4.9c-0.6-1.5,0-3.4,0-3.5c0-0.1,0.2-0.2,0.4-0.2c0.1,0,0.2,0.2,0.2,0.3c0,0-0.7,2,0,3.3
							c0.3,0.5,0.7,0.8,1.3,1c0,0,0,0,0,0c0,0,0.1,0,0.1,0.1c0,0,0.1-0.1,0.1-0.1c0.2-0.1,0.3-0.2,0.5-0.2c2.3-1.2,1.6-4.2,1.5-4.3
							c0-0.1,0-0.3,0.2-0.3c0.2,0,0.3,0,0.3,0.2c0,0,0.7,2.8-1,4.4c0.2,0,0.5,0.1,0.7,0.3c4.2,2.7,3.3,22.1,3.3,22.9
							c0,0.1-0.2,0.3-0.3,0.3c-0.2,0-0.3-0.1-0.3-0.3c0-0.2,0.9-19.9-3.1-22.4c-0.4-0.3-0.8-0.3-1.3-0.2c-0.1,0.1-0.3,0.1-0.5,0.2
							c-0.1,0-0.2,0-0.3,0c-0.1,0.1-0.2,0.2-0.3,0.1c0,0,0,0,0,0c-0.5-0.1-1,0-1.4,0.3c-3.8,3-2.9,21.8-2.9,22
							C152.3,212.7,152.2,212.9,152,212.9C152,212.9,152,212.9,152,212.9L152,212.9z M168,209.4c-0.1,0-0.3-0.1-0.3-0.2
							c0-0.2-2-19.9-7.8-20.5c-0.1,0-0.2-0.1-0.2-0.2c0-0.1,0.1-0.3,0.2-0.3c0.8-0.3,1.4-0.7,1.6-1.3c0.5-1.2-0.3-2.7-0.3-2.7
							c-0.1-0.1,0-0.3,0.1-0.4c0.1-0.1,0.3,0,0.4,0.1c0,0.1,0.8,1.7,0.3,3.1c0,0,0,0,0,0c0,0,0.1,0.1,0.1,0.1c0,0,0.1,0,0.1-0.1
							c0.1,0,0.2,0,0.2,0c2.3-0.6,2.2-3.3,2-4.8c0-0.3,0.5-0.4,0.5-0.2c0.2,1.4,0.2,2.5-0.1,3.4c2.7-1.6,1.9-4.9,1.9-4.9
							c0-0.1,0-0.3,0.2-0.3c0.1,0,0.3,0.1,0.3,0.2c0,0,0.8,3.3-1.7,5.2c10.5,2.7,13.1,13.7,13.1,13.8c0,0.1-0.1,0.3-0.2,0.3
							c-0.1,0-0.3-0.1-0.3-0.2c0-0.1-2.6-11.2-13.3-13.6c-0.1,0-0.1-0.1-0.2-0.1c-0.2,0.4-0.5,0.8-0.9,1.1
							c6.4,0.7,12.4,15.1,12.7,15.7c0.1,0.1,0,0.3-0.1,0.4c-0.1,0.1-0.3,0-0.4-0.2c-0.1-0.2-7-16.7-13.4-15.4c0,0,0,0,0,0
							c2.3,2.3,10.4,11,10.3,17.9c0,0.1-0.1,0.3-0.3,0.3h0c-0.1,0-0.3-0.1-0.3-0.3c0.1-7.1-9.5-16.8-10.6-17.9
							c-0.2,0.4-0.5,0.7-1,0.9c5.6,2.2,7.4,20,7.5,20.8C168.3,209.2,168.2,209.3,168,209.4C168.1,209.4,168.1,209.4,168,209.4
							L168,209.4z"/>
					</g>
					<g class="st5">
						<path d="M157.1,186.3l-0.1-0.1c-26.3-12-40.1-41-32.1-67.5l0.1-0.3l0.3,0.2c0.1,0,8.7,4.7,15,4.7l0.5,0
							c6.4-0.3,16.1-4.4,16.2-4.5c0.3,0.1,8.9,4.9,15.9,4.2c6.9-0.7,16.7-4.4,16.8-4.5l0.3-0.1l0.1,0.3c5.8,28.9-7.1,55.4-32.8,67.5
							L157.1,186.3L157.1,186.3z M125.3,119.3c-7.6,26.1,6,54.6,31.8,66.5c25.3-11.9,38-38,32.4-66.5c-1.7,0.6-10.3,3.8-16.6,4.4
							c-7,0.7-15.8-4.2-15.9-4.2c0.1,0.1-9.7,4.2-16.2,4.5l-0.5,0C134.4,123.9,126.9,120.1,125.3,119.3L125.3,119.3z"/>
					</g>
					<path class="st9" d="M125.1,118.9c0,0,9.1,5,15.6,4.8c6.5-0.3,16.3-4.5,16.3-4.5s8.7,4.9,15.8,4.2c7.1-0.7,16.9-4.5,16.9-4.5
						c5.8,29.2-7.5,55.4-32.6,67.2C130.4,173.8,117.4,144.5,125.1,118.9L125.1,118.9z"/>
					<g class="st5">
						<path d="M157.1,186.4l-0.1-0.1c-26.3-12-40.1-41.1-32.1-67.6l0.1-0.4l0.4,0.2c0.1,0,8.6,4.7,15,4.7l0.5,0
							c6.4-0.3,16.1-4.4,16.2-4.5c0.4,0.1,9,4.8,15.9,4.2c6.9-0.7,16.7-4.4,16.8-4.5l0.4-0.1l0.1,0.4c5.8,29-7.1,55.5-32.8,67.5
							L157.1,186.4L157.1,186.4z M125.3,119.4c-7.6,26,6,54.4,31.7,66.3c25.2-11.9,37.9-37.9,32.4-66.3c-1.9,0.7-10.3,3.8-16.6,4.4
							c-7.1,0.7-15.6-4.1-16-4.3c-0.1,0.2-9.6,4.3-16.1,4.5l-0.5,0C134.4,124,127.1,120.3,125.3,119.4L125.3,119.4z"/>
					</g>
					<path class="st10" d="M125.1,118.9c0,0,2.3,1.3,5.4,2.5c3.1,1.2,7,2.4,10.3,2.3c6.5-0.3,16.3-4.5,16.3-4.5s8.7,4.9,15.8,4.2
						c7.1-0.7,16.9-4.5,16.9-4.5c1.4,8.5,2.1,12.8,0.9,21.2l-67.3-0.4C122.4,131.3,122.5,127.9,125.1,118.9L125.1,118.9z"/>
					<g class="st5">
						<path d="M190.9,140.4h-0.3L123,140l0-0.3c-0.9-8.7-0.8-12.1,1.8-21l0.1-0.4l0.4,0.2c0,0,2.3,1.3,5.3,2.5
							c3.7,1.5,7.1,2.3,9.6,2.3l0.5,0c6.4-0.3,16.1-4.4,16.2-4.5c0.4,0.1,9,4.8,15.9,4.2c6.9-0.7,16.7-4.4,16.8-4.5l0.4-0.2l0.1,0.4
							c1.4,8.5,2.2,12.8,0.9,21.3L190.9,140.4L190.9,140.4z M123.6,139.3l66.7,0.4c1.2-8.1,0.5-12.3-0.9-20.4
							c-1.9,0.7-10.3,3.8-16.6,4.4c-7.1,0.7-15.6-4.1-16-4.3c-0.1,0.2-9.6,4.3-16.1,4.5l-0.5,0c-2.7,0-6-0.8-9.9-2.3
							c-2.4-0.9-4.3-1.9-5-2.3C122.9,127.7,122.8,131.1,123.6,139.3L123.6,139.3z"/>
					</g>
					<polygon class="st11" points="127.5,140 127.5,155.9 131.9,163.9 131.9,140 					"/>
					<polygon class="st11" points="138.7,140.1 138.7,172.8 143.1,176.8 143,140.1 					"/>
					<polygon class="st11" points="149.6,140.2 149.6,182 154,184.3 153.9,140.2 					"/>
					<polygon class="st11" points="187.2,140.4 187.3,154 183.2,162.3 182.9,140.4 					"/>
					<polygon class="st11" points="176.4,140.3 176.3,171.9 172,175.9 172.1,140.3 					"/>
					<polygon class="st11" points="165.1,140.2 165.2,181.4 160.7,184.2 160.8,140.2 					"/>
					<g class="st5">
						<path d="M157.1,186.3l-0.1-0.1c-26.3-12-40.1-41-32.1-67.5l0.1-0.3l0.3,0.2c0.1,0,8.7,4.7,15,4.7l0.5,0
							c6.4-0.3,16.1-4.4,16.2-4.5c0.3,0.1,8.9,4.9,15.9,4.2c6.9-0.7,16.7-4.4,16.8-4.5l0.3-0.1l0.1,0.3c5.8,28.9-7.1,55.4-32.8,67.5
							L157.1,186.3L157.1,186.3z M125.3,119.3c-7.6,26.1,6,54.6,31.8,66.5c25.3-11.9,38-38,32.4-66.5c-1.7,0.6-10.3,3.8-16.6,4.4
							c-7,0.7-15.8-4.2-15.9-4.2c0.1,0.1-9.7,4.2-16.2,4.5l-0.5,0C134.4,123.9,126.9,120.1,125.3,119.3L125.3,119.3z"/>
					</g>
				</g>
			</g>
		</g>
	</g>
</g>
</svg>
