<?xml version="1.0" encoding="utf-8"?>
<!-- Generator: Adobe Illustrator 22.1.0, SVG Export Plug-In . SVG Version: 6.00 Build 0)  -->
<svg version="1.1" xmlns="http://www.w3.org/2000/svg" xmlns:xlink="http://www.w3.org/1999/xlink" x="0px" y="0px"
	 viewBox="0 0 300 300" style="enable-background:new 0 0 300 300;" xml:space="preserve">
<style type="text/css">
	.st0{clip-path:url(#SVGID_2_);}
	.st1{clip-path:url(#SVGID_4_);fill:#4A9318;}
	.st2{clip-path:url(#SVGID_4_);fill:#F6D128;}
	.st3{clip-path:url(#SVGID_4_);fill:#CB0423;}
	.st4{clip-path:url(#SVGID_4_);}
	.st5{clip-path:url(#SVGID_4_);fill:#FFFFFF;}
	.st6{clip-path:url(#SVGID_6_);}
	.st7{clip-path:url(#SVGID_6_);fill:#FCFF2C;}
</style>
<g id="Layer_2">
</g>
<g id="Layer_1">
	<g>
		<defs>
			<rect id="SVGID_1_" y="-0.1" width="300" height="300"/>
		</defs>
		<clipPath id="SVGID_2_">
			<use xlink:href="#SVGID_1_"  style="overflow:visible;"/>
		</clipPath>
		<g id="Layer_2_1_" class="st0">
		</g>
		<g class="st0">
			<g>
				<defs>
					<rect id="SVGID_3_" y="-0.9" width="517.3" height="301.8"/>
				</defs>
				<clipPath id="SVGID_4_">
					<use xlink:href="#SVGID_3_"  style="overflow:visible;"/>
				</clipPath>
				<rect y="-0.9" class="st1" width="517.3" height="301.8"/>
				<rect y="42.2" class="st2" width="517.3" height="215.6"/>
				<rect y="85.3" class="st3" width="517.3" height="129.3"/>
				<rect y="128.4" class="st4" width="517.3" height="43.1"/>
				<polygon class="st4" points="0,-0.9 0,300.9 11,300.9 212,150 11,-0.9 				"/>
				<polygon class="st5" points="0,-0.9 0,300.9 201,150 				"/>
				<polygon class="st3" points="81.4,73.4 47.5,142.1 99,167.5 				"/>
				<polygon class="st3" points="81.4,73.4 115.3,142.1 63.8,167.5 				"/>
				<polygon class="st3" points="81.4,73.4 55.7,145.6 109.8,164.8 				"/>
				<polygon class="st3" points="81.4,73.4 107,145.6 52.9,164.8 				"/>
				<polygon class="st3" points="154.2,126.3 78.4,115.3 70.2,172.2 				"/>
				<polygon class="st3" points="8.5,126.3 84.3,115.3 92.6,172.2 				"/>
				<polygon class="st3" points="154.2,126.3 77.6,124.2 76.1,181.7 				"/>
				<polygon class="st3" points="8.5,126.3 85.1,124.2 86.7,181.7 				"/>
				<polygon class="st3" points="120.1,203.3 106.6,138.8 74.4,145.5 				"/>
				<polygon class="st3" points="120.1,203.3 62.9,170.6 79.3,142 				"/>
				<polygon class="st3" points="42.7,203.3 99.8,170.6 83.5,142 				"/>
				<polygon class="st3" points="42.7,203.3 56.1,138.8 88.3,145.5 				"/>
				<g class="st4">
					<defs>
						<rect id="SVGID_5_" y="-0.9" width="517.3" height="301.8"/>
					</defs>
					<clipPath id="SVGID_6_">
						<use xlink:href="#SVGID_5_"  style="overflow:visible;"/>
					</clipPath>
					<path class="st6" d="M107.7,197.9c0-9.7,1.7-18.9,5.2-28.8c1.6-4.5,5.8-13.6,6.9-15c0.1-0.1,1.9,0.2,4,0.8c4.2,1.2,5.4,1,5.4-1
						c0-1.1-4.3-5-25.4-22.7c-14.2-11.9-25.9-21.3-26.5-21.3c-0.6,0-1.2-0.3-1.3-0.7c-0.1-0.4-0.8-5-1.5-10.3
						c-0.7-5.3-1.7-10.4-2.1-11.5c-1.3-3.1-4.1-4.8-8.6-5.1c-3.4-0.2-4.1-0.1-6.3,1.2c-1.5,0.9-3.4,1.5-4.6,1.5
						c-2.5,0-4.6,2-4.6,4.4V91l3.7-0.1c2-0.1,3.1,0,2.3,0.2c-2.6,0.5-1.6,4.2,1.5,5.3c3.3,1.2,3.2,0.5,3.2,16.1
						c0,12.8-0.1,14.6-1,17.6c-1.3,4.3-1.3,10.8,0,15c0.5,1.7,1,3.3,1,3.5c0,0.2-1.6,2.3-3.5,4.7c-3.5,4.2-5.6,8.7-5.6,11.8
						c0,0.7-0.5,2-1,2.8c-1.3,1.8-1.3,5-0.1,6.2c1.3,1.2,6.7,23.4,6.7,27.6c0,1.5,0.3,1.5,8.4-0.2c6.6-1.4,22.2-1.7,30-0.6
						c3.6,0.5,7.9,1.3,9.4,1.7C107.9,203.9,107.6,204.1,107.7,197.9"/>
					<path class="st7" d="M101,201.1c-7.2-1.7-15.3-2.4-24.4-2c-4.6,0.2-9.5,0.6-10.8,0.8l-2.4,0.5l-0.6-3.9c-0.3-2.2-0.5-4-0.4-4.1
						c0.1-0.1,2.3-0.5,5-0.9c9.1-1.3,28.5-0.8,37.5,1l1.7,0.3v4.8c0,3.5-0.2,4.7-0.6,4.7C105.6,202.1,103.4,201.6,101,201.1"/>
					<path class="st7" d="M56.2,201.4c0-1.1-2.8-14.7-4.1-19.5c-0.8-3.3-1.5-6.2-1.5-6.4c0-0.3,0.8,0.1,1.7,0.7
						c0.9,0.7,2.1,1.2,2.7,1.2c2.6,0,4.1,4,6.3,17.3c0.3,1.9,0.7,3.9,0.8,4.6c0.2,1.1-0.1,1.3-2.3,1.8
						C56.9,201.8,56.2,201.8,56.2,201.4"/>
					<path class="st7" d="M105.9,191c-0.2-0.3,0.1-0.8,0.5-1.2c0.6-0.6,0.8-0.5,0.8,0.2C107.1,191,106.3,191.7,105.9,191"/>
					<path class="st7" d="M65,188.8c1.4-1.5,1.4-1.5,2.4-0.4c1,1,1,1.1,0.2,1.5c-0.5,0.2-1.6,0.4-2.4,0.4l-1.5,0L65,188.8z"/>
					<path class="st7" d="M98.6,189.7c0.1-0.4,0.6-1,1.2-1.4c0.9-0.6,1.1-0.5,1.9,0.7l0.9,1.4h-2.1
						C99.1,190.4,98.5,190.1,98.6,189.7"/>
					<path class="st7" d="M103.1,188.9c-0.6-0.8-1-1.6-0.9-1.7c0.1-0.1,1.2,0,2.3,0.2l2.2,0.4l-1.3,1.3l-1.2,1.3L103.1,188.9z"/>
					<path class="st7" d="M61.5,189c-0.4-1.1,0.5-2,2-2c1.2,0,1.1,0.1-0.4,1.7C62,189.9,61.8,189.9,61.5,189"/>
					<path class="st7" d="M73.4,188l1.3-1.6l1.3,1.3c0.7,0.7,1.4,1.3,1.5,1.4c0.1,0-1.1,0.2-2.6,0.3l-2.8,0.2L73.4,188z"/>
					<path class="st7" d="M91.4,189.3l-1.7-0.4l1.2-1.3l1.2-1.3l1.5,1.7C95.2,190,95.1,190,91.4,189.3"/>
					<path class="st7" d="M68.9,187.8l-1.2-1.4h1.8c1,0,2.2-0.2,2.7-0.4c0.7-0.3,0.7,0-0.3,1.4c-0.7,1-1.3,1.8-1.5,1.8
						C70.3,189.2,69.6,188.6,68.9,187.8"/>
					<path class="st7" d="M81.9,187.5l1.5-1.7l1.4,1.5c0.8,0.8,1.4,1.6,1.4,1.7c0,0.1-1.3,0.2-2.9,0.2h-2.9L81.9,187.5z"/>
					<path class="st7" d="M95.4,187.8l-1.2-1.4h2.4c2.6,0,2.9,0.4,1.4,1.9C96.9,189.5,96.9,189.5,95.4,187.8"/>
					<path class="st7" d="M77.6,187.2l-1.2-1.4h2.7h2.7l-1.2,1.4C79.2,189,79.1,189,77.6,187.2"/>
					<path class="st7" d="M86.8,187.2l-1.2-1.4h2.7H91l-1.2,1.4C88.4,189,88.2,189,86.8,187.2"/>
					<path class="st7" d="M103.1,185.8c-1.3-0.2-6.3-0.8-11.3-1.2c-8.6-0.7-19.1-0.3-28.6,1c-2,0.3-2.4,0.2-2.4-0.5
						c0-1.5,10.2-2.4,26-2.4c7.7,0,15.5,0.2,17.4,0.5c3.2,0.4,3.4,0.6,3.4,1.8C107.6,186.5,107.2,186.6,103.1,185.8"/>
					<path class="st7" d="M63.5,181c1-1.1,2.1-2,2.3-2c0.2,0,1,0.6,1.6,1.4l1.2,1.4l-2.5,0.4c-1.4,0.2-2.9,0.4-3.5,0.6
						C61.8,182.9,62.1,182.4,63.5,181"/>
					<path class="st7" d="M59.9,181.3c-0.4-1.1-0.3-1.4,0.6-1.8c0.6-0.2,1.5-0.4,2-0.3c0.8,0.1,0.8,0.4-0.6,1.8l-1.6,1.7L59.9,181.3
						z"/>
					<path class="st7" d="M107.1,181.9c0-0.3,0.3-0.6,0.7-0.8c0.5-0.2,0.6,0,0.5,0.5C108,182.5,107.1,182.7,107.1,181.9"/>
					<path class="st7" d="M72.9,179.9c0.8-0.9,1.4-1.8,1.4-1.8c0-0.1,0.7,0.6,1.6,1.5l1.6,1.6l-3,0.2l-3,0.2L72.9,179.9z"/>
					<path class="st7" d="M100.1,181.4l-2.2-0.2l1.6-1.4l1.6-1.5l1.3,1.3c1.4,1.4,1.6,2.3,0.6,2.1
						C102.6,181.7,101.3,181.6,100.1,181.4"/>
					<path class="st7" d="M68.6,179.9l-1.5-1.3l2.4-0.4c1.3-0.2,2.5-0.3,2.6-0.2c0.1,0.1-0.3,0.9-1,1.7l-1.2,1.5L68.6,179.9z"/>
					<path class="st7" d="M90.9,180.8l-1.2-0.4l1.3-1.4c1.1-1.2,1.4-1.2,2.1-0.6c0.4,0.4,1,1.2,1.3,1.8c0.4,0.9,0.3,1-0.9,1
						C92.8,181.2,91.6,181,90.9,180.8"/>
					<path class="st7" d="M103.8,179.5l-1.5-1.8l1.3,0.4c0.7,0.2,2.2,0.4,3.3,0.4l2,0l-1.5,1.4c-0.8,0.8-1.6,1.4-1.8,1.4
						C105.4,181.3,104.6,180.5,103.8,179.5"/>
					<path class="st7" d="M77.7,179.4c-0.6-0.7-1.1-1.5-1.1-1.7c0-0.2,1.3-0.4,2.9-0.4h2.9l-1,1.2C79.7,180.6,78.9,180.8,77.7,179.4
						"/>
					<path class="st7" d="M82.4,179.3c1.6-1.6,2.2-1.6,3.3,0.2c0.7,1.2,0.7,1.2-2,1.2l-2.7,0L82.4,179.3z"/>
					<path class="st7" d="M95,179l-1.2-1.7h1.2c0.7,0,1.9,0.2,2.8,0.4l1.6,0.4l-1.4,1.4c-0.8,0.7-1.5,1.3-1.6,1.3
						C96.3,180.7,95.7,179.9,95,179"/>
					<path class="st7" d="M86.8,178.8l-1.2-1.4h2.7H91l-1.2,1.4C88.4,180.5,88.2,180.5,86.8,178.8"/>
					<path class="st7" d="M59.5,176.9c0.2-0.5,0.6-2.3,1-3.8l0.6-2.8l5.6-3.1c3.1-1.7,6.5-3.9,7.6-4.9c1.1-1,2.3-1.9,2.6-2.1
						c0.8-0.5,15.5,0.6,22.1,1.6c5,0.8,13.8,2.6,14.1,2.8c0.1,0.1-0.7,2.6-1.7,5.7c-1,3.1-1.9,6-2,6.4c-0.2,0.6-0.8,0.7-2.5,0.4
						c-8.4-1.4-32.5-1.3-41.8,0.2C59.9,178.2,59.1,178.1,59.5,176.9"/>
					<path class="st6" d="M102.1,173.4c3.3-3.7,1-9.7-3.6-9.7c-3,0-5.1,2.4-5.1,5.7C93.4,174.6,98.8,177.1,102.1,173.4"/>
					<path class="st7" d="M96.6,173.3c-2.8-1.5-2.6-6.5,0.3-7.8c2.8-1.3,5.6,0.7,5.6,4C102.6,172.6,99.2,174.7,96.6,173.3"/>
					<path class="st6" d="M81.6,173.1c3-2.9,2.4-8-1.3-9.7c-2.4-1.1-5-0.2-6.3,2.3c-1.5,2.7-1.3,4.7,0.8,6.9
						C77,175,79.3,175.2,81.6,173.1"/>
					<path class="st7" d="M76.7,172.8c-3.8-1.7-2.5-8.5,1.6-8.5c4,0,5.3,6.2,1.7,8.2C78.5,173.5,78.3,173.5,76.7,172.8"/>
					<path class="st7" d="M57.3,175.3c0.7-2.1,0.6-4.8-0.2-4.8c-0.4,0-0.7,0.7-0.7,2c0,1.1-0.3,2.3-0.7,2.7
						c-0.6,0.6-0.6,0.1-0.4-2.6c0.1-1.8,0.1-3.3-0.2-3.3c-0.5,0-1.3,2.7-1.7,5.1c-0.2,1.4-0.2,1.4-0.6-0.3c-0.3-1.3-0.2-2.2,0.7-3.8
						c0.6-1.2,1.1-2.9,1.1-3.8c0-1.4,1-2.7,5.7-7.8c3.1-3.4,6.7-7.6,8.1-9.3c2.3-3,2.4-3.3,2.3-6.4c0-1.8-0.2-3.4-0.4-3.6
						c-0.6-0.7-1.4,2.8-1.1,4.6c0.3,1.7,0,2.3-3.3,6.4c-2,2.5-5.3,6.3-7.5,8.4c-3.9,3.9-5.3,6-5.3,8c0,0.6-0.4,2.2-1,3.5
						c-0.5,1.4-0.9,2.7-0.7,3c0.2,0.4,0.1,0.4-0.3,0c-0.4-0.4-0.5-1.3-0.1-3.1c0.3-1.4,0.4-2.7,0.2-2.9c-0.5-1-1.2,0.3-1.5,3
						c-0.2,1.5-0.5,2.7-0.8,2.5c-0.7-0.5-0.5-3.3,0.4-4.7c0.5-0.7,1-2.5,1.3-3.9c0.7-4,2.3-7.1,5.8-11.4c1.8-2.2,3.3-4,3.3-4.1
						c0-0.1-0.5-1.7-1.1-3.5c-1.3-4.2-1.4-10.7-0.2-14.7c1.3-4.1,3.9-8.2,8.1-12.6c4.3-4.5,8.4-7.2,10.4-6.8
						c1.7,0.3,51,41.5,51,42.7c0,0.5-0.4,0.8-0.9,0.8c-0.5,0-13-3.8-27.9-8.4c-23.7-7.4-27.1-8.6-28.1-9.9c-1.5-1.9-1.5-4.8-0.1-6.7
						c0.6-0.8,1-1.8,1-2.2c0-1.2-2.5,1.9-3,3.8c-0.6,2.2,0.5,5.8,2,7c0.6,0.5,5.1,2.1,10,3.7c8.4,2.7,9,2.9,9.4,4.4
						c1.1,3.6-2.5,7.7-7.6,8.9c-1.6,0.4-3.7,1.4-5.2,2.6c-5.7,4.6-9.7,7.3-13.1,8.9c-2,0.9-3.9,1.9-4.2,2.3c-0.3,0.4-0.9,2-1.1,3.7
						c-0.6,3.5-0.8,4.1-1.8,4.1C56.9,176.8,56.9,176.5,57.3,175.3"/>
					<path class="st7" d="M108.9,162.3c-5.2-1.3-13.5-2.5-21.9-3.3l-8.1-0.7l3.1-1.2c1.7-0.7,4.1-1.8,5.4-2.6c2-1.2,2.8-1.3,5.9-1.1
						c4.5,0.4,7.6-0.5,8.7-2.6c0.5-0.8,0.9-1.6,1-1.8c0.1-0.1,3.7,0.9,8,2.2l7.9,2.4l-1.5,2.9c-0.8,1.6-1.9,3.7-2.3,4.7
						C114,163.4,113.7,163.4,108.9,162.3"/>
					<path class="st7" d="M91,152c-0.4-0.3-0.4-0.7,0.1-1.4c0.4-0.6,0.8-0.8,1-0.4C92.6,151,91.7,152.4,91,152"/>
					<path class="st7" d="M92.9,151.8c0-0.7,0.4-0.7,0.8,0c0.2,0.3,0.1,0.6-0.2,0.6C93.1,152.4,92.9,152.2,92.9,151.8"/>
					<path class="st7" d="M95.4,151.5c0-0.5,0.2-0.7,0.5-0.5c0.7,0.4,0.7,1.4,0,1.4C95.7,152.4,95.4,152,95.4,151.5"/>
					<path class="st7" d="M97.8,151.5c-0.2-0.2-0.4-0.8-0.4-1.3c0-0.6,0.1-0.7,0.6-0.2c0.3,0.3,0.5,0.9,0.4,1.3
						C98.3,151.6,98,151.7,97.8,151.5"/>
					<path class="st7" d="M93.8,150.4c-0.2-0.2-0.4-0.8-0.4-1.3c0-0.6,0.2-0.7,0.6-0.2c0.3,0.4,0.5,0.9,0.4,1.3
						C94.2,150.5,94,150.6,93.8,150.4"/>
					<path class="st7" d="M99.7,150.1c-0.6-1,0.1-1.2,0.8-0.3c0.4,0.5,0.4,0.9,0.1,0.9C100.3,150.7,99.9,150.4,99.7,150.1"/>
					<path class="st7" d="M95.7,149.1c-0.2-0.3-0.1-0.7,0.2-0.9c0.3-0.2,0.5,0,0.5,0.5C96.4,149.7,96.1,149.8,95.7,149.1"/>
					<path class="st7" d="M98,148.1c0-0.5,0.2-0.7,0.5-0.5c0.7,0.5,0.7,1.4,0,1.4C98.2,149,98,148.6,98,148.1"/>
					<path class="st7" d="M91.9,147.6c0-1,0.3-1.1,0.7-0.4c0.2,0.3,0.1,0.7-0.2,0.9C92.1,148.4,91.9,148.1,91.9,147.6"/>
					<path class="st7" d="M93.9,147c0-0.5,0.2-0.7,0.5-0.5c0.7,0.5,0.7,1.4,0,1.4C94.1,147.9,93.9,147.5,93.9,147"/>
					<path class="st7" d="M59.7,119.8c-0.1-2.5-0.1-8.2,0-12.7c0.3-9.4,0.1-10.3-2.8-11.3c-2.3-0.8-3.2-1.5-3.2-2.7
						c0-0.7,0.5-0.8,3.1-0.5c2.7,0.3,3.1,0.2,2.9-0.6c-0.3-1.5-3.8-2.6-7.6-2.3c-3,0.2-3.3,0.1-3.1-0.8c0.4-1.7,2.1-2.9,4.6-3.1
						c1.3-0.1,3.3-0.8,4.4-1.4c1.6-0.9,2.7-1.1,5.7-1c6.7,0.4,7.9,2.3,9.7,15c0.7,4.9,1.2,9.5,1.2,10.2c0,0.9-0.9,1.9-3.3,3.5
						c-3.4,2.5-7.9,7-10.1,10.2l-1.3,1.9L59.7,119.8z"/>
					<path class="st6" d="M64.6,90.1c0.8-1,0.8-1.4,0.3-2.6c-0.7-1.8-1.6-1.4-1.2,0.6c0.2,1.2,0,1.4-0.8,1.4c-0.9,0-1.1-0.4-1.1-1.8
						c0-1.5-0.1-1.7-0.8-1.1c-1,0.9-1,2.2,0.1,3.5C62.2,91.5,63.5,91.5,64.6,90.1"/>
				</g>
			</g>
		</g>
	</g>
</g>
</svg>
